<?xml version="1.0" standalone="no"?>
<!DOCTYPE svg PUBLIC "-//W3C//DTD SVG 1.1//EN" "http://www.w3.org/Graphics/SVG/1.1/DTD/svg11.dtd" >
<svg xmlns="http://www.w3.org/2000/svg">
<metadata></metadata>
<defs>
<font id="taamey_david_clmboldoblique" horiz-adv-x="829" >
<font-face units-per-em="2048" ascent="1638" descent="-410" />
<missing-glyph horiz-adv-x="682" />
<glyph horiz-adv-x="0" />
<glyph horiz-adv-x="0" />
<glyph unicode="&#xd;" horiz-adv-x="682" />
<glyph unicode=" "  horiz-adv-x="682" />
<glyph unicode="&#x09;" horiz-adv-x="682" />
<glyph unicode="&#xa0;" horiz-adv-x="682" />
<glyph unicode="!" horiz-adv-x="622" d="M34 1075q46 67 111 129q65 63 126 96q17 -122 42 -287q21 -135 35 -248q9 -72 9 -123v-14q-22 -46 -55 -91q-35 -48 -66 -73q-133 160 -202 611zM138 130q63 152 150 228q130 -55 234 -163q-55 -132 -143 -224q-134 49 -241 159z" />
<glyph unicode="&#x22;" horiz-adv-x="839" d="M-85 1133q74 138 239 226q93 -231 93 -486q0 -106 -17 -223q-68 -74 -170 -109q-18 368 -145 592zM338 1133q74 138 239 226q93 -228 93 -482q0 -111 -18 -227q-69 -75 -169 -109q-16 365 -145 592z" />
<glyph unicode="#" horiz-adv-x="1162" d="M26 305q5 122 34 202h176q4 32 5 58q3 36 12 167h-200q4 118 34 202h177q8 257 9 327q60 11 121 11q62 0 137 -11q-15 -75 -34 -189l-25 -138h206q7 183 10 327q60 11 121 11q62 0 136 -11l-34 -189l-23 -138h172q-6 -118 -34 -202h-164q-7 -94 -10 -112q-1 -10 -3.5 -48 t-4.5 -64l189 -1q-6 -120 -35 -202h-164q-3 -40 -6 -165q-2 -42 -3.5 -84.5t-2.5 -66t-1 -32.5q-65 -9 -127 -9q-64 0 -127 9q32 153 60 348h-207q-4 -61 -7 -165q-3 -85 -7 -183q-63 -9 -128 -9q-64 0 -128 9q37 177 62 348h-186zM429 507h223q0 9 2 29t3 29q6 81 11 167 h-219q-8 -85 -12 -112q-5 -34 -8 -113z" />
<glyph unicode="$" horiz-adv-x="1064" d="M51 912q0 22 5 47q34 183 256 244l4 2l-9 44q37 77 115 133l30 -153q38 2 55 2q127 0 239 -47v-13q0 -110 -48 -212q-94 32 -201 41l39 -212q197 -42 278 -100q57 -42 85 -104q29 -61 29 -127t-17 -128q-51 -174 -235 -268l15 -80q-43 -72 -116 -114l-27 142 q-134 -42 -357 -50q27 148 101 277q110 3 208 20l-60 305q-180 49 -266 113q-81 61 -106 139q-17 54 -17 99zM188 926q1 -26 44 -49q49 -27 157 -56l-34 179q-84 -5 -130 -27q-38 -21 -37 -47zM587 524l46 -236q115 41 140 98q5 12 5 20q0 34 -58 68q-26 16 -133 50z" />
<glyph unicode="%" horiz-adv-x="1414" d="M45 975v35q4 68 43 139q36 70 84 73h6q34 0 105 -30q77 -33 125 -76q98 -87 123 -251q4 -24 4 -53q0 -90 -47 -177q-38 -69 -103 -122q-63 -51 -119 -54q-30 -2 -50 15q-20 19 -42 55q-31 54 -68 155q-61 170 -61 291zM176 1003q0 -39 80 -196q63 -121 92 -129q9 -3 18 6 q6 8 13 26q6 18 6 36q0 10 -4 32q-7 29 -26 68q-21 44 -44 74q-55 68 -118 89q-5 1 -8.5 1.5t-5.5 0.5t-2 -1q-1 -2 -1 -7zM258 0q135 261 216 439q98 212 150 340l173 436q33 3 66 3q95 0 190 -23l-119 -238l-87 -180q-33 -67 -84 -189l-68 -163l-87 -212l-93 -232 q-35 -4 -78 -4q-90 0 -179 23zM832 487v35q4 68 43 138q36 69 84 72h7q37 0 104 -29q76 -31 125 -77q96 -85 123 -249q4 -24 4 -54q0 -91 -47 -178q-37 -68 -104 -121q-61 -49 -118 -55q-31 -2 -50 16q-19 16 -42 56q-33 55 -68 154q-61 171 -61 292zM963 513q0 -39 80 -196 q64 -122 92 -129q11 -2 18 7q7 10 13 25q5 20 5 36q0 17 -4 32q-4 22 -25 69q-22 45 -45 73q-51 68 -117 89q-9 2 -12 2.5t-4 -0.5q-1 -2 -1 -8z" />
<glyph unicode="&#x26;" horiz-adv-x="1264" d="M90 316q0 216 238 293q-156 125 -156 270q0 126 99 207t260 81q151 0 240 -74t89 -188q0 -205 -254 -289l268 -281q70 92 94 192l-21 29l-90 16v78h356v-78l-119 -22q-58 -170 -155 -285l155 -171l142 -12v-82h-359v41l-71 82q-164 -143 -357 -143q-159 0 -258 95 q-101 96 -101 241zM305 384q0 -118 70 -193q70 -73 181 -73q100 0 183 73l-341 362q-93 -72 -93 -169zM381 927q0 -59 39 -116q40 -60 121 -135q121 91 121 213q0 84 -39 132q-39 49 -104 49q-60 0 -99 -40t-39 -103z" />
<glyph unicode="'" horiz-adv-x="418" d="M-85 1133q74 138 239 226q93 -231 93 -486q0 -106 -17 -223q-68 -74 -170 -109q-18 368 -145 592z" />
<glyph unicode="(" horiz-adv-x="720" d="M85 613q0 149 34 285q48 179 169 355q141 -11 246 -67l-44 -66q-41 -63 -51 -80q-20 -33 -43 -77q-30 -58 -41 -93q-12 -40 -21 -94q-8 -41 -8 -92v-17q3 -94 41 -197q37 -101 93 -184q59 -88 106 -143q50 -59 94 -100q-74 -152 -203 -255q-167 155 -256 322 q-91 169 -111 383q-5 68 -5 120z" />
<glyph unicode=")" horiz-adv-x="694" d="M-97 998q64 157 186 268q176 -140 278 -303q102 -162 135 -374q14 -84 14 -176q0 -120 -27 -230q-46 -187 -163 -372q-140 2 -251 51q56 73 82 114q35 56 67 120q38 74 51 148q8 41 8 94q0 31 -3 61q-11 96 -55 192q-42 95 -106 178q-54 72 -115 136q-57 59 -101 93z" />
<glyph unicode="*" horiz-adv-x="977" d="M30 706q0 24 3 47q11 72 40 105l270 -110l-92 273q52 29 128 29h7q72 0 133 -29l2 -270l230 107q45 -36 80 -106q34 -69 39 -146l-279 -34l240 -208q-24 -50 -73 -88q-52 -41 -111 -59l-166 237l-78 -241q-67 23 -132 63q-65 39 -104 88l169 208l-293 34q-13 49 -13 100z " />
<glyph unicode="+" horiz-adv-x="1250" d="M128 478q13 66 16 81q8 31 22 66q14 40 35 75h258l-53 292q74 16 160 16q32 0 48 -1l55 -307h369q-30 -148 -75 -222h-255l51 -290q-72 -19 -153 -19q-37 0 -55 2l-54 307h-369z" />
<glyph unicode="," horiz-adv-x="510" d="M128 164q47 71 102 118q51 44 130 78q57 -182 57 -375q0 -165 -42 -338q-71 -66 -151 -86v27v54q0 314 -96 522z" />
<glyph unicode="-" d="M85 424q41 164 120 272q242 0 548 -102q-35 -122 -108 -225q-163 35 -281 46q-95 9 -203 9h-50h-26z" />
<glyph unicode="." horiz-adv-x="578" d="M119 128q64 151 151 229q133 -58 233 -164q-54 -128 -143 -224q-134 51 -241 159z" />
<glyph unicode="/" horiz-adv-x="773" d="M34 -63q116 364 185 650q67 272 158 724q66 12 133 12q60 0 118 -9l-77 -260l-59 -213q-27 -103 -53 -219l-44 -197l-50 -236l-53 -254q-64 -11 -124 -11q-61 0 -134 13z" />
<glyph unicode="0" horiz-adv-x="1006" d="M70 829v58q4 68 35 152q29 79 76 137q47 59 102 65h6q59 0 179 -51q125 -51 208 -127q162 -144 206 -416q7 -42 7 -89q0 -148 -80 -297q-63 -118 -169 -202q-103 -82 -201 -90h-10q-45 0 -73 25q-32 28 -69 93q-56 90 -115 258q-102 283 -102 484zM274 925 q0 -115 90 -389q84 -269 160 -292q10 -2 15 -2q39 0 86 63q50 68 51 146q0 54 -27 150q-26 97 -69 165q-93 157 -252 212q-38 12 -41 7q-13 -16 -13 -60z" />
<glyph unicode="1" horiz-adv-x="832" d="M8 708q0 200 96 336l84 68q27 22 34 26l43 29l81 57q34 23 62 23q5 0 15 -2q36 -7 57 -54q122 -267 194 -575q38 -165 56 -418q-45 -135 -184 -239q-21 297 -101 573q-55 198 -79 265q-8 23 -11 31.5t-8.5 20t-10 15t-11.5 3.5h-2q-7 0 -15.5 -3t-14 -6t-19.5 -11.5 t-20 -11.5l-122 -78q-54 -37 -123 -79q0 5 -0.5 15t-0.5 15z" />
<glyph unicode="2" horiz-adv-x="896" d="M-39 1004q66 153 201 249q339 -29 439 -209q38 -68 38 -142q0 -92 -59 -201q-6 -15 -39 -69q-35 -57 -48 -86q-51 -108 -51 -209q0 -14 2 -40q197 77 382 205q10 -44 10 -110q0 -28 -1 -44q-3 -90 -23 -141q-261 -137 -588 -250q-34 80 -43 149q-4 27 -4 66q0 46 6 101 q8 77 42 157q36 82 89 171q36 60 54 117q12 38 12 76q0 20 -3 39q-9 58 -51 94q-23 19 -53 33q-25 12 -72 20q-13 3 -26 5t-25.5 4t-17.5 3q-24 3 -87 6q-16 1 -35.5 2.5t-30.5 2t-18 1.5z" />
<glyph unicode="3" horiz-adv-x="940" d="M-46 983q61 175 167 261q271 0 372 -61q77 -47 89 -139q1 -8 1 -25q0 -32 -7 -66q-11 -50 -26 -84l-41 -89q97 -26 159 -56q63 -31 103 -82q54 -63 66 -142q4 -28 4 -43q0 -61 -27 -128q-25 -51 -56 -89q-34 -42 -82 -76q-41 -30 -94 -62q-46 -27 -114 -54 q-69 -28 -117 -45q-68 -25 -127 -44q9 154 75 299q18 6 94 27q80 21 124 38q52 18 68 42q20 22 20 48q0 14 -7 33q-18 47 -84 76q-141 60 -316 84q120 138 144 241v7v8.5v6.5q0 33 -21 59q-28 36 -85 48q-66 13 -155 13q-60 0 -127 -6z" />
<glyph unicode="4" horiz-adv-x="1082" d="M97 406v5q6 247 110 449q137 268 372 411q75 -157 120 -300q43 -136 91 -345q66 23 198 77q2 -11 2 -39q0 -44 -9 -107q-14 -94 -37 -125q-22 -12 -39 -18q-16 -6 -35 -14q-22 -8 -37 -16q17 -74 36 -220q-57 -110 -174 -205q-4 22 -65 358l-84 -21l-80 -20 q-26 -7 -70 -15q-9 -1 -25.5 -4t-29.5 -5t-25 -3h-39q-75 0 -124 30q-56 36 -56 127zM324 575q0 -45 15 -60t54 -15q8 0 30 2q36 4 156 46l-26 105l-24 97q-10 39 -24 79q-14 41 -32 81q-42 -32 -92 -132q-47 -98 -55 -169q-2 -26 -2 -34z" />
<glyph unicode="5" horiz-adv-x="942" d="M13 1137q0 64 14 117q202 -39 702 -112q-35 -151 -120 -239q-1 0 -179 35q-97 18 -198 40q4 -11 9 -26q2 -7 4.5 -15.5t2.5 -9.5q2 -4 7 -22q5 -17 9 -24q5 -10 9 -22q5 -12 12 -24t15 -28q266 -35 357 -66q81 -30 133 -95q53 -67 53 -146q0 -39 -49 -134 q-50 -98 -84 -146q-165 -141 -476 -261q-4 13 -4 38q0 37 11 105q18 102 42 154q188 70 333 172q-6 63 -37 83q-33 20 -123 35q-27 5 -105 13q-64 7 -107 14q-66 12 -87 52q-90 183 -133 401q-11 52 -11 111z" />
<glyph unicode="6" horiz-adv-x="1010" d="M77 746v30q3 57 32 158q33 105 142 203q108 98 218 119q5 -29 5 -70q0 -35 -4 -63q-9 -61 -31 -111q-29 -21 -52 -30q-25 -9 -39 -26q-22 -31 -31 -95q-4 -40 -4 -59q0 -36 6 -70q49 -309 169 -485q20 -29 54 -30h5q32 0 57 19q107 78 149 189q-51 74 -132 112 q-82 37 -160 43q29 160 95 249h36q77 0 153 -35q100 -45 149 -122q38 -58 44 -156q1 -12 1 -35q0 -77 -21 -145q-54 -184 -234 -297q-71 -45 -147 -59q-28 -5 -51 -5q-51 0 -98 19q-71 28 -112 105q-134 252 -186 519q-13 69 -13 128z" />
<glyph unicode="7" horiz-adv-x="936" d="M-48 1007q61 159 164 247q350 -68 577 -140q48 -15 64 -52q10 -21 10 -47q0 -18 -4 -34q-20 -84 -90 -217q-66 -126 -91 -180q-39 -92 -39 -177q0 -95 48 -183q-42 -142 -135 -265q-58 60 -102 140q-45 82 -49 164v10q0 72 21 144q22 75 62 168q40 87 51 122 q24 73 24 122q0 79 -62 94q-190 49 -449 84z" />
<glyph unicode="8" horiz-adv-x="1046" d="M27 887v30q0 87 52 177q58 103 151 167q150 -11 282 -58q135 -48 198 -131q46 -58 46 -125q0 -43 -19 -87q-37 -88 -112 -130q149 -52 203 -80q86 -44 111 -132q10 -33 10 -70q0 -56 -24 -113q-67 -182 -247 -286q-144 -81 -239 -81h-17q-55 6 -92 32q-36 26 -76 82 q-55 76 -80 128q-26 54 -43 135q-6 33 -6 65q0 56 18 109q30 83 96 136q-98 35 -149 89q-54 57 -63 143zM212 997q0 -32 15 -62q22 -40 88 -77q63 -35 130 -59q45 23 66 57q13 20 13 45q0 12 -5 29q-15 38 -104 77q-90 40 -185 53q-16 -15 -18 -53v-10zM379 466 q0 -3 0.5 -9.5t0.5 -10.5q6 -86 57 -180q37 -66 92 -66q33 0 70 22q54 28 92 68q28 33 28 68q0 37 -18 65q-18 31 -46 48q-81 55 -237 113q-39 -45 -39 -118z" />
<glyph unicode="9" horiz-adv-x="1041" d="M35 863q0 91 42 177q56 118 186 173q49 23 115 23q72 0 151 -26q161 -51 246 -166q78 -105 105 -244q14 -78 14 -148q0 -62 -10 -118q-16 -101 -71 -189q-56 -91 -140 -157q-81 -67 -185 -125q-101 -55 -227 -104q0 60 27 165q25 103 53 151q97 41 176 94q78 54 147 126 v17.5v20v16.5q0 67 -14 129q-17 78 -70 177q-25 45 -68 83q-40 34 -82 51q-40 16 -79 24q-39 7 -63 6t-29 -10q-14 -27 -14 -66q0 -26 6 -57q21 -98 102 -144q13 -7 33 -7q48 0 136 45q4 -27 4 -59q0 -88 -40 -171q-20 -14 -41 -26q-5 -3 -47 -25q-35 -16 -50 -19l-51 -8 q-32 -5 -53 4q-70 19 -127 111q-59 96 -76 207q-6 34 -6 69z" />
<glyph unicode=":" horiz-adv-x="599" d="M17 734q65 148 150 227q146 -71 234 -164q-49 -114 -143 -222q-140 52 -241 159zM125 126q69 157 150 229q146 -73 234 -164q-48 -112 -144 -223q-134 51 -240 158z" />
<glyph unicode=";" horiz-adv-x="626" d="M26 734q66 151 150 227q144 -71 234 -164q-50 -115 -144 -222q-140 53 -240 159zM236 164q45 70 101 118q55 46 131 78q56 -183 56 -375q0 -163 -41 -338q-74 -67 -153 -86v30v58q0 306 -94 515z" />
<glyph unicode="&#x3c;" horiz-adv-x="846" d="M34 469q6 97 41 174l601 441q2 -34 2 -51q0 -103 -35 -200l-338 -244l535 -277q-23 -121 -104 -213z" />
<glyph unicode="=" horiz-adv-x="1329" d="M137 664q26 121 70 201h853q-25 -114 -70 -201h-853zM201 299q25 119 70 201h854q-25 -112 -70 -201h-854z" />
<glyph unicode="&#x3e;" horiz-adv-x="843" d="M-43 804q21 121 104 213l700 -367q-4 -91 -41 -172l-595 -442q-3 30 -3 60q0 94 30 177l348 254z" />
<glyph unicode="?" horiz-adv-x="916" d="M34 1068q63 147 145 232q68 0 113 -4q50 -4 112 -18t105 -37q43 -24 82 -67q37 -42 54 -101q6 -21 6 -45q0 -93 -100 -214q-31 -37 -34 -69t11 -60q18 -30 49 -60q-81 -142 -200 -195q-97 91 -97 193v12q2 43 19 76q17 35 36 54q22 23 39 46q23 32 27 48v23q0 23 -5 43 q-14 42 -48 70q-36 30 -89 44q-58 14 -105 20q-50 6 -120 9zM362 128q63 151 150 229q134 -58 234 -164q-56 -129 -144 -224q-136 52 -240 159z" />
<glyph unicode="@" horiz-adv-x="1565" d="M128 418q0 344 242 568q210 195 523 195q253 0 408 -150t155 -394q0 -192 -92 -337q-61 -94 -151 -152q-91 -56 -174 -56q-134 0 -134 137q-129 -132 -239 -132q-92 0 -152 75q-60 74 -60 198q0 168 94 292q61 83 147 130q85 46 175 46q78 0 164 -44l29 39h116 q-12 -33 -46 -178l-61 -290q-14 -67 -14 -106q0 -22 16 -41q17 -17 42 -17q74 0 142 87q111 141 111 342q0 212 -130 339q-128 128 -346 128q-258 0 -432 -167q-203 -191 -203 -488q0 -277 161 -442q162 -167 424 -167q220 0 434 124l30 -68q-264 -150 -508 -150 q-286 0 -483 193q-188 182 -188 486zM631 398q0 -181 123 -181q76 0 156 107l61 340l-61 90q-19 4 -33 4q-102 0 -174 -103q-72 -102 -72 -257z" />
<glyph unicode="A" horiz-adv-x="1111" d="M-19 0v84l103 15l385 1058h180l392 -1056l101 -17v-84h-461v84l107 10l12 22l-102 290h-372l-102 -288l17 -22l107 -12v-84h-367zM358 502h301l-152 421z" />
<glyph unicode="B" horiz-adv-x="1071" d="M49 0v84l101 8l27 27v910l-27 24l-101 9v83h512q379 0 379 -268q0 -202 -244 -268q149 -2 230 -75q81 -74 81 -199q0 -162 -110 -249q-112 -86 -320 -86h-528zM399 97q59 -3 82 -3q150 0 219 54q68 56 68 176q0 217 -256 217q-65 0 -113 -3v-441zM399 637q11 -2 46 -2 q134 0 197 54q63 53 63 168q0 196 -237 196q-21 0 -69 -3v-413z" />
<glyph unicode="C" horiz-adv-x="1088" d="M70 572q0 268 177 437q165 157 431 157q172 0 348 -63v-286h-127l-32 183l-24 29q-72 26 -135 26q-177 0 -282 -128q-105 -129 -105 -354q0 -229 109 -357q110 -129 300 -129q44 0 105 15l25 26l43 207h123v-294q-171 -61 -359 -61q-184 0 -314 76q-134 82 -208 216 q-75 136 -75 300z" />
<glyph unicode="D" horiz-adv-x="1221" d="M49 0v84l105 8l27 27v907l-27 27l-105 9v83h499q295 0 455 -151q159 -151 159 -422q0 -305 -210 -464q-138 -108 -404 -108h-499zM406 96h99q403 0 403 477t-403 477h-99v-954z" />
<glyph unicode="E" horiz-adv-x="1017" d="M49 0v84l105 8l27 27v910l-27 24l-105 9v83h861v-268h-120l-25 150l-23 23h-339v-407h222l24 24l17 123h100v-396h-100l-17 123l-24 24h-222v-444h396l22 28l29 180h116v-305h-917z" />
<glyph unicode="F" horiz-adv-x="942" d="M44 1062v83h857v-287h-118l-25 166l-22 22h-330v-425h229l24 22l17 125h101v-398h-101l-17 125l-24 22h-229v-398l29 -27l120 -8v-84h-504v84l103 8l27 27v910l-27 24z" />
<glyph unicode="G" horiz-adv-x="1211" d="M68 580q0 263 170 424q171 160 453 160q169 0 360 -56v-291h-124l-33 181l-25 31q-68 27 -142 27q-191 0 -301 -126q-110 -125 -110 -350q0 -229 112 -357q112 -129 311 -129q19 0 94 5v348l-27 24l-127 9v83h499v-83l-99 -9l-28 -24v-398q-199 -69 -382 -69 q-268 0 -434 167q-167 167 -167 433z" />
<glyph unicode="H" horiz-adv-x="1297" d="M51 0v84l99 8l27 27v907l-27 27l-99 9v83h483v-83l-102 -9l-28 -27v-374h494v374l-26 27l-102 9v83h481v-83l-99 -9l-27 -27v-907l27 -27l99 -8v-84h-481v84l102 8l26 27v431h-494v-431l28 -27l102 -8v-84h-483z" />
<glyph unicode="I" horiz-adv-x="604" d="M51 0v84l113 8l27 27v910l-27 24l-113 9v83h510v-83l-114 -9l-27 -24v-910l27 -27l114 -8v-84h-510z" />
<glyph unicode="J" horiz-adv-x="793" d="M20 20v308h125l39 -226l24 -22q7 0 14 -1h14q113 0 157 86t44 280v584l-27 24l-120 9v83h502v-83l-104 -9l-28 -24v-582q0 -241 -94 -354t-301 -113q-119 0 -245 40z" />
<glyph unicode="K" horiz-adv-x="1109" d="M51 0v84l104 8l26 27v910l-26 24l-104 9v83h485v-83l-101 -9l-27 -24v-447h48l370 449l-10 22l-96 9v83h384v-83l-119 -12l-325 -388l364 -568l123 -10v-84h-353v60l-287 442h-99v-383l27 -27l101 -8v-84h-485z" />
<glyph unicode="L" horiz-adv-x="926" d="M46 0v84l104 8l29 27v910l-24 24l-109 9v83h492v-83l-105 -9l-27 -24v-930h328l22 27l26 209h126v-335h-862z" />
<glyph unicode="M" horiz-adv-x="1506" d="M43 0v84l109 12l24 30v905l-21 22l-112 10v82h447v-48l266 -783l265 782v49h452v-82l-116 -10l-19 -24v-910l19 -27l116 -8v-84h-473v84l106 8l17 27v917l-355 -1036h-123l-346 1027v-901l25 -30l106 -12v-84h-387z" />
<glyph unicode="N" horiz-adv-x="1240" d="M43 1062v83h392v-46l522 -811v731l-30 32l-104 14v80h389v-80l-101 -14l-29 -32v-1019h-191l-591 916v-790l28 -30l105 -14v-82h-389v82l101 14l31 30v903l-24 24z" />
<glyph unicode="O" horiz-adv-x="1283" d="M70 579q0 281 176 443q161 149 399 149q217 0 376 -133q203 -174 203 -470q0 -276 -183 -445q-161 -150 -384 -150q-264 0 -426 166q-161 167 -161 440zM324 575q0 -231 91 -364q89 -134 230 -134q143 0 233 131q90 132 90 355q0 232 -89 365q-89 134 -230 134 q-145 0 -235 -131t-90 -356z" />
<glyph unicode="P" horiz-adv-x="1001" d="M43 1062v83h460q241 0 354 -81q112 -81 112 -264q0 -178 -117 -278q-115 -100 -330 -100q-52 0 -116 5v-308l26 -27l121 -8v-84h-504v84l101 8l31 27v910l-26 24zM406 524q45 -3 62 -3q266 0 266 273q0 121 -62 186q-62 66 -177 66h-89v-522z" />
<glyph unicode="Q" horiz-adv-x="1283" d="M67 573q0 197 99 354q71 113 198 180q124 65 274 65q231 0 383 -131q208 -179 208 -474q0 -225 -124 -379q-123 -156 -330 -191q3 -103 60 -151q56 -47 170 -47q77 0 157 20v-87q-164 -36 -281 -36q-177 0 -262 70t-85 219v5q-214 35 -340 192q-127 157 -127 391z M324 579q0 -227 93 -361q94 -133 237 -133q140 0 227 131q88 130 88 356q0 228 -91 358q-91 132 -236 132q-141 0 -230 -130q-88 -132 -88 -353z" />
<glyph unicode="R" horiz-adv-x="1145" d="M53 0v84l101 8l27 27v910l-27 24l-101 9v83h519q198 0 299 -74q102 -75 102 -218q0 -237 -294 -292q124 -29 179 -105q25 -36 41 -75q18 -52 32 -96l26 -82q27 -70 70 -95q45 -24 132 -24h22v-82q-100 -14 -171 -14q-110 0 -177 53q-20 15 -39 37l-28 32q-10 13 -22 40 t-15 36l-15 43q-11 34 -13 39q-42 132 -95 184q-52 51 -174 51h-29v-384l27 -27l104 -8v-84h-481zM403 602q15 -1 61 -1q139 0 204 55q66 56 66 173q0 106 -65 163q-65 56 -188 56h-78v-446z" />
<glyph unicode="S" horiz-adv-x="969" d="M101 38v308h129l28 -204l22 -26q75 -24 150 -24q102 0 161 45q59 46 59 117q0 67 -44 117q-43 49 -138 98q-16 7 -52 24q-52 25 -59 29q-9 5 -55 32q-31 19 -58 42q-119 100 -119 233q0 145 111 241q110 96 291 96q153 0 321 -58v-277h-123l-29 178l-24 24 q-48 23 -124 23q-93 0 -147 -45q-55 -46 -55 -117q0 -54 34 -99q34 -44 105 -85q16 -10 102 -49q80 -34 142 -74q153 -98 153 -256q0 -156 -123 -252q-122 -98 -329 -98q-170 0 -329 57z" />
<glyph unicode="T" horiz-adv-x="1029" d="M27 843v302h985v-302h-118l-29 183l-25 22h-205v-929l29 -27l111 -8v-84h-510v84l110 8l29 27v929h-204l-28 -22l-27 -183h-118z" />
<glyph unicode="U" horiz-adv-x="1203" d="M34 1062v83h490v-83l-106 -9l-24 -24v-597q0 -166 63 -243q63 -75 215 -75q140 0 200 80t60 253v575l-26 29l-109 11v83h387v-83l-104 -11l-24 -29v-592q0 -235 -105 -343q-106 -107 -345 -107q-254 0 -365 139q-46 59 -61 134q-14 69 -14 186v590l-24 24z" />
<glyph unicode="V" horiz-adv-x="1083" d="M-36 1062v83h469v-83l-98 -9l-19 -26l283 -778l275 778l-19 26l-102 9v83h373v-83l-111 -23l-378 -1042h-173l-387 1044z" />
<glyph unicode="W" horiz-adv-x="1614" d="M3 1062v83h448v-82l-106 -12l-14 -24l191 -708l246 826h172l253 -845l179 717l-20 24l-113 21v83h372v-83l-107 -24l-262 -1038h-165l-265 874l-259 -874h-166l-276 1038z" />
<glyph unicode="X" horiz-adv-x="1087" d="M0 0v82l109 17l333 456l-311 491l-107 17v82h483v-82l-103 -8l-13 -22l194 -318l222 312l-15 24l-94 12v82h382v-82l-105 -13l-318 -430l328 -516l114 -22v-82h-495v82l108 14l12 22l-209 341l-242 -338l10 -29l111 -10v-82h-394z" />
<glyph unicode="Y" horiz-adv-x="1041" d="M-19 1062v83h466v-83l-95 -9l-16 -20l234 -434l244 418l-14 27l-102 19v82h372v-83l-101 -19l-324 -551v-374l27 -24l116 -9v-85h-512v85l115 9l27 24v333l-328 593z" />
<glyph unicode="Z" horiz-adv-x="1010" d="M75 0v94l597 952h-385l-33 -20l-27 -183h-121v302h822v-94l-597 -950h437l17 24l31 206h123v-331h-864z" />
<glyph unicode="[" horiz-adv-x="832" d="M51 1103q31 160 96 266h432q-10 -133 -91 -248h-246l205 -1164h338q-6 -120 -84 -247h-404z" />
<glyph unicode="\" horiz-adv-x="885" d="M-154 1241q68 12 138 12q75 0 159 -14q330 -618 813 -1288q-75 -24 -162 -24q-66 0 -134 13l-52 94l-250 427q-84 142 -223 357q-142 221 -289 423z" />
<glyph unicode="]" horiz-adv-x="832" d="M-85 1121q6 114 85 248h403l246 -1393q-30 -157 -94 -266h-434q11 134 91 247h245l-204 1164h-338z" />
<glyph unicode="^" horiz-adv-x="1706" d="M343 748l420 471h179l418 -471h-87l-421 331l-422 -331h-87z" />
<glyph unicode="_" horiz-adv-x="853" d="M0 -259h853v-144h-853v144z" />
<glyph unicode="`" horiz-adv-x="853" d="M147 1266h211l166 -324h-116z" />
<glyph unicode="a" horiz-adv-x="928" d="M68 207q0 137 110 197q113 63 409 128v52q0 92 -39 135q-39 42 -123 42q-38 0 -82 -10v-160h-157q-78 0 -78 63q0 77 104 137q107 61 268 61q178 0 248 -69q71 -68 71 -233v-442l22 -24l90 -9v-75h-303l-23 97q-166 -112 -293 -112q-100 0 -161 62q-63 61 -63 160z M294 244q0 -60 34 -94q33 -34 92 -34q64 0 165 51v278q-156 -34 -225 -78q-66 -43 -66 -123z" />
<glyph unicode="b" horiz-adv-x="984" d="M15 1114v67l253 80h82v-488q139 77 247 77q147 0 242 -108q95 -107 95 -279q0 -303 -270 -424q-96 -41 -290 -41h-46l-190 4v1112h-123zM350 92q24 -2 54 -2q156 0 228 81q73 79 73 247q0 145 -65 222t-183 77q-40 0 -107 -14v-611z" />
<glyph unicode="c" horiz-adv-x="812" d="M60 406q0 195 123 318q124 124 317 124q130 0 205 -53q77 -53 77 -133q0 -51 -34 -83q-34 -33 -89 -33q-56 0 -101 33v180q-25 6 -43 6q-92 0 -157 -88q-66 -89 -66 -230q0 -152 72 -239q70 -87 191 -87q110 0 237 77v-121q-164 -91 -323 -91q-185 0 -297 117 q-112 116 -112 303z" />
<glyph unicode="d" horiz-adv-x="1017" d="M63 396q0 204 122 331q123 126 318 126q79 0 161 -17v277h-125v68l255 80h78v-1152l24 -27l87 -7v-75h-319v96q-150 -111 -270 -111q-145 0 -238 114t-93 297zM292 432q0 -144 60 -223q61 -79 169 -79q55 0 143 32v570q-75 26 -126 26q-111 0 -179 -88q-67 -88 -67 -238z " />
<glyph unicode="e" horiz-adv-x="894" d="M63 413q0 195 119 317q118 123 303 123q169 0 262 -100q93 -101 93 -285v-33h-558v-5q0 -147 73 -229q73 -83 201 -83q136 0 282 94v-127q-172 -100 -353 -100q-191 0 -307 117q-115 120 -115 311zM290 526h326v18q0 105 -38 161q-39 54 -110 54q-80 0 -127 -62 q-48 -61 -51 -171z" />
<glyph unicode="f" horiz-adv-x="581" d="M51 707v64l111 52q0 245 174 373q94 72 207 72q74 0 117 -34t43 -91q0 -72 -99 -105l-165 146q-67 -67 -67 -259v-14v-102h229v-102h-229v-594l27 -26l115 -8v-79h-461v79l85 8l24 27v593h-111z" />
<glyph unicode="g" horiz-adv-x="940" d="M58 -137q0 79 47 131q47 51 129 57q-22 45 -22 86q0 78 93 162q-101 28 -157 95q-54 68 -54 161q0 131 98 212t267 81q116 0 236 -49h252v-98h-184q37 -64 37 -131q0 -125 -98 -204q-97 -79 -263 -79q-39 0 -50 1q-14 -36 -14 -63q0 -20 6 -46l116 -15q199 -30 286 -79 t87 -153q0 -124 -128 -214q-128 -88 -331 -88q-168 0 -260 64q-93 63 -93 169zM266 -109q0 -70 57 -121q56 -50 141 -50q89 0 147 47q56 46 56 114q0 59 -42 85q-42 25 -142 43l-145 23q-72 -58 -72 -141zM312 570q0 -96 39 -151q37 -55 101 -55q63 0 100 56q39 56 39 152 q0 90 -39 143q-38 53 -96 53q-65 0 -104 -53q-40 -52 -40 -145z" />
<glyph unicode="h" horiz-adv-x="1018" d="M27 1114v67l253 80h82v-515q193 104 292 104q233 0 233 -283v-458l23 -25l90 -7v-77h-418v77l73 7l24 25v408q0 96 -37 140t-116 44q-67 0 -164 -29v-563l25 -25l76 -7v-77h-422v77l87 7l24 25v1005h-125z" />
<glyph unicode="i" horiz-adv-x="520" d="M51 0v77l92 7l24 25v589h-112v68l240 81h82v-738l26 -25l95 -7v-77h-447zM154 1108q0 55 35 91q35 37 87 37q57 0 93 -36q35 -35 35 -89q0 -58 -35 -93q-37 -37 -91 -37q-53 0 -89 36q-35 37 -35 91z" />
<glyph unicode="j" horiz-adv-x="506" d="M-137 -246q0 42 27 73q26 31 72 40l168 -155q56 77 56 337v649h-121v67l258 82h71v-680q0 -143 -19 -234q-18 -90 -73 -162q-49 -62 -125 -100q-76 -36 -158 -36q-69 0 -113 33q-43 34 -43 86zM160 1108q0 55 35 92q36 36 93 36q52 0 89 -37q36 -37 36 -93q0 -53 -38 -89 q-37 -36 -90 -36t-89 36t-36 91z" />
<glyph unicode="k" horiz-adv-x="943" d="M31 1114v67l263 80h71v-819h38l244 285l-12 19l-75 8v75h348v-75l-111 -13l-195 -217l272 -440l101 -9v-75h-328v67l-198 319h-84v-280l22 -24l86 -7v-75h-430v75l88 9l24 25v1005h-124z" />
<glyph unicode="l" horiz-adv-x="518" d="M39 0v75l99 10l24 24v1004h-123v66l258 82h75v-1148l26 -28l99 -10v-75h-458z" />
<glyph unicode="m" horiz-adv-x="1522" d="M53 0v77l87 7l24 25v589h-111v68l241 81h81v-101q184 107 280 107q130 0 200 -119q202 116 302 116q237 0 237 -283v-458l23 -25l90 -7v-77h-420v77l74 7l23 25v408q0 97 -36 141q-37 43 -121 43q-60 0 -146 -32v-560l24 -25l76 -9v-75h-402v77l70 7l23 29v414 q0 91 -36 133q-37 43 -117 43q-63 0 -144 -31v-563l24 -25l72 -7v-77h-418z" />
<glyph unicode="n" horiz-adv-x="1032" d="M48 698v68l246 81h81v-101q191 104 292 104q232 0 232 -283v-458l23 -25l90 -7v-77h-418v77l73 7l24 25v408q0 95 -36 140q-37 44 -117 44q-64 0 -163 -29v-563l24 -25l75 -7v-77h-421v77l87 7l24 25v589h-116z" />
<glyph unicode="o" horiz-adv-x="984" d="M63 415q0 199 120 317q121 120 322 120q196 0 312 -119q117 -119 117 -322q0 -190 -121 -308q-120 -117 -321 -117q-193 0 -311 118t-118 311zM300 422q0 -165 53 -256q54 -89 144 -89q95 0 148 87q53 88 53 252q0 166 -54 256q-54 89 -146 89t-145 -89t-53 -250z" />
<glyph unicode="p" horiz-adv-x="1008" d="M38 698v68l249 81h77v-103q154 108 269 108q138 0 231 -113q92 -113 92 -290q0 -205 -123 -328t-330 -123q-53 0 -139 11v-274l25 -23l108 -7l-2 -79h-456v79l92 8l24 26v959h-117zM364 102q54 -12 109 -12q114 0 182 89q69 89 69 241q0 134 -61 210q-60 75 -165 75 q-54 0 -134 -33v-570z" />
<glyph unicode="q" horiz-adv-x="981" d="M63 391q0 219 141 339q142 122 398 122q97 0 267 -23q-5 -72 -5 -99v-995l25 -23l86 -7v-77h-456v78l109 7l26 24v336q-146 -80 -255 -80q-147 0 -241 111q-95 112 -95 287zM294 427q0 -145 64 -221q63 -78 176 -78q54 0 120 12v609q-51 9 -86 9q-132 0 -204 -86 q-70 -83 -70 -245z" />
<glyph unicode="r" horiz-adv-x="718" d="M41 698v68l251 81h82l-7 -175q85 92 200 175q24 3 37 3q53 0 113 -29l-22 -236h-89q-38 62 -111 62q-43 0 -121 -48v-490l25 -25l122 -7v-77h-472v77l91 7l24 25v589h-123z" />
<glyph unicode="s" horiz-adv-x="762" d="M70 24v252h104l19 -146l17 -19q66 -36 143 -36q68 0 107 33q38 34 38 90q0 28 -9 47t-33 37q-24 16 -45 27q-9 5 -65 31q-31 13 -73 34q-99 49 -145 100q-46 52 -46 125q0 112 90 184q88 70 244 70q130 0 258 -42v-227h-102l-17 128l-21 18q-56 28 -112 28q-62 0 -96 -28 q-34 -27 -34 -75q0 -50 34 -77q34 -28 125 -73l86 -42q53 -31 65 -39q39 -23 56 -45q13 -17 29 -50q13 -33 13 -66q0 -129 -92 -206q-94 -76 -256 -76q-128 0 -282 43z" />
<glyph unicode="t" horiz-adv-x="610" d="M32 707v64l127 72l88 178h108v-212h253v-102h-253v-425q0 -94 30 -130t112 -36q63 0 111 12v-82q-151 -55 -262 -55q-86 0 -141 38q-42 27 -51 66q-11 39 -11 115v497h-111z" />
<glyph unicode="u" horiz-adv-x="1024" d="M39 703v67l241 82h82v-529q0 -102 37 -146q37 -46 125 -46q52 0 147 28v544h-111v67l242 82h79v-743l24 -25l88 -7v-77h-322v94q-167 -109 -287 -109q-234 0 -234 291v427h-111z" />
<glyph unicode="v" horiz-adv-x="875" d="M-10 753v78h433v-78l-88 -9l-19 -22l177 -498l195 496l-14 24l-87 9v78h324v-78l-99 -12l-293 -741h-154l-273 742z" />
<glyph unicode="w" horiz-adv-x="1363" d="M-2 753v78h424v-78l-84 -12l-19 -24l138 -492l200 606h171l186 -606l150 494l-12 23l-90 11v78h322v-78l-95 -12l-233 -741h-172l-189 613l-203 -613h-171l-220 742z" />
<glyph unicode="x" horiz-adv-x="906" d="M19 0v75l100 19l239 305l-237 340l-97 14v78h411v-72l-65 -10l-8 -19l136 -203l149 214l-87 15v75h314v-78l-94 -12l-219 -284l255 -367l90 -15v-75h-399v67l60 15l6 17l-150 229l-160 -236l87 -17v-75h-331z" />
<glyph unicode="y" horiz-adv-x="878" d="M-7 756v73h434v-73l-87 -10l-17 -24l184 -483l186 481l-15 26l-91 10v73h328v-73l-92 -15l-330 -801q-61 -148 -147 -231q-85 -83 -170 -83q-62 0 -104 39q-43 37 -43 88q0 74 89 121l148 -103q70 57 133 209l-303 761z" />
<glyph unicode="z" horiz-adv-x="844" d="M79 0v106l440 631h-277l-22 -24l-17 -141h-111v257h676v-88l-452 -645h315l26 27l21 157h116v-280h-715z" />
<glyph unicode="{" horiz-adv-x="841" d="M79 449v97h34q114 0 157 49q42 48 42 170v143q0 161 86 229q86 66 285 66h36v-87q-123 -3 -168 -49q-42 -47 -42 -164v-108q0 -134 -59 -205q-60 -72 -189 -93q127 -21 189 -93q60 -70 60 -201v-124q0 -124 41 -170q42 -46 168 -47v-91q-15 0 -26 -1h-26q-196 0 -275 70 q-80 69 -80 247v138q0 125 -43 174q-44 50 -156 50h-34z" />
<glyph unicode="|" horiz-adv-x="853" d="M353 -403v1707h149v-1707h-149z" />
<glyph unicode="}" horiz-adv-x="841" d="M106 -138q126 1 168 47q42 45 42 170v124q0 131 59 202t188 92q-131 21 -188 93q-58 70 -58 205v108q0 118 -43 164q-44 46 -168 49v87h36q203 0 287 -66q85 -64 85 -229v-143q0 -121 42 -171q44 -50 152 -50q2 0 8 0.5t10 0.5q9 1 20 1v-97h-34q-112 0 -156 -50 t-44 -174v-138q0 -178 -79 -247q-79 -70 -276 -70h-26q-11 1 -25 1v91z" />
<glyph unicode="~" horiz-adv-x="1421" d="M148 362v155q177 120 323 120q97 0 244 -50q9 -2 41 -14q11 -3 25.5 -8.5t16.5 -6.5q23 -8 38 -13q30 -9 42 -11q15 -3 38 -6q30 -2 43 -2q140 0 316 128v-154q-172 -118 -318 -118q-74 0 -158 29l-67 23q-51 18 -71 24q-10 3 -61 18q-39 11 -68 15q-28 4 -63 4 q-131 0 -321 -133z" />
<glyph unicode="&#xa3;" horiz-adv-x="1047" d="M119 486q0 42 6 77l44 16q-34 99 -34 189q0 84 31 155q64 150 204 238q142 90 318 105q-6 -141 -50 -252q-235 -21 -278 -98q-10 -19 -10 -51q0 -55 31 -141l23 -67q131 47 204 84q10 -53 10 -93q0 -42 -9 -83q-6 -2 -13 -4.5t-15.5 -5.5t-13.5 -5q-36 -14 -52 -22 l-54 -23q35 -111 35 -216q0 -47 -8 -98q35 1 108 41q77 43 187 114q116 76 164 105q7 -49 7 -106q0 -88 -20 -190q-112 -58 -233 -110q-120 -51 -241 -79q-72 -18 -122 -18q-40 0 -68 11q24 93 24 182q0 147 -67 286l-101 -40q-7 50 -7 99z" />
<glyph unicode="&#xad;" d="M85 424q41 164 120 272q242 0 548 -102q-35 -122 -108 -225q-163 35 -281 46q-95 9 -203 9h-50h-26z" />
<glyph unicode="&#x2000;" horiz-adv-x="691" />
<glyph unicode="&#x2001;" horiz-adv-x="1382" />
<glyph unicode="&#x2002;" horiz-adv-x="691" />
<glyph unicode="&#x2003;" horiz-adv-x="1382" />
<glyph unicode="&#x2004;" horiz-adv-x="460" />
<glyph unicode="&#x2005;" horiz-adv-x="345" />
<glyph unicode="&#x2006;" horiz-adv-x="230" />
<glyph unicode="&#x2007;" horiz-adv-x="230" />
<glyph unicode="&#x2008;" horiz-adv-x="172" />
<glyph unicode="&#x2009;" horiz-adv-x="276" />
<glyph unicode="&#x200a;" horiz-adv-x="76" />
<glyph unicode="&#x2010;" d="M85 424q41 164 120 272q242 0 548 -102q-35 -122 -108 -225q-163 35 -281 46q-95 9 -203 9h-50h-26z" />
<glyph unicode="&#x2011;" d="M85 424q41 164 120 272q242 0 548 -102q-35 -122 -108 -225q-163 35 -281 46q-95 9 -203 9h-50h-26z" />
<glyph unicode="&#x2012;" d="M85 424q41 164 120 272q242 0 548 -102q-35 -122 -108 -225q-163 35 -281 46q-95 9 -203 9h-50h-26z" />
<glyph unicode="&#x2013;" horiz-adv-x="1185" d="M85 424q63 164 184 272q371 0 840 -102q-54 -122 -166 -225q-249 35 -430 46q-146 9 -311 9h-77h-40z" />
<glyph unicode="&#x2014;" horiz-adv-x="2209" d="M85 424q126 164 368 272q742 0 1680 -102q-107 -122 -331 -225q-500 35 -862 46q-291 9 -622 9h-153h-80z" />
<glyph unicode="&#x2018;" horiz-adv-x="418" d="M-102 1027q0 106 17 223q68 74 170 109q18 -368 145 -592q-74 -138 -239 -226q-93 231 -93 486z" />
<glyph unicode="&#x2019;" horiz-adv-x="418" d="M-85 1133q74 138 239 226q93 -231 93 -486q0 -106 -17 -223q-68 -74 -170 -109q-18 368 -145 592z" />
<glyph unicode="&#x201a;" horiz-adv-x="510" d="M128 164q47 71 102 118q51 44 130 78q57 -182 57 -375q0 -165 -42 -338q-71 -66 -151 -86v27v54q0 314 -96 522z" />
<glyph unicode="&#x201c;" horiz-adv-x="727" d="M-110 1027q0 106 17 223q68 74 170 109q18 -368 145 -592q-74 -138 -239 -226q-93 231 -93 486zM212 1027q0 106 17 223q68 74 170 109q18 -368 145 -592q-74 -138 -239 -226q-93 231 -93 486z" />
<glyph unicode="&#x201d;" horiz-adv-x="727" d="M-85 1133q74 138 239 226q93 -231 93 -486q0 -106 -17 -223q-68 -74 -170 -109q-18 368 -145 592zM238 1133q74 138 239 226q93 -231 93 -486q0 -106 -17 -223q-68 -74 -170 -109q-18 368 -145 592z" />
<glyph unicode="&#x201e;" horiz-adv-x="727" d="M128 164q47 71 102 118q51 44 130 78q57 -182 57 -375q0 -165 -42 -338q-71 -66 -151 -86v27v54q0 314 -96 522zM451 164q47 71 102 118q51 44 130 78q57 -182 57 -375q0 -165 -42 -338q-71 -66 -151 -86v27v54q0 314 -96 522z" />
<glyph unicode="&#x202f;" horiz-adv-x="276" />
<glyph unicode="&#x205f;" horiz-adv-x="345" />
<glyph unicode="&#x20ac;" horiz-adv-x="976" d="M102 280q0 70 28 152l32 10q-11 34 -22 80l-29 -8q3 53 12 92q-7 41 -7 81v14q1 113 32 205q41 113 117 206q77 92 177 119q50 12 91 13q6 0 17 0.5t16 0.5q26 0 47 -3q36 -3 65 -10q31 -6 43 -11q11 -5 18 -6q-26 -152 -92 -235q-76 16 -138 16q-37 0 -65 -6 q-78 -15 -106 -63q-22 -37 -25 -85v-13q0 -45 13 -100v-4l352 111v-7q0 -70 -24 -141l-296 -94l24 -82l287 90q-3 -78 -26 -146l-218 -72l5 -14q48 -128 116 -128q5 0 17 2q124 33 318 131q1 -15 1 -44q0 -106 -29 -210q-153 -109 -309 -150q-33 -11 -59 -11h-21 q-31 7 -57 23q-22 14 -45 43q-76 90 -155 288z" />
<glyph unicode="&#xe000;" horiz-adv-x="830" d="M0 0v830h830v-830h-830z" />
</font>
</defs>
</svg>
