<?xml version="1.0" standalone="no"?>
<!DOCTYPE svg PUBLIC "-//W3C//DTD SVG 1.1//EN" "http://www.w3.org/Graphics/SVG/1.1/DTD/svg11.dtd" >
<svg xmlns="http://www.w3.org/2000/svg">
<metadata></metadata>
<defs>
<font id="taamey_david_clmmediumoblique" horiz-adv-x="771" >
<font-face units-per-em="2048" ascent="1638" descent="-410" />
<missing-glyph horiz-adv-x="651" />
<glyph horiz-adv-x="0" />
<glyph horiz-adv-x="0" />
<glyph unicode="&#xd;" horiz-adv-x="682" />
<glyph unicode=" "  horiz-adv-x="651" />
<glyph unicode="&#x09;" horiz-adv-x="651" />
<glyph unicode="&#xa0;" horiz-adv-x="651" />
<glyph unicode="!" horiz-adv-x="515" d="M-77 965q0 22 13 49q29 55 71 100.5t87 69.5q9 -20 13.5 -42t9 -63t6.5 -55q36 -243 104 -497q-19 -137 -89 -169q-24 45 -44.5 92t-43.5 111t-35.5 102t-41.5 128t-40 125q-10 30 -10 49zM140 81q35 77 108 148q52 -38 79 -63.5t61 -67.5q-38 -86 -103 -140 q-40 27 -56.5 39t-41 34.5t-47.5 49.5z" />
<glyph unicode="&#x22;" horiz-adv-x="744" d="M-119 1192q22 56 59.5 104t77.5 74q66 -118 94 -237.5t28 -273.5q0 -90 -7 -181q-16 -23 -54 -23q-7 0 -23 2q-19 145 -71.5 299.5t-103.5 235.5zM253 1192q22 56 59.5 104t77.5 74q66 -118 94 -237.5t28 -273.5q0 -90 -7 -181q-16 -23 -53 -23q-7 0 -23 2 q-19 144 -71.5 299t-104.5 236z" />
<glyph unicode="#" horiz-adv-x="1080" d="M26 335q2 86 29 143h169q15 146 24 283h-195q2 87 29 144h174q11 213 17 354q41 11 87 11q47 0 97 -11q-31 -177 -54 -354h234q11 213 17 354q41 11 88 11q46 0 96 -11q-31 -177 -54 -354h169q-2 -83 -30 -144h-156q-16 -148 -24 -283h182q-2 -84 -29 -143h-161 q-19 -359 -20 -378q-52 -10 -92 -10q-44 0 -91 10q36 211 57 378h-235q-19 -359 -20 -378q-52 -10 -92 -10q-44 0 -91 10q36 211 57 378h-182zM363 478h242q15 146 24 283h-242q-16 -148 -24 -283z" />
<glyph unicode="$" horiz-adv-x="1111" d="M60 957q0 25 4 38q11 43 35.5 77t62 58t71.5 39.5t82 31.5l21 6l-16 76q30 61 80 97l33 -155q33 4 78 4q129 0 239 -46q1 -10 1 -29q0 -79 -29 -134q-39 20 -103.5 32.5t-117.5 12.5h-34l61 -288q210 -61 292 -120q121 -88 121 -245q0 -52 -16 -106q-26 -87 -89.5 -154 t-152.5 -104l19 -90q-25 -57 -81 -89l-31 147q-168 -50 -374 -58q10 50 14.5 71t18 56t32.5 56q100 1 233 28l41 9l-92 431q-189 59 -278 124q-66 49 -95.5 109.5t-29.5 114.5zM166 973q0 -47 101 -105q51 -29 154 -60l-55 257q-101 -8 -174 -53q-26 -16 -26 -39zM571 577 l79 -372q165 58 196 141q5 15 5 27q0 39 -32 79.5t-75 62.5q-49 25 -173 62z" />
<glyph unicode="%" horiz-adv-x="1365" d="M45 1001v13q2 43 16.5 89t42 82t60.5 38h4q37 0 112.5 -32t126.5 -73q43 -35 81 -103.5t52 -145.5q5 -26 5 -61q0 -91 -40 -168q-37 -72 -98 -120.5t-119 -52.5h-6q-20 0 -37 11t-26.5 23t-25.5 36q-36 56 -75 154q-73 178 -73 310zM154 1015q0 -75 63 -215 q63 -139 109 -148q2 -1 7 -1q24 0 64 38q43 41 44 78v2q0 22 -15 67t-34 76q-8 14 -47 57q-53 58 -152 78q-28 5 -30 3q-9 -10 -9 -35zM270 0q159 306 269.5 563t260.5 648q20 4 49 4q66 0 127 -21q-41 -79 -75.5 -147t-70 -144t-57 -120t-57.5 -129t-49 -113.5t-54 -130.5 t-49.5 -123.5t-59 -148.5t-60.5 -153q-38 -4 -57 -4q-60 0 -117 19zM746 504v13q2 43 16.5 89t42 81.5t60.5 37.5h4q38 0 113 -31.5t126 -72.5q43 -35 81 -103.5t52 -146.5q5 -26 5 -61q0 -91 -40 -168q-37 -71 -98 -119.5t-119 -52.5h-6q-20 0 -37 11t-26.5 23t-25.5 36 q-36 56 -75 154q-73 178 -73 310zM856 517q0 -78 62 -214q64 -140 109 -148q3 -1 8 -1q24 0 63 37q42 41 44 81q0 22 -15 67t-34 76q-9 14 -46 56q-54 59 -153 79q-27 5 -29 3q-9 -9 -9 -36z" />
<glyph unicode="&#x26;" horiz-adv-x="1201" d="M90 316q0 203 226 305q-71 70 -105.5 132t-34.5 129q0 119 88.5 201.5t221.5 82.5t213.5 -73.5t80.5 -182.5q0 -101 -59 -170.5t-190 -130.5l293 -317q79 114 96 201l-31 33l-94 13v69h347v-69l-123 -17q-48 -164 -142 -290l133 -153l156 -9v-70h-301v41l-77 85 q-170 -146 -334 -146q-158 0 -261 96.5t-103 239.5zM247 352q0 -117 70.5 -193.5t180.5 -76.5q132 0 238 102l-355 388q-69 -46 -101.5 -99t-32.5 -121zM312 920q0 -64 38.5 -122.5t120.5 -131.5q86 40 126.5 96t40.5 139q0 85 -45.5 135.5t-121.5 50.5q-68 0 -113.5 -47.5 t-45.5 -119.5z" />
<glyph unicode="'" horiz-adv-x="372" d="M-119 1193q22 56 59.5 104t77.5 74q66 -118 94 -237.5t28 -273.5q0 -90 -7 -181q-15 -23 -56 -23q-14 0 -21 1q-19 145 -71.5 300t-103.5 236z" />
<glyph unicode="(" horiz-adv-x="657" d="M111 621q0 180 50 333.5t153 305.5h15q72 0 137 -27q-9 -14 -47.5 -72t-54.5 -84.5t-46.5 -84t-45 -99t-26.5 -100t-12 -115.5v-24q4 -109 34.5 -210t84 -190.5t111 -161t134.5 -150.5q-25 -56 -46.5 -87t-62.5 -63q-167 156 -260 323t-112 380q-6 66 -6 126z" />
<glyph unicode=")" horiz-adv-x="655" d="M-97 1102q45 112 115 170q189 -171 289.5 -328.5t130.5 -362.5q13 -85 13 -171q0 -313 -189 -611h-16q-73 0 -137 26q8 14 43 71t51 85t44.5 86t42.5 100.5t26 100.5t12 112v50q-8 86 -44.5 176.5t-81.5 160t-107 141t-104 112.5t-88 82z" />
<glyph unicode="*" horiz-adv-x="931" d="M31 711q0 73 41 120l298 -148l-122 309q50 29 104 29q52 0 112 -29l-13 -307l245 146q94 -77 103 -204l-312 -26l272 -215q-44 -92 -152 -128l-172 275l-73 -277q-125 43 -197 130l198 215l-321 26q-11 43 -11 84z" />
<glyph unicode="+" horiz-adv-x="1249" d="M128 510q2 87 29 144h331l-59 344q31 10 75 10q32 0 61 -6l60 -348h386q-2 -83 -30 -144h-331l63 -344q-33 -11 -73 -11q-34 0 -63 7l-63 348h-386z" />
<glyph unicode="," horiz-adv-x="457" d="M128 110q29 45 61 76.5t49.5 43t47.5 27.5q53 -155 53 -305q0 -145 -52 -364q-34 -27 -78 -36v52q0 139 -24 283t-57 223z" />
<glyph unicode="-" d="M85 461q16 94 85 177q33 3 75 3q105 0 222 -17t203 -49q-10 -54 -21 -87.5t-33 -64.5q-122 21 -166.5 28.5t-102.5 14t-104 6.5q-71 0 -158 -11z" />
<glyph unicode="." horiz-adv-x="484" d="M119 81q35 85 108 170q88 -51 156 -129q-37 -95 -102 -160q-99 52 -162 119z" />
<glyph unicode="/" horiz-adv-x="721" d="M34 -57q118 369 190 663.5t150 699.5q47 10 99 10q43 0 79 -7q-117 -391 -184 -665t-154 -703q-44 -9 -83 -9q-44 0 -97 11z" />
<glyph unicode="0" horiz-adv-x="988" d="M62 841v42q4 71 29 148t70 135.5t96 61.5h5q58 0 175 -55t191 -126q157 -147 200 -414q7 -43 7 -92q0 -152 -70 -288q-59 -117 -156.5 -197.5t-188.5 -85.5h-7q-45 0 -74 29t-64 90q-55 94 -111 256q-102 290 -102 496zM203 939q0 -171 81 -438q21 -67 36.5 -111.5 t39 -98t49.5 -84.5t54 -38q10 -2 15 -2q49 0 128 79q92 90 99 170v23q0 74 -26.5 178t-72.5 180q-50 84 -132.5 150.5t-189.5 97.5q-49 15 -55 8q-26 -29 -26 -114z" />
<glyph unicode="1" horiz-adv-x="768" d="M-34 874q0 122 65 210q25 21 46 38t44.5 33t37 25t44 28.5t44.5 28.5q21 13 43 13q43 0 58 -35q126 -281 191 -594q56 -268 60 -501q-12 -51 -41.5 -88t-78.5 -74q-31 406 -80 617q-37 162 -93 295t-94 139h-4q-18 0 -58.5 -24t-95 -59.5t-88.5 -51.5z" />
<glyph unicode="2" horiz-adv-x="872" d="M-51 1097q56 104 170 156q337 -28 432 -208q33 -63 33 -132q0 -94 -65 -212q0 -1 -41.5 -71.5t-61.5 -112.5q-53 -112 -57 -200q0 -5 -0.5 -15t-0.5 -15q0 -52 13 -91q29 11 57 23t61.5 31t52 29t59 37t50.5 33t58 39.5t52 35.5q6 -33 6 -63q0 -73 -34 -155 q-89 -61 -236 -133.5t-265 -114.5q-43 102 -43 210q0 62 14 143q12 71 83 212t92 201q22 64 22 116q0 100 -74 165q-36 32 -102.5 51.5t-109 25t-146.5 13.5q-13 1 -19 2z" />
<glyph unicode="3" horiz-adv-x="858" d="M-46 1082q40 103 112 162q251 -4 346 -62q74 -45 83 -138q1 -7 1 -21q0 -38 -15 -85t-28.5 -76.5t-41.5 -82.5q97 -24 159 -55t101 -82q62 -80 62 -179q0 -67 -32 -134q-35 -71 -84.5 -127t-118 -100t-134.5 -75t-164 -69q6 103 68 204q5 2 38.5 17.5t44 20.5t41 20 t44.5 23t38.5 22.5t38 25t29 23.5t25.5 26q25 31 25 72q0 35 -19 69t-50 58q-46 35 -143.5 65t-189.5 47q38 51 58.5 79.5t48 77.5t32.5 80v26q0 54 -37 94.5t-103 53.5q-81 16 -235 20z" />
<glyph unicode="4" horiz-adv-x="962" d="M97 585q0 158 62 328q21 58 59.5 120t110 131t156.5 107q82 -164 190 -659q27 10 57.5 21.5t63.5 24.5t48 19q1 -8 1 -25q0 -93 -42 -159q-23 -13 -54.5 -27.5t-44.5 -20.5q22 -121 48 -305q-22 -92 -117 -182q-9 51 -35.5 218.5t-37.5 221.5q-206 -58 -284 -64h-18 q-60 0 -101 29.5t-51 88.5q-11 63 -11 133zM214 641q0 -61 25.5 -91t80.5 -30q7 0 27 2q93 10 181 42q-73 315 -139 468q-53 -41 -107 -148t-65 -195q-3 -25 -3 -48z" />
<glyph unicode="5" horiz-adv-x="807" d="M14 1129q0 80 17 140q212 -67 534 -128q-24 -93 -93 -168q-117 9 -327 67q24 -136 63 -219q152 -20 290 -55q75 -19 130 -94t55 -170q0 -10 -2 -32q-2 -19 -38 -122t-45 -116q-35 -48 -67.5 -79.5t-114.5 -83t-212 -111.5q-4 20 -4 47q0 79 37 161q16 9 83.5 45t95.5 53 t73.5 50.5t75.5 66.5q-8 197 -195 245q-92 23 -192 31q-62 5 -82 50q-45 103 -76 327q-6 44 -6 95z" />
<glyph unicode="6" horiz-adv-x="904" d="M77 729q0 82 35 196q17 56 40.5 105.5t56.5 96.5t78.5 79t97.5 42q3 -24 3 -49q0 -76 -29 -135q-32 -25 -56 -34.5t-36 -13.5t-23 -19q-30 -39 -30 -135q0 -42 6 -83q24 -157 70.5 -319t110.5 -258q20 -30 57 -30q31 0 59 19q123 82 175 215q-19 62 -61.5 107.5 t-95.5 68.5t-95.5 33.5t-83.5 13.5q21 97 100 157q22 2 33 2q79 0 152.5 -43.5t119.5 -115.5q44 -69 44 -156q0 -60 -21 -127q-64 -202 -282 -346q-56 -38 -105 -38q-67 0 -115 81q-81 140 -121 265.5t-72 300.5q-12 67 -12 120z" />
<glyph unicode="7" horiz-adv-x="916" d="M-43 1093q27 52 59.5 90.5t81.5 72.5q275 -62 558 -187q61 -27 61 -87q0 -21 -8 -45q-14 -41 -49 -100t-92 -144t-83 -128q-70 -114 -70 -236q0 -74 25 -157q-30 -128 -105 -214q-34 42 -54 108t-20 141v29q5 92 29.5 172t51.5 127t63.5 108t53.5 100q39 90 39 143 q0 57 -47 77q-27 12 -57 23t-62.5 21t-60.5 18t-63 16.5t-58 14t-58 12t-50 9.5t-47.5 9t-37.5 7z" />
<glyph unicode="8" horiz-adv-x="962" d="M27 948q0 89 35.5 171.5t92.5 141.5q80 0 159.5 -18t150 -52.5t114.5 -94t44 -134.5q0 -53 -23.5 -114.5t-72.5 -98.5q100 -25 176 -64q61 -30 97.5 -93t36.5 -140q0 -87 -44.5 -178.5t-107.5 -157.5t-132 -108t-118 -42q-79 0 -149 103q-128 188 -128 348q0 75 23.5 144 t64.5 112q-21 5 -39.5 11t-54.5 27t-61 48t-44.5 77t-19.5 112zM147 1003q0 -26 3.5 -44.5t17.5 -42.5t39.5 -43t72.5 -40.5t114 -39.5q84 52 84 119q0 68 -92.5 122.5t-189.5 54.5h-22q-27 -31 -27 -86zM301 466q0 -115 86 -242q23 -34 43 -51.5t48 -17.5q31 0 86 32 t102 88.5t47 110.5q0 46 -24 87.5t-59 60.5q-104 58 -266 100q-63 -70 -63 -168z" />
<glyph unicode="9" horiz-adv-x="981" d="M36 906q0 96 34.5 176t97.5 129q37 30 111 30q104 0 225.5 -56.5t184.5 -140.5q60 -80 89 -190t29 -224q0 -72 -10 -128q-34 -201 -161 -323t-378 -221v5q0 98 60 195q73 29 140.5 70t129 103.5t88.5 130.5v24v45q0 178 -89 340q-29 52 -82.5 94.5t-109.5 65t-102.5 34 t-74.5 11.5h-16q-30 -22 -30 -78q0 -21 5 -48q48 -231 132 -275q19 -10 39 -10q34 0 89 29.5t64 31.5v-15q0 -87 -41 -162q-88 -57 -154 -57q-25 0 -59 8q-71 17 -128 109.5t-76 206.5q-7 43 -7 90z" />
<glyph unicode=":" horiz-adv-x="508" d="M34 706q35 85 107 170q88 -50 156 -128q-39 -97 -102 -160q-100 54 -161 118zM128 81q36 85 106 169q91 -53 157 -127q-39 -97 -102 -160q-100 54 -161 118z" />
<glyph unicode=";" horiz-adv-x="465" d="M9 706q36 87 106 170q88 -50 156 -128q-39 -97 -102 -160q-98 52 -160 118zM137 110q29 45 60.5 76.5t49 43t47.5 27.5q53 -152 53 -307q0 -149 -51 -362q-34 -27 -78 -36v52q0 139 -24 283t-57 223z" />
<glyph unicode="&#x3c;" horiz-adv-x="884" d="M34 466q7 96 41 173l605 447q-1 -98 -40 -190l-446 -323l657 -336q-21 -87 -81 -160z" />
<glyph unicode="=" horiz-adv-x="1331" d="M137 669q17 87 54 143h853q-17 -85 -54 -143h-853zM193 352q17 87 54 143h854q-17 -83 -55 -143h-853z" />
<glyph unicode="&#x3e;" horiz-adv-x="884" d="M-43 874q20 85 82 160l738 -384q-7 -96 -41 -173l-609 -453q1 97 40 189l450 330z" />
<glyph unicode="?" horiz-adv-x="718" d="M-94 992q40 105 89 160q47 0 80.5 -1t83 -5.5t85 -12.5t77 -23.5t70 -37.5t52.5 -55t36 -75q6 -21 6 -43q0 -95 -100 -216q-44 -53 -44 -102q0 -55 51 -104q-62 -71 -146 -111q-36 30 -53.5 68t-17.5 96q0 35 22.5 75t50 70.5t50 71t22.5 77.5q0 21 -5 36 q-7 25 -26.5 44.5t-41 32.5t-59 23t-64.5 15t-74.5 9t-71.5 5zM240 81q35 77 108 148q52 -38 79 -63.5t61 -67.5q-38 -86 -103 -140q-40 27 -56.5 39t-41 34.5t-47.5 49.5z" />
<glyph unicode="@" horiz-adv-x="1607" d="M130 420q0 340 247 566q101 92 239 143.5t285 51.5q270 0 428 -149t158 -395q0 -189 -96 -337q-62 -96 -151 -151t-173 -55q-127 0 -127 131v16q-138 -144 -251 -144q-92 0 -151.5 75t-59.5 198q0 161 95 292q62 84 150 131t180 47q81 0 167 -46l31 39h92 q-15 -37 -46 -183l-67 -293q-13 -57 -13 -94q0 -33 19.5 -53.5t51.5 -20.5q35 0 75.5 23t75.5 66q56 67 87.5 162.5t31.5 202.5q0 202 -134.5 333.5t-348.5 131.5q-279 0 -462 -171q-212 -196 -212 -497q0 -280 167.5 -448.5t441.5 -168.5q238 0 449 124l24 -58 q-269 -150 -519 -150q-292 0 -493 193q-191 183 -191 488zM623 391q0 -93 37 -141.5t105 -48.5q89 0 179 113l70 358l-70 96q-18 3 -38 3q-119 0 -201 -107.5t-82 -272.5z" />
<glyph unicode="A" horiz-adv-x="1090" d="M-26 70l95 20l211 1069h113l598 -1069l106 -20l12 -70h-387l-12 70l104 9l8 23l-181 326h-403l-63 -326l21 -23l113 -9l12 -70h-335zM254 507h344l-259 473z" />
<glyph unicode="B" horiz-adv-x="1030" d="M-146 1145h436q391 0 439 -276q4 -21 4 -48q0 -156 -205 -213q151 -1 247 -74t118 -199q6 -36 6 -68q0 -130 -100 -198.5t-292 -68.5h-451l-12 70l96 9l25 23l-165 941l-34 24l-100 10zM148 1065l78 -439q11 -1 33 -1h32q141 0 208 43t67 136q0 32 -5 58 q-36 208 -316 208q-10 0 -24 -1t-35.5 -2t-37.5 -2zM241 541l80 -456q70 -5 115 -5q152 0 224.5 44t72.5 141q0 32 -5 58q-40 228 -322 228q-72 0 -165 -10z" />
<glyph unicode="C" horiz-adv-x="1078" d="M-40 700q0 214 134 340t366 126q152 0 348 -58l45 -263h-94l-53 155l-28 31q-103 44 -199 44q-162 0 -253.5 -95.5t-91.5 -266.5q0 -61 12 -128q43 -242 185.5 -378.5t350.5 -136.5q75 0 145 22l22 27l4 190h96l48 -270q-160 -59 -335 -59q-169 0 -302 68 q-151 78 -255 218t-133 307q-12 66 -12 127z" />
<glyph unicode="D" horiz-adv-x="1182" d="M-146 1145h422q301 0 492 -151t239 -421q12 -67 12 -128q0 -213 -143 -339q-71 -61 -164.5 -83.5t-233.5 -22.5h-422l-12 70l96 9l25 23l-165 941l-34 24l-100 10zM148 1067l174 -988h135q391 0 391 348q0 64 -14 146q-44 250 -180.5 372t-370.5 122h-135z" />
<glyph unicode="E" horiz-adv-x="983" d="M-146 1145h818l44 -249h-96l-49 145l-29 26h-394l76 -432h280l20 24l-5 124h80l66 -375h-80l-39 123l-27 25h-281l84 -477h458l17 27v172h89l49 -278h-879l-12 70l96 9l25 23l-165 941l-34 24l-100 10z" />
<glyph unicode="F" horiz-adv-x="916" d="M-159 1145h819l47 -266h-94l-54 162l-27 26h-384l79 -449h280l20 24l-5 124h80l67 -377h-81l-39 125l-27 25h-281l77 -437l33 -23l123 -9l12 -70h-430l-12 70l96 9l25 23l-165 941l-34 24l-113 10z" />
<glyph unicode="G" horiz-adv-x="1184" d="M-40 701q0 216 137.5 340.5t383.5 124.5q152 0 336 -50l48 -271h-96l-53 155l-29 31q-103 44 -202 44q-167 0 -259 -95t-92 -267q0 -59 12 -128q42 -241 184.5 -378t344.5 -137q77 0 171 22l-63 355l-33 24l-123 9l-12 70h426l13 -70l-93 -9l-24 -24l72 -408 q-194 -59 -343 -59q-173 0 -306 68q-152 78 -255.5 217.5t-132.5 307.5q-12 67 -12 128z" />
<glyph unicode="H" horiz-adv-x="1259" d="M-146 1145h415l12 -68l-104 -10l-25 -24l71 -403h587l-71 403l-33 24l-107 10l-12 68h414l12 -68l-95 -10l-25 -24l166 -941l33 -23l99 -9l12 -70h-415l-12 70l104 9l25 23l-81 459h-587l81 -459l33 -23l108 -9l12 -70h-415l-12 70l96 9l25 23l-165 941l-34 24l-100 10z " />
<glyph unicode="I" horiz-adv-x="552" d="M-142 1145h432l12 -68l-108 -10l-25 -24l166 -941l33 -23l111 -9l13 -70h-432l-13 70l108 9l25 23l-166 941l-33 24l-111 10z" />
<glyph unicode="J" horiz-adv-x="757" d="M-33 305h95l79 -215l28 -22q32 -7 61 -7q90 0 132 51t42 156q0 66 -17 162l-108 613l-34 24l-116 10l-12 68h432l12 -68l-104 -10l-25 -24l107 -606q16 -94 16 -159q0 -151 -74.5 -224.5t-232.5 -73.5q-108 0 -231 40z" />
<glyph unicode="K" horiz-adv-x="1042" d="M-146 1145h415l12 -68l-104 -10l-25 -24l82 -463h65l297 463l-14 24l-98 10l-12 68h355l12 -68l-110 -15l-283 -427l486 -556l126 -9l12 -70h-282l-9 51l-406 459h-127l72 -408l33 -23l108 -9l12 -70h-415l-12 70l96 9l25 23l-165 941l-34 24l-100 10z" />
<glyph unicode="L" horiz-adv-x="887" d="M-156 1145h417l12 -68l-96 -10l-25 -24l170 -964h386l19 27l-7 205h89l55 -311h-818l-12 70l106 9l25 23l-165 941l-34 24l-110 10z" />
<glyph unicode="M" horiz-adv-x="1477" d="M-151 1145h362l8 -46l472 -857l175 850l-10 53h365l12 -68l-105 -10l-17 -24l166 -941l25 -23l109 -9l12 -70h-408l-12 70l111 9l13 23l-170 963l-216 -1065h-74l-574 1048l165 -932l36 -32l107 -14l12 -70h-360l-12 70l100 14l25 32l-166 927l-24 24l-115 10z" />
<glyph unicode="N" horiz-adv-x="1216" d="M-158 1145h321l8 -42l736 -874l-142 802l-36 31l-105 15l-12 68h359l12 -68l-100 -15l-25 -31l181 -1031h-112l-821 969l150 -853l36 -32l105 -14l13 -70h-361l-12 70l102 14l25 32l-164 927l-34 24l-112 10z" />
<glyph unicode="O" horiz-adv-x="1247" d="M-40 707q0 192 107 317q129 150 351 150q220 0 402 -150q205 -170 255 -451q12 -66 12 -128q0 -114 -40 -209q-51 -124 -160.5 -193.5t-257.5 -69.5q-225 0 -401 146q-206 171 -256 454q-12 71 -12 134zM136 723q0 -74 14 -150q42 -235 169 -372.5t295 -137.5 q138 0 217 96t79 266q0 66 -14 148q-41 235 -168 372t-294 137q-140 0 -219 -94t-79 -265z" />
<glyph unicode="P" horiz-adv-x="952" d="M-159 1145h389q251 0 376.5 -78.5t159.5 -269.5q6 -36 6 -69q0 -137 -101.5 -217.5t-282.5 -80.5q-32 0 -129 9l59 -337l33 -23l123 -9l12 -70h-430l-12 70l96 9l25 23l-165 941l-34 24l-113 10zM149 1063l95 -542q90 -9 115 -9q126 0 190 54.5t64 159.5q0 38 -7 74 q-24 137 -114.5 202t-254.5 65q-48 0 -88 -4z" />
<glyph unicode="Q" horiz-adv-x="1247" d="M-47 706q0 194 112 321q131 149 352 149q223 0 407 -149q207 -169 257 -452q12 -69 12 -132q0 -188 -100.5 -309.5t-282.5 -152.5q44 -203 278 -203q77 0 157 19l12 -70q-124 -27 -235 -27q-163 0 -256 69t-118 212q-226 33 -383 193t-200 401q-12 69 -12 131zM132 724 q0 -75 14 -149q42 -234 169.5 -371t297.5 -137q141 0 221 95t80 266q0 65 -14 147q-42 236 -169 372.5t-297 136.5q-142 0 -222 -94.5t-80 -265.5z" />
<glyph unicode="R" horiz-adv-x="1102" d="M-146 1145h436q208 0 322.5 -75t142.5 -232q5 -32 5 -54q0 -175 -231 -229q130 -33 195 -115q36 -45 73.5 -136t51.5 -116q40 -73 91 -97t152 -24h16l11 -67q-69 -14 -130 -14q-115 0 -181 50q-33 25 -60.5 62.5t-42 68t-37 82t-36.5 79.5q-53 104 -118.5 144t-182.5 40 q-39 0 -84 -3l71 -407l33 -23l99 -9l13 -70h-407l-12 70l96 9l25 23l-165 941l-34 24l-100 10zM148 1067l84 -476q53 -2 94 -2q137 0 202 41.5t65 133.5q0 27 -6 60q-23 130 -109 186.5t-248 56.5h-82z" />
<glyph unicode="S" horiz-adv-x="948" d="M-32 897q0 122 91 195.5t251 73.5q139 0 298 -48l47 -265h-89l-54 162l-31 29q-70 36 -159 36q-95 0 -147.5 -44t-52.5 -120q0 -22 4 -42q7 -42 26.5 -73t58.5 -57.5t79.5 -45.5t113.5 -48q15 -6 54.5 -20.5t60.5 -23t53.5 -23.5t60.5 -33t54 -40q89 -75 108 -187 q5 -25 5 -59q0 -129 -103 -206.5t-284 -77.5q-182 0 -317 54l-53 301h101l55 -197l27 -29q81 -39 199 -39q108 0 166 45.5t58 121.5q0 19 -3 38q-7 39 -24.5 69t-34.5 49.5t-60.5 42.5t-69.5 34.5t-95 38.5q-29 12 -45 18q-170 68 -247 131.5t-97 179.5q-5 25 -5 59z" />
<glyph unicode="T" horiz-adv-x="1018" d="M-175 1145h965l46 -263h-94l-52 159l-28 26h-263l170 -965l35 -23l116 -9l12 -70h-445l-13 70l113 9l27 23l-170 965h-263l-20 -26l5 -159h-94z" />
<glyph unicode="U" horiz-adv-x="1184" d="M-159 1145h418l12 -68l-104 -10l-27 -24l109 -618q31 -176 117.5 -258t248.5 -82q131 0 193 55.5t62 171.5q0 47 -11 113l-107 606l-38 31l-105 15l-12 68h360l12 -68l-99 -15l-26 -31l109 -621q17 -95 17 -153q0 -89 -39 -148q-39 -60 -124.5 -94.5t-205.5 -34.5 t-218 34.5t-158 94.5q-56 55 -82.5 124t-45.5 177l-112 633l-33 24l-99 10z" />
<glyph unicode="V" horiz-adv-x="1054" d="M-241 1145h397l13 -68l-98 -10l-14 -24l472 -860l158 860l-22 24l-107 10l-12 68h339l12 -68l-102 -21l-205 -1065h-117l-589 1065l-113 21z" />
<glyph unicode="W" horiz-adv-x="1583" d="M-202 1145h382l12 -68l-105 -14l-9 -24l359 -788l117 894h120l440 -913l66 801l-23 23l-118 21l-12 68h353l12 -68l-110 -24l-86 -1053h-116l-453 934l-118 -934h-115l-472 1053l-112 24z" />
<glyph unicode="X" horiz-adv-x="1024" d="M-183 1145h411l12 -68l-100 -10l-10 -21l285 -351l182 344l-20 23l-101 15l-12 68h348l12 -68l-106 -17l-234 -446l423 -524l120 -20l12 -70h-431l-13 70l112 12l8 24l-309 387l-202 -382l16 -31l116 -10l12 -70h-363l-13 70l109 22l259 480l-395 483l-116 22z" />
<glyph unicode="Y" horiz-adv-x="1000" d="M-224 1145h396l12 -68l-96 -10l-13 -19l344 -469l206 455l-20 24l-107 19l-12 68h348l12 -68l-100 -22l-255 -569l68 -384l31 -23l118 -9l12 -70h-442l-12 70l114 9l23 23l-63 362l-445 596l-107 17z" />
<glyph unicode="Z" horiz-adv-x="1000" d="M-88 1145h797l13 -72l-474 -989h515l15 22l-5 203h92l55 -309h-843l-13 70l472 993h-456l-28 -22l1 -160h-94z" />
<glyph unicode="[" horiz-adv-x="795" d="M51 1116q18 100 67 181h393q-3 -40 -21.5 -87t-42.5 -82h-266l209 -1188h334q-4 -77 -60 -169h-376z" />
<glyph unicode="\" horiz-adv-x="827" d="M-154 1241q57 15 109 15t110 -15q232 -414 400.5 -687.5t406.5 -607.5q-57 -15 -116 -15q-43 0 -89 8q-417 752 -821 1302z" />
<glyph unicode="]" horiz-adv-x="795" d="M-85 1128q4 77 60 169h376l237 -1345q-18 -100 -67 -181h-393q3 40 21.5 87t42.5 82h267l-210 1188h-334z" />
<glyph unicode="^" horiz-adv-x="1706" d="M343 748l435 471h149l433 -471h-77l-431 363l-434 -363h-75z" />
<glyph unicode="_" horiz-adv-x="853" d="M0 -304h853v-99h-853v99z" />
<glyph unicode="`" horiz-adv-x="853" d="M177 1256h169l166 -324h-85z" />
<glyph unicode="a" horiz-adv-x="865" d="M0 645v21q0 74 82.5 123t227.5 49q134 0 204 -58.5t93 -187.5l88 -495l35 -27l92 -9l11 -61h-241l-39 99q-144 -111 -261 -111q-100 0 -169.5 61t-87.5 158q-4 20 -4 43q0 35 11.5 63.5t39 52.5t60 42.5t89 38t110.5 34.5t138 36l-10 55q-19 104 -60 147.5t-131 43.5 q-63 0 -124 -27l25 -144h-118q-29 0 -42.5 11t-18.5 42zM180 252q0 -16 3 -32q11 -64 54.5 -102t106.5 -38q77 0 198 77l-53 300q-171 -50 -240 -92t-69 -113z" />
<glyph unicode="b" horiz-adv-x="919" d="M-197 1195l197 61h67l84 -478q115 60 223 60q151 0 263.5 -107.5t143.5 -281.5q10 -57 10 -111q0 -167 -107.5 -252.5t-318.5 -85.5h-218l-202 1142h-133zM161 720l114 -641q53 -2 94 -2q140 0 207 56.5t67 176.5q0 50 -10 106q-28 160 -113 246t-213 86q-59 0 -146 -28z " />
<glyph unicode="c" horiz-adv-x="761" d="M-18 505q0 152 91.5 242.5t246.5 90.5q121 0 196.5 -45.5t88.5 -121.5q2 -14 2 -20q0 -33 -21.5 -52t-59.5 -19t-82 26l-24 140q-45 24 -86 24q-93 0 -146 -65.5t-53 -181.5q0 -46 9 -100q28 -156 121.5 -245t227.5 -89q111 0 204 71l16 -88q-128 -84 -264 -84 q-173 0 -298.5 116.5t-159.5 306.5q-9 49 -9 94z" />
<glyph unicode="d" horiz-adv-x="964" d="M-15 482q0 164 99.5 261t269.5 97q68 0 155 -19l-57 321h-131l-9 53l197 61h65l204 -1159l34 -27l83 -9l11 -61h-252l-16 89q-111 -104 -244 -104q-142 0 -255.5 111t-144.5 288q-9 51 -9 98zM131 502q0 -48 8 -89q26 -149 111 -235t201 -86q90 0 176 60l-103 585 q-100 28 -155 28q-110 0 -174 -70.5t-64 -192.5z" />
<glyph unicode="e" horiz-adv-x="837" d="M-17 500q0 154 89 246t238 92q141 0 239.5 -90t126.5 -246q6 -34 8 -53h-553q2 -14 3 -19q29 -162 123.5 -255t224.5 -93q120 0 251 99l16 -94q-135 -102 -303 -102q-169 0 -295 115.5t-159 303.5q-9 49 -9 96zM125 555q0 -10 2 -34h394q-1 4 -2.5 13t-2.5 14 q-18 103 -73.5 158t-141.5 55q-76 0 -126 -56.5t-50 -149.5z" />
<glyph unicode="f" horiz-adv-x="547" d="M-75 773l105 26q-2 11 -3 18q-12 67 -12 125q0 154 75 241t203 87q59 0 101 -28t50 -70q1 -5 1 -16q0 -53 -56 -69l-174 103q-74 -38 -74 -164q0 -49 10 -103l22 -124h237l15 -80h-239l109 -622l34 -27l107 -9l11 -61h-398l-10 61l89 9l26 27l-110 622h-109z" />
<glyph unicode="g" horiz-adv-x="892" d="M3 607q0 105 76.5 168t209.5 63q95 0 201 -48h244l15 -80h-188q60 -72 76 -159q4 -20 4 -45q0 -99 -76 -160t-207 -61h-29q-8 -26 -8 -50q0 -18 2 -27q1 -5 5 -19t6 -22l168 -25q160 -24 236 -71t92 -139q3 -15 3 -31q0 -91 -72 -160q-121 -113 -318 -113 q-146 0 -238 58.5t-110 161.5q-4 19 -4 42q0 67 39.5 112t111.5 58q-27 47 -33 77q-1 0 -1 10l1 10q0 59 56 142q-102 22 -171 91t-86 166q-5 30 -5 51zM149 618q0 -32 5 -57q17 -95 73 -152t131 -57q63 0 99 41t36 112q0 31 -5 56q-17 97 -73 153.5t-131 56.5 q-63 0 -99 -40.5t-36 -112.5zM223 -90q0 -17 2 -26q13 -76 87 -127t177 -51q101 0 162.5 45t61.5 112v24q-11 64 -54 89.5t-145 43.5l-171 31q-58 -19 -89 -56t-31 -85z" />
<glyph unicode="h" horiz-adv-x="962" d="M-178 1195l197 61h65l92 -520q167 102 258 102q112 0 182.5 -65.5t92.5 -193.5l85 -482l35 -27l92 -9l11 -61h-372l-11 61l79 9l24 27l-80 453q-17 94 -63 134.5t-140 40.5q-82 0 -181 -56l100 -572l36 -27l82 -9l10 -61h-373l-11 61l90 9l25 27l-184 1045h-132z" />
<glyph unicode="i" horiz-adv-x="477" d="M-76 768l186 61h65l129 -732l35 -27l94 -9l11 -61h-384l-11 61l89 9l24 27l-109 618h-119zM-34 1109v18q0 35 23.5 58t60.5 23q41 0 74.5 -29t41.5 -70q2 -12 2 -18q0 -35 -23.5 -57t-60.5 -22q-42 0 -76.5 28t-41.5 69z" />
<glyph unicode="j" horiz-adv-x="453" d="M-86 -263q0 48 50 72l183 -101q58 19 58 129q0 54 -14 136l-131 742h-121l-10 53l188 61h64l121 -686q27 -153 27 -223q0 -109 -53 -181q-83 -111 -226 -111q-55 0 -90.5 25t-43.5 67q-2 12 -2 17zM-47 1109v18q0 35 23 58t60 23q41 0 75.5 -29t41.5 -70q2 -12 2 -18 q0 -35 -23.5 -57t-60.5 -22q-42 0 -76.5 28t-41.5 69z" />
<glyph unicode="k" horiz-adv-x="882" d="M-178 1195l197 61h65l145 -821h32l210 292l-16 24l-78 7l-11 63h324l11 -63l-107 -14l-190 -247l375 -424l111 -8l11 -65h-266l-10 56l-289 331h-99l51 -290l36 -27l82 -9l10 -61h-373l-11 61l90 9l25 27l-184 1045h-132z" />
<glyph unicode="l" horiz-adv-x="481" d="M-165 1195l198 61h65l204 -1159l36 -27l98 -9l11 -61h-399l-11 61l99 9l24 27l-184 1045h-131z" />
<glyph unicode="m" horiz-adv-x="1438" d="M-84 768l187 61h65l16 -93q154 102 255 102q130 0 208 -113q173 113 274 113q103 0 173.5 -67t92.5 -192l84 -482l34 -27l92 -9l11 -61h-372l-11 61l79 9l26 27l-80 453q-16 90 -61 132.5t-124 42.5t-183 -56l101 -572l36 -27l82 -9l10 -61h-363l-11 61l80 9l25 27 l-80 453q-16 89 -60 132t-121 43q-85 0 -185 -56l101 -572l34 -27l83 -9l11 -61h-374l-11 61l91 9l24 27l-109 618h-121z" />
<glyph unicode="n" horiz-adv-x="969" d="M-84 768l187 61h65l16 -93q167 102 257 102q112 0 183 -66t93 -193l85 -482l34 -27l94 -9l10 -61h-373l-11 61l80 9l24 27l-79 453q-17 94 -63.5 134.5t-140.5 40.5q-82 0 -181 -56l101 -572l34 -27l83 -9l11 -61h-374l-11 61l91 9l24 27l-109 618h-121z" />
<glyph unicode="o" horiz-adv-x="919" d="M-18 505q0 152 89.5 242.5t239.5 90.5q173 0 306 -119t167 -308q8 -43 8 -92q0 -152 -90 -243t-240 -91q-173 0 -305 118.5t-166 307.5q-9 49 -9 94zM141 522q0 -54 10 -111q29 -162 111 -257.5t187 -95.5q86 0 135.5 64.5t49.5 179.5q0 53 -10 109q-29 163 -112 258.5 t-188 95.5q-85 0 -134 -64t-49 -179z" />
<glyph unicode="p" horiz-adv-x="940" d="M-96 768l187 61h65l16 -93q117 102 233 102q142 0 254.5 -111t143.5 -288q10 -60 10 -103q0 -158 -93.5 -249.5t-257.5 -91.5q-64 0 -162 15l51 -285l33 -27l111 -9l11 -61h-401l-11 61l91 9l24 27l-175 990h-121zM184 672l101 -573q85 -27 150 -27q107 0 168.5 68.5 t61.5 187.5q0 38 -8 88q-26 145 -109.5 229.5t-195.5 84.5q-79 0 -168 -58z" />
<glyph unicode="q" horiz-adv-x="906" d="M-15 489q0 164 107 257.5t299 93.5q106 0 249 -29q13 -106 16 -125l169 -961l36 -29l91 -7l11 -61h-399l-11 61l106 7l24 29l-58 331q-119 -61 -225 -61q-151 0 -262.5 108.5t-143.5 289.5q-9 51 -9 96zM135 512q0 -44 9 -97q27 -157 111.5 -243.5t205.5 -86.5 q55 0 154 26l-112 637q-80 18 -133 18q-111 0 -173 -66.5t-62 -187.5z" />
<glyph unicode="r" horiz-adv-x="651" d="M-84 768l187 61h65l28 -160q77 95 153 166q13 3 43 3q49 0 106 -22l26 -147h-55q-41 41 -94 41q-79 0 -164 -125l86 -488l34 -27l121 -9l11 -61h-412l-11 61l89 9l26 27l-109 618h-121z" />
<glyph unicode="s" horiz-adv-x="682" d="M-24 647q0 92 67.5 141.5t196.5 49.5q115 0 207 -38l33 -192h-84l-35 121q-73 36 -132 36t-91 -25t-32 -71q0 -13 3 -27q9 -52 48.5 -85.5t123.5 -70.5q14 -6 48 -20.5t53.5 -23t47.5 -24t50 -31.5q73 -50 90 -146q5 -28 5 -50q0 -97 -73 -151.5t-206 -54.5 q-126 0 -228 35l-39 222h82l46 -145q80 -41 152 -41q65 0 101.5 31.5t36.5 82.5q0 3 0.5 8t0.5 9t-1 8q-11 61 -55 93t-151 77q-127 53 -187 103t-74 131q-4 23 -4 48z" />
<glyph unicode="t" horiz-adv-x="570" d="M-93 771l104 50l45 159h63l32 -181h259l15 -80h-260l80 -451q18 -103 53.5 -144.5t120.5 -41.5q56 0 115 14l12 -64q-108 -37 -217 -37q-103 0 -147.5 39t-60.5 133l-98 552h-107z" />
<glyph unicode="u" horiz-adv-x="971" d="M-92 775l187 63h64l100 -565q17 -93 64.5 -137t132.5 -44q93 0 189 51l-102 579h-121l-9 53l187 63h65l130 -741l36 -27l81 -9l11 -61h-252l-17 96q-138 -113 -257 -113q-111 0 -181.5 66.5t-92.5 194.5l-85 478h-121z" />
<glyph unicode="v" horiz-adv-x="843" d="M-153 821h370l11 -63l-89 -7l-16 -27l298 -558l120 558l-18 27l-93 7l-12 63h303l11 -63l-99 -14l-167 -744h-96l-406 748l-106 10z" />
<glyph unicode="w" horiz-adv-x="1315" d="M-148 821h370l11 -63l-89 -7l-16 -27l254 -555l113 652h104l317 -652l76 555l-18 27l-94 7l-11 63h302l11 -63l-93 -14l-113 -744h-106l-320 647l-117 -647h-105l-359 748l-106 10z" />
<glyph unicode="x" horiz-adv-x="858" d="M-114 821h367l11 -63l-77 -10l-5 -18l183 -223l116 218l-17 23l-84 10l-11 63h307l11 -63l-92 -17l-173 -299l315 -365l105 -14l11 -63h-363l-11 63l69 12l6 14l-203 254l-131 -247l13 -21l99 -12l11 -63h-323l-11 63l95 14l188 329l-287 333l-108 19z" />
<glyph unicode="y" horiz-adv-x="844" d="M-146 821h370l11 -63l-89 -7l-16 -27l299 -531l119 531l-18 27l-94 7l-11 63h304l11 -63l-96 -14l-195 -829q-35 -147 -88 -217t-135 -70q-53 0 -90 27t-45 69q-2 12 -2 18q0 40 31 74l175 -65q63 84 93 256l-417 741l-106 10z" />
<glyph unicode="z" horiz-adv-x="798" d="M-51 821h616l12 -65l-354 -677h367l21 27l-7 145h87l45 -251h-659l-15 85l340 657h-316l-19 -27l4 -131h-80z" />
<glyph unicode="{" horiz-adv-x="829" d="M17 532q8 -1 45 -1q93 0 133.5 32.5t40.5 106.5q0 31 -8 81l-31 174q-7 39 -7 76q0 105 69.5 152t220.5 47h22l11 -63q-104 -3 -146.5 -32.5t-42.5 -98.5q0 -29 8 -74l25 -138q10 -53 10 -100q0 -85 -42 -131.5t-139 -67.5q125 -27 188 -93.5t86 -194.5l25 -142 q12 -70 25.5 -108.5t42 -67.5t72.5 -39.5t117 -11.5l12 -67h-43q-123 0 -194.5 29.5t-110.5 95.5t-61 188l-25 145q-23 127 -78.5 178.5t-172.5 51.5h-39z" />
<glyph unicode="|" horiz-adv-x="853" d="M374 -403v1707h106v-1707h-106z" />
<glyph unicode="}" horiz-adv-x="829" d="M-91 1137q4 63 11 63q176 0 265 -64.5t114 -210.5l31 -174q21 -120 75.5 -170t168.5 -50q36 0 44 1l13 -73h-40q-95 0 -136.5 -32.5t-41.5 -109.5q0 -39 9 -88l26 -145q13 -76 13 -122q0 -105 -61 -148t-209 -43h-41l-12 67q108 1 148.5 28t40.5 94q0 33 -12 105l-25 142 q-8 43 -8 86q0 85 43 132.5t137 69.5q-130 26 -190.5 94t-85.5 205l-24 138q-20 114 -72.5 157.5t-180.5 47.5z" />
<glyph unicode="~" horiz-adv-x="1421" d="M148 384v111q175 121 323 121q41 0 88.5 -9.5t73 -18t80.5 -27.5q7 -3 29.5 -11t31 -11t28.5 -9.5t30.5 -9t28.5 -7t31.5 -6.5t29.5 -3.5t32 -1.5q138 0 321 129v-109q-168 -119 -323 -119q-73 0 -158 29q-24 8 -83 28.5t-87 29.5t-73 18t-82 9q-132 0 -321 -133z" />
<glyph unicode="&#xa3;" horiz-adv-x="1076" d="M137 484q0 31 5 47l43 15q-38 102 -38 199q0 139 76.5 251t198 175t264.5 76q0 -122 -34 -203q-203 -14 -285.5 -58t-82.5 -147q0 -71 39 -196q6 -21 19 -40q166 57 262 104q11 -48 11 -102q0 -32 -5 -47q-128 -55 -216 -86q40 -98 40 -194q0 -76 -25 -163q12 -2 19 -2 q45 0 141 43t157 78t179 105q20 11 29 17q6 -39 6 -80q0 -64 -14 -121q-400 -207 -577 -207q-40 0 -67 10q22 89 22 172q0 146 -67 285l-90 -33q-10 52 -10 102z" />
<glyph unicode="&#xad;" d="M85 461q16 94 85 177q33 3 75 3q105 0 222 -17t203 -49q-10 -54 -21 -87.5t-33 -64.5q-122 21 -166.5 28.5t-102.5 14t-104 6.5q-71 0 -158 -11z" />
<glyph unicode="&#x2000;" horiz-adv-x="690" />
<glyph unicode="&#x2001;" horiz-adv-x="1380" />
<glyph unicode="&#x2002;" horiz-adv-x="690" />
<glyph unicode="&#x2003;" horiz-adv-x="1380" />
<glyph unicode="&#x2004;" horiz-adv-x="460" />
<glyph unicode="&#x2005;" horiz-adv-x="345" />
<glyph unicode="&#x2006;" horiz-adv-x="230" />
<glyph unicode="&#x2007;" horiz-adv-x="230" />
<glyph unicode="&#x2008;" horiz-adv-x="172" />
<glyph unicode="&#x2009;" horiz-adv-x="276" />
<glyph unicode="&#x200a;" horiz-adv-x="76" />
<glyph unicode="&#x2010;" d="M85 461q16 94 85 177q33 3 75 3q105 0 222 -17t203 -49q-10 -54 -21 -87.5t-33 -64.5q-122 21 -166.5 28.5t-102.5 14t-104 6.5q-71 0 -158 -11z" />
<glyph unicode="&#x2011;" d="M85 461q16 94 85 177q33 3 75 3q105 0 222 -17t203 -49q-10 -54 -21 -87.5t-33 -64.5q-122 21 -166.5 28.5t-102.5 14t-104 6.5q-71 0 -158 -11z" />
<glyph unicode="&#x2012;" d="M85 461q16 94 85 177q33 3 75 3q105 0 222 -17t203 -49q-10 -54 -21 -87.5t-33 -64.5q-122 21 -166.5 28.5t-102.5 14t-104 6.5q-71 0 -158 -11z" />
<glyph unicode="&#x2013;" horiz-adv-x="1210" d="M85 461q28 94 149 177q58 3 131 3q184 0 388.5 -17t355.5 -49q-18 -54 -37 -87.5t-58 -64.5q-213 21 -291 28.5t-179.5 14t-181.5 6.5q-125 0 -277 -11z" />
<glyph unicode="&#x2014;" horiz-adv-x="2234" d="M85 461q56 94 298 177q115 3 262 3q368 0 777.5 -17t710.5 -49q-35 -54 -73.5 -87.5t-115.5 -64.5q-427 21 -583 28.5t-359 14t-364 6.5q-248 0 -553 -11z" />
<glyph unicode="&#x2018;" horiz-adv-x="384" d="M-160 1239q0 71 41 123q95 -62 159 -150q-10 -33 -10 -71q0 -29 6 -61q9 -50 35 -117.5t45.5 -108.5t66.5 -134q-4 -6 -15.5 -11.5t-20.5 -5.5q-269 298 -302 485q-5 28 -5 51z" />
<glyph unicode="&#x2019;" horiz-adv-x="349" d="M-119 1193q22 56 59.5 104t77.5 74q66 -118 94 -237.5t28 -273.5q0 -90 -7 -181q-15 -23 -56 -23q-14 0 -21 1q-19 145 -71.5 300t-103.5 236z" />
<glyph unicode="&#x201a;" horiz-adv-x="349" d="M-134 149q22 56 59.5 104t77.5 74q66 -118 94 -237.5t28 -273.5q0 -90 -7 -181q-15 -23 -56 -23q-14 0 -21 1q-19 145 -71.5 300t-103.5 236z" />
<glyph unicode="&#x201c;" horiz-adv-x="786" d="M-169 1239q0 71 41 123q95 -62 159 -150q-10 -33 -10 -71q0 -29 6 -61q9 -50 35 -117.5t45.5 -108.5t66.5 -134q-4 -6 -15.5 -11.5t-20.5 -5.5q-269 298 -302 485q-5 28 -5 51zM210 1239q0 71 41 123q95 -62 159 -150q-10 -33 -10 -71q0 -29 6 -61q9 -50 35 -117.5 t45.5 -108.5t66.5 -134q-4 -6 -15.5 -11.5t-20.5 -5.5q-269 298 -302 485q-5 28 -5 51z" />
<glyph unicode="&#x201d;" horiz-adv-x="786" d="M-119 1193q22 56 59.5 104t77.5 74q66 -118 94 -237.5t28 -273.5q0 -90 -7 -181q-15 -23 -56 -23q-14 0 -21 1q-19 145 -71.5 300t-103.5 236zM261 1193q22 56 59.5 104t77.5 74q66 -118 94 -237.5t28 -273.5q0 -90 -7 -181q-15 -23 -56 -23q-14 0 -21 1 q-19 145 -71.5 300t-103.5 236z" />
<glyph unicode="&#x201e;" horiz-adv-x="786" d="M-134 149q22 56 59.5 104t77.5 74q66 -118 94 -237.5t28 -273.5q0 -90 -7 -181q-15 -23 -56 -23q-14 0 -21 1q-19 145 -71.5 300t-103.5 236zM246 149q22 56 59.5 104t77.5 74q66 -118 94 -237.5t28 -273.5q0 -90 -7 -181q-15 -23 -56 -23q-14 0 -21 1q-19 145 -71.5 300 t-103.5 236z" />
<glyph unicode="&#x202f;" horiz-adv-x="276" />
<glyph unicode="&#x205f;" horiz-adv-x="345" />
<glyph unicode="&#x20ac;" horiz-adv-x="1020" d="M119 701q0 106 31 205q36 114 106 207t160 118q58 15 110 15q42 0 82 -8t59 -16l19 -7q0 -51 -16 -102t-42 -67q-99 26 -155 26q-59 0 -127 -26q-32 -11 -58 -48q-41 -52 -41 -283q0 -11 5 -32t6 -31l391 125q0 -80 -16 -118l-348 -111q15 -49 29 -89l352 113q1 -5 1 -31 q0 -50 -17 -87l-297 -94q19 -46 46 -89q6 -9 19 -31t22.5 -35.5t22.5 -29.5t27.5 -24t30.5 -8q3 0 6.5 1t4.5 1q65 15 134 42.5t109.5 49t106.5 58.5q4 -28 4 -46q0 -73 -21 -114q-184 -128 -317 -164q-31 -9 -63 -9q-66 0 -120 64q-77 88 -155 288l-72 -24q-1 6 -1 34 q0 44 15 84l22 7q-19 59 -26 90l-6 -2q-2 10 -2 33q-21 90 -21 165z" />
<glyph unicode="&#xe000;" horiz-adv-x="820" d="M0 0v820h820v-820h-820z" />
</font>
</defs>
</svg>
