<?xml version="1.0" standalone="no"?>
<!DOCTYPE svg PUBLIC "-//W3C//DTD SVG 1.1//EN" "http://www.w3.org/Graphics/SVG/1.1/DTD/svg11.dtd" >
<svg xmlns="http://www.w3.org/2000/svg">
<metadata></metadata>
<defs>
<font id="hadasim_clmregularoblique" horiz-adv-x="0" >
<font-face units-per-em="2048" ascent="1638" descent="-410" />
<missing-glyph horiz-adv-x="650" />
<glyph horiz-adv-x="1372" d="M-91 1371h920l302 -1307h-919zM0 1294l261 -1131h756l-261 1131h-756zM175 1129q98 27 180 27q266 0 316 -216q9 -42 9 -75q0 -138 -150 -171l-25 -6l21 -166h-60l-74 206l104 23q72 14 72 99q0 35 -11 84q-21 91 -60.5 118t-125.5 27q-71 0 -115 -31v-80h-44zM446 384 q0 25 15 41t45 16q41 0 67.5 -30.5t26.5 -65.5q0 -25 -15 -41t-44 -16q-41 0 -68 30t-27 66z" />
<glyph horiz-adv-x="1372" d="M-91 1371h920l302 -1307h-919zM0 1294l261 -1131h756l-261 1131h-756zM175 1129q98 27 180 27q266 0 316 -216q9 -42 9 -75q0 -138 -150 -171l-25 -6l21 -166h-60l-74 206l104 23q72 14 72 99q0 35 -11 84q-21 91 -60.5 118t-125.5 27q-71 0 -115 -31v-80h-44zM446 384 q0 25 15 41t45 16q41 0 67.5 -30.5t26.5 -65.5q0 -25 -15 -41t-44 -16q-41 0 -68 30t-27 66z" />
<glyph unicode="&#xd;" horiz-adv-x="682" />
<glyph unicode=" "  horiz-adv-x="650" />
<glyph unicode="&#x09;" horiz-adv-x="650" />
<glyph unicode="&#xa0;" horiz-adv-x="650" />
<glyph unicode="!" horiz-adv-x="398" d="M-186 1230h196l150 -881h-84zM69 109q0 35 21.5 58t64.5 23q59 0 97.5 -43t38.5 -94q0 -35 -21.5 -58t-64.5 -23q-59 0 -97.5 43.5t-38.5 93.5z" />
<glyph unicode="&#x22;" horiz-adv-x="676" d="M-160 1230h177l-41 -445h-67zM125 1230h177l-41 -445h-67z" />
<glyph unicode="#" horiz-adv-x="1042" d="M-68 684l7 112h215l-17 254h110l18 -254h248l-18 253h108l18 -253h147l-9 -112h-136l15 -257h215v-107h-212l18 -320h-108l-17 316h-248l18 -316h-111l-17 316h-155l5 111h145l-14 257h-225zM267 684l15 -257h248l-15 257h-248z" />
<glyph unicode="$" horiz-adv-x="847" d="M-88 865q0 86 52 135.5t151 49.5l-23 97h96l23 -97q98 0 242 -33l50 -214h-50l-46 103q-33 26 -85.5 41t-90.5 15l79 -342l78 -26q134 -45 204 -113t94 -173q10 -43 10 -84q0 -103 -65 -163.5t-178 -60.5l25 -107h-96l-25 107q-152 0 -279 51l-56 245h50l59 -107 q38 -38 92.5 -63.5t110.5 -25.5l-91 394l-41 23q-112 38 -183.5 98.5t-97.5 172.5q-9 40 -9 77zM34 880q0 -24 7 -52q18 -80 53 -116.5t114 -66.5l-73 317q-54 -7 -77.5 -25t-23.5 -57zM345 468l84 -366q74 12 109 34.5t35 75.5q0 25 -7 53q-19 83 -73 126.5t-148 76.5z" />
<glyph unicode="%" horiz-adv-x="1378" d="M-101 870q0 179 200 179q247 0 311 -280q14 -63 14 -105q0 -180 -200 -180q-245 0 -312 285q-13 55 -13 101zM14 889q0 -47 17 -120q27 -115 67.5 -172t112.5 -57q97 0 97 111q0 44 -17 118q-28 124 -73.5 174t-110.5 50q-93 0 -93 -104zM264 -9l481 1058h122l-482 -1058 h-121zM714 373q0 180 199 180q247 0 312 -281q13 -55 13 -105q0 -180 -198 -180q-247 0 -313 285q-13 57 -13 101zM830 394q0 -49 17 -122q27 -114 67.5 -171t112.5 -57q96 0 96 111q0 47 -16 117q-28 124 -74 174t-111 50q-92 0 -92 -102z" />
<glyph unicode="&#x26;" horiz-adv-x="1311" d="M15 363q0 46 15.5 82.5t46 62.5t59.5 42t72 34q-141 111 -174 250q-7 32 -7 58q0 166 242 166q68 0 122 -14.5t88 -36t58.5 -51.5t36 -56.5t18.5 -55.5q6 -27 6 -51q0 -41 -16.5 -74t-49.5 -58t-61.5 -39.5t-73.5 -33.5l391 -294q26 102 26 179q0 54 -11 99l-114 21 l-9 40h350l9 -40l-102 -21q0 -61 -17.5 -159t-53.5 -178l212 -160l130 -19l13 -56h-264l-161 134q-118 -134 -326 -134q-95 0 -171 19.5t-122.5 48.5t-80 69.5t-48.5 75.5t-24 75t-9 75zM159 902q0 -17 7 -52q28 -124 167 -214q67 27 99 59t32 90q0 32 -8 65 q-34 147 -173 147q-124 0 -124 -95zM162 371q0 -33 9 -74q27 -115 107.5 -173t197.5 -58q165 0 256 117l-463 350q-107 -51 -107 -162z" />
<glyph unicode="'" horiz-adv-x="391" d="M-160 1230h177l-41 -445h-67z" />
<glyph unicode="(" horiz-adv-x="654" d="M-48 729q0 191 79.5 313t241.5 219l17 -75q-180 -119 -180 -391q0 -130 50 -344q4 -16 5 -24q72 -310 180 -488.5t296 -273.5l18 -75q-136 64 -236 134t-185.5 168.5t-146 230t-100.5 304.5q-39 168 -39 302z" />
<glyph unicode=")" horiz-adv-x="654" d="M-201 1261q136 -65 235 -134t185 -166.5t146 -229t100 -304.5t40 -304q0 -98 -21.5 -178.5t-64.5 -144t-99 -113t-135 -97.5l-18 75q92 61 135 154t43 227q0 144 -54 381q-15 66 -26.5 111t-34 116t-45.5 122.5t-60 116t-79.5 113t-101.5 97t-128 83.5z" />
<glyph unicode="*" horiz-adv-x="782" d="M-100 825l20 115l266 -156l-93 265h114l26 -265l196 156l73 -116l-224 -80l260 -78l-19 -114l-267 152l95 -263h-114l-29 265l-194 -158l-73 116l220 80z" />
<glyph unicode="+" horiz-adv-x="1026" d="M-30 520h366l-85 368h116l85 -368h364l27 -116h-364l84 -367h-116l-84 367h-366z" />
<glyph unicode="," horiz-adv-x="455" d="M101 126q0 39 26.5 55.5t62.5 16.5q56 0 102 -41t61 -105q10 -41 10 -81q0 -179 -209 -247l-16 70q127 44 127 125q0 13 -3 26q-5 22 -28 38t-48 25.5t-49.5 32.5t-32.5 57q-3 15 -3 28z" />
<glyph unicode="-" horiz-adv-x="717" d="M60 646h558l39 -168h-558z" />
<glyph unicode="." horiz-adv-x="398" d="M68 117q0 35 21.5 58t63.5 23q59 0 97.5 -43t38.5 -94q0 -35 -21.5 -58t-63.5 -23q-59 0 -97.5 43.5t-38.5 93.5z" />
<glyph unicode="/" horiz-adv-x="737" d="M94 -18l139 1233h133l-137 -1233h-135z" />
<glyph unicode="0" horiz-adv-x="989" d="M-74 907q0 337 287 337q44 0 85.5 -9t93 -31.5t99.5 -67.5t94.5 -110.5t87.5 -168t71 -231.5q39 -165 39 -290q0 -336 -290 -336q-87 0 -162 34t-131 91t-102.5 138.5t-78.5 170t-56 192.5q-37 161 -37 281zM75 975q0 -119 53 -349q66 -283 145 -419t204 -136 q151 0 151 216q0 121 -50 339q-30 130 -62 224t-74.5 170t-97.5 114t-122 38q-77 0 -112 -49t-35 -148z" />
<glyph unicode="1" horiz-adv-x="783" d="M-130 1030l306 200h46l260 -1128l237 -52l12 -50h-649l-12 50l258 52l-223 968l-224 -88z" />
<glyph unicode="2" horiz-adv-x="971" d="M-115 1182q151 39 269 39q98 0 177.5 -21t128.5 -53t84.5 -76.5t52.5 -83t27 -81.5q13 -55 13 -107q0 -106 -47.5 -193.5t-135.5 -187.5l-251 -279h621l32 -139h-739l-31 133l240 277q78 95 112.5 173t34.5 168q0 66 -20 155q-31 134 -104 187t-178 53q-103 0 -176 -48 v-148h-56z" />
<glyph unicode="3" horiz-adv-x="992" d="M-101 1182q140 38 274 38q387 0 456 -297q10 -43 10 -82q0 -89 -54 -141.5t-153 -67.5q157 -18 256.5 -89.5t132.5 -214.5q11 -45 11 -90q0 -129 -98 -192.5t-261 -63.5q-165 0 -333 38l-68 254h60l79 -169q38 -19 105.5 -34t125.5 -15q121 0 173 44.5t52 129.5 q0 46 -14 107q-58 249 -312 249h-130l-17 89h126q156 0 156 145q0 41 -12 92q-27 121 -92 177t-181 56q-105 0 -181 -48v-148h-57z" />
<glyph unicode="4" horiz-adv-x="997" d="M-29 386l398 828h104l189 -819h163l30 -129h-163l61 -266h-155l-61 266h-537zM70 395h437l-140 607h-5z" />
<glyph unicode="5" horiz-adv-x="954" d="M-114 1230h612l32 -139h-530l93 -408q94 22 203 22q220 0 337.5 -90.5t155.5 -256.5q13 -56 13 -108q0 -134 -93.5 -201.5t-260.5 -67.5q-180 0 -324 39l-58 254h60l79 -170q98 -48 212 -48q120 0 172 44.5t52 129.5q0 49 -16 119q-23 100 -60.5 158.5t-108.5 90 t-185 31.5q-80 0 -155 -22h-86z" />
<glyph unicode="6" horiz-adv-x="983" d="M-65 831q0 88 21 157.5t55 112t79.5 70t90 38.5t92.5 11q131 0 268 -31l49 -208h-59l-62 123q-31 15 -82.5 28t-95.5 13q-29 0 -55.5 -6.5t-54 -24t-47.5 -46t-32.5 -77t-12.5 -111.5q0 -103 31 -235q128 77 277 77q50 0 96.5 -9t95.5 -33.5t89 -62.5t73.5 -100 t52.5 -143q16 -67 16 -129q0 -126 -74 -194.5t-221 -68.5q-57 0 -111.5 13t-122.5 53t-125 104.5t-111.5 178.5t-89.5 265q-30 129 -30 235zM132 591q66 -287 160 -412.5t214 -125.5q83 0 119.5 39.5t36.5 116.5q0 62 -20 148q-36 155 -100 217t-159 62q-121 0 -251 -45z " />
<glyph unicode="7" horiz-adv-x="929" d="M-194 1230h748l21 -92l-272 -1138h-116l282 1069h-531v-147h-61z" />
<glyph unicode="8" horiz-adv-x="1001" d="M-71 1000q0 102 70 164t225 62q162 0 275 -79t149 -234q9 -36 9 -77q0 -136 -124 -196q45 -15 85.5 -39t82 -60.5t73 -92t47.5 -122.5q13 -58 13 -107q0 -237 -330 -237q-386 0 -465 344q-11 45 -11 91q0 162 152 223q-35 14 -66.5 34t-68 52.5t-64.5 80.5t-41 106 q-11 47 -11 87zM89 1015q0 -47 13 -102q27 -119 83 -176.5t159 -57.5q81 0 118 34.5t37 102.5q0 45 -13 97q-54 241 -251 241q-77 0 -111.5 -35.5t-34.5 -103.5zM184 450q0 -51 17 -124q32 -140 95.5 -206.5t191.5 -66.5q100 0 143 40.5t43 118.5q0 51 -15 114 q-33 139 -102.5 206.5t-195.5 67.5q-94 0 -135.5 -36.5t-41.5 -113.5z" />
<glyph unicode="9" horiz-adv-x="1000" d="M-92 954q0 129 82 197.5t232 68.5q75 0 138 -18t123.5 -61.5t110 -113t93 -175.5t75.5 -246q31 -132 31 -243q0 -91 -23 -160.5t-58 -110.5t-84 -66.5t-95 -34.5t-97 -9q-145 0 -276 30l-48 209h59l61 -129q84 -36 184 -36q32 0 60.5 6t59 24.5t52.5 47.5t36 79t14 116 q0 96 -30 226q-120 -76 -261 -76q-65 0 -126.5 18.5t-121.5 58t-107 112t-70 171.5q-14 64 -14 115zM70 969q0 -56 18 -134q34 -146 105.5 -207.5t178.5 -61.5q114 0 222 48q-35 153 -75.5 259t-85.5 165t-91 84.5t-101 25.5q-171 0 -171 -179z" />
<glyph unicode=":" horiz-adv-x="397" d="M-85 779q0 35 21.5 58t63.5 23q47 0 85.5 -33t48.5 -76q3 -13 3 -26q0 -37 -24.5 -60t-61.5 -23q-59 0 -97.5 43t-38.5 94zM63 139q0 35 21.5 58t63.5 23q59 0 97 -43.5t38 -94.5q0 -35 -21.5 -58.5t-62.5 -23.5q-59 0 -97.5 44t-38.5 95z" />
<glyph unicode=";" horiz-adv-x="456" d="M-37 775q0 36 23.5 60.5t64.5 24.5q47 0 84.5 -33t47.5 -76q3 -13 3 -27q0 -37 -23.5 -59.5t-60.5 -22.5q-47 0 -86.5 32t-49.5 77q-3 12 -3 24zM101 125q0 39 26.5 56t62.5 17q57 0 103 -40.5t61 -105.5q10 -41 10 -81q0 -179 -210 -247l-16 70q128 44 128 125 q0 13 -3 26q-5 22 -28 38t-48.5 25.5t-50 32.5t-32.5 57q-3 15 -3 27z" />
<glyph unicode="&#x3c;" horiz-adv-x="1031" d="M-34 539l773 337l29 -125l-552 -231l660 -238l29 -124l-931 344z" />
<glyph unicode="=" horiz-adv-x="1026" d="M-78 729h846l27 -117h-846zM-7 418h846l28 -117h-846z" />
<glyph unicode="&#x3e;" horiz-adv-x="1031" d="M-112 876l929 -337l8 -37l-771 -344l-29 124l550 238l-658 231z" />
<glyph unicode="?" horiz-adv-x="827" d="M-183 1181q134 39 256 39q383 0 453 -306q13 -56 13 -106q0 -201 -214 -248l-37 -9l31 -237h-86l-105 294l148 33q103 21 103 143q0 47 -16 119q-16 68 -37 109t-55 62.5t-72.5 28.5t-101.5 7q-101 0 -165 -44v-114h-62zM204 117q0 35 21.5 58t63.5 23q47 0 85.5 -33 t47.5 -76q3 -12 3 -25q0 -35 -22.5 -59.5t-62.5 -24.5q-59 0 -97.5 43.5t-38.5 93.5z" />
<glyph unicode="@" horiz-adv-x="1343" d="M23 419q0 159 49.5 290t133.5 215.5t193.5 130.5t231.5 46q150 0 269 -85t167 -234q18 -54 30 -105q26 -115 26 -227q0 -121 -28.5 -218.5t-91 -160t-150.5 -62.5q-138 0 -138 222h-13q-25 -108 -54 -157q-58 -98 -167 -98q-70 0 -121 55t-80 183q-17 73 -17 147 q0 54 9.5 102.5t33.5 95.5t61.5 81t98 55t138.5 21q97 0 244 -29q0 -367 29 -494q9 -37 59 -37q45 0 78.5 82t33.5 206q0 99 -25 208q-30 134 -75 207q-100 161 -306 161q-329 0 -463 -314q-62 -147 -62 -321q0 -185 63.5 -350t143.5 -232q80 -65 197 -65q94 0 200.5 32.5 t181.5 103.5l21 -91q-162 -138 -390 -138q-46 0 -91 9.5t-97 35.5t-97 67t-87 109.5t-71 156.5q-68 210 -68 396zM423 352q0 -62 12 -113q25 -112 91 -112h5q49 0 103 69.5t54 113.5v82q0 71 -12 179q-44 11 -82 11q-49 0 -84 -20t-53 -55t-26 -73t-8 -82z" />
<glyph unicode="A" horiz-adv-x="1350" d="M-13 48l131 25l147 1144h171l692 -1144l159 -25l11 -48h-510l-11 48l156 25l-200 348h-475l-42 -348l168 -25l11 -48h-395zM266 502h420l-348 586z" />
<glyph unicode="B" horiz-adv-x="1240" d="M-202 1207h552q102 0 181 -13t148 -43.5t114.5 -87.5t64.5 -140q8 -32 8 -68q0 -87 -53.5 -140t-137.5 -73q152 0 265 -81.5t144 -213.5q11 -51 11 -91q0 -52 -17.5 -95t-59.5 -82.5t-124.5 -62t-199.5 -22.5q-101 0 -207.5 3t-178.5 3h-231l-11 47l149 25l-245 1064 l-161 23zM146 1126l106 -457h197q126 0 181.5 41t55.5 120q0 37 -11 84q-11 50 -34 87t-53 60.5t-71.5 38.5t-85.5 20.5t-99 5.5h-186zM270 588l117 -507q42 0 131.5 -3t134.5 -3q256 0 256 183q0 37 -11 86q-18 78 -59.5 129t-129.5 83t-223 32h-216z" />
<glyph unicode="C" horiz-adv-x="1287" d="M-64 801q0 208 127 313.5t379 105.5q190 0 415 -46l67 -263h-60l-63 156q-151 81 -335 81q-167 0 -256 -74t-89 -247q0 -100 31 -236q31 -133 83 -234t109 -157.5t126 -91.5t125 -46t115 -11q115 0 192.5 27.5t116.5 63.5v180h59l59 -284q-183 -56 -413 -56 q-289 0 -491.5 157.5t-269.5 449.5q-27 117 -27 212z" />
<glyph unicode="D" horiz-adv-x="1376" d="M-202 1207h548q323 0 523 -144t271 -453q26 -112 26 -203q0 -71 -15 -130t-51.5 -112t-93 -90t-144 -58t-199.5 -21q-96 0 -232.5 2t-198.5 2h-155l-11 48l149 24l-245 1064l-161 23zM145 1126l241 -1042q3 0 100 -3.5t158 -3.5q163 0 250 73t87 241q0 98 -29 221 q-27 119 -79.5 211t-115.5 148t-141.5 92t-153 49.5t-155.5 13.5h-162z" />
<glyph unicode="E" horiz-adv-x="1176" d="M-202 1207h905l67 -289h-59l-74 195q-97 13 -295 13h-197l109 -472h321v144h57l85 -370h-57l-61 145h-326l113 -492h238q229 0 300 14v224h59l57 -319h-963l-11 48l148 24l-245 1064l-160 23z" />
<glyph unicode="F" horiz-adv-x="1079" d="M-209 1207h906l67 -289h-60l-74 195q-94 13 -294 13h-197l116 -503h350v144h55l86 -371h-55l-62 146h-355l108 -470l206 -24l11 -48h-517l-11 48l137 24l-245 1064l-161 23z" />
<glyph unicode="G" horiz-adv-x="1349" d="M-63 803q0 417 505 417q218 0 437 -54l60 -259h-60l-60 149q-149 92 -353 92q-167 0 -256 -75t-89 -248q0 -100 31 -234q31 -135 83.5 -236.5t109 -158t126 -90.5t124.5 -44.5t115 -10.5q80 0 158 19t113 42l-79 343l-161 24l-11 48h445l11 -48l-111 -24l90 -392 q-227 -81 -423 -81h-17q-290 0 -491.5 156.5t-269.5 450.5q-27 115 -27 214z" />
<glyph unicode="H" horiz-adv-x="1392" d="M-202 1207h483l11 -48l-148 -23l109 -474h567l-109 474l-160 23l-11 48h482l11 -48l-149 -23l245 -1064l161 -24l11 -48h-482l-11 48l148 24l-117 509h-567l117 -509l160 -24l11 -48h-483l-11 48l149 24l-245 1064l-161 23z" />
<glyph unicode="I" horiz-adv-x="650" d="M-202 1207h482l11 -48l-149 -23l245 -1064l161 -24l11 -48h-482l-11 48l149 24l-245 1064l-161 23z" />
<glyph unicode="J" horiz-adv-x="816" d="M-18 1207h464l12 -49l-131 -23l172 -747q18 -75 18 -144q0 -73 -22.5 -126.5t-59.5 -82t-76.5 -41.5t-82.5 -13q-115 0 -192 27l-51 220h59l56 -125q48 -45 129 -45q95 0 95 99q0 31 -9 72l-209 906l-160 23z" />
<glyph unicode="K" horiz-adv-x="1388" d="M-202 1207h483l11 -48l-149 -23l131 -569l447 569l-125 23l-11 48h378l11 -48l-134 -23l-319 -403l668 -661l136 -24l11 -48h-295l-614 610l-133 -130l94 -408l179 -24l11 -48h-501l-11 48l149 24l-245 1064l-161 23z" />
<glyph unicode="L" horiz-adv-x="1131" d="M-202 1207h515l11 -48l-180 -23l244 -1059h238q181 0 275 18v252h59l63 -347h-946l-11 48l149 24l-245 1064l-161 23z" />
<glyph unicode="M" horiz-adv-x="1700" d="M-202 1207h366l604 -918l216 918h346l11 -48l-149 -23l245 -1064l161 -24l11 -48h-490l-11 48l156 24l-223 966l-241 -1038h-32l-682 1038l223 -966l168 -24l11 -48h-411l-11 48l149 24l-245 1064l-161 23z" />
<glyph unicode="N" horiz-adv-x="1403" d="M-202 1207h365l828 -894l-190 823l-168 23l-11 48h411l11 -48l-148 -23l262 -1136h-88l-994 1085l233 -1013l168 -24l11 -48h-411l-11 48l148 24l-245 1064l-160 23z" />
<glyph unicode="O" horiz-adv-x="1378" d="M-65 821q0 399 474 399q95 0 179.5 -16t173 -59t159 -110.5t129 -177t91.5 -252.5q27 -115 27 -214q0 -94 -26.5 -166t-70 -117.5t-105.5 -74t-128 -40t-143 -11.5q-65 0 -125.5 8t-125.5 28.5t-122.5 51.5t-113 80.5t-101 112.5t-83.5 150.5t-62 191.5q-27 117 -27 216z M117 851q0 -101 33 -246q30 -129 70.5 -224t102 -172t151 -116.5t205.5 -39.5q164 0 236 77.5t72 223.5q0 107 -34 251q-23 102 -52.5 181t-73 149t-99 115.5t-132 71.5t-170.5 26q-153 0 -231 -68.5t-78 -228.5z" />
<glyph unicode="P" horiz-adv-x="1064" d="M-209 1207h455q444 0 526 -356q13 -59 13 -107q0 -58 -18.5 -105.5t-59 -85.5t-112.5 -59t-170 -21h-136l92 -401l198 -24l11 -48h-508l-11 48l137 24l-245 1064l-161 23zM138 1126l132 -572h94q129 0 186 47t57 140q0 47 -14 109q-34 149 -119 212.5t-247 63.5h-89z" />
<glyph unicode="Q" horiz-adv-x="1417" d="M-62 805q0 402 475 402q94 0 178.5 -16.5t173 -60t159.5 -111.5t130 -178.5t92 -253.5q27 -117 27 -211q0 -265 -214 -362l58 -56q92 -90 160.5 -137t126.5 -47q2 0 7.5 1.5t9.5 1.5h42q3 0 8 0.5t6 0.5l14 -59q-19 -9 -71 -21.5t-98 -12.5q-99 0 -179.5 51t-220.5 187 l-48 47q-30 -4 -74 -4q-93 0 -177.5 16.5t-173 59.5t-159.5 111t-131 179t-93 255q-28 124 -28 218zM121 834q0 -104 33 -247q30 -128 70 -223t101.5 -171.5t151 -116t206.5 -39.5q164 0 236.5 77.5t72.5 223.5q0 100 -34 249q-23 102 -52.5 181.5t-73.5 149.5t-100 116 t-132.5 72.5t-169.5 26.5q-165 0 -237 -77t-72 -222z" />
<glyph unicode="R" horiz-adv-x="1296" d="M-209 1207h521q126 0 219.5 -22.5t153 -66.5t93.5 -100.5t52 -132.5q11 -49 11 -87q0 -94 -50.5 -156t-131.5 -88l437 -482l137 -24l11 -48h-289l-461 529h-217l105 -457l188 -24l11 -48h-499l-11 48l137 24l-245 1064l-161 23zM139 1126l119 -516h159q130 0 190 38.5 t60 127.5q0 38 -13 96q-33 143 -116 198.5t-245 55.5h-154z" />
<glyph unicode="S" horiz-adv-x="1025" d="M-83 987q0 81 48 134.5t122.5 76t172.5 22.5q149 0 326 -38l58 -252h-58l-66 148q-108 67 -242 67q-119 0 -169 -42.5t-50 -103.5q0 -19 5 -39q6 -25 16.5 -46.5t35.5 -52t75.5 -59.5t122.5 -52l126 -41q62 -20 105.5 -38t96 -48.5t88 -66t66.5 -89t46 -119.5 q12 -52 12 -102q0 -120 -81 -192t-263 -72q-210 0 -386 64l-64 279h60l70 -163q44 -43 132.5 -75t166.5 -32q115 0 167 49t52 127q0 31 -8 66q-6 26 -15.5 48t-34.5 56.5t-76.5 66.5t-125.5 57l-127 41q-62 20 -103.5 36t-94 45t-87 63t-65 85.5t-45.5 116.5q-9 40 -9 75z " />
<glyph unicode="T" horiz-adv-x="1239" d="M-199 1207h1062l66 -284h-61l-69 189q-93 18 -320 18h-44l244 -1058l197 -24l11 -48h-557l-11 48l186 24l-244 1058h-46q-224 0 -307 -18l19 -189h-60z" />
<glyph unicode="U" horiz-adv-x="1367" d="M-256 1207h482l12 -49l-150 -23l167 -725q77 -328 396 -328q143 0 219 56t76 169q0 47 -13 100l-168 728l-167 23l-12 49h411l12 -49l-149 -23l166 -721q17 -71 17 -136q0 -64 -19 -115.5t-62 -93.5t-119.5 -65t-182.5 -23q-135 0 -239.5 34t-170.5 94.5t-105.5 131 t-59.5 156.5l-170 738l-159 23z" />
<glyph unicode="V" horiz-adv-x="1350" d="M-309 1207h487l12 -49l-157 -24l571 -888l159 888l-163 24l-12 49h392l12 -49l-127 -24l-216 -1163h-46l-759 1163l-141 24z" />
<glyph unicode="W" horiz-adv-x="1816" d="M-289 1207h461l12 -49l-172 -24l483 -850l132 837h40l507 -837l77 850l-193 24l-12 49h400l12 -49l-101 -24l-125 -1163h-48l-505 831l-129 -831h-48l-668 1163l-111 24z" />
<glyph unicode="X" horiz-adv-x="1357" d="M-174 1207h498l11 -48l-147 -23l336 -373l194 373l-155 23l-11 48h395l11 -48l-127 -23l-236 -452l556 -612l143 -24l11 -48h-498l-11 48l147 24l-424 468l-243 -468l155 -24l11 -48h-394l-11 48l127 24l285 545l-470 519l-142 23z" />
<glyph unicode="Y" horiz-adv-x="1314" d="M-320 1207h511l11 -48l-156 -23l474 -557l201 557l-159 23l-11 48h393l11 -48l-127 -23l-245 -661l93 -403l197 -24l11 -48h-557l-11 48l186 24l-92 398l-577 666l-142 23z" />
<glyph unicode="Z" horiz-adv-x="1150" d="M-121 1207h822l18 -77l-439 -1054h261q93 0 202 9t155 20v231h63l54 -336h-913l-20 85l436 1045h-225q-217 0 -302 -18v-190h-46z" />
<glyph unicode="[" horiz-adv-x="590" d="M-203 1269h410l10 -42l-259 -37l316 -1367l275 -37l10 -42h-410z" />
<glyph unicode="\" horiz-adv-x="737" d="M-190 1214h133l708 -1232h-134z" />
<glyph unicode="]" horiz-adv-x="590" d="M-203 1269h410l352 -1525h-410l-10 42l259 37l-316 1367l-275 37z" />
<glyph unicode="^" horiz-adv-x="975" d="M-9 428l193 637h115l487 -637h-137l-376 500l-146 -500h-136z" />
<glyph unicode="_" horiz-adv-x="1130" d="M205 -500h950l22 -92h-950z" />
<glyph unicode="`" horiz-adv-x="548" d="M-194 1230h194l231 -245l6 -29h-49l-374 241z" />
<glyph unicode="a" horiz-adv-x="968" d="M-7 926q155 35 270 35h7q162 0 246 -66t112 -190l147 -635l123 -25l10 -45h-258l-41 94q-87 -114 -264 -114q-239 0 -304 280q-11 44 -11 86q0 50 18.5 87t47.5 58.5t73.5 35t88.5 18t100 4.5h140l-34 147q-24 103 -71 146t-117 43q-102 0 -172 -47v-117h-63zM193 348 q0 -32 11 -82q41 -176 183 -176q31 0 51 2t63.5 15t90.5 38l-78 334h-130q-99 0 -145 -30.5t-46 -100.5z" />
<glyph unicode="b" horiz-adv-x="1035" d="M-308 1421h303l78 -336q6 -25 8 -43l12 -52q5 -23 10 -52t9 -51q83 78 234 78q188 0 319 -113.5t186 -355.5q24 -102 24 -190q0 -155 -83 -240.5t-259 -85.5q-98 0 -204.5 21t-182.5 48l-301 1303l-143 24zM132 827l172 -745q84 -16 205 -16q92 0 141.5 51.5t49.5 167.5 q0 88 -29 211q-19 82 -46 145t-67.5 114t-99.5 78t-133 27q-57 0 -112 -10t-81 -23z" />
<glyph unicode="c" horiz-adv-x="967" d="M-42 642q0 91 30.5 157t83.5 100.5t113 50t131 15.5q132 0 302 -31l61 -262h-55l-81 166q-94 47 -210 47q-199 0 -199 -222q0 -78 25 -186q46 -200 145 -296.5t280 -96.5q149 0 246 33l14 -60q-43 -37 -125 -57t-168 -20q-458 0 -572 497q-21 93 -21 165z" />
<glyph unicode="d" horiz-adv-x="1090" d="M-43 647q0 318 337 318q96 0 225 -25q-9 24 -24 80l-12 49q-2 7 -4.5 20.5t-4.5 18.5l-56 244l-164 24l-10 45h324l312 -1351l122 -25l10 -45h-264l-28 70q-94 -90 -243 -90q-385 0 -496 481q-24 101 -24 186zM134 661q0 -82 27 -200q86 -377 347 -377q112 0 194 39 l-172 743q-97 17 -207 17q-189 0 -189 -222z" />
<glyph unicode="e" horiz-adv-x="940" d="M-46 664q0 74 20 130t50 87.5t73 51.5t81.5 26t83.5 6q361 0 456 -410l19 -82h-578q10 -42 18 -72t24 -73.5t34 -74.5t47.5 -65t64.5 -55t85 -35t108 -14q119 0 243 29l13 -56q-38 -29 -114 -53t-167 -24q-228 0 -353.5 123t-183.5 374q-24 102 -24 187zM123 699 q0 -61 19 -146h402q-37 162 -97.5 247t-165.5 85q-29 0 -54 -7.5t-50 -26t-39.5 -57.5t-14.5 -95z" />
<glyph unicode="f" horiz-adv-x="822" d="M-107 897l151 47l-15 66q-22 98 -22 172q0 76 21.5 130t58.5 81t75 38t81 11q71 0 148 -21l47 -203h-49l-74 123q-37 21 -86 21q-42 0 -60.5 -23t-18.5 -73q0 -58 25 -170l32 -151h250l23 -89h-250l180 -778l211 -33l10 -45h-508l-10 45l131 33l-180 778h-162z" />
<glyph unicode="g" horiz-adv-x="1074" d="M-37 733q0 117 84.5 174.5t232.5 57.5q45 0 102.5 -8t87.5 -17l195 111l45 -43l-105 -144q63 -56 96.5 -149t33.5 -168q0 -65 -25.5 -111.5t-71 -71.5t-98.5 -36.5t-117 -11.5q-80 0 -156 14l-33 -131q8 -19 49 -33t91 -14h278q86 0 152.5 -22.5t105.5 -56.5t64 -79 t33.5 -84.5t8.5 -77.5q0 -41 -11 -78t-41.5 -73.5t-77.5 -63t-124.5 -43t-177.5 -16.5q-104 0 -186 18t-130 45.5t-79.5 64t-42.5 70t-11 66.5q0 50 30.5 94t89.5 94q-26 8 -58 25.5t-68.5 55.5t-46.5 83l117 178q-71 30 -121.5 83.5t-73 112.5t-32 104t-9.5 81zM139 743 q0 -59 9 -100q32 -141 96 -196.5t163 -55.5q76 0 116 32.5t40 111.5q0 49 -14 108q-29 125 -87.5 185.5t-167.5 60.5q-85 0 -120 -38t-35 -108zM271 -156q0 -94 69 -150t226 -56q87 0 148.5 16t92.5 44t44.5 58t13.5 66q0 31 -8 59t-26.5 54.5t-54.5 42.5t-86 16h-364 q-55 -61 -55 -150z" />
<glyph unicode="h" horiz-adv-x="1094" d="M-274 1421h306l102 -441l7 -40q13 -52 13 -76q59 39 144 70t150 31q124 0 202 -72.5t108 -204.5l143 -618l120 -25l10 -45h-405l-10 45l119 25l-140 606q-39 172 -206 172q-93 0 -218 -29l173 -749l133 -25l10 -45h-412l-10 45l113 25l-296 1282l-146 24z" />
<glyph unicode="i" horiz-adv-x="634" d="M-99 940h299l201 -870l167 -25l10 -45h-487l-10 45l154 25l-185 800l-139 25zM-81 1271q0 37 24.5 61t61.5 24q47 0 85.5 -33t48.5 -76q3 -12 3 -24q0 -37 -25 -60.5t-62 -23.5q-43 0 -83 31.5t-50 76.5q-3 12 -3 24z" />
<glyph unicode="j" horiz-adv-x="545" d="M-123 940h307l226 -979q21 -88 21 -161q0 -72 -21 -121.5t-57 -73t-71 -32.5t-77 -9q-60 0 -149 18l-46 199h47l52 -109q38 -28 89 -28q79 0 79 114q0 58 -21 152l-222 960l-147 25zM-97 1272q0 35 23.5 59.5t63.5 24.5q46 0 84.5 -33t48.5 -76q3 -12 3 -24 q0 -36 -23.5 -60t-62.5 -24q-45 0 -84 32t-50 76q-3 12 -3 25z" />
<glyph unicode="k" horiz-adv-x="1117" d="M-276 1421h305l223 -968l290 415l-105 27l-10 45h332l10 -45l-111 -23l-205 -274l466 -530l108 -23l10 -45h-385l-10 45l80 25l-352 405l-91 -135l62 -270l106 -25l10 -45h-385l-10 45l113 25l-296 1282l-145 24z" />
<glyph unicode="l" horiz-adv-x="600" d="M-272 1421h326l312 -1351l167 -25l10 -45h-487l-10 45l154 25l-296 1282l-166 24z" />
<glyph unicode="m" horiz-adv-x="1655" d="M-139 940h275l26 -76q160 101 283 101q21 0 43 -3t59.5 -12t74 -33.5t63.5 -60.5q66 42 161 75.5t166 33.5q240 0 304 -277l143 -618l127 -25l10 -45h-427l-10 45l134 25l-139 600q-22 97 -69.5 134.5t-118.5 37.5q-80 0 -202 -24l-49 -11q29 -55 44 -119l143 -618 l147 -25l10 -45h-446l-10 45l133 25l-139 600q-39 172 -209 172q-86 0 -171 -20l-42 -9l172 -743l147 -25l10 -45h-426l-10 45l113 25l-185 800l-125 25z" />
<glyph unicode="n" horiz-adv-x="1088" d="M-137 940h268l27 -76q63 42 142 71.5t143 29.5q124 0 202 -72.5t108 -204.5l143 -618l120 -25l10 -45h-405l-10 45l119 25l-139 600q-41 178 -207 178q-81 0 -172 -20l-42 -9l173 -749l133 -25l10 -45h-406l-10 45l107 25l-185 800l-119 25z" />
<glyph unicode="o" horiz-adv-x="1023" d="M-43 652q0 313 346 313q134 0 239 -48t186 -159t120 -283q24 -107 24 -182q0 -313 -349 -313q-99 0 -182 28.5t-140.5 74.5t-103 112t-72.5 134t-45 146q-23 100 -23 177zM130 689q0 -83 30 -214q49 -209 126.5 -312.5t217.5 -103.5q192 0 192 212q0 80 -28 204 q-22 95 -49.5 165t-69 127.5t-100.5 87.5t-135 30q-98 0 -141 -49t-43 -147z" />
<glyph unicode="p" horiz-adv-x="1014" d="M-168 940h264l15 -55q34 37 100 58.5t137 21.5q99 0 182 -37.5t142.5 -105t100 -153t64.5 -188.5q23 -98 23 -180q0 -150 -79.5 -235.5t-245.5 -85.5q-118 0 -220 20q15 -40 32 -111l58 -254l170 -24l11 -47h-448l-11 47l113 24l-285 1235l-113 25zM130 827l173 -751 q92 -17 199 -17q182 0 182 219q0 88 -27 203q-19 82 -45.5 146t-66 119t-97.5 84.5t-131 29.5q-117 0 -187 -33z" />
<glyph unicode="q" horiz-adv-x="1088" d="M-46 646q0 152 81.5 235.5t251.5 83.5q100 0 229 -25l80 45h70l311 -1350l110 -24l11 -47h-399l-11 47l113 26l-87 421q-80 -78 -240 -78q-386 0 -498 487q-22 94 -22 179zM130 659q0 -81 26 -192q89 -383 349 -383q58 0 113.5 10t81.5 23l-173 749q-97 17 -207 17 q-190 0 -190 -224z" />
<glyph unicode="r" horiz-adv-x="799" d="M-139 940h274l36 -119q46 46 136.5 95t155.5 49h15l59 -254h-43l-84 110q-54 0 -119 -14t-106 -35l162 -702l167 -25l10 -45h-446l-10 45l113 25l-185 800l-125 25z" />
<glyph unicode="s" horiz-adv-x="854" d="M-44 766q0 98 71 148.5t188 50.5q101 0 265 -31l48 -205h-47l-67 109q-65 47 -178 47q-73 0 -105 -30.5t-32 -77.5q0 -18 5 -40q5 -21 13 -37.5t27.5 -40t58 -45t93.5 -38.5l97 -31q60 -19 102.5 -38.5t87.5 -51t75 -79.5t45 -112q10 -42 10 -80q0 -204 -294 -204 q-81 0 -170.5 16.5t-129.5 30.5l-54 231h47l80 -131q91 -68 210 -68q162 0 162 116q0 23 -6 50q-26 122 -193 173l-97 30q-48 14 -81.5 27.5t-73 35.5t-66 49t-49 67t-34.5 91q-8 33 -8 68z" />
<glyph unicode="t" horiz-adv-x="729" d="M-122 901l114 39l54 213h63l49 -213h215l19 -84h-215l148 -641q12 -51 38 -82t50 -40t50 -9q58 0 137 16l15 -65q-27 -21 -85.5 -38t-124.5 -17q-105 0 -162.5 62t-78.5 155l-153 659h-123z" />
<glyph unicode="u" horiz-adv-x="1060" d="M-183 940h286l155 -672q40 -172 200 -172q121 0 225 31l-172 743l-148 25l-10 45h307l201 -870l125 -25l10 -45h-274l-28 76q-59 -38 -144.5 -67t-150.5 -29q-240 0 -304 276l-142 614l-126 25z" />
<glyph unicode="v" horiz-adv-x="1074" d="M-207 940h438l10 -45l-142 -27l423 -649l112 651l-155 25l-10 45h348l10 -45l-85 -21l-170 -894h-74l-593 890l-102 25z" />
<glyph unicode="w" horiz-adv-x="1521" d="M-206 940h449l10 -45l-149 -27l369 -635l86 613h84l368 -617l65 641l-160 25l-10 45h358l10 -45l-99 -21l-108 -894h-78l-376 620l-85 -620h-74l-531 890l-119 25z" />
<glyph unicode="x" horiz-adv-x="1109" d="M-121 940h426l10 -45l-118 -27l243 -270l145 272l-135 25l-10 45h338l10 -45l-103 -21l-185 -342l417 -466l115 -21l10 -45h-426l-10 45l119 23l-294 333l-176 -335l134 -21l10 -45h-338l-10 45l105 16l215 408l-365 401l-117 25z" />
<glyph unicode="y" horiz-adv-x="1047" d="M-201 940h436l10 -45l-141 -27l405 -657l94 659l-153 25l-10 45h350l10 -45l-93 -21l-151 -933q-9 -53 -17 -91.5t-20 -81t-25.5 -72t-33 -57.5t-43 -44.5t-55.5 -26.5t-70 -10q-77 0 -158 18l-47 203h47l55 -96q38 -23 91 -23q79 0 121 65t62 193l9 72l-561 880l-102 25 z" />
<glyph unicode="z" horiz-adv-x="994" d="M-86 940h694l11 -49l-328 -811h275q52 0 115 12.5t88 34.5v197h47l50 -324h-772l-10 45l327 815h-221q-60 0 -108 -10t-63 -25v-135h-47z" />
<glyph unicode="{" horiz-adv-x="729" d="M-32 529q154 0 154 134q0 35 -10 78l-61 265q-12 55 -12 94q0 169 186 169h121l10 -42h-55q-118 0 -118 -111q0 -39 11 -83l68 -297q7 -29 7 -61q0 -63 -33.5 -107t-93.5 -57l1 -3q84 -19 144 -79t80 -149l70 -300q24 -106 73 -150t123 -44h55l10 -42h-121 q-117 0 -192.5 71.5t-103.5 192.5l-61 266q-50 214 -243 214z" />
<glyph unicode="|" horiz-adv-x="321" d="M-177 1158h141l337 -1461h-141z" />
<glyph unicode="}" horiz-adv-x="729" d="M-203 1269h122q67 0 120 -22t87 -61.5t55 -83t33 -96.5l61 -265q48 -212 242 -212l9 -41q-153 0 -153 -134q0 -35 10 -80l61 -266q11 -50 11 -89q0 -83 -45.5 -129t-138.5 -46h-122l-10 42h55q58 0 88.5 25.5t30.5 86.5q0 32 -11 82l-70 300q-8 35 -8 63q0 64 33.5 107 t94.5 58l-1 3q-82 17 -143 78t-81 147l-68 297q-25 106 -74 150t-123 44h-55z" />
<glyph unicode="~" horiz-adv-x="1072" d="M-29 569q0 88 44 140.5t141 52.5q95 0 250 -109l76 -52q86 -57 132 -57q64 0 82 46t18 172h92q0 -16 3 -47t3 -46q0 -100 -39 -158.5t-137 -58.5q-46 0 -98.5 22.5t-100 54t-92.5 63.5t-89.5 54.5t-77.5 22.5q-113 0 -113 -127q0 -39 12 -90h-91q-15 67 -15 117z" />
<glyph unicode="&#xa3;" horiz-adv-x="916" d="M5 477v97h100q-73 175 -94 266q-6 26 -6 48q0 88 73.5 141.5t199.5 53.5q131 0 310 -54l55 -237h-60l-53 114q-39 39 -94.5 64.5t-105.5 25.5h-10q-171 0 -171 -132q0 -45 20 -98l32 -143l12 -49h303v-97h-265q25 -111 25 -223q0 -104 -22 -142q31 0 159 1t244.5 2.5 t120.5 1.5l16 -117h-694v105q44 7 70 62t26 113q0 19 -3 34q-1 4 -10.5 34t-20.5 66t-17 63h-140z" />
<glyph unicode="&#xad;" horiz-adv-x="717" d="M60 646h558l39 -168h-558z" />
<glyph unicode="&#x591;" />
<glyph unicode="&#x592;" />
<glyph unicode="&#x593;" />
<glyph unicode="&#x594;" />
<glyph unicode="&#x595;" />
<glyph unicode="&#x596;" />
<glyph unicode="&#x597;" />
<glyph unicode="&#x598;" />
<glyph unicode="&#x599;" />
<glyph unicode="&#x59a;" />
<glyph unicode="&#x59b;" />
<glyph unicode="&#x59c;" />
<glyph unicode="&#x59d;" />
<glyph unicode="&#x59e;" />
<glyph unicode="&#x59f;" />
<glyph unicode="&#x5a0;" />
<glyph unicode="&#x5a1;" />
<glyph unicode="&#x5a2;" />
<glyph unicode="&#x5a3;" />
<glyph unicode="&#x5a4;" />
<glyph unicode="&#x5a5;" />
<glyph unicode="&#x5a6;" />
<glyph unicode="&#x5a7;" />
<glyph unicode="&#x5a8;" />
<glyph unicode="&#x5a9;" />
<glyph unicode="&#x5aa;" />
<glyph unicode="&#x5ab;" />
<glyph unicode="&#x5ac;" />
<glyph unicode="&#x5ad;" />
<glyph unicode="&#x5ae;" />
<glyph unicode="&#x5af;" />
<glyph unicode="&#x5b0;" d="M-28 -218l41 52q19 25 50 1l64 -52q31 -26 12 -49l-41 -54q-18 -24 -49 1l-64 52q-30 26 -13 49zM29 -458l40 53q20 25 48 1l66 -53q30 -24 11 -48l-41 -54q-19 -23 -48 0l-65 53q-32 24 -11 48z" />
<glyph unicode="&#x5b1;" d="M-251 -217l41 52q18 24 49 1l65 -53q29 -25 10 -49l-39 -53q-20 -23 -49 0l-66 53q-28 24 -11 49zM-72 -459l40 53q19 25 49 1l65 -53q30 -24 11 -48l-41 -54q-19 -23 -48 0l-65 53q-31 24 -11 48zM-11 -217l40 53q19 23 49 0l65 -53q28 -24 11 -49l-41 -52 q-18 -25 -48 -1l-65 53q-29 25 -11 49zM195 -218l41 52q19 25 50 1l64 -52q29 -23 11 -48l-41 -54q-19 -23 -48 0l-64 52q-30 26 -13 49zM251 -458l41 52q20 26 48 2l66 -53q29 -26 12 -49l-42 -54q-17 -23 -49 1l-65 53q-30 24 -11 48z" />
<glyph unicode="&#x5b2;" d="M-248 -274l3 81q0 15 13 15h310q15 0 15 -15l-3 -81q-1 -13 -16 -13h-310q-13 0 -12 13zM195 -218l40 52q19 26 50 1l65 -52q31 -26 12 -49l-41 -54q-19 -25 -49 1l-64 52q-31 25 -13 49zM251 -458l41 53q20 25 48 1l66 -53q29 -24 11 -48l-42 -54q-17 -23 -48 0l-65 53 q-30 24 -11 48z" />
<glyph unicode="&#x5b3;" d="M-247 -281l2 81q2 15 14 15h310q16 0 14 -15l-2 -81q-1 -13 -16 -13h-95l52 -186q1 -10 -8 -10h-86q-10 0 -11 10l-33 186h-129q-13 0 -12 13zM195 -218l41 52q19 25 50 1l64 -52q31 -25 12 -49l-41 -54q-19 -25 -50 2l-63 51q-30 26 -13 49zM252 -458l40 53q20 24 49 1 l66 -53q29 -24 11 -48l-42 -54q-18 -24 -48 0l-65 53q-30 24 -11 48z" />
<glyph unicode="&#x5b4;" d="M-28 -218l41 52q19 25 50 1l65 -53q29 -24 11 -48l-41 -54q-20 -23 -48 0l-65 53q-29 25 -13 49z" />
<glyph unicode="&#x5b5;" d="M-147 -217l41 52q18 24 49 1l65 -53q29 -25 10 -49l-39 -53q-20 -23 -49 0l-66 53q-28 24 -11 49zM93 -217l40 53q19 23 49 0l65 -53q28 -24 11 -49l-41 -52q-18 -25 -48 -1l-66 53q-29 24 -10 49z" />
<glyph unicode="&#x5b6;" d="M-147 -217l41 52q18 24 49 1l65 -53q29 -25 10 -49l-39 -53q-20 -23 -49 0l-66 53q-28 24 -11 49zM32 -459l40 53q19 25 49 1l65 -53q30 -24 11 -48l-41 -54q-19 -23 -48 0l-65 53q-31 24 -11 48zM93 -217l40 53q19 23 49 0l65 -53q28 -24 11 -49l-41 -52q-18 -25 -48 -1 l-66 53q-29 24 -10 49z" />
<glyph unicode="&#x5b7;" d="M-119 -266l3 81q2 15 13 15h310q17 0 15 -15l-3 -81q-1 -13 -16 -13h-310q-13 0 -12 13z" />
<glyph unicode="&#x5b8;" d="M-119 -266l3 81q2 15 13 15h310q17 0 15 -15l-3 -81q-1 -13 -16 -13h-95l52 -186q3 -10 -7 -10h-86q-9 0 -12 10l-33 186h-129q-13 0 -12 13z" />
<glyph unicode="&#x5b9;" d="M-388 1343l41 52q19 25 48 2l67 -54q28 -23 11 -48l-42 -54q-19 -23 -48 0l-66 54q-28 23 -11 48z" />
<glyph unicode="&#x5ba;" d="M-388 1393l41 52q19 25 48 2l67 -54q28 -23 11 -48l-42 -54q-19 -23 -48 0l-66 54q-28 23 -11 48z" />
<glyph unicode="&#x5bb;" d="M-165 -212l37 47q16 23 45 2l58 -48q26 -22 10 -44l-37 -48q-17 -22 -44 0l-58 48q-27 21 -11 43zM6 -341l37 47q17 23 45 1l57 -47q28 -22 11 -44l-37 -49q-18 -21 -44 1l-58 47q-27 21 -11 44zM180 -477l37 48q18 22 45 1l58 -47q28 -23 10 -44l-37 -49q-18 -21 -44 1 l-58 47q-27 22 -11 43z" />
<glyph unicode="&#x5bc;" d="M-195 545l36 47q16 22 44 0l58 -47q28 -22 10 -44l-36 -47q-17 -20 -44 1l-58 48q-28 21 -10 42z" />
<glyph unicode="&#x5bd;" d="M0 -232q-2 5 10 12l70 50q5 3 10 -1t7 -11l68 -297q0 -7 -12 -14l-69 -47q-5 -3 -10 1.5t-8 12.5z" />
<glyph unicode="&#x5be;" horiz-adv-x="661" d="M-131 837l3 121q3 23 21 23h465q24 0 21 -23l-3 -121q-3 -19 -25 -19h-465q-20 0 -17 19z" />
<glyph unicode="&#x5bf;" d="M-458 1207l3 80q2 15 13 15h310q17 0 15 -15l-3 -80q-2 -14 -15 -14h-310q-15 0 -13 14z" />
<glyph unicode="&#x5c0;" horiz-adv-x="160" />
<glyph unicode="&#x5c1;" d="M-374 1280l41 52q20 25 50 1l65 -53q29 -23 12 -48l-42 -54q-19 -23 -48 0l-65 53q-29 25 -13 49z" />
<glyph unicode="&#x5c2;" d="M-374 1280l41 52q20 25 50 1l65 -53q29 -23 12 -48l-42 -54q-19 -23 -48 0l-65 53q-29 25 -13 49z" />
<glyph unicode="&#x5c3;" horiz-adv-x="471" d="M-103 878q-3 16 11 36l32 40l29 38q13 19 34 19q19 0 42 -18l97 -79q23 -18 26 -36q4 -18 -9 -36l-62 -82q-15 -18 -32 -18q-19 0 -40 18l-99 80q-24 20 -29 38zM58 183q-4 17 7 36l31 41l31 37q13 19 33 19q18 0 41 -18l98 -79q23 -18 27 -36q4 -17 -10 -36l-62 -81 q-13 -18 -32 -18q-18 0 -40 18l-98 80q-21 18 -26 37z" />
<glyph unicode="&#x5c4;" />
<glyph unicode="&#x5c5;" />
<glyph unicode="&#x5c6;" horiz-adv-x="655" d="M-102 891v11l11 230q1 16 12.5 28t23.5 12q18 0 23 -19q7 -29 24 -60t35 -44h230q21 0 29.5 -7.5t7.5 -28.5l-5 -121q-4 -23 -10.5 -27.5t-28.5 -4.5h-53q-28 0 -28 -88q0 -167 73 -482l6 -25q10 -43 30 -55t95 -12h156q32 0 37 -20q1 -5 1 -16l-5 -130q-4 -23 -10 -27.5 t-29 -4.5h-270q-53 0 -74.5 14.5t-34.5 72.5q-12 47 -20 113q-15 183 -106 580q-5 18 -10 44q-8 36 -56 36h-9q-15 0 -28.5 9t-16.5 22z" />
<glyph unicode="&#x5c7;" d="M-101 -266l3 81q2 15 13 15h275q17 0 15 -15l-3 -81q-1 -13 -16 -13h-77l67 -250q3 -10 -8 -10h-86q-8 0 -11 10l-48 250h-112q-13 0 -12 13z" />
<glyph unicode="&#x5d0;" horiz-adv-x="1228" d="M174 1036q0 15 9.5 25.5t23.5 10.5t26 -12l494 -470q19 -18 43 -31t33 -13q18 0 34 42t16 107q0 34 -6 73q-4 28 -11.5 46t-14.5 23.5t-12 11t-5 11.5l-39 156q-5 19 3.5 26t31.5 7h193q21 0 29 -6t8 -26l30 -121q2 -8 2.5 -13.5t-2 -9t-5 -5.5t-8.5 -3t-10 -1h-13 q-42 0 -68.5 -25.5t-26.5 -56.5q0 -3 4 -19.5t8 -45t4 -61.5q0 -55 -13 -123.5t-13 -76.5q0 -23 38 -55q79 -68 138 -106t78.5 -44t29.5 -16t16 -40l40 -165q3 -13 -19 -27.5t-37 -2.5q-22 17 -62 48q-168 130 -246 192.5t-188.5 160t-237.5 221.5q-26 26 -36 26 q-11 0 -19 -26t-8 -63q0 -35 7 -66q21 -91 45.5 -154.5t42.5 -88t34.5 -47t21.5 -39.5l34 -130q4 -16 -6.5 -25t-31.5 -9h-319q-3 0 -5.5 0.5t-4.5 2.5l-3 3t-2 4l-1.5 4.5t-1.5 5t-1 4.5l-20 76q-1 3 -1 7q0 10 6 18.5t17.5 14.5t20 10t20.5 8l13 4l116 36 q-113 200 -113 329q0 40 8.5 74.5t18 53t18 35.5t8.5 26q0 3 -0.5 5.5t-1.5 5t-2 4.5t-3.5 4.5t-3.5 4t-4.5 4.5t-5 4t-5.5 5t-6 5l-57 47q-5 5 -14 21t-12 27l-37 175q-1 3 -1 8z" />
<glyph unicode="&#x5d1;" horiz-adv-x="922" d="M57 1132q-5 21 3.5 32.5t20 10.5t18.5 -4q11 -8 21 -37q26 -64 55 -85h218q57 0 101.5 -7.5t83 -33.5t65.5 -50t55.5 -83t47 -104t45 -142.5t44 -170t49.5 -211.5q2 -6 4.5 -16.5t3.5 -13.5t3.5 -8.5t6 -6.5t9 -2.5t13.5 -1.5h33q19 0 26 -7t12 -29l32 -130 q4 -15 -1.5 -22.5t-13 -8.5t-25.5 -1h-715q-44 0 -53 31l-36 134q-5 19 3.5 26t30.5 7h538q37 0 45.5 7t-0.5 38q-22 57 -47 130t-41 120.5t-38 104t-40 91.5t-44.5 71t-55 55.5t-67.5 32t-86 12.5h-191q-22 0 -50.5 12t-32.5 30z" />
<glyph unicode="&#x5d2;" horiz-adv-x="801" d="M66 1132q-5 21 3.5 32.5t20 10.5t18.5 -4q11 -8 21 -37q26 -64 55 -85h53h49.5t40.5 -1.5t35 -3.5t27.5 -7t24.5 -11.5t18.5 -17.5t17 -24t13.5 -32t13.5 -41t12.5 -51q32 -139 70.5 -248.5t71.5 -173.5t72 -112.5t64 -69t56 -38.5q24 -13 31 -24t1 -26 q-27 -31 -42.5 -77.5t-22.5 -75t-16 -28.5q-40 0 -115 113t-131 279l-11 -27q-10 -40 -26 -107q-10 -44 -14.5 -63.5t-13 -50t-12.5 -41.5t-13.5 -30t-15.5 -24t-19 -15.5t-23.5 -11.5t-29.5 -5t-36.5 -4h-44.5h-9.5h-10t-8.5 1t-8.5 3t-6.5 5t-6 8.5t-4 13.5l-36 134 q-5 19 3.5 26t30.5 7h50q49 0 85 17t57.5 42.5t36.5 69t21.5 82.5t12.5 98q-10 30 -24 73l-21 64.5t-18.5 53.5t-19 47t-19 36.5t-22 30.5t-25.5 21t-31.5 16t-37 7.5t-46.5 3.5h-14q-22 0 -50.5 12t-32.5 30z" />
<glyph unicode="&#x5d3;" horiz-adv-x="888" d="M-73 1132q-5 21 3.5 32.5t20 10.5t18.5 -4q11 -8 21 -37q34 -85 55 -85h616q19 0 25.5 -7.5t12.5 -29.5l30 -119q5 -22 -5 -27.5t-36 -5.5q-57 0 -57 -86q0 -49 22 -144q18 -78 71.5 -214.5t71.5 -215.5q5 -20 5 -46q0 -58 -43 -140q-7 -14 -11 -17t-19 -7l-28 -9 q-15 -4 -20 0t-8 19l-178 785q-10 39 -32.5 57t-73.5 18h-328q-22 0 -50.5 12t-32.5 30z" />
<glyph unicode="&#x5d4;" horiz-adv-x="1160" d="M65 1132q-5 21 3.5 32.5t20 10.5t18.5 -4q11 -8 21 -37q34 -85 55 -85h748q19 0 25.5 -7.5t12.5 -29.5l30 -119q4 -14 -0.5 -22.5t-10.5 -9.5l-6 -1q-21 0 -29 -29t-8 -57q0 -71 26.5 -168t58.5 -175.5t58.5 -157.5t26.5 -119q0 -58 -43 -140q-7 -14 -11 -17t-19 -7 l-28 -8q-15 -4 -20 -0.5t-8 18.5l-178 785q-10 39 -32.5 57t-73.5 18h-504q-22 0 -50.5 12t-32.5 30zM190 580q0 23 13 38t46 30q35 16 46 -30l22 -98q6 -27 31 -99.5t43 -143.5t18 -127q0 -101 -72 -150q-27 -18 -45 -18q-37 0 -37 60q0 164 -16.5 279t-32.5 173.5 t-16 85.5z" />
<glyph unicode="&#x5d5;" horiz-adv-x="558" d="M-46 1153q-5 21 3.5 32.5t20 10.5t18.5 -4q11 -8 21 -37q26 -64 55 -85q116 -22 184 -54.5t95.5 -68.5t40.5 -91q8 -33 12 -51l39 -173q16 -67 78 -243t62 -231q0 -58 -43 -140q-7 -14 -11 -16.5t-19 -7.5l-28 -9q-15 -4 -20 0.5t-8 20.5l-176 758q-8 34 -37 57.5 t-67 34.5l-87 25q-3 1 -16.5 4.5t-22 6t-19.5 7t-17 11t-8 13.5z" />
<glyph unicode="&#x5d6;" horiz-adv-x="612" d="M0 1132q-4 21 4.5 32.5t20 10.5t18.5 -4q11 -8 21 -37q22 -55 64 -85l268 -47q22 -4 33 -12t16 -28l32 -130q5 -22 -8.5 -29.5t-31.5 -2.5q-20 8 -51 8q-16 0 -26.5 -16t-10.5 -29v-17q0 -60 28 -146.5t62 -159.5t62 -154.5t28 -131.5q0 -58 -43 -140q-7 -14 -11 -16.5 t-19 -7.5l-28 -9q-15 -4 -20 0t-8 19q-8 36 -16.5 95t-14.5 85q-19 83 -60 205.5t-55 183.5q-11 49 -18.5 97.5t-10 71t-9 43.5t-19 31.5t-38.5 20.5l-27 8q-3 1 -16.5 4.5t-22 6t-19.5 7t-17 11t-8 13.5z" />
<glyph unicode="&#x5d7;" horiz-adv-x="1225" d="M51 1132q-5 21 4 32.5t20.5 10.5t19.5 -4q9 -6 19 -37q20 -50 69 -85h812q18 0 25 -7t13 -30l25 -91q3 -15 3 -25q0 -14 -7 -22t-15 -13t-15 -27t-7 -60q0 -69 26.5 -164.5t58.5 -173.5t58.5 -158.5t26.5 -123.5q0 -58 -43 -140q-11 -21 -58 -33q-15 -4 -20 0t-8 19 l-178 785q-10 39 -32.5 57t-73.5 18h-368q-79 0 -79 -119q0 -79 59 -293t59 -260q0 -45 -16.5 -84.5t-53.5 -93.5q-8 -11 -13.5 -15t-18.5 -8l-29 -4q-16 -2 -20 1.5t-7 19.5q-19 85 -29 220.5t-23.5 287.5t-42.5 277q-7 33 -26 52t-34 19q-25 16 -31 42z" />
<glyph unicode="&#x5d8;" horiz-adv-x="1182" d="M34 925l41 194q5 19 17.5 34.5t24.5 15.5q6 0 10 -4.5t5 -9.5q14 -59 57 -91l181 -49q3 -1 9.5 -2.5t8 -2l6 -2t5.5 -3t3.5 -4t3.5 -5.5t1.5 -7t0.5 -10v-119v-8q0 -22 -5.5 -27t-34.5 -5q-68 0 -68 -20q53 -229 118.5 -372.5t176.5 -243.5q105 0 177.5 16t162.5 58 q22 32 22 106q0 92 -33 234q-18 82 -34 122q-21 59 -66 99.5t-102 40.5q-16 0 -30 -4t-26.5 -15t-20.5 -18.5t-18 -26.5t-13.5 -26.5t-13.5 -30.5t-12 -27q-26 -18 -43 14q0 48 1.5 80.5t6.5 78t17 76t30.5 59.5t49.5 43.5t72 14.5q44 0 83.5 -17.5t68 -43.5t55 -70.5 t43.5 -83t35.5 -97.5t28 -97.5t23.5 -98.5q26 -114 26 -237q0 -205 -79 -261q-44 -22 -93.5 -33.5t-295.5 -56.5q-49 -9 -62 -9q-27 0 -48 19t-66 80q-75 104 -126.5 204.5t-83.5 237.5q-38 161 -38 314q-1 7 -21.5 23.5t-36.5 20.5l-53 11q-30 5 -39 13.5t-9 28.5z" />
<glyph unicode="&#x5d9;" horiz-adv-x="641" d="M0 1133q-4 21 4 32.5t18.5 10.5t17.5 -4q13 -9 22 -37q18 -45 103 -68l145 -35q105 -28 142.5 -96t37.5 -180q0 -74 -11 -149t-29 -115q-43 -92 -94 -92q-34 0 -44 26q-2 6 -2 13q0 15 18 102t18 143q0 74 -35 112.5t-109 53.5l-76 14q-76 13 -83 42z" />
<glyph unicode="&#x5da;" horiz-adv-x="853" d="M-70 1132q0 17 14 28t28 11t15 -9q7 -30 25.5 -65t35.5 -48h360q255 0 310 -232q7 -33 29 -173t29 -169q39 -170 117 -391t98 -308q5 -20 5 -46q0 -58 -43 -140q-9 -15 -38 -26l-28 -11q-15 -4 -20 0t-8 19l-244 1055q-26 115 -45 149q-30 53 -105 70q-65 14 -216 14 h-228q-19 0 -33.5 12t-14.5 30z" />
<glyph unicode="&#x5db;" horiz-adv-x="966" d="M51 1132q-5 21 3.5 32.5t20.5 10.5t19 -4q10 -7 20 -37q12 -31 37 -58t44 -27h327q48 0 91 -20.5t77 -52.5t67 -85.5t56.5 -104t51 -125t46.5 -132t46 -140.5t46 -136q5 -23 5 -44q0 -77 -45.5 -143t-102.5 -66h-584h-9.5h-10t-8.5 1t-8.5 3t-6.5 5t-6 8.5t-4 13.5 l-36 134q-5 19 3.5 26t30.5 7h539q57 0 80.5 14.5t23.5 49.5q0 17 -9 58l-20 87q-12 50 -22.5 88t-29.5 88t-41 86t-55.5 74.5t-73.5 62t-95.5 39t-120.5 15.5h-213q-22 0 -50.5 12t-32.5 30z" />
<glyph unicode="&#x5dc;" horiz-adv-x="980" d="M-58 1586v6q0 32 6.5 39.5t39.5 7.5h109q19 0 26.5 -7t12.5 -29l32 -130q2 -7 2 -12t-0.5 -8t-4.5 -5.5t-6 -3.5t-9 -1.5t-9.5 -0.5h-12.5h-28q-46 0 -55 -21q-11 -29 -11 -70q0 -47 16 -116q14 -61 52 -135q30 -51 78 -51h454q159 -26 197 -186q9 -41 9 -87 q0 -128 -58.5 -279.5t-166.5 -287.5t-236 -205q-9 -5 -15 -7.5t-10.5 -1.5t-7 2t-5 7t-3.5 9t-3 12.5t-3 14.5l-25 142v2q0 7 9 16.5t26 20t31 18.5t35 19t26 14q139 84 201.5 197t62.5 223q0 28 -6 54q-12 53 -48 83.5t-91 30.5h-456q-54 0 -72 18t-28 62 q-26 112 -38.5 227t-14.5 191.5t-2 227.5z" />
<glyph unicode="&#x5dd;" horiz-adv-x="1181" d="M30 1132q-5 21 3.5 32.5t20 10.5t18.5 -4q14 -10 23 -37q13 -32 36.5 -58.5t42.5 -26.5h542q50 0 91 -9.5t70 -22.5t53.5 -39t39 -46t29.5 -59t22 -61.5t20 -67.5l152 -541q3 -17 10 -40.5t11 -40.5t4 -26q0 -28 -31 -62t-84 -34h-707q-36 0 -47 11t-17 38l-26 99 q-27 100 -47 185.5t-39.5 210t-19.5 215.5v79l-38 12q-76 25 -82 52zM284 830q0 -2 13 -71.5t29.5 -151t22.5 -107.5q47 -205 68.5 -253.5t69.5 -48.5h499q43 0 59 9t16 32q0 18 -8 52l-5 23q-24 105 -111 336q-18 48 -35 81t-41 57.5t-48.5 37.5t-64 21t-80.5 10.5 t-105 2.5h-239q-40 0 -40 -30z" />
<glyph unicode="&#x5de;" horiz-adv-x="1235" d="M10 1132q-4 21 4 32.5t19.5 10.5t18.5 -4q11 -8 21 -37q12 -31 37 -58t44 -27q31 -18 88.5 -34.5t92.5 -36.5t44 -60q4 -16 5 -32.5t2 -47t5 -66.5q3 -15 18.5 -19.5t23.5 6.5q99 106 142 206q6 17 7.5 33.5t2.5 23.5t3.5 14t17 9t36 3t67.5 1q58 0 95.5 -3.5t76.5 -16.5 t65.5 -36t56 -63.5t55 -98t55.5 -140.5q10 -28 37 -99.5t41.5 -113t35 -109.5t35.5 -132q9 -41 9 -77q0 -68 -33.5 -114t-111.5 -46h-383h-8h-8.5t-8 0.5t-8 1.5t-6.5 3.5t-6.5 5.5t-5 8t-3.5 12l-36 134q-5 19 3.5 26t30.5 7h356q54 0 75 8.5t21 34.5q0 5 -4 27 q-1 6 -7 22.5t-8 27.5l-90 249q-63 156 -122 218t-161 62q-40 0 -83 -7q-59 -21 -87 -51q-79 -63 -106 -149.5t-27 -223.5q0 -44 3.5 -156.5t3.5 -183.5q0 -47 -10.5 -61.5t-54.5 -14.5h-49q-21 0 -30 3.5t-13 16.5v32q0 29 14.5 184.5t14.5 255.5q0 125 -20 210 q-17 78 -69 101l-101 35q-2 1 -10.5 4.5t-13.5 6l-13 6.5t-13.5 8t-11.5 8.5t-9.5 10t-4.5 10.5z" />
<glyph unicode="&#x5df;" horiz-adv-x="551" d="M-32 1132v14q0 29 28 29q11 0 16 -4q11 -8 21 -37q12 -31 37 -58t44 -27h182q47 0 63 -64l19 -86q5 -25 5 -31q-8 -20 -8 -52q0 -65 32 -187q36 -156 93 -318t96.5 -289t52.5 -254q0 -41 -8 -78t-19.5 -61.5t-24 -42.5t-22.5 -26.5t-15 -8.5q-12 0 -26 62 q-48 210 -139.5 565t-147.5 612q-5 22 -11.5 34.5t-29.5 24t-62 11.5h-41q-22 0 -50.5 12t-32.5 30z" />
<glyph unicode="&#x5e0;" horiz-adv-x="710" d="M80 1132q-5 21 3.5 32.5t20 10.5t18.5 -4q11 -8 21 -37q12 -31 37 -58t44 -27h172q52 0 79 -46t49 -143l18 -77q20 -87 48 -191t53 -191t47.5 -161.5t36 -118.5t13.5 -45q4 -13 4 -27q0 -27 -26.5 -38t-92.5 -11h-361h-9.5h-9.5t-8 1t-9 3t-7 5t-6 9t-4 13l-36 134 q-5 19 3.5 26t30.5 7h326q26 0 33 13.5t0 35.5q-26 114 -62.5 243t-86 249.5t-81.5 120.5h-125q-22 0 -50.5 12t-32.5 30z" />
<glyph unicode="&#x5e1;" horiz-adv-x="1126" d="M24 1132q-5 21 3.5 32.5t20 10.5t18.5 -4q11 -8 21 -37q12 -31 37 -58t44 -27h542q63 0 137 -55t100 -134q59 -137 89 -288.5t30 -252.5q0 -80 -17.5 -141t-56.5 -110.5t-109 -75.5t-168 -26q-62 0 -115.5 14t-95 33.5t-79.5 61t-64.5 75.5t-54.5 99t-45 109.5t-39.5 129 t-34.5 135.5t-35 149q-6 35 -18.5 58.5t-24.5 32t-22.5 18.5t-12.5 21zM254 800q0 -14 6 -40q25 -107 52.5 -192.5t54.5 -143.5t58.5 -100.5t59.5 -66t62.5 -37.5t62.5 -18t64 -4q42 0 84.5 8.5t86.5 28t71.5 58t27.5 91.5q0 19 -2.5 35t-8.5 42t-8 39q-17 75 -31 122.5 t-34.5 92t-44 69t-59 43.5t-81 26t-108.5 7q-91 0 -152.5 -3.5t-93 -8t-47 -14t-18 -15.5t-2.5 -19z" />
<glyph unicode="&#x5e2;" horiz-adv-x="1152" d="M32 1132q-5 21 3.5 32.5t20 10.5t18.5 -4q14 -10 23 -37q13 -32 36.5 -58.5t42.5 -26.5h134q19 0 26 -7t12 -29l32 -130q6 -18 -12 -23l-57 -16q45 -194 168 -343t228 -174q111 95 111 333q0 29 -1.5 77.5t-1.5 66.5q0 23 -8 30q-8 6 -24 9l-28 5q-1 0 -10 2t-11 3 t-8.5 3.5t-9 5.5t-6 8t-4.5 12l-36 134q-5 19 3.5 26t30.5 7h198q19 0 26 -7t12 -29l32 -130q-1 -5 0.5 -6.5t-2 -5t-4.5 -4t-5.5 -3.5t-6.5 -4l-33 -20q0 -55 2 -148t2 -131q0 -72 -4.5 -123t-19 -106t-40.5 -94.5t-69 -80t-105.5 -72t-149 -61.5t-199.5 -56 q-69 -16 -92 -16t-27 18q-1 2 -1 8q0 4 2 22.5t2 33.5v71q0 16 4 27t9.5 17t20 10.5t24.5 6.5t35 5.5t41 6.5l236 38q-126 75 -238 255.5t-156 368.5l-48 16q-55 19 -65 38q-2 4 -3 8z" />
<glyph unicode="&#x5e3;" horiz-adv-x="924" d="M93 860q0 25 2 65.5t2 70.5v136q0 15 8.5 28.5t22.5 13.5q8 0 14.5 -19.5t11.5 -43t21 -43t40 -19.5h189q84 0 150 -17.5t105.5 -46.5t61.5 -60.5t29 -64.5q29 -59 68 -242q33 -142 93 -330t97.5 -319t37.5 -208q0 -44 -8 -82.5t-20 -62.5t-24.5 -41.5t-21.5 -24.5 t-12 -7q-14 0 -28 63q-52 225 -125 502.5t-137 554.5q-11 50 -25 80t-40 55t-69.5 37t-107.5 18.5t-161 6.5q-54 0 -54 -41q0 -18 3.5 -30t12.5 -39t18 -66q10 -43 27 -56t44 -13q4 0 12.5 0.5t13.5 0.5q26 0 44 -14t32 -52l19 -49q11 -29 11 -45q0 -15 -10.5 -18.5 t-37.5 -3.5h-145q-33 0 -52 13.5t-43 73t-54 183.5q-15 64 -15 156z" />
<glyph unicode="&#x5e4;" horiz-adv-x="1006" d="M147 860q0 25 3 65.5t3 70.5v136q0 16 7.5 29t21.5 13q8 0 14.5 -19.5t11.5 -43t21 -43t40 -19.5h221q89 0 143.5 -12t101 -49.5t79 -101t68.5 -172.5l143 -426q1 -5 5.5 -19.5t7.5 -32.5t3 -41q0 -81 -45.5 -138t-93.5 -57h-580h-9h-9.5t-8.5 1t-8.5 3t-6.5 5t-6.5 9 t-4.5 13l-36 134q-5 19 3.5 26t30.5 7h429q116 0 161 13t45 48q0 30 -36 105q-4 18 -74 175t-87 182q-4 6 -11 17q-17 28 -27.5 41t-38 31.5t-65 27.5t-103.5 15.5t-158 6.5q-54 0 -54 -41q0 -31 40 -145q21 -57 71 -57q18 0 28 -0.5t19.5 -0.5t15 -3.5t10 -4t8 -8t5.5 -10 t7 -15.5t7 -19l17 -48q16 -40 16 -52q0 -14 -13.5 -17.5t-53.5 -3.5h-128q-33 0 -52 16.5t-40 71t-47 166.5q-5 20 -5 52q-6 65 -6 119z" />
<glyph unicode="&#x5e5;" horiz-adv-x="1140" d="M-35 1132q-5 21 3 32.5t20 10.5t19 -4q3 -2 19 -34t38.5 -61t44.5 -29h182q19 0 26 -7t12 -29l32 -130q0 -1 0.5 -2.5t0.5 -2.5l-46 -62l15 -40l130 -326q95 94 159.5 180.5t98.5 187.5q13 35 -2 35q-26 0 -32 31l-36 134q-5 19 3.5 26t30.5 7h196q21 0 31.5 -8t14.5 -29 l32 -130q0 -1 0.5 -2.5t0.5 -2.5q0 -8 -7 -14t-19 -10t-23 -6.5t-25 -5t-19 -3.5q-11 -3 -19.5 -7.5t-13.5 -8.5t-9.5 -13t-6.5 -14.5t-7 -21t-8 -23.5q-32 -82 -82 -170t-83.5 -135.5t-113.5 -158.5q22 -96 106.5 -314t84.5 -275q0 -34 -13.5 -63t-24.5 -33l-33 -11 q-24 -7 -31 -7q-11 0 -17.5 15.5t-19.5 71.5q-97 409 -327 1073q-10 29 -28.5 50t-37 31t-36 16t-28.5 6l-11 1q-23 3 -36 5.5t-29 12t-18 24.5z" />
<glyph unicode="&#x5e6;" horiz-adv-x="1051" d="M28 1138q-5 21 3 32.5t20 10.5t19 -4q11 -8 21 -37q13 -32 37.5 -59.5t43.5 -27.5h182q19 0 26 -7t12 -29l33 -135q0 -11 -24 -28t-24 -27q0 -1 2 -7q5 -8 128.5 -141.5t156.5 -166.5q44 109 44 217q0 53 -15.5 88.5t-49.5 35.5q-25 0 -32 29l-36 134q-5 19 3.5 26 t30.5 7h211q21 0 31.5 -8t14.5 -29l33 -135q0 -29 -61 -44q-17 -16 -22 -85.5t-17 -164t-44 -158.5q41 -38 121.5 -100.5t100.5 -78.5q23 -19 31.5 -27.5t14 -21.5t5.5 -34l-3 -80q-4 -34 -37 -58.5t-84 -24.5h-619q-32 0 -41 9q-9 8 -13 24l-36 134q-4 19 4 26t30 7h487 q52 0 73.5 5t21.5 18v3q-1 6 -6.5 13.5t-15.5 17t-19.5 17.5t-24.5 20.5t-25 21.5q-58 51 -83.5 73.5t-60 57.5t-58 61t-98.5 107.5t-162 173.5q-61 64 -84 64q-29 0 -56 10t-32 32z" />
<glyph unicode="&#x5e7;" horiz-adv-x="1083" d="M42 1132q-5 21 3 32.5t19 10.5t18 -4q11 -8 21 -37q12 -31 37 -58t44 -27h520q52 0 96.5 -20.5t72 -51.5t44 -61t22.5 -56q35 -154 35 -286q0 -371 -242 -584q-18 -13 -41 -13q-17 0 -26.5 8t-17.5 31q-5 15 -9 38l-20 95q0 37 10.5 50t48.5 33q82 49 137.5 144.5 t55.5 200.5q0 43 -8 76q-25 111 -85 159t-173 48h-431q-22 0 -50.5 12t-32.5 30zM207 466q0 21 16 61l53 122q3 8 15 8q13 0 13 -8q18 -153 52 -303q24 -105 80 -295.5t80 -292.5q7 -31 7 -61q0 -81 -45 -107q-40 -15 -50 -15q-14 0 -20 12.5t-15 53.5l-175 759 q-11 49 -11 66z" />
<glyph unicode="&#x5e8;" horiz-adv-x="869" d="M-78 1132q-5 21 3.5 32.5t20 10.5t18.5 -4q11 -8 21 -37q12 -31 37 -58t44 -27h347q49 0 89.5 -9.5t69 -24.5t52 -41t38.5 -49.5t29.5 -59.5t22.5 -63.5t20.5 -68t21.5 -66.5l106 -345q2 -10 14.5 -54.5t12.5 -45.5q6 -29 6 -48q0 -24 -14.5 -94.5t-25.5 -87.5 q-10 -11 -25 -19q-10 -5 -16 -5q-7 0 -11 9.5t-10 36.5q-10 42 -77 304t-77 306q-16 70 -26 99.5t-32 64t-60 45.5t-97.5 19t-156.5 8h-212q-22 0 -50.5 12t-32.5 30z" />
<glyph unicode="&#x5e9;" horiz-adv-x="1362" d="M-12 1132q-5 21 3.5 32.5t20 10.5t18.5 -4q11 -8 21 -37q12 -31 37 -58t44 -27h170q19 0 26 -7t12 -29l26 -119q5 -21 -4.5 -27.5t-31.5 -6.5q-17 0 -28.5 -18t-11.5 -42q0 -15 4 -26q17 -47 39.5 -118.5t36.5 -113t37 -94.5t53.5 -98.5t72.5 -89.5q23 -25 46.5 -43.5 t30.5 -18.5v564q0 44 -15 71t-36 27h-8h-8.5t-7.5 0.5t-7.5 1.5t-6.5 3.5t-6 5.5t-4.5 8t-4.5 12l-30 125q-5 19 3.5 26t30.5 7h254q10 0 15.5 -1.5t9 -8t4.5 -10t5 -18.5l28 -119q4 -14 -3 -21t-22 -9l-15 -2q-70 -29 -70 -102v-540q4 -21 34 -21q18 0 37 3q62 8 111 35 t80 69.5t52.5 91.5t32 112t14.5 118.5t4 123.5q0 58 -20 84t-50 26h-7.5h-8.5t-7.5 0.5t-7.5 1.5t-7 3.5t-6 5.5t-4.5 8t-4.5 12l-32 125q-5 19 3.5 26t30.5 7h230q19 0 25.5 -7t12.5 -29l34 -121q1 -3 0 -6.5t-4 -6.5t-6.5 -5t-8.5 -4.5t-8.5 -4t-7.5 -3.5t-5 -2 q-41 -18 -41 -142q0 -33 1 -97.5t1 -95.5q0 -72 -4 -124t-17 -112.5t-36 -102.5t-64 -83.5t-98.5 -66t-141.5 -40t-190 -15.5h-33q-30 0 -49 3t-44 20t-41 50q-98 196 -246 622q-11 32 -17 48q-25 70 -46.5 100.5t-47.5 35.5q-63 14 -70 42z" />
<glyph unicode="&#x5ea;" horiz-adv-x="1183" d="M143 1132q-5 21 3.5 32.5t20 10.5t18.5 -4q11 -8 21 -37q12 -31 37 -58t44 -27h440q47 0 85.5 -10t66 -24.5t51.5 -40.5t39 -49.5t30.5 -60t24 -63t21.5 -68.5t22 -66l145 -486q7 -14 7 -44q0 -52 -26 -112t-49 -60q-26 0 -50 105q-9 39 -70 268t-74 286q-8 35 -12.5 52 t-12.5 43.5t-14.5 37.5t-19 29.5t-25.5 25.5t-33 18t-43.5 14.5t-55.5 8.5t-70 6t-86 1h-161q-34 0 -50 -31.5t-16 -78.5q0 -23 8 -61l133 -440q1 -3 7 -26t10 -46.5t4 -50.5q0 -126 -117 -126h-153q-40 0 -51 8.5t-11 35.5q0 5 0.5 18t0.5 21q0 18 4 29.5t8 18t20.5 12 t25 7.5t39.5 8q47 7 63.5 16.5t16.5 35.5q0 20 -11 67q0 2 -2 8l-88 360q-7 29 -7 57q0 43 17 86t17 51q0 11 -9 21l-8 2q-8 2 -19.5 5.5t-23.5 8.5t-21 12t-11 14z" />
<glyph unicode="&#x5f0;" horiz-adv-x="970" d="M-87 1149q-5 21 3.5 32.5t20 10.5t18.5 -4q11 -8 21 -37q26 -64 55 -85q116 -22 184 -54.5t95.5 -68.5t40.5 -91q8 -33 12 -51l39 -173q16 -67 78 -243t62 -231q0 -58 -43 -140q-7 -14 -11 -16.5t-19 -7.5l-28 -9q-15 -4 -20 0.5t-8 20.5l-176 758q-8 34 -37 57.5 t-67 34.5l-87 25q-3 1 -16.5 4.5t-22 6t-19.5 7t-17 11t-8 13.5zM318 1163q-5 21 3.5 32.5t20 10.5t18.5 -4q11 -8 21 -37q26 -64 55 -85q116 -22 184 -54.5t95.5 -68.5t40.5 -91q8 -33 12 -51l39 -173q16 -67 78 -243t62 -231q0 -58 -43 -140q-7 -14 -11 -16.5t-19 -7.5 l-28 -9q-15 -4 -20 0.5t-8 20.5l-176 758q-8 34 -37 57.5t-67 34.5l-87 25q-3 1 -16.5 4.5t-22 6t-19.5 7t-17 11t-8 13.5z" />
<glyph unicode="&#x5f1;" horiz-adv-x="1004" d="M-86 1137q-4 21 4 32.5t18.5 10.5t17.5 -4q13 -9 22 -37q18 -45 103 -68l145 -35q105 -28 142.5 -96t37.5 -180q0 -74 -11 -149t-29 -115q-43 -92 -94 -92q-34 0 -44 26q-2 6 -2 13q0 15 18 102t18 143q0 74 -35 112.5t-109 53.5l-76 14q-76 13 -83 42zM357 1151 q-5 21 3.5 32.5t20 10.5t18.5 -4q11 -8 21 -37q26 -64 55 -85q116 -22 184 -54.5t95.5 -68.5t40.5 -91q8 -33 12 -51l39 -173q16 -67 78 -243t62 -231q0 -58 -43 -140q-7 -14 -11 -16.5t-19 -7.5l-28 -9q-15 -4 -20 0.5t-8 20.5l-176 758q-8 34 -37 57.5t-67 34.5l-87 25 q-3 1 -16.5 4.5t-22 6t-19.5 7t-17 11t-8 13.5z" />
<glyph unicode="&#x5f2;" horiz-adv-x="1140" d="M-45 1133q-4 21 4 32.5t18.5 10.5t17.5 -4q13 -9 22 -37q18 -45 103 -68l145 -35q105 -28 142.5 -96t37.5 -180q0 -74 -11 -149t-29 -115q-43 -92 -94 -92q-34 0 -44 26q-2 6 -2 13q0 15 18 102t18 143q0 74 -35 112.5t-109 53.5l-76 14q-76 13 -83 42zM452 1136 q-4 21 4 32.5t18.5 10.5t17.5 -4q13 -9 22 -37q18 -45 103 -68l145 -35q105 -28 142.5 -96t37.5 -180q0 -74 -11 -149t-29 -115q-43 -92 -94 -92q-34 0 -44 26q-2 6 -2 13q0 15 18 102t18 143q0 74 -35 112.5t-109 53.5l-76 14q-76 13 -83 42z" />
<glyph unicode="&#x5f3;" horiz-adv-x="362" d="M-165 1230h177l-41 -445h-67z" />
<glyph unicode="&#x5f4;" horiz-adv-x="695" d="M-196 1230h177l-41 -445h-67zM89 1230h177l-41 -445h-67z" />
<glyph unicode="&#x2000;" horiz-adv-x="819" />
<glyph unicode="&#x2001;" horiz-adv-x="1639" />
<glyph unicode="&#x2002;" horiz-adv-x="819" />
<glyph unicode="&#x2003;" horiz-adv-x="1639" />
<glyph unicode="&#x2004;" horiz-adv-x="546" />
<glyph unicode="&#x2005;" horiz-adv-x="409" />
<glyph unicode="&#x2006;" horiz-adv-x="273" />
<glyph unicode="&#x2007;" horiz-adv-x="273" />
<glyph unicode="&#x2008;" horiz-adv-x="204" />
<glyph unicode="&#x2009;" horiz-adv-x="327" />
<glyph unicode="&#x200a;" horiz-adv-x="91" />
<glyph unicode="&#x2010;" horiz-adv-x="717" d="M60 646h558l39 -168h-558z" />
<glyph unicode="&#x2011;" horiz-adv-x="717" d="M60 646h558l39 -168h-558z" />
<glyph unicode="&#x2012;" horiz-adv-x="717" d="M60 646h558l39 -168h-558z" />
<glyph unicode="&#x2013;" horiz-adv-x="1144" d="M60 646h957l67 -168h-957z" />
<glyph unicode="&#x2014;" horiz-adv-x="2168" d="M60 646h1914l134 -168h-1914z" />
<glyph unicode="&#x2018;" horiz-adv-x="407" d="M-160 1230h177l-41 -445h-67z" />
<glyph unicode="&#x2019;" horiz-adv-x="702" d="M-160 1230h177l-41 -445h-67zM125 1230h177l-41 -445h-67z" />
<glyph unicode="&#x201a;" horiz-adv-x="391" d="M-160 284h177l-41 -445h-67z" />
<glyph unicode="&#x201c;" horiz-adv-x="676" d="M-160 1230h177l-41 -445h-67zM125 1230h177l-41 -445h-67z" />
<glyph unicode="&#x201d;" horiz-adv-x="676" d="M-160 1230h177l-41 -445h-67zM125 1230h177l-41 -445h-67z" />
<glyph unicode="&#x201e;" horiz-adv-x="676" d="M-160 284h177l-41 -445h-67zM125 284h177l-41 -445h-67z" />
<glyph unicode="&#x202f;" horiz-adv-x="327" />
<glyph unicode="&#x205f;" horiz-adv-x="409" />
<glyph unicode="&#x20ac;" horiz-adv-x="929" d="M-60 649h86q-6 49 -6 90q0 75 18 132.5t46 91t68 54.5t78.5 28.5t83.5 7.5q115 0 260 -39l47 -193h-52l-38 102q-88 68 -187 68q-34 0 -61 -8t-53.5 -29t-41 -67t-14.5 -113q0 -56 10 -125h268l14 -61h-271q1 -6 3.5 -17.5t3.5 -17.5l15 -64q4 -18 7 -27h271l15 -63h-268 q32 -101 72.5 -171.5t83.5 -105.5t80.5 -49t76.5 -14q111 0 160 77v125h64l45 -210q-124 -51 -267 -51q-166 0 -287 107.5t-186 291.5h-84l-17 63h80l-6 27q-10 42 -14 63q-1 4 -3 11.5t-3.5 13.5t-2.5 11h-80z" />
<glyph unicode="&#xe000;" horiz-adv-x="940" d="M0 0v940h940v-940h-940z" />
<glyph unicode="&#xfb1d;" horiz-adv-x="647" d="M0 1133q-4 21 4 32.5t18.5 10.5t17.5 -4q13 -9 22 -37q18 -45 103 -68l145 -35q105 -28 142.5 -96t37.5 -180q0 -74 -11 -149t-29 -115q-43 -92 -94 -92q-34 0 -44 26q-2 6 -2 13q0 15 18 102t18 143q0 74 -35 112.5t-109 53.5l-76 14q-76 13 -83 42zM362 216l41 52 q19 25 50 1l65 -53q29 -24 11 -48l-41 -54q-20 -23 -48 0l-65 53q-29 25 -13 49z" />
<glyph unicode="&#xfb1e;" />
<glyph unicode="&#xfb1f;" horiz-adv-x="1151" d="M-26 1133q-4 21 4 32.5t18.5 10.5t17.5 -4q13 -9 22 -37q18 -45 103 -68l145 -35q105 -28 142.5 -96t37.5 -180q0 -74 -11 -149t-29 -115q-43 -92 -94 -92q-34 0 -44 26q-2 6 -2 13q0 15 18 102t18 143q0 74 -35 112.5t-109 53.5l-76 14q-76 13 -83 42zM304 208l6 81 q3 15 26 15h629q15 0 23.5 -4.5t6.5 -10.5l-6 -81q-3 -13 -32 -13h-629q-14 0 -20 3t-4 10zM479 1125q-4 21 4 32.5t18.5 10.5t17.5 -4q13 -9 22 -37q18 -45 103 -68l145 -35q55 -15 91.5 -40.5t55.5 -63t26 -78t7 -94.5q0 -74 -11 -149t-29 -115q-43 -92 -94 -92 q-16 0 -26.5 5.5t-12.5 9.5t-5 11q-2 6 -2 13q0 15 18 102t18 143q0 74 -35 112.5t-109 53.5l-76 14q-76 13 -83 42z" />
<glyph unicode="&#xfb20;" horiz-adv-x="1152" d="M32 1132q-5 21 3.5 32.5t20 10.5t18.5 -4q14 -10 23 -37q13 -32 36.5 -58.5t42.5 -26.5h134q19 0 26 -7t12 -29l32 -130q6 -18 -12 -23l-57 -16q45 -194 168 -343t228 -174q111 95 111 333q0 29 -1.5 77.5t-1.5 66.5q0 23 -8 30q-8 6 -24 9l-28 5q-1 0 -10 2t-11 3 t-8.5 3.5t-9 5.5t-6 8t-4.5 12l-36 134q-5 19 3.5 26t30.5 7h198q19 0 26 -7t12 -29l32 -130q-1 -5 0.5 -6.5t-2 -5t-4.5 -4t-5.5 -3.5t-6.5 -4l-33 -20q0 -55 2 -148t2 -131q0 -72 -4.5 -123t-19 -106t-40.5 -94.5t-69 -80t-105.5 -72t-149 -61.5t-199.5 -56 q-69 -16 -92 -16t-27 18q-1 2 -1 8q0 4 2 22.5t2 33.5v71q0 16 4 27t9.5 17t20 10.5t24.5 6.5t35 5.5t41 6.5l236 38q-126 75 -238 255.5t-156 368.5l-48 16q-55 19 -65 38q-2 4 -3 8z" />
<glyph unicode="&#xfb21;" horiz-adv-x="1987" d="M174 1044v8q0 15 9 25.5t22 10.5q6 0 26 -12q94 -122 233 -238t277.5 -199.5t274.5 -149t236.5 -98.5t150.5 -36h14q33 0 51 8t35 29q33 47 70.5 131.5t47.5 157.5q4 25 4 50q0 39 -10.5 64.5t-20.5 37t-10 15.5l-39 156q-5 19 3.5 26t31.5 7h193q21 0 29 -6t8 -26 l30 -121q2 -8 2.5 -13.5t-2 -9t-5 -5.5t-8.5 -3t-10 -1h-13q-42 0 -68.5 -25.5t-26.5 -56.5q0 -3 2 -30t4 -65.5t2 -71.5q0 -66 -30.5 -159.5t-57.5 -128.5q0 -1 -2 -2.5t-2 -2.5q0 -19 76 -49q137 -54 223 -54q13 0 27 1t17 1q9 0 12.5 -6t8.5 -29l29 -144v-2 q0 -12 -16.5 -28.5t-32.5 -16.5h-9q-102 38 -269.5 92t-303.5 100.5t-296.5 108.5t-320.5 146t-305 184q-6 5 -15 13t-13 10.5t-8 2.5q-11 0 -19 -26t-8 -63q0 -9 1 -14.5t3.5 -12.5t4.5 -15q21 -91 44 -157t38.5 -93t30.5 -52.5t20 -42.5l34 -130q4 -16 -6.5 -25t-31.5 -9 h-319q-3 0 -5.5 0.5t-4.5 2.5l-3 3t-2 4l-1.5 4.5t-1.5 5t-1 4.5l-20 76q-1 3 -1 7q0 10 6 18.5t17.5 14.5t20 10t21.5 8l12 4l116 36q-104 184 -104 321q0 40 8.5 74.5t18 53t18 35.5t8.5 26q0 3 -0.5 5.5t-1.5 5t-2 4.5t-3.5 4.5t-3.5 4t-4.5 4.5t-5 4t-5.5 5t-6 5l-57 47 q-5 5 -14 21t-12 27z" />
<glyph unicode="&#xfb22;" horiz-adv-x="1676" d="M-72 1132q-5 21 3.5 32.5t20 10.5t18.5 -4q11 -8 21 -37q34 -85 55 -85l1404 1q19 0 25.5 -7.5t12.5 -29.5l30 -119q5 -22 -5 -27.5t-36 -5.5q-57 0 -57 -86q0 -49 22 -144q18 -78 71.5 -214.5t71.5 -215.5q5 -20 5 -46q0 -58 -43 -140q-7 -14 -11 -17t-19 -7l-28 -9 q-15 -4 -20 -0.5t-8 18.5l-178 786q-10 39 -32.5 57t-73.5 18h-1116q-23 0 -51 11.5t-32 29.5z" />
<glyph unicode="&#xfb23;" horiz-adv-x="2053" d="M65 1134q-5 21 3.5 32.5t20 10.5t18.5 -4q11 -8 21 -37q34 -85 55 -85l1642 -2q19 0 25.5 -7.5t12.5 -29.5l30 -119q4 -14 -0.5 -22.5t-10.5 -9.5l-6 -1q-21 0 -29 -29t-8 -57q0 -71 26.5 -168t58.5 -175.5t58.5 -157.5t26.5 -119q0 -58 -43 -140q-7 -14 -11 -17t-19 -7 l-28 -8q-15 -4 -20 -0.5t-8 18.5l-178 785q-10 39 -32.5 57t-73.5 18h-1398q-22 0 -50.5 13t-32.5 31zM194 580q0 23 13 38t46 30q35 16 46 -30l22 -98q6 -27 31 -99.5t43 -143.5t18 -127q0 -101 -72 -150q-27 -18 -45 -18q-37 0 -37 60q0 164 -16.5 279t-32.5 173.5 t-16 85.5z" />
<glyph unicode="&#xfb24;" horiz-adv-x="1818" d="M51 1132q-5 21 3.5 32.5t20.5 10.5t19 -4q10 -7 20 -37q12 -31 37 -58t44 -27h1180q48 0 91 -20.5t77 -52.5t67 -85.5t56.5 -104t51 -125t46.5 -132t46 -140.5t46 -136q5 -23 5 -44q0 -77 -45.5 -143t-102.5 -66h-1437h-9.5h-10t-8.5 1t-8.5 3t-6.5 5t-6 8.5t-4 13.5 l-36 134q-5 19 3.5 26t30.5 7h1392q57 0 80.5 14.5t23.5 49.5q0 17 -9 58l-20 87q-12 50 -22.5 88t-29.5 88t-41 86t-55.5 74.5t-73.5 62t-95.5 39t-120.5 15.5h-1066q-22 0 -50.5 12t-32.5 30z" />
<glyph unicode="&#xfb25;" horiz-adv-x="1860" d="M-58 1586v6q0 32 6.5 39.5t39.5 7.5h109q19 0 26.5 -7t12.5 -29l32 -130q2 -7 2 -12t-0.5 -8t-4.5 -5.5t-6 -3.5t-9 -1.5t-9.5 -0.5h-12.5h-28q-46 0 -55 -21q-11 -29 -11 -70q0 -47 16 -116q14 -61 52 -135q30 -51 78 -51l1334 4q159 -26 197 -186q9 -41 9 -87 q0 -128 -58.5 -279.5t-166.5 -287.5t-236 -205q-9 -5 -15 -7.5t-10.5 -1.5t-7 2t-5 7t-3.5 9t-3 12.5t-3 14.5l-25 142v2q0 7 9 16.5t26 20t31 18.5t35 19t26 14q139 84 201.5 197t62.5 223q0 28 -6 54q-12 53 -48 83.5t-91 30.5l-1336 -4q-54 0 -72 18t-28 62 q-26 112 -38.5 227t-14.5 191.5t-2 227.5z" />
<glyph unicode="&#xfb26;" horiz-adv-x="2009" d="M30 1132q-5 21 3.5 32.5t20 10.5t18.5 -4q14 -10 23 -37q13 -32 36.5 -58.5t42.5 -26.5l1371 -2q50 0 91 -9.5t70 -22.5t53.5 -39t39 -46t29.5 -59t22 -61.5t20 -67.5l152 -541q3 -17 10 -40.5t11 -40.5t4 -26q0 -28 -31 -61t-84 -33h-1536q-36 0 -47 11t-17 38l-26 99 q-27 100 -47 185.5t-39.5 210t-19.5 215.5v79l-38 12q-76 25 -82 52zM284 830q0 -2 13 -71.5t29.5 -151t22.5 -107.5q47 -205 68.5 -253.5t69.5 -48.5l1328 -2q43 0 59 9t16 32q0 18 -8 52l-5 23q-24 105 -111 336q-22 58 -44 95t-49 61t-68.5 36t-88.5 16t-124 4h-1068 q-40 0 -40 -30z" />
<glyph unicode="&#xfb27;" horiz-adv-x="1762" d="M-77 1132q-5 21 3.5 32.5t20 10.5t18.5 -4q11 -8 21 -37q12 -31 37 -58t44 -27l1240 -2q49 0 89.5 -9.5t69 -24.5t52 -41t38.5 -49.5t29.5 -59.5t22.5 -63.5t20.5 -68t21.5 -66.5l106 -345q2 -10 14.5 -54.5t12.5 -45.5q6 -28 6 -48q0 -24 -14.5 -94.5t-25.5 -87.5 q-10 -11 -25 -19q-10 -5 -16 -5q-7 0 -11 9.5t-10 36.5q-10 42 -77 304t-77 306q-8 36 -12.5 53t-13 44t-15 38.5t-18.5 29.5t-25 25t-33 18t-43.5 14.5t-55.5 8t-70 6t-86 1.5h-1105q-22 0 -50.5 12t-32.5 30z" />
<glyph unicode="&#xfb28;" horiz-adv-x="1979" d="M143 1132q-5 21 3.5 32.5t20 10.5t18.5 -4q11 -8 21 -37q12 -31 37 -58t44 -27l1236 1q47 0 85.5 -10t66 -24.5t51.5 -40.5t39 -49.5t30.5 -60t24 -63t21.5 -68.5t22 -66l145 -486q7 -14 7 -44q0 -52 -26 -112t-49 -60q-26 0 -50 105q-9 39 -70 268t-74 286t-20.5 82.5 t-24.5 59.5t-38.5 46t-61 26t-93 17.5t-134.5 3.5h-957q-34 0 -50 -31.5t-16 -78.5q0 -23 8 -61l133 -440q1 -3 7 -26t10 -46.5t4 -50.5q0 -126 -117 -126h-153q-40 0 -51 8.5t-11 35.5q0 5 0.5 18t0.5 21q0 18 4 29.5t8 18t20.5 12t25 7.5t39.5 8q47 7 63.5 16.5t16.5 35.5 q0 20 -11 67q0 2 -2 8l-88 360q-7 29 -7 57q0 43 17 86t17 51q0 11 -9 21l-8 2q-8 2 -19.5 5.5t-23.5 8.5t-21 12t-11 14z" />
<glyph unicode="&#xfb29;" horiz-adv-x="952" d="M-50 622h296l-67 291h183l67 -291h287l42 -179h-766z" />
<glyph unicode="&#xfb2a;" horiz-adv-x="1362" d="M-12 1132q-5 21 3.5 32.5t20 10.5t18.5 -4q11 -8 21 -37q12 -31 37 -58t44 -27h170q19 0 26 -7t12 -29l26 -119q5 -21 -4.5 -27.5t-31.5 -6.5q-17 0 -28.5 -18t-11.5 -42q0 -15 4 -26q17 -47 39.5 -118.5t36.5 -113t37 -94.5t53.5 -98.5t72.5 -89.5q23 -25 46.5 -43.5 t30.5 -18.5v564q0 44 -15 71t-36 27h-8h-8.5t-7.5 0.5t-7.5 1.5t-6.5 3.5t-6 5.5t-4.5 8t-4.5 12l-30 125q-5 19 3.5 26t30.5 7h254q10 0 15.5 -1.5t9 -8t4.5 -10t5 -18.5l28 -119q4 -14 -3 -21t-22 -9l-15 -2q-70 -29 -70 -102v-540q4 -21 34 -21q18 0 37 3q62 8 111 35 t80 69.5t52.5 91.5t32 112t14.5 118.5t4 123.5q0 58 -20 84t-50 26h-7.5h-8.5t-7.5 0.5t-7.5 1.5t-7 3.5t-6 5.5t-4.5 8t-4.5 12l-32 125q-5 19 3.5 26t30.5 7h230q19 0 25.5 -7t12.5 -29l34 -121q1 -3 0 -6.5t-4 -6.5t-6.5 -5t-8.5 -4.5t-8.5 -4t-7.5 -3.5t-5 -2 q-41 -18 -41 -142q0 -33 1 -97.5t1 -95.5q0 -72 -4 -124t-17 -112.5t-36 -102.5t-64 -83.5t-98.5 -66t-141.5 -40t-190 -15.5h-33q-30 0 -49 3t-44 20t-41 50q-98 196 -246 622q-11 32 -17 48q-25 70 -46.5 100.5t-47.5 35.5q-63 14 -70 42zM1004 1248l41 52q20 25 50 1 l65 -53q29 -23 12 -48l-42 -54q-19 -23 -48 0l-65 53q-29 25 -13 49z" />
<glyph unicode="&#xfb2b;" horiz-adv-x="1362" d="M-12 1132q-5 21 3.5 32.5t20 10.5t18.5 -4q11 -8 21 -37q12 -31 37 -58t44 -27h170q19 0 26 -7t12 -29l26 -119q5 -21 -4.5 -27.5t-31.5 -6.5q-17 0 -28.5 -18t-11.5 -42q0 -15 4 -26q17 -47 39.5 -118.5t36.5 -113t37 -94.5t53.5 -98.5t72.5 -89.5q23 -25 46.5 -43.5 t30.5 -18.5v564q0 44 -15 71t-36 27h-8h-8.5t-7.5 0.5t-7.5 1.5t-6.5 3.5t-6 5.5t-4.5 8t-4.5 12l-30 125q-5 19 3.5 26t30.5 7h254q10 0 15.5 -1.5t9 -8t4.5 -10t5 -18.5l28 -119q4 -14 -3 -21t-22 -9l-15 -2q-70 -29 -70 -102v-540q4 -21 34 -21q18 0 37 3q62 8 111 35 t80 69.5t52.5 91.5t32 112t14.5 118.5t4 123.5q0 58 -20 84t-50 26h-7.5h-8.5t-7.5 0.5t-7.5 1.5t-7 3.5t-6 5.5t-4.5 8t-4.5 12l-32 125q-5 19 3.5 26t30.5 7h230q19 0 25.5 -7t12.5 -29l34 -121q1 -3 0 -6.5t-4 -6.5t-6.5 -5t-8.5 -4.5t-8.5 -4t-7.5 -3.5t-5 -2 q-41 -18 -41 -142q0 -33 1 -97.5t1 -95.5q0 -72 -4 -124t-17 -112.5t-36 -102.5t-64 -83.5t-98.5 -66t-141.5 -40t-190 -15.5h-33q-30 0 -49 3t-44 20t-41 50q-98 196 -246 622q-11 32 -17 48q-25 70 -46.5 100.5t-47.5 35.5q-63 14 -70 42zM116 1261l41 52q20 25 50 1 l65 -53q29 -23 12 -48l-42 -54q-19 -23 -48 0l-65 53q-29 25 -13 49z" />
<glyph unicode="&#xfb2c;" horiz-adv-x="1362" d="M-12 1132q-5 21 3.5 32.5t20 10.5t18.5 -4q11 -8 21 -37q12 -31 37 -58t44 -27h170q19 0 26 -7t12 -29l26 -119q5 -21 -4.5 -27.5t-31.5 -6.5q-17 0 -28.5 -18t-11.5 -42q0 -15 4 -26q17 -47 39.5 -118.5t36.5 -113t37 -94.5t53.5 -98.5t72.5 -89.5q23 -25 46.5 -43.5 t30.5 -18.5v564q0 44 -15 71t-36 27h-8h-8.5t-7.5 0.5t-7.5 1.5t-6.5 3.5t-6 5.5t-4.5 8t-4.5 12l-30 125q-5 19 3.5 26t30.5 7h254q10 0 15.5 -1.5t9 -8t4.5 -10t5 -18.5l28 -119q4 -14 -3 -21t-22 -9l-15 -2q-70 -29 -70 -102v-540q4 -21 34 -21q18 0 37 3q62 8 111 35 t80 69.5t52.5 91.5t32 112t14.5 118.5t4 123.5q0 58 -20 84t-50 26h-7.5h-8.5t-7.5 0.5t-7.5 1.5t-7 3.5t-6 5.5t-4.5 8t-4.5 12l-32 125q-5 19 3.5 26t30.5 7h230q19 0 25.5 -7t12.5 -29l34 -121q1 -3 0 -6.5t-4 -6.5t-6.5 -5t-8.5 -4.5t-8.5 -4t-7.5 -3.5t-5 -2 q-41 -18 -41 -142q0 -33 1 -97.5t1 -95.5q0 -72 -4 -124t-17 -112.5t-36 -102.5t-64 -83.5t-98.5 -66t-141.5 -40t-190 -15.5h-33q-30 0 -49 3t-44 20t-41 50q-98 196 -246 622q-11 32 -17 48q-25 70 -46.5 100.5t-47.5 35.5q-63 14 -70 42zM821 545l36 47q16 22 44 0 l58 -47q28 -22 10 -44l-36 -47q-17 -20 -44 1l-58 48q-28 21 -10 42zM1004 1248l41 52q20 25 50 1l65 -53q29 -23 12 -48l-42 -54q-19 -23 -48 0l-65 53q-29 25 -13 49z" />
<glyph unicode="&#xfb2d;" horiz-adv-x="1362" d="M-12 1132q-5 21 3.5 32.5t20 10.5t18.5 -4q11 -8 21 -37q12 -31 37 -58t44 -27h170q19 0 26 -7t12 -29l26 -119q5 -21 -4.5 -27.5t-31.5 -6.5q-17 0 -28.5 -18t-11.5 -42q0 -15 4 -26q17 -47 39.5 -118.5t36.5 -113t37 -94.5t53.5 -98.5t72.5 -89.5q23 -25 46.5 -43.5 t30.5 -18.5v564q0 44 -15 71t-36 27h-8h-8.5t-7.5 0.5t-7.5 1.5t-6.5 3.5t-6 5.5t-4.5 8t-4.5 12l-30 125q-5 19 3.5 26t30.5 7h254q10 0 15.5 -1.5t9 -8t4.5 -10t5 -18.5l28 -119q4 -14 -3 -21t-22 -9l-15 -2q-70 -29 -70 -102v-540q4 -21 34 -21q18 0 37 3q62 8 111 35 t80 69.5t52.5 91.5t32 112t14.5 118.5t4 123.5q0 58 -20 84t-50 26h-7.5h-8.5t-7.5 0.5t-7.5 1.5t-7 3.5t-6 5.5t-4.5 8t-4.5 12l-32 125q-5 19 3.5 26t30.5 7h230q19 0 25.5 -7t12.5 -29l34 -121q1 -3 0 -6.5t-4 -6.5t-6.5 -5t-8.5 -4.5t-8.5 -4t-7.5 -3.5t-5 -2 q-41 -18 -41 -142q0 -33 1 -97.5t1 -95.5q0 -72 -4 -124t-17 -112.5t-36 -102.5t-64 -83.5t-98.5 -66t-141.5 -40t-190 -15.5h-33q-30 0 -49 3t-44 20t-41 50q-98 196 -246 622q-11 32 -17 48q-25 70 -46.5 100.5t-47.5 35.5q-63 14 -70 42zM116 1261l41 52q20 25 50 1 l65 -53q29 -23 12 -48l-42 -54q-19 -23 -48 0l-65 53q-29 25 -13 49zM821 545l36 47q16 22 44 0l58 -47q28 -22 10 -44l-36 -47q-17 -20 -44 1l-58 48q-28 21 -10 42z" />
<glyph unicode="&#xfb2e;" horiz-adv-x="1234" d="M173 1036q0 15 9.5 25.5t23.5 10.5t26 -12l494 -470q19 -18 43 -31t33 -13q18 0 34 42t16 107q0 34 -6 73q-4 28 -11.5 46t-14.5 23.5t-12 11t-5 11.5l-39 156q-5 19 3.5 26t31.5 7h193q21 0 29 -6t8 -26l30 -121q2 -8 2.5 -13.5t-2 -9t-5 -5.5t-8.5 -3t-10 -1h-13 q-42 0 -68.5 -25.5t-26.5 -56.5q0 -3 4 -19.5t8 -45t4 -61.5q0 -55 -13 -123.5t-13 -76.5q0 -23 38 -55q79 -68 138 -106t78.5 -44t29.5 -16t16 -40l40 -165q3 -13 -19 -27.5t-37 -2.5q-22 17 -62 48q-168 130 -246 192.5t-188.5 160t-237.5 221.5q-26 26 -36 26 q-11 0 -19 -26t-8 -63q0 -35 7 -66q21 -91 45.5 -154.5t42.5 -88t34.5 -47t21.5 -39.5l34 -130q4 -16 -6.5 -25t-31.5 -9h-319q-3 0 -5.5 0.5t-4.5 2.5l-3 3t-2 4l-1.5 4.5t-1.5 5t-1 4.5l-20 76q-1 3 -1 7q0 10 6 18.5t17.5 14.5t20 10t20.5 8l13 4l116 36 q-113 200 -113 329q0 40 8.5 74.5t18 53t18 35.5t8.5 26q0 3 -0.5 5.5t-1.5 5t-2 4.5t-3.5 4.5t-3.5 4t-4.5 4.5t-5 4t-5.5 5t-6 5l-57 47q-5 5 -14 21t-12 27l-37 175q-1 3 -1 8zM683 -266l3 81q2 15 13 15h310q17 0 15 -15l-3 -81q-1 -13 -16 -13h-310q-13 0 -12 13z" />
<glyph unicode="&#xfb2f;" horiz-adv-x="1234" d="M173 1036q0 15 9.5 25.5t23.5 10.5t26 -12l494 -470q19 -18 43 -31t33 -13q18 0 34 42t16 107q0 34 -6 73q-4 28 -11.5 46t-14.5 23.5t-12 11t-5 11.5l-39 156q-5 19 3.5 26t31.5 7h193q21 0 29 -6t8 -26l30 -121q2 -8 2.5 -13.5t-2 -9t-5 -5.5t-8.5 -3t-10 -1h-13 q-42 0 -68.5 -25.5t-26.5 -56.5q0 -3 4 -19.5t8 -45t4 -61.5q0 -55 -13 -123.5t-13 -76.5q0 -23 38 -55q79 -68 138 -106t78.5 -44t29.5 -16t16 -40l40 -165q3 -13 -19 -27.5t-37 -2.5q-22 17 -62 48q-168 130 -246 192.5t-188.5 160t-237.5 221.5q-26 26 -36 26 q-11 0 -19 -26t-8 -63q0 -35 7 -66q21 -91 45.5 -154.5t42.5 -88t34.5 -47t21.5 -39.5l34 -130q4 -16 -6.5 -25t-31.5 -9h-319q-3 0 -5.5 0.5t-4.5 2.5l-3 3t-2 4l-1.5 4.5t-1.5 5t-1 4.5l-20 76q-1 3 -1 7q0 10 6 18.5t17.5 14.5t20 10t20.5 8l13 4l116 36 q-113 200 -113 329q0 40 8.5 74.5t18 53t18 35.5t8.5 26q0 3 -0.5 5.5t-1.5 5t-2 4.5t-3.5 4.5t-3.5 4t-4.5 4.5t-5 4t-5.5 5t-6 5l-57 47q-5 5 -14 21t-12 27l-37 175q-1 3 -1 8zM679 -265l3 80q2 15 13 15h310q17 0 15 -15l-3 -80q-1 -13 -16 -13h-95l52 -184 q3 -10 -7 -10h-86q-9 0 -12 10l-33 184h-129q-13 0 -12 13z" />
<glyph unicode="&#xfb30;" horiz-adv-x="1234" d="M173 1036q0 15 9.5 25.5t23.5 10.5t26 -12l494 -470q19 -18 43 -31t33 -13q18 0 34 42t16 107q0 34 -6 73q-4 28 -11.5 46t-14.5 23.5t-12 11t-5 11.5l-39 156q-5 19 3.5 26t31.5 7h193q21 0 29 -6t8 -26l30 -121q2 -8 2.5 -13.5t-2 -9t-5 -5.5t-8.5 -3t-10 -1h-13 q-42 0 -68.5 -25.5t-26.5 -56.5q0 -3 4 -19.5t8 -45t4 -61.5q0 -55 -13 -123.5t-13 -76.5q0 -23 38 -55q79 -68 138 -106t78.5 -44t29.5 -16t16 -40l40 -165q3 -13 -19 -27.5t-37 -2.5q-22 17 -62 48q-168 130 -246 192.5t-188.5 160t-237.5 221.5q-26 26 -36 26 q-11 0 -19 -26t-8 -63q0 -35 7 -66q21 -91 45.5 -154.5t42.5 -88t34.5 -47t21.5 -39.5l34 -130q4 -16 -6.5 -25t-31.5 -9h-319q-3 0 -5.5 0.5t-4.5 2.5l-3 3t-2 4l-1.5 4.5t-1.5 5t-1 4.5l-20 76q-1 3 -1 7q0 10 6 18.5t17.5 14.5t20 10t20.5 8l13 4l116 36 q-113 200 -113 329q0 40 8.5 74.5t18 53t18 35.5t8.5 26q0 3 -0.5 5.5t-1.5 5t-2 4.5t-3.5 4.5t-3.5 4t-4.5 4.5t-5 4t-5.5 5t-6 5l-57 47q-5 5 -14 21t-12 27l-37 175q-1 3 -1 8zM739 104l36 47q16 22 44 0l58 -47q28 -22 10 -44l-36 -47q-17 -20 -44 1l-58 48 q-28 21 -10 42z" />
<glyph unicode="&#xfb31;" horiz-adv-x="975" d="M57 1132q-5 21 3.5 32.5t20 10.5t18.5 -4q11 -8 21 -37q26 -64 55 -85h218q57 0 101.5 -7.5t83 -33.5t65.5 -50t55.5 -83t47 -104t45 -142.5t44 -170t49.5 -211.5q2 -6 4.5 -16.5t3.5 -13.5t3.5 -8.5t6 -6.5t9 -2.5t13.5 -1.5h33q19 0 26 -7t12 -29l32 -130 q4 -15 -1.5 -22.5t-13 -8.5t-25.5 -1h-715q-44 0 -53 31l-36 134q-5 19 3.5 26t30.5 7h538q37 0 45.5 7t-0.5 38q-22 57 -47 130t-41 120.5t-38 104t-40 91.5t-44.5 71t-55 55.5t-67.5 32t-86 12.5h-191q-22 0 -50.5 12t-32.5 30zM308 546l36 47q16 22 44 0l58 -47 q28 -22 10 -44l-36 -47q-17 -20 -44 1l-58 48q-28 21 -10 42z" />
<glyph unicode="&#xfb32;" horiz-adv-x="789" d="M66 1132q-5 21 3.5 32.5t20 10.5t18.5 -4q11 -8 21 -37q26 -64 55 -85h53h49.5t40.5 -1.5t35 -3.5t27.5 -7t24.5 -11.5t18.5 -17.5t17 -24t13.5 -32t13.5 -41t12.5 -51q32 -139 70.5 -248.5t71.5 -173.5t72 -112.5t64 -69t56 -38.5q24 -13 31 -24t1 -26 q-27 -31 -42.5 -77.5t-22.5 -75t-16 -28.5q-40 0 -115 113t-131 279l-11 -27q-10 -40 -26 -107q-10 -44 -14.5 -63.5t-13 -50t-12.5 -41.5t-13.5 -30t-15.5 -24t-19 -15.5t-23.5 -11.5t-29.5 -5t-36.5 -4h-44.5h-9.5h-10t-8.5 1t-8.5 3t-6.5 5t-6 8.5t-4 13.5l-36 134 q-5 19 3.5 26t30.5 7h50q49 0 85 17t57.5 42.5t36.5 69t21.5 82.5t12.5 98q-10 30 -24 73l-21 64.5t-18.5 53.5t-19 47t-19 36.5t-22 30.5t-25.5 21t-31.5 16t-37 7.5t-46.5 3.5h-14q-22 0 -50.5 12t-32.5 30zM217 546l36 47q16 22 44 0l58 -47q28 -22 10 -44l-36 -47 q-17 -20 -44 1l-58 48q-28 21 -10 42z" />
<glyph unicode="&#xfb33;" horiz-adv-x="962" d="M-73 1132q-5 21 3.5 32.5t20 10.5t18.5 -4q11 -8 21 -37q34 -85 55 -85h616q19 0 25.5 -7.5t12.5 -29.5l30 -119q5 -22 -5 -27.5t-36 -5.5q-57 0 -57 -86q0 -49 22 -144q18 -78 71.5 -214.5t71.5 -215.5q5 -20 5 -46q0 -58 -43 -140q-7 -14 -11 -17t-19 -7l-28 -9 q-15 -4 -20 0t-8 19l-178 785q-10 39 -32.5 57t-73.5 18h-328q-22 0 -50.5 12t-32.5 30zM213 541l36 47q16 22 44 0l58 -47q28 -22 10 -44l-36 -47q-17 -20 -44 1l-58 48q-28 21 -10 42z" />
<glyph unicode="&#xfb34;" horiz-adv-x="1154" d="M65 1132q-5 21 3.5 32.5t20 10.5t18.5 -4q11 -8 21 -37q34 -85 55 -85h748q19 0 25.5 -7.5t12.5 -29.5l30 -119q4 -14 -0.5 -22.5t-10.5 -9.5l-6 -1q-21 0 -29 -29t-8 -57q0 -71 26.5 -168t58.5 -175.5t58.5 -157.5t26.5 -119q0 -58 -43 -140q-7 -14 -11 -17t-19 -7 l-28 -8q-15 -4 -20 -0.5t-8 18.5l-178 785q-10 39 -32.5 57t-73.5 18h-504q-22 0 -50.5 12t-32.5 30zM190 580q0 23 13 38t46 30q35 16 46 -30l22 -98q6 -27 31 -99.5t43 -143.5t18 -127q0 -101 -72 -150q-27 -18 -45 -18q-37 0 -37 60q0 164 -16.5 279t-32.5 173.5 t-16 85.5zM523 543l36 47q16 22 44 0l58 -47q28 -22 10 -44l-36 -47q-17 -20 -44 1l-58 48q-28 21 -10 42z" />
<glyph unicode="&#xfb35;" horiz-adv-x="558" d="M-46 1153q-5 21 3.5 32.5t20 10.5t18.5 -4q11 -8 21 -37q26 -64 55 -85q116 -22 184 -54.5t95.5 -68.5t40.5 -91q8 -33 12 -51l39 -173q16 -67 78 -243t62 -231q0 -58 -43 -140q-7 -14 -11 -16.5t-19 -7.5l-28 -9q-15 -4 -20 0.5t-8 20.5l-176 758q-8 34 -37 57.5 t-67 34.5l-87 25q-3 1 -16.5 4.5t-22 6t-19.5 7t-17 11t-8 13.5zM111 543l36 47q16 22 44 0l58 -47q28 -22 10 -44l-36 -47q-17 -20 -44 1l-58 48q-28 21 -10 42z" />
<glyph unicode="&#xfb36;" horiz-adv-x="612" d="M0 1132q-4 21 4.5 32.5t20 10.5t18.5 -4q11 -8 21 -37q22 -55 64 -85l268 -47q22 -4 33 -12t16 -28l32 -130q5 -22 -8.5 -29.5t-31.5 -2.5q-20 8 -51 8q-16 0 -26.5 -16t-10.5 -29v-17q0 -60 28 -146.5t62 -159.5t62 -154.5t28 -131.5q0 -58 -43 -140q-7 -14 -11 -16.5 t-19 -7.5l-28 -9q-15 -4 -20 0t-8 19q-8 36 -16.5 95t-14.5 85q-19 83 -60 205.5t-55 183.5q-11 49 -18.5 97.5t-10 71t-9 43.5t-19 31.5t-38.5 20.5l-27 8q-3 1 -16.5 4.5t-22 6t-19.5 7t-17 11t-8 13.5zM21 543l36 47q16 22 44 0l58 -47q28 -22 10 -44l-36 -47 q-17 -20 -44 1l-58 48q-28 21 -10 42z" />
<glyph unicode="&#xfb37;" horiz-adv-x="1227" d="M50 1132q-5 21 4 32.5t20.5 10.5t19.5 -4q9 -6 19 -37q20 -50 69 -85h812q18 0 25 -7t13 -30l25 -91q3 -15 3 -25q0 -14 -7 -22t-15 -13t-15 -27t-7 -60q0 -69 26.5 -164.5t58.5 -173.5t58.5 -158.5t26.5 -123.5q0 -58 -43 -140q-11 -21 -58 -33q-15 -4 -20 0t-8 19 l-178 785q-10 39 -32.5 57t-73.5 18h-368q-79 0 -79 -119q0 -79 59 -293t59 -260q0 -45 -16.5 -84.5t-53.5 -93.5q-8 -11 -13.5 -15t-18.5 -8l-29 -4q-16 -2 -20 1.5t-7 19.5q-19 85 -29 220.5t-23.5 287.5t-42.5 277q-7 33 -26 52t-34 19q-25 16 -31 42zM577 545l36 47 q16 22 44 0l58 -47q28 -22 10 -44l-36 -47q-17 -20 -44 1l-58 48q-28 21 -10 42z" />
<glyph unicode="&#xfb38;" horiz-adv-x="1106" d="M34 925l41 194q5 19 17.5 34.5t24.5 15.5q6 0 10 -4.5t5 -9.5q14 -59 57 -91l181 -49q3 -1 9.5 -2.5t8 -2l6 -2t5.5 -3t3.5 -4t3.5 -5.5t1.5 -7t0.5 -10v-119v-8q0 -22 -5.5 -27t-34.5 -5q-68 0 -68 -20q53 -229 118.5 -372.5t176.5 -243.5q105 0 177.5 16t162.5 58 q22 32 22 106q0 92 -33 234q-18 82 -34 122q-21 59 -66 99.5t-102 40.5q-16 0 -30 -4t-26.5 -15t-20.5 -18.5t-18 -26.5t-13.5 -26.5t-13.5 -30.5t-12 -27q-26 -18 -43 14q0 48 1.5 80.5t6.5 78t17 76t30.5 59.5t49.5 43.5t72 14.5q44 0 83.5 -17.5t68 -43.5t55 -70.5 t43.5 -83t35.5 -97.5t28 -97.5t23.5 -98.5q26 -114 26 -237q0 -205 -79 -261q-44 -22 -93.5 -33.5t-295.5 -56.5q-49 -9 -62 -9q-27 0 -48 19t-66 80q-75 104 -126.5 204.5t-83.5 237.5q-38 161 -38 314q-1 7 -21.5 23.5t-36.5 20.5l-53 11q-30 5 -39 13.5t-9 28.5zM573 546 l36 47q16 22 44 0l58 -47q28 -22 10 -44l-36 -47q-17 -20 -44 1l-58 48q-28 21 -10 42z" />
<glyph unicode="&#xfb39;" horiz-adv-x="641" d="M0 1133q-4 21 4 32.5t18.5 10.5t17.5 -4q13 -9 22 -37q18 -45 103 -68l145 -35q105 -28 142.5 -96t37.5 -180q0 -74 -11 -149t-29 -115q-43 -92 -94 -92q-34 0 -44 26q-2 6 -2 13q0 15 18 102t18 143q0 74 -35 112.5t-109 53.5l-76 14q-76 13 -83 42zM128 703l36 47 q16 22 44 0l58 -47q28 -22 10 -44l-36 -47q-17 -20 -44 1l-58 48q-28 21 -10 42z" />
<glyph unicode="&#xfb3a;" horiz-adv-x="985" d="M-70 1132q0 17 14 28t28 11t15 -9q7 -30 25.5 -65t35.5 -48h360q255 0 310 -232q7 -33 29 -173t29 -169q39 -170 117 -391t98 -308q5 -20 5 -46q0 -58 -43 -140q-9 -15 -38 -26l-28 -11q-15 -4 -20 0t-8 19l-244 1055q-26 115 -45 149q-30 53 -105 70q-65 14 -216 14 h-228q-19 0 -33.5 12t-14.5 30zM300 543l36 47q16 22 44 0l58 -47q28 -22 10 -44l-36 -47q-17 -20 -44 1l-58 48q-28 21 -10 42z" />
<glyph unicode="&#xfb3b;" horiz-adv-x="975" d="M51 1132q-5 21 3.5 32.5t20.5 10.5t19 -4q10 -7 20 -37q12 -31 37 -58t44 -27h327q48 0 91 -20.5t77 -52.5t67 -85.5t56.5 -104t51 -125t46.5 -132t46 -140.5t46 -136q5 -23 5 -44q0 -77 -45.5 -143t-102.5 -66h-584h-9.5h-10t-8.5 1t-8.5 3t-6.5 5t-6 8.5t-4 13.5 l-36 134q-5 19 3.5 26t30.5 7h539q57 0 80.5 14.5t23.5 49.5q0 17 -9 58l-20 87q-12 50 -22.5 88t-29.5 88t-41 86t-55.5 74.5t-73.5 62t-95.5 39t-120.5 15.5h-213q-22 0 -50.5 12t-32.5 30zM396 543l36 47q16 22 44 0l58 -47q28 -22 10 -44l-36 -47q-17 -20 -44 1l-58 48 q-28 21 -10 42z" />
<glyph unicode="&#xfb3c;" horiz-adv-x="980" d="M-58 1586v6q0 32 6.5 39.5t39.5 7.5h109q19 0 26.5 -7t12.5 -29l32 -130q2 -7 2 -12t-0.5 -8t-4.5 -5.5t-6 -3.5t-9 -1.5t-9.5 -0.5h-12.5h-28q-46 0 -55 -21q-11 -29 -11 -70q0 -47 16 -116q14 -61 52 -135q30 -51 78 -51h454q159 -26 197 -186q9 -41 9 -87 q0 -128 -58.5 -279.5t-166.5 -287.5t-236 -205q-9 -5 -15 -7.5t-10.5 -1.5t-7 2t-5 7t-3.5 9t-3 12.5t-3 14.5l-25 142v2q0 7 9 16.5t26 20t31 18.5t35 19t26 14q139 84 201.5 197t62.5 223q0 28 -6 54q-12 53 -48 83.5t-91 30.5h-456q-54 0 -72 18t-28 62 q-26 112 -38.5 227t-14.5 191.5t-2 227.5zM300 625l36 47q16 22 44 0l58 -47q28 -22 10 -44l-36 -47q-17 -20 -44 1l-58 48q-28 21 -10 42z" />
<glyph unicode="&#xfb3d;" horiz-adv-x="1180" d="M30 1132q-5 21 3.5 32.5t20 10.5t18.5 -4q14 -10 23 -37q13 -32 36.5 -58.5t42.5 -26.5h542q50 0 91 -9.5t70 -22.5t53.5 -39t39 -46t29.5 -59t22 -61.5t20 -67.5l152 -541q3 -17 10 -40.5t11 -40.5t4 -26q0 -28 -31 -62t-84 -34h-707q-36 0 -47 11t-17 38l-26 99 q-27 100 -47 185.5t-39.5 210t-19.5 215.5v79l-38 12q-76 25 -82 52zM284 830q0 -2 13 -71.5t29.5 -151t22.5 -107.5q47 -205 68.5 -253.5t69.5 -48.5h499q43 0 59 9t16 32q0 18 -8 52l-5 23q-24 105 -111 336q-18 48 -35 81t-41 57.5t-48.5 37.5t-64 21t-80.5 10.5 t-105 2.5h-239q-40 0 -40 -30zM565 544l36 47q16 22 44 0l58 -47q28 -22 10 -44l-36 -47q-17 -20 -44 1l-58 48q-28 21 -10 42z" />
<glyph unicode="&#xfb3e;" horiz-adv-x="1236" d="M10 1132q-4 21 4 32.5t19.5 10.5t18.5 -4q11 -8 21 -37q12 -31 37 -58t44 -27q31 -18 88.5 -34.5t92.5 -36.5t44 -60q4 -16 5 -32.5t2 -47t5 -66.5q3 -15 18.5 -19.5t23.5 6.5q99 106 142 206q6 17 7.5 33.5t2.5 23.5t3.5 14t17 9t36 3t67.5 1q58 0 95.5 -3.5t76.5 -16.5 t65.5 -36t56 -63.5t55 -98t55.5 -140.5q10 -28 37 -99.5t41.5 -113t35 -109.5t35.5 -132q9 -41 9 -77q0 -68 -33.5 -114t-111.5 -46h-383h-8h-8.5t-8 0.5t-8 1.5t-6.5 3.5t-6.5 5.5t-5 8t-3.5 12l-36 134q-5 19 3.5 26t30.5 7h356q54 0 75 8.5t21 34.5q0 5 -4 27 q-1 6 -7 22.5t-8 27.5l-90 249q-63 156 -122 218t-161 62q-40 0 -83 -7q-59 -21 -87 -51q-79 -63 -106 -149.5t-27 -223.5q0 -44 3.5 -156.5t3.5 -183.5q0 -47 -10.5 -61.5t-54.5 -14.5h-49q-21 0 -30 3.5t-13 16.5v32q0 29 14.5 184.5t14.5 255.5q0 125 -20 210 q-17 78 -69 101l-101 35q-2 1 -10.5 4.5t-13.5 6l-13 6.5t-13.5 8t-11.5 8.5t-9.5 10t-4.5 10.5zM686 544l36 47q16 22 44 0l58 -47q28 -22 10 -44l-36 -47q-17 -20 -44 1l-58 48q-28 21 -10 42z" />
<glyph unicode="&#xfb3f;" horiz-adv-x="551" d="M-32 1132v14q0 29 28 29q11 0 16 -4q11 -8 21 -37q12 -31 37 -58t44 -27h182q47 0 63 -64l19 -86q5 -25 5 -31q-8 -20 -8 -52q0 -65 32 -187q36 -156 93 -318t96.5 -289t52.5 -254q0 -41 -8 -78t-19.5 -61.5t-24 -42.5t-22.5 -26.5t-15 -8.5q-12 0 -26 62 q-48 210 -139.5 565t-147.5 612q-5 22 -11.5 34.5t-29.5 24t-62 11.5h-41q-22 0 -50.5 12t-32.5 30zM51 542l36 47q16 22 44 0l58 -47q28 -22 10 -44l-36 -47q-17 -20 -44 1l-58 48q-28 21 -10 42z" />
<glyph unicode="&#xfb40;" horiz-adv-x="710" d="M80 1132q-5 21 3.5 32.5t20 10.5t18.5 -4q11 -8 21 -37q12 -31 37 -58t44 -27h172q52 0 79 -46t49 -143l18 -77q20 -87 48 -191t53 -191t47.5 -161.5t36 -118.5t13.5 -45q4 -13 4 -27q0 -27 -26.5 -38t-92.5 -11h-361h-9.5h-9.5t-8 1t-9 3t-7 5t-6 9t-4 13l-36 134 q-5 19 3.5 26t30.5 7h326q26 0 33 13.5t0 35.5q-26 114 -62.5 243t-86 249.5t-81.5 120.5h-125q-22 0 -50.5 12t-32.5 30zM211 545l36 47q16 22 44 0l58 -47q28 -22 10 -44l-36 -47q-17 -20 -44 1l-58 48q-28 21 -10 42z" />
<glyph unicode="&#xfb41;" horiz-adv-x="1081" d="M23 1132q-5 21 3.5 32.5t20 10.5t18.5 -4q11 -8 21 -37q12 -31 37 -58t44 -27h542q63 0 137 -55t100 -134q59 -137 89 -288.5t30 -252.5q0 -80 -17.5 -141t-56.5 -110.5t-109 -75.5t-168 -26q-62 0 -115.5 14t-95 33.5t-79.5 61t-64.5 75.5t-54.5 99t-45 109.5t-39.5 129 t-34.5 135.5t-35 149q-6 35 -18.5 58.5t-24.5 32t-22.5 18.5t-12.5 21zM253 800q0 -14 6 -40q25 -107 52.5 -192.5t54.5 -143.5t58.5 -100.5t59.5 -66t62.5 -37.5t62.5 -18t64 -4q42 0 84.5 8.5t86.5 28t71.5 58t27.5 91.5q0 19 -2.5 35t-8.5 42t-8 39q-17 75 -31 122.5 t-34.5 92t-44 69t-59 43.5t-81 26t-108.5 7q-91 0 -152.5 -3.5t-93 -8t-47 -14t-18 -15.5t-2.5 -19zM548 544l36 47q16 22 44 0l58 -47q28 -22 10 -44l-36 -47q-17 -20 -44 1l-58 48q-28 21 -10 42z" />
<glyph unicode="&#xfb42;" horiz-adv-x="1152" d="M32 1132q-5 21 3.5 32.5t20 10.5t18.5 -4q14 -10 23 -37q13 -32 36.5 -58.5t42.5 -26.5h134q19 0 26 -7t12 -29l32 -130q6 -18 -12 -23l-57 -16q45 -194 168 -343t228 -174q111 95 111 333q0 29 -1.5 77.5t-1.5 66.5q0 23 -8 30q-8 6 -24 9l-28 5q-1 0 -10 2t-11 3 t-8.5 3.5t-9 5.5t-6 8t-4.5 12l-36 134q-5 19 3.5 26t30.5 7h198q19 0 26 -7t12 -29l32 -130q-1 -5 0.5 -6.5t-2 -5t-4.5 -4t-5.5 -3.5t-6.5 -4l-33 -20q0 -55 2 -148t2 -131q0 -72 -4.5 -123t-19 -106t-40.5 -94.5t-69 -80t-105.5 -72t-149 -61.5t-199.5 -56 q-69 -16 -92 -16t-27 18q-1 2 -1 8q0 4 2 22.5t2 33.5v71q0 16 4 27t9.5 17t20 10.5t24.5 6.5t35 5.5t41 6.5l236 38q-126 75 -238 255.5t-156 368.5l-48 16q-55 19 -65 38q-2 4 -3 8zM535 643l36 47q16 22 44 0l58 -47q28 -22 10 -44l-36 -47q-17 -20 -44 1l-58 48 q-28 21 -10 42z" />
<glyph unicode="&#xfb43;" horiz-adv-x="924" d="M93 860q0 25 2 65.5t2 70.5v136q0 15 8.5 28.5t22.5 13.5q8 0 14.5 -19.5t11.5 -43t21 -43t40 -19.5h189q84 0 150 -17.5t105.5 -46.5t61.5 -60.5t29 -64.5q29 -59 68 -242q33 -142 93 -330t97.5 -319t37.5 -208q0 -44 -8 -82.5t-20 -62.5t-24.5 -41.5t-21.5 -24.5 t-12 -7q-14 0 -28 63q-52 225 -125 502.5t-137 554.5q-11 50 -25 80t-40 55t-69.5 37t-107.5 18.5t-161 6.5q-54 0 -54 -41q0 -18 3.5 -30t12.5 -39t18 -66q10 -43 27 -56t44 -13q4 0 12.5 0.5t13.5 0.5q26 0 44 -14t32 -52l19 -49q11 -29 11 -45q0 -15 -10.5 -18.5 t-37.5 -3.5h-145q-33 0 -52 13.5t-43 73t-54 183.5q-15 64 -15 156zM495 547l36 47q16 22 44 0l58 -47q28 -22 10 -44l-36 -47q-17 -20 -44 1l-58 48q-28 21 -10 42z" />
<glyph unicode="&#xfb44;" horiz-adv-x="1006" d="M147 860q0 25 3 65.5t3 70.5v136q0 16 7.5 29t21.5 13q8 0 14.5 -19.5t11.5 -43t21 -43t40 -19.5h221q89 0 143.5 -12t101 -49.5t79 -101t68.5 -172.5l143 -426q1 -5 5.5 -19.5t7.5 -32.5t3 -41q0 -81 -45.5 -138t-93.5 -57h-580h-9h-9.5t-8.5 1t-8.5 3t-6.5 5t-6.5 9 t-4.5 13l-36 134q-5 19 3.5 26t30.5 7h429q116 0 161 13t45 48q0 30 -36 105q-4 18 -74 175t-87 182q-4 6 -11 17q-17 28 -27.5 41t-38 31.5t-65 27.5t-103.5 15.5t-158 6.5q-54 0 -54 -41q0 -31 40 -145q21 -57 71 -57q18 0 28 -0.5t19.5 -0.5t15 -3.5t10 -4t8 -8t5.5 -10 t7 -15.5t7 -19l17 -48q16 -40 16 -52q0 -14 -13.5 -17.5t-53.5 -3.5h-128q-33 0 -52 16.5t-40 71t-47 166.5q-5 20 -5 52q-6 65 -6 119zM552 545l36 47q16 22 44 0l58 -47q28 -22 10 -44l-36 -47q-17 -20 -44 1l-58 48q-28 21 -10 42z" />
<glyph unicode="&#xfb45;" horiz-adv-x="1148" d="M-35 1132q-5 21 3 32.5t20 10.5t19 -4q3 -2 19 -34t38.5 -61t44.5 -29h182q19 0 26 -7t12 -29l32 -130q0 -1 0.5 -2.5t0.5 -2.5l-46 -62l15 -40l130 -326q95 94 159.5 180.5t98.5 187.5q13 35 -2 35q-26 0 -32 31l-36 134q-5 19 3.5 26t30.5 7h196q21 0 31.5 -8t14.5 -29 l32 -130q0 -1 0.5 -2.5t0.5 -2.5q0 -8 -7 -14t-19 -10t-23 -6.5t-25 -5t-19 -3.5q-11 -3 -19.5 -7.5t-13.5 -8.5t-9.5 -13t-6.5 -14.5t-7 -21t-8 -23.5q-32 -82 -82 -170t-83.5 -135.5t-113.5 -158.5q22 -96 106.5 -314t84.5 -275q0 -34 -13.5 -63t-24.5 -33l-33 -11 q-24 -7 -31 -7q-11 0 -17.5 15.5t-19.5 71.5q-97 409 -327 1073q-10 29 -28.5 50t-37 31t-36 16t-28.5 6l-11 1q-23 3 -36 5.5t-29 12t-18 24.5zM434 760l36 47q16 22 44 0l58 -47q28 -22 10 -44l-36 -47q-17 -20 -44 1l-58 48q-28 21 -10 42z" />
<glyph unicode="&#xfb46;" horiz-adv-x="1102" d="M28 1138q-5 21 3 32.5t20 10.5t19 -4q11 -8 21 -37q13 -32 37.5 -59.5t43.5 -27.5h182q19 0 26 -7t12 -29l33 -135q0 -11 -24 -28t-24 -27q0 -1 2 -7q5 -8 128.5 -141.5t156.5 -166.5q44 109 44 217q0 53 -15.5 88.5t-49.5 35.5q-25 0 -32 29l-36 134q-5 19 3.5 26 t30.5 7h211q21 0 31.5 -8t14.5 -29l33 -135q0 -29 -61 -44q-17 -16 -22 -85.5t-17 -164t-44 -158.5q41 -38 121.5 -100.5t100.5 -78.5q23 -19 31.5 -27.5t14 -21.5t5.5 -34l-3 -80q-4 -34 -37 -58.5t-84 -24.5h-619q-32 0 -41 9q-9 8 -13 24l-36 134q-4 19 4 26t30 7h487 q52 0 73.5 5t21.5 18v3q-1 6 -6.5 13.5t-15.5 17t-19.5 17.5t-24.5 20.5t-25 21.5q-58 51 -83.5 73.5t-60 57.5t-58 61t-98.5 107.5t-162 173.5q-61 64 -84 64q-29 0 -56 10t-32 32zM240 476l36 47q16 22 44 0l58 -47q28 -22 10 -44l-36 -47q-17 -20 -44 1l-58 48 q-28 21 -10 42z" />
<glyph unicode="&#xfb47;" horiz-adv-x="1083" d="M42 1132q-5 21 3 32.5t19 10.5t18 -4q11 -8 21 -37q12 -31 37 -58t44 -27h520q52 0 96.5 -20.5t72 -51.5t44 -61t22.5 -56q35 -154 35 -286q0 -371 -242 -584q-18 -13 -41 -13q-17 0 -26.5 8t-17.5 31q-5 15 -9 38l-20 95q0 37 10.5 50t48.5 33q82 49 137.5 144.5 t55.5 200.5q0 43 -8 76q-25 111 -85 159t-173 48h-431q-22 0 -50.5 12t-32.5 30zM207 466q0 21 16 61l53 122q3 8 15 8q13 0 13 -8q18 -153 52 -303q24 -105 80 -295.5t80 -292.5q7 -31 7 -61q0 -81 -45 -107q-40 -15 -50 -15q-14 0 -20 12.5t-15 53.5l-175 759 q-11 49 -11 66zM507 544l36 47q16 22 44 0l58 -47q28 -22 10 -44l-36 -47q-17 -20 -44 1l-58 48q-28 21 -10 42z" />
<glyph unicode="&#xfb48;" horiz-adv-x="869" d="M-78 1132q-5 21 3.5 32.5t20 10.5t18.5 -4q11 -8 21 -37q12 -31 37 -58t44 -27h347q49 0 89.5 -9.5t69 -24.5t52 -41t38.5 -49.5t29.5 -59.5t22.5 -63.5t20.5 -68t21.5 -66.5l106 -345q2 -10 14.5 -54.5t12.5 -45.5q6 -29 6 -48q0 -24 -14.5 -94.5t-25.5 -87.5 q-10 -11 -25 -19q-10 -5 -16 -5q-7 0 -11 9.5t-10 36.5q-10 42 -77 304t-77 306q-16 70 -26 99.5t-32 64t-60 45.5t-97.5 19t-156.5 8h-212q-22 0 -50.5 12t-32.5 30zM266 544l36 47q16 22 44 0l58 -47q28 -22 10 -44l-36 -47q-17 -20 -44 1l-58 48q-28 21 -10 42z" />
<glyph unicode="&#xfb49;" horiz-adv-x="1362" d="M-12 1132q-5 21 3.5 32.5t20 10.5t18.5 -4q11 -8 21 -37q12 -31 37 -58t44 -27h170q19 0 26 -7t12 -29l26 -119q5 -21 -4.5 -27.5t-31.5 -6.5q-17 0 -28.5 -18t-11.5 -42q0 -15 4 -26q17 -47 39.5 -118.5t36.5 -113t37 -94.5t53.5 -98.5t72.5 -89.5q23 -25 46.5 -43.5 t30.5 -18.5v564q0 44 -15 71t-36 27h-8h-8.5t-7.5 0.5t-7.5 1.5t-6.5 3.5t-6 5.5t-4.5 8t-4.5 12l-30 125q-5 19 3.5 26t30.5 7h254q10 0 15.5 -1.5t9 -8t4.5 -10t5 -18.5l28 -119q4 -14 -3 -21t-22 -9l-15 -2q-70 -29 -70 -102v-540q4 -21 34 -21q18 0 37 3q62 8 111 35 t80 69.5t52.5 91.5t32 112t14.5 118.5t4 123.5q0 58 -20 84t-50 26h-7.5h-8.5t-7.5 0.5t-7.5 1.5t-7 3.5t-6 5.5t-4.5 8t-4.5 12l-32 125q-5 19 3.5 26t30.5 7h230q19 0 25.5 -7t12.5 -29l34 -121q1 -3 0 -6.5t-4 -6.5t-6.5 -5t-8.5 -4.5t-8.5 -4t-7.5 -3.5t-5 -2 q-41 -18 -41 -142q0 -33 1 -97.5t1 -95.5q0 -72 -4 -124t-17 -112.5t-36 -102.5t-64 -83.5t-98.5 -66t-141.5 -40t-190 -15.5h-33q-30 0 -49 3t-44 20t-41 50q-98 196 -246 622q-11 32 -17 48q-25 70 -46.5 100.5t-47.5 35.5q-63 14 -70 42zM821 545l36 47q16 22 44 0 l58 -47q28 -22 10 -44l-36 -47q-17 -20 -44 1l-58 48q-28 21 -10 42z" />
<glyph unicode="&#xfb4a;" horiz-adv-x="1183" d="M143 1132q-5 21 3.5 32.5t20 10.5t18.5 -4q11 -8 21 -37q12 -31 37 -58t44 -27h440q47 0 85.5 -10t66 -24.5t51.5 -40.5t39 -49.5t30.5 -60t24 -63t21.5 -68.5t22 -66l145 -486q7 -14 7 -44q0 -52 -26 -112t-49 -60q-26 0 -50 105q-9 39 -70 268t-74 286q-8 35 -12.5 52 t-12.5 43.5t-14.5 37.5t-19 29.5t-25.5 25.5t-33 18t-43.5 14.5t-55.5 8.5t-70 6t-86 1h-161q-34 0 -50 -31.5t-16 -78.5q0 -23 8 -61l133 -440q1 -3 7 -26t10 -46.5t4 -50.5q0 -126 -117 -126h-153q-40 0 -51 8.5t-11 35.5q0 5 0.5 18t0.5 21q0 18 4 29.5t8 18t20.5 12 t25 7.5t39.5 8q47 7 63.5 16.5t16.5 35.5q0 20 -11 67q0 2 -2 8l-88 360q-7 29 -7 57q0 43 17 86t17 51q0 11 -9 21l-8 2q-8 2 -19.5 5.5t-23.5 8.5t-21 12t-11 14zM612 540l36 48q16 23 44 0l58 -48q28 -22 10 -44l-36 -48q-17 -21 -44 1l-58 49q-28 21 -10 42z" />
<glyph unicode="&#xfb4b;" horiz-adv-x="558" d="M-46 1153q-5 21 3.5 32.5t20 10.5t18.5 -4q11 -8 21 -37q26 -64 55 -85q116 -22 184 -54.5t95.5 -68.5t40.5 -91q8 -33 12 -51l39 -173q16 -67 78 -243t62 -231q0 -58 -43 -140q-7 -14 -11 -16.5t-19 -7.5l-28 -9q-15 -4 -20 0.5t-8 20.5l-176 758q-8 34 -37 57.5 t-67 34.5l-87 25q-3 1 -16.5 4.5t-22 6t-19.5 7t-17 11t-8 13.5zM169 1334l41 52q19 25 48 2l67 -54q28 -23 11 -48l-42 -54q-19 -23 -48 0l-66 54q-28 23 -11 48z" />
<glyph unicode="&#xfb4c;" horiz-adv-x="922" d="M57 1132q-5 21 3.5 32.5t20 10.5t18.5 -4q11 -8 21 -37q26 -64 55 -85h218q57 0 101.5 -7.5t83 -33.5t65.5 -50t55.5 -83t47 -104t45 -142.5t44 -170t49.5 -211.5q2 -6 4.5 -16.5t3.5 -13.5t3.5 -8.5t6 -6.5t9 -2.5t13.5 -1.5h33q19 0 26 -7t12 -29l32 -130 q4 -15 -1.5 -22.5t-13 -8.5t-25.5 -1h-715q-44 0 -53 31l-36 134q-5 19 3.5 26t30.5 7h538q37 0 45.5 7t-0.5 38q-22 57 -47 130t-41 120.5t-38 104t-40 91.5t-44.5 71t-55 55.5t-67.5 32t-86 12.5h-191q-22 0 -50.5 12t-32.5 30zM183 1204l3 80q2 15 13 15h310q17 0 15 -15 l-3 -80q-2 -14 -15 -14h-310q-15 0 -13 14z" />
<glyph unicode="&#xfb4d;" horiz-adv-x="966" d="M51 1132q-5 21 3.5 32.5t20.5 10.5t19 -4q10 -7 20 -37q12 -31 37 -58t44 -27h327q48 0 91 -20.5t77 -52.5t67 -85.5t56.5 -104t51 -125t46.5 -132t46 -140.5t46 -136q5 -23 5 -44q0 -77 -45.5 -143t-102.5 -66h-584h-9.5h-10t-8.5 1t-8.5 3t-6.5 5t-6 8.5t-4 13.5 l-36 134q-5 19 3.5 26t30.5 7h539q57 0 80.5 14.5t23.5 49.5q0 17 -9 58l-20 87q-12 50 -22.5 88t-29.5 88t-41 86t-55.5 74.5t-73.5 62t-95.5 39t-120.5 15.5h-213q-22 0 -50.5 12t-32.5 30zM167 1203l3 80q2 15 13 15h310q17 0 15 -15l-3 -80q-2 -14 -15 -14h-310 q-15 0 -13 14z" />
<glyph unicode="&#xfb4e;" horiz-adv-x="1006" d="M147 860q0 25 3 65.5t3 70.5v136q0 16 7.5 29t21.5 13q8 0 14.5 -19.5t11.5 -43t21 -43t40 -19.5h221q89 0 143.5 -12t101 -49.5t79 -101t68.5 -172.5l143 -426q1 -5 5.5 -19.5t7.5 -32.5t3 -41q0 -81 -45.5 -138t-93.5 -57h-580h-9h-9.5t-8.5 1t-8.5 3t-6.5 5t-6.5 9 t-4.5 13l-36 134q-5 19 3.5 26t30.5 7h429q116 0 161 13t45 48q0 30 -36 105q-4 18 -74 175t-87 182q-4 6 -11 17q-17 28 -27.5 41t-38 31.5t-65 27.5t-103.5 15.5t-158 6.5q-54 0 -54 -41q0 -31 40 -145q21 -57 71 -57q18 0 28 -0.5t19.5 -0.5t15 -3.5t10 -4t8 -8t5.5 -10 t7 -15.5t7 -19l17 -48q16 -40 16 -52q0 -14 -13.5 -17.5t-53.5 -3.5h-128q-33 0 -52 16.5t-40 71t-47 166.5q-5 20 -5 52q-6 65 -6 119zM303 1208l3 80q2 15 13 15h310q17 0 15 -15l-3 -80q-2 -14 -15 -14h-310q-15 0 -13 14z" />
<glyph unicode="&#xfb4f;" horiz-adv-x="1160" d="M-84 1562v24v6q0 32 6.5 39.5t39.5 7.5h109q19 0 26.5 -7t12.5 -29l32 -130q2 -7 2 -12t-0.5 -8t-4.5 -5.5t-6 -3.5t-9 -1.5t-9.5 -0.5h-12.5h-28q-46 0 -55 -21q-11 -29 -11 -70q0 -47 16 -116q14 -61 52 -135q30 -51 88 -70t127 -71t124 -108t130.5 -131.5 t128.5 -119.5q63 -54 73 -54q18 0 34 42t16 107q0 34 -6 73q-4 28 -11.5 46t-14.5 23.5t-12 11t-5 11.5l-39 156q-5 19 3.5 26t31.5 7h193q21 0 29 -6t8 -26l30 -121q2 -8 2.5 -13.5t-2 -9t-5 -5.5t-8.5 -3t-10 -1h-13q-42 0 -68.5 -25.5t-26.5 -56.5q0 -3 4 -19.5t8 -45 t4 -61.5q0 -55 -13 -123.5t-13 -76.5q0 -23 38 -55q79 -68 138 -106t78.5 -44t29.5 -16t16 -40l40 -165q3 -13 -19 -27.5t-37 -2.5q-185 143 -249 193.5t-207.5 166t-247 208t-204.5 190.5q-3 3 -57 47q-7 11 -44 33t-67 22q-10 2 -27.5 3.5t-24.5 3.5t-17.5 9.5t-17.5 22.5 t-13 41q-26 108 -38.5 218.5t-14.5 186.5t-2 217z" />
</font>
</defs>
</svg>
