<?xml version="1.0" standalone="no"?>
<!DOCTYPE svg PUBLIC "-//W3C//DTD SVG 1.1//EN" "http://www.w3.org/Graphics/SVG/1.1/DTD/svg11.dtd" >
<svg xmlns="http://www.w3.org/2000/svg">
<metadata></metadata>
<defs>
<font id="keter_ygbold" horiz-adv-x="0" >
<font-face units-per-em="2048" ascent="1638" descent="-410" />
<missing-glyph horiz-adv-x="554" />
<glyph />
<glyph />
<glyph unicode="&#xd;" horiz-adv-x="682" />
<glyph unicode=" "  horiz-adv-x="554" />
<glyph unicode="&#x09;" horiz-adv-x="554" />
<glyph unicode="&#xa0;" horiz-adv-x="554" />
<glyph unicode="!" horiz-adv-x="473" d="M37 130v19q1 6 12 22l185 145q29 -108 154 -213l-189 -127q-13 -5 -26 -5q-43 0 -89.5 52.5t-46.5 106.5zM44 1223l325 227l-35 -931l-206 -132z" />
<glyph unicode="&#x22;" horiz-adv-x="721" d="M51 951l24 480l234 30l-100 -491zM378 951l24 480l234 30l-100 -491z" />
<glyph unicode="#" horiz-adv-x="1135" d="M-34 376l43 198h230l62 288h-230l41 198h231l84 402h200l-84 -402h116l86 402h199l-86 -402h229l-42 -198h-230l-61 -288h229l-40 -198h-230l-86 -404h-200l86 404h-118l-86 -404h-199l86 404h-230zM440 574h114l62 288h-116z" />
<glyph unicode="$" horiz-adv-x="1266" d="M33 198q1 27 5.5 37.5t17.5 21.5l268 153l12 -31q33 -92 84 -133t130 -63v450q-5 2 -104.5 29t-176.5 54t-110 52q-52 39 -69 71t-19 86q0 55 15.5 106t40.5 92t63.5 79.5t77 67.5t88.5 58t89.5 48.5t89.5 41.5v143l147 89l-3 -195q50 7 101 7q250 0 316 -176 q-74 -62 -158 -86q-30 -33 -85 -58l-23 -10l-15 18q-9 11 -29 37.5t-32 40.5t-31.5 32t-38.5 28l3 -421q197 -57 357 -128q36 -30 56 -50t38.5 -58t18.5 -82q0 -75 -47 -157t-119.5 -150.5t-146.5 -122t-143 -88.5v-177l-159 -92l8 222q-48 -9 -100 -9q-101 0 -195.5 28 t-156.5 80t-65 115zM370 1106q0 -64 38 -115t142 -84l-14 396h-2q-61 0 -112.5 -59.5t-51.5 -137.5zM675 576l11 -428q76 20 118.5 80t42.5 152q0 73 -47 128t-125 68z" />
<glyph unicode="%" horiz-adv-x="1996" d="M11 857v9q0 152 175 302l59 47l-12 -70q-12 -82 -12 -121q0 -163 87 -280.5t207 -117.5q76 0 121.5 63.5t45.5 147.5v52q0 171 -91 270t-224 99h-8q-19 0 -50.5 -6t-54.5 -13t-24 -10l-44 63l27 15q15 8 51 27.5t51 27t45.5 21t51.5 19t52 10t63 4.5q154 0 256 -113 t102 -265q0 -104 -38.5 -203t-105.5 -175t-166.5 -122t-213.5 -46q-151 0 -250.5 109t-99.5 256zM348 -9l1020 1378l180 40l-1014 -1389zM1013 400v8q0 54 20.5 107.5t52.5 94.5t59 68.5t50 44.5l66 50l-16 -73q-13 -58 -13 -120q0 -175 87.5 -301t207.5 -126 q76 0 120.5 66.5t44.5 154.5v54q0 178 -90 281.5t-223 103.5q-19 0 -53 -7t-59.5 -13.5t-25.5 -8.5l-45 63l28 15q16 8 51.5 27.5t51 27t46 21t51.5 19t52 10t63 4.5q150 0 249 -112.5t99 -264.5q0 -148 -62.5 -278.5t-182 -213t-269.5 -82.5q-154 0 -257 113.5t-103 266.5z " />
<glyph unicode="&#x26;" horiz-adv-x="1598" d="M22 315q0 83 59.5 156.5t165.5 149.5l35 25l-44 23q-91 50 -133 95q-67 72 -67 160q0 52 31.5 106t73.5 94t90 74.5t76 50.5t36 19l125 56q122 40 212 40q72 0 127 -12t83.5 -28t46.5 -35.5t22.5 -32t4.5 -20.5v-15l-228 -143l-15 21q-44 60 -100 84.5t-141 24.5 q-20 0 -43 -4.5t-50 -16.5t-48.5 -30.5t-36 -49.5t-14.5 -70q0 -17 4 -37t16 -48.5t40.5 -52.5t70.5 -36q58 -17 104.5 -21t162.5 -4h222v66l266 156v-210h400l-232 -210l-180 -5v-54q0 -112 -53 -198t-197 -215q-124 -110 -202 -153t-176 -43q-49 0 -112 12t-134.5 39.5 t-130.5 66t-98 97.5t-39 128zM292 449q0 -57 37.5 -106.5t94 -80t118 -47.5t114.5 -17h70q88 11 130 39t42 93v310h-243q-202 0 -282.5 -40t-80.5 -151z" />
<glyph unicode="'" horiz-adv-x="394" d="M51 951l24 480l234 30l-100 -491z" />
<glyph unicode="(" horiz-adv-x="609" d="M34 635q0 428 204 834l251 121l-36 -72q-187 -374 -187 -743q0 -113 19 -226.5t41.5 -189.5t62.5 -167t57.5 -124t52.5 -95l11 -19l-218 -186l-17 27q-241 386 -241 840z" />
<glyph unicode=")" horiz-adv-x="506" d="M-50 1408l218 186l36 -64q125 -200 173.5 -393t48.5 -410q0 -426 -204 -834l-251 -121l36 72q187 374 187 743q0 393 -173 697z" />
<glyph unicode="*" horiz-adv-x="656" d="M-30 491l30 240l37 -32q71 -57 141 -80q-47 81 -54 170l-2 24l235 45l-17 -46q-31 -78 -31 -160q66 73 147 106l23 10l117 -213l-51 5h-30q-70 0 -130 -19q85 -37 145 -105l16 -19l-165 -175l-13 48q-22 86 -69 149q-10 -94 -56 -171l-13 -22l-218 103l41 27 q76 49 121 111q-55 -11 -94 -11q-36 0 -86 10z" />
<glyph unicode="+" horiz-adv-x="873" d="M-54 494v172h336v336h174v-336h336v-172h-336v-336h-174v336h-336z" />
<glyph unicode="," horiz-adv-x="374" d="M-68 187l24 22q87 78 171 113q33 -20 54 -35.5t45.5 -40t36.5 -56.5t12 -70q-1 -64 -79 -131l-178 -147l-59 82l28 14q65 35 65 88q0 62 -95 141z" />
<glyph unicode="-" horiz-adv-x="904" d="M30 494v172h844v-172h-844z" />
<glyph unicode="." horiz-adv-x="351" d="M-64 133v20q1 6 12 22l185 145q29 -108 154 -213l-189 -127q-13 -5 -26 -5q-43 0 -89.5 52.5t-46.5 105.5z" />
<glyph unicode="/" horiz-adv-x="1276" d="M-120 -52l1080 1532h235l-1083 -1532h-232z" />
<glyph unicode="0" horiz-adv-x="1344" d="M94 487v24q0 76 25 147t59 120.5t85.5 97.5t86.5 73.5t80 53.5l93 58l-48 -95q-45 -89 -60 -139t-15 -129v-14q0 -117 43 -222t120.5 -170t168.5 -65h14q62 2 110.5 48t70.5 100t22 97q0 123 -54 275.5t-145 265.5t-181 113q-59 0 -115 -53l-24 -22l-66 75l16 18 q88 100 181.5 154.5t217.5 55.5q95 -4 180 -58.5t143.5 -138.5t94.5 -187t41 -205q-1 -63 -48 -160t-124.5 -199t-168 -192.5t-190.5 -150t-181 -63.5q-75 0 -148.5 41.5t-130 109t-97 155.5t-56.5 181z" />
<glyph unicode="1" horiz-adv-x="732" d="M70 1061l23 25q53 59 198.5 162.5t210.5 104.5q15 -1 27 -4t20.5 -10t14.5 -12t10.5 -18t6.5 -19.5t3.5 -26t2 -28t1.5 -33.5t1 -35l8 -966l-318 -196v722q-3 134 -26 227.5t-52 93.5h-7q-6 -2 -27 -21l-15 -15z" />
<glyph unicode="2" horiz-adv-x="1042" d="M31 92l15 19q33 42 103 102t137.5 118t134.5 127t112 152.5t53 170.5v24q0 81 -22 144.5t-58 100t-78 55t-86 18.5q-92 0 -173 -58l-82 58l14 20q24 39 89.5 89.5t160 93t174.5 44.5q79 -2 142.5 -26t103.5 -61t67.5 -86t38.5 -97t11 -97v-7q-1 -105 -44 -180.5 t-123 -151.5l-269 -335l560 9l-248 -317q-31 5 -173 9t-233 4q-130 0 -245 -24z" />
<glyph unicode="3" horiz-adv-x="997" d="M100 1141l24 15q10 6 57.5 44t92.5 71t114.5 61.5t132.5 28.5q128 0 217.5 -70.5t89.5 -180.5q0 -29 -5.5 -54.5t-21 -49.5t-26.5 -39.5t-39 -38.5t-39.5 -32t-47 -33.5t-44.5 -30.5q144 -44 223.5 -130t79.5 -213q0 -75 -33.5 -142.5t-81.5 -115t-121.5 -96t-133 -77.5 t-139 -66.5t-116.5 -58.5l-25 -16l-35 66l22 14q50 29 85 50.5t86.5 59t84 70t57 74.5t25.5 81v23q0 64 -21 112.5t-55 78t-85.5 48t-103.5 26.5t-118 11l-74 4l58 43q18 13 56 29.5t73.5 33.5t72.5 42t64 66t37 94v10q0 69 -63 122t-142 53q-55 0 -114 -40l-23 -17z" />
<glyph unicode="4" horiz-adv-x="1256" d="M69 503q0 73 60.5 186.5t141.5 219t179 216t155 169.5t87 87l22 22l57 -58l-13 -18q-28 -38 -89 -116t-101 -133t-85 -124.5t-68 -130.5t-23 -113q0 -23 7 -39.5t23.5 -27t35.5 -17.5t52.5 -10t63.5 -4.5t78 -1.5v322l297 193v-476l295 37l-199 -263l-114 -17v-238 l-298 -183v389h-341q-45 0 -78.5 4t-69.5 16.5t-55.5 40t-19.5 68.5z" />
<glyph unicode="5" horiz-adv-x="983" d="M61 776l380 584l22 -5q151 -33 294 -33q100 0 205 20l33 6v-83q-39 -62 -70.5 -101.5t-75 -75.5t-97.5 -53t-123 -17q-111 0 -257 42l-21 -82q71 -18 148 -63t144.5 -107t111 -143.5t43.5 -162.5q0 -225 -310 -427q-84 -55 -269 -151l-22 -13l-55 78l20 17 q10 8 76.5 56.5t112.5 85t89 91.5t43 98q0 50 -10 93t-25 74.5t-41 60.5t-50 48.5t-62 42t-66 36t-71.5 35t-71.5 36.5z" />
<glyph unicode="6" horiz-adv-x="1149" d="M91 471q0 86 29.5 176.5t74.5 165.5t108 152t119.5 133t120.5 110.5t100 82t68 50.5q11 8 14 10l25 20l50 -59l-17 -17q-25 -24 -84 -76.5t-93 -85t-83 -89.5t-76 -106t-47.5 -118t-20.5 -141q0 -61 25.5 -138.5t67.5 -148.5t105 -119.5t131 -48.5q47 0 76.5 30.5 t29.5 73.5q0 130 -85.5 249t-179.5 145l-49 14l36 32q79 71 115 94q83 54 176 54q57 0 108 -41.5t82.5 -100t50 -115.5t18.5 -93q0 -78 -43 -162t-111 -153t-146 -125t-152.5 -87.5t-125.5 -31.5q-78 0 -153.5 37t-133.5 98.5t-94 148.5t-36 180z" />
<glyph unicode="7" horiz-adv-x="971" d="M54 1106l288 265l21 -17q85 -70 287 -70q42 0 91.5 3.5t81 7t75.5 9.5t54 7l53 -53l-10 -18q-16 -26 -74 -119t-87 -142.5t-82 -142.5t-82.5 -161.5t-62 -155t-47.5 -167t-15 -155.5v-16l-366 -187l494 983h-115q-155 0 -260 16t-152.5 38.5t-74.5 54.5z" />
<glyph unicode="8" horiz-adv-x="1157" d="M76 232q0 64 20 118t58.5 97.5t74.5 75t88 71.5t80 67q-39 15 -69 28.5t-72.5 38.5t-70 51.5t-48 65t-20.5 81.5q0 53 44.5 117t105.5 114.5t117.5 88t87.5 47.5l30 10l28 -71l-18 -12q-107 -73 -107 -160q0 -75 73.5 -140.5t170.5 -81.5q54 72 54 156q0 59 -26.5 98 t-71.5 39q-23 0 -52 -12l-75 -30l34 67q44 84 149.5 142.5t186.5 58.5q76 0 117.5 -53t41.5 -128q0 -45 -28.5 -100t-73 -106t-85 -89.5t-78.5 -68.5q54 -20 84 -32t78 -38t74.5 -52t47 -66t20.5 -87q0 -53 -54.5 -126t-139 -142t-177.5 -130t-178.5 -98t-133.5 -37 q-121 0 -204 63.5t-83 164.5zM379 432q0 -89 45.5 -154.5t125.5 -65.5q64 0 131 50.5t67 105.5q0 97 -80 175t-173 103q-56 -54 -86 -104.5t-30 -109.5z" />
<glyph unicode="9" horiz-adv-x="1203" d="M91 840q0 67 41 144t106.5 143t141.5 121.5t152 87.5t131 32q116 0 215.5 -75.5t154 -189t54.5 -229.5q0 -98 -39.5 -201.5t-103.5 -191.5t-137 -167.5t-147.5 -141.5t-127 -100t-83.5 -56l-28 -16l-54 82l18 14q54 43 94.5 77t105 97t106 118t73.5 125.5t32 133.5 q0 85 -24 174t-65.5 163.5t-104.5 122.5t-133 48q-56 0 -82 -39t-26 -84q0 -61 27.5 -139.5t80 -140.5t109.5 -62q24 0 51 13t34 13q11 0 21 -10q19 -19 -1 -37q-2 -2 -25.5 -23.5t-32 -29.5t-33.5 -28.5t-40.5 -30t-42.5 -25.5t-49 -23t-50.5 -13t-56.5 -6 q-64 0 -116.5 36.5t-82.5 92t-46.5 113.5t-16.5 108z" />
<glyph unicode=":" horiz-adv-x="437" d="M22 133v19q1 6 12 22l185 145q29 -108 154 -213l-189 -127q-13 -5 -26 -5q-43 0 -89.5 53t-46.5 106zM22 806v19q1 6 12 22l185 145q29 -108 154 -213l-189 -127q-13 -5 -26 -5q-43 0 -89.5 53t-46.5 106z" />
<glyph unicode=";" horiz-adv-x="475" d="M22 806q0 13 2 19q2 10 10 22l185 145q29 -108 154 -213l-189 -127q-13 -5 -26 -5q-43 0 -89.5 53t-46.5 106zM32 181l25 22q83 71 172 112q33 -20 53 -35t45 -39.5t37 -56.5t12 -70q0 -67 -80 -131l-176 -147l-61 82l30 15q9 4 21.5 12.5t28 30t15.5 44.5q0 61 -97 141z " />
<glyph unicode="&#x3c;" horiz-adv-x="1079" d="M-70 434v168l1042 455v-201l-779 -338l779 -338v-200z" />
<glyph unicode="=" horiz-adv-x="1149" d="M26 198v202h1042v-202h-1042zM26 636v202h1042v-202h-1042z" />
<glyph unicode="&#x3e;" horiz-adv-x="1134" d="M10 -20v200l780 338l-780 338v201l1042 -455v-168z" />
<glyph unicode="?" horiz-adv-x="912" d="M-98 1211l19 23q46 53 83.5 89t90 73.5t113.5 56.5t129 19q127 0 237 -50.5t180 -151t70 -230.5q0 -75 -25.5 -137.5t-66 -104t-94.5 -86t-105.5 -81.5t-106 -93t-89.5 -118l-18 -30l-78 74l10 19q25 46 63 88t72.5 71t66 59t50.5 68.5t19 84.5q0 181 -90 296.5 t-217 115.5q-116 0 -222 -95l-16 -14zM104 123q0 6 2 16q8 33 48 69l152 111l12 -35q27 -75 114 -157l25 -24l-186 -123q-16 -8 -30 -8q-53 0 -95 51t-42 100z" />
<glyph unicode="@" horiz-adv-x="1595" d="M4 735q0 158 63.5 300t170.5 243t253.5 160.5t306.5 59.5q149 0 280 -38.5t232.5 -112t160.5 -190t59 -262.5q0 -299 -179 -455t-359 -156q-44 0 -79 26t-37 84q-108 -110 -217 -110q-129 0 -221 101.5t-92 245.5q0 140 57.5 259t157.5 188.5t218 69.5q155 0 233 -134 l30 106h166l-143 -608q0 -50 54 -50q40 0 82 24t79 68.5t60.5 117t23.5 159.5q0 237 -155 369t-413 132q-190 0 -328.5 -82t-206 -216.5t-67.5 -302.5q0 -269 169 -431t457 -162q292 0 462 170h174l-32 -44q-101 -137 -255.5 -214.5t-360.5 -77.5q-345 0 -574 218 q-230 218 -230 545zM548 657q0 -78 42 -130.5t116 -52.5q68 0 123.5 48.5t84 118.5t28.5 143q0 76 -40.5 125t-105.5 49q-104 0 -176 -89t-72 -212z" />
<glyph unicode="A" horiz-adv-x="1608" d="M-61 -20l37 69q295 551 541 1247l253 127l76 -67q37 -154 126.5 -360.5t185 -376.5t183 -290.5t122.5 -124.5q3 1 7 8l26 49l43 -95q-34 -36 -62 -60t-69.5 -51t-92 -41t-107.5 -14q-47 4 -108 76t-180 266h-587q-47 -133 -47 -195v-16zM397 519q69 -7 185 -7h59 q129 0 201 10l-228 542z" />
<glyph unicode="B" horiz-adv-x="1339" d="M-28 1145l215 238q26 9 112 23t151 14q715 0 715 -339q0 -45 -16 -85t-48.5 -74.5t-57.5 -56t-66 -50.5q151 -31 224.5 -96t73.5 -204q0 -80 -75 -174.5t-179 -168t-216 -123t-184 -49.5q-199 0 -415 71l-21 7l3 21q46 330 46 628q0 242 -28 456q-32 -2 -156 -24z M489 291q90 -38 163 -53t172 -15q46 0 112.5 51t66.5 104q0 78 -33.5 139t-95 103t-132 69t-160.5 47q-15 3 -20.5 16t1.5 25t23 13q27 3 75 20t99.5 44t89 68.5t37.5 85.5v6q7 14 7 26q0 21 -12 46t-42 54t-74.5 53t-116.5 41t-160 20v-963z" />
<glyph unicode="C" horiz-adv-x="1238" d="M32 677q0 141 68 277.5t179 238.5t261 164.5t305 62.5h51q146 0 202 -87l-4 5q9 -14 9 -27q0 -15 -11.5 -32t-35.5 -36t-46.5 -35t-60.5 -41t-63 -43l-19 -12l-18 13q-48 34 -75 50.5t-83.5 33t-125.5 16.5q-73 0 -133.5 -47.5t-91 -111.5t-30.5 -124q0 -201 58.5 -357.5 t168 -244t252.5 -87.5t300 98l32 20l22 -91q-85 -130 -206.5 -205t-257.5 -75q-118 0 -222 37.5t-180.5 102.5t-132.5 151t-84 185t-28 201z" />
<glyph unicode="D" horiz-adv-x="1464" d="M-47 1193l260 220h11q58 0 149 3.5t152 3.5q139 0 266.5 -24.5t241.5 -78t198 -131.5t133 -192t49 -253q0 -96 -56 -205t-145.5 -201.5t-193 -169.5t-206.5 -121t-179 -44q-72 0 -132.5 11t-130.5 30t-122 28l-24 4v1120h-271zM505 322q75 -48 157.5 -63.5t195.5 -15.5 q133 0 216 100t83 237q0 111 -18 202.5t-63.5 177t-117.5 144.5t-187 96t-266 40v-918z" />
<glyph unicode="E" horiz-adv-x="1320" d="M34 626l67 47q134 96 189 169v371h-246l258 210q182 -19 322 -19q98 0 274 8t262 8h58l-36 -45q-3 -4 -21.5 -27t-25 -30.5t-24.5 -28t-28 -29t-28 -25t-32.5 -23.5t-33.5 -16.5t-38 -13t-39 -3.5q-64 -8 -140 -8q-86 0 -218 13v-318h535l-30 -44q-13 -17 -32.5 -43.5 t-29 -38t-27.5 -30.5t-33 -27t-41 -20t-55.5 -16.5t-73 -10.5t-98 -8t-124.5 -2v-402q157 13 368 13q88 -20 166 -20q79 0 161 20h65l-229 -237h-12q-85 0 -248.5 6t-243.5 6q-148 0 -257 -12l-33 -4v630h-248z" />
<glyph unicode="F" horiz-adv-x="1284" d="M22 1195l264 228q125 -10 251 -10q122 0 339.5 9t290.5 10l49 1l-49 -68q-36 -56 -125.5 -117.5t-195.5 -64.5l-288 -9q-9 -75 -9 -149q0 -33 2.5 -90.5t2.5 -81.5q98 -2 146 -2l331 24l53 5l-27 -46q-14 -23 -42 -56t-70 -74.5t-96.5 -69.5t-104.5 -28h-193l12 -466 l-288 -182l5 673l-238 2l233 196v366h-253z" />
<glyph unicode="G" horiz-adv-x="1496" d="M29 656q2 79 25 163t67 170.5t116.5 163.5t164 137t218.5 95t273 35q35 0 71.5 -3.5t85 -13t79 -32.5t30.5 -57q-4 -34 -55.5 -78.5t-108.5 -74.5t-82 -30h-15q-56 72 -103.5 104t-124.5 32q-80 0 -140.5 -22t-97 -55.5t-60.5 -83.5t-34 -97t-14 -104q3 -143 52.5 -276.5 t128.5 -230t184 -154t216 -57.5q11 -41 21 0q196 0 212 190q0 62 -14 115t-33.5 84.5t-38.5 49.5t-32 18q-63 -1 -128 -68l-18 -19l-91 56l27 22q28 23 81 81.5t88 82.5q48 45 147 45h6q47 0 86.5 -19t70.5 -56.5t52.5 -75.5t45.5 -92v-14q0 -72 -25 -149t-83 -156 t-141 -141t-211.5 -101.5t-281.5 -39.5h-4q-85 0 -174.5 36.5t-166.5 101t-138.5 146t-97 179t-35.5 193.5z" />
<glyph unicode="H" horiz-adv-x="1554" d="M87 812q0 87 1.5 238.5t1.5 233.5l272 169l5 -653q112 -4 254 -4q210 0 375 13l11 475l272 192l11 -667l213 3l-213 -191q0 -8 0.5 -26t0.5 -28l-1 -11v-30.5v-38.5q0 -197 23 -243q21 13 41 30l25 21l49 -77l-18 -15q-65 -52 -177.5 -125t-147.5 -78h-5q-6 0 -15 2.5 t-24 19t-15 44.5l-19 517q-165 9 -328 9q-157 0 -315 -9q-1 -42 -1 -158q0 -161 26 -196l30 44l48 -100l-25 -11q-63 -27 -123.5 -69t-97.5 -67.5t-62 -25.5q-34 9 -40.5 32.5t-14.5 143.5z" />
<glyph unicode="I" horiz-adv-x="567" d="M-30 1195l337 199q38 29 65 29q24 -3 40.5 -16t23 -30.5t9 -30.5t2.5 -26l13 -1168l-281 -181v29q0 81 4.5 231t4.5 242q0 287 -20 593q-8 46 -15 67t-13 24.5t-19 3.5q-31 0 -71 -24l-20 -11z" />
<glyph unicode="J" horiz-adv-x="577" d="M-28 1191l337 203q38 29 76 29q12 0 25 -5q37 -21 37 -74q0 -116 -2 -453.5t-2 -455.5q0 -314 17 -565l-399 -348l1 140q23 27 41 56.5t31.5 68.5t23 69.5t16 83.5t10 86t6 101.5t3 104.5t1.5 122t2 128q0 196 -26 599q-9 56 -24 72h-18h-2h-3q-31 0 -71 -20l-20 -12z " />
<glyph unicode="K" horiz-adv-x="1349" d="M-24 1193l24 18q79 62 161 111t130.5 70t64.5 21l8 -1q8 -1 14 -4t13 -9q20 -17 32 -56t15 -71l5 -518l296 278q39 37 39 70q0 20 -11.5 41t-37 43.5t-37.5 32.5t-40 30l-32 24l239 145q26 -6 42.5 -10t48.5 -13.5t53 -21.5t43.5 -29t34 -40.5t11.5 -51.5 q-3 -26 -47 -67.5t-102 -85t-139 -114.5t-140 -140q38 -52 110 -155.5t118 -168t116.5 -152t138.5 -157.5q27 -24 46 -24q9 0 24 5l113 42l-83 -84q-33 -34 -67 -59t-79.5 -52.5t-70.5 -45.5q-24 -17 -48 -17q-52 0 -106 78l-432 664l5 -565l-285 -168l3 51q14 226 14 456 q0 279 -22 559q-4 45 -23.5 77t-41.5 32q-15 0 -37 -15l-19 -13z" />
<glyph unicode="L" horiz-adv-x="1219" d="M-49 1196l295 169q23 16 64 35.5t56 19.5q14 0 31 -7q28 -12 50 -38.5t22 -61.5l6 -1084q4 -1 7 -2t4.5 -2t3.5 -1.5l4 -1t5.5 -0.5h8.5q74 0 260 6.5t254 6.5q39 0 78 -3l55 -5l-203 -227l-724 5l-37 1070q-9 44 -36 66t-53 22q-30 0 -71 -23l-20 -12z" />
<glyph unicode="M" horiz-adv-x="2130" d="M52 -32l7 39q41 323 182 907l-136 262q-19 27 -19 54q0 49 59 86l203 103l18 -72q29 -69 85 -173.5t140 -233t171.5 -237.5t185.5 -183.5t177 -75.5q74 2 139 58t109 141t76.5 187.5t47.5 197t15 170.5q0 2 -0.5 10t-0.5 12v16l404 235l-138 -345q14 -263 81 -490 t175 -454l-29 -43l-239 -157l-14 18q-31 60 -56.5 128.5t-47.5 155.5t-35 143.5t-35 166.5t-31 152q-135 -231 -180 -298q-155 -233 -287 -281q-39 -14 -78 -14q-35 0 -77.5 19t-80 45t-87.5 74.5t-84.5 84.5t-87 98.5t-77 93.5t-72.5 92q-59 -321 -60 -495z" />
<glyph unicode="N" horiz-adv-x="1615" d="M-61 1232l25 20q41 34 144.5 101t152.5 67q59 0 181.5 -92.5t273.5 -243.5t273.5 -282.5t243.5 -269.5q0 27 2 112.5t2 131.5q0 126 -10.5 229.5t-19 140.5t-22.5 90l312 213l-36 -1308l-221 -154l-16 28q-142 252 -319 462t-396 407q-19 -180 -19 -354t21 -363l-19 -9 q-107 -45 -228 -151l-52 -44l49 1109q-18 13 -59.5 48t-73.5 60t-45 29q-37 0 -63 -20l-20 -14z" />
<glyph unicode="O" horiz-adv-x="1450" d="M22 536v26q0 83 21.5 158t50.5 126t75.5 100.5t80 76.5t78.5 59q36 13 70 16l-25 -55q-54 -104 -71 -269v-14q0 -118 62.5 -237.5t160 -196t193.5 -76.5h15q85 0 160.5 57t114.5 149q34 106 34 211q0 84 -39 182t-98.5 178.5t-137.5 134t-151 53.5q-20 0 -36 -4h-3 q-29 0 -90.5 -29t-91.5 -58l-13 -12l-67 78l15 18q91 104 180.5 156t217.5 52q91 0 174 -17t167.5 -63t145.5 -117.5t99.5 -189t38.5 -269.5q0 -87 -39 -181.5t-102.5 -177t-147 -158t-170 -129.5t-173.5 -86t-156 -32q-90 0 -167 24t-129.5 60.5t-95 89.5t-67.5 100 t-44 104.5t-26.5 91.5t-13.5 70z" />
<glyph unicode="P" horiz-adv-x="1232" d="M-27 1142l230 244q54 16 121 24t111 9t123 1q125 0 234.5 -23.5t197 -70t138.5 -123.5t51 -176q0 -85 -68.5 -172t-165 -147.5t-197 -99t-168.5 -38.5q-5 5 -19 13t-19 27q-12 13 -4.5 29.5t27.5 16.5q51 0 121.5 30t128.5 88t58 121q0 118 -87.5 203t-214.5 85 q-12 0 -36 -2.5t-31 -3.5v-1017l-312 -190l8 59q49 344 49 715q0 242 -24 447q-91 -2 -157 -21z" />
<glyph unicode="Q" horiz-adv-x="1660" d="M11 513v26q0 82 22 156.5t52.5 126.5t77 102t81 77.5t79.5 58.5l92 63l-49 -97q-33 -66 -52.5 -152.5t-22.5 -126.5v-9q0 -24 4.5 -54.5t18 -83t48 -114t85.5 -116.5l158 204q11 13 39.5 29.5t60.5 16.5q38 0 63.5 -23.5t40 -56.5t45.5 -97.5t66 -119.5q18 24 31 45.5 t31.5 62.5t28.5 100t10 130q0 114 -63 244t-162.5 220t-194.5 90q-20 0 -36 -4h-3q-28 0 -89.5 -29t-90.5 -58l-23 -22l-66 78l15 17q90 105 184 162t219 57q90 0 173 -17t169 -63t148 -117.5t101.5 -189.5t39.5 -270q0 -137 -92 -279.5t-234 -261.5q94 -96 219.5 -181.5 t180.5 -85.5q16 0 23 9q1 1 20 36l18 33l50 -53q-4 -39 -8 -66t-16.5 -66.5t-30.5 -64t-50.5 -43t-75.5 -18.5q-91 0 -266 102t-292 242q-134 -66 -238 -66q-89 0 -165.5 23t-128.5 58t-94.5 85.5t-67 96t-43.5 100.5t-26.5 87t-13.5 67zM467 338q100 -98 201 -113 q-16 31 -28 57t-18 40.5t-10 25t-5.5 15t-3.5 7.5t-4 5q-6 -1 -18.5 -9t-31.5 -21t-33 -21z" />
<glyph unicode="R" horiz-adv-x="1387" d="M-42 1161l234 241q144 18 272 18h122q147 0 259.5 -20.5t178.5 -52.5t108 -77t57.5 -86.5t18.5 -89.5q0 -36 -11 -70.5t-25.5 -61t-43.5 -56.5t-48.5 -47.5t-59 -43.5t-56.5 -36t-59 -33.5t-50 -28.5q123 -195 249.5 -366t158.5 -171q8 0 22 9l29 20l27 -68l-234 -144 q-31 -25 -67 -25q-58 0 -100 61q-168 239 -229 343q-91 153 -142 293l-9 22l200 95q65 43 117 104t52 102q0 82 -33.5 124t-120.5 62.5t-257 23.5q0 -81 -4 -214t-4 -214q0 -99 7.5 -294.5t7.5 -293.5v-15l-295 -202v31q0 116 10.5 335.5t10.5 347.5q0 65 -3.5 191.5 t-3.5 225.5l-7 84q-15 5 -45 5q-50 0 -127.5 -10t-106.5 -18z" />
<glyph unicode="S" horiz-adv-x="1257" d="M34 179q0 33 47.5 73.5t200.5 127.5l26 14l15 -24q72 -113 147.5 -152.5t163.5 -39.5q75 3 149 55t74 121q0 50 -21.5 93t-51.5 69t-60.5 45t-51.5 27l-22 7l-361 101q-1 0 -12.5 3.5t-21.5 6.5t-27.5 9.5t-32 13t-32.5 17.5t-32.5 23t-29 28.5t-24 34.5t-15.5 41.5 t-6 48.5q0 96 74.5 190t184 160t234 107t224.5 41q154 0 246 -84l4 -4q33 -33 33 -54q-1 -2 -2.5 -8l-2 -8t-3 -6.5t-5.5 -7.5t-8.5 -6.5t-13.5 -7.5l-215 -120l-16 21q-105 136 -237 136q-87 -6 -147 -49.5t-60 -123.5v-6q1 -6 1 -9q0 -36 21.5 -69.5t51.5 -56t62.5 -40.5 t53.5 -26t25 -9l327 -90q12 -2 30 -7t62.5 -24t78.5 -43.5t61.5 -68t27.5 -95.5q0 -56 -40.5 -129.5t-114.5 -147t-166.5 -136t-208 -102t-227.5 -39.5q-83 0 -154.5 20.5t-113.5 50t-65.5 58.5t-23.5 50z" />
<glyph unicode="T" horiz-adv-x="1411" d="M-67 1211l289 222q172 -12 364 -13q14 20 29 20l29 -20h707l-34 -43q-26 -33 -53.5 -60t-51 -47.5t-52.5 -35.5t-50.5 -25.5t-53.5 -17.5t-52 -10.5t-56.5 -6t-56.5 -3t-62 -1t-64 -0.5q-10 -136 -10 -320q0 -247 29 -668l-327 -213l8 1212z" />
<glyph unicode="U" horiz-adv-x="1633" d="M40 1170q0 19 1.5 33.5t7 26.5t9 19.5t15.5 17.5t18 14.5t24 16.5l27 18l162 107l5 -45q6 -47 17 -143q42 -373 79 -536q78 -337 236 -429q65 -38 147 -38q206 0 297 178q58 113 90 361q4 30 10 77v367l335 251l-32 -128q-27 -95 -52 -208t-42 -202t-38.5 -189 t-41.5 -178t-51 -158t-67 -139t-89 -112t-118.5 -86t-154 -52.5t-196.5 -19.5q-315 0 -448 292q-75 165 -110 486q-5 44 -13 130q-10 100 -15 146q-12 68 -12 122z" />
<glyph unicode="V" horiz-adv-x="1647" d="M-67 1253l296 190q18 5 32 5q19 0 40 -9q26 -17 62 -70l478 -969q49 105 99 230t105 311t66 321v-7l447 223l-37 -62q-59 -116 -192 -358.5t-221.5 -423.5t-139.5 -333q-31 -87 -31 -131q0 -40 16 -51l-318 -176l10 38v11q0 57 -27 124q-54 110 -127.5 283t-126 297 t-131.5 269.5t-162 249.5q-14 4 -30 4q-21 0 -49 -12l-22 -11z" />
<glyph unicode="W" horiz-adv-x="2625" d="M-67 1236l303 195l15 -23q50 -71 101.5 -159t87 -153t92 -183t79 -167t87.5 -195t81 -181q24 56 72 160t78.5 173.5t64 159t50.5 169t17 150.5q0 20 -3 62l295 175l471 -1018q150 289 308 843l399 189l-38 -71q-44 -83 -184.5 -333t-222 -415.5t-144.5 -338.5 q-25 -43 -25 -82q0 -13 10 -56l-265 -156l-10 19q-52 171 -129 353.5t-138.5 304t-163.5 311.5l-326 -660q-41 -99 -41 -189v-26l-244 -123l-11 33q-66 182 -115 307t-124.5 297.5t-159 317.5t-172.5 259q-10 5 -21 5t-24 -6l-28 -12z" />
<glyph unicode="X" horiz-adv-x="1449" d="M-53 -101l72 88q40 47 177.5 203t223 264t159.5 225q-36 48 -103 148.5t-126 177.5t-127 141q-14 14 -31 14q-15 0 -49 -26l-66 35l26 25q69 66 138.5 115t109 68t54.5 19h2q22 -4 29.5 -8t15 -17t14.5 -21l281 -463q30 43 50.5 74.5t34.5 61t21.5 44.5t12.5 42.5t6 36 t3 43.5t3 48l507 225l-533 -669q13 -20 84.5 -128.5t100.5 -149.5t88.5 -116.5t116.5 -132.5q23 -18 41 -18q15 0 65 21l23 10l45 -78l-23 -13q-3 -1 -98.5 -63t-189.5 -108h-15q-45 2 -64 17q-20 17 -30 49q-77 92 -124 153t-107.5 155t-102.5 186q-37 -46 -56.5 -74 t-52 -83.5t-48.5 -116t-16 -125.5q0 -19 3 -48z" />
<glyph unicode="Y" horiz-adv-x="1615" d="M-67 1242l267 177q24 10 44 10q11 -1 18.5 -2t14 -3.5t10 -4t9 -6t7.5 -7t9 -10t11 -12.5q326 -356 512 -712q19 29 66 95t69.5 102.5t53 92.5t43.5 108.5t13 106.5q0 31 -6 62h-3l478 253l-578 -877q-76 -103 -76 -298q0 -43 4 -123.5t5 -113.5l-294 -209v184 q0 120 -7.5 212.5t-37.5 208.5t-83 209q-36 68 -80 132t-99.5 127.5t-95.5 105.5t-107 109l-28 28q-10 7 -24 11q-3 -1 -6 -1l-53 -10z" />
<glyph unicode="Z" horiz-adv-x="1284" d="M40 123q0 40 4.5 72t9 52.5t19.5 46t23 37.5t32.5 43.5t36.5 47.5l590 695l-524 -14q-38 2 -65.5 6t-56.5 13.5t-44 27t-15 43.5q0 39 45 91l196 213l53 54v-73q0 -78 256 -78q101 0 295.5 16t225.5 18l57 3l-670 -843q-81 -130 -81 -198q0 -34 24.5 -57t88.5 -37 t170 -14q45 0 100.5 3.5t88.5 6.5t104.5 11t90.5 10l65 7l-261 -326q-165 -13 -319 -13q-149 0 -288 13q-23 1 -61.5 9.5t-82.5 22.5t-75.5 38.5t-31.5 52.5z" />
<glyph unicode="[" horiz-adv-x="628" d="M68 -238v1710h454v-126h-212v-1458h212v-126h-454z" />
<glyph unicode="\" horiz-adv-x="1276" d="M-120 1480h235l1080 -1532h-232z" />
<glyph unicode="]" horiz-adv-x="502" d="M-58 -112h212v1458h-212v126h454v-1710h-454v126z" />
<glyph unicode="^" horiz-adv-x="787" d="M-56 824l306 624h184l303 -620h-203l-192 413l-196 -417h-202z" />
<glyph unicode="_" horiz-adv-x="1303" d="M58 -306h1204v-128h-1204v128z" />
<glyph unicode="`" horiz-adv-x="458" d="M-73 1307l178 116l269 -268l-105 -50z" />
<glyph unicode="a" horiz-adv-x="1201" d="M-12 192q0 84 55.5 158.5t140 123t172 79t164.5 38.5q-32 55 -140 133q-14 8 -32 8q-11 0 -23.5 -3t-25 -7.5t-21.5 -9t-19.5 -9.5t-12.5 -6l-61 44l254 182q34 20 68 20q74 0 139 -76q127 -148 226.5 -305t217.5 -381l11 -19l-230 -157l-14 31q-74 157 -132 236l-18 -27 q-20 -29 -56 -66t-90 -79.5t-126 -71t-142 -28.5q-54 0 -105 10.5t-97.5 31.5t-74.5 60t-28 90zM201 361q0 -33 22.5 -57.5t60.5 -37t78 -18t83 -5.5q140 0 222 36l36 15q-69 75 -159.5 110.5t-226.5 35.5q-34 0 -75 -24t-41 -55z" />
<glyph unicode="b" horiz-adv-x="1211" d="M-31 1188l226 147q33 24 91.5 60t76.5 36q65 -9 65 -113v-603l52 55q159 172 334 172q94 0 165 -54t104 -133.5t33 -167.5q0 -105 -62.5 -214t-155 -189.5t-200 -132t-195.5 -51.5q-76 0 -136.5 32t-97 81t-61 114.5t-33.5 127t-9 122.5v583q0 32 -4.5 52.5t-13 29 t-15 10.5t-14.5 2q-31 0 -71 -24l-19 -12zM428 559q0 -194 58 -274t220 -80q63 0 120.5 64.5t57.5 133.5q0 57 -17.5 116.5t-49.5 111t-85 84t-118 32.5q-46 0 -100 -18l-86 -30v-140z" />
<glyph unicode="c" horiz-adv-x="896" d="M10 423q0 84 51.5 177.5t129.5 167t176.5 121.5t188.5 49q98 -2 172 -50.5t74 -103.5q0 -29 -23.5 -61t-58.5 -58t-63.5 -43.5t-48.5 -26.5l-25 -10l-15 22q-4 6 -20.5 32.5t-22.5 35t-22 29.5t-27 29.5t-28 20.5t-35.5 16.5t-39.5 4.5q-51 0 -102.5 -50.5t-51.5 -108.5 q0 -71 40.5 -147t99 -133.5t126 -95t119.5 -37.5h2q43 0 101 17t95 34l37 17l-70 -78q-29 -32 -63 -60.5t-84 -61t-113 -52t-129 -19.5q-90 0 -177.5 70.5t-139.5 168.5t-53 184z" />
<glyph unicode="d" horiz-adv-x="1317" d="M19 496q0 115 58 217.5t154.5 163.5t204.5 61q81 0 147 -43t104 -104v571l270 100l55 -1117q0 -90 62 -90q30 0 70 23l20 11l60 -67l-342 -194q-52 -28 -92 -28h-14q-44 0 -63 21t-19 51v130q-115 -97 -214 -149.5t-205 -52.5q-54 0 -99.5 40t-73.5 98.5t-47.5 129 t-27.5 128.5t-8 100zM218 618q0 -103 37.5 -206t99 -169.5t125.5 -66.5h7q33 2 81 57t83.5 131t35.5 131v13v96q-48 -105 -92 -122l-30 -15l-12 37q-12 103 -20 132q-33 121 -152 153q-48 13 -111 13h-2q-50 0 -50 -184z" />
<glyph unicode="e" horiz-adv-x="914" d="M11 375q0 60 24 133.5t72.5 149.5t114 138.5t157 102t192.5 39.5q95 0 161.5 -45.5t66.5 -122.5q0 -59 -38.5 -120t-91 -107t-117.5 -87.5t-108 -63.5t-72 -34q-17 -7 -32 1t-16 21t13 24q132 83 132 240q0 45 -27 78t-91 33q-49 0 -88.5 -51t-40.5 -117v-4 q0 -53 28.5 -115.5t76 -118.5t119 -93.5t149.5 -38.5q57 9 101.5 25t66 27t30.5 11t17 -8t8 -17t-8 -17q-4 -4 -23.5 -26.5t-32 -36t-38 -38t-47 -40.5t-53 -36.5t-61.5 -32t-67.5 -20t-75.5 -8.5q-92 0 -184.5 51.5t-154.5 139.5t-62 184z" />
<glyph unicode="f" horiz-adv-x="1088" d="M-23 506l56 199l202 -15v54q1 162 44 294.5t112 216t154 128.5t175 45q37 0 92.5 -18.5t87.5 -34t50 -25.5l3 -44l-164 -142l-40 -17l1 20q-14 20 -61.5 55t-93.5 35q-49 0 -77.5 -78t-28.5 -215q0 -4 8 -268q66 -4 100 -4q43 0 124 4t119 4h68l-49 -48 q-27 -26 -51 -66.5t-35 -79.5l-7 -22l-23 3q-16 2 -52.5 7.5t-65.5 8.5t-59 3q-9 0 -36.5 -4t-31.5 -4l21 -717l-263 -187l-7 919z" />
<glyph unicode="g" horiz-adv-x="1099" d="M23 568q0 29 4.5 56t15 51t20.5 43.5t27.5 39.5t28.5 32.5t31 29t28 23t27 20.5t21 15q54 31 150.5 51.5t157.5 20.5l104 -12q103 -11 184 -11q92 0 159 16l59 15l-94 -169l-19 -18q16 -38 16 -83q0 -101 -25.5 -172t-86 -124t-165.5 -80.5t-259 -31.5q259 -10 408 -89.5 t149 -162.5q0 -123 -71 -228t-193.5 -167t-265.5 -62q-87 0 -165.5 32.5t-130 81.5t-82 103t-30.5 100q0 44 15.5 85t36 67.5t45 48.5t39.5 31t22 12q30 10 39 10q1 0 18 -14.5t17 -15.5q0 -6 -9.5 -35.5t-9.5 -76.5q0 -116 88.5 -185t230.5 -69q89 0 167.5 36.5t78.5 71.5 v38q0 54 -70 109.5t-167.5 93.5t-197 62t-161.5 24h-45l65 121q-82 21 -143.5 105t-61.5 161zM236 672q0 -113 92 -197.5t227 -84.5q73 0 128.5 48.5t55.5 94.5v37q0 116 -99 185t-246 69q-54 0 -112 -41q-46 -65 -46 -106v-5z" />
<glyph unicode="h" horiz-adv-x="1282" d="M-41 1188l282 180q78 55 122 55q25 0 38 -23.5t15 -79.5l22 -847q58 57 147 156.5t143.5 158.5t122 107.5t118.5 48.5q34 0 61.5 -25.5t48.5 -78.5t37.5 -120t30 -163.5t23 -195t19.5 -228.5l-239 -159l-6 26q-7 49 -15 121.5t-13.5 119.5t-14.5 105t-21 94t-29.5 69.5 t-42.5 49t-58 15.5h-5q-59 -15 -206 -184t-295 -390l-51 -83l-37 1144q0 94 -47 94q-31 0 -71 -24l-20 -12z" />
<glyph unicode="i" horiz-adv-x="613" d="M15 731l313 191q37 30 68 30q29 0 44.5 -26.5t15.5 -69.5v-736l-247 -146l3 636q0 30 -4.5 49.5t-13 27.5t-15 10t-14.5 2q-30 0 -71 -23l-19 -11zM157 1213q0 6 2 16q7 35 47 68l152 112l12 -35q27 -77 114 -157l25 -24l-186 -124q-19 -7 -30 -7q-52 0 -94 50.5 t-42 100.5z" />
<glyph unicode="j" horiz-adv-x="581" d="M20 716l313 201q38 27 68 27q18 0 37 -10q23 -17 23 -64l2 -1109l-250 -163l4 1014q0 22 -4.5 37t-13 20.5t-15 7t-14.5 1.5q-31 0 -71 -20l-19 -12zM123 1236q0 6 2 14q7 28 47 52l152 111l30 -60q6 -19 12 -32.5t17 -27t16.5 -19.5t24 -24t26.5 -26l25 -27l-186 -126 q-15 -9 -30 -9q-54 0 -95 63t-41 111z" />
<glyph unicode="k" horiz-adv-x="1184" d="M-26 1194l322 202q49 30 73 30t41 -17q25 -25 25 -83v-841q110 79 149 122q45 50 45 87q0 27 -23.5 45t-58.5 18h-76l227 193h12q69 0 116 -12t69 -32.5t30 -39t8 -40.5q0 -29 -23.5 -64t-68.5 -73t-80.5 -64.5t-89.5 -63.5q57 -74 163.5 -181t130.5 -133q53 -46 85 -46 q6 0 12.5 1.5t8.5 1.5q8 0 16 -13q5 -8 5 -15q0 -10 -11 -18l-174 -131q-29 -21 -56 -21q-12 0 -23 3.5t-22.5 12.5t-19 15t-21.5 20l-19 19l-311 388v-321l-258 -168l-5 1092q0 94 -46 94q-28 0 -69 -24l-20 -11z" />
<glyph unicode="l" horiz-adv-x="538" d="M-23 1189l311 194q5 3 18.5 10.5t19 10.5t14 6t15.5 3q29 0 44.5 -27.5t15.5 -72.5l3 -1182l-250 -159l5 1090q0 93 -46 93q-32 0 -72 -24l-20 -12z" />
<glyph unicode="m" horiz-adv-x="2039" d="M-9 715l316 196q40 30 68 30q28 -3 45.5 -21t32.5 -77l42 -389q75 91 116 139t100 115t95 101.5t78 70t74.5 50t60.5 14.5q25 0 45.5 -9.5t35.5 -30.5t26.5 -43.5t20 -59.5t14 -66t9.5 -76.5t6.5 -78t6 -82.5t5.5 -79q32 41 80.5 107.5t79.5 108t73.5 95t76.5 86t74 63.5 t80.5 45t81.5 14q25 -1 45.5 -15.5t37 -44t29.5 -63t23.5 -85.5t18.5 -98t15.5 -115t13 -122t13.5 -132.5t14 -133.5l-244 -154l-5 25q-2 18 -7 78t-10.5 107t-14.5 113.5t-21.5 115.5t-29.5 95.5t-41 71t-53 24.5q-26 0 -57.5 -18.5t-66.5 -57t-65.5 -77t-71 -100 t-66.5 -102.5t-67 -109t-59 -96l-39 -61l-14 68q-9 40 -21.5 110.5t-21 121t-24.5 111t-33.5 98.5t-45.5 64t-63 26q-38 0 -84.5 -29.5t-87.5 -72t-93 -110.5t-89 -122.5t-89 -132t-80 -116.5l-52 -80v80q0 33 0.5 100.5t0.5 101.5q0 233 -23 388q-8 56 -24.5 74.5 t-40.5 18.5q-31 0 -71 -24l-19 -11z" />
<glyph unicode="n" horiz-adv-x="1333" d="M-9 715l319 196q40 30 70 30q30 -3 47.5 -21t33.5 -77l44 -389q241 281 337 371q129 119 202 119h2q75 0 122 -132q20 -56 35.5 -139.5t22 -145t14.5 -153t11 -114.5l-202 -265l-12 58q-8 40 -21.5 124t-25 144t-28.5 125t-41 100t-54 35q-43 0 -97 -32t-105.5 -79.5 t-121.5 -131t-124.5 -155t-136.5 -183.5l-54 -80v80q0 33 0.5 100.5t0.5 101.5q0 233 -23 388q-8 56 -24.5 74.5t-40.5 18.5q-31 0 -71 -24l-19 -11z" />
<glyph unicode="o" horiz-adv-x="1025" d="M6 356q0 158 168 258l64 34q-22 -44 -30 -78q-9 -40 -9 -108q0 -88 50 -154.5t125.5 -98.5t162.5 -32q67 0 109.5 40.5t42.5 96.5q0 124 -51 237t-136 163q-36 21 -88 21h-4q-55 -2 -112.5 -21.5t-73.5 -44.5q-13 -20 -34.5 -10.5t-15.5 32.5q18 64 81 123t137 91.5 t131 32.5q99 0 191 -64.5t147 -165.5t55 -204q0 -83 -50 -173.5t-130 -163t-190 -120t-221 -47.5q-92 0 -167.5 58t-113.5 139t-38 159z" />
<glyph unicode="p" horiz-adv-x="1209" d="M-6 714l320 194q42 30 71 30h11q12 -1 20.5 -2.5t21 -7t21 -15t15 -27.5t6.5 -42v-128q51 46 75 67t70.5 57t78 53t73.5 31t80 14q72 0 133.5 -80t92.5 -184.5t31 -193.5q0 -84 -55.5 -167.5t-140.5 -146t-184 -107t-190 -59.5q-13 -1 -28.5 15.5t-15.5 30.5 q0 3 13.5 10.5t33.5 17.5t27 14q17 9 49 24.5t50 24.5t45 24.5t42.5 27t34.5 29t28.5 33.5t16.5 37t7 44q0 77 -32.5 170.5t-78.5 156.5t-82 63q-14 0 -52 -33t-77.5 -89.5t-47.5 -107.5l-2 -794l-271 -88l-13 982q0 31 -4.5 50.5t-13 27.5t-15 10t-14.5 2q-30 0 -71 -23 l-19 -12z" />
<glyph unicode="q" horiz-adv-x="1172" d="M10 376q0 71 53.5 169.5t132 184.5t177.5 147t182 61q62 0 112.5 -9.5t114.5 -27t108 -26.5l23 -4l55 -1071q0 -37 32 -50t100 -13h149l-114 -52q-192 -89 -415 -131l-34 -7v85v178q0 598 -54 832q-3 3 -19 18t-19 17t-17 13t-20.5 12.5t-22.5 8.5t-30 8t-35.5 4.5 t-46.5 4t-56 0.5q-34 0 -68.5 -37t-44.5 -114v-17q2 -63 21.5 -121t59.5 -113t69 -88t83 -87q10 -5 21 -5q10 0 21.5 2.5t19.5 5t21.5 8t18 7.5t20.5 10l18 9l2 -24l-148 -132q-43 -32 -92 -32h-17q-78 0 -136 28q-109 76 -167 155.5t-58 192.5z" />
<glyph unicode="r" horiz-adv-x="1004" d="M-4 722l323 191q41 29 78 29q31 0 49.5 -25t18.5 -75v-152l181 158q7 4 32.5 29t53.5 43t55 18q83 0 136 -190l5 -18l-219 -174l-15 32q-45 98 -79 98q-7 0 -28 -16.5t-53.5 -53.5t-58.5 -81v-414l-282 -147v627q0 30 -4.5 49.5t-13 27.5t-15 10t-14.5 2q-30 0 -71 -23 l-19 -11z" />
<glyph unicode="s" horiz-adv-x="882" d="M28 144q0 29 16 58t46.5 56.5t54.5 46t60 42t44 29.5l22 15l63 -65l-72 -41l-3 -5q0 -3 5 -14.5t18 -30t32 -35.5t52 -29t73 -12q43 0 72.5 17.5t29.5 43.5q0 63 -51 104.5t-124.5 62.5t-146.5 40.5t-124 52t-51 81.5q0 64 54.5 134.5t131.5 122.5t160 86t140 34 q79 -2 140 -40t61 -86q-4 -30 -27.5 -52.5t-72.5 -52.5t-77 -54l-25 -21l-20 29q-40 54 -90 77t-91 23q-18 0 -28 -5q-33 -21 -33 -50q0 -57 52 -91.5t126.5 -51l149 -33t126.5 -52.5t52 -96q0 -85 -88.5 -176t-212.5 -148.5t-226 -57.5q-97 0 -157.5 38.5t-60.5 105.5z" />
<glyph unicode="t" horiz-adv-x="847" d="M-17 866l41 46q73 82 93 160l5 20h144v182l289 175v-354h291l-27 -43q-36 -52 -49.5 -71t-42.5 -48.5t-66 -54.5l-106 4v-615q0 -55 58 -69q38 1 76 43l35 35l26 -101q-54 -72 -135 -123.5t-148 -51.5h-5q-13 2 -38 4l-37.5 3t-32 6.5t-30 13t-23.5 22t-19.5 35.5t-11 52 t-4.5 71v659h-283z" />
<glyph unicode="u" horiz-adv-x="1243" d="M-11 720l293 192q39 26 73 26q66 0 67 -90q3 -28 7 -81t8 -99.5t10.5 -102.5t15.5 -100.5t22 -83t32.5 -59.5t44.5 -21q69 0 148.5 92.5t129.5 206t50 183.5v12l237 186v-59q0 -61 -1 -182.5t-1 -180.5q0 -268 22 -442l-270 -182v520q-140 -271 -301 -382 q-104 -73 -212 -73q-68 0 -96 110q-17 62 -33.5 236t-34.5 257q-5 39 -15 59t-19.5 23.5t-26.5 3.5q-31 0 -71 -22l-20 -11z" />
<glyph unicode="v" horiz-adv-x="1238" d="M-25 788l268 131q4 2 10.5 5.5t10.5 5.5t9.5 4t11.5 3t13 1q45 -3 96.5 -68.5t94 -151t110.5 -213t125 -212.5l132 245q30 50 30 98q0 83 -73 83h-6q-12 -1 -24 -10t-49 -44l-23 -21l-66 71l21 18q22 19 63.5 54.5t61 52t51 41t50.5 35.5t41 19.5t40 8.5q66 0 125 -35 t59 -93q0 -27 -46.5 -110.5t-123.5 -198t-142.5 -208.5t-138 -195t-74.5 -104h-90l-7 19q-49 120 -92 211.5t-99 190t-122.5 180.5t-142.5 146h-5q-15 0 -30 -9l-22 -13z" />
<glyph unicode="w" horiz-adv-x="1981" d="M-27 788l267 131q35 19 52 19q22 0 41 -13q43 -27 92 -117t117.5 -248t100.5 -222l159 246q24 36 66.5 106t62.5 98q63 90 115 91h3q57 0 126 -95q35 -49 76.5 -125.5t98 -189.5t94.5 -182l158 245q28 51 28 98q0 83 -70 83h-5q-12 -1 -24 -10t-46 -44l-22 -21l-63 71 l20 18q21 19 60.5 54.5t58 52t49 41t48.5 35.5t40 19.5t40 8.5q66 0 125 -35t59 -93q0 -34 -84 -155.5t-224.5 -319t-227.5 -341.5h-93q-61 183 -134.5 325.5t-129.5 208.5t-90 69q-17 -10 -53.5 -73.5t-122 -219t-173.5 -301.5h-72q-99 297 -155 422q-126 281 -260 318 l-4 4l-2 1h-3q-14 0 -30 -10l-22 -13z" />
<glyph unicode="x" horiz-adv-x="1197" d="M13 754l316 170q28 14 52 14q39 0 79 -59l190 -297q104 73 125 94q22 23 22 42q0 32 -72 85l-28 21l180 139l125 -53q61 -36 61 -71q-2 -12 -3 -17t-11.5 -18t-30.5 -26l-318 -250l200 -273q29 -38 62.5 -59.5t56.5 -21.5h3l61 53l26 -82q-138 -97 -185 -124t-80 -27 q-61 0 -96 47l-238 349q-9 -7 -33.5 -27t-35 -29.5t-26 -25t-22 -28.5t-6.5 -26q0 -31 47 -68l109 -51l-213 -125q-246 18 -246 108q0 34 38 65l336 253l-205 268q-19 30 -67 30q-45 0 -104 -28l-19 -9z" />
<glyph unicode="y" horiz-adv-x="1196" d="M-15 715l293 192q48 28 73 28t43 -17q25 -22 25 -75q3 -28 7.5 -81t8.5 -99.5t10.5 -102.5t15.5 -100.5t22 -83t32.5 -59.5t44.5 -21q47 3 114.5 95t116 206.5t48.5 180.5v12l236 186v-60q0 -61 -1 -183t-1 -182v-249q0 -154 5.5 -324t6.5 -225v-3q0 -40 -20.5 -69.5 t-49.5 -45.5t-77 -28t-84.5 -16t-92 -9t-81.5 -9l-34 -4v108l24 4q66 13 111 36.5t45 48.5v652q-29 -66 -62.5 -124.5t-79.5 -118.5t-104.5 -103.5t-123.5 -62.5q-47 -14 -95 -14q-47 0 -74 47q-27 45 -39.5 138.5t-23.5 217t-28 200.5q-5 39 -15 59t-19.5 23.5t-26.5 3.5 q-31 0 -71 -22l-20 -12z" />
<glyph unicode="z" horiz-adv-x="902" d="M35 764q0 38 22 78t62.5 78t70 61t70.5 52l48 31v-54q0 -46 25.5 -64.5t89.5 -18.5q189 0 352 32l72 15l-45 -58q-34 -41 -134 -154t-163 -195t-109 -165q-43 -58 -43 -85q0 -32 54 -52t135 -20q66 0 145.5 5.5t108.5 5.5h62l-284 -256h-152q-201 0 -288 22t-87 87 q0 34 12 58.5t33.5 50t30.5 40.5l337 440h-330h-6q-89 0 -89 66z" />
<glyph unicode="{" horiz-adv-x="716" d="M-16 534v161l23 3q62 10 111.5 58.5t49.5 132.5v307q0 57 17 105t43 79t59 52.5t64.5 30.5t60.5 9h198v-152h-112q-104 0 -104 -159v-295q0 -119 -62 -175q-56 -52 -129 -75q88 -31 139.5 -90.5t51.5 -163.5v-294q0 -88 26.5 -124t77.5 -36h112v-152h-198q-35 0 -75 16 t-79 47t-64.5 87t-25.5 127v307q0 83 -49.5 132t-111.5 59z" />
<glyph unicode="|" horiz-adv-x="357" d="M68 -28v1516h182v-1516h-182z" />
<glyph unicode="}" horiz-adv-x="631" d="M-56 -102h101q113 0 113 170v294q0 115 60 169q56 53 132 74l24 6l-23 8q-91 32 -142 89t-51 158v295q0 92 -29 130.5t-84 38.5h-101v132h187q33 0 71.5 -15t76 -44.5t62.5 -83.5t25 -123v-307q0 -85 48.5 -136t112.5 -63l23 -4v-142l-23 -4q-64 -12 -112.5 -63.5 t-48.5 -136.5v-307q0 -69 -24.5 -123t-62 -84t-76 -45t-72.5 -15h-187v132z" />
<glyph unicode="~" horiz-adv-x="938" d="M-70 509q51 94 108.5 131.5t139.5 37.5q59 0 124 -21.5t112.5 -47.5t103 -47.5t97.5 -21.5q39 0 73.5 21t77.5 79l29 39l64 -153q-50 -93 -107.5 -130.5t-139.5 -37.5q-58 0 -123 21.5t-113 47.5t-103.5 47.5t-96.5 21.5q-39 0 -74 -21.5t-77 -78.5l-28 -38z" />
<glyph unicode="&#xad;" horiz-adv-x="904" d="M30 494v172h844v-172h-844z" />
<glyph unicode="&#x591;" />
<glyph unicode="&#x592;" />
<glyph unicode="&#x593;" />
<glyph unicode="&#x594;" />
<glyph unicode="&#x595;" />
<glyph unicode="&#x596;" />
<glyph unicode="&#x597;" />
<glyph unicode="&#x598;" />
<glyph unicode="&#x599;" />
<glyph unicode="&#x59a;" />
<glyph unicode="&#x59b;" />
<glyph unicode="&#x59c;" />
<glyph unicode="&#x59d;" />
<glyph unicode="&#x59e;" />
<glyph unicode="&#x59f;" />
<glyph unicode="&#x5a0;" />
<glyph unicode="&#x5a1;" />
<glyph unicode="&#x5a2;" />
<glyph unicode="&#x5a3;" />
<glyph unicode="&#x5a4;" />
<glyph unicode="&#x5a5;" />
<glyph unicode="&#x5a6;" />
<glyph unicode="&#x5a7;" />
<glyph unicode="&#x5a8;" />
<glyph unicode="&#x5a9;" />
<glyph unicode="&#x5aa;" />
<glyph unicode="&#x5ab;" />
<glyph unicode="&#x5ac;" />
<glyph unicode="&#x5ad;" />
<glyph unicode="&#x5ae;" />
<glyph unicode="&#x5af;" />
<glyph unicode="&#x5b0;" d="M-98 -225q0 47 28 78.5t70 31.5q44 0 71 -32t27 -78q0 -47 -28 -78t-70 -31q-44 0 -71 32t-27 77zM-98 -479q0 47 28 78.5t70 31.5q44 0 71 -32t27 -78q0 -47 -28 -78t-70 -31q-44 0 -71 32t-27 77z" />
<glyph unicode="&#x5b1;" d="M-330 -224q0 47 27 78.5t69 31.5q44 0 71 -32t27 -78q0 -47 -28 -78t-70 -31t-69 32t-27 77zM-212 -478q0 47 27 78.5t69 31.5q44 0 71 -32t27 -78q0 -47 -27.5 -78t-70.5 -31q-42 0 -69 32t-27 77zM-94 -224q0 47 27.5 78.5t69.5 31.5q43 0 70 -32t27 -78 q0 -47 -27.5 -78t-69.5 -31q-44 0 -70.5 32t-26.5 77zM138 -224q0 47 27.5 78.5t69.5 31.5q43 0 70 -32t27 -78q0 -47 -27.5 -78t-69.5 -31q-44 0 -70.5 32t-26.5 77zM138 -478q0 47 27.5 78.5t69.5 31.5q43 0 70 -32t27 -78q0 -47 -27.5 -78t-69.5 -31q-44 0 -70.5 32 t-26.5 77z" />
<glyph unicode="&#x5b2;" d="M-290 -139h352v-149h-352v149zM104 -224q0 47 27.5 78.5t69.5 31.5q44 0 70.5 -32t26.5 -78q0 -47 -27.5 -78t-69.5 -31q-43 0 -70 32t-27 77zM104 -478q0 47 27.5 78.5t69.5 31.5q44 0 70.5 -32t26.5 -78q0 -47 -27.5 -78t-69.5 -31q-43 0 -70 32t-27 77z" />
<glyph unicode="&#x5b3;" d="M-296 -139h350v-149h-128v-6v-2q0 -43 13 -77l40 -99l-4 -11q-28 -65 -57 -93l-5 -5l-7 -2q-12 -4 -29 -4q-16 0 -28 4l-5 2l-5 4q-36 31 -56 96l-3 10l40 99q10 23 10 74v10h-126v149zM98 -224q0 47 27 78.5t69 31.5q44 0 71 -32t27 -78q0 -47 -28 -78t-70 -31t-69 32 t-27 77zM98 -478q0 47 27 78.5t69 31.5q44 0 71 -32t27 -78q0 -47 -28 -78t-70 -31t-69 32t-27 77z" />
<glyph unicode="&#x5b4;" d="M-98 -225q0 47 28 78.5t70 31.5q44 0 71 -32t27 -78q0 -47 -28 -78t-70 -31q-44 0 -71 32t-27 77z" />
<glyph unicode="&#x5b5;" d="M-206 -224q0 47 28 78.5t70 31.5q44 0 71 -32t27 -78q0 -47 -28 -78t-70 -31q-44 0 -71 32t-27 77zM10 -224q0 47 28 78.5t70 31.5q44 0 71 -32t27 -78q0 -47 -28 -78t-70 -31q-44 0 -71 32t-27 77z" />
<glyph unicode="&#x5b6;" d="M-216 -224q0 47 28 78.5t70 31.5q44 0 71 -32t27 -78q0 -47 -28 -78t-70 -31q-44 0 -71 32t-27 77zM-98 -468q0 47 28 78.5t70 31.5q44 0 71 -32t27 -78q0 -47 -28 -78t-70 -31q-44 0 -71 32t-27 77zM20 -224q0 47 28 78.5t70 31.5q44 0 71 -32t27 -78q0 -47 -28 -78 t-70 -31q-44 0 -71 32t-27 77z" />
<glyph unicode="&#x5b7;" d="M-176 -115h354v-149h-354v149z" />
<glyph unicode="&#x5b8;" d="M-176 -139h352v-149h-128v-6v-4q0 -39 12 -75l39 -99l-3 -10q-22 -61 -57 -95l-5 -6l-8 -1q-12 -3 -26 -3q-16 0 -29 4l-5 2l-4 3q-36 30 -57 97l-3 9l39 101q4 9 7.5 36.5t3.5 36.5v10h-128v149z" />
<glyph unicode="&#x5b9;" d="M-98 1273q0 47 28 78.5t70 31.5q44 0 71 -32t27 -78q0 -47 -28 -78t-70 -31q-44 0 -71 32t-27 77z" />
<glyph unicode="&#x5ba;" d="M-98 1273q0 47 28 78.5t70 31.5q44 0 71 -32t27 -78q0 -47 -28 -78t-70 -31q-44 0 -71 32t-27 77z" />
<glyph unicode="&#x5bb;" d="M-252 -216q0 44 26 75.5t68 31.5t69 -31.5t27 -75.5q0 -46 -27.5 -76.5t-68.5 -30.5q-42 0 -68 31.5t-26 75.5zM-94 -350q0 44 26 75.5t68 31.5t69 -31.5t27 -75.5q0 -46 -27.5 -76.5t-68.5 -30.5q-42 0 -68 31.5t-26 75.5zM62 -484q0 44 26.5 75.5t68.5 31.5t68.5 -31.5 t26.5 -75.5q0 -46 -27 -76.5t-68 -30.5q-42 0 -68.5 31.5t-26.5 75.5z" />
<glyph unicode="&#x5bc;" d="M-88 519q0 43 25 70.5t63 27.5q39 0 63.5 -28.5t24.5 -69.5q0 -43 -25 -70.5t-63 -27.5q-39 0 -63.5 28.5t-24.5 69.5z" />
<glyph unicode="&#x5bd;" d="M-74 -135h148v-399h-148v399z" />
<glyph unicode="&#x5be;" horiz-adv-x="686" d="M39 887q2 22 7 33q0 1 2 3.5t2 4.5q8 23 20.5 46.5t19.5 34t24 33t18 24.5l9 12h413q8 0 16 -2q30 -4 48.5 -23t18.5 -48q0 -26 -15 -52q-34 -86 -98 -145l-8 -8h-388q-4 1 -13.5 1.5t-15.5 2.5q-37 11 -52 46q-8 17 -8 37z" />
<glyph unicode="&#x5bf;" d="M-222 1169v149h444v-149h-444z" />
<glyph unicode="&#x5c0;" horiz-adv-x="644" d="M207 -163v1393h178v-1393h-178z" />
<glyph unicode="&#x5c1;" d="M-98 1270q0 47 28 78.5t70 31.5q44 0 71 -32t27 -78q0 -47 -28 -78t-70 -31q-44 0 -71 32t-27 77z" />
<glyph unicode="&#x5c2;" d="M-97 1269q0 47 27.5 78.5t69.5 31.5q44 0 71.5 -32t27.5 -78t-28.5 -77.5t-70.5 -31.5q-44 0 -70.5 32t-26.5 77z" />
<glyph unicode="&#x5c3;" horiz-adv-x="545" d="M89 138v19q1 6 12 22l185 145q29 -108 154 -213l-189 -127q-13 -5 -26 -5q-43 0 -89.5 52.5t-46.5 106.5zM89 811v6v7v6q1 6 12 22l185 145q29 -108 154 -213l-189 -127q-13 -5 -26 -5q-43 0 -89.5 52.5t-46.5 106.5z" />
<glyph unicode="&#x5c4;" />
<glyph unicode="&#x5c5;" />
<glyph unicode="&#x5c6;" horiz-adv-x="706" d="M155 214v10q11 52 40 141.5t48 169t19 150.5q0 10 4.5 24.5t15.5 40.5t13 31h-13q-25 0 -48.5 4t-37.5 10t-14 11v49q0 2 2.5 77t19.5 116l20 36q12 5 30 5q20 0 62 -10.5t62 -11.5q14 -2 53 -2q129 0 159 42l51 72v-86q0 -201 -39 -281h-53q-28 0 -50 -8t-62 -35 q-21 -94 -21 -212v-42q0 -77 -7 -134v-103q100 -55 198 -55h21q49 -55 49 -153q0 -75 -32 -126q-23 5 -82 16t-93.5 18.5t-85.5 21t-94.5 32.5t-83.5 43v7q-32 45 -51 132z" />
<glyph unicode="&#x5c7;" d="M-150 -139h300v-149h-102v-6v-4q0 -39 12 -75l39 -99l-3 -41q-22 -61 -57 -95l-5 -6l-8 -1q-12 -3 -26 -3q-16 0 -29 4l-5 2l-4 3q-36 30 -57 97l-3 9l39 132q4 9 7.5 36.5t3.5 36.5v10h-102v149z" />
<glyph unicode="&#x5d0;" horiz-adv-x="1154" d="M68 419q0 215 144 442l-87 99l185 222l19 -44q53 -124 142.5 -246t214.5 -265q81 66 81 170q0 73 -79 120l-20 12l9 21q68 152 119 224l24 34l24 -32q73 -96 208 -173l20 -11l-8 -22q-46 -134 -122 -196l-29 5q-9 -187 -98 -286q40 -45 83.5 -86t73 -65.5t92.5 -74.5 q-13 -78 -37 -151.5t-38 -98.5q-9 -17 -26 -17h-11q-10 9 -75 66.5t-109.5 100t-115.5 114t-142 156t-139 178.5q-2 3 -7.5 11.5t-9 13.5t-11.5 10.5t-19 8.5q-32 -3 -62.5 -53t-30.5 -123q0 -72 58 -115.5t114 -43.5q36 0 77 23l57 32l-10 -60q-12 -71 -23.5 -130.5 t-17.5 -82.5l-5 -24l-30 -22q-72 0 -136.5 -24.5t-148.5 -72.5l-26 -14l-36 80q6 24 11 39.5t21 43.5t42 63q-47 50 -78.5 116.5t-31.5 127.5z" />
<glyph unicode="&#x5d1;" horiz-adv-x="1005" d="M48 -42q0 123 49 264l8 22l22 -2q32 -4 59 -4q125 0 467 52v436q0 9 -2.5 20.5t-13.5 28.5t-30 25h-432l-36 106l-34 32q37 136 107 200l20 20l20 -20q79 -86 166 -86h80q100 0 177 10h2q35 0 62 -13t44.5 -32.5t30 -53.5t19 -63t10 -73.5t4 -73.5t0.5 -75v-28v-54 q0 -104 5 -162.5t23 -113.5l129 22l-6 -36l-10.5 -59.5t-10 -55t-9 -42.5t-12.5 -45.5t-15 -38.5t-21 -45q-73 -10 -224.5 -32.5t-221 -31t-181.5 -17.5t-217 -9h-28v28z" />
<glyph unicode="&#x5d2;" horiz-adv-x="696" d="M33 0q1 121 35.5 199.5t103 127.5t187.5 85q-39 127 -39 222q0 72 10 144q-44 7 -58 10t-44 12t-75 27q-12 64 -12 96q0 41 12 76q28 78 114 132l38 26l4 -33q0 -16 16 -40t36 -33q8 -2 33.5 -7.5t40.5 -9t39 -11t38.5 -16.5t29.5 -21.5t22.5 -30t7.5 -38.5q0 -13 -5 -30 t-16 -38t-18 -35t-21.5 -37.5t-17.5 -28.5q-10 -29 -10 -61q0 -20 7.5 -60.5t7.5 -43.5q6 -17 19.5 -62t19 -61t18 -42.5t25.5 -38.5t31 -18q48 -48 48 -193q0 -48 -6 -77.5t-23 -80.5l-2 4q-11 -14 -22.5 -26t-18 -18.5t-13 -12t-7.5 -6.5l-29 -29l-16 29 q-47 120 -97.5 177t-94.5 57q-22 0 -41 -8t-33 -18.5t-33 -36t-30.5 -43.5t-37 -59t-41.5 -66l-20 -28z" />
<glyph unicode="&#x5d3;" horiz-adv-x="1019" d="M62 950q16 61 38.5 103.5t68.5 87.5l20 20l20 -20q9 -10 20.5 -25.5t18.5 -24.5t24 -18t41 -13q94 -8 163 -8h30q235 0 379 20q60 -106 60 -224v-20l-21 -5q-54 -13 -91 -55.5t-37 -78.5q0 -50 32.5 -199.5t32.5 -221.5q0 -73 -27.5 -133.5t-83.5 -134.5l-18 -27l-60 44 q0 147 -11.5 249.5t-48.5 222.5q-14 53 -14 115v68q0 71 18 126q-86 -9 -235 -9q-195 0 -252 28l-33 100z" />
<glyph unicode="&#x5d4;" horiz-adv-x="1091" d="M70 976q16 59 38.5 100.5t68.5 86.5l20 19l20 -20q6 -6 23 -26.5t26 -28t29.5 -18t45.5 -15.5q126 -22 269 -22q134 0 335 27q34 -60 49.5 -107t15.5 -107v-14q-27 -17 -41.5 -29.5t-29 -42t-14.5 -69.5q0 -51 32.5 -206.5t32.5 -228.5t-28 -135t-83 -135l-18 -24l-55 48 v7q0 109 -35 323.5t-35 307.5q0 92 19 147q-108 -12 -245 -12q-24 0 -173.5 9t-179.5 9h-21l-32 123zM124 304q0 253 162 429l58 29q-43 -171 -43 -250v-24q0 -83 12.5 -122.5t57.5 -85.5q-83 -226 -116 -280l-13 -22l-83 41q-35 194 -35 285z" />
<glyph unicode="&#x5d5;" horiz-adv-x="546" d="M62 950l4 28q27 98 103 168l20 20l20 -20q13 -16 23.5 -34.5t16 -26t22.5 -16.5t49 -17q34 -1 59.5 -19t41 -51.5t25.5 -69.5t14.5 -87t6 -88t1.5 -87v-63v-100q0 -53 -1 -147t-1 -126q-1 -3 -5.5 -23.5t-7 -30.5l-8 -32t-11.5 -37t-13.5 -34.5t-17.5 -36.5t-21 -32 l-31 -42l-48 128l-18 732q-4 -4 -27 -4h-125q-4 22 -18 60t-19 54z" />
<glyph unicode="&#x5d6;" horiz-adv-x="594" d="M73 933v25q0 70 10 121t44 122l14 33l31 -33q19 -19 36.5 -35t31 -28.5t32 -26t28 -21t31 -20t29 -17t33.5 -17.5t32.5 -16.5t39 -19t41.5 -19.5v5q13 -35 13 -71q0 -34 -14 -97.5t-16 -75.5v-33l-182 85q1 -30 20 -134q12 -66 34 -132t35.5 -122t13.5 -130 q0 -56 -4.5 -77t-22.5 -56l-99 -194l-17 62q-46 212 -150 483l-8 57q0 40 9 81.5t16 63t27.5 71.5t25.5 64q-11 7 -27 17.5t-20.5 13t-14 10t-12 10t-10.5 12t-13.5 17z" />
<glyph unicode="&#x5d7;" horiz-adv-x="1135" d="M64 968q16 59 38.5 100.5t68.5 86.5l20 19l20 -20q1 -1 11.5 -12t13.5 -13.5t13 -12t17.5 -13t19 -9.5t24.5 -9.5t29 -6.5q136 -26 320 -26q142 0 334 25q60 -106 60 -224v-14q-27 -17 -41.5 -29.5t-29 -42t-14.5 -69.5q0 -50 35.5 -182t35.5 -206q0 -84 -42.5 -179.5 t-79.5 -144.5l-18 -25l-55 50v153q0 196 -36 371v3q0 10 -5.5 54t-5.5 54v84v32q0 14 11 54q-122 -12 -243 -12q-28 0 -85.5 4.5t-84.5 4.5q-43 -29 -59 -52t-16 -63q0 -54 14.5 -204t14.5 -226q0 -75 -27 -131t-96 -151l-18 -24l-56 49v13q0 60 2.5 143t2.5 112 q0 152 -21 249v66q0 66 8.5 114t34.5 109q-4 0 -11.5 0.5t-10.5 0.5h-21l-38 117z" />
<glyph unicode="&#x5d8;" horiz-adv-x="1132" d="M70 1012q19 23 43 54.5t41 51.5t37 38l38 36l8 -49q8 -38 76 -93q66 -19 94 -50t28 -83q0 -64 -80 -159q-2 -22 -2 -36q0 -73 28 -190.5t51 -186t34 -95.5q5 0 24 -1.5t28 -1.5q61 0 133.5 33t183.5 133q12 15 23.5 63.5t11.5 114.5q0 55 -3.5 90t-15.5 70t-37 56t-65 32 q-1 0 -6.5 1.5t-8.5 1.5h-8q-20 0 -34.5 -2t-33.5 -9.5t-31.5 -26.5t-16.5 -49l-4 -30l-138 31v20q0 63 12 109t38 77.5t48 49t61 40.5q63 36 159 36q87 0 167 -48q66 -47 86.5 -120t20.5 -172q0 -17 -0.5 -47t-0.5 -43q0 -303 -125 -478q-194 -171 -605 -210 q-71 106 -110.5 294.5t-39.5 379.5v2q3 12 8 23t7 30t2 69l-125 77l18 128z" />
<glyph unicode="&#x5d9;" horiz-adv-x="564" d="M61 942q36 149 103 218l20 -7l20 7q16 -18 35 -41t23 -28t17 -14.5t23.5 -13t35.5 -11.5q8 -2 20 -5.5t16 -5t11.5 -5t14 -8.5t16.5 -13t25 -22q49 -46 49 -177q0 -68 -15.5 -136t-72.5 -250l-9 -29l-108 49v19q0 36 4.5 93.5t4.5 76.5q0 15 2 40.5t2 36.5q0 19 -3.5 31 t-16.5 25.5t-44.5 20.5t-80.5 7h-18l-41 103z" />
<glyph unicode="&#x5da;" horiz-adv-x="970" d="M223 258q0 47 28 78.5t70 31.5q44 0 71 -32t27 -78q0 -47 -28 -78t-70 -31q-44 0 -71 32t-27 77zM223 512q0 47 28 78.5t70 31.5q44 0 71 -32t27 -78q0 -47 -28 -78t-70 -31q-44 0 -71 32t-27 77z" />
<glyph unicode="&#x5db;" horiz-adv-x="970" d="M66 -33l5 33q13 78 18 101.5t15.5 59t30.5 80.5h18q93 0 167.5 4t163 15t155.5 37.5t104 65.5q14 15 14 48q0 16 -4.5 40t-9 42.5t-13 48t-11.5 41.5q-8 21 -18 58t-17 55t-21 40t-36.5 33t-55.5 14h-416l-39 138l-34 36q16 62 38.5 106t68.5 90l21 20l19 -21 q2 -2 18.5 -21.5t25 -26.5t31 -20t52.5 -22q73 -10 132 -10q30 0 89 3.5t86 3.5q30 0 53.5 -4t51 -16t48 -39.5t31.5 -69.5q7 -33 27.5 -125.5t30 -140t19 -119.5t9.5 -128q0 -174 -85 -283q-176 -98 -358 -132.5t-391 -34.5h-33z" />
<glyph unicode="&#x5dc;" horiz-adv-x="976" d="M14 1463q0 19 12 39l141 157q15 10 33 10q40 0 55 -30t15 -90q0 -69 -27.5 -213t-27.5 -195q0 -55 19 -81q7 -10 16 -10l496 2l15 -3q23 -7 37 -16t36 -29q72 -82 72 -198v-4q-29 -97 -141.5 -289.5t-130.5 -230.5q-3 -5 3 -11q5 -4 28 -12l21 -6v-20q0 -109 -86 -240 l-14 -25l-27 12q-51 23 -83 60.5t-41 67.5q-6 18 -6 55v18q4 55 20.5 92t42 66t54 63.5t63.5 106.5t64 174q0 27 -10.5 46.5t-20.5 27t-17 7.5h-411q-71 0 -111 59.5t-40 163.5q0 102 9.5 176.5t21 106.5t21 65.5t9.5 63.5q2 9 0 14q-14 0 -42 -7h-4q-64 7 -64 57z" />
<glyph unicode="&#x5dd;" horiz-adv-x="1120" d="M60 985q16 59 38.5 100.5t68.5 86.5l20 20l20 -21q8 -9 22.5 -28t24.5 -30t30 -23t45 -16q93 -22 219 -22q52 0 157.5 5.5t158.5 5.5q26 0 46.5 -4t34 -14.5t22 -18t14.5 -24.5t8.5 -25t5.5 -28t4 -25q42 -256 42 -511q4 -12 8.5 -17.5t19.5 -16.5q13 -39 13 -72 q0 -23 -3.5 -41.5t-12.5 -49.5t-15 -55l-710 -209h-5q-69 0 -96 43.5t-27 145.5q-40 221 -40 407q0 174 35 262h-2q-15 0 -28.5 3t-21.5 5.5t-10 2.5h-22l-31 132zM319 674q0 -90 18.5 -190.5t36.5 -155.5l19 -56q8 -50 48 -50q6 0 10 0.5t9.5 2.5t17 6t28 9t48.5 14.5 t73 20.5t105.5 28t142.5 36v131q0 78 -9 153.5t-17.5 114.5t-12.5 44q-41 45 -248 45q-125 0 -255 -17q-14 -50 -14 -136z" />
<glyph unicode="&#x5de;" horiz-adv-x="1076" d="M86 134v44q0 66 28.5 163t62.5 175.5t62.5 143.5t28.5 74q0 11 -5.5 24t-20 30t-46 32.5t-76.5 25.5l-28 6l26 86q-3 1 -6.5 9t-3.5 16v8q29 59 49.5 88t59.5 66l31 31l15 -41q2 -6 6 -18.5t5.5 -16.5t6 -14t8 -14t11.5 -13t17 -15.5t23 -17t31 -21t40 -24.5 q25 -13 35 -47q37 28 76 53.5t69 42t63 32.5t52 24t41 17t25 10h6q46 0 82.5 -23t60.5 -58.5t41.5 -90t26.5 -105.5t14.5 -118t6.5 -114t1 -107v-75v-135q0 -53 -21.5 -95t-54 -70.5t-87 -51t-104.5 -34.5t-122.5 -22.5t-125.5 -14.5t-130 -10.5t-119 -10.5q-29 55 -29 98 q0 63 58 172h16q265 0 437 33q52 15 78 51t26 106v48q0 151 -22 220q-23 69 -64 103q-56 -14 -103 -32t-84.5 -42t-66.5 -46.5t-54.5 -55.5t-43.5 -60t-38 -69t-33.5 -73t-35 -82t-37.5 -86l-9 -9t-11.5 -11t-12.5 -11t-16 -12.5t-19.5 -13t-25.5 -16t-31 -16.5z" />
<glyph unicode="&#x5df;" horiz-adv-x="548" d="M69 910l35 84l-15 32q25 88 122 148l37 25l6 -25q11 -81 50 -119q10 -7 21 -13.5t13.5 -8.5t8 -5t6.5 -3.5l7 -3.5t10.5 -5.5t16.5 -8.5l26 -13q51 -22 51 -68v-7q-13 -70 -35 -120t-67 -97q-4 -25 -4 -60q0 -20 -1 -66.5t-1 -70.5q0 -79 14 -150.5t31.5 -117t31.5 -113 t14 -139.5q0 -55 -33 -150.5t-99 -176.5l-19 -24l15 25q-10 -9 -28 -28.5t-23 -29.5l-51 -87v91q1 11 1 12l2 15l-1 -11q1 5 12 41t18 75.5t7 79.5q0 45 -6 105.5t-17 141t-11 83.5q-7 40 -23.5 109.5t-24.5 123.5t-8 118q0 83 14.5 144t51.5 119l-147 107z" />
<glyph unicode="&#x5e0;" horiz-adv-x="620" d="M47 89q0 71 65 149h12q112 0 214 55l-15 103q-5 44 -9 178t-25 228q-27 22 -51 37t-37 21.5t-54 25.5l-21 10l28 82l-15 32q40 97 127 153l36 24l7 -41q4 -23 12 -35t36 -34q64 -37 102 -76t48 -69l2 -13q-7 -34 -21 -63.5t-14 -46.5v-2q-6 -45 -6 -76q0 -70 20 -158 t50 -188.5t40 -149.5q-24 -112 -47 -143q-42 -25 -85.5 -44t-92.5 -32.5t-81 -20.5t-88.5 -17t-77.5 -14l-21 -5l-9 19q-29 60 -29 111z" />
<glyph unicode="&#x5e1;" horiz-adv-x="1041" d="M61 967q13 51 33 79t76 84l30 30l15 -40q17 -44 66 -56t175 -12q84 0 217 7t149 7h15q45 -66 65.5 -100.5t47 -96t37 -132t10.5 -163.5q0 -52 -2.5 -89t-11 -71.5t-14 -53t-21.5 -60.5t-24 -66q-27 -36 -61.5 -67t-64.5 -52t-76 -44t-76 -36t-87.5 -37t-88.5 -37l-68 10 q-108 106 -185 272.5t-77 340.5q0 34 2.5 60t4.5 41t12 36t13.5 27.5t22 34t25.5 38.5q-44 8 -108 27l-18 86zM297 670q0 -69 3 -107.5t17.5 -96.5t49 -116t91.5 -127q126 4 238 78.5t159 181.5q-1 88 -46.5 194t-76.5 130q-131 -16 -390 -16q-18 -14 -31.5 -53t-13.5 -57 v-11z" />
<glyph unicode="&#x5e2;" horiz-adv-x="1086" d="M84 840v25q0 160 74 252l17 18l22 -18q98 -82 246 -132l33 -11l-16 -15q-73 -122 -92 -181q1 -59 25 -123t52.5 -109t52 -99.5t23.5 -98.5q83 54 145 175.5t89 269.5q-3 1 -31.5 9.5t-39.5 13t-33.5 15t-37.5 25t-27 33.5q-1 4 -4 15.5t-5 27.5t-2 37q0 52 30.5 100 t87.5 80l26 17l18 -17q27 -38 61 -66t60 -40.5t68.5 -31t65.5 -30.5l22 -11l-78 -174l-34 -14q-1 -95 -15.5 -179t-37 -151.5t-60 -128.5t-75.5 -107t-93.5 -90t-104.5 -75.5t-117.5 -65t-122.5 -56.5t-130 -52l-31 -14q-10 21 -18.5 77.5t-8.5 91.5q0 82 27 139l7 27 q3 0 23 3t27.5 4t27.5 4t31 5.5t30 7t32.5 9.5t30 11t32 14t29.5 17q-12 23 -69 120t-86 168t-29 133q0 32 9 67q-3 1 -14.5 3.5t-18.5 4.5t-20 8t-23.5 13t-24 20t-25.5 30z" />
<glyph unicode="&#x5e3;" horiz-adv-x="963" d="M73 536q0 51 27 87q-17 72 -17 108q0 105 96 187l-22 55q31 81 69.5 134t98.5 69l31 7l9 -24q5 -12 10 -21.5t14 -19.5t13 -15t17.5 -15t16 -12t20.5 -13.5t20 -12.5q33 -13 103 -25.5t127.5 -31.5t91.5 -55q64 -63 85 -238.5t21 -528.5q0 -66 1 -202.5t1 -195.5v-2 q-10 -72 -37.5 -108t-83.5 -53l-41 -10l6 43q6 37 6 68v40q0 63 -22 223t-22 261q0 21 3 60.5t3 58.5q0 98 -6.5 171.5t-15 113t-24 69t-25 38.5t-26.5 22q-71 52 -136.5 75t-150.5 23q-32 -4 -52.5 -13t-32 -24.5t-16 -27t-9.5 -33.5q2 -129 74 -129q26 0 67 15l34 13 l10 -30q19 -51 19 -95q0 -72 -50 -150q-89 -27 -140 -27q-54 0 -105 21l-32 15l20 -6l-2 3q-2 3 -4.5 7.5t-6.5 11t-7.5 14.5t-7.5 17t-7.5 19.5t-6.5 21.5t-4.5 23t-1.5 24z" />
<glyph unicode="&#x5e4;" horiz-adv-x="1013" d="M61 -7q0 141 74 240h14q174 0 345 24t294 68q-1 373 -91 443q-63 47 -129 63t-201 16q-53 0 -80.5 -27t-27.5 -76q1 -34 9 -69t16 -40q29 -20 59 -20q29 0 55 19l39 29l12 -44q9 -30 9 -70q0 -21 -8.5 -47.5t-16 -41t-27.5 -48.5t-24 -41q-54 -8 -103 -8q-45 0 -101 8 q-40 17 -57.5 27t-31.5 34.5t-14 64.5q0 54 38 114q-17 59 -17 104q0 47 16 87t34 62.5t50 52.5l-20 44v13q3 59 55 137t108 78q15 0 45 -13v-17q0 -36 34.5 -57t90 -30.5t114.5 -16t118.5 -20t90.5 -36.5q40 -34 68 -100t40 -140t16.5 -126.5t4.5 -91.5q0 -214 -33 -385 q-4 -20 -11.5 -37.5t-13.5 -26.5t-18.5 -24.5t-18.5 -24.5q-207 -78 -777 -78h-28v28z" />
<glyph unicode="&#x5e5;" horiz-adv-x="1015" d="M64 920l4 22q1 3 6 20t6 20.5t6.5 18.5t7.5 20.5t8 19.5t11 21.5t12.5 21t15.5 24t18.5 24t22.5 27.5l27 32l19 -32q10 -21 42.5 -39t68 -31t78 -44t69.5 -74l-2 -1q-13 -57 -26.5 -92t-37.5 -73.5t-26 -43.5l-17 -8q-1 -4 -1 -22v-32q0 -50 7 -75q68 132 196 204l-61 71 l3 24q16 57 37.5 98.5t40 62.5t44 35t38.5 17.5t36 6.5q4 1 6 1l10 -3q26 -39 41 -60.5t39.5 -52t50 -50.5t53.5 -31l27 -9l-12 -13q-12 -26 -25 -58t-27 -58t-48 -79h-15q-7 0 -17.5 4.5t-19.5 9.5l-8 4q-8 0 -20.5 1t-18.5 1q-9 0 -33.5 -8t-67.5 -35.5t-73 -67.5 q-48 -64 -68 -106.5t-20 -102.5q0 -56 7.5 -101t24 -109t25.5 -116v-6q0 -23 5 -67t5 -66q0 -60 -14 -123.5t-52 -131.5t-94 -104l-60 -41l8 45q7 50 7 112q0 370 -43 565q-66 246 -67 498q-71 44 -97.5 66t-61.5 69z" />
<glyph unicode="&#x5e6;" horiz-adv-x="1052" d="M68 -44l7 37q6 28 10 46t6.5 30t9 29.5t9.5 26t16 39t20 49.5h18q14 0 57 4t61 4q152 0 291 47l-81 79q-18 17 -47 42t-48.5 45t-38.5 47q-115 174 -115 295v11q-46 19 -78.5 46t-69.5 78l-2 13l-2 10q6 27 16.5 66.5t40.5 102.5t60 75l26 10l10 -25q22 -55 78 -93 t128 -58l25 -7l-3 -22q-4 -34 -27 -109t-23 -84v-35l-40 8q8 -86 99 -149q24 63 63.5 129.5t82.5 110.5q-35 21 -66 62l-12 14l14 15q10 11 30 47t52.5 77.5t81.5 79.5l23 19l18 -22q27 -35 56 -62t75 -66.5t84 -75.5q-18 -40 -53.5 -104.5t-45.5 -79.5q-10 -13 -24 -13 q-12 0 -22.5 2.5t-16.5 5.5l-16 8l-14 7q-43 -23 -70 -41t-42 -36t-21 -29t-15.5 -36t-17.5 -41q-11 -30 -11 -51q0 -18 11 -30q22 -15 50 -39t69 -65t68 -90.5t27 -93.5v-2q-3 -25 -13 -47t-22 -38.5t-33 -31.5t-38 -25.5t-45.5 -20t-46 -15t-50.5 -12.5t-48.5 -9.5 t-49 -7.5t-43.5 -7q-96 -14 -195.5 -24t-148.5 -16z" />
<glyph unicode="&#x5e7;" horiz-adv-x="1028" d="M69 874v13q0 105 15.5 156t65.5 109l28 35l18 -42q38 -92 298 -92h51q143 0 330 26q88 -149 88 -394q0 -91 -8.5 -147t-32.5 -116q-46 -17 -81 -35t-80 -51.5t-92.5 -88t-98.5 -131.5l-12 -19l-24 6q-59 26 -59 105q0 19 5 37.5t16.5 38t19 30.5t23.5 32t20 26l259 249 q-6 36 -20.5 69t-28 53t-36.5 50q-252 -2 -394 -22l21 -261q8 -104 51.5 -291t43.5 -309q0 -39 -12 -76.5t-28 -65.5t-42 -58t-44 -47t-44.5 -40t-33.5 -30l-61 -59l15 84q22 114 22 300q0 120 -14 368t-14 358q0 30 9 60t16.5 43t26.5 46q-78 21 -108.5 34t-73.5 47z" />
<glyph unicode="&#x5e8;" horiz-adv-x="1021" d="M64 917q40 148 106 214l20 20l20 -21q1 -1 11.5 -13t13 -14.5t13 -12t17 -13t18.5 -10t25 -10.5t28 -7h422q50 0 86 -29t56 -72.5t31.5 -109t14.5 -122t3 -128.5v-196q0 -187 -40 -289.5t-93 -142.5l-85 34l22 57q37 98 37 201q0 181 -45 402q-24 111 -56 128h-561 l-30 98z" />
<glyph unicode="&#x5e9;" horiz-adv-x="1406" d="M67 905l5 33q0 1 5 20t9.5 35t17 43.5t27 50t39.5 49t55 46.5l43 31v-31q0 -52 24 -88l158 -120l6 -6q-4 -43 -48 -99.5t-71 -75.5q-24 -39 -24 -80q0 -27 3 -49.5t5.5 -33.5t11 -36.5t11.5 -37.5q1 -3 10 -33.5t19 -63t22.5 -69t24 -63.5t19.5 -34q12 65 25 144 t18.5 109t20.5 78t38.5 91.5t65.5 110.5l-99 60l7 35q27 75 43 99q31 49 127 118l48 37v-37q0 -13 3.5 -25t13.5 -26t18.5 -24.5t29 -29t34 -30.5t45 -38.5t50.5 -42.5l-4 -3q-10 -33 -33.5 -82t-45.5 -74l-15 -16l-22 9q-8 5 -14.5 3.5t-23.5 -14.5q-79 -57 -100 -143 l-87 -330q7 0 19.5 -0.5t18.5 -0.5q68 0 134 47t103 105l208 387l-101 95l7 25q7 14 21 50t24 55t36 48t64 52h16q2 0 8 -0.5t12 -0.5l5 -1q0 -1 3 -17.5t6 -33.5t9 -34t13 -23l145 -121l-5 -3q-7 -25 -14 -44.5t-11.5 -31t-16 -29t-15 -23t-23 -29.5t-26.5 -33h-13 q-22 0 -46 -21t-33 -48l-130 -362l-57 -28q-13 -9 -59.5 -40.5t-65.5 -44t-60.5 -40t-67.5 -42t-62 -34.5t-67.5 -33.5t-62.5 -23.5q-24 -12 -52 -12q-106 0 -127 62l-143 554v39q1 81 13 112t12 56q0 5 -6 9z" />
<glyph unicode="&#x5ea;" horiz-adv-x="1105" d="M53 114q0 35 11 77q32 13 75.5 28.5t66.5 26t50 27.5q-53 143 -53 255q0 87 25.5 143.5t82.5 125.5l-172 31q-2 11 -6.5 15t-4.5 23q0 58 21 135t61 117l26 25l18 -31q23 -39 49 -49.5t78 -10.5h437q25 0 46 -6t35.5 -14t26.5 -24.5t19 -27.5t14 -34.5t10 -35t8 -38.5 t7 -35l88 -574v-3q0 -114 -62 -260l-16 -36l-94 88q6 56 6 94q0 65 -12 144t-24.5 135.5t-39.5 163t-40 161.5q-22 38 -60 38h-239q-41 -3 -78.5 -72t-37.5 -162q0 -104 55 -234h63v-236q-85 -41 -126.5 -60.5t-114.5 -48t-136 -43.5l-29 -7l-5 29q-2 14 -15.5 69t-13.5 91z " />
<glyph unicode="&#x5f0;" horiz-adv-x="982" d="M49 950l4 28q27 98 103 168l20 20l20 -20q13 -16 23.5 -34.5t16 -26t22.5 -16.5t49 -17q34 -1 59.5 -19t41 -51.5t25.5 -69.5t14.5 -87t6 -88t1.5 -87v-63v-100q0 -53 -1 -147t-1 -126q-1 -3 -5.5 -23.5t-7 -30.5l-8 -32t-11.5 -37t-13.5 -34.5t-17.5 -36.5t-21 -32 l-31 -42l-48 128l-18 732q-4 -4 -27 -4h-125q-4 22 -18 60t-19 54zM472 950l4 28q27 98 103 168l20 20l20 -20q13 -16 23.5 -34.5t16 -26t22.5 -16.5t49 -17q34 -1 59.5 -19t41 -51.5t25.5 -69.5t14.5 -87t6 -88t1.5 -87v-63v-100q0 -53 -1 -147t-1 -126q-1 -3 -5.5 -23.5 t-7 -30.5l-8 -32t-11.5 -37t-13.5 -34.5t-17.5 -36.5t-21 -32l-31 -42l-48 128l-18 732q-4 -4 -27 -4h-125q-4 22 -18 60t-19 54z" />
<glyph unicode="&#x5f1;" horiz-adv-x="963" d="M49 946q36 149 103 218l20 -7l20 7q16 -18 35 -41t23 -28t17 -14.5t23.5 -13t35.5 -11.5q8 -2 20 -5.5t16 -5t11.5 -5t14 -8.5t16.5 -13t25 -22q49 -46 49 -177q0 -68 -15.5 -136t-72.5 -250l-9 -29l-108 49v19q0 36 4.5 93.5t4.5 76.5q0 15 2 40.5t2 36.5q0 19 -3.5 31 t-16.5 25.5t-44.5 20.5t-80.5 7h-18l-41 103zM479 950l4 28q27 98 103 168l20 20l20 -20q13 -16 23.5 -34.5t16 -26t22.5 -16.5t49 -17q34 -1 59.5 -19t41 -51.5t25.5 -69.5t14.5 -87t6 -88t1.5 -87v-63v-100q0 -53 -1 -147t-1 -126q-1 -3 -5.5 -23.5t-7 -30.5l-8 -32 t-11.5 -37t-13.5 -34.5t-17.5 -36.5t-21 -32l-31 -42l-48 128l-18 732q-4 -4 -27 -4h-125q-4 22 -18 60t-19 54z" />
<glyph unicode="&#x5f2;" horiz-adv-x="963" d="M49 942q36 149 103 218l20 -7l20 7q16 -18 35 -41t23 -28t17 -14.5t23.5 -13t35.5 -11.5q8 -2 20 -5.5t16 -5t11.5 -5t14 -8.5t16.5 -13t25 -22q49 -46 49 -177q0 -68 -15.5 -136t-72.5 -250l-9 -29l-108 49v19q0 36 4.5 93.5t4.5 76.5q0 15 2 40.5t2 36.5q0 19 -3.5 31 t-16.5 25.5t-44.5 20.5t-80.5 7h-18l-41 103zM498 938q36 149 103 218l20 -7l20 7q16 -18 35 -41t23 -28t17 -14.5t23.5 -13t35.5 -11.5q8 -2 20 -5.5t16 -5t11.5 -5t14 -8.5t16.5 -13t25 -22q49 -46 49 -177q0 -68 -15.5 -136t-72.5 -250l-9 -29l-108 49v19q0 36 4.5 93.5 t4.5 76.5q0 15 2 40.5t2 36.5q0 19 -3.5 31t-16.5 25.5t-44.5 20.5t-80.5 7h-18l-41 103z" />
<glyph unicode="&#x5f3;" horiz-adv-x="451" d="M98 683l4 20q39 208 91 415q4 10 4 14q1 1 1 2q15 30 50 30q6 0 15.5 -1.5t10.5 -1.5l137 -39l3 -18q2 -16 2 -44v-8l-115 -192l-114 -202h-16q-27 0 -55 16z" />
<glyph unicode="&#x5f4;" horiz-adv-x="673" d="M98 683l4 20q39 208 91 415q4 10 4 14q1 1 1 2q15 30 50 30q6 0 15.5 -1.5t10.5 -1.5l137 -39l3 -18q2 -16 2 -44v-8l-115 -192l-114 -202h-16q-27 0 -55 16zM353 674l4 20q39 208 91 415q4 10 4 14q1 1 1 2q15 30 50 30q6 0 15.5 -1.5t10.5 -1.5l137 -39l3 -18 q2 -16 2 -44v-8l-115 -192l-114 -202h-16q-27 0 -55 16z" />
<glyph unicode="&#x2000;" horiz-adv-x="837" />
<glyph unicode="&#x2001;" horiz-adv-x="1674" />
<glyph unicode="&#x2002;" horiz-adv-x="837" />
<glyph unicode="&#x2003;" horiz-adv-x="1674" />
<glyph unicode="&#x2004;" horiz-adv-x="558" />
<glyph unicode="&#x2005;" horiz-adv-x="418" />
<glyph unicode="&#x2006;" horiz-adv-x="279" />
<glyph unicode="&#x2007;" horiz-adv-x="279" />
<glyph unicode="&#x2008;" horiz-adv-x="209" />
<glyph unicode="&#x2009;" horiz-adv-x="334" />
<glyph unicode="&#x200a;" horiz-adv-x="93" />
<glyph unicode="&#x2010;" horiz-adv-x="904" d="M30 494v172h844v-172h-844z" />
<glyph unicode="&#x2011;" horiz-adv-x="904" d="M30 494v172h844v-172h-844z" />
<glyph unicode="&#x2012;" horiz-adv-x="904" d="M30 494v172h844v-172h-844z" />
<glyph unicode="&#x2013;" horiz-adv-x="1084" d="M30 494v172h1024v-172h-1024z" />
<glyph unicode="&#x2014;" horiz-adv-x="2108" d="M30 494v172h2048v-172h-2048z" />
<glyph unicode="&#x2018;" horiz-adv-x="422" d="M90 1364v31q0 53 31 83t92 30q60 0 90.5 -29.5t30.5 -81.5v-2l-59 -457q-1 -1 -4 -8t-10 -12t-20 -7q-15 -3 -28 -3q-2 0 -12 1t-16 2q-14 2 -22.5 9.5t-10.5 13t-2 10.5q0 9 -8 84z" />
<glyph unicode="&#x2019;" horiz-adv-x="422" d="M90 1364v31q0 53 31 83t92 30q60 0 90.5 -29.5t30.5 -81.5v-2l-59 -457q-1 -1 -4 -8t-10 -12t-20 -7q-15 -3 -28 -3q-2 0 -12 1t-16 2q-14 2 -22.5 9.5t-10.5 13t-2 10.5q0 9 -8 84z" />
<glyph unicode="&#x201c;" horiz-adv-x="702" d="M51 951l24 480l234 30l-100 -491zM378 951l24 480l234 30l-100 -491z" />
<glyph unicode="&#x201d;" horiz-adv-x="702" d="M51 951l24 480l234 30l-100 -491zM378 951l24 480l234 30l-100 -491z" />
<glyph unicode="&#x202f;" horiz-adv-x="334" />
<glyph unicode="&#x205f;" horiz-adv-x="418" />
<glyph unicode="&#x20ac;" horiz-adv-x="1127" d="M100 396v53q0 58 27 89h27v26h-30q-8 12 -14 42.5t-6 56.5q0 31 10 40q27 20 89 35q30 87 78 165.5t115 145t159 106t196 39.5q121 0 244 -51v-4q63 -56 85 -102t22 -116v-104h-39q-8 4 -26 15t-33 17.5t-28 6.5q-38 0 -97 -18l-71 -21l40 62q17 27 17 53q0 39 -36 64.5 t-93 25.5h-32q-60 0 -108.5 -20t-78 -48.5t-52 -69t-32.5 -73.5t-16 -70h56q37 0 106.5 -0.5t102.5 -0.5q226 0 380 25h41l-61 -224q-115 0 -322 7.5t-328 7.5v-12q130 -28 366 -28h59q42 0 142 -2h41l-75 -188q-35 0 -71 1.5t-63.5 3t-65.5 6t-58 7t-63 9.5t-58 9.5 t-65 11.5t-63 11q50 -90 135 -155.5t192 -65.5q100 0 218 74q39 3 40 3q58 0 59 -53q0 -18 -8 -40q-67 -111 -167.5 -172.5t-211.5 -61.5q-165 0 -303.5 125t-199.5 357h-72z" />
<glyph unicode="&#xe000;" horiz-adv-x="965" d="M0 0v965h965v-965h-965z" />
<glyph unicode="&#xfb1d;" horiz-adv-x="564" d="M61 942q36 149 103 218l20 -7l20 7q16 -18 35 -41t23 -28t17 -14.5t23.5 -13t35.5 -11.5q8 -2 20 -5.5t16 -5t11.5 -5t14 -8.5t16.5 -13t25 -22q49 -46 49 -177q0 -68 -15.5 -136t-72.5 -250l-9 -29l-108 49v19q0 36 4.5 93.5t4.5 76.5q0 15 2 40.5t2 36.5q0 19 -3.5 31 t-16.5 25.5t-44.5 20.5t-80.5 7h-18l-41 103zM249 206q0 47 28 78.5t70 31.5q44 0 71 -32t27 -78q0 -47 -28 -78t-70 -31q-44 0 -71 32t-27 77z" />
<glyph unicode="&#xfb1e;" />
<glyph unicode="&#xfb1f;" horiz-adv-x="963" d="M50 942q36 149 103 218l20 -7l20 7q16 -18 35 -41t23 -28t17 -14.5t23.5 -13t35.5 -11.5q8 -2 20 -5.5t16 -5t11.5 -5t14 -8.5t16.5 -13t25 -22q49 -46 49 -177q0 -68 -15.5 -136t-72.5 -250l-9 -29l-108 49v19q0 36 4.5 93.5t4.5 76.5q0 15 2 40.5t2 36.5q0 19 -3.5 31 t-16.5 25.5t-44.5 20.5t-80.5 7h-18l-41 103zM300 193v149h519v-149h-519zM498 938q36 149 103 218l20 -7l20 7q16 -18 35 -41t23 -28t17 -14.5t23.5 -13t35.5 -11.5q8 -2 20 -5.5t16 -5t11.5 -5t14 -8.5t16.5 -13t25 -22q49 -46 49 -177q0 -68 -15.5 -136t-72.5 -250 l-9 -29l-108 49v19q0 36 4.5 93.5t4.5 76.5q0 15 2 40.5t2 36.5q0 19 -3.5 31t-16.5 25.5t-44.5 20.5t-80.5 7h-18l-41 103z" />
<glyph unicode="&#xfb20;" horiz-adv-x="1278" d="M218 82v11q0 111 24 157l10 18l19 -3q34 -6 76.5 -17t74.5 -17t63 -6q52 0 98 16q-17 36 -70.5 125t-85 162.5t-31.5 135.5q0 34 9 67q-5 2 -22 7t-22.5 8t-19.5 11.5t-27 23.5t-30 38l-5 8v9q0 171 74 268l17 23l22 -18q89 -72 253 -128l32 -11l-15 -27 q-70 -123 -91 -195q0 -52 15 -102.5t36 -89.5t42.5 -76.5t36 -77.5t14.5 -78q0 -6 1.5 -22.5t1.5 -23.5q67 11 115.5 61t72.5 125t35 147t12 151q-11 4 -35 12.5t-37 14.5t-32 16.5t-34.5 26.5t-28.5 38l-1 3l-1 3q-10 27 -10 62q0 57 30 112t85 92l26 16l18 -23 q27 -36 61 -62.5t59.5 -38.5t68 -29.5t65.5 -28.5l22 -11l-78 -199l-34 -13q-2 -267 -72 -433t-240 -259q-158 -89 -397 -89h-147q-23 74 -23 110z" />
<glyph unicode="&#xfb21;" horiz-adv-x="1722" d="M189 384q0 214 144 441l-86 97l190 291l20 -60q25 -79 69.5 -149.5t93 -122t115 -99.5t120 -78t124.5 -60t110.5 -44.5t95.5 -32.5q55 44 87.5 99t32.5 91q0 72 -69 118l-20 14l9 22q61 151 107 225l23 37l26 -35q75 -99 207 -174l22 -12l-9 -24q-44 -130 -113 -187 l-10 -9l-28 5q-10 -177 -89 -275q55 -31 98.5 -60.5t70.5 -50.5t88 -70l14 -11l-3 -17q-15 -76 -51 -163t-53 -115q-10 -17 -28 -17h-20l-8 18q-25 61 -64 111t-83 87t-110.5 74.5t-128 66.5t-152.5 69q-36 16 -55 24l-8 3l-2 3q-364 222 -402 234q-2 0 -2 -1h-2 q-32 -8 -67.5 -70.5t-35.5 -128.5q0 -69 54.5 -113t105.5 -44q32 0 67 22l55 35l-9 -64q-11 -72 -21 -131.5t-15 -82.5l-5 -24l-29 -24q-45 0 -95 -15.5t-83 -32t-91 -48.5l-29 -16l-38 83l3 10q14 60 71 136q-46 50 -77.5 117t-31.5 128z" />
<glyph unicode="&#xfb22;" horiz-adv-x="1748" d="M292 949l4 16q27 105 104 182l22 22l21 -23q8 -9 24.5 -33t32.5 -35t46 -17q53 -5 216.5 -11t228.5 -6q92 0 322 8.5t295 17.5l21 3l10 -18q51 -96 51 -218v-24l-23 -6q-53 -13 -89.5 -56.5t-36.5 -80.5q0 -51 32.5 -208.5t32.5 -232.5q0 -42 -7 -77q-18 -86 -104 -207 l-20 -27l-59 53v14q0 146 -9.5 247.5t-41.5 226.5l-1 4v4q0 12 -6 63t-6 64v70q0 70 16 128q-175 -9 -723 -9h-46q-172 1 -221 20q-3 1 -7 3l-11 5l-33 103z" />
<glyph unicode="&#xfb23;" horiz-adv-x="1691" d="M188 953l4 15q26 104 104 182l22 22l21 -23q6 -6 23.5 -27.5t25.5 -29t27.5 -18.5t43.5 -16q48 -9 192 -9q63 0 162.5 2t115.5 2q131 0 349 5.5t282 14.5l20 3l10 -19q57 -104 57 -208v-16l-13 -9q-72 -49 -72 -138q0 -53 32.5 -215t32.5 -240q0 -35 -8 -77 q-18 -92 -104 -207l-19 -26l-57 50l-2 12q-6 54 -15.5 168.5t-20.5 210.5t-27 175v3v70q0 121 25 199q-131 -8 -496 -8h-644l-38 116zM217 268q0 250 167 468l52 -26q-21 -89 -27 -127.5t-10 -120.5q0 -48 1 -56q1 -10 2 -30.5t2 -27t3 -20.5t5 -21t8 -18.5t13 -22t19 -23.5 l11 -12l-6 -16q-64 -200 -104 -267l-15 -23l-86 43l-3 15q-32 180 -32 285z" />
<glyph unicode="&#xfb24;" horiz-adv-x="1578" d="M147 -51l6 35q1 5 5.5 32.5t6 35l6 30t7.5 33.5t8 29.5t10.5 34t12.5 31.5l8 18h57q233 0 434 9t377 35.5t212 68.5q13 13 13 64q0 17 -4.5 41t-9 41.5t-13 47t-11.5 41.5q-8 24 -17.5 62t-16.5 61t-19 48t-31 38.5t-47 16.5h-905l-36 116l-35 35l4 16q26 104 104 182 l22 22l21 -23q4 -4 19 -22t23.5 -25.5t29 -20t47.5 -21.5q32 -5 205 -10.5t220 -5.5q26 0 182.5 5.5t179.5 5.5q29 0 51.5 -4t50.5 -16t49 -40t32 -71q7 -32 27.5 -125.5t30 -140.5t19 -119t9.5 -129q0 -173 -82 -279l-4 -5l-5 -3q-135 -75 -541 -125t-676 -50h-36z" />
<glyph unicode="&#xfb25;" horiz-adv-x="1586" d="M218 1465q0 22 12 39l1 2l141 158l4 2q4 1 16 7q5 1 15 1q39 0 61 -36l1 -4l1 -3q8 -33 8 -79q0 -70 -27 -214t-27 -190q0 -57 16 -85q8 -13 16 -13q50 0 455 7t460 7h3l3 -1q44 -8 78 -42q73 -85 73 -209v-4l-1 -4q-20 -71 -80.5 -187t-121 -223t-74.5 -149q-1 -4 -1 -7 q0 -9 15 -17q4 -2 10 -4l22 -6v-23q0 -108 -67 -230l-13 -25l-26 12q-32 18 -58.5 49.5t-35 48t-12.5 27.5q-2 10 -2 11q0 6 -2 33t-2 44q0 59 17 112q1 8 5 16q5 12 30.5 50.5t51 81t58 122.5t54.5 172v10q-2 43 -30 67q-7 5 -11 5l-828 -20q-28 0 -52 7.5t-50 27.5 t-41.5 64t-15.5 107q0 122 13 221q3 17 25.5 95t22.5 106v11q-11 0 -35 -7l-4 -1h-4q-29 3 -43 14q-24 18 -24 46z" />
<glyph unicode="&#xfb26;" horiz-adv-x="1716" d="M103 988l4 16q26 104 104 182l22 22l21 -23q6 -7 27.5 -36.5t41.5 -44t50 -20.5q37 -9 216.5 -14.5t320.5 -5.5q50 0 247 -12t241 -12q23 0 42.5 -4.5t32 -10t23 -17t16 -20t10 -24t6.5 -24t4.5 -25t3.5 -22.5q42 -276 42 -534q5 -18 20 -29l8 -6l3 -10q10 -38 10 -66 q0 -25 -4.5 -49t-13 -51.5t-10.5 -38.5l-4 -20l-1207 -182h-2q-29 0 -50 8q-19 7 -35 25q-37 44 -37 166q-40 232 -40 407v13q2 187 35 275q-17 0 -30 3.5t-20 7t-9 3.5h-24l-31 139zM366 659q0 -106 21.5 -220t43.5 -177l1 -5q2 -20 12.5 -33.5t27.5 -13.5q8 0 23 5 q67 25 279.5 45t355.5 27t277 12v123q0 145 -32 296q-22 29 -168 60t-259 33q-89 0 -293.5 -6.5t-276.5 -12.5q-12 -49 -12 -133z" />
<glyph unicode="&#xfb27;" horiz-adv-x="1662" d="M240 956l4 16q17 69 113 163l22 22l21 -23q2 -2 10 -11.5t11 -12.5l11 -11t13 -11.5t14.5 -9.5t17.5 -9.5t19.5 -7t24.5 -6.5l877 -5q42 0 74.5 -20t52.5 -58.5t33 -81t19 -102t8 -106t2 -106.5v-197q0 -308 -113 -392l-13 -10l-89 33l14 30q37 78 37 199q0 204 -50 450 q-1 4 -4 19t-4.5 21l-4.5 18t-6 18t-7 14.5t-9.5 13.5t-11.5 9l-1015 5l-36 114z" />
<glyph unicode="&#xfb28;" horiz-adv-x="1823" d="M139 71q0 32 7 63l4 15l14 6q14 6 56 20.5t68 26.5t53 29q-52 139 -52 253q0 161 108 301l-167 30l-4 21q-6 34 -6 68q0 61 19.5 122t57.5 99l28 28l19 -34q23 -38 46 -48.5t71 -10.5l994 1q34 0 60 -14.5t41 -32.5t28 -52.5t17.5 -55.5t11.5 -61t9 -50l89 -575v-2 q0 -112 -63 -262l-17 -39l-98 91l2 15q5 45 5 81q0 52 -5.5 109.5t-19 130.5t-23 120t-31 142.5t-29.5 133.5q-18 35 -51 35h-817h-8q-22 -10 -36 -37q-62 -108 -62 -227q0 -107 48 -232h58v-240l-16 -8q-208 -112 -343 -145l-32 -8l-5 32q-3 19 -11 49.5t-13 57t-5 54.5z " />
<glyph unicode="&#xfb29;" horiz-adv-x="1253" d="M61 308v178h446v446h192v-446h454v-178h-1092z" />
<glyph unicode="&#xfb35;" horiz-adv-x="546" d="M48 518q0 43 25 70.5t63 27.5q39 0 63.5 -28.5t24.5 -69.5q0 -43 -25 -70.5t-63 -27.5q-39 0 -63.5 28.5t-24.5 69.5zM62 950l4 28q27 98 103 168l20 20l20 -20q13 -16 23.5 -34.5t16 -26t22.5 -16.5t49 -17q34 -1 59.5 -19t41 -51.5t25.5 -69.5t14.5 -87t6 -88t1.5 -87 v-63v-100q0 -53 -1 -147t-1 -126q-1 -3 -5.5 -23.5t-7 -30.5l-8 -32t-11.5 -37t-13.5 -34.5t-17.5 -36.5t-21 -32l-31 -42l-48 128l-18 732q-4 -4 -27 -4h-125q-4 22 -18 60t-19 54z" />
<glyph unicode="&#xfb36;" horiz-adv-x="741" d="M45 731q0 43 25 70.5t63 27.5q39 0 63.5 -28.5t24.5 -69.5q0 -43 -25 -70.5t-63 -27.5q-39 0 -63.5 28.5t-24.5 69.5zM220 933v25q0 70 10 121t44 122l14 33l31 -33q19 -19 36.5 -35t31 -28.5t32 -26t28 -21t31 -20t29 -17t33.5 -17.5t32.5 -16.5t39 -19t41.5 -19.5v5 q13 -35 13 -71q0 -34 -14 -97.5t-16 -75.5v-33l-182 85q1 -30 20 -134q12 -66 34 -132t35.5 -122t13.5 -130q0 -56 -4.5 -77t-22.5 -56l-99 -194l-17 62q-46 212 -150 483l-8 57q0 40 9 81.5t16 63t27.5 71.5t25.5 64q-11 7 -27 17.5t-20.5 13t-14 10t-12 10t-10.5 12 t-13.5 17z" />
<glyph unicode="&#xfb39;" horiz-adv-x="561" d="M48 630q0 43 25 70.5t63 27.5q39 0 63.5 -28.5t24.5 -69.5q0 -43 -25 -70.5t-63 -27.5q-39 0 -63.5 28.5t-24.5 69.5zM61 942q36 149 103 218l20 -7l20 7q16 -18 35 -41t23 -28t17 -14.5t23.5 -13t35.5 -11.5q8 -2 20 -5.5t16 -5t11.5 -5t14 -8.5t16.5 -13t25 -22 q49 -46 49 -177q0 -68 -15.5 -136t-72.5 -250l-9 -29l-108 49v19q0 36 4.5 93.5t4.5 76.5q0 15 2 40.5t2 36.5q0 19 -3.5 31t-16.5 25.5t-44.5 20.5t-80.5 7h-18l-41 103z" />
<glyph unicode="&#xfb4f;" horiz-adv-x="1192" d="M20 1413q0 212 186 212h12q51 -49 74 -76t46 -77t32 -116v-2q0 -65 -12.5 -202t-12.5 -174q1 -64 43 -142t99 -141t114 -110.5t93 -61.5q93 173 93 231q0 30 -11.5 49t-25 26.5t-25 24t-12.5 41.5v3q0 50 41.5 118.5t81.5 81.5l20 7q7 -8 40 -43t48 -49t43.5 -38 t54 -36.5t52.5 -17.5l33 -5l-90 -222l-85 24l-146 -270l256 -212q28 -78 28 -137q0 -105 -86 -152l-23 -14l-14 23q-67 101 -150.5 181.5t-160.5 134.5t-152 108.5t-147.5 130t-125.5 170.5q-19 31 -41.5 105.5t-22.5 147.5q0 39 7 103.5t14 115t7 55.5q0 79 -7 99.5 t-42 54.5l-2 2h-3q-22 0 -56 -26l-18 -13l-17 15q-12 11 -21 32.5t-9 40.5z" />
</font>
</defs>
</svg>
