<?xml version="1.0" standalone="no"?>
<!DOCTYPE svg PUBLIC "-//W3C//DTD SVG 1.1//EN" "http://www.w3.org/Graphics/SVG/1.1/DTD/svg11.dtd" >
<svg xmlns="http://www.w3.org/2000/svg">
<metadata></metadata>
<defs>
<font id="miriam_mono_clmbook" horiz-adv-x="1228" >
<font-face units-per-em="2048" ascent="1638" descent="-410" />
<missing-glyph horiz-adv-x="500" />
<glyph d="M164 -123v1229h901v-1229h-901zM248 -39h733v1061h-733v-1061z" />
<glyph d="M164 -123v1229h901v-1229h-901zM248 -39h733v1061h-733v-1061z" />
<glyph unicode="&#xd;" horiz-adv-x="681" />
<glyph unicode=" " />
<glyph unicode="!" d="M492 72q0 43 31.5 72.5t76.5 29.5h27q47 0 78.5 -29.5t31.5 -72.5t-31.5 -73t-78.5 -30h-27q-45 0 -76.5 30t-31.5 73zM532 1186q0 35 24 57.5t58 22.5q33 0 56.5 -22.5t23.5 -57.5q0 -17 -2 -33l-37 -668q-2 -57 -43 -57q-39 0 -41 57l-36 668q-2 14 -3 33z" />
<glyph unicode="&#x22;" d="M299 1237h262l-69 -518q-8 -74 -61.5 -74t-61.5 74zM668 1237h262l-70 -518q-8 -74 -61.5 -74t-61.5 74z" />
<glyph unicode="#" d="M188 430q0 41 56 41h182l18 258h-159q-55 0 -56 43q0 41 56 41h166l32 461q2 51 43 51q16 0 29.5 -13.5t11.5 -29.5l-2 -14l-30 -455h186l33 461q2 51 41 51q41 0 41 -51v-6l-33 -455h182q55 0 55 -41q0 -43 -55 -43h-186l-19 -258h164q55 0 55 -41q0 -43 -55 -43h-170 l-33 -461q-2 -53 -43 -53q-16 0 -29.5 13.5t-11.5 29.5l2 16l31 455h-186l-31 -461q-6 -53 -43 -53q-16 0 -28.5 12.5t-12.5 30.5v16l33 455h-178q-55 0 -56 43zM510 471h186l19 258h-187z" />
<glyph unicode="$" d="M231 188v162q0 55 43 56q35 0 41 -52q6 -66 95.5 -115t201.5 -49q131 0 216 62.5t85 159t-77 145.5q-57 33 -218 64q-168 31 -243 77q-96 66 -96 193q0 111 82.5 193t211.5 96v106q0 55 43 55q41 0 41 -55v-106q68 -6 113 -24.5t100 -61.5q4 59 43 59q41 0 41 -55v-123 q0 -55 -41 -55q-37 0 -43 45q-8 55 -82.5 96t-169.5 41q-106 0 -181 -62.5t-75 -150.5q0 -84 72 -129q51 -31 205 -60q188 -37 258 -84q100 -68 100 -204q0 -121 -92 -203t-248 -98v-244q0 -55 -41 -55q-43 0 -43 55v244q-72 4 -145.5 34.5t-112.5 75.5v-33q0 -55 -41 -55 q-43 0 -43 55z" />
<glyph unicode="%" d="M178 487q0 29 37 41l776 250q16 4 25 4q14 0 24.5 -11t10.5 -28q0 -26 -37 -38l-776 -250q-16 -6 -25 -6q-12 0 -23.5 12t-11.5 26zM236 997.5q0 104.5 73.5 179t175.5 74.5q106 0 179 -73.5t73 -182.5q0 -102 -73.5 -177t-176.5 -75q-104 0 -177.5 75t-73.5 179.5z M313 997.5q0 -71.5 51.5 -124t122.5 -52.5q70 0 121 52.5t51 121.5q0 76 -50 127.5t-124 51.5q-70 0 -121 -52.5t-51 -124zM489 229.5q0 104.5 74 179t176 74.5q106 0 179 -74.5t73 -183.5q0 -102 -73.5 -176t-176.5 -74q-104 0 -178 75t-74 179.5zM567 229q0 -72 51.5 -124 t122.5 -52q70 0 121 51.5t51 122.5q0 76 -50 127.5t-124 51.5q-72 0 -122 -51.5t-50 -125.5z" />
<glyph unicode="&#x26;" d="M215 291q0 106 60.5 185t166.5 112q-70 113 -86 149.5t-16 81.5q0 100 74.5 172t177.5 72q68 0 135 -41l21 12q20 10 32 10q14 0 26.5 -13t12.5 -30q0 -25 -33 -43l-65 -32q-61 53 -129 53q-66 0 -117 -50t-51 -113.5t90 -205.5l227 -362q63 119 95 262h88q55 0 55 -41 q0 -43 -55 -43h-25q-45 -170 -108 -258l55 -84h78q55 0 55 -41q0 -43 -55 -43h-119l-64 98q-92 -131 -229 -131q-121 0 -209 96.5t-88 227.5zM299 291q0 -96 63.5 -168t147.5 -72q112 0 182 125l-215 338q-82 -18 -130 -78.5t-48 -144.5z" />
<glyph unicode="'" d="M483 1237h262l-69 -518q-8 -74 -61.5 -74t-61.5 74z" />
<glyph unicode="(" d="M602 498q0 322 225 669q43 70 70 70q16 0 28.5 -12.5t12.5 -28.5q0 -8 -6 -22q-205 -362 -205 -682q0 -313 205 -682q6 -16 6 -23q0 -16 -13.5 -28.5t-29.5 -12.5q-27 0 -86 96q-207 344 -207 656z" />
<glyph unicode=")" d="M301 -213q0 8 6 23q205 362 205 682q0 315 -205 682q-6 14 -6 22q0 16 13.5 28.5t29.5 12.5q29 0 86 -96q207 -340 207 -656q0 -322 -225 -669q-43 -70 -70 -70q-16 0 -28.5 12.5t-12.5 28.5z" />
<glyph unicode="*" d="M231 948q0 16 12.5 28.5t28.5 12.5q6 0 27 -6l272 -86v285q0 55 43 55q41 0 41 -55v-285l273 88q16 6 30.5 6t26.5 -12t12 -29q0 -31 -43 -45l-272 -86l166 -229q14 -25 14 -37q0 -16 -12 -28.5t-29 -12.5q-20 0 -41 29l-168 229l-166 -229q-23 -29 -43 -29 q-16 0 -28.5 12.5t-12.5 30.5q0 12 17 35l166 229l-273 86l-8 2q-12 2 -22.5 14.5t-10.5 26.5z" />
<glyph unicode="+" d="M147 578q0 41 56 40h368v412q0 55 43 55q41 0 41 -55v-412h369q57 0 57 -40q0 -43 -57 -43h-369v-414q0 -55 -41 -55q-43 0 -43 55v414h-368q-55 0 -56 43z" />
<glyph unicode="," d="M276 -238q0 6 5 23l143 512h272l-297 -543q-27 -51 -63 -51q-25 0 -42.5 17.5t-17.5 41.5z" />
<glyph unicode="-" d="M147 571q0 41 56 41h823q55 0 55 -41q0 -43 -55 -43h-823q-55 0 -56 43z" />
<glyph unicode="." d="M463 104.5q0 57.5 41 95.5t100 38h21q59 0 100 -38t41 -95.5t-41 -96.5t-100 -39h-21q-59 0 -100 39t-41 96.5z" />
<glyph unicode="/" d="M231 -127q0 14 11 33l669 1425q18 37 45 37q16 0 28.5 -12.5t12.5 -26.5q0 -13 -10 -33l-670 -1425q-18 -37 -45 -37q-16 0 -28.5 12.5t-12.5 26.5z" />
<glyph unicode="0" d="M231 514v205q0 244 106.5 395.5t276.5 151.5t276.5 -151.5t106.5 -395.5v-205q0 -242 -106.5 -393.5t-276.5 -151.5t-276.5 151.5t-106.5 393.5zM315 526q0 -213 99 -364q70 -109 200.5 -109t200.5 109q98 152 98 364v183q0 213 -98 364q-70 109 -201 109t-200 -109 q-99 -151 -99 -364v-183z" />
<glyph unicode="1" d="M231 43q0 41 58 41h284v1057l-270 -86q-25 -6 -29 -6q-14 0 -26 13t-12 28q0 31 43 45l378 118v-1169h285q55 0 55 -41q0 -43 -55 -43h-653q-57 0 -58 43z" />
<glyph unicode="2" d="M172 0v123l483 455q143 141 187.5 204.5t44.5 132.5q0 106 -88 186.5t-205 80.5q-104 0 -189.5 -61.5t-109.5 -153.5q-12 -41 -43 -41q-14 0 -26.5 11t-12.5 26q0 66 66 147q121 156 315 156q150 0 263.5 -106.5t113.5 -246.5q0 -90 -52.5 -165.5t-242.5 -262.5 q-262 -258 -424 -395v-6h643v74q0 55 43 55q41 0 41 -55v-158h-807z" />
<glyph unicode="3" d="M197 141q0 14 12 26.5t26.5 12.5t34.5 -14q147 -113 326 -113q139 0 240.5 86t101.5 205q0 121 -108.5 208t-258.5 87q-55 0 -55 43q0 41 55 41q131 0 179 22q66 29 104.5 84.5t38.5 118.5q0 100 -80 167t-199 67q-180 0 -274 -111q-25 -29 -43 -29q-16 0 -28.5 11.5 t-12.5 27.5q0 35 72 90q123 94 288 95q154 0 257.5 -91.5t103.5 -224.5q0 -88 -54.5 -161.5t-146.5 -112.5q-2 0 -10 -4q121 -49 188.5 -136t67.5 -192q0 -156 -126 -265.5t-302 -109.5q-147 0 -303 84q-94 49 -94 88z" />
<glyph unicode="4" d="M215 346v96l467 795h172v-807h70q55 0 55 -43q0 -41 -55 -41h-70v-262h70q55 0 55 -41q0 -43 -55 -43h-310q-55 0 -55 43q0 41 55 41h156v262h-555zM295 430h475v723h-49z" />
<glyph unicode="5" d="M197 168q0 16 12 28.5t28.5 12.5t34.5 -19q150 -137 328 -137q150 0 244 100.5t94 262.5q0 137 -81 223t-210 86t-258 -68q-33 -16 -45 -16q-39 0 -39 45v551h578q57 0 57 -41q0 -43 -57 -43h-494v-405q150 61 270 61q158 0 260.5 -112.5t102.5 -284.5q0 -195 -118 -319 t-300 -124q-162 0 -313 101q-94 61 -94 98z" />
<glyph unicode="6" d="M279 578q0 352 223 542q168 145 375 146q66 0 113.5 -21.5t47.5 -50.5q0 -16 -11 -28.5t-28 -12.5q-14 0 -34 12q-33 16 -97 17q-117 0 -229.5 -67.5t-187.5 -182.5q-92 -145 -93 -348q0 -10 4 -88q125 250 340 249q139 0 240.5 -112.5t101.5 -267.5q0 -166 -102 -281 t-252 -115q-182 0 -296.5 170t-114.5 439zM375 385q14 -57 18 -68q84 -264 299 -264q115 0 192 90t77 222q0 121 -77 209t-184 88q-119 0 -223 -117q-36 -39 -102 -160z" />
<glyph unicode="7" d="M215 1081v156h764v-133l-334 -1063q-14 -43 -41 -43q-16 0 -28.5 12.5t-12.5 28.5q0 10 4 27l328 1050v37h-596v-72q0 -57 -41 -57q-43 0 -43 57z" />
<glyph unicode="8" d="M231 330q0 205 230 311q-209 106 -209 287q0 137 107.5 237.5t255 100.5t255 -100.5t107.5 -237.5q0 -181 -209 -287q229 -104 229 -311q0 -150 -112.5 -255.5t-270 -105.5t-270.5 105.5t-113 255.5zM315 329.5q0 -114.5 87 -195.5t212 -81q123 0 211 81t88 194 q0 117 -86 194.5t-213 77.5q-125 0 -212 -78t-87 -192.5zM336 924q0 -100 81 -171t197 -71q115 0 197 69.5t82 170.5q0 109 -81 184.5t-197.5 75.5t-197.5 -75t-81 -183z" />
<glyph unicode="9" d="M279 870q0 166 102 281t252 115q182 0 296.5 -170t114.5 -439q0 -352 -223 -542q-168 -145 -375 -146q-66 0 -113.5 21.5t-47.5 50.5q0 16 11 28.5t28 12.5q14 0 34 -12q33 -16 97 -17q117 0 229.5 67.5t187.5 182.5q92 145 93 348q0 10 -4 88q-125 -250 -340 -250 q-139 0 -240.5 113t-101.5 268zM362 870q0 -121 77 -209t184 -88q119 0 223 117q36 39 102 160q-14 57 -18 68q-84 264 -299 264q-115 0 -192 -90.5t-77 -221.5z" />
<glyph unicode=":" d="M463 104.5q0 57.5 41 95.5t100 38h21q59 0 100 -38t41 -95.5t-41 -96.5t-100 -39h-21q-59 0 -100 39t-41 96.5zM463 719q0 57 41 96t100 39h21q59 0 100 -39t41 -96t-41 -96t-100 -39h-21q-59 0 -100 39t-41 96z" />
<glyph unicode=";" d="M285 -238q0 6 4 23l143 512h273l-297 -543q-27 -51 -64 -51q-25 0 -42 17.5t-17 41.5zM414 719q0 57 41 96t100 39h20q59 0 100.5 -39t41.5 -96t-41 -96t-101 -39h-20q-59 0 -100 39t-41 96z" />
<glyph unicode="&#x3c;" d="M147 575l857 476q16 10 24 10q18 0 33 -21l2 -6q6 -10 6 -18q0 -23 -27 -37l-727 -404l727 -403q27 -14 27 -35q0 -10 -6 -20l-4 -6q-10 -20 -31 -21q-10 0 -27 10z" />
<glyph unicode="=" d="M104 432q0 41 56 41h909q55 0 55 -41q0 -43 -55 -43h-909q-55 0 -56 43zM104 727q0 41 56 41h909q55 0 55 -41q0 -43 -55 -43h-909q-55 0 -56 43z" />
<glyph unicode="&#x3e;" d="M160 137q0 20 26 35l727 403l-727 404q-27 14 -26 37q0 8 6 18l4 6q10 20 31 21q10 0 26 -10l854 -476l-856 -475q-16 -10 -24 -10q-23 0 -33 21l-2 6q-6 10 -6 20z" />
<glyph unicode="?" d="M274 944v139q10 4 32 13.5t28 11.5q166 74 299 74q164 0 264 -87t100 -229q0 -115 -72.5 -192.5t-265.5 -167.5v-84q0 -55 -41 -55q-43 0 -43 55v139q180 76 259 146.5t79 158.5q0 102 -81.5 167t-208.5 65q-125 0 -265 -70v-84q0 -55 -41 -55q-43 0 -43 55zM471 72 q0 45 32 73.5t85 28.5h55q53 0 85 -28.5t32 -73.5t-33 -74t-84 -29h-55q-53 0 -85 29t-32 74z" />
<glyph unicode="@" d="M215 406v333q0 233 112.5 386t286.5 153q139 0 232.5 -94t93.5 -236v-567q39 -6 39 -41q0 -43 -55 -43h-68v10q-61 -6 -82 -6q-119 0 -198.5 74t-79.5 182q0 127 100 211t256 84h4v96q0 106 -67.5 176t-172.5 70q-139 0 -228 -129t-89 -332v-327q0 -188 96 -332 q80 -117 230 -117q143 0 215 61q25 23 39 23q16 0 28.5 -11.5t12.5 -27.5q0 -47 -97.5 -88t-210.5 -41q-178 0 -286 154q-111 160 -111 379zM580 559q0 -78 56 -126t144 -48q43 0 76 8v377q-121 0 -198.5 -59.5t-77.5 -151.5z" />
<glyph unicode="A" d="M18 43q0 41 56 41h63l367 985h-246q-55 0 -55 43q0 41 55 41h418l403 -1069h76q55 0 55 -41q0 -43 -55 -43h-319q-55 0 -56 43q0 41 56 41h155l-114 301h-545l-111 -301h162q55 0 55 -41q0 -43 -55 -43h-309q-55 0 -56 43zM365 469h481l-230 600h-30z" />
<glyph unicode="B" d="M88 43q0 41 55 41h111v985h-111q-55 0 -55 43q0 41 55 41h529q150 0 250 -85t100 -212q0 -152 -174 -246q260 -92 260 -297q0 -129 -99.5 -221t-238.5 -92h-627q-55 0 -55 43zM338 84h426q109 0 184.5 66.5t75.5 162.5q0 119 -121 191q-90 53 -260 53h-305v-473zM338 641 h301q131 0 215 61.5t84 155.5q0 90 -76 150.5t-188 60.5h-336v-428z" />
<glyph unicode="C" d="M129 496v170q0 94 40 193t105 169q141 152 351 152q207 -1 354 -142v60q0 55 43 55q41 0 41 -55v-230q0 -55 -43 -55q-37 0 -41 49q-6 94 -111.5 164t-242.5 70q-170 0 -291 -130t-121 -313v-145q0 -184 133 -320.5t313 -136.5q106 0 190.5 43t166.5 142q18 20 37 20 q41 0 41 -39q0 -33 -78 -104q-156 -145 -357 -146q-209 0 -369.5 161t-160.5 368z" />
<glyph unicode="D" d="M88 43q0 41 55 41h70v985h-70q-55 0 -55 43q0 41 55 41h451q199 0 335 -150.5t136 -367.5v-115q0 -219 -136 -369.5t-335 -150.5h-451q-55 0 -55 43zM297 84h307q147 0 262 127t115 291v149q0 178 -133 316q-102 102 -258 102h-293v-985z" />
<glyph unicode="E" d="M88 43q0 41 55 41h111v985h-111q-55 0 -55 43q0 41 55 41h879v-285q0 -55 -43 -55q-41 0 -41 55v201h-600v-428h297v92q0 55 43 55q41 0 41 -55v-268q0 -55 -41 -55q-43 0 -43 55v92h-297v-473h643v244q0 55 43 55q41 0 41 -55v-328h-922q-55 0 -55 43z" />
<glyph unicode="F" d="M88 43q0 41 55 41h111v985h-111q-55 0 -55 43q0 41 55 41h922v-285q0 -55 -43 -55q-41 0 -41 55v201h-643v-428h297v92q0 55 41 55q43 0 43 -55v-268q0 -55 -43 -55q-41 0 -41 55v92h-297v-473h283q57 0 57 -41q0 -43 -57 -43h-478q-55 0 -55 43z" />
<glyph unicode="G" d="M129 500v151q0 109 45 215.5t121 180.5q143 133 346 133t340 -111v29q0 55 43 55q41 0 41 -55v-187q0 -55 -41 -55q-39 0 -41 51q-6 78 -104.5 133.5t-233.5 55.5q-172 0 -285 -111q-68 -63 -107.5 -154.5t-39.5 -181.5v-149q0 -209 127 -329t348 -120q143 0 293 70v307 h-285q-55 0 -55 43q0 41 55 41h398q57 0 57 -41q0 -43 -57 -43h-29v-354q-184 -106 -383 -107q-252 0 -402.5 145.5t-150.5 387.5z" />
<glyph unicode="H" d="M109 43q0 41 57 41h92v985h-51q-55 0 -55 43q0 41 55 41h246q55 0 55 -41q0 -43 -55 -43h-111v-428h553v428h-111q-55 0 -55 43q0 41 55 41h246q55 0 55 -41q0 -43 -55 -43h-51v-985h94q55 0 55 -41q0 -43 -55 -43h-289q-55 0 -55 43q0 41 55 41h111v473h-553v-473h111 q55 0 55 -41q0 -43 -55 -43h-287q-57 0 -57 43z" />
<glyph unicode="I" d="M231 43q0 41 56 41h284v985h-284q-55 0 -56 43q0 41 56 41h653q57 0 57 -41q0 -43 -57 -43h-285v-985h285q57 0 57 -41q0 -43 -57 -43h-653q-55 0 -56 43z" />
<glyph unicode="J" d="M172 152v305q0 55 43 55q41 0 41 -55v-267q154 -139 303 -139q125 0 212 84t87 203v731h-326q-55 0 -55 43q0 41 55 41h607q55 0 55 -41q0 -43 -55 -43h-197v-731q0 -152 -113.5 -261.5t-271.5 -109.5q-98 0 -186 42t-199 143z" />
<glyph unicode="K" d="M88 43q0 41 55 41h111v985h-111q-55 0 -55 43q0 41 55 41h349q55 0 55 -41q0 -43 -55 -43h-154v-510l573 510h-92q-57 0 -57 43q0 41 57 41h242q57 0 57 -41q0 -43 -57 -43h-33l-455 -405q150 -61 232 -173t196 -407h115q55 0 55 -41q0 -43 -55 -43h-178 q-113 311 -201 433t-233 169l-166 -149v-369h154q55 0 55 -41q0 -43 -55 -43h-349q-55 0 -55 43z" />
<glyph unicode="L" d="M129 43q0 41 55 41h197v985h-197q-55 0 -55 43q0 41 55 41h478q55 0 55 -41q0 -43 -55 -43h-197v-985h559v328q0 55 43 55q41 0 41 -55v-412h-924q-55 0 -55 43z" />
<glyph unicode="M" d="M23 43q0 41 55 41h69v985h-51q-55 0 -55 43q0 41 55 41h203l322 -713l315 713h205q55 0 55 -41q0 -43 -55 -43h-51v-985h69q55 0 55 -41q0 -43 -55 -43h-305q-55 0 -55 43q0 41 55 41h152v985h-17l-321 -723h-95l-325 723h-17v-985h152q57 0 57 -41q0 -43 -57 -43h-305 q-55 0 -55 43z" />
<glyph unicode="N" d="M45 1112q0 41 55 41h217l625 -1032v948h-151q-57 0 -58 43q0 41 58 41h305q55 0 55 -41q0 -43 -55 -43h-70v-1069h-106l-625 1032v-948h154q55 0 55 -41q0 -43 -55 -43h-308q-55 0 -55 43q0 41 55 41h70v985h-111q-55 0 -55 43z" />
<glyph unicode="O" d="M104 573q0 254 148.5 430.5t361.5 176.5q217 0 363.5 -177.5t146.5 -437.5q0 -248 -149.5 -423t-360.5 -175q-213 0 -361.5 176t-148.5 430zM188 573q0 -215 125 -368.5t301 -153.5q174 0 300 152.5t126 363.5q0 221 -124 375t-302 154q-176 0 -301 -154t-125 -369z" />
<glyph unicode="P" d="M88 43q0 41 55 41h111v985h-111q-55 0 -55 43q0 41 55 41h492q164 0 275.5 -97.5t111.5 -240.5t-121 -242.5t-295 -99.5h-268v-389h283q57 0 57 -41q0 -43 -57 -43h-478q-55 0 -55 43zM338 557h274q133 0 229.5 76t96.5 182q0 104 -87 179t-208 75h-305v-512z" />
<glyph unicode="Q" d="M104 573q0 254 148.5 430.5t361.5 176.5t361.5 -176.5t148.5 -430.5q0 -252 -143 -426t-356 -180l-111 -82q82 16 137 17q84 0 168 -31q59 -23 92 -23q55 0 142 56q10 8 24 8q16 0 28.5 -12.5t12.5 -30.5q0 -31 -74.5 -68t-138.5 -37q-37 0 -114 27q-72 27 -140 27 q-119 0 -286 -47q-16 -4 -21 -4q-16 0 -28.5 12t-12.5 31q0 20 23 36l184 134q-174 39 -290 207.5t-116 385.5zM188 573q0 -215 125 -368.5t301 -153.5q174 0 300 152.5t126 363.5q0 221 -124 375t-302 154q-176 0 -301 -154t-125 -369z" />
<glyph unicode="R" d="M88 43q0 41 55 41h111v985h-111q-55 0 -55 43q0 41 55 41h508q150 0 259.5 -95t109.5 -224q0 -199 -285 -297q96 -66 162 -150t190 -303h64q55 0 55 -41q0 -43 -55 -43h-117q-135 250 -222 355.5t-204 158.5h-270v-430h154q55 0 55 -41q0 -43 -55 -43h-349q-55 0 -55 43z M338 598h233q152 0 258.5 69.5t106.5 168.5q0 92 -87 162.5t-198 70.5h-313v-471z" />
<glyph unicode="S" d="M188 55v230q0 55 43 55q39 0 41 -49q4 -100 104.5 -170t239.5 -70q143 0 238.5 75t95.5 187q0 117 -92 172q-59 39 -237 70q-197 33 -279 94q-106 74 -106 213q0 135 107.5 226.5t268.5 91.5q176 0 299 -121v39q0 55 43 55q41 0 41 -55v-211q0 -55 -41 -56q-41 0 -43 50 q-6 92 -90 153.5t-203 61.5q-127 0 -209.5 -67.5t-82.5 -168t80 -155.5q70 -45 231 -72q201 -35 276 -82q127 -78 127 -242q0 -150 -118.5 -246t-303.5 -96q-217 0 -346 148v-60q0 -55 -43 -55q-41 0 -41 55z" />
<glyph unicode="T" d="M147 920v233h934v-233q0 -55 -41 -56q-18 0 -30.5 15.5t-12.5 40.5v149h-340v-985h215q55 0 56 -41q0 -43 -56 -43h-514q-55 0 -55 43q0 41 55 41h215v985h-342v-149q0 -55 -43 -56q-41 0 -41 56z" />
<glyph unicode="U" d="M82 1112q0 41 55 41h305q55 0 56 -41q0 -43 -56 -43h-151v-690q0 -139 93 -233.5t230 -94.5q135 0 229.5 95.5t94.5 232.5v690h-152q-55 0 -55 43q0 41 55 41h306q55 0 55 -41q0 -43 -55 -43h-70v-690q0 -174 -118 -293t-290 -119q-174 0 -290.5 118t-116.5 294v690h-70 q-55 0 -55 43z" />
<glyph unicode="V" d="M18 1112q0 41 56 41h309q55 0 55 -41q0 -43 -55 -43h-158l381 -985h6l396 985h-160q-55 0 -55 43q0 41 55 41h307q55 0 55 -41q0 -43 -55 -43h-63l-428 -1069h-117l-410 1069h-63q-55 0 -56 43z" />
<glyph unicode="W" d="M41 1112q0 41 55 41h305q57 0 58 -41q0 -43 -58 -43h-190l115 -975l229 803h127l223 -803l117 975h-197q-55 0 -55 43q0 41 55 41h308q55 0 55 -41q0 -43 -55 -43h-31l-127 -1069h-131l-230 819l-235 -819h-129l-123 1069h-31q-55 0 -55 43z" />
<glyph unicode="X" d="M82 43q0 41 55 41h35l385 506l-367 479h-30q-55 0 -56 43q0 41 56 41h225q55 0 55 -41q0 -43 -55 -43h-88l317 -412l314 412h-92q-55 0 -56 43q0 41 56 41h227q55 0 55 -41q0 -43 -55 -43h-31l-366 -479l391 -506h35q55 0 55 -41q0 -43 -55 -43h-271q-55 0 -55 43 q0 41 55 41h127l-338 438l-336 -438h132q55 0 55 -41q0 -43 -55 -43h-269q-55 0 -55 43z" />
<glyph unicode="Y" d="M104 1112q0 41 56 41h227q55 0 55 -41q0 -43 -55 -43h-78l312 -465l305 465h-82q-57 0 -58 43q0 41 58 41h225q55 0 55 -41q0 -43 -55 -43h-49l-361 -549v-436h215q55 0 56 -41q0 -43 -56 -43h-514q-55 0 -55 43q0 41 55 41h215v436l-366 549h-49q-55 0 -56 43z" />
<glyph unicode="Z" d="M211 0v121l672 942v6h-551v-242q0 -57 -41 -57q-43 0 -43 57v326h715v-119l-672 -942v-8h643v289q0 55 41 55q43 0 43 -55v-373h-807z" />
<glyph unicode="[" d="M573 -254v1491h283q55 0 55 -41q0 -43 -55 -43h-199v-1323h199q55 0 55 -41q0 -43 -55 -43h-283z" />
<glyph unicode="\" d="M231 1329q0 14 13.5 26.5t29.5 12.5q25 0 43 -37l670 -1425q10 -18 10 -32.5t-12 -27t-29 -12.5q-27 0 -45 37l-669 1425q-10 20 -11 33z" />
<glyph unicode="]" d="M317 -213q0 43 56 43h198v1323h-198q-55 0 -56 41q0 43 56 43h282v-1491h-282q-55 0 -56 41z" />
<glyph unicode="^" d="M231 766q0 16 19 37l364 457l365 -457q18 -20 18 -37q0 -16 -12 -28.5t-29 -12.5q-23 0 -41 27l-301 378l-301 -378q-18 -27 -41 -27q-16 0 -28.5 12.5t-12.5 28.5z" />
<glyph unicode="_" d="M-25 -154h1278v-102h-1278v102z" />
<glyph unicode="`" d="M317 1268q0 16 12.5 28.5t28.5 12.5q14 -1 39 -19l234 -205l14 -16q10 -10 10 -22q0 -18 -12 -30.5t-31 -12.5q-14 0 -37 18l-233 205q-25 23 -25 41z" />
<glyph unicode="a" d="M147 229q0 133 120 216t313 83q121 0 278 -43v146q0 76 -69.5 122t-182.5 46q-92 0 -291 -62q-16 -4 -20 -4q-16 0 -27.5 12.5t-11.5 28.5q0 31 35 43q190 66 321 66q143 0 236.5 -72t93.5 -180v-547h111q55 0 55 -41q0 -43 -55 -43h-195v137q-182 -170 -391 -170 q-143 0 -231.5 73t-88.5 189zM231 227q0 -80 63.5 -128t170.5 -48q109 0 200 41t193 137v185q-119 30 -253 30h-9q-162 0 -263.5 -60t-101.5 -157z" />
<glyph unicode="b" d="M45 43q0 41 55 41h111v1069h-111q-55 0 -55 43q0 41 55 41h195v-565q150 211 369 211q186 0 315 -131t129 -322q0 -193 -130 -328t-314 -135q-225 0 -369 213v-180h-195q-55 0 -55 43zM295 426q0 -156 106.5 -265.5t257.5 -109.5q150 0 257.5 108.5t107.5 260.5 q0 160 -105.5 269.5t-259.5 109.5q-152 0 -258 -108.5t-106 -264.5z" />
<glyph unicode="c" d="M172 418q0 203 133 334t338 131q191 0 320 -113v27q0 57 43 57q41 0 41 -57v-187q0 -55 -41 -55q-37 0 -43 49q-6 82 -101.5 138.5t-224.5 56.5q-170 0 -275.5 -105.5t-105.5 -273.5q0 -162 106.5 -265.5t274.5 -103.5q223 0 383 148q20 20 36.5 20t28 -11t11.5 -28 q0 -41 -88 -100q-164 -113 -375 -113q-201 0 -331 127t-130 324z" />
<glyph unicode="d" d="M129 426q0 188 130 322.5t312 134.5q225 0 373 -213v483h-110q-55 0 -56 43q0 41 56 41h194v-1153h111q55 0 55 -41q0 -43 -55 -43h-195v182q-145 -215 -373 -215q-182 0 -312 135.5t-130 323.5zM213 426q0 -158 106.5 -266.5t260.5 -108.5q152 0 258 108.5t106 262.5 q0 160 -105 268.5t-261 108.5q-152 0 -258.5 -108.5t-106.5 -264.5z" />
<glyph unicode="e" d="M129 444q0 186 135 312.5t332 126.5q147 0 263 -74t171 -201q35 -81 35 -200h-852q23 -162 135.5 -259.5t278.5 -97.5q96 0 196.5 31t161.5 80q20 14 33 14q16 0 27.5 -12t11.5 -29q0 -53 -146.5 -110.5t-285.5 -57.5q-207 0 -351.5 139.5t-144.5 337.5zM213 492h766 q-25 139 -129.5 223t-254 84t-251.5 -83t-131 -224z" />
<glyph unicode="f" d="M215 43q0 41 55 41h201v686h-180q-55 0 -55 43q0 41 55 41h180v125q0 113 89 185.5t226 72.5q143 0 285 -27q37 -10 37 -41q0 -41 -43 -41q-4 0 -102 13q-111 12 -181 12q-100 0 -163.5 -48t-63.5 -126v-125h387q55 0 55 -41q0 -43 -55 -43h-387v-686h365q55 0 55 -41 q0 -43 -55 -43h-650q-55 0 -55 43z" />
<glyph unicode="g" d="M129 452.5q0 178.5 124 304.5t298 126q217 0 350 -199v170h195q55 0 55 -41q0 -43 -55 -43h-111v-827q0 -119 -88 -213q-104 -111 -250 -111h-233q-55 0 -56 43q0 41 56 41h237q104 0 177 73.5t73 178.5v264q-135 -199 -350 -199q-174 0 -298 127t-124 305.5zM213 452.5 q0 -145.5 100.5 -247t243.5 -101.5t243.5 100.5t100.5 244.5q0 150 -99.5 250t-244.5 100q-143 0 -243.5 -100.5t-100.5 -246z" />
<glyph unicode="h" d="M88 1196q0 41 55 41h195v-526q78 94 149.5 133t165.5 39q143 0 234.5 -81t91.5 -206v-512h92q57 0 57 -41q0 -43 -57 -43h-268q-55 0 -55 43q0 41 55 41h92v506q0 94 -78 155q-63 53 -174 54q-86 0 -142.5 -34t-140.5 -132l-22 -27v-522h92q57 0 57 -41q0 -43 -57 -43 h-270q-55 0 -56 43q0 41 56 41h94v1069h-111q-55 0 -55 43z" />
<glyph unicode="i" d="M188 43q0 41 56 41h327v686h-241q-55 0 -56 43q0 41 56 41h325v-770h328q57 0 57 -41q0 -43 -57 -43h-739q-55 0 -56 43zM530 1065v213h121v-213h-121z" />
<glyph unicode="j" d="M301 -338q0 41 55 41h262q102 0 169 67.5t67 172.5v827h-494q-55 0 -55 43q0 41 55 41h578v-911q0 -143 -89 -233.5t-228 -90.5h-265q-55 0 -55 43zM727 1065v213h121v-213h-121z" />
<glyph unicode="k" d="M129 43q0 41 55 41h111v1069h-111q-55 0 -55 43q0 41 55 41h195v-768l354 301h-45q-55 0 -55 43q0 41 55 41h266q55 0 56 -41q0 -43 -56 -43h-96l-321 -268l424 -418h92q55 0 55 -41q0 -43 -55 -43h-269q-55 0 -55 43q0 41 55 41h58l-369 365l-94 -80v-369h-195 q-55 0 -55 43z" />
<glyph unicode="l" d="M188 43q0 41 56 41h327v1069h-239q-55 0 -56 43q0 41 56 41h323v-1153h328q57 0 57 -41q0 -43 -57 -43h-739q-55 0 -56 43z" />
<glyph unicode="m" d="M23 43q0 41 55 41h69v686h-69q-55 0 -55 43q0 41 55 41h151v-106q51 74 100.5 104.5t114.5 30.5q131 0 199 -146q113 145 231 146q88 0 152 -65.5t64 -155.5v-578h69q55 0 55 -41q0 -43 -55 -43h-151v653q0 57 -41 101.5t-95 44.5q-102 0 -213 -168v-547h70q55 0 55 -41 q0 -43 -55 -43h-151v647q0 59 -40 105.5t-94 46.5q-102 0 -215 -168v-547h70q55 0 55 -41q0 -43 -55 -43h-223q-53 0 -53 43z" />
<glyph unicode="n" d="M109 43q0 41 57 41h92v686h-70q-55 0 -55 43q0 41 55 41h154v-141q88 98 155.5 134t164.5 36q137 0 229 -80t92 -199v-520h70q55 0 55 -41q0 -43 -55 -43h-224q-55 0 -55 43q0 41 55 41h70v506q0 90 -78 155q-63 53 -168 54q-113 0 -194 -68q-37 -27 -117 -129v-518h92 q55 0 55 -41q0 -43 -55 -43h-268q-57 0 -57 43z" />
<glyph unicode="o" d="M147 426q0 188 136 322.5t331 134.5q197 0 332 -134.5t135 -328.5q0 -188 -137 -320.5t-330 -132.5q-195 0 -331 133t-136 326zM231 426q0 -156 112 -265.5t271 -109.5q158 0 270.5 108.5t112.5 260.5q0 162 -110.5 270.5t-272.5 108.5q-160 0 -271.5 -108.5 t-111.5 -264.5z" />
<glyph unicode="p" d="M45 -338q0 41 55 41h111v1067h-111q-55 0 -55 43q0 41 55 41h195v-168q82 106 166 151.5t201 45.5q190 0 318 -124t128 -306.5t-129 -307.5t-317 -125q-229 0 -367 197v-514h201q55 0 55 -41q0 -43 -55 -43h-396q-55 0 -55 43zM295 453q0 -145 106.5 -247t258 -102 t258 100.5t106.5 244.5q0 150 -104.5 250t-260.5 100q-152 0 -258 -101.5t-106 -244.5z" />
<glyph unicode="q" d="M129 452.5q0 182.5 129 306.5t320 124q227 0 366 -197v168h195q55 0 55 -41q0 -43 -55 -43h-111v-1067h111q55 0 55 -41q0 -43 -55 -43h-396q-55 0 -55 43q0 41 55 41h201v514q-137 -197 -369 -197q-188 0 -317 125t-129 307.5zM213 452.5q0 -145.5 105.5 -247 t259.5 -101.5q152 0 259 100.5t107 244.5q0 150 -105 250t-261 100q-154 0 -259.5 -100.5t-105.5 -246z" />
<glyph unicode="r" d="M172 43q0 41 55 41h197v686h-154q-55 0 -55 43q0 41 55 41h238v-209q141 129 229 179t166 50q82 0 158 -63q47 -39 47 -63q0 -18 -12.5 -30.5t-30.5 -12.5q-16 0 -33 16q-72 70 -135 70q-70 0 -144.5 -49.5t-244.5 -204.5v-453h366q55 0 56 -43q0 -41 -56 -41h-647 q-55 0 -55 43z" />
<glyph unicode="s" d="M211 55v170q0 55 43 56q41 0 41 -45v-15q0 -70 92 -120t223 -50q135 0 225.5 53.5t90.5 135.5q0 80 -90 129q-72 39 -222 55q-193 20 -266 65q-94 61 -94 162t99.5 166.5t250.5 65.5q175 -1 281 -95v9q0 57 43 57q41 0 41 -57v-142q0 -55 -41 -55q-37 0 -43 47 q-8 70 -82 111t-191 41q-115 0 -190.5 -44t-75.5 -110q0 -55 66 -92q35 -23 69.5 -30t167.5 -21q176 -20 266 -80q102 -70 103 -184q0 -117 -113.5 -194t-288.5 -77q-197 0 -321 111v-23q0 -55 -41 -55q-43 0 -43 55z" />
<glyph unicode="t" d="M88 813q0 41 57 41h152v244q0 55 43 55q41 0 41 -55v-244h450q55 0 56 -41q0 -43 -56 -43h-450v-547q0 -78 61.5 -125t167.5 -47q86 0 183.5 23.5t156.5 58.5q20 12 33 12q14 0 26.5 -12t12.5 -29q0 -45 -138.5 -91t-269.5 -46q-145 0 -231 68.5t-86 183.5v551h-152 q-57 0 -57 43z" />
<glyph unicode="u" d="M88 813q0 41 55 41h195v-618q0 -78 54 -131.5t132 -53.5q205 0 375 185v534h-151q-57 0 -58 43q0 41 58 41h235v-770h70q55 0 55 -41q0 -43 -55 -43h-154v135q-172 -168 -373 -168q-123 0 -197.5 74t-74.5 195v534h-111q-55 0 -55 43z" />
<glyph unicode="v" d="M61 813q0 41 56 41h309q57 0 57 -41q0 -43 -57 -43h-133l307 -686h39l301 686h-139q-55 0 -56 43q0 41 56 41h311q55 0 55 -41q0 -43 -55 -43h-84l-340 -770h-143l-344 770h-84q-55 0 -56 43z" />
<glyph unicode="w" d="M61 813q0 41 56 41h227q55 0 55 -41q0 -43 -55 -43h-108l147 -655l176 522h105l182 -522l141 655h-102q-55 0 -56 43q0 41 56 41h227q55 0 55 -41q0 -43 -55 -43h-39l-170 -770h-102l-187 530l-182 -530h-104l-172 770h-39q-55 0 -56 43z" />
<glyph unicode="x" d="M104 43q0 41 56 41h18l377 365l-334 321h-14q-55 0 -55 43q0 41 55 41h227q55 0 55 -41q0 -43 -55 -43h-94l274 -266l281 266h-98q-55 0 -56 43q0 41 56 41h225q55 0 55 -41q0 -43 -55 -43h-14l-334 -321l377 -365h18q55 0 55 -41q0 -43 -55 -43h-270q-55 0 -56 43 q0 41 56 41h133l-318 305l-321 -305h139q55 0 55 -41q0 -43 -55 -43h-272q-55 0 -56 43z" />
<glyph unicode="y" d="M104 813q0 41 56 41h235q55 0 56 -41q0 -43 -56 -43h-106l336 -678l329 678h-110q-55 0 -56 43q0 41 56 41h225q55 0 55 -41q0 -43 -55 -43h-29l-524 -1067h133q55 0 56 -41q0 -43 -56 -43h-477q-55 0 -55 43q0 41 55 41h260l146 297l-385 770h-33q-55 0 -56 43z" />
<glyph unicode="z" d="M236 0v74l616 696h-514v-113q0 -55 -41 -55q-43 0 -43 55v197h717v-74l-621 -696h568v115q0 55 43 55q41 0 40 -55v-199h-765z" />
<glyph unicode="{" d="M403 492q0 41 50 43q55 4 88.5 39.5t33.5 93.5v354q0 90 58.5 152.5t142.5 62.5q49 0 49 -41q0 -37 -53 -43q-49 -4 -81 -41t-32 -90v-354q0 -63 -19 -101.5t-71 -74.5q51 -37 70.5 -75t19.5 -102v-354q0 -53 32 -90t81 -41q53 -6 53 -43q0 -41 -49 -41 q-84 0 -142.5 62.5t-58.5 152.5v354q0 55 -33.5 92t-88.5 42q-49 2 -50 43z" />
<glyph unicode="|" d="M573 -199v1381q0 55 41 55t41 -55v-1381q0 -55 -41 -55t-41 55z" />
<glyph unicode="}" d="M403 -213q0 37 54 43q49 4 80.5 41t31.5 90v354q0 63 19.5 101.5t70.5 75.5q-51 37 -70.5 74.5t-19.5 101.5v354q0 53 -31.5 90t-80.5 41q-53 6 -54 43q0 41 50 41q84 0 142 -62.5t58 -152.5v-354q0 -55 34 -92t89 -41q49 -2 49 -43t-49 -43q-55 -4 -89 -40t-34 -94v-354 q0 -90 -58 -152.5t-142 -62.5q-49 0 -50 41z" />
<glyph unicode="~" d="M188 510q0 27 58 92q96 111 188 111q49 0 86 -18.5t121 -86.5q111 -90 150 -90q74 0 149 107q34 51 59 51q16 0 28.5 -11.5t12.5 -27.5q0 -23 -51 -82q-100 -121 -192 -121q-49 0 -95.5 25.5t-142.5 107.5q-76 61 -125 62q-39 0 -68.5 -23.5t-97.5 -109.5 q-18 -25 -41 -25q-14 0 -26.5 12.5t-12.5 26.5z" />
<glyph unicode="&#xa0;" />
<glyph unicode="&#xa3;" d="M170 602q0 41 55 41h152q-55 174 -55 246q0 125 85 210t205 85q113 0 199 -80q63 -57 63 -90q0 -14 -13 -26.5t-27 -12.5q-18 0 -35 24q-86 98 -187 99q-84 0 -145 -61.5t-61 -147.5q0 -55 47 -217q2 -4 8 -29h241q57 0 58 -45q0 -39 -58 -39h-223q10 -72 10 -117 q1 -208 -116 -358h516q39 0 64.5 27.5t27.5 76.5q6 47 43 48q39 0 39 -46q0 -78 -50 -134t-120 -56h-662q-55 0 -55 43q0 39 45 39q72 4 128.5 114.5t56.5 254.5q0 74 -9 108h-172q-55 0 -55 43z" />
<glyph unicode="&#xad;" d="M147 571q0 41 56 41h823q55 0 55 -41q0 -43 -55 -43h-823q-55 0 -56 43z" />
<glyph unicode="&#x591;" horiz-adv-x="0" d="M-186 -455q0 68 41 118t104 65v108q0 16 12.5 28.5t28.5 12.5t28.5 -12t12.5 -29v-108q63 -14 104 -64.5t41 -118.5q0 -16 -12 -28.5t-29 -12.5q-18 0 -30.5 12.5t-12.5 28.5q0 43 -29.5 73t-72.5 30t-72.5 -30t-29.5 -73q0 -16 -12.5 -28.5t-30.5 -12.5 q-16 0 -28.5 12.5t-12.5 28.5z" />
<glyph unicode="&#x592;" horiz-adv-x="0" d="M-180 1165q0 27 17.5 44.5t42 17.5t43 -17.5t18.5 -44.5q0 -25 -18.5 -42t-43 -17t-42 17.5t-17.5 41.5zM-59 1407q0 25 17 42t42 17t42 -17t17 -42t-17 -42t-42 -17t-42 17t-17 42zM59 1165q0 27 18.5 44.5t43 17.5t42 -17.5t17.5 -44.5q0 -25 -17.5 -42t-42 -17 t-43 17.5t-18.5 41.5z" />
<glyph unicode="&#x593;" horiz-adv-x="0" d="M-217 1466.5q0 20.5 29 30.5l258 64l-80 26q-29 10 -19 39q6 29 39 21l180 -62q29 -14 28 -31.5t-30 -25.5l-243 -62l243 -61q20 -4 27.5 -17.5t-0.5 -25.5t-27 -16l-243 -60l243 -61q31 -12 29 -32t-27 -28l-180 -59q-12 -4 -23.5 2t-15.5 16q-12 31 19 39l80 29 l-258 63q-27 10 -27 31t27 29l241 61l-241 60q-29 10 -29 30.5z" />
<glyph unicode="&#x594;" horiz-adv-x="0" d="M-59 1165q0 27 17 44.5t42 17.5t42 -17.5t17 -44.5q0 -25 -17 -42t-42 -17t-42 17.5t-17 41.5zM-59 1407q0 25 17 42t42 17t42 -17t17 -42t-17 -42t-42 -17t-42 17t-17 42z" />
<glyph unicode="&#x595;" horiz-adv-x="0" d="M-158 1147v278q0 16 12.5 28.5t29 12.5t29.5 -12t13 -29v-278q0 -16 -13 -28.5t-29.5 -12.5t-29 12.5t-12.5 28.5zM39 1165q0 27 17.5 44.5t42 17.5t42 -17.5t17.5 -44.5q0 -25 -17.5 -42t-42 -17t-42 17.5t-17.5 41.5zM39 1407q0 25 17.5 42t42 17t42 -17t17.5 -42 t-17.5 -42t-42 -17t-42 17t-17.5 42z" />
<glyph unicode="&#x596;" horiz-adv-x="0" d="M-115 -164q0 16 12.5 28.5t28.5 12.5q18 0 30.5 -12.5t12.5 -28.5q0 -176 131 -293q31 -29 4 -59q-31 -33 -59 -4q-160 141 -160 356z" />
<glyph unicode="&#x597;" horiz-adv-x="0" d="M-145 1251l145 144l145 -144l-145 -145z" />
<glyph unicode="&#x598;" horiz-adv-x="0" d="M-276 1237q0 53 38.5 93t92 40t94.5 -37l153 -137q18 -18 43 -18t42.5 16t17.5 43q0 25 -17.5 43t-42.5 18q-14 0 -25 10.5t-11 26.5q0 14 11 24.5t25 10.5q53 0 92 -40t39 -93q0 -55 -38.5 -93t-92.5 -38q-57 0 -94 39l-153 137q-16 16 -43 16q-25 0 -42.5 -18 t-17.5 -43q0 -27 17.5 -43t42.5 -16q14 0 25 -10.5t11 -24.5q0 -16 -11 -26.5t-25 -10.5q-53 0 -92 38t-39 93z" />
<glyph unicode="&#x599;" horiz-adv-x="0" d="M-104 1499q31 33 59 4q160 -141 160 -356q0 -16 -12.5 -28.5t-28.5 -12.5q-18 0 -30.5 12.5t-12.5 28.5q0 176 -131 293q-31 29 -4 59z" />
<glyph unicode="&#x59a;" horiz-adv-x="0" d="M-186.5 -305.5q0.5 24.5 24.5 37.5l289 145q37 18 55 -18q18 -39 -18 -58l-213 -106l213 -107q37 -18 18 -57q-18 -37 -55 -18l-289 145q-25 12 -24.5 36.5z" />
<glyph unicode="&#x59b;" horiz-adv-x="0" d="M-180 -182q0 25 17.5 42t42 17t42 -17.5t17.5 -41.5q0 -27 -17.5 -44.5t-42 -17.5t-42 17.5t-17.5 44.5zM-37 -516q-29 29 2 59q131 117 131 293q0 16 13.5 28.5t30 12.5t28.5 -12t12 -29v-8q0 -211 -160 -348q-12 -12 -29.5 -11t-27.5 15z" />
<glyph unicode="&#x59c;" horiz-adv-x="0" d="M-115 1147q0 215 160 356q29 29 59 -4q27 -31 -4 -59q-131 -117 -131 -293q0 -16 -12 -28.5t-31 -12.5q-16 0 -28.5 12t-12.5 29z" />
<glyph unicode="&#x59d;" horiz-adv-x="0" d="M-115 1147q0 215 160 356q29 29 59 -4q27 -31 -4 -59q-131 -117 -131 -293q0 -16 -12 -28.5t-31 -12.5q-16 0 -28.5 12t-12.5 29z" />
<glyph unicode="&#x59e;" horiz-adv-x="0" d="M-254 1147q0 215 160 356q33 29 59 -4q29 -29 -2 -59q-131 -115 -133 -293q0 -16 -12.5 -28.5t-28.5 -12.5t-29.5 12t-13.5 29zM23 1147q0 215 159 356q33 29 60 -4q29 -29 -2 -59q-132 -115 -134 -293q0 -16 -12 -28.5t-28.5 -12.5t-29.5 12t-13 29z" />
<glyph unicode="&#x59f;" horiz-adv-x="0" d="M-436 1323q0 66 46 111t109 45q66 0 112 -45t46 -111q1 -49 -24 -86l73 -72q25 -25 0 -49q-25 -27 -51 0l-70 74q-37 -25 -86 -25q-66 0 -110.5 46t-44.5 112zM-365 1323q0 -35 25 -60.5t59.5 -25.5t60 25.5t25.5 60.5t-25.5 59.5t-60 24.5t-59.5 -25.5t-25 -58.5z M73.5 1116q-24.5 25 0.5 49l73 72q-25 37 -24 86q0 66 46 111t112 45q63 0 109 -45t46 -111t-45 -112t-110 -46q-47 0 -84 25l-74 -74q-25 -25 -49.5 0zM195 1323q0 -35 25.5 -60.5t60 -25.5t59.5 25.5t25 60.5q0 33 -25 58.5t-59.5 25.5t-60 -24.5t-25.5 -59.5z" />
<glyph unicode="&#x5a0;" horiz-adv-x="0" d="M-176.5 1116q-24.5 25 0.5 49l74 72q-25 43 -25 86q0 63 46 109.5t112 46.5q63 0 109 -45t46 -111t-45 -112t-110 -46q-47 0 -82 25l-76 -74q-25 -25 -49.5 0zM-55 1323q0 -35 25.5 -60.5t60.5 -25.5t59.5 25.5t24.5 60.5q0 33 -24.5 58.5t-59.5 25.5t-60.5 -24.5 t-25.5 -59.5z" />
<glyph unicode="&#x5a1;" horiz-adv-x="0" d="M-190 1147v291q0 16 12 28.5t28 12.5q18 0 31 -12.5t13 -28.5v-105h8q141 0 211 125q8 14 24.5 19.5t30.5 -2.5q37 -23 18 -58q-94 -168 -284 -168h-8v-102q0 -16 -12.5 -28.5t-31.5 -12.5q-16 0 -28 12t-12 29z" />
<glyph unicode="&#x5a2;" horiz-adv-x="0" d="M-186 -164q0 16 12 28.5t29 12.5q18 0 30.5 -12t12.5 -29q0 -43 29.5 -73.5t72.5 -30.5t72.5 30.5t29.5 73.5q0 16 12.5 28.5t30.5 12.5q16 0 28.5 -12t12.5 -29q0 -68 -41 -118t-104 -64v-109q0 -16 -12.5 -28.5t-28.5 -12.5t-28.5 12.5t-12.5 28.5v109 q-63 14 -104 64.5t-41 117.5z" />
<glyph unicode="&#x5a3;" horiz-adv-x="0" d="M-201 -369q0 18 12.5 30.5t28.5 12.5h279v162q0 16 12 28.5t28.5 12.5t29 -12t12.5 -29v-174q0 -29 -20.5 -50.5t-49.5 -21.5h-291q-16 0 -28.5 12.5t-12.5 28.5z" />
<glyph unicode="&#x5a4;" horiz-adv-x="0" d="M-186.5 -305.5q0.5 24.5 24.5 37.5l289 145q37 18 55 -18q18 -39 -18 -58l-213 -106l213 -107q37 -18 18 -57q-18 -37 -55 -18l-289 145q-25 12 -24.5 36.5z" />
<glyph unicode="&#x5a5;" horiz-adv-x="0" d="M-104 -516q-27 31 4 59q131 117 131 293q0 16 12 28.5t31 12.5q16 0 28.5 -12t12.5 -29q0 -215 -160 -356q-29 -29 -59 4z" />
<glyph unicode="&#x5a6;" horiz-adv-x="0" d="M-242 -516q-29 29 2 59q132 115 134 293q0 16 12 28.5t28.5 12.5t29.5 -12t13 -29q0 -215 -159 -356q-33 -29 -60 4zM35 -516q-29 29 2 59q131 115 133 293q0 16 12.5 28.5t28.5 12.5t29.5 -12t13.5 -29q0 -215 -160 -356q-33 -29 -59 4z" />
<glyph unicode="&#x5a7;" horiz-adv-x="0" d="M-236 -455q0 18 13.5 30.5t29.5 12.5h211l-149 224q-12 29 -12 41q0 16 47 24h289q16 0 29.5 -12t13.5 -29q0 -18 -13.5 -30.5t-29.5 -12.5h-211l149 -223q12 -29 12 -41q0 -17 -47 -25h-289q-16 0 -29.5 12.5t-13.5 28.5z" />
<glyph unicode="&#x5a8;" horiz-adv-x="0" d="M-104 1499q31 33 59 4q160 -141 160 -356q0 -16 -12.5 -28.5t-28.5 -12.5q-18 0 -30.5 12.5t-12.5 28.5q0 176 -131 293q-31 29 -4 59z" />
<glyph unicode="&#x5a9;" horiz-adv-x="0" d="M-186 1323q0 66 46 111t109 45q66 0 112 -46.5t46 -109.5q0 -43 -25 -86l74 -72q25 -25 0 -49q-25 -27 -51 0l-70 74q-35 -25 -86 -25q-66 0 -110.5 46t-44.5 112zM-115 1323q0 -35 24.5 -60.5t59.5 -25.5t60.5 25.5t25.5 60.5q0 33 -23.5 58.5t-54.5 25.5h-8 q-35 -4 -59.5 -27.5t-24.5 -56.5z" />
<glyph unicode="&#x5aa;" horiz-adv-x="0" d="M-186 -164q0 16 12 28.5t29 12.5q18 0 30.5 -12t12.5 -29q0 -43 29.5 -73.5t72.5 -30.5t72.5 30.5t29.5 73.5q0 16 12.5 28.5t30.5 12.5q16 0 28.5 -12t12.5 -29q0 -68 -41 -118t-104 -64v-109q0 -16 -12.5 -28.5t-28.5 -12.5t-28.5 12.5t-12.5 28.5v109 q-63 14 -104 64.5t-41 117.5z" />
<glyph unicode="&#x5ab;" horiz-adv-x="0" d="M-186.5 1288q0.5 25 24.5 37l289 145q37 18 55 -18q18 -39 -18 -57l-213 -107l213 -106q37 -18 18 -58q-18 -37 -55 -18l-289 145q-25 12 -24.5 37z" />
<glyph unicode="&#x5ac;" horiz-adv-x="0" d="M-201 1147q0 18 12.5 30.5t28.5 12.5h279v162q0 16 12 28.5t28.5 12.5t29 -12.5t12.5 -28.5v-174q0 -29 -20.5 -50.5t-49.5 -21.5h-291q-16 0 -28.5 12t-12.5 29z" />
<glyph unicode="&#x5ad;" horiz-adv-x="0" d="M-115 -164q0 16 12.5 28.5t28.5 12.5q18 0 30.5 -12.5t12.5 -28.5q0 -176 131 -293q31 -29 4 -59q-31 -33 -59 -4q-160 141 -160 356z" />
<glyph unicode="&#x5ae;" horiz-adv-x="0" d="M-276 1237q0 53 38.5 93t92 40t94.5 -37l151 -137q18 -18 45 -18q25 0 42.5 16t17.5 43q0 25 -17.5 43t-42.5 18q-14 0 -25 10.5t-11 26.5q0 14 11 24.5t25 10.5q53 0 92 -40t39 -93q0 -55 -38.5 -93t-92.5 -38q-57 0 -94 39l-153 137q-16 16 -43 16q-25 0 -42.5 -18 t-17.5 -43q0 -27 17.5 -43t42.5 -16q14 0 25 -10.5t11 -24.5q0 -16 -11 -26.5t-25 -10.5q-53 0 -92 38t-39 93z" />
<glyph unicode="&#x5af;" horiz-adv-x="0" d="M-180 1286q0 76 52 128t128 52t128 -52t52 -128t-52 -128t-128 -52t-128 52t-52 128zM-109 1286q0 -45 32 -76.5t77 -31.5t77 31.5t32 76.5t-32 77t-77 32t-77 -32t-32 -77z" />
<glyph unicode="&#x5b0;" horiz-adv-x="0" d="M-59 -182q0 25 17 42t42 17t42 -17.5t17 -41.5q0 -27 -17 -44.5t-42 -17.5t-42 17.5t-17 44.5zM-59 -424q0 25 17 42t42 17t42 -17t17 -42q0 -27 -17 -44t-42 -17t-42 17t-17 44z" />
<glyph unicode="&#x5b1;" horiz-adv-x="0" d="M-301 -182q0 25 17 42t42 17q27 0 44.5 -17.5t17.5 -41.5q0 -27 -17.5 -44.5t-44.5 -17.5q-25 0 -42 17.5t-17 44.5zM-180 -424q0 25 17.5 42t42 17t43 -17t18.5 -42t-18.5 -42t-43 -17t-42 17t-17.5 42zM-59 -182q0 25 17 42t42 17t42 -17.5t17 -41.5q0 -27 -17 -44.5 t-42 -17.5t-42 17.5t-17 44.5zM180 -182q0 25 17.5 42t44.5 17q25 0 42 -17.5t17 -41.5q0 -27 -17.5 -44.5t-41.5 -17.5q-27 0 -44.5 17.5t-17.5 44.5zM180 -424q0 25 17.5 42t44.5 17q25 0 42 -17t17 -42t-17.5 -42t-41.5 -17q-27 0 -44.5 17t-17.5 42z" />
<glyph unicode="&#x5b2;" horiz-adv-x="0" d="M-301 -164q0 16 12.5 28.5t30.5 12.5h274q18 0 30.5 -12t12.5 -29q0 -18 -12 -30.5t-31 -12.5h-274q-18 0 -30.5 12.5t-12.5 30.5zM180 -182q0 25 17.5 42t44.5 17q25 0 42 -17.5t17 -41.5q0 -27 -17.5 -44.5t-41.5 -17.5q-27 0 -44.5 17.5t-17.5 44.5zM180 -424 q0 25 17.5 42t44.5 17q25 0 42 -17t17 -42t-17.5 -42t-41.5 -17q-27 0 -44.5 17t-17.5 42z" />
<glyph unicode="&#x5b3;" horiz-adv-x="0" d="M-303 -164q0 16 13.5 28.5t31.5 12.5h274q18 0 31.5 -12t13.5 -29q0 -18 -13 -30.5t-32 -12.5h-98v-203q0 -16 -11 -28.5t-29.5 -12.5t-30 12.5t-11.5 28.5v203h-94q-18 0 -31.5 12.5t-13.5 30.5zM180 -182q0 25 18.5 42t43 17t43 -17.5t18.5 -41.5q0 -27 -18.5 -44.5 t-43 -17.5t-43 17.5t-18.5 44.5zM180 -424q0 25 18.5 42t43 17t43 -17t18.5 -42t-18.5 -42t-43 -17t-43 17t-18.5 42z" />
<glyph unicode="&#x5b4;" horiz-adv-x="0" d="M-59 -182q0 25 17 42t42 17t42 -17.5t17 -41.5q0 -27 -17 -44.5t-42 -17.5t-42 17.5t-17 44.5z" />
<glyph unicode="&#x5b5;" horiz-adv-x="0" d="M-180 -182q0 25 17.5 42t42 17t43 -17.5t18.5 -41.5q0 -27 -18.5 -44.5t-43 -17.5t-42 17.5t-17.5 44.5zM59 -182q0 25 18.5 42t43 17t42 -17.5t17.5 -41.5q0 -27 -17.5 -44.5t-42 -17.5t-43 17.5t-18.5 44.5z" />
<glyph unicode="&#x5b6;" horiz-adv-x="0" d="M-180 -182q0 25 17.5 42t42 17t43 -17.5t18.5 -41.5q0 -27 -18.5 -44.5t-43 -17.5t-42 17.5t-17.5 44.5zM-59 -424q0 25 17 42t42 17t42 -17t17 -42t-17 -42t-42 -17t-42 17t-17 42zM59 -182q0 25 18.5 42t43 17t42 -17.5t17.5 -41.5q0 -27 -17.5 -44.5t-42 -17.5 t-43 17.5t-18.5 44.5z" />
<glyph unicode="&#x5b7;" horiz-adv-x="0" d="M-180 -164q0 16 13.5 28.5t29.5 12.5h276q16 0 28.5 -12t12.5 -29q0 -18 -12 -30.5t-29 -12.5h-276q-16 0 -29.5 12.5t-13.5 30.5z" />
<glyph unicode="&#x5b8;" horiz-adv-x="0" d="M-180 -164q0 16 12 28.5t29 12.5h278q18 0 29.5 -12t11.5 -29q0 -43 -41 -43h-98v-203q0 -16 -12.5 -28.5t-28.5 -12.5q-18 0 -31.5 12.5t-13.5 28.5v203h-94q-16 0 -28.5 12.5t-12.5 30.5z" />
<glyph unicode="&#x5b9;" horiz-adv-x="0" d="M-59 1167q0 25 17 42.5t42 17.5t42 -17.5t17 -42.5q0 -27 -17 -44t-42 -17t-42 17t-17 44z" />
<glyph unicode="&#x5ba;" horiz-adv-x="0" d="M-59 1167q0 25 17 42.5t42 17.5t42 -17.5t17 -42.5q0 -27 -17 -44t-42 -17t-42 17t-17 44z" />
<glyph unicode="&#x5bb;" horiz-adv-x="0" d="M-301 -182q0 25 17 42t42 17q27 0 44.5 -17.5t17.5 -41.5q0 -27 -17.5 -44.5t-44.5 -17.5q-25 0 -42 17.5t-17 44.5zM-59 -303.5q0 24.5 17 42t42 17.5t42 -17.5t17 -42t-17 -43t-42 -18.5t-42 18.5t-17 43zM180 -424q0 25 17.5 42t44.5 17q25 0 42 -17t17 -42t-17.5 -42 t-41.5 -17q-27 0 -44.5 17t-17.5 42z" />
<glyph unicode="&#x5bc;" horiz-adv-x="0" d="M-59 494q0 25 17 42t42 17t42 -17.5t17 -41.5q0 -27 -17 -44.5t-42 -17.5t-42 17.5t-17 44.5z" />
<glyph unicode="&#x5bd;" horiz-adv-x="0" d="M-41 -164q0 16 12.5 28.5t28.5 12.5t28.5 -12t12.5 -29v-278q0 -16 -12.5 -28.5t-28.5 -12.5t-28.5 12.5t-12.5 28.5v278z" />
<glyph unicode="&#x5be;" d="M205 942q0 16 12.5 28.5t28.5 12.5h737q16 0 28.5 -12.5t12.5 -28.5q0 -18 -12.5 -30.5t-28.5 -12.5h-737q-16 0 -28.5 12.5t-12.5 30.5z" />
<glyph unicode="&#x5bf;" horiz-adv-x="0" d="M-180 1147q0 18 13.5 30.5t29.5 12.5h276q16 0 28.5 -12.5t12.5 -30.5q0 -16 -12 -28.5t-29 -12.5h-276q-16 0 -29.5 12t-13.5 29z" />
<glyph unicode="&#x5c0;" d="M573 -205v1393q0 16 12.5 28.5t29 12.5t28.5 -12.5t12 -28.5v-1393q0 -16 -12 -28.5t-28.5 -12.5t-29 12.5t-12.5 28.5z" />
<glyph unicode="&#x5c1;" horiz-adv-x="0" d="M-61 1104q0 27 18 44t43 17t43 -17.5t18 -43.5q0 -25 -18 -42.5t-43 -17.5t-43 17.5t-18 42.5z" />
<glyph unicode="&#x5c2;" horiz-adv-x="0" d="M-61 1104q0 27 18 44t43 17t43 -17.5t18 -43.5q0 -25 -18 -42.5t-43 -17.5t-43 17.5t-18 42.5z" />
<glyph unicode="&#x5c3;" d="M463 104.5q0 57.5 41 95.5t100 38h21q59 0 100 -38t41 -95.5t-41 -96.5t-100 -39h-21q-59 0 -100 39t-41 96.5zM463 719q0 57 41 96t100 39h21q59 0 100 -39t41 -96t-41 -96t-100 -39h-21q-59 0 -100 39t-41 96z" />
<glyph unicode="&#x5c4;" horiz-adv-x="0" d="M-61 1441.5q0 26.5 17 44t44 17.5t44 -17.5t17 -44t-17 -44t-44 -17.5t-44 17.5t-17 44z" />
<glyph unicode="&#x5c5;" horiz-adv-x="0" d="M-61 -335.5q0 26.5 17 44t44 17.5t44 -17.5t17 -44t-17 -44t-44 -17.5t-44 17.5t-17 44z" />
<glyph unicode="&#x5c6;" d="M424 655q0 90 60.5 209t129.5 119h103q18 0 29.5 -12.5t11.5 -28.5q0 -43 -41 -43h-103q-39 0 -72.5 -94t-33.5 -150l4 -571h246q41 0 41 -43q0 -16 -11.5 -28.5t-29.5 -12.5h-258q-29 0 -49.5 21.5t-20.5 50.5z" />
<glyph unicode="&#x5c7;" horiz-adv-x="0" d="M-180 -164q0 16 12 28.5t29 12.5h278q18 0 29.5 -12t11.5 -29q0 -43 -41 -43h-98v-203q0 -16 -12.5 -28.5t-28.5 -12.5q-18 0 -31.5 12.5t-13.5 28.5v203h-94q-16 0 -28.5 12.5t-12.5 30.5z" />
<glyph unicode="&#x5d0;" d="M164 72v256q0 113 58.5 211t156.5 149l-205 223q-27 35 2 60q35 31 60 -2l555 -609q88 39 139 120t51 175v244h-207q-16 0 -28.5 12.5t-12.5 30.5q0 16 12.5 28.5t28.5 12.5h219q29 0 50.5 -21.5t21.5 -50.5v-256q0 -113 -58.5 -211t-156.5 -149l205 -223q27 -35 -2 -60 q-35 -31 -60 2l-555 609q-88 -39 -139 -120t-51 -175v-244h207q16 0 28.5 -12.5t12.5 -30.5q0 -16 -12.5 -28.5t-28.5 -12.5h-219q-29 0 -50.5 21.5t-21.5 50.5z" />
<glyph unicode="&#x5d1;" d="M164 41q0 18 12 30.5t29 12.5h604v571q0 102 -70.5 173t-173.5 71h-360q-16 0 -28.5 12.5t-12.5 30.5q0 16 12 28.5t29 12.5h360q135 0 231.5 -96t96.5 -232v-571h131q16 0 28.5 -12.5t12.5 -30.5q0 -16 -12.5 -28.5t-28.5 -12.5h-819q-16 0 -28.5 12.5t-12.5 28.5z" />
<glyph unicode="&#x5d2;" d="M305 31q-12 41 25 51q172 43 285.5 194.5t113.5 337.5v285h-207q-16 0 -29.5 12.5t-13.5 30.5q0 16 13.5 28.5t29.5 12.5h219q29 0 50.5 -21.5t21.5 -50.5v-870q0 -16 -12.5 -28.5t-30.5 -12.5q-16 0 -28.5 12.5t-12.5 28.5v301q-39 -131 -142.5 -219t-230.5 -121 q-41 -10 -51 29z" />
<glyph unicode="&#x5d3;" d="M164 942q0 16 12 28.5t29 12.5h819q16 0 28.5 -12.5t12.5 -28.5q0 -18 -12.5 -30.5t-28.5 -12.5h-143v-858q0 -16 -12.5 -28.5t-28.5 -12.5q-18 0 -30.5 12.5t-12.5 28.5v858h-592q-16 0 -28.5 12.5t-12.5 30.5z" />
<glyph unicode="&#x5d4;" d="M164 942q0 16 12 28.5t29 12.5h592q76 0 130 -53t54 -131v-758q0 -16 -12.5 -28.5t-30.5 -12.5q-16 0 -28.5 12.5t-12.5 28.5v758q0 41 -29.5 70.5t-70.5 29.5h-592q-16 0 -28.5 12.5t-12.5 30.5zM207 43v524q0 16 12 28.5t31 12.5q16 0 28.5 -12t12.5 -29v-524 q0 -16 -12.5 -28.5t-28.5 -12.5q-18 0 -30.5 12.5t-12.5 28.5z" />
<glyph unicode="&#x5d5;" d="M365 942q0 16 13 28.5t30 12.5h219q29 0 50 -21.5t21 -50.5v-870q0 -16 -12 -28.5t-31 -12.5q-16 0 -28.5 12.5t-12.5 28.5v858h-206q-16 0 -29.5 12.5t-13.5 30.5z" />
<glyph unicode="&#x5d6;" d="M344 942q0 16 12.5 28.5t28.5 12.5h442q16 0 28.5 -12.5t12.5 -28.5q0 -18 -12 -30.5t-29 -12.5h-172v-858q0 -16 -12 -28.5t-28.5 -12.5t-30 12.5t-13.5 28.5v858h-186q-16 0 -28.5 12.5t-12.5 30.5z" />
<glyph unicode="&#x5d7;" d="M164 942q0 16 12 28.5t29 12.5h819q16 0 28.5 -12.5t12.5 -28.5q0 -18 -12.5 -30.5t-28.5 -12.5h-82v-858q0 -16 -12 -28.5t-29 -12.5q-18 0 -30.5 12.5t-12.5 28.5v858h-487v-858q0 -16 -12.5 -28.5t-30.5 -12.5q-16 0 -28.5 12.5t-12.5 28.5v858h-82q-16 0 -28.5 12.5 t-12.5 30.5z" />
<glyph unicode="&#x5d8;" d="M123 942q0 16 12 28.5t29 12.5h96q29 0 50.5 -21.5t21.5 -50.5v-514q0 -133 95 -228t228 -95q135 0 230.5 95t95.5 228v330q0 76 -53.5 129t-129 53t-129 -53t-53.5 -129v-162q0 -16 -12 -28.5t-31 -12.5q-16 0 -28.5 12.5t-12.5 28.5v162q0 111 78 188.5t188.5 77.5 t188.5 -77.5t78 -188.5v-330q0 -170 -120 -288.5t-290 -118.5q-168 0 -287.5 119.5t-119.5 287.5v502h-84q-16 0 -28.5 12.5t-12.5 30.5z" />
<glyph unicode="&#x5d9;" d="M365 942q0 16 13 28.5t30 12.5h219q29 0 50 -21.5t21 -50.5v-338q0 -16 -12 -28.5t-31 -12.5q-16 0 -28.5 12.5t-12.5 28.5v326h-206q-16 0 -29.5 12.5t-13.5 30.5z" />
<glyph unicode="&#x5da;" d="M102 942q0 16 12.5 28.5t28.5 12.5h820q16 0 28.5 -12.5t12.5 -28.5q0 -18 -12.5 -30.5t-28.5 -12.5h-162v-1225h162q16 0 28.5 -12t12.5 -31q0 -16 -12.5 -28.5t-28.5 -12.5h-175q-29 0 -50 21.5t-21 50.5v1237h-574q-16 0 -28.5 12.5t-12.5 30.5z" />
<glyph unicode="&#x5db;" d="M164 41q0 18 12 30.5t29 12.5h366q135 0 230.5 95t95.5 231v163q0 135 -95 230.5t-231 95.5h-366q-16 0 -28.5 12.5t-12.5 30.5q0 16 12 28.5t29 12.5h366q170 0 290 -121t120 -289v-163q0 -168 -120 -289t-290 -121h-366q-16 0 -28.5 12.5t-12.5 28.5z" />
<glyph unicode="&#x5dc;" d="M164 971v254q0 16 12 28.5t29 12.5q18 0 31.5 -12.5t13.5 -28.5v-242h745q29 0 49.5 -20.5t20.5 -49.5v-163q0 -86 -57 -144l-418 -422q-33 -26 -33 -57q0 -18 12.5 -30.5t28.5 -12.5h115q18 0 30.5 -12.5t12.5 -30.5q0 -16 -12.5 -28.5t-30.5 -12.5h-172 q-29 0 -50.5 21.5t-21.5 50.5v28q0 86 57 144l420 420q35 35 35 84v151h-745q-29 0 -50.5 21.5t-21.5 50.5z" />
<glyph unicode="&#x5dd;" d="M164 942q0 16 12 28.5t29 12.5h676q78 0 131 -53t53 -131v-727q0 -29 -21.5 -50.5t-50.5 -21.5h-633q-29 0 -49 21.5t-20 50.5v827h-86q-16 0 -28.5 12.5t-12.5 30.5zM373 84h608v715q0 41 -29.5 70.5t-70.5 29.5h-508v-815z" />
<glyph unicode="&#x5de;" d="M123 942q0 16 12 28.5t29 12.5h96q29 0 50.5 -21.5t21.5 -50.5v-77q123 160 323 159q170 0 290 -118.5t120 -286.5v-516q0 -29 -21.5 -50.5t-50.5 -21.5h-413q-18 0 -30.5 12.5t-12.5 28.5q0 18 12 30.5t31 12.5h401v502q0 133 -95 228t-231 95q-133 0 -228 -95t-95 -228 v-543q0 -18 -12.5 -30.5t-28.5 -12.5q-18 0 -30.5 12.5t-12.5 30.5v856h-84q-16 0 -28.5 12.5t-12.5 30.5z" />
<glyph unicode="&#x5df;" d="M651 942q0 16 13.5 28.5t29.5 12.5h117q29 0 50.5 -21.5t21.5 -50.5v-1237h104q16 0 28.5 -12t12.5 -31q0 -16 -12 -28.5t-29 -12.5h-117q-29 0 -50 21.5t-21 50.5v1237h-105q-16 0 -29.5 12.5t-13.5 30.5z" />
<glyph unicode="&#x5e0;" d="M451 41q0 18 12 30.5t29 12.5h245v715q0 41 -29.5 70.5t-70.5 29.5h-105q-16 0 -28 12.5t-12 30.5q0 16 12 28.5t28 12.5h105q76 0 130 -53t54 -131v-727q0 -29 -21.5 -50.5t-49.5 -21.5h-258q-16 0 -28.5 12.5t-12.5 28.5z" />
<glyph unicode="&#x5e1;" d="M123 942q0 16 12 28.5t29 12.5h717q78 0 131 -53t53 -131v-402q0 -170 -120 -288.5t-290 -118.5q-168 0 -287.5 119.5t-119.5 287.5v502h-84q-16 0 -28.5 12.5t-12.5 30.5zM332 397q0 -133 95 -228t228 -95q135 0 230.5 95t95.5 228v402q0 41 -29.5 70.5t-70.5 29.5h-549 v-502z" />
<glyph unicode="&#x5e2;" d="M164 41q0 18 12 30.5t29 12.5h106v815h-106q-16 0 -28.5 12.5t-12.5 30.5q0 16 12 28.5t29 12.5h119q29 0 49 -21.5t20 -50.5v-827h221q129 0 206 93t77 233v489h-104q-16 0 -29.5 12.5t-13.5 30.5q0 16 13 28.5t30 12.5h116q29 0 50.5 -21.5t21.5 -50.5v-501 q0 -174 -100.5 -292t-266.5 -118h-409q-16 0 -28.5 12.5t-12.5 28.5z" />
<glyph unicode="&#x5e3;" d="M248 625v286q0 29 21.5 50.5t49.5 21.5h478q76 0 130 -53t54 -131v-1125h104q16 0 28.5 -12t12.5 -31q0 -16 -12 -28.5t-29 -12.5h-116q-29 0 -50.5 20.5t-21.5 51.5v1137q0 41 -29.5 70.5t-70.5 29.5h-465v-274q0 -41 29.5 -71t70.5 -30h121q16 0 28.5 -12t12.5 -29 q0 -18 -12.5 -30.5t-28.5 -12.5h-121q-76 0 -130 54.5t-54 130.5z" />
<glyph unicode="&#x5e4;" d="M248 41q0 18 12 30.5t31 12.5h506q41 0 70.5 29.5t29.5 70.5v615q0 41 -29.5 70.5t-70.5 29.5h-465v-274q0 -41 29.5 -71t70.5 -30h100q16 0 28.5 -12t12.5 -29q0 -18 -12 -30.5t-29 -12.5h-100q-76 0 -130 54.5t-54 130.5v286q0 29 21.5 50.5t49.5 21.5h478 q76 0 130 -53t54 -131v-615q0 -78 -54.5 -131t-129.5 -53h-506q-18 0 -30.5 12.5t-12.5 28.5z" />
<glyph unicode="&#x5e5;" d="M164 942q0 16 12 28.5t29 12.5h160q29 0 49 -21.5t20 -50.5v-499h180q129 0 206 93t77 232v162h-145q-16 0 -29.5 12.5t-13.5 30.5q0 16 13 28.5t30 12.5h157q29 0 50.5 -21.5t21.5 -50.5v-174q0 -174 -100.5 -291.5t-266.5 -117.5h-178v-654h105q16 0 28.5 -12t12.5 -31 q0 -16 -12.5 -28.5t-28.5 -12.5h-117q-29 0 -50.5 21.5t-21.5 50.5v1237h-147q-16 0 -28.5 12.5t-12.5 30.5z" />
<glyph unicode="&#x5e6;" d="M164 41q0 18 12 30.5t31 12.5h690v90q0 119 -100 186l-318 222q-127 90 -127 247v70h-147q-16 0 -28.5 12.5t-12.5 30.5q0 16 12 28.5t29 12.5h160q29 0 49 -21.5t20 -50.5l2 -82q0 -119 101 -186l98 -68q121 8 191.5 99.5t70.5 224.5h-145q-16 0 -29.5 12.5t-13.5 30.5 q0 16 13 28.5t30 12.5h157q29 0 50.5 -21.5t21.5 -50.5v-12q0 -139 -67.5 -245.5t-182.5 -145.5l123 -86q127 -90 127 -248v-102q0 -29 -21.5 -50.5t-50.5 -21.5h-702q-18 0 -30.5 12.5t-12.5 28.5z" />
<glyph unicode="&#x5e7;" d="M162 942q0 16 12.5 28.5t30.5 12.5h704q29 0 50.5 -21.5t21.5 -50.5v-264q0 -86 -57 -143l-318 -320q-33 -31 -33 -57q0 -18 13.5 -30.5t29.5 -12.5h117q16 0 28.5 -12.5t12.5 -30.5q0 -16 -12 -28.5t-29 -12.5h-174q-29 0 -50.5 21.5t-21.5 50.5v28q0 86 58 144l317 317 q35 35 35 84v254h-694q-16 0 -28.5 12.5t-12.5 30.5zM248 -369v1028q0 16 12 28.5t31 12.5q16 0 28.5 -12t12.5 -29v-1028q0 -16 -12.5 -28.5t-28.5 -12.5q-18 0 -30.5 12.5t-12.5 28.5z" />
<glyph unicode="&#x5e8;" d="M164 942q0 16 12 28.5t29 12.5h592q76 0 130 -53t54 -131v-758q0 -16 -12.5 -28.5t-30.5 -12.5q-16 0 -28.5 12.5t-12.5 28.5v758q0 41 -29.5 70.5t-70.5 29.5h-592q-16 0 -28.5 12.5t-12.5 30.5z" />
<glyph unicode="&#x5e9;" d="M164 328v583q0 29 21.5 50.5t50.5 21.5h116q16 0 28.5 -12.5t12.5 -28.5q0 -18 -12 -30.5t-29 -12.5h-104v-571q0 -102 70.5 -173t173.5 -71h81v858q0 16 12.5 28.5t29 12.5t28.5 -12.5t12 -28.5v-858h82q102 0 173 70.5t71 173.5v571h-104q-16 0 -28.5 12.5t-12.5 30.5 q0 16 12 28.5t29 12.5h116q29 0 50.5 -21.5t21.5 -50.5v-583q0 -135 -96.5 -231.5t-231.5 -96.5h-245q-135 0 -231.5 96.5t-96.5 231.5z" />
<glyph unicode="&#x5ea;" d="M119 41q0 18 13 30.5t30 12.5h121v815h-121q-16 0 -29.5 12.5t-13.5 30.5q0 16 13 28.5t30 12.5h635q76 0 130 -53t54 -131v-758q0 -16 -12.5 -28.5t-30.5 -12.5q-16 0 -28.5 12.5t-12.5 28.5v758q0 41 -29.5 70.5t-70.5 29.5h-432v-827q0 -29 -20.5 -50.5t-49.5 -21.5 h-133q-16 0 -29.5 12.5t-13.5 28.5z" />
<glyph unicode="&#x5f0;" d="M207 942q0 16 13 28.5t30 12.5h219q29 0 50 -21.5t21 -50.5v-870q0 -16 -12 -28.5t-31 -12.5q-16 0 -28.5 12.5t-12.5 28.5v858h-206q-16 0 -29.5 12.5t-13.5 30.5zM689 942q0 16 13 28.5t30 12.5h219q29 0 50 -21.5t21 -50.5v-870q0 -16 -12 -28.5t-31 -12.5 q-16 0 -28.5 12.5t-12.5 28.5v858h-206q-16 0 -29.5 12.5t-13.5 30.5z" />
<glyph unicode="&#x5f1;" d="M207 942q0 16 13 28.5t30 12.5h219q29 0 50 -21.5t21 -50.5v-338q0 -16 -12 -28.5t-31 -12.5q-16 0 -28.5 12.5t-12.5 28.5v326h-206q-16 0 -29.5 12.5t-13.5 30.5zM689 942q0 16 13 28.5t30 12.5h219q29 0 50 -21.5t21 -50.5v-870q0 -16 -12 -28.5t-31 -12.5 q-16 0 -28.5 12.5t-12.5 28.5v858h-206q-16 0 -29.5 12.5t-13.5 30.5z" />
<glyph unicode="&#x5f2;" d="M205 942q0 16 13 28.5t30 12.5h219q29 0 50 -21.5t21 -50.5v-338q0 -16 -12 -28.5t-31 -12.5q-16 0 -28.5 12.5t-12.5 28.5v326h-206q-16 0 -29.5 12.5t-13.5 30.5zM689 942q0 16 13 28.5t30 12.5h219q29 0 50 -21.5t21 -50.5v-338q0 -16 -12 -28.5t-31 -12.5 q-16 0 -28.5 12.5t-12.5 28.5v326h-206q-16 0 -29.5 12.5t-13.5 30.5z" />
<glyph unicode="&#x5f3;" d="M512 719l53 518h193l-123 -518q-8 -74 -61.5 -74t-61.5 74z" />
<glyph unicode="&#x5f4;" d="M324 719l53 518h192l-123 -518q-8 -74 -61 -74t-61 74zM692 719l53 518h193l-123 -518q-8 -74 -61.5 -74t-61.5 74z" />
<glyph unicode="&#x2000;" horiz-adv-x="824" />
<glyph unicode="&#x2001;" horiz-adv-x="1648" />
<glyph unicode="&#x2002;" horiz-adv-x="824" />
<glyph unicode="&#x2003;" horiz-adv-x="1648" />
<glyph unicode="&#x2004;" horiz-adv-x="549" />
<glyph unicode="&#x2005;" horiz-adv-x="412" />
<glyph unicode="&#x2006;" horiz-adv-x="274" />
<glyph unicode="&#x2007;" horiz-adv-x="274" />
<glyph unicode="&#x2008;" horiz-adv-x="206" />
<glyph unicode="&#x2009;" horiz-adv-x="329" />
<glyph unicode="&#x200a;" horiz-adv-x="91" />
<glyph unicode="&#x2010;" d="M147 571q0 41 56 41h823q55 0 55 -41q0 -43 -55 -43h-823q-55 0 -56 43z" />
<glyph unicode="&#x2011;" d="M147 571q0 41 56 41h823q55 0 55 -41q0 -43 -55 -43h-823q-55 0 -56 43z" />
<glyph unicode="&#x2012;" d="M147 571q0 41 56 41h823q55 0 55 -41q0 -43 -55 -43h-823q-55 0 -56 43z" />
<glyph unicode="&#x2013;" d="M147 578q0 41 58 40h821q55 0 55 -40q0 -43 -55 -43h-821q-57 0 -58 43z" />
<glyph unicode="&#x2014;" d="M2 578q0 41 55 40h1114q57 0 58 -40q-1 -43 -58 -43h-1114q-55 0 -55 43z" />
<glyph unicode="&#x2018;" d="M532 1237h273l143 -461q4 -12 4 -20q0 -23 -17 -38.5t-42 -15.5q-37 0 -64 46z" />
<glyph unicode="&#x2019;" d="M276 702q0 6 5 23l143 512h272l-297 -543q-27 -51 -63 -51q-25 0 -42.5 17.5t-17.5 41.5z" />
<glyph unicode="&#x201a;" d="M276 -238q0 6 5 23l143 512h272l-297 -543q-27 -51 -63 -51q-25 0 -42.5 17.5t-17.5 41.5z" />
<glyph unicode="&#x201c;" d="M190 1237h256l144 -461q4 -12 4 -20q0 -23 -17.5 -38.5t-41.5 -15.5q-39 0 -64 46zM635 1237h256l143 -461q4 -12 4 -20q0 -23 -17 -38.5t-42 -15.5q-39 0 -64 46z" />
<glyph unicode="&#x201d;" d="M190 756q0 8 5 20l143 461h256l-281 -489q-25 -45 -63 -46q-25 0 -42.5 15.5t-17.5 38.5zM635 756q0 8 4 20l143 461h256l-280 -489q-25 -45 -64 -46q-25 0 -42 15.5t-17 38.5z" />
<glyph unicode="&#x201e;" d="M190 -184q0 8 5 20l143 461h256l-281 -490q-25 -45 -63 -45q-25 0 -42.5 15.5t-17.5 38.5zM635 -184q0 8 4 20l143 461h256l-280 -490q-25 -45 -64 -45q-25 0 -42 15.5t-17 38.5z" />
<glyph unicode="&#x202f;" horiz-adv-x="329" />
<glyph unicode="&#x205f;" horiz-adv-x="412" />
<glyph unicode="&#x20ac;" d="M23 481q0 39 45 39h61v123h-61q-45 0 -45 39q0 37 45 37h67q20 199 160.5 330t329.5 131q209 0 354 -142v60q0 55 43 55q41 0 41 -55v-230q0 -55 -43 -55q-37 0 -41 49q-4 94 -110.5 164t-243.5 70q-154 0 -266.5 -104.5t-141.5 -272.5h590q43 0 43 -37q0 -39 -43 -39 h-594v-123h535q43 0 43 -39q0 -37 -43 -37h-531q29 -170 155 -281.5t287 -111.5q106 0 190.5 43t166.5 142q16 20 39 20q16 0 27.5 -11.5t11.5 -27.5q0 -33 -78 -104q-152 -145 -357 -146q-193 0 -348 140.5t-176 336.5h-67q-45 0 -45 37z" />
<glyph unicode="&#xe000;" horiz-adv-x="849" d="M0 0v850h850v-850h-850z" />
<glyph unicode="&#xfb1d;" d="M365 942q0 16 13 28.5t30 12.5h219q29 0 50 -21.5t21 -50.5v-338q0 -16 -12 -28.5t-31 -12.5q-16 0 -28.5 12.5t-12.5 28.5v326h-206q-16 0 -29.5 12.5t-13.5 30.5zM596 291q0 25 17 42t42 17t42 -17.5t17 -41.5q0 -27 -17 -44.5t-42 -17.5t-42 17.5t-17 44.5z" />
<glyph unicode="&#xfb1e;" horiz-adv-x="0" d="M-227 1270q10 14 27.5 16t31.5 -8q16 -12 33.5 -27.5t29 -23.5t27.5 -17q43 -20 78 -20t78 20q16 8 27.5 16.5t29 24t33.5 27.5q14 10 31.5 8t27.5 -16q23 -35 -10 -60q-10 -8 -27.5 -23.5t-35 -28.5t-39.5 -23q-57 -29 -114.5 -29t-115.5 29q-23 10 -40 23t-34.5 28.5 t-27.5 23.5q-33 25 -10 60z" />
<glyph unicode="&#xfb1f;" d="M205 942q0 16 13 28.5t30 12.5h219q29 0 50 -21.5t21 -50.5v-338q0 -16 -12 -28.5t-31 -12.5q-16 0 -28.5 12.5t-12.5 28.5v326h-206q-16 0 -29.5 12.5t-13.5 30.5zM516 274q0 16 13.5 28.5t29.5 12.5h276q16 0 28.5 -12t12.5 -29q0 -18 -12 -30.5t-29 -12.5h-276 q-16 0 -29.5 12.5t-13.5 30.5zM689 942q0 16 13 28.5t30 12.5h219q29 0 50 -21.5t21 -50.5v-338q0 -16 -12 -28.5t-31 -12.5q-16 0 -28.5 12.5t-12.5 28.5v326h-206q-16 0 -29.5 12.5t-13.5 30.5z" />
<glyph unicode="&#xfb20;" d="M164 41q0 18 12 30.5t29 12.5h106v815h-106q-16 0 -28.5 12.5t-12.5 30.5q0 16 12 28.5t29 12.5h119q29 0 49 -21.5t20 -50.5v-827h221q129 0 206 93t77 233v489h-104q-16 0 -29.5 12.5t-13.5 30.5q0 16 13 28.5t30 12.5h116q29 0 50.5 -21.5t21.5 -50.5v-501 q0 -174 -100.5 -292t-266.5 -118h-409q-16 0 -28.5 12.5t-12.5 28.5z" />
<glyph unicode="&#xfb21;" d="M164 72v256q0 113 58.5 211t156.5 149l-205 223q-27 35 2 60q35 31 60 -2l555 -609q88 39 139 120t51 175v244h-207q-16 0 -28.5 12.5t-12.5 30.5q0 16 12.5 28.5t28.5 12.5h219q29 0 50.5 -21.5t21.5 -50.5v-256q0 -113 -58.5 -211t-156.5 -149l205 -223q27 -35 -2 -60 q-35 -31 -60 2l-555 609q-88 -39 -139 -120t-51 -175v-244h207q16 0 28.5 -12.5t12.5 -30.5q0 -16 -12.5 -28.5t-28.5 -12.5h-219q-29 0 -50.5 21.5t-21.5 50.5z" />
<glyph unicode="&#xfb22;" d="M164 942q0 16 12 28.5t29 12.5h819q16 0 28.5 -12.5t12.5 -28.5q0 -18 -12.5 -30.5t-28.5 -12.5h-143v-858q0 -16 -12.5 -28.5t-28.5 -12.5q-18 0 -30.5 12.5t-12.5 28.5v858h-592q-16 0 -28.5 12.5t-12.5 30.5z" />
<glyph unicode="&#xfb23;" d="M164 942q0 16 12 28.5t29 12.5h592q76 0 130 -53t54 -131v-758q0 -16 -12.5 -28.5t-30.5 -12.5q-16 0 -28.5 12.5t-12.5 28.5v758q0 41 -29.5 70.5t-70.5 29.5h-592q-16 0 -28.5 12.5t-12.5 30.5zM207 43v524q0 16 12 28.5t31 12.5q16 0 28.5 -12t12.5 -29v-524 q0 -16 -12.5 -28.5t-28.5 -12.5q-18 0 -30.5 12.5t-12.5 28.5z" />
<glyph unicode="&#xfb24;" d="M164 41q0 18 12 30.5t29 12.5h366q135 0 230.5 95t95.5 231v163q0 135 -95 230.5t-231 95.5h-366q-16 0 -28.5 12.5t-12.5 30.5q0 16 12 28.5t29 12.5h366q170 0 290 -121t120 -289v-163q0 -168 -120 -289t-290 -121h-366q-16 0 -28.5 12.5t-12.5 28.5z" />
<glyph unicode="&#xfb25;" d="M164 971v254q0 16 12 28.5t29 12.5q18 0 31.5 -12.5t13.5 -28.5v-242h745q29 0 49.5 -20.5t20.5 -49.5v-163q0 -86 -57 -144l-418 -422q-33 -26 -33 -57q0 -18 12.5 -30.5t28.5 -12.5h115q18 0 30.5 -12.5t12.5 -30.5q0 -16 -12.5 -28.5t-30.5 -12.5h-172 q-29 0 -50.5 21.5t-21.5 50.5v28q0 86 57 144l420 420q35 35 35 84v151h-745q-29 0 -50.5 21.5t-21.5 50.5z" />
<glyph unicode="&#xfb26;" d="M164 942q0 16 12 28.5t29 12.5h676q78 0 131 -53t53 -131v-727q0 -29 -21.5 -50.5t-50.5 -21.5h-633q-29 0 -49 21.5t-20 50.5v827h-86q-16 0 -28.5 12.5t-12.5 30.5zM373 84h608v715q0 41 -29.5 70.5t-70.5 29.5h-508v-815z" />
<glyph unicode="&#xfb27;" d="M164 942q0 16 12 28.5t29 12.5h592q76 0 130 -53t54 -131v-758q0 -16 -12.5 -28.5t-30.5 -12.5q-16 0 -28.5 12.5t-12.5 28.5v758q0 41 -29.5 70.5t-70.5 29.5h-592q-16 0 -28.5 12.5t-12.5 30.5z" />
<glyph unicode="&#xfb28;" d="M119 41q0 18 13 30.5t30 12.5h121v815h-121q-16 0 -29.5 12.5t-13.5 30.5q0 16 13 28.5t30 12.5h635q76 0 130 -53t54 -131v-758q0 -16 -12.5 -28.5t-30.5 -12.5q-16 0 -28.5 12.5t-12.5 28.5v758q0 41 -29.5 70.5t-70.5 29.5h-432v-827q0 -29 -20.5 -50.5t-49.5 -21.5 h-133q-16 0 -29.5 12.5t-13.5 28.5z" />
<glyph unicode="&#xfb29;" d="M147 578q0 41 56 40h368v412q0 55 43 55q41 0 41 -55v-412h369q57 0 57 -40q0 -43 -57 -43h-821q-55 0 -56 43z" />
<glyph unicode="&#xfb2a;" d="M164 328v583q0 29 21.5 50.5t50.5 21.5h116q16 0 28.5 -12.5t12.5 -28.5q0 -18 -12 -30.5t-29 -12.5h-104v-571q0 -102 70.5 -173t173.5 -71h81v858q0 16 12.5 28.5t29 12.5t28.5 -12.5t12 -28.5v-858h82q102 0 173 70.5t71 173.5v571h-104q-16 0 -28.5 12.5t-12.5 30.5 q0 16 12 28.5t29 12.5h116q29 0 50.5 -21.5t21.5 -50.5v-583q0 -135 -96.5 -231.5t-231.5 -96.5h-245q-135 0 -231.5 96.5t-96.5 231.5zM943 1106q0 27 18 44t43 17t43 -17.5t18 -43.5q0 -25 -18 -42.5t-43 -17.5t-43 17.5t-18 42.5z" />
<glyph unicode="&#xfb2b;" d="M164 328v583q0 29 21.5 50.5t50.5 21.5h116q16 0 28.5 -12.5t12.5 -28.5q0 -18 -12 -30.5t-29 -12.5h-104v-571q0 -102 70.5 -173t173.5 -71h81v858q0 16 12.5 28.5t29 12.5t28.5 -12.5t12 -28.5v-858h82q102 0 173 70.5t71 173.5v571h-104q-16 0 -28.5 12.5t-12.5 30.5 q0 16 12 28.5t29 12.5h116q29 0 50.5 -21.5t21.5 -50.5v-583q0 -135 -96.5 -231.5t-231.5 -96.5h-245q-135 0 -231.5 96.5t-96.5 231.5zM164 1104q0 27 18 44t43 17t43 -17.5t18 -43.5q0 -25 -18 -42.5t-43 -17.5t-43 17.5t-18 42.5z" />
<glyph unicode="&#xfb2c;" d="M164 328v583q0 29 21.5 50.5t50.5 21.5h116q16 0 28.5 -12.5t12.5 -28.5q0 -18 -12 -30.5t-29 -12.5h-104v-571q0 -102 70.5 -173t173.5 -71h81v858q0 16 12.5 28.5t29 12.5t28.5 -12.5t12 -28.5v-858h82q102 0 173 70.5t71 173.5v571h-104q-16 0 -28.5 12.5t-12.5 30.5 q0 16 12 28.5t29 12.5h116q29 0 50.5 -21.5t21.5 -50.5v-583q0 -135 -96.5 -231.5t-231.5 -96.5h-245q-135 0 -231.5 96.5t-96.5 231.5zM758 490q0 25 17 42t42 17t42 -17.5t17 -41.5q0 -27 -17 -44.5t-42 -17.5t-42 17.5t-17 44.5zM943 1106q0 27 18 44t43 17t43 -17.5 t18 -43.5q0 -25 -18 -42.5t-43 -17.5t-43 17.5t-18 42.5z" />
<glyph unicode="&#xfb2d;" d="M164 328v583q0 29 21.5 50.5t50.5 21.5h116q16 0 28.5 -12.5t12.5 -28.5q0 -18 -12 -30.5t-29 -12.5h-104v-571q0 -102 70.5 -173t173.5 -71h81v858q0 16 12.5 28.5t29 12.5t28.5 -12.5t12 -28.5v-858h82q102 0 173 70.5t71 173.5v571h-104q-16 0 -28.5 12.5t-12.5 30.5 q0 16 12 28.5t29 12.5h116q29 0 50.5 -21.5t21.5 -50.5v-583q0 -135 -96.5 -231.5t-231.5 -96.5h-245q-135 0 -231.5 96.5t-96.5 231.5zM164 1104q0 27 18 44t43 17t43 -17.5t18 -43.5q0 -25 -18 -42.5t-43 -17.5t-43 17.5t-18 42.5zM758 490q0 25 17 42t42 17t42 -17.5 t17 -41.5q0 -27 -17 -44.5t-42 -17.5t-42 17.5t-17 44.5z" />
<glyph unicode="&#xfb2e;" d="M164 72v256q0 113 58.5 211t156.5 149l-205 223q-27 35 2 60q35 31 60 -2l555 -609q88 39 139 120t51 175v244h-207q-16 0 -28.5 12.5t-12.5 30.5q0 16 12.5 28.5t28.5 12.5h219q29 0 50.5 -21.5t21.5 -50.5v-256q0 -113 -58.5 -211t-156.5 -149l205 -223q27 -35 -2 -60 q-35 -31 -60 2l-555 609q-88 -39 -139 -120t-51 -175v-244h207q16 0 28.5 -12.5t12.5 -30.5q0 -16 -12.5 -28.5t-28.5 -12.5h-219q-29 0 -50.5 21.5t-21.5 50.5zM434 -164q0 16 13.5 28.5t29.5 12.5h276q16 0 28.5 -12t12.5 -29q0 -18 -12 -30.5t-29 -12.5h-276 q-16 0 -29.5 12.5t-13.5 30.5z" />
<glyph unicode="&#xfb2f;" d="M164 72v256q0 113 58.5 211t156.5 149l-205 223q-27 35 2 60q35 31 60 -2l555 -609q88 39 139 120t51 175v244h-207q-16 0 -28.5 12.5t-12.5 30.5q0 16 12.5 28.5t28.5 12.5h219q29 0 50.5 -21.5t21.5 -50.5v-256q0 -113 -58.5 -211t-156.5 -149l205 -223q27 -35 -2 -60 q-35 -31 -60 2l-555 609q-88 -39 -139 -120t-51 -175v-244h207q16 0 28.5 -12.5t12.5 -30.5q0 -16 -12.5 -28.5t-28.5 -12.5h-219q-29 0 -50.5 21.5t-21.5 50.5zM434 -164q0 16 12 28.5t29 12.5h278q18 0 29.5 -12t11.5 -29q0 -43 -41 -43h-98v-203q0 -16 -12.5 -28.5 t-28.5 -12.5q-18 0 -31.5 12.5t-13.5 28.5v203h-94q-16 0 -28.5 12.5t-12.5 30.5z" />
<glyph unicode="&#xfb30;" d="M164 72v256q0 113 58.5 211t156.5 149l-205 223q-27 35 2 60q35 31 60 -2l555 -609q88 39 139 120t51 175v244h-207q-16 0 -28.5 12.5t-12.5 30.5q0 16 12.5 28.5t28.5 12.5h219q29 0 50.5 -21.5t21.5 -50.5v-256q0 -113 -58.5 -211t-156.5 -149l205 -223q27 -35 -2 -60 q-35 -31 -60 2l-555 609q-88 -39 -139 -120t-51 -175v-244h207q16 0 28.5 -12.5t12.5 -30.5q0 -16 -12.5 -28.5t-28.5 -12.5h-219q-29 0 -50.5 21.5t-21.5 50.5zM553 172q0 25 17 42t42 17t42 -17.5t17 -41.5q0 -27 -17 -44.5t-42 -17.5t-42 17.5t-17 44.5z" />
<glyph unicode="&#xfb31;" d="M164 41q0 18 12 30.5t29 12.5h604v571q0 102 -70.5 173t-173.5 71h-360q-16 0 -28.5 12.5t-12.5 30.5q0 16 12 28.5t29 12.5h360q135 0 231.5 -96t96.5 -232v-571h131q16 0 28.5 -12.5t12.5 -30.5q0 -16 -12.5 -28.5t-28.5 -12.5h-819q-16 0 -28.5 12.5t-12.5 28.5z M523 494q0 25 17 42t42 17t42 -17.5t17 -41.5q0 -27 -17 -44.5t-42 -17.5t-42 17.5t-17 44.5z" />
<glyph unicode="&#xfb32;" d="M305 31q-12 41 25 51q172 43 285.5 194.5t113.5 337.5v285h-207q-16 0 -29.5 12.5t-13.5 30.5q0 16 13.5 28.5t29.5 12.5h219q29 0 50.5 -21.5t21.5 -50.5v-870q0 -16 -12.5 -28.5t-30.5 -12.5q-16 0 -28.5 12.5t-12.5 28.5v301q-39 -131 -142.5 -219t-230.5 -121 q-41 -10 -51 29zM496 510q0 25 17 42t42 17t42 -17.5t17 -41.5q0 -27 -17 -44.5t-42 -17.5t-42 17.5t-17 44.5z" />
<glyph unicode="&#xfb33;" d="M164 942q0 16 12 28.5t29 12.5h819q16 0 28.5 -12.5t12.5 -28.5q0 -18 -12.5 -30.5t-28.5 -12.5h-143v-858q0 -16 -12.5 -28.5t-28.5 -12.5q-18 0 -30.5 12.5t-12.5 28.5v858h-592q-16 0 -28.5 12.5t-12.5 30.5zM555 494q0 25 17 42t42 17t42 -17.5t17 -41.5 q0 -27 -17 -44.5t-42 -17.5t-42 17.5t-17 44.5z" />
<glyph unicode="&#xfb34;" d="M164 942q0 16 12 28.5t29 12.5h592q76 0 130 -53t54 -131v-758q0 -16 -12.5 -28.5t-30.5 -12.5q-16 0 -28.5 12.5t-12.5 28.5v758q0 41 -29.5 70.5t-70.5 29.5h-592q-16 0 -28.5 12.5t-12.5 30.5zM207 43v524q0 16 12 28.5t31 12.5q16 0 28.5 -12t12.5 -29v-524 q0 -16 -12.5 -28.5t-28.5 -12.5q-18 0 -30.5 12.5t-12.5 28.5zM547 494q0 25 17 42t42 17t42 -17.5t17 -41.5q0 -27 -17 -44.5t-42 -17.5t-42 17.5t-17 44.5z" />
<glyph unicode="&#xfb35;" d="M365 942q0 16 13 28.5t30 12.5h219q29 0 50 -21.5t21 -50.5v-870q0 -16 -12 -28.5t-31 -12.5q-16 0 -28.5 12.5t-12.5 28.5v858h-206q-16 0 -29.5 12.5t-13.5 30.5zM410 494q0 25 17 42t42 17t42 -17.5t17 -41.5q0 -27 -17 -44.5t-42 -17.5t-42 17.5t-17 44.5z" />
<glyph unicode="&#xfb36;" d="M344 942q0 16 12.5 28.5t28.5 12.5h442q16 0 28.5 -12.5t12.5 -28.5q0 -18 -12 -30.5t-29 -12.5h-172v-858q0 -16 -12 -28.5t-28.5 -12.5t-30 12.5t-13.5 28.5v858h-186q-16 0 -28.5 12.5t-12.5 30.5zM363 494q0 25 17 42t42 17t42 -17.5t17 -41.5q0 -27 -17 -44.5 t-42 -17.5t-42 17.5t-17 44.5z" />
<glyph unicode="&#xfb37;" d="M164 942q0 16 12 28.5t29 12.5h819q16 0 28.5 -12.5t12.5 -28.5q0 -18 -12.5 -30.5t-28.5 -12.5h-82v-858q0 -16 -12 -28.5t-29 -12.5q-18 0 -30.5 12.5t-12.5 28.5v858h-487v-858q0 -16 -12.5 -28.5t-30.5 -12.5q-16 0 -28.5 12.5t-12.5 28.5v858h-82q-16 0 -28.5 12.5 t-12.5 30.5zM559 494q0 25 17 42t42 17t42 -17.5t17 -41.5q0 -27 -17 -44.5t-42 -17.5t-42 17.5t-17 44.5z" />
<glyph unicode="&#xfb38;" d="M123 942q0 16 12 28.5t29 12.5h96q29 0 50.5 -21.5t21.5 -50.5v-514q0 -133 95 -228t228 -95q135 0 230.5 95t95.5 228v330q0 76 -53.5 129t-129 53t-129 -53t-53.5 -129v-162q0 -16 -12 -28.5t-31 -12.5q-16 0 -28.5 12.5t-12.5 28.5v162q0 111 78 188.5t188.5 77.5 t188.5 -77.5t78 -188.5v-330q0 -170 -120 -288.5t-290 -118.5q-168 0 -287.5 119.5t-119.5 287.5v502h-84q-16 0 -28.5 12.5t-12.5 30.5zM619 422q0 25 17 42t42 17t42 -17.5t17 -41.5q0 -27 -17 -44.5t-42 -17.5t-42 17.5t-17 44.5z" />
<glyph unicode="&#xfb39;" d="M365 942q0 16 13 28.5t30 12.5h219q29 0 50 -21.5t21 -50.5v-338q0 -16 -12 -28.5t-31 -12.5q-16 0 -28.5 12.5t-12.5 28.5v326h-206q-16 0 -29.5 12.5t-13.5 30.5zM381 674q0 25 17 42t42 17t42 -17.5t17 -41.5q0 -27 -17 -44.5t-42 -17.5t-42 17.5t-17 44.5z" />
<glyph unicode="&#xfb3a;" d="M102 942q0 16 12.5 28.5t28.5 12.5h820q16 0 28.5 -12.5t12.5 -28.5q0 -18 -12.5 -30.5t-28.5 -12.5h-162v-1225h162q16 0 28.5 -12t12.5 -31q0 -16 -12.5 -28.5t-28.5 -12.5h-175q-29 0 -50 21.5t-21 50.5v1237h-574q-16 0 -28.5 12.5t-12.5 30.5zM496 492q0 25 17 42 t42 17t42 -17.5t17 -41.5q0 -27 -17 -44.5t-42 -17.5t-42 17.5t-17 44.5z" />
<glyph unicode="&#xfb3b;" d="M164 41q0 18 12 30.5t29 12.5h366q135 0 230.5 95t95.5 231v163q0 135 -95 230.5t-231 95.5h-366q-16 0 -28.5 12.5t-12.5 30.5q0 16 12 28.5t29 12.5h366q170 0 290 -121t120 -289v-163q0 -168 -120 -289t-290 -121h-366q-16 0 -28.5 12.5t-12.5 28.5zM471 494 q0 25 17 42t42 17t42 -17.5t17 -41.5q0 -27 -17 -44.5t-42 -17.5t-42 17.5t-17 44.5z" />
<glyph unicode="&#xfb3c;" d="M164 971v254q0 16 12 28.5t29 12.5q18 0 31.5 -12.5t13.5 -28.5v-242h745q29 0 49.5 -20.5t20.5 -49.5v-163q0 -86 -57 -144l-418 -422q-33 -26 -33 -57q0 -18 12.5 -30.5t28.5 -12.5h115q18 0 30.5 -12.5t12.5 -30.5q0 -16 -12.5 -28.5t-30.5 -12.5h-172 q-29 0 -50.5 21.5t-21.5 50.5v28q0 86 57 144l420 420q35 35 35 84v151h-745q-29 0 -50.5 21.5t-21.5 50.5zM566 629q0 25 17 42t42 17t42 -17.5t17 -41.5q0 -27 -17 -44.5t-42 -17.5t-42 17.5t-17 44.5z" />
<glyph unicode="&#xfb3d;" d="M164 942q0 16 12 28.5t29 12.5h676q78 0 131 -53t53 -131v-727q0 -29 -21.5 -50.5t-50.5 -21.5h-633q-29 0 -49 21.5t-20 50.5v827h-86q-16 0 -28.5 12.5t-12.5 30.5zM373 84h608v715q0 41 -29.5 70.5t-70.5 29.5h-508v-815zM613 494q0 25 17 42t42 17t42 -17.5t17 -41.5 q0 -27 -17 -44.5t-42 -17.5t-42 17.5t-17 44.5z" />
<glyph unicode="&#xfb3e;" d="M123 942q0 16 12 28.5t29 12.5h96q29 0 50.5 -21.5t21.5 -50.5v-77q123 160 323 159q170 0 290 -118.5t120 -286.5v-516q0 -29 -21.5 -50.5t-50.5 -21.5h-413q-18 0 -30.5 12.5t-12.5 28.5q0 18 12 30.5t31 12.5h401v502q0 133 -95 228t-231 95q-133 0 -228 -95t-95 -228 v-543q0 -18 -12.5 -30.5t-28.5 -12.5q-18 0 -30.5 12.5t-12.5 30.5v856h-84q-16 0 -28.5 12.5t-12.5 30.5zM600 494q0 25 17 42t42 17t42 -17.5t17 -41.5q0 -27 -17 -44.5t-42 -17.5t-42 17.5t-17 44.5z" />
<glyph unicode="&#xfb3f;" d="M559 494q0 25 17 42t42 17t42 -17.5t17 -41.5q0 -27 -17 -44.5t-42 -17.5t-42 17.5t-17 44.5zM651 942q0 16 13.5 28.5t29.5 12.5h117q29 0 50.5 -21.5t21.5 -50.5v-1237h104q16 0 28.5 -12t12.5 -31q0 -16 -12 -28.5t-29 -12.5h-117q-29 0 -50 21.5t-21 50.5v1237h-105 q-16 0 -29.5 12.5t-13.5 30.5z" />
<glyph unicode="&#xfb40;" d="M451 41q0 18 12 30.5t29 12.5h245v715q0 41 -29.5 70.5t-70.5 29.5h-105q-16 0 -28 12.5t-12 30.5q0 16 12 28.5t28 12.5h105q76 0 130 -53t54 -131v-727q0 -29 -21.5 -50.5t-49.5 -21.5h-258q-16 0 -28.5 12.5t-12.5 28.5zM535 494q0 25 17 42t42 17t42 -17.5t17 -41.5 q0 -27 -17 -44.5t-42 -17.5t-42 17.5t-17 44.5z" />
<glyph unicode="&#xfb41;" d="M123 942q0 16 12 28.5t29 12.5h717q78 0 131 -53t53 -131v-402q0 -170 -120 -288.5t-290 -118.5q-168 0 -287.5 119.5t-119.5 287.5v502h-84q-16 0 -28.5 12.5t-12.5 30.5zM332 397q0 -133 95 -228t228 -95q135 0 230.5 95t95.5 228v402q0 41 -29.5 70.5t-70.5 29.5h-549 v-502zM592 494q0 25 17 42t42 17t42 -17.5t17 -41.5q0 -27 -17 -44.5t-42 -17.5t-42 17.5t-17 44.5z" />
<glyph unicode="&#xfb42;" d="M164 41q0 18 12 30.5t29 12.5h106v815h-106q-16 0 -28.5 12.5t-12.5 30.5q0 16 12 28.5t29 12.5h119q29 0 49 -21.5t20 -50.5v-827h221q129 0 206 93t77 233v489h-104q-16 0 -29.5 12.5t-13.5 30.5q0 16 13 28.5t30 12.5h116q29 0 50.5 -21.5t21.5 -50.5v-501 q0 -174 -100.5 -292t-266.5 -118h-409q-16 0 -28.5 12.5t-12.5 28.5zM582 494q0 25 17 42t42 17t42 -17.5t17 -41.5q0 -27 -17 -44.5t-42 -17.5t-42 17.5t-17 44.5z" />
<glyph unicode="&#xfb43;" d="M248 625v286q0 29 21.5 50.5t49.5 21.5h478q76 0 130 -53t54 -131v-1125h104q16 0 28.5 -12t12.5 -31q0 -16 -12 -28.5t-29 -12.5h-116q-29 0 -50.5 20.5t-21.5 51.5v1137q0 41 -29.5 70.5t-70.5 29.5h-465v-274q0 -41 29.5 -71t70.5 -30h121q16 0 28.5 -12t12.5 -29 q0 -18 -12.5 -30.5t-28.5 -12.5h-121q-76 0 -130 54.5t-54 130.5zM678 478q0 25 17 42t42 17t42 -17.5t17 -41.5q0 -27 -17 -44.5t-42 -17.5t-42 17.5t-17 44.5z" />
<glyph unicode="&#xfb44;" d="M248 41q0 18 12 30.5t31 12.5h506q41 0 70.5 29.5t29.5 70.5v615q0 41 -29.5 70.5t-70.5 29.5h-465v-274q0 -41 29.5 -71t70.5 -30h100q16 0 28.5 -12t12.5 -29q0 -18 -12 -30.5t-29 -12.5h-100q-76 0 -130 54.5t-54 130.5v286q0 29 21.5 50.5t49.5 21.5h478 q76 0 130 -53t54 -131v-615q0 -78 -54.5 -131t-129.5 -53h-506q-18 0 -30.5 12.5t-12.5 28.5zM670 488q0 25 17 42t42 17t42 -17.5t17 -41.5q0 -27 -17 -44.5t-42 -17.5t-42 17.5t-17 44.5z" />
<glyph unicode="&#xfb45;" d="M164 942q0 16 12 28.5t29 12.5h160q29 0 49 -21.5t20 -50.5v-499h180q129 0 206 93t77 232v162h-145q-16 0 -29.5 12.5t-13.5 30.5q0 16 13 28.5t30 12.5h157q29 0 50.5 -21.5t21.5 -50.5v-174q0 -174 -100.5 -291.5t-266.5 -117.5h-178v-654h105q16 0 28.5 -12t12.5 -31 q0 -16 -12.5 -28.5t-28.5 -12.5h-117q-29 0 -50.5 21.5t-21.5 50.5v1237h-147q-16 0 -28.5 12.5t-12.5 30.5zM605 666q0 25 17 42t42 17t42 -17.5t17 -41.5q0 -27 -17 -44.5t-42 -17.5t-42 17.5t-17 44.5z" />
<glyph unicode="&#xfb46;" d="M164 41q0 18 12 30.5t31 12.5h690v90q0 119 -100 186l-318 222q-127 90 -127 247v70h-147q-16 0 -28.5 12.5t-12.5 30.5q0 16 12 28.5t29 12.5h160q29 0 49 -21.5t20 -50.5l2 -82q0 -119 101 -186l98 -68q121 8 191.5 99.5t70.5 224.5h-145q-16 0 -29.5 12.5t-13.5 30.5 q0 16 13 28.5t30 12.5h157q29 0 50.5 -21.5t21.5 -50.5v-12q0 -139 -67.5 -245.5t-182.5 -145.5l123 -86q127 -90 127 -248v-102q0 -29 -21.5 -50.5t-50.5 -21.5h-702q-18 0 -30.5 12.5t-12.5 28.5zM447 281q0 25 17 42t42 17t42 -17.5t17 -41.5q0 -27 -17 -44.5t-42 -17.5 t-42 17.5t-17 44.5z" />
<glyph unicode="&#xfb47;" d="M162 942q0 16 12.5 28.5t30.5 12.5h704q29 0 50.5 -21.5t21.5 -50.5v-264q0 -86 -57 -143l-318 -320q-33 -31 -33 -57q0 -18 13.5 -30.5t29.5 -12.5h117q16 0 28.5 -12.5t12.5 -30.5q0 -16 -12 -28.5t-29 -12.5h-174q-29 0 -50.5 21.5t-21.5 50.5v28q0 86 58 144l317 317 q35 35 35 84v254h-694q-16 0 -28.5 12.5t-12.5 30.5zM248 -369v1028q0 16 12 28.5t31 12.5q16 0 28.5 -12t12.5 -29v-1028q0 -16 -12.5 -28.5t-28.5 -12.5q-18 0 -30.5 12.5t-12.5 28.5zM527 592q0 25 17 42t42 17t42 -17.5t17 -41.5q0 -27 -17 -44.5t-42 -17.5t-42 17.5 t-17 44.5z" />
<glyph unicode="&#xfb48;" d="M164 942q0 16 12 28.5t29 12.5h592q76 0 130 -53t54 -131v-758q0 -16 -12.5 -28.5t-30.5 -12.5q-16 0 -28.5 12.5t-12.5 28.5v758q0 41 -29.5 70.5t-70.5 29.5h-592q-16 0 -28.5 12.5t-12.5 30.5zM555 492q0 25 17 42t42 17t42 -17.5t17 -41.5q0 -27 -17 -44.5t-42 -17.5 t-42 17.5t-17 44.5z" />
<glyph unicode="&#xfb49;" d="M164 328v583q0 29 21.5 50.5t50.5 21.5h116q16 0 28.5 -12.5t12.5 -28.5q0 -18 -12 -30.5t-29 -12.5h-104v-571q0 -102 70.5 -173t173.5 -71h81v858q0 16 12.5 28.5t29 12.5t28.5 -12.5t12 -28.5v-858h82q102 0 173 70.5t71 173.5v571h-104q-16 0 -28.5 12.5t-12.5 30.5 q0 16 12 28.5t29 12.5h116q29 0 50.5 -21.5t21.5 -50.5v-583q0 -135 -96.5 -231.5t-231.5 -96.5h-245q-135 0 -231.5 96.5t-96.5 231.5zM758 490q0 25 17 42t42 17t42 -17.5t17 -41.5q0 -27 -17 -44.5t-42 -17.5t-42 17.5t-17 44.5z" />
<glyph unicode="&#xfb4a;" d="M119 41q0 18 13 30.5t30 12.5h121v815h-121q-16 0 -29.5 12.5t-13.5 30.5q0 16 13 28.5t30 12.5h635q76 0 130 -53t54 -131v-758q0 -16 -12.5 -28.5t-30.5 -12.5q-16 0 -28.5 12.5t-12.5 28.5v758q0 41 -29.5 70.5t-70.5 29.5h-432v-827q0 -29 -20.5 -50.5t-49.5 -21.5 h-133q-16 0 -29.5 12.5t-13.5 28.5zM562 494q0 25 17 42t42 17t42 -17.5t17 -41.5q0 -27 -17 -44.5t-42 -17.5t-42 17.5t-17 44.5z" />
<glyph unicode="&#xfb4b;" d="M365 942q0 16 13 28.5t30 12.5h219q29 0 50 -21.5t21 -50.5v-870q0 -16 -12 -28.5t-31 -12.5q-16 0 -28.5 12.5t-12.5 28.5v858h-206q-16 0 -29.5 12.5t-13.5 30.5zM576 1167q0 25 17 42.5t42 17.5t42 -17.5t17 -42.5q0 -27 -17 -44t-42 -17t-42 17t-17 44z" />
<glyph unicode="&#xfb4c;" d="M164 41q0 18 12 30.5t29 12.5h604v571q0 102 -70.5 173t-173.5 71h-360q-16 0 -28.5 12.5t-12.5 30.5q0 16 12 28.5t29 12.5h360q135 0 231.5 -96t96.5 -232v-571h131q16 0 28.5 -12.5t12.5 -30.5q0 -16 -12.5 -28.5t-28.5 -12.5h-819q-16 0 -28.5 12.5t-12.5 28.5z M361 1147q0 18 13.5 30.5t29.5 12.5h276q16 0 28.5 -12.5t12.5 -30.5q0 -16 -12 -28.5t-29 -12.5h-276q-16 0 -29.5 12t-13.5 29z" />
<glyph unicode="&#xfb4d;" d="M164 41q0 18 12 30.5t29 12.5h366q135 0 230.5 95t95.5 231v163q0 135 -95 230.5t-231 95.5h-366q-16 0 -28.5 12.5t-12.5 30.5q0 16 12 28.5t29 12.5h366q170 0 290 -121t120 -289v-163q0 -168 -120 -289t-290 -121h-366q-16 0 -28.5 12.5t-12.5 28.5zM287 1147 q0 18 13.5 30.5t29.5 12.5h276q16 0 28.5 -12.5t12.5 -30.5q0 -16 -12 -28.5t-29 -12.5h-276q-16 0 -29.5 12t-13.5 29z" />
<glyph unicode="&#xfb4e;" d="M248 41q0 18 12 30.5t31 12.5h506q41 0 70.5 29.5t29.5 70.5v615q0 41 -29.5 70.5t-70.5 29.5h-465v-274q0 -41 29.5 -71t70.5 -30h100q16 0 28.5 -12t12.5 -29q0 -18 -12 -30.5t-29 -12.5h-100q-76 0 -130 54.5t-54 130.5v286q0 29 21.5 50.5t49.5 21.5h478 q76 0 130 -53t54 -131v-615q0 -78 -54.5 -131t-129.5 -53h-506q-18 0 -30.5 12.5t-12.5 28.5zM434 1147q0 18 13.5 30.5t29.5 12.5h276q16 0 28.5 -12.5t12.5 -30.5q0 -16 -12 -28.5t-29 -12.5h-276q-16 0 -29.5 12t-13.5 29z" />
<glyph unicode="&#xfb4f;" d="M164 971v252q0 16 12 28.5t29 12.5q18 0 30.5 -12.5t12.5 -28.5v-267l543 -596q88 39 139 120t51 175v244h-207q-16 0 -28.5 12.5t-12.5 30.5q0 16 12.5 28.5t28.5 12.5h219q29 0 50.5 -21.5t21.5 -50.5v-256q0 -113 -58.5 -211t-156.5 -149l205 -223q27 -35 -2 -60 q-35 -31 -60 2l-819 897q-10 14 -10 60z" />
</font>
</defs>
</svg>
