<?xml version="1.0" standalone="no"?>
<!DOCTYPE svg PUBLIC "-//W3C//DTD SVG 1.1//EN" "http://www.w3.org/Graphics/SVG/1.1/DTD/svg11.dtd" >
<svg xmlns="http://www.w3.org/2000/svg">
<metadata></metadata>
<defs>
<font id="miriam_mono_clmbookoblique" horiz-adv-x="1228" >
<font-face units-per-em="2048" ascent="1638" descent="-410" />
<missing-glyph horiz-adv-x="500" />
<glyph d="M137 -123l262 1229h901l-262 -1229h-901zM240 -39h733l225 1061h-733z" />
<glyph d="M137 -123l262 1229h901l-262 -1229h-901zM240 -39h733l225 1061h-733z" />
<glyph unicode="&#xd;" horiz-adv-x="681" />
<glyph unicode=" " />
<glyph unicode="!" d="M504 49q0 51 40 88t93 37h25q41 0 66.5 -22.5t25.5 -59.5q0 -49 -41 -86t-95 -37h-24q-39 0 -64.5 22.5t-25.5 57.5zM672 459v26l106 668q18 113 105 113q29 0 47 -16.5t18 -43.5q0 -12 -10 -53l-180 -668q-14 -57 -56 -57q-12 0 -21 9t-9 22z" />
<glyph unicode="&#x22;" d="M520 698v21l41 518h262l-178 -518q-27 -74 -78 -74q-47 0 -47 53zM889 698v21l41 518h262l-178 -518q-27 -74 -78 -74q-47 0 -47 53z" />
<glyph unicode="#" d="M281 420q0 51 65 51h182l74 258h-160q-49 0 -49 33q0 51 68 51h164l131 461q14 51 53 51q14 0 23.5 -9t9.5 -22q0 -10 -4 -26l-129 -455h186l129 461q14 51 53 51q35 0 35 -31q0 -6 -6 -26l-129 -455h182q47 0 47 -33q0 -51 -65 -51h-187l-73 -258h163q49 0 50 -33 q0 -51 -68 -51h-168l-131 -461q-14 -53 -53 -53q-33 0 -33 33q0 2 4 26l129 455h-186l-129 -461q-14 -53 -56 -53q-33 0 -32 33q0 6 6 26l129 455h-178q-47 0 -47 33zM612 471h187l71 258h-186z" />
<glyph unicode="$" d="M268 164v24l37 162q14 57 55 58q16 0 33 -25v-66q0 -6 29 -38.5t47 -45.5q61 -45 186 -45q141 0 247 78t106 185q0 66 -54 104q-27 20 -62.5 31.5t-141.5 34.5q-166 33 -226 77q-63 53 -63 140q0 123 107 224.5t257 117.5l23 106q12 55 53 55q33 0 33 -32v-23l-25 -106 q61 0 101.5 -19.5t93.5 -66.5q16 59 55 59q14 0 23.5 -9t9.5 -22q0 -10 -4 -24l-27 -123q-10 -57 -51 -57q-16 0 -31 26v49q0 8 -25.5 33t-45.5 39q-70 39 -160 39q-113 0 -208 -79t-95 -171q0 -57 51 -94q45 -29 192 -60q182 -35 240 -84q66 -51 66 -141 q0 -141 -116 -243.5t-296 -120.5l-53 -244q-12 -55 -54 -55q-31 0 -30 32v23l53 244q-70 0 -137.5 32.5t-98.5 77.5l-8 -33q-12 -55 -49 -55q-12 0 -24.5 9.5t-12.5 21.5z" />
<glyph unicode="%" d="M280.5 481.5q0.5 30.5 45.5 46.5l831 250q20 4 27 4q27 0 26 -30q0 -35 -45 -47l-831 -250q-8 -4 -25 -4q-29 0 -28.5 30.5zM442 946q0 117 95.5 211t214.5 94q90 0 147 -56t57 -146q0 -117 -96 -211.5t-217 -94.5q-88 0 -144.5 57.5t-56.5 145.5zM522 961 q0 -59 39 -99.5t98 -40.5q84 0 151 65.5t67 147.5q0 61 -39.5 100.5t-100.5 39.5q-82 0 -148.5 -66t-66.5 -147zM532 176q0 119 95.5 213t216.5 94q90 0 146.5 -56t56.5 -146q0 -117 -96.5 -211.5t-217.5 -94.5q-86 0 -143.5 57.5t-57.5 143.5zM612 193q0 -59 39 -99.5 t99 -40.5q84 0 150.5 65.5t66.5 149.5q0 59 -39.5 98.5t-102.5 39.5q-82 0 -147.5 -66t-65.5 -147z" />
<glyph unicode="&#x26;" d="M270 221q0 125 83 227.5t214 139.5q-57 145 -57 188q0 109 96 198t211 89q72 0 127 -41l23 12q25 10 37 10t21 -10t9 -22q0 -31 -45 -54l-71 -32q-51 53 -117 53q-76 0 -141.5 -62.5t-65.5 -136.5q0 -51 49 -170l152 -362q80 106 149 266h88q47 0 47 -37q0 -51 -65 -51 h-25q-82 -170 -164 -258l39 -84h80q45 0 45 -33q0 -23 -18.5 -37t-46.5 -14h-119l-43 98q-117 -131 -252 -131q-102 0 -171 73t-69 181zM356 238q0 -78 48.5 -132.5t117.5 -54.5q111 0 209 125l-143 338q-100 -23 -166 -100.5t-66 -175.5z" />
<glyph unicode="'" d="M424 690q0 14 10 35l252 512h272l-411 -543q-41 -51 -76 -51q-20 0 -33.5 13.5t-13.5 33.5z" />
<glyph unicode="(" d="M686 283q0 201 76 389t248 413q68 88 98.5 120t50.5 32q35 0 35 -33q0 -14 -23 -43q-188 -248 -276 -466t-88 -441q0 -201 84 -444q4 -12 4 -17q0 -16 -16.5 -31.5t-36.5 -15.5q-18 0 -27 18q-43 70 -90 244q-39 139 -39 275z" />
<glyph unicode=")" d="M254 -221q0 16 12 31q195 250 285 471t90 448q0 201 -84 445q-4 12 -4 16q0 16 16.5 31.5t36.5 15.5q16 0 27 -18q55 -94 92 -245t37 -274q0 -201 -76 -389t-248 -413q-63 -86 -96 -119t-53 -33q-35 0 -35 33z" />
<glyph unicode="*" d="M432 938q0 20 15.5 35.5t35.5 15.5q10 0 27 -6l252 -86l61 285q12 55 54 55q14 0 23 -9t9 -22l-2 -24l-61 -285l293 88q16 6 30 6q12 0 21.5 -10t9.5 -23q0 -35 -53 -53l-293 -86l119 -229q8 -16 8 -31q0 -16 -16.5 -31.5t-35 -15.5t-34.5 29l-119 229l-215 -229 q-29 -29 -47 -29q-35 0 -35 33q0 16 25 45l215 229l-254 86h-6q-27 4 -27 33z" />
<glyph unicode="+" d="M268 567q0 51 64 51h370l89 412q8 55 53 55q33 0 33 -32l-3 -23l-88 -412h369q49 0 49 -32q0 -23 -18.5 -37t-46.5 -14h-371l-88 -414q-12 -55 -53 -55q-14 0 -23.5 9t-9.5 21l2 25l88 414h-369q-47 0 -47 32z" />
<glyph unicode="," d="M225 -250q0 14 11 35l251 512h273l-412 -543q-41 -51 -76 -51q-20 0 -33.5 13.5t-13.5 33.5z" />
<glyph unicode="-" d="M268 561q0 51 66 51h823q47 0 47 -32q1 -52 -65 -52h-824q-47 0 -47 33z" />
<glyph unicode="." d="M481 76q0 63 52 112.5t120 49.5h23q51 0 83 -30t32 -77q0 -63 -52.5 -112.5t-120.5 -49.5h-22q-51 0 -83 30t-32 77z" />
<glyph unicode="/" d="M203 -133q0 14 16 39l975 1425q25 37 51 37q35 0 35 -33q0 -12 -16 -39l-975 -1425q-27 -37 -53 -37q-12 0 -22.5 9.5t-10.5 23.5z" />
<glyph unicode="0" d="M319 332q0 94 21 182l43 205q51 242 189.5 394.5t308.5 152.5q137 0 212.5 -95.5t75.5 -267.5q0 -94 -20 -184l-43 -205q-53 -242 -190.5 -393.5t-305.5 -151.5q-137 0 -214 95.5t-77 267.5zM410 365q0 -311 215 -312q133 0 223 109q129 150 176 364l39 183q16 78 16 161 q0 311 -215 312q-133 0 -223 -109q-133 -153 -176 -364l-39 -183q-16 -78 -16 -161z" />
<glyph unicode="1" d="M240 33q0 51 65 51h287l223 1057l-287 -86q-23 -6 -30 -6q-12 0 -21.5 10t-9.5 22q0 35 53 54l404 118l-248 -1169h285q47 0 47 -33q0 -51 -64 -51h-655q-49 0 -49 33z" />
<glyph unicode="2" d="M172 0l27 123l579 455q195 158 251 228.5t56 158.5q0 90 -69.5 153.5t-167.5 63.5q-106 0 -204.5 -60.5t-143.5 -154.5q-20 -41 -51 -41q-12 0 -22.5 9t-10.5 19q0 23 28.5 69t67.5 87q156 156 356 156q125 0 214 -84t89 -201q0 -80 -34.5 -147.5t-120.5 -149.5 q-70 -66 -324 -268.5t-420 -325.5l-2 -6h643l15 74q12 55 55 55q14 0 23.5 -9t9.5 -22q0 -8 -4 -24l-33 -158h-807z" />
<glyph unicode="3" d="M225 131q0 18 15.5 33.5t32 15.5t32.5 -14q125 -113 303 -113q158 0 283 104.5t125 237.5q0 100 -89 172t-216 72h-4q-47 0 -48 33q0 23 21 39q14 12 98 12q131 0 226.5 80t95.5 190q0 84 -64.5 136.5t-167.5 52.5q-180 0 -301 -111q-31 -29 -49 -29q-33 0 -33 33 q0 31 62 78q143 113 340 113q133 0 216 -71t83 -185q0 -109 -74 -198t-203 -140q190 -84 191 -269q0 -166 -158 -300t-354 -134q-147 0 -285 84q-78 45 -78 78z" />
<glyph unicode="4" d="M289 346l20 96l635 795h172l-172 -807h70q47 0 47 -33q0 -51 -64 -51h-69l-58 -262h70q49 0 49 -33q0 -23 -18.5 -37t-46.5 -14h-310q-47 0 -47 33q0 51 66 51h155l56 262h-555zM387 430h473l154 723h-47z" />
<glyph unicode="5" d="M231 160q0 18 15.5 33.5t36.5 15.5q14 0 30 -19q121 -137 299 -137q217 0 342 189q82 127 82 254q0 106 -62.5 167.5t-170.5 61.5q-125 0 -273 -68q-35 -16 -49 -16q-27 0 -30 31q0 10 2 14l116 551h578q49 0 49 -33q0 -51 -66 -51h-495l-86 -405q164 61 280 61 q133 0 213 -81t80 -216q0 -217 -156.5 -380t-367.5 -163q-145 0 -260 78q-106 74 -107 113z" />
<glyph unicode="6" d="M377 367q0 199 73.5 381t202.5 303q227 215 494 215q59 0 102 -18.5t43 -45.5q0 -18 -14 -33.5t-33 -15.5q-14 0 -35 12q-29 16 -92 17q-135 0 -284.5 -91.5t-239.5 -230.5q-96 -147 -127 -364q180 250 393 249q119 0 194.5 -82.5t75.5 -213.5q0 -184 -138 -332 t-310 -148q-139 0 -222 107.5t-83 290.5zM455 385q4 -78 16 -133q49 -199 231 -199q133 0 237.5 117t104.5 264q0 96 -57 162t-143 66q-125 0 -252 -117q-43 -39 -137 -160z" />
<glyph unicode="7" d="M440 1055q0 6 4 26l33 156h764l-29 -133l-559 -1063q-20 -41 -51 -41q-33 0 -33 29q0 12 13 37l551 1050l8 37h-598l-15 -72q-12 -57 -55 -57q-12 0 -22.5 9t-10.5 22z" />
<glyph unicode="8" d="M293 262q0 121 80 220.5t223 158.5q-82 47 -118 100.5t-36 126.5q0 150 137.5 274t305.5 124q127 0 211 -79t84 -198q0 -154 -136 -266q-55 -45 -141 -82q170 -86 170 -248t-144.5 -293t-322.5 -131q-137 0 -225 83t-88 210zM379 276q0 -98 68.5 -160.5t177.5 -62.5 q139 0 250.5 99.5t111.5 224.5q0 100 -67.5 161.5t-180.5 61.5q-143 0 -251.5 -97t-108.5 -227zM526 879q0 -84 65.5 -140.5t166.5 -56.5q133 0 234.5 86t101.5 201q0 96 -64 154.5t-166 58.5q-129 0 -233.5 -94.5t-104.5 -208.5z" />
<glyph unicode="9" d="M291 33q0 18 14 33.5t33 15.5q14 0 35 -12q29 -16 92 -17q135 0 284.5 91.5t239.5 230.5t119 309q2 12 8 55q-176 -250 -393 -250q-119 0 -194.5 83t-75.5 214q0 184 138 332t310 148q139 0 222 -107.5t83 -290.5q0 -199 -73.5 -381t-202.5 -303q-227 -215 -494 -215 q-59 0 -102 18.5t-43 45.5zM539 801q0 -96 57 -162t143 -66q125 0 252 117q35 31 137 164q-4 76 -16 129q-49 199 -231 199q-133 0 -237.5 -117t-104.5 -264z" />
<glyph unicode=":" d="M481 76q0 63 52 112.5t120 49.5h23q51 0 83 -29t32 -76q0 -66 -52.5 -115t-120.5 -49h-22q-51 0 -83 30t-32 77zM612 690q0 63 52 113.5t120 50.5h23q51 0 83 -29.5t32 -76.5q0 -63 -52.5 -113.5t-119.5 -50.5h-23q-51 0 -83 29.5t-32 76.5z" />
<glyph unicode=";" d="M233 -250q0 14 11 35l252 512h272l-412 -543q-41 -51 -73 -51q-20 0 -35 13.5t-15 33.5zM563 690q0 63 52 113.5t120 50.5h23q51 0 82.5 -29.5t31.5 -76.5q0 -63 -52 -113.5t-120 -50.5h-22q-51 0 -83 29.5t-32 76.5z" />
<glyph unicode="&#x3c;" d="M268 575l957 476q20 10 26 10q23 0 29 -21l2 -6q2 -4 2 -12q0 -25 -35 -43l-813 -404l641 -403q18 -12 19 -29q0 -12 -11 -26l-4 -6q-14 -20 -34 -21q-10 0 -27 10z" />
<glyph unicode="=" d="M195 422q0 51 65 51h909q47 0 48 -33q0 -51 -66 -51h-909q-47 0 -47 33zM258 717q0 51 66 51h909q47 0 47 -33q0 -51 -66 -51h-909q-47 0 -47 33z" />
<glyph unicode="&#x3e;" d="M188 129q0 25 35 43l813 403l-641 404q-18 12 -18 28.5t10 26.5l4 6q16 20 35 21q10 0 27 -10l751 -476l-956 -475q-20 -10 -27 -10q-23 0 -28 21l-3 6q-2 4 -2 12z" />
<glyph unicode="?" d="M473 922q0 2 4 22l29 139q25 8 65 25q182 74 316 74q141 0 222 -66.5t81 -183.5q0 -162 -135 -270q-94 -72 -287 -156l-18 -84q-8 -55 -54 -55q-14 0 -23 9t-9 21l2 25l30 139q217 82 312.5 164t95.5 184q0 86 -66.5 137.5t-179.5 51.5q-125 0 -280 -70l-17 -84 q-12 -55 -53 -55q-35 0 -35 33zM485 49q0 51 41.5 88t98.5 37h57q96 0 96 -82q0 -51 -41 -87t-98 -36h-57q-45 0 -71 21.5t-26 58.5z" />
<glyph unicode="@" d="M285 248q0 72 16 158l72 333q49 233 194.5 386t319.5 153q119 0 190.5 -70.5t71.5 -185.5q0 -41 -8 -74l-121 -567q33 -6 33 -33q0 -47 -66 -47h-67l2 6q-61 -6 -86 -6q-100 0 -164 56.5t-64 144.5q0 109 81 203t208 131q70 18 139 18l21 94q6 27 6 56q0 88 -52.5 139 t-140.5 51q-139 0 -255.5 -129t-159.5 -332l-70 -327q-14 -78 -14 -138q0 -164 75 -250q55 -61 170 -61q145 0 228 61q29 23 45 23q14 0 23.5 -9t9.5 -22q0 -49 -107.5 -93t-228.5 -44q-147 0 -221 100q-80 111 -80 275zM694 522q0 -63 45 -100t121 -37q45 0 80 8l80 377 q-135 0 -230.5 -72.5t-95.5 -175.5z" />
<glyph unicode="A" d="M27 35q0 49 65 49h64l575 985h-246q-47 0 -47 33q0 51 66 51h416l178 -1069h76q47 0 47 -33q0 -51 -66 -51h-319q-47 0 -48 33q0 51 66 51h156l-52 301h-542l-176 -301h161q47 0 48 -33q0 -23 -18.5 -37t-47.5 -14h-309q-47 0 -47 35zM465 469h481l-102 600h-31z" />
<glyph unicode="B" d="M96 35q0 49 66 49h110l209 985h-110q-47 0 -47 35q0 49 65 49h529q131 0 211.5 -66.5t80.5 -175.5q0 -188 -233 -301q205 -76 205 -239q0 -143 -126 -257t-284 -114h-629q-47 0 -47 35zM356 84h426q125 0 219.5 83t94.5 191q0 86 -86 146q-78 53 -248 53h-305zM475 641 h301q145 0 246.5 73.5t101.5 180.5q0 68 -57 121q-59 53 -166 53h-336z" />
<glyph unicode="C" d="M225 401q0 43 11 95l34 170q20 94 81 192t145 170q170 152 381 152q206 -1 323 -142l12 60q12 55 54 55q34 0 34 -29q0 -6 -4 -26l-49 -230q-10 -57 -53 -57q-18 0 -35 25l8 77q0 4 -26.5 45t-38.5 54q-35 37 -104.5 61.5t-139.5 24.5q-170 0 -318.5 -131t-187.5 -314 l-30 -145q-10 -51 -11 -92q0 -158 102.5 -261.5t258.5 -103.5q201 0 397 185q20 20 41 20q33 0 33 -28.5t-70 -90.5q-203 -170 -420 -170q-182 0 -305 125t-123 309z" />
<glyph unicode="D" d="M96 33q0 51 66 51h69l209 985h-69q-47 0 -47 33q0 51 65 51h451q168 0 270 -110.5t102 -288.5q0 -61 -12 -119l-24 -115q-47 -219 -215 -369.5t-367 -150.5h-451q-47 0 -47 33zM315 84h306q147 0 289.5 127t176.5 291l33 149q8 57 8 80q0 135 -75 236q-76 102 -236 102 h-293z" />
<glyph unicode="E" d="M96 35q0 49 66 49h110l209 985h-110q-47 0 -47 35q0 49 65 49h879l-62 -285q-10 -55 -53 -55q-14 0 -23.5 9t-9.5 22l2 24l43 201h-600l-90 -428h297l19 92q12 55 53 55q35 0 35 -30q0 -8 -5 -25l-57 -268q-10 -55 -53 -55q-14 0 -23.5 9t-9.5 21l2 25l21 92h-297 l-101 -473h643l52 244q12 55 55 55q14 0 23.5 -9t9.5 -22q0 -4 -4 -24l-70 -328h-922q-47 0 -47 35z" />
<glyph unicode="F" d="M96 33q0 51 66 51h110l209 985h-110q-47 0 -47 33q0 51 65 51h922l-62 -285q-8 -55 -53 -55q-12 0 -22.5 9t-10.5 22l2 24l43 201h-643l-90 -428h297l19 92q12 55 53 55q35 0 35 -30q0 -8 -5 -25l-57 -268q-10 -55 -53 -55q-14 0 -23.5 9t-9.5 21l2 25l21 92h-297 l-101 -473h283q49 0 49 -33q0 -23 -18.5 -37t-46.5 -14h-480q-47 0 -47 33z" />
<glyph unicode="G" d="M221 367q0 70 15 133l32 151q47 223 227.5 376t397.5 153q201 0 315 -111l6 29q12 55 54 55q35 0 35 -31q0 -8 -5 -24l-38 -187q-12 -57 -56 -57q-25 0 -33 25q-2 4 -1.5 14t8.5 63q-8 16 -33 44t-45 40q-82 57 -223 58q-176 0 -331 -132t-194 -317l-33 -149 q-12 -61 -12 -117q0 -156 104.5 -244t286.5 -88q143 0 310 70l65 307h-285q-47 0 -47 33q0 51 66 51h397q49 0 49 -33q0 -51 -67 -51h-29l-76 -354q-207 -106 -405 -107q-211 0 -333 107.5t-122 292.5z" />
<glyph unicode="H" d="M117 33q0 51 65 51h94l209 985h-51q-47 0 -47 33q0 51 66 51h245q47 0 47 -33q0 -51 -65 -51h-111l-90 -428h553l90 428h-110q-47 0 -47 33q0 51 65 51h246q47 0 47 -33q0 -51 -66 -51h-51l-209 -985h93q49 0 49 -33q0 -23 -18.5 -37t-47.5 -14h-289q-47 0 -47 33 q0 51 66 51h110l101 473h-553l-101 -473h111q47 0 47 -33q0 -23 -18.5 -37t-46.5 -14h-287q-49 0 -49 33z" />
<glyph unicode="I" d="M240 33q0 51 63 51h287l209 985h-285q-47 0 -47 33q0 51 63 51h656q49 0 49 -33q0 -23 -18.5 -37t-47.5 -14h-286l-209 -985h284q49 0 50 -33q0 -23 -18.5 -37t-47.5 -14h-655q-47 0 -47 33z" />
<glyph unicode="J" d="M205 152l65 305q12 55 54 55q14 0 23 -9t9 -22l-2 -24l-57 -267q125 -139 272 -139q127 0 231.5 84t129.5 203l155 731h-323q-49 0 -49 33q0 51 65 51h606q47 0 48 -33q0 -51 -66 -51h-197l-155 -731q-33 -152 -170 -261.5t-293 -109.5q-98 0 -178 42t-168 143z" />
<glyph unicode="K" d="M96 35q0 49 66 49h110l209 985h-110q-47 0 -47 35q0 49 65 49h346q49 0 49 -33q0 -51 -65 -51h-154l-108 -510l682 510h-92q-49 0 -50 33q0 51 66 51h244q49 0 49 -33q0 -51 -66 -51h-35l-540 -405q135 -61 194.5 -173t110.5 -407h115q47 0 47 -33q0 -23 -18.5 -37 t-47.5 -14h-176q-47 311 -109.5 433t-197.5 169l-199 -149l-78 -369h152q49 0 49 -33q0 -23 -18.5 -37t-46.5 -14h-349q-47 0 -47 35z" />
<glyph unicode="L" d="M137 33q0 51 66 51h196l209 985h-196q-47 0 -47 35q0 49 63 49h479q47 0 47 -33q0 -51 -65 -51h-197l-209 -985h557l70 328q12 55 53 55q35 0 35 -29q0 -6 -4 -26l-86 -412h-924q-47 0 -47 33z" />
<glyph unicode="M" d="M31 35q0 49 65 49h70l209 985h-51q-47 0 -48 35q0 49 66 49h203l170 -713l467 713h204q47 0 48 -33q0 -51 -66 -51h-51l-209 -985h70q47 0 47 -33q0 -23 -18.5 -37t-47.5 -14h-305q-47 0 -47 35q0 49 63 49h154l209 985h-16l-476 -723h-94l-172 723h-16l-209 -985h151 q49 0 50 -33q0 -23 -18.5 -37t-47.5 -14h-307q-47 0 -47 35z" />
<glyph unicode="N" d="M94 35q0 49 66 49h69l209 985h-110q-47 0 -47 35q0 49 65 49h217l406 -1032l200 948h-151q-49 0 -49 33q0 51 65 51h307q47 0 48 -33q0 -51 -66 -51h-70l-227 -1069h-106l-406 1032l-201 -948h152q49 0 49 -33q0 -23 -18.5 -37t-46.5 -14h-308q-47 0 -47 35z" />
<glyph unicode="O" d="M209 424q0 190 93 365.5t245.5 283t316.5 107.5q176 0 287 -125t111 -324q0 -193 -92.5 -371t-245 -285.5t-318.5 -107.5q-176 0 -286.5 126t-110.5 331zM295 442q0 -170 92 -280.5t231 -110.5q213 0 385.5 202t172.5 454q0 168 -92.5 278.5t-233.5 110.5 q-211 0 -383 -202t-172 -452z" />
<glyph unicode="P" d="M96 35q0 49 66 49h110l209 985h-110q-47 0 -47 35q0 49 65 49h492q141 0 231 -76t90 -194q0 -164 -148.5 -287t-344.5 -123h-271l-82 -389h283q49 0 49 -33q0 -51 -67 -51h-478q-47 0 -47 35zM457 557h274q152 0 268.5 93t116.5 212q0 90 -69.5 148.5t-176.5 58.5h-305z " />
<glyph unicode="Q" d="M209 422q0 291 201.5 524.5t453.5 233.5q176 0 287 -126t111 -329q0 -289 -197 -519.5t-449 -238.5l-129 -82q88 16 142 17q86 0 162 -31q57 -23 88 -23q53 0 153 56q14 8 27 8q33 0 33 -33q0 -27 -48 -55q-106 -59 -188 -60q-39 0 -111 27q-66 27 -135 27 q-113 0 -297 -47q-4 0 -11 -3.5t-9 -3.5q-33 0 -33 37q0 27 31 45l213 134q-131 31 -213 152.5t-82 289.5zM295 442q0 -170 92 -280.5t231 -110.5q213 0 385.5 202t172.5 456q0 168 -92.5 277.5t-233.5 109.5q-213 0 -384 -202t-171 -452z" />
<glyph unicode="R" d="M96 35q0 49 66 49h110l209 985h-110q-47 0 -47 35q0 49 63 49h510q129 0 217 -76t88 -188q0 -238 -354 -352q84 -68 132 -153t126 -300h61q49 0 50 -33q0 -23 -18.5 -37t-47.5 -14h-117q-82 250 -146.5 355.5t-168.5 158.5h-273l-90 -430h152q49 0 49 -33 q0 -23 -18.5 -37t-46.5 -14h-349q-47 0 -47 35zM465 598h233q164 0 291 83t127 189q0 82 -69.5 140.5t-167.5 58.5h-314z" />
<glyph unicode="S" d="M197 31v24l51 230q12 57 55 57q16 0 33 -25l-8 -94q0 -10 32.5 -53t51.5 -57q33 -27 94 -45.5t123 -18.5q158 0 276.5 94.5t118.5 218.5q0 76 -61 123q-31 25 -74 38.5t-150 31.5q-190 33 -260 94q-68 57 -67 154q0 150 136 264.5t312 114.5q181 0 277 -123l8 39 q12 55 55 55q14 0 23.5 -9t9.5 -22q0 -10 -4 -24l-45 -211q-10 -57 -51 -58q-18 0 -35 25l6 86q0 8 -24.5 45t-39.5 51q-27 27 -81 44.5t-107 17.5q-137 0 -242.5 -85t-105.5 -196q0 -70 53 -112q57 -45 217 -72q193 -33 260 -82q35 -27 58.5 -75t23.5 -97 q0 -74 -34.5 -148.5t-94.5 -128.5q-70 -61 -172 -99t-199 -38q-221 0 -319 150l-12 -60q-12 -55 -56 -55q-14 0 -23 9t-9 22z" />
<glyph unicode="T" d="M311 35q0 49 66 49h215l209 985h-342l-31 -149q-12 -55 -55 -56q-14 0 -23.5 9.5t-9.5 21.5l2 25l51 233h934l-49 -233q-12 -55 -53 -56q-10 0 -20.5 8.5t-12.5 18.5q0 25 2 29l31 149h-340l-209 -985h215q47 0 47 -33q0 -23 -18.5 -37t-47.5 -14h-514q-47 0 -47 35z" />
<glyph unicode="U" d="M279 287q0 41 10 92l145 690h-67q-49 0 -50 33q0 51 66 51h307q45 0 45 -33q0 -51 -63 -51h-154l-145 -690q-8 -33 -8 -70q0 -115 72.5 -186.5t187.5 -71.5q137 0 251.5 95.5t143.5 232.5l145 690h-151q-47 0 -47 35q0 49 65 49h305q47 0 47 -33q0 -51 -65 -51h-70 l-145 -690q-37 -174 -180.5 -293t-315.5 -119q-147 0 -238 88t-91 232z" />
<glyph unicode="V" d="M254 1102q0 51 65 51h308q49 0 49 -33q0 -51 -66 -51h-155l170 -985h4l608 985h-162q-47 0 -47 33q0 51 64 51h309q47 0 47 -33q0 -51 -66 -51h-63l-655 -1069h-115l-184 1069h-64q-47 0 -47 33z" />
<glyph unicode="W" d="M250 0l104 1069h-30q-47 0 -48 33q0 51 66 51h305q49 0 49 -33q0 -51 -65 -51h-193l-92 -975l399 803h127l54 -803l323 975h-196q-47 0 -47 33q0 51 65 51h307q47 0 47 -33q0 -51 -65 -51h-31l-354 -1069h-131l-56 819l-409 -819h-129z" />
<glyph unicode="X" d="M90 33q0 51 66 51h34l494 506l-266 479h-31q-47 0 -47 33q0 51 63 51h228q47 0 47 -33q0 -51 -66 -51h-88l230 -412l403 412h-94q-47 0 -47 33q0 51 65 51h228q47 0 47 -33q0 -51 -66 -51h-30l-469 -479l284 -506h35q47 0 47 -33q0 -23 -18.5 -37t-46.5 -14h-271 q-47 0 -47 33q0 51 66 51h127l-246 438l-430 -438h133q47 0 47 -33q0 -51 -65 -51h-269q-47 0 -47 33z" />
<glyph unicode="Y" d="M313 33q0 51 66 51h215l92 436l-250 549h-49q-47 0 -47 33q0 51 66 51h227q47 0 47 -33q0 -51 -66 -51h-77l213 -465l405 465h-84q-49 0 -49 33q0 51 68 51h225q47 0 47 -35q0 -23 -18.5 -36t-47.5 -13h-47l-479 -549l-92 -436h215q47 0 47 -33q0 -51 -66 -51h-514 q-47 0 -47 33z" />
<glyph unicode="Z" d="M211 0l27 121l870 942l2 6h-551l-51 -242q-12 -57 -55 -57q-33 0 -33 33q0 8 4 24l70 326h714l-24 -119l-875 -942l-2 -8h645l62 289q12 55 53 55q35 0 35 -31q0 -10 -2 -16l-2 -8l-80 -373h-807z" />
<glyph unicode="[" d="M520 -254l318 1491h282q47 0 47 -33q0 -51 -65 -51h-199l-280 -1323h198q47 0 47 -33q0 -51 -65 -51h-283z" />
<glyph unicode="\" d="M512 1296v23q0 18 15.5 33.5t35.5 15.5q27 0 35 -37l369 -1425q4 -16 4 -23q0 -18 -15.5 -33.5t-35.5 -15.5q-27 0 -35 37z" />
<glyph unicode="]" d="M270 -221q0 51 66 51h199l280 1323h-199q-47 0 -47 33q0 51 66 51h283l-318 -1491h-283q-47 0 -47 33z" />
<glyph unicode="^" d="M393 758q0 18 27 45l461 457l270 -457q10 -16 10 -29q0 -18 -16.5 -33.5t-34.5 -15.5q-20 0 -37 27l-219 378l-381 -378q-27 -27 -47 -27q-33 0 -33 33z" />
<glyph unicode="_" d="M-125 -154h1280v-102h-1280v102z" />
<glyph unicode="`" d="M795 1237h274l45 -461v-6q0 -27 -22.5 -47.5t-51.5 -20.5q-35 0 -53 46z" />
<glyph unicode="a" d="M190 178q0 150 144.5 250t357.5 100q119 0 271 -43l32 146v28q0 63 -59 101.5t-160 38.5q-98 0 -303 -62q-20 -4 -22 -4q-12 0 -21.5 9.5t-9.5 23.5q0 33 37 47q55 23 169.5 46.5t174.5 23.5q125 0 202.5 -57.5t77.5 -147.5q0 -14 -4 -47l-116 -547h110q47 0 47 -33 q0 -51 -65 -51h-195l29 137q-217 -170 -426 -170q-127 0 -199 56.5t-72 154.5zM276 197q0 -70 51.5 -108t145.5 -38q111 0 209 40t225 138l39 185q-115 30 -247 30h-9q-176 0 -295 -70.5t-119 -176.5z" />
<glyph unicode="b" d="M53 35q0 49 66 49h110l228 1069h-111q-47 0 -47 35q0 49 63 49h195l-119 -565q193 211 414 211q158 0 258 -99.5t100 -255.5q0 -217 -171 -389t-386 -172q-221 0 -319 213l-39 -180h-195q-47 0 -47 35zM377 342q0 -125 83 -208t208 -83q176 0 316 139.5t140 315.5 q0 127 -84 210t-213 83q-174 0 -312 -140.5t-138 -316.5z" />
<glyph unicode="c" d="M248 311q0 229 173 401.5t404 172.5q194 0 303 -115l7 31q8 53 53 53q14 0 23.5 -9t9.5 -22q0 -2 -1 -5t-2 -8t-1 -9l-39 -191q-12 -57 -54 -57q-20 0 -34 25l6 73q0 8 -29 42t-47 48q-74 59 -215 60q-227 0 -363 -174q-108 -136 -108 -292q0 -128 86 -207t219 -79 q236 0 424 150q27 23 41 22q10 0 21.5 -11t11.5 -24q0 -39 -111 -106q-188 -115 -410 -115q-162 0 -265 97.5t-103 248.5z" />
<glyph unicode="d" d="M209 322q0 217 169 389t382 172q223 0 325 -213l103 483h-111q-47 0 -47 35q0 49 66 49h194l-246 -1153h113q45 0 45 -33q0 -51 -63 -51h-195l39 182q-190 -215 -422 -215q-152 0 -252 101.5t-100 253.5zM295 346q0 -131 82 -213t211 -82q178 0 316 139.5t138 317.5 q0 127 -81.5 209t-212.5 82q-176 0 -314.5 -138.5t-138.5 -314.5z" />
<glyph unicode="e" d="M213 350q0 211 172 372t399 161q168 0 275.5 -97.5t107.5 -248.5q0 -47 -16 -129h-852q-2 -20 -2 -46q0 -137 94 -224t244 -87q96 0 203.5 31t181.5 80q27 14 37 14q29 0 28 -33q0 -35 -79 -77q-176 -98 -392 -99q-178 0 -289.5 106.5t-111.5 276.5zM317 492h768v24 q0 125 -89 204t-228 79q-150 0 -272 -83t-179 -224z" />
<glyph unicode="f" d="M223 35q0 49 66 49h200l146 686h-180q-47 0 -47 35q0 49 65 49h180l27 125q23 113 127 185.5t242 72.5q139 0 280 -27q29 -6 29 -30q0 -20 -15.5 -36t-37.5 -16q-4 0 -98.5 12.5t-178.5 12.5q-102 0 -176 -48t-88 -126l-27 -125h387q47 0 47 -33q0 -51 -65 -51h-387 l-146 -686h363q49 0 49 -33q0 -23 -18.5 -37t-46.5 -14h-650q-47 0 -47 35z" />
<glyph unicode="g" d="M215 362q0 199 162 360t362 161q216 0 308 -199l36 170h195q47 0 47 -33q0 -51 -65 -51h-111l-176 -827q-27 -121 -133 -213q-125 -111 -273 -111h-235q-47 0 -47 33q0 51 65 51h238q104 0 192 73.5t111 178.5l57 264q-178 -199 -393 -199q-150 0 -245 96.5t-95 245.5z M301 381q0 -123 77 -200t200 -77q168 0 298 129t130 295q0 121 -78 196t-203 75q-164 0 -294 -128t-130 -290z" />
<glyph unicode="h" d="M113 35q0 49 65 49h94l228 1069h-113q-45 0 -45 35q0 49 64 49h194l-111 -526q98 94 178.5 133t174.5 39q123 0 196.5 -62.5t73.5 -167.5q0 -27 -6 -57l-109 -512h93q49 0 49 -33q0 -23 -18.5 -37t-47.5 -14h-270q-47 0 -47 35q0 49 63 49h94l107 506q6 20 6 43 q0 68 -49 112q-53 53 -166 54q-84 0 -148.5 -34t-168.5 -132l-27 -27l-111 -522h93q49 0 49 -33q0 -51 -68 -51h-270q-47 0 -47 35z" />
<glyph unicode="i" d="M197 33q0 51 63 51h330l145 686h-241q-47 0 -48 35q0 49 66 49h326l-164 -770h327q49 0 50 -33q0 -23 -18.5 -37t-47.5 -14h-741q-47 0 -47 33zM758 1065l45 213h121l-45 -213h-121z" />
<glyph unicode="j" d="M229 -348q0 51 66 51h262q102 0 183 67.5t102 172.5l176 827h-492q-49 0 -49 33q0 51 68 51h575l-194 -911q-29 -143 -137.5 -233.5t-247.5 -90.5h-265q-47 0 -47 33zM954 1065l45 213h121l-45 -213h-121z" />
<glyph unicode="k" d="M137 35q0 49 66 49h110l228 1069h-111q-47 0 -47 35q0 49 63 49h197l-164 -768l418 301h-45q-47 0 -47 35q0 49 65 49h265q49 0 49 -35q0 -23 -18.5 -36t-47.5 -13h-96l-379 -268l336 -418h92q47 0 47 -33q0 -23 -18.5 -37t-46.5 -14h-269q-47 0 -47 35q0 49 66 49h57 l-291 365l-112 -80l-78 -369h-195q-47 0 -47 35z" />
<glyph unicode="l" d="M197 33q0 51 63 51h330l227 1069h-239q-47 0 -48 33q0 51 66 51h324l-246 -1153h327q49 0 50 -33q0 -23 -18.5 -37t-47.5 -14h-741q-47 0 -47 33z" />
<glyph unicode="m" d="M31 33q0 51 65 51h70l145 686h-69q-47 0 -47 29q0 55 65 55h152l-23 -106q123 135 244 135q131 0 168 -146q143 145 262 146q76 0 124 -49.5t48 -126.5q0 -20 -6 -45l-121 -578h70q47 0 47 -33q0 -23 -18.5 -37t-47.5 -14h-151l141 653q2 0 1 13.5t-1 15.5q0 49 -31 83 t-76 34q-104 0 -249 -168l-115 -547h70q47 0 47 -33q0 -51 -66 -51h-151l137 647q4 25 4 33q0 49 -31 84t-74 35q-104 0 -249 -168l-117 -547h69q47 0 48 -33q0 -23 -18.5 -37t-47.5 -14h-223q-45 0 -45 33z" />
<glyph unicode="n" d="M117 33q0 51 65 51h94l146 686h-70q-47 0 -47 29q0 55 66 55h153l-30 -141q111 98 185.5 134t168.5 36q121 0 194.5 -62.5t73.5 -167.5q0 -16 -4 -49l-111 -520h70q47 0 47 -33q0 -23 -18.5 -37t-46.5 -14h-224q-47 0 -47 33q0 51 66 51h70l110 506q4 0 2 18.5t-2 22.5 q0 66 -49 114q-53 53 -154 54q-98 0 -165.5 -38t-188.5 -159l-111 -518h93q47 0 47 -33q0 -51 -66 -51h-268q-49 0 -49 33z" />
<glyph unicode="o" d="M227 332q0 213 176.5 382t397.5 169q170 0 275.5 -102.5t105.5 -264.5q0 -213 -176.5 -381t-399.5 -168q-168 0 -273.5 102.5t-105.5 262.5zM313 350q0 -131 87 -215t225 -84q182 0 326.5 137.5t144.5 311.5q0 133 -87.5 216t-226.5 83q-182 0 -325.5 -137.5 t-143.5 -311.5z" />
<glyph unicode="p" d="M-27 -348q0 51 66 51h111l225 1067h-111q-47 0 -47 29q0 55 66 55h194l-35 -168q102 106 196.5 151.5t211.5 45.5q166 0 265 -93.5t99 -248.5q0 -205 -165.5 -363t-380.5 -158q-229 0 -326 197l-109 -514h199q49 0 49 -33q0 -51 -65 -51h-396q-47 0 -47 33zM385 383 q0 -123 83 -201t214 -78q174 0 310 127t136 291q0 123 -83 200t-216 77q-174 0 -309 -127t-135 -289z" />
<glyph unicode="q" d="M215 365q0 205 167 361.5t384 156.5q228 0 324 -197l36 168h195q47 0 47 -33q0 -51 -65 -51h-111l-227 -1067h110q49 0 49 -33q0 -23 -18.5 -37t-46.5 -14h-395q-49 0 -50 33q0 51 66 51h201l110 514q-182 -197 -409 -197q-164 0 -265.5 95.5t-101.5 249.5zM301 381 q0 -121 84 -199t215 -78q176 0 312.5 127t136.5 289q0 125 -84 202t-217 77q-176 0 -311.5 -127t-135.5 -291z" />
<glyph unicode="r" d="M180 35q0 23 18.5 36t47.5 13h196l146 686h-152q-47 0 -47 35q0 20 17.5 34.5t46.5 14.5h237l-45 -209q172 131 268.5 180t176.5 49q72 0 129 -49q49 -45 49 -69q0 -18 -17.5 -34.5t-38.5 -16.5q-14 0 -28 16q-55 70 -119 70q-70 0 -156 -49.5t-286 -204.5l-97 -453h367 q47 0 47 -35q0 -23 -18.5 -36t-47.5 -13h-647q-47 0 -47 35z" />
<glyph unicode="s" d="M221 31v24l39 170q12 55 55 56q14 0 23.5 -9.5t9.5 -21.5q0 -10 -2 -14q-4 -29 -4 -33q0 -66 80 -109t203 -43q147 0 251.5 63.5t104.5 151.5q0 59 -66 103q-66 39 -210 55q-188 20 -252 65.5t-64 120.5q0 113 117 193t285 80q176 0 264 -95q12 66 55 66q14 0 23.5 -9 t9.5 -22q0 -2 -4 -22l-29 -146q-12 -57 -55 -57q-18 0 -33 25l6 63q0 6 -23.5 34t-37.5 38q-68 43 -185 43q-119 0 -210 -52.5t-91 -119.5q0 -25 22.5 -51.5t55.5 -40.5q41 -18 199 -35q174 -20 248 -80q70 -55 69 -139q0 -129 -136 -223.5t-325 -94.5q-197 0 -301 113 l-6 -23q-12 -55 -53 -55q-12 0 -22.5 9t-10.5 22z" />
<glyph unicode="t" d="M260 803q0 51 66 51h153l51 244q12 55 54 55q35 0 34 -31q0 -8 -4 -24l-51 -244h451q47 0 47 -33q0 -23 -18.5 -37t-47.5 -14h-450l-117 -547q-4 -29 -4 -37q0 -61 53 -98t144 -37q86 0 189 23.5t169 58.5q25 12 37 12q31 0 31 -34q0 -33 -82 -70q-168 -74 -359 -74 q-121 0 -194.5 53.5t-73.5 141.5q0 27 6 57l117 551h-152q-49 0 -49 33z" />
<glyph unicode="u" d="M260 803q0 51 66 51h194l-131 -618q-4 -12 -4 -37q0 -66 42 -107t108 -41q207 0 415 185l113 534h-152q-49 0 -49 33q0 51 68 51h235l-164 -770h70q47 0 47 -33q0 -51 -65 -51h-154l29 135q-201 -168 -410 -168q-102 0 -161.5 54.5t-59.5 146.5q0 37 8 68l113 534h-111 q-47 0 -47 33z" />
<glyph unicode="v" d="M233 803q0 51 66 51h309q49 0 49 -33q0 -51 -65 -51h-135l161 -686h39l449 686h-141q-47 0 -47 33q0 51 65 51h311q47 0 47 -33q0 -51 -65 -51h-84l-504 -770h-143l-180 770h-84q-47 0 -48 33z" />
<glyph unicode="w" d="M233 803q0 51 66 51h227q47 0 47 -33q0 -51 -65 -51h-109l9 -655l286 522h107l69 -522l281 655h-102q-47 0 -48 33q0 51 66 51h227q47 0 47 -33q0 -51 -65 -51h-39l-332 -770h-104l-72 530l-297 -530h-104l-9 770h-38q-47 0 -48 33z" />
<glyph unicode="x" d="M113 33q0 51 65 51h19l454 365l-266 321h-14q-47 0 -47 33q0 51 65 51h227q47 0 48 -33q0 -51 -66 -51h-94l217 -266l338 266h-98q-47 0 -48 33q0 51 66 51h225q47 0 47 -33q0 -51 -65 -51h-12l-406 -321l299 -365h20q47 0 48 -33q0 -23 -18.5 -37t-47.5 -14h-270 q-47 0 -47 33q0 51 65 51h131l-252 305l-385 -305h140q47 0 47 -33q0 -23 -18.5 -37t-47.5 -14h-272q-47 0 -47 33z" />
<glyph unicode="y" d="M45 -348q0 51 66 51h258l209 297l-220 770h-32q-49 0 -50 33q0 51 66 51h236q47 0 47 -33q0 -51 -66 -51h-106l192 -678l473 678h-110q-47 0 -47 35q0 49 65 49h225q47 0 47 -33q0 -51 -65 -51h-27l-751 -1067h131q49 0 49 -33q0 -23 -18.5 -37t-47.5 -14h-477 q-47 0 -47 33z" />
<glyph unicode="z" d="M236 0l16 74l766 696h-516l-25 -113q-12 -55 -53 -55q-12 0 -22.5 9.5t-10.5 21.5l2 24l43 197h717l-16 -74l-768 -696h567l25 115q12 55 55 55q14 0 23.5 -9t9.5 -22q0 -10 -2 -16l-3 -8l-43 -199h-765z" />
<glyph unicode="{" d="M508 481q0 51 55 54q55 4 99.5 40.5t56.5 92.5l76 354q18 90 89.5 152.5t157.5 62.5q39 0 39 -33q0 -45 -63 -51q-51 -6 -90 -42t-51 -89l-74 -354q-25 -115 -129 -176q61 -51 61 -115q0 -31 -8 -62l-74 -354q-6 -16 -6 -33q0 -39 25.5 -66.5t64.5 -31.5q27 -4 36 -10 t9 -25q0 -20 -17 -34.5t-42 -14.5q-70 0 -115 47t-45 119q0 25 6 49l78 354v10.5v12.5v10q0 43 -26.5 70.5t-71.5 30.5q-41 0 -41 32z" />
<glyph unicode="|" d="M526 -199l297 1381q12 55 54 55q14 0 23 -9t9 -22q0 -8 -4 -24l-293 -1381q-12 -55 -53 -55q-14 0 -23.5 9t-9.5 22v24z" />
<glyph unicode="}" d="M358 -221q0 45 64 51q51 6 90 42t51 89l74 354q25 115 129 177q-61 51 -61 114q0 31 8 62l78 354v33q0 41 -24 68.5t-62 29.5q-27 4 -37.5 10t-10.5 25q0 20 17.5 34.5t42.5 14.5q70 0 115 -46t45 -118q0 -27 -7 -51l-73 -354l-6 -31q0 -45 26.5 -71.5t73.5 -30.5 q41 0 41 -33q0 -49 -60 -53q-55 -4 -97 -40t-54 -94l-76 -354q-18 -90 -90 -152.5t-158 -62.5q-39 0 -39 33z" />
<glyph unicode="~" d="M297 502q0 25 78 100q123 111 213 111q61 0 127 -51l47 -46q8 -10 39 -38q63 -59 100 -60q70 0 172 111q43 47 70 47q14 0 24.5 -9.5t10.5 -21.5q0 -27 -70 -90q-127 -121 -221 -121q-47 0 -88 25.5t-119 107.5q-61 61 -111 62q-41 0 -74.5 -22.5t-119.5 -110.5 q-27 -25 -45 -25q-14 0 -23.5 9t-9.5 22z" />
<glyph unicode="&#xa0;" />
<glyph unicode="&#xa3;" d="M184 43q10 39 56 39q72 4 151.5 114.5t110.5 254.5q14 82 14 108h-172q-27 0 -39 10.5t-8 32.5q10 41 65 41h154q-14 129 -14 164q0 37 8 82q27 125 130 210t224 85q111 0 183 -80q43 -49 43 -84v-6q-2 -14 -18.5 -26.5t-31.5 -12.5q-18 0 -28 24q-66 98 -166 99 q-84 0 -159 -61.5t-93 -147.5q-8 -45 -8 -69.5t10 -147.5q0 -12 2 -29h242q49 0 49 -33q0 -2 -1 -6t-1 -6q-6 -39 -66 -39h-223q-4 -66 -14 -117q-46 -208 -193 -358h516q86 0 115 104q14 47 51 48q41 0 31 -46q-16 -78 -78.5 -134t-132.5 -56h-662q-29 0 -40 11.5t-7 31.5z " />
<glyph unicode="&#xad;" d="M268 561q0 51 66 51h823q47 0 47 -32q1 -52 -65 -52h-824q-47 0 -47 33z" />
<glyph unicode="&#x591;" d="M332 -455q14 68 65.5 118t116.5 65l23 108q4 16 19 28.5t32 12.5q18 0 28.5 -12t6.5 -29l-25 -108q51 -12 81 -51t30 -93q0 -10 -4 -39q-2 -16 -18.5 -28.5t-33 -12.5t-26 12.5t-4.5 28.5v23q0 35 -24 57.5t-58 22.5q-43 0 -80 -30t-45 -73q-4 -16 -19.5 -28.5t-32 -12.5 t-26.5 12.5t-6 28.5z" />
<glyph unicode="&#x592;" d="M680 1153v12q4 27 26.5 44.5t47.5 17.5q23 0 37 -13.5t14 -35.5q0 -2 -1 -6.5t-1 -6.5q-6 -25 -27.5 -42t-46.5 -17q-20 0 -34.5 14.5t-14.5 32.5zM852 1393v14q4 25 26.5 42t47.5 17q23 0 36 -12t13 -33q0 -10 -2 -14q-4 -25 -25.5 -42t-46.5 -17q-20 0 -34.5 13 t-14.5 32zM920 1153v12q6 27 28.5 44.5t46.5 17.5q20 0 34.5 -13.5t14.5 -33.5q0 -10 -2 -15q-4 -25 -25 -42t-46 -17q-23 0 -37 13.5t-14 33.5z" />
<glyph unicode="&#x593;" d="M671.5 1285q4.5 22 33.5 30l256 61l-230 60q-27 10 -22.5 30.5t34.5 30.5l273 64l-74 26q-27 10 -12 39q16 29 43 21l168 -62q25 -14 20.5 -31.5t-35.5 -25.5l-254 -62l230 -61q27 -8 21.5 -29.5t-36.5 -29.5l-253 -60l229 -61q27 -12 22 -32t-32 -28l-195 -59 q-12 -4 -22.5 2t-12.5 16q-4 31 29 39l86 29l-246 63q-25 8 -20.5 30z" />
<glyph unicode="&#x594;" d="M801 1153v12q4 27 26 44.5t47 17.5q49 0 50 -47q0 -8 -2 -15q-4 -25 -24.5 -42t-45.5 -17q-20 0 -35.5 14.5t-15.5 32.5zM852 1393v14q4 25 26.5 42t47.5 17q23 0 36 -12t13 -33q0 -10 -2 -14q-4 -25 -25.5 -42t-46.5 -17q-20 0 -34.5 13t-14.5 32z" />
<glyph unicode="&#x595;" d="M700 1147l58 278q4 16 19.5 28.5t31.5 12.5q18 0 27.5 -12t5.5 -29l-58 -278q-4 -16 -19 -28.5t-31.5 -12.5t-27 12.5t-6.5 28.5zM899 1153v12q4 27 26.5 44.5t47.5 17.5q49 0 49 -47q0 -8 -2 -15q-4 -25 -24.5 -42t-45.5 -17q-20 0 -35.5 14.5t-15.5 32.5zM950 1393v14 q4 25 26.5 42t47.5 17q23 0 36 -12t13 -33q0 -10 -2 -14q-4 -25 -25.5 -42t-46.5 -17q-20 0 -34.5 13t-14.5 32z" />
<glyph unicode="&#x596;" d="M453 -270q0 51 12 106q8 41 51 41q16 0 26.5 -12.5t6.5 -28.5q-10 -51 -10 -88q0 -119 79 -205q27 -31 -10 -59q-33 -33 -59 -4q-96 102 -96 250z" />
<glyph unicode="&#x597;" d="M735 1251l176 144l113 -144l-174 -145z" />
<glyph unicode="&#x598;" d="M598 1210v27q12 53 60.5 93t103.5 40q53 0 84 -37l123 -137q16 -18 40.5 -18t47 17t28.5 42v12q0 20 -14 34.5t-37 14.5q-14 0 -21 11.5t-5 25.5q8 35 43 35q47 0 76.5 -30.5t29.5 -77.5q0 -16 -2 -25q-12 -55 -59 -93t-103 -38q-49 0 -84 39l-125 137q-14 16 -38.5 16 t-46 -18t-27.5 -43q0 -2 -1 -6t-1 -6q0 -47 51 -47q14 0 22.5 -10.5t4.5 -24.5q-8 -37 -43 -37q-47 0 -77 29.5t-30 74.5z" />
<glyph unicode="&#x599;" d="M819 1440q-25 33 10 59q33 33 60 4q96 -102 96 -250q0 -51 -12 -106q-8 -41 -51 -41q-16 0 -26.5 12.5t-6.5 28.5q10 51 10 90q0 117 -80 203z" />
<glyph unicode="&#x59a;" d="M360 -313q0 29 35 45l320 145q16 8 32.5 2t20.5 -20q0 -2 1 -5.5t1 -5.5q0 -33 -33 -47l-237 -106l190 -107q14 -8 16.5 -24.5t-8.5 -32.5q-18 -23 -43 -23h-18l-258 150q-18 10 -19 29z" />
<glyph unicode="&#x59b;" d="M393 -182q4 25 26.5 42t47.5 17q20 0 34.5 -13.5t14.5 -31.5q0 -10 -2 -14q-4 -27 -25.5 -44.5t-46.5 -17.5q-49 0 -49 47v15zM467 -516q-23 29 16 59q156 117 193 293q4 16 19.5 28.5t31.5 12.5t26.5 -12t6.5 -29q-43 -215 -236 -356q-35 -29 -57 4z" />
<glyph unicode="&#x59c;" d="M743 1147q47 217 236 356q37 29 59 -4q18 -31 -16 -59q-158 -119 -195 -293q-8 -41 -51 -41q-16 0 -26.5 12t-6.5 29z" />
<glyph unicode="&#x59d;" d="M743 1147q47 217 236 356q37 29 59 -4q18 -31 -16 -59q-158 -119 -195 -293q-8 -41 -51 -41q-16 0 -26.5 12t-6.5 29z" />
<glyph unicode="&#x59e;" d="M606 1147q43 213 234 356q39 29 59 -4q23 -29 -16 -59q-156 -117 -193 -293q-4 -16 -19.5 -28.5t-31.5 -12.5q-18 0 -27.5 12t-5.5 29zM883 1147q43 213 233 356q39 29 60 -4q23 -29 -17 -59q-155 -117 -192 -293q-4 -16 -19.5 -28.5t-32.5 -12.5q-18 0 -27 12t-5 29z " />
<glyph unicode="&#x59f;" d="M455 1290v33q14 63 71.5 109.5t122.5 46.5q55 0 91 -35t36 -88q0 -12 -4 -33q-10 -49 -41 -86l57 -72q20 -23 -10 -49q-29 -27 -51 0l-57 74q-39 -25 -88 -25q-57 0 -92 36t-35 89zM528 1307q0 -29 19.5 -49.5t50.5 -20.5q35 0 65.5 25.5t38.5 60.5v16q0 29 -19 48.5 t-50 19.5q-33 0 -63.5 -24.5t-39.5 -59.5q0 -2 -1 -7t-1 -9zM926 1116q-20 23 10 49l88 72q-8 23 -8 55v15q-2 16 0 16q14 63 70.5 109.5t121.5 46.5q55 0 91 -35t36 -88q0 -12 -4 -33q-14 -66 -68.5 -112t-119.5 -46q-47 0 -78 25l-88 -74q-33 -27 -51 0zM1087 1307 q0 -29 19.5 -49.5t50.5 -20.5q35 0 65.5 25.5t39.5 60.5v16q0 29 -19.5 48.5t-48.5 19.5q-35 0 -65.5 -24.5t-38.5 -59.5q0 -2 -1.5 -7t-1.5 -9z" />
<glyph unicode="&#x5a0;" d="M676 1116q-18 25 10 49l88 72q-8 29 -8 51v35q14 63 70.5 109.5t121.5 46.5q55 0 91 -35t36 -88q0 -12 -4 -33q-14 -66 -68.5 -112t-119.5 -46q-47 0 -78 25l-88 -74q-33 -27 -51 0zM840 1305q0 -29 18.5 -48.5t48.5 -19.5q35 0 66 25.5t39 60.5v18q0 29 -18.5 47.5 t-49.5 18.5q-35 0 -65.5 -24.5t-36.5 -59.5q-2 -6 -2 -18z" />
<glyph unicode="&#x5a1;" d="M668 1147l61 291q2 16 18.5 28.5t33 12.5t26.5 -12.5t6 -28.5l-22 -105h10q139 0 235 125q10 14 28.5 19.5t31.5 -2.5q31 -20 6 -58q-59 -80 -144.5 -124t-175.5 -44h-8l-22 -102q-8 -41 -52 -41q-16 0 -26 12t-6 29z" />
<glyph unicode="&#x5a2;" d="M389 -164q2 16 19.5 28.5t35.5 12.5q16 0 26.5 -12t6.5 -29q-2 -8 -2 -22q0 -35 23.5 -58.5t58.5 -23.5q43 0 79 30.5t46 73.5q2 16 18.5 28.5t33 12.5t26.5 -12t6 -29q-14 -68 -65 -118t-117 -64l-25 -109q-8 -41 -49 -41q-18 0 -28.5 12.5t-6.5 28.5l25 109 q-51 12 -81 51t-30 92v39z" />
<glyph unicode="&#x5a3;" d="M334 -369q10 43 51 43h279l32 162q4 16 19.5 28.5t32.5 12.5q18 0 27 -12t5 -29l-37 -174q-6 -29 -31.5 -50.5t-54.5 -21.5h-290q-16 0 -26.5 12.5t-6.5 28.5z" />
<glyph unicode="&#x5a4;" d="M360 -313q0 29 35 45l320 145q16 8 32.5 2t20.5 -20q0 -2 1 -5.5t1 -5.5q0 -33 -33 -47l-237 -106l190 -107q14 -8 16.5 -24.5t-8.5 -32.5q-18 -23 -43 -23h-18l-258 150q-18 10 -19 29z" />
<glyph unicode="&#x5a5;" d="M399 -516q-18 31 17 59q157 119 194 293q8 41 52 41q16 0 26 -12t6 -29q-43 -215 -235 -356q-37 -29 -60 4z" />
<glyph unicode="&#x5a6;" d="M262 -516q-23 29 17 59q155 117 192 293q4 16 19.5 28.5t31.5 12.5q18 0 27.5 -12t5.5 -29q-43 -213 -233 -356q-39 -29 -60 4zM539 -516q-23 29 16 59q156 117 193 293q4 16 19 28.5t32 12.5q18 0 27.5 -12t4.5 -29q-43 -213 -233 -356q-37 -29 -59 4z" />
<glyph unicode="&#x5a7;" d="M283 -455q10 43 51 43h211l-103 224q-4 25 -4 30q0 16 10.5 22.5t43.5 12.5h288q18 0 28.5 -12t6.5 -29q-10 -43 -51 -43h-211l100 -223q4 -29 4 -33q0 -14 -10 -20.5t-41 -12.5h-291q-16 0 -26 12.5t-6 28.5z" />
<glyph unicode="&#x5a8;" d="M819 1440q-25 33 10 59q33 33 60 4q96 -102 96 -250q0 -51 -12 -106q-8 -41 -51 -41q-16 0 -26.5 12.5t-6.5 28.5q10 51 10 90q0 117 -80 203z" />
<glyph unicode="&#x5a9;" d="M705 1290v33q14 63 71.5 109.5t122.5 46.5q55 0 91 -35t36 -88q0 -12 -4 -33q-10 -49 -41 -86l57 -72q18 -25 -10 -49q-33 -27 -51 0l-57 74q-39 -25 -89 -25q-57 0 -91.5 36t-34.5 89zM778 1305q0 -29 19.5 -48.5t50.5 -19.5q35 0 64.5 25.5t37.5 60.5q4 12 2 16 q-10 39 -24 53.5t-45 14.5q-33 0 -64 -24.5t-39 -59.5q-2 -6 -2 -18z" />
<glyph unicode="&#x5aa;" d="M389 -164q2 16 19.5 28.5t35.5 12.5q16 0 26.5 -12t6.5 -29q-2 -8 -2 -22q0 -35 23.5 -58.5t58.5 -23.5q43 0 79 30.5t46 73.5q2 16 18.5 28.5t33 12.5t26.5 -12t6 -29q-14 -68 -65 -118t-117 -64l-25 -109q-8 -41 -49 -41q-18 0 -28.5 12.5t-6.5 28.5l25 109 q-51 12 -81 51t-30 92v39z" />
<glyph unicode="&#x5ab;" d="M700 1280q0 29 33 45l320 145q43 18 53 -18q0 -2 1 -5t1 -5q0 -33 -33 -47l-237 -107l192 -106q33 -18 6 -58q-27 -37 -59 -18l-260 145q-16 8 -17 29z" />
<glyph unicode="&#x5ac;" d="M657 1147q2 18 17.5 30.5t32.5 12.5h278l35 162q8 41 51 41q16 0 26.5 -12.5t6.5 -28.5l-37 -174q-6 -29 -31.5 -50.5t-56.5 -21.5h-289q-18 0 -27.5 12t-5.5 29z" />
<glyph unicode="&#x5ad;" d="M453 -270q0 51 12 106q8 41 51 41q16 0 26.5 -12.5t6.5 -28.5q-10 -51 -10 -88q0 -119 79 -205q27 -31 -10 -59q-33 -33 -59 -4q-96 102 -96 250z" />
<glyph unicode="&#x5ae;" d="M598 1210v27q12 53 60.5 93t103.5 40q53 0 84 -37l123 -137q16 -18 40.5 -18t47 17t28.5 42v12q0 20 -14 34.5t-37 14.5q-14 0 -21 11.5t-5 25.5q8 35 43 35q47 0 76.5 -30.5t29.5 -77.5q0 -16 -2 -25q-12 -55 -59 -93t-103 -38q-49 0 -84 39l-125 137q-14 16 -38.5 16 t-46 -18t-27.5 -43q0 -2 -1 -6t-1 -6q0 -47 51 -47q14 0 22.5 -10.5t4.5 -24.5q-8 -37 -43 -37q-47 0 -77 29.5t-30 74.5z" />
<glyph unicode="&#x5af;" d="M702 1249v37q16 74 83 127t141 53q66 0 106.5 -41t40.5 -102q0 -12 -4 -37q-16 -76 -80.5 -128t-138.5 -52q-66 0 -107 41t-41 102zM776 1264q0 -37 24.5 -61.5t63.5 -24.5q45 0 85 31.5t50 76.5v23q0 37 -24.5 61.5t-63.5 24.5q-45 0 -84 -32t-49 -77q-2 -8 -2 -22z" />
<glyph unicode="&#x5b0;" horiz-adv-x="0" d="M-152 -424q4 25 26.5 42t47.5 17q20 0 34.5 -13t14.5 -34q0 -2 -1 -6t-1 -6q-6 -27 -25.5 -44t-43.5 -17q-23 0 -37.5 13t-14.5 34v14zM-100 -182q4 25 26 42t47 17q20 0 35 -13.5t15 -33.5q0 -2 -1.5 -6t-1.5 -6q-6 -27 -26.5 -44.5t-44.5 -17.5q-20 0 -34.5 13.5 t-14.5 33.5v15z" />
<glyph unicode="&#x5b1;" horiz-adv-x="0" d="M-342 -182q4 25 26.5 42t47.5 17q23 0 37 -13.5t14 -33.5q0 -2 -1 -6t-1 -6q-6 -27 -26.5 -44.5t-47.5 -17.5q-20 0 -34.5 13.5t-14.5 33.5v15zM-272 -436q0 2 1 6t1 6q4 25 25 42t46 17q23 0 36 -14t13 -35v-10q-4 -25 -26.5 -42t-46.5 -17q-20 0 -34.5 13t-14.5 34z M-100 -182q4 25 26 42t47 17q20 0 35 -13.5t15 -33.5q0 -2 -1.5 -6t-1.5 -6q-6 -27 -26.5 -44.5t-44.5 -17.5q-20 0 -34.5 13.5t-14.5 33.5v15zM88 -436q0 2 1 6t1 6q4 25 25.5 42t48.5 17q20 0 34.5 -13t14.5 -34q0 -2 -1 -6t-1 -6q-4 -25 -25.5 -42t-46.5 -17 q-23 0 -37 13t-14 34zM139 -182q4 25 26.5 42t49.5 17q20 0 34.5 -13.5t14.5 -33.5q0 -2 -1 -6t-1 -6q-6 -27 -26.5 -44.5t-45.5 -17.5q-23 0 -37 13.5t-14 33.5v15z" />
<glyph unicode="&#x5b2;" horiz-adv-x="0" d="M-336 -164q8 41 51 41h275q18 0 28.5 -12t6.5 -29q-10 -43 -52 -43h-274q-18 0 -28.5 12.5t-6.5 30.5zM88 -436q0 2 1 6t1 6q4 25 25.5 42t48.5 17q20 0 34.5 -13t14.5 -34q0 -2 -1 -6t-1 -6q-4 -25 -25.5 -42t-46.5 -17q-23 0 -37 13t-14 34zM139 -182q4 25 26.5 42 t49.5 17q20 0 34.5 -13.5t14.5 -33.5q0 -2 -1 -6t-1 -6q-6 -27 -26.5 -44.5t-45.5 -17.5q-23 0 -37 13.5t-14 33.5v15z" />
<glyph unicode="&#x5b3;" horiz-adv-x="0" d="M-338 -164q2 16 18.5 28.5t34.5 12.5h275q18 0 29.5 -12t7.5 -29q-10 -43 -54 -43h-98l-45 -203q-8 -41 -49 -41q-18 0 -27.5 12.5t-5.5 28.5l45 203h-94q-18 0 -29.5 12.5t-7.5 30.5zM90 -424q4 25 26.5 42t47.5 17q20 0 34.5 -14t14.5 -35v-10q-4 -25 -26.5 -42 t-47.5 -17q-20 0 -34.5 14t-14.5 35v10zM139 -182q4 25 27.5 42t48.5 17q23 0 36 -14.5t13 -34.5v-10q-6 -27 -27.5 -44.5t-46.5 -17.5q-23 0 -37 14.5t-14 34.5v13z" />
<glyph unicode="&#x5b4;" horiz-adv-x="0" d="M-100 -182q4 25 26 42t47 17q20 0 35 -13.5t15 -33.5q0 -2 -1.5 -6t-1.5 -6q-6 -27 -26.5 -44.5t-44.5 -17.5q-20 0 -34.5 13.5t-14.5 33.5v15z" />
<glyph unicode="&#x5b5;" horiz-adv-x="0" d="M-221 -182q4 25 26.5 42t47.5 17q20 0 34.5 -14.5t14.5 -34.5v-10q-6 -27 -27.5 -44.5t-46.5 -17.5q-20 0 -34.5 13.5t-14.5 33.5v15zM18 -182q4 25 27.5 42t48.5 17q20 0 34.5 -13.5t14.5 -33.5q0 -2 -1 -6t-1 -6q-6 -27 -26.5 -44.5t-44.5 -17.5q-23 0 -37.5 14.5 t-14.5 34.5v13z" />
<glyph unicode="&#x5b6;" horiz-adv-x="0" d="M-221 -182q4 25 26.5 42t47.5 17q20 0 34.5 -14.5t14.5 -34.5v-10q-6 -27 -27.5 -44.5t-46.5 -17.5q-20 0 -34.5 13.5t-14.5 33.5v15zM-152 -436q0 2 1 6t1 6q4 25 25.5 42t46.5 17q20 0 34.5 -13t14.5 -34q0 -2 -1 -6t-1 -6q-4 -25 -25.5 -42t-45.5 -17q-20 0 -35 13 t-15 34zM18 -182q4 25 27.5 42t48.5 17q20 0 34.5 -13.5t14.5 -33.5q0 -2 -1 -6t-1 -6q-6 -27 -26.5 -44.5t-44.5 -17.5q-23 0 -37.5 14.5t-14.5 34.5v13z" />
<glyph unicode="&#x5b7;" horiz-adv-x="0" d="M-215 -164q2 16 18.5 28.5t32.5 12.5h277q16 0 26.5 -12t5.5 -29q-10 -43 -49 -43h-276q-18 0 -28.5 12.5t-6.5 30.5z" />
<glyph unicode="&#x5b8;" horiz-adv-x="0" d="M-215 -164q2 16 17.5 28.5t31.5 12.5h279q18 0 27.5 -12t4.5 -29q-10 -43 -49 -43h-96l-47 -203q-2 -16 -17.5 -28.5t-31.5 -12.5q-18 0 -29.5 12.5t-7.5 28.5l45 203h-94q-16 0 -26.5 12.5t-6.5 30.5z" />
<glyph unicode="&#x5b9;" horiz-adv-x="0" d="M186 1153v14q6 25 28 42.5t46 17.5q20 0 34.5 -13.5t14.5 -31.5q0 -10 -2 -15q-4 -27 -25.5 -44t-45.5 -17q-49 0 -50 47z" />
<glyph unicode="&#x5ba;" horiz-adv-x="0" d="M186 1153v14q6 25 28 42.5t46 17.5q20 0 34.5 -13.5t14.5 -31.5q0 -10 -2 -15q-4 -27 -25.5 -44t-45.5 -17q-49 0 -50 47z" />
<glyph unicode="&#x5bb;" horiz-adv-x="0" d="M-342 -182q4 25 26.5 42t47.5 17q23 0 37 -13.5t14 -33.5q0 -2 -1 -6t-1 -6q-6 -27 -26.5 -44.5t-47.5 -17.5q-20 0 -34.5 13.5t-14.5 33.5v15zM-125 -303q4 25 26.5 42t47.5 17q23 0 37 -14t14 -35v-10q-6 -25 -29.5 -43.5t-48.5 -18.5q-20 0 -33.5 13.5t-13.5 34.5v14z M88 -436q0 2 1 6t1 6q4 25 25.5 42t48.5 17q20 0 34.5 -13t14.5 -34q0 -2 -1 -6t-1 -6q-4 -25 -25.5 -42t-46.5 -17q-23 0 -37 13t-14 34z" />
<glyph unicode="&#x5bc;" horiz-adv-x="0" d="M43 481v13q6 25 27.5 42t46.5 17q20 0 34.5 -13.5t14.5 -31.5q0 -10 -2 -14q-4 -27 -25.5 -44.5t-46.5 -17.5q-23 0 -36 13.5t-13 35.5z" />
<glyph unicode="&#x5bd;" horiz-adv-x="0" d="M-135 -442l59 278q8 41 49 41q16 0 26.5 -12t6.5 -29l-59 -278q-8 -41 -49 -41q-16 0 -26.5 12.5t-6.5 28.5z" />
<glyph unicode="&#x5be;" d="M406 942q8 41 49 41h737q16 0 26.5 -12.5t6.5 -28.5q-10 -43 -51 -43h-738q-16 0 -25.5 12.5t-4.5 30.5z" />
<glyph unicode="&#x5bf;" horiz-adv-x="0" d="M63 1147q11 43 52 43h276q16 0 26.5 -12.5t6.5 -30.5q-8 -41 -49 -41h-277q-16 0 -26.5 12t-8.5 29z" />
<glyph unicode="&#x5c0;" d="M530 -205l295 1393q4 16 19.5 28.5t32 12.5t25.5 -12.5t5 -28.5l-295 -1393q-4 -16 -19 -28.5t-31.5 -12.5t-26 12.5t-5.5 28.5z" />
<glyph unicode="&#x5c1;" horiz-adv-x="0" d="M172 1090v14q4 25 27.5 43t48.5 18q23 0 36 -13t13 -36v-12q-6 -25 -28.5 -42.5t-47.5 -17.5q-20 0 -34.5 13.5t-14.5 32.5z" />
<glyph unicode="&#x5c2;" horiz-adv-x="0" d="M172 1090v14q4 25 27.5 43t48.5 18q23 0 36 -13t13 -36v-12q-6 -25 -28.5 -42.5t-47.5 -17.5q-20 0 -34.5 13.5t-14.5 32.5z" />
<glyph unicode="&#x5c3;" d="M481 76v28q12 57 63.5 95.5t110.5 38.5h21q51 0 84 -29t33 -76q0 -8 -5 -29q-12 -57 -61 -96t-109 -39h-20q-51 0 -84 30t-33 77zM610 705q0 14 2 14q10 55 61.5 95t112.5 40h21q51 0 83 -30.5t32 -78.5q0 -18 -2 -26q-12 -57 -61.5 -96t-108.5 -39h-21q-51 0 -84 29.5 t-33 76.5z" />
<glyph unicode="&#x5c4;" horiz-adv-x="0" d="M244 1427v15q4 27 26 44t49 17q23 0 37.5 -13t14.5 -36q0 -2 -1 -6t-1 -6q-6 -27 -28 -44.5t-48 -17.5q-49 0 -49 47z" />
<glyph unicode="&#x5c5;" horiz-adv-x="0" d="M-135 -336q6 27 28.5 44.5t49.5 17.5q49 0 49 -48q0 -8 -2 -14q-4 -27 -25.5 -44t-48.5 -17q-23 0 -37 13t-14 36v12z" />
<glyph unicode="&#x5c6;" d="M442 57v15l121 583q20 90 105.5 209t154.5 119h103q18 0 27.5 -12.5t4.5 -28.5q-10 -43 -51 -43h-102q-39 0 -92.5 -94t-65.5 -150l-117 -571h246q41 0 31 -43q-8 -41 -49 -41h-258q-25 0 -41.5 16.5t-16.5 40.5z" />
<glyph unicode="&#x5c7;" horiz-adv-x="0" d="M-215 -164q2 16 17.5 28.5t31.5 12.5h279q18 0 27.5 -12t4.5 -29q-10 -43 -49 -43h-96l-47 -203q-2 -16 -17.5 -28.5t-31.5 -12.5q-18 0 -29.5 12.5t-7.5 28.5l45 203h-94q-16 0 -26.5 12.5t-6.5 30.5z" />
<glyph unicode="&#x5d0;" d="M176 57q0 2 1 7.5t1 7.5l55 256q25 113 104 211t187 149l-155 223q-20 35 14 60q37 31 59 -2l424 -609q98 39 166 120t88 175l51 244h-206q-16 0 -25.5 12.5t-5.5 30.5q8 41 49 41h219q27 0 43.5 -16.5t16.5 -40.5q0 -2 -1 -7.5t-1 -7.5l-56 -256q-23 -113 -102.5 -210 t-188.5 -150l156 -223q23 -33 -14 -60q-37 -31 -60 2l-424 609q-96 -39 -164.5 -120t-89.5 -175l-51 -244h207q16 0 25.5 -12.5t5.5 -30.5q-8 -41 -49 -41h-219q-27 0 -43.5 16.5t-16.5 40.5z" />
<glyph unicode="&#x5d1;" d="M172 41q10 43 51 43h604l121 571q6 29 6 52q0 84 -55 138t-143 54h-361q-16 0 -25.5 12.5t-4.5 30.5q8 41 49 41h360q117 0 191.5 -73.5t74.5 -186.5q0 -23 -8 -68l-121 -571h131q16 0 25.5 -12.5t5.5 -30.5q-8 -41 -49 -41h-819q-16 0 -26.5 12.5t-6.5 28.5z" />
<glyph unicode="&#x5d2;" d="M311 31q0 43 37 51q180 43 326.5 194.5t185.5 337.5l60 285h-207q-16 0 -26.5 12.5t-6.5 30.5q2 16 18.5 28.5t32.5 12.5h219q27 0 43.5 -16.5t16.5 -40.5q0 -2 -1 -7.5t-1 -7.5l-187 -870q-8 -41 -51 -41q-16 0 -26.5 12.5t-6.5 28.5l64 301q-68 -131 -190 -220 t-255 -122q-16 -4 -29.5 5t-15.5 26z" />
<glyph unicode="&#x5d3;" d="M365 942q8 41 49 41h819q16 0 26.5 -12.5t6.5 -28.5q-10 -43 -52 -43h-143l-182 -858q-8 -41 -49 -41q-18 0 -28.5 12.5t-6.5 28.5l182 858h-592q-16 0 -25.5 12.5t-4.5 30.5z" />
<glyph unicode="&#x5d4;" d="M215 43l113 524q8 41 51 41q16 0 26.5 -12t6.5 -29l-113 -524q-4 -16 -18.5 -29.5t-30.5 -13.5q-18 0 -28.5 13.5t-6.5 29.5zM365 942q8 41 49 41h592q66 0 107.5 -41t41.5 -104q0 -10 -4 -39l-162 -758q-8 -41 -51 -41q-16 0 -26.5 12.5t-6.5 28.5l164 758v20 q0 35 -23.5 57.5t-58.5 22.5h-592q-16 0 -25.5 12.5t-4.5 30.5z" />
<glyph unicode="&#x5d5;" d="M565 942q2 16 18.5 28.5t32.5 12.5h220q27 0 43 -16.5t16 -40.5q0 -2 -1 -7.5t-1 -7.5l-186 -870q-8 -41 -52 -41q-16 0 -26.5 12.5t-5.5 28.5l182 858h-207q-16 0 -26.5 12.5t-6.5 30.5z" />
<glyph unicode="&#x5d6;" d="M545 942q8 41 49 41h442q16 0 26.5 -12.5t6.5 -28.5q-10 -43 -51 -43h-172l-182 -858q-8 -41 -50 -41q-16 0 -26 12.5t-8 28.5l182 858h-187q-16 0 -25 12.5t-5 30.5z" />
<glyph unicode="&#x5d7;" d="M295 41l182 858h-82q-16 0 -25.5 12.5t-4.5 30.5q8 41 49 41h819q16 0 26.5 -12.5t6.5 -28.5q-10 -43 -52 -43h-81l-183 -858q-8 -41 -49 -41q-18 0 -28.5 12.5t-6.5 28.5l183 858h-488l-182 -858q-8 -41 -51 -41q-16 0 -26.5 12.5t-6.5 28.5z" />
<glyph unicode="&#x5d8;" d="M324 313q0 45 8 84l106 502h-84q-16 0 -25.5 12.5t-4.5 30.5q8 41 49 41h96q27 0 43 -16.5t16 -40.5q0 -2 -1 -7.5t-1 -7.5l-110 -514q-6 -33 -6 -65q0 -111 73.5 -184.5t188.5 -73.5q135 0 249.5 95t143.5 228l74 330v39q0 61 -42 102t-106 41q-76 0 -140.5 -53 t-80.5 -129l-33 -162q-10 -41 -53 -41q-16 0 -25.5 12.5t-5.5 28.5l33 162q25 111 119 188.5t205 77.5q94 0 154.5 -59.5t60.5 -149.5q0 -27 -6 -57l-70 -330q-35 -170 -180.5 -288.5t-315.5 -118.5q-145 0 -237 92t-92 231z" />
<glyph unicode="&#x5d9;" d="M565 942q2 16 18.5 28.5t32.5 12.5h220q27 0 43 -16.5t16 -40.5q0 -2 -1 -7.5t-1 -7.5l-72 -338q-10 -41 -53 -41q-16 0 -25.5 12.5t-5.5 28.5l68 326h-207q-16 0 -26.5 12.5t-6.5 30.5z" />
<glyph unicode="&#x5da;" d="M303 942q8 41 49 41h819q16 0 26.5 -12.5t6.5 -28.5q-10 -43 -51 -43h-162l-260 -1225h162q16 0 25.5 -12t7.5 -31q-4 -16 -19.5 -28.5t-32.5 -12.5h-174q-27 0 -42 16.5t-15 41.5q0 10 2 14l262 1237h-573q-16 0 -25.5 12.5t-5.5 30.5z" />
<glyph unicode="&#x5db;" d="M172 41q10 43 51 43h367q135 0 250.5 95t144.5 231l35 163q6 33 6 66q0 113 -73.5 186.5t-190.5 73.5h-367q-16 0 -25.5 12.5t-4.5 30.5q8 41 49 41h366q145 0 238.5 -93t93.5 -233q0 -45 -8 -84l-35 -163q-37 -170 -183.5 -290t-314.5 -120h-366q-16 0 -26.5 12.5 t-6.5 28.5z" />
<glyph unicode="&#x5dc;" d="M369 956q0 10 2 15l53 254q4 16 19.5 28.5t29.5 12.5q18 0 29.5 -12.5t7.5 -28.5l-51 -242h745q25 0 41.5 -16.5t16.5 -38.5q0 -4 -1 -8.5t-1 -6.5l-35 -163q-20 -88 -88 -144l-508 -422q-39 -28 -45 -57q-6 -43 32 -43h115q18 0 27.5 -12.5t5.5 -30.5q-8 -41 -51 -41 h-172q-27 0 -43.5 16.5t-16.5 40.5q0 2 1 7.5t1 7.5l6 28q18 88 89 144l509 420q41 35 54 84l30 151h-745q-27 0 -42 16.5t-15 40.5z" />
<glyph unicode="&#x5dd;" d="M303 57q0 10 2 15l176 827h-86q-16 0 -25.5 12.5t-4.5 30.5q8 41 49 41h676q66 0 107.5 -41t41.5 -104q0 -10 -4 -39l-156 -727q-6 -29 -31.5 -50.5t-54.5 -21.5h-633q-27 0 -42 16.5t-15 40.5zM391 84h608l154 715v20q0 35 -23.5 57.5t-58.5 22.5h-508z" />
<glyph unicode="&#x5de;" d="M256 43l182 856h-84q-16 0 -25.5 12.5t-4.5 30.5q8 41 49 41h96q27 0 43 -16.5t16 -40.5q0 -2 -1 -7.5t-1 -7.5l-16 -77q156 160 356 159q147 0 239.5 -91t92.5 -230q0 -45 -8 -84l-111 -516q-6 -29 -31.5 -50.5t-54.5 -21.5h-413q-18 0 -28.5 12.5t-6.5 28.5 q10 43 53 43h401l107 502q6 33 6 65q0 113 -73.5 185.5t-190.5 72.5q-133 0 -249 -95t-142 -228l-117 -543q-8 -43 -49 -43t-35 43z" />
<glyph unicode="&#x5df;" d="M727 -338l262 1237h-104q-16 0 -26.5 12.5t-6.5 30.5q2 16 18.5 28.5t32.5 12.5h117q27 0 43 -16.5t16 -40.5q0 -2 -1 -7.5t-1 -7.5l-264 -1237h105q16 0 25 -12t7 -31q-4 -16 -19.5 -28.5t-31.5 -12.5h-117q-25 0 -40 16.5t-15 41.5v14z" />
<glyph unicode="&#x5e0;" d="M459 41q10 43 51 43h246l153 715v20q0 35 -23.5 57.5t-58.5 22.5h-104q-16 0 -25.5 12.5t-5.5 30.5q8 41 49 41h105q66 0 107.5 -41t41.5 -104q0 -10 -4 -39l-155 -727q-6 -29 -32 -50.5t-54 -21.5h-258q-16 0 -26.5 12.5t-6.5 28.5z" />
<glyph unicode="&#x5e1;" d="M324 313q0 45 8 84l106 502h-84q-16 0 -25.5 12.5t-4.5 30.5q8 41 49 41h717q66 0 107.5 -41t41.5 -104q0 -10 -4 -39l-82 -402q-35 -168 -182.5 -287.5t-317.5 -119.5q-145 0 -237 92t-92 231zM410 332q0 -111 73.5 -184.5t188.5 -73.5q135 0 249.5 95t143.5 228l88 402 v20q0 35 -23.5 57.5t-58.5 22.5h-549l-106 -502q-6 -33 -6 -65z" />
<glyph unicode="&#x5e2;" d="M172 41q10 43 51 43h107l172 815h-107q-16 0 -25.5 12.5t-4.5 30.5q8 41 49 41h118q27 0 42.5 -16.5t15.5 -40.5q0 -10 -2 -15l-176 -827h221q129 0 225 93t127 233l102 489h-104q-16 0 -26.5 12.5t-6.5 30.5q2 16 18.5 28.5t32.5 12.5h117q27 0 43.5 -16.5t16.5 -40.5 q0 -2 -1 -7.5t-1 -7.5l-107 -501q-37 -174 -163 -292t-292 -118h-409q-16 0 -26.5 12.5t-6.5 28.5z" />
<glyph unicode="&#x5e3;" d="M377 586v39l65 286q6 29 32 50.5t54 21.5h478q66 0 107.5 -41t41.5 -104q0 -10 -4 -39l-240 -1125h105q16 0 25.5 -12t7.5 -31q-4 -16 -19.5 -28.5t-32.5 -12.5h-116q-27 0 -42.5 15.5t-15.5 40.5q0 10 2 16l244 1137v20q0 35 -23.5 57.5t-58.5 22.5h-465l-57 -274 q-2 -8 -2 -23q0 -35 22.5 -56.5t57.5 -21.5h121q16 0 26 -12t6 -29q-8 -43 -49 -43h-121q-66 0 -107.5 41t-41.5 105z" />
<glyph unicode="&#x5e4;" d="M256 41q10 43 53 43h506q41 0 76 29.5t45 70.5l133 615v20q0 35 -23.5 57.5t-58.5 22.5h-465l-57 -274q-2 -8 -2 -23q0 -35 22.5 -56.5t57.5 -21.5h100q16 0 26.5 -12t6.5 -29q-8 -43 -49 -43h-101q-66 0 -107.5 41t-41.5 105v39l65 286q6 29 32 50.5t54 21.5h478 q66 0 107.5 -41t41.5 -104q0 -10 -4 -39l-131 -615q-14 -76 -80 -130t-143 -54h-506q-18 0 -28.5 12.5t-6.5 28.5z" />
<glyph unicode="&#x5e5;" d="M279 -352q0 10 2 14l262 1237h-148q-16 0 -25.5 12.5t-4.5 30.5q8 41 49 41h159q27 0 42.5 -16.5t15.5 -40.5q0 -10 -2 -15l-107 -499h180q129 0 225.5 93t127.5 232l32 162h-145q-16 0 -26.5 12.5t-6.5 30.5q2 16 18.5 28.5t33.5 12.5h157q27 0 43.5 -16.5t16.5 -40.5 q0 -2 -1 -7.5t-1 -7.5l-37 -174q-37 -174 -163 -291.5t-292 -117.5h-178l-139 -654h104q16 0 25.5 -12t7.5 -31q-4 -16 -19.5 -28.5t-31.5 -12.5h-117q-27 0 -42 16.5t-15 41.5z" />
<glyph unicode="&#x5e6;" d="M172 41q10 43 53 43h690l23 90v47q0 90 -66 139l-270 222q-82 70 -82 182q0 20 8 65l15 70h-148q-16 0 -25.5 12.5t-4.5 30.5q8 41 49 41h159q27 0 42.5 -16.5t15.5 -40.5q0 -10 -2 -15q-20 -80 -21 -129q0 -90 66 -139l84 -68q123 8 212 99.5t117 224.5h-149 q-39 0 -29 43q2 16 18.5 28.5t33.5 12.5h157q27 0 43.5 -16.5t16.5 -40.5q0 -2 -1 -7.5t-1 -7.5l-5 -12q-29 -139 -118.5 -245.5t-212.5 -145.5l104 -86q82 -70 82 -182q0 -20 -8 -66l-23 -102q-6 -29 -31.5 -50.5t-54.5 -21.5h-702q-18 0 -28.5 12.5t-6.5 28.5z" />
<glyph unicode="&#x5e7;" d="M170 -369l217 1028q10 41 53 41q16 0 25.5 -12t5.5 -29l-217 -1028q-4 -16 -19.5 -28.5t-31.5 -12.5q-18 0 -27.5 12.5t-5.5 28.5zM362 942q9 41 52 41h704q27 0 43.5 -16.5t16.5 -40.5q0 -2 -1 -7.5t-1 -7.5l-58 -264q-18 -88 -88 -143l-385 -320q-39 -31 -45 -57 q-2 -18 8 -30.5t27 -12.5h117q16 0 25 -12.5t5 -30.5q-8 -41 -49 -41h-174q-27 0 -43 16.5t-16 40.5q0 2 1 7.5t1 7.5l6 28q18 88 88 144l385 317q43 35 53 84l53 254h-694q-16 0 -25.5 12.5t-5.5 30.5z" />
<glyph unicode="&#x5e8;" d="M365 942q8 41 49 41h592q66 0 107.5 -41t41.5 -104q0 -10 -4 -39l-162 -758q-8 -41 -51 -41q-16 0 -26.5 12.5t-6.5 28.5l164 758v20q0 35 -23.5 57.5t-58.5 22.5h-592q-16 0 -25.5 12.5t-4.5 30.5z" />
<glyph unicode="&#x5e9;" d="M225 260q0 23 8 68l125 583q6 29 32 50.5t54 21.5h117q16 0 26.5 -12.5t6.5 -28.5q-10 -43 -51 -43h-105l-121 -571q-6 -29 -6 -52q0 -84 55.5 -138t143.5 -54h82l182 858q8 41 49 41q16 0 26.5 -12.5t6.5 -28.5l-182 -858h82q100 0 186 70.5t109 173.5l120 571h-104 q-16 0 -25.5 12.5t-5.5 30.5q8 41 49 41h117q27 0 43.5 -16.5t16.5 -40.5q0 -2 -1 -7.5t-1 -7.5l-125 -583q-29 -135 -146 -231.5t-252 -96.5h-245q-117 0 -192 73.5t-75 186.5z" />
<glyph unicode="&#x5ea;" d="M127 41q4 18 20.5 30.5t32.5 12.5h121l172 815h-121q-16 0 -26.5 12.5t-6.5 30.5q2 16 18.5 28.5t33.5 12.5h635q66 0 107.5 -41t41.5 -104q0 -10 -4 -39l-162 -758q-8 -41 -51 -41q-16 0 -26.5 12.5t-6.5 28.5l164 758v20q0 35 -23.5 57.5t-58.5 22.5h-432l-176 -827 q-6 -29 -30.5 -50.5t-53.5 -21.5h-133q-16 0 -26.5 12.5t-8.5 28.5z" />
<glyph unicode="&#x5f0;" d="M407 942q2 16 18.5 28.5t32.5 12.5h220q27 0 43 -16.5t16 -40.5q0 -2 -1 -7.5t-1 -7.5l-186 -870q-8 -41 -52 -41q-16 0 -26.5 12.5t-5.5 28.5l182 858h-207q-16 0 -26.5 12.5t-6.5 30.5zM889 942q2 16 18.5 28.5t32.5 12.5h220q27 0 43 -16.5t16 -40.5q0 -2 -1 -7.5 t-1 -7.5l-186 -870q-8 -41 -52 -41q-16 0 -26.5 12.5t-5.5 28.5l182 858h-207q-16 0 -26.5 12.5t-6.5 30.5z" />
<glyph unicode="&#x5f1;" d="M407 942q2 16 18.5 28.5t32.5 12.5h220q27 0 43 -16.5t16 -40.5q0 -2 -1 -7.5t-1 -7.5l-72 -338q-10 -41 -53 -41q-16 0 -25.5 12.5t-5.5 28.5l68 326h-207q-16 0 -26.5 12.5t-6.5 30.5zM889 942q2 16 18.5 28.5t32.5 12.5h220q27 0 43 -16.5t16 -40.5q0 -2 -1 -7.5 t-1 -7.5l-186 -870q-8 -41 -52 -41q-16 0 -26.5 12.5t-5.5 28.5l182 858h-207q-16 0 -26.5 12.5t-6.5 30.5z" />
<glyph unicode="&#x5f2;" d="M405 942q2 16 18.5 28.5t32.5 12.5h220q27 0 43 -16.5t16 -40.5q0 -2 -1 -7.5t-1 -7.5l-72 -338q-10 -41 -53 -41q-16 0 -25.5 12.5t-5.5 28.5l68 326h-207q-16 0 -26.5 12.5t-6.5 30.5zM889 942q2 16 18.5 28.5t32.5 12.5h220q27 0 43 -16.5t16 -40.5q0 -2 -1 -7.5 t-1 -7.5l-72 -338q-10 -41 -53 -41q-16 0 -25.5 12.5t-5.5 28.5l68 326h-207q-16 0 -26.5 12.5t-6.5 30.5z" />
<glyph unicode="&#x5f3;" d="M512 719l53 518h193l-123 -518q-8 -74 -61.5 -74t-61.5 74z" />
<glyph unicode="&#x5f4;" d="M324 719l53 518h192l-123 -518q-8 -74 -61 -74t-61 74zM692 719l53 518h193l-123 -518q-8 -74 -61.5 -74t-61.5 74z" />
<glyph unicode="&#x2000;" horiz-adv-x="824" />
<glyph unicode="&#x2001;" horiz-adv-x="1648" />
<glyph unicode="&#x2002;" horiz-adv-x="824" />
<glyph unicode="&#x2003;" horiz-adv-x="1648" />
<glyph unicode="&#x2004;" horiz-adv-x="549" />
<glyph unicode="&#x2005;" horiz-adv-x="412" />
<glyph unicode="&#x2006;" horiz-adv-x="274" />
<glyph unicode="&#x2007;" horiz-adv-x="274" />
<glyph unicode="&#x2008;" horiz-adv-x="206" />
<glyph unicode="&#x2009;" horiz-adv-x="329" />
<glyph unicode="&#x200a;" horiz-adv-x="91" />
<glyph unicode="&#x2010;" d="M268 561q0 51 66 51h823q47 0 47 -32q1 -52 -65 -52h-824q-47 0 -47 33z" />
<glyph unicode="&#x2011;" d="M268 561q0 51 66 51h823q47 0 47 -32q1 -52 -65 -52h-824q-47 0 -47 33z" />
<glyph unicode="&#x2012;" d="M268 561q0 51 66 51h823q47 0 47 -32q1 -52 -65 -52h-824q-47 0 -47 33z" />
<glyph unicode="&#x2013;" d="M270 578q10 41 66 40h821q27 0 39 -10t8 -30q-8 -43 -65 -43h-822q-29 0 -40 10t-7 33z" />
<glyph unicode="&#x2014;" d="M125 578q10 41 63 40h1115q29 0 41 -10t8 -30q-9 -43 -68 -43h-1114q-27 0 -38 10t-7 33z" />
<glyph unicode="&#x2018;" d="M795 1237h274l45 -461v-6q0 -27 -22.5 -47.5t-51.5 -20.5q-35 0 -53 46z" />
<glyph unicode="&#x2019;" d="M424 690q0 14 10 35l252 512h272l-411 -543q-41 -51 -76 -51q-20 0 -33.5 13.5t-13.5 33.5z" />
<glyph unicode="&#x201a;" d="M225 -250q0 14 11 35l251 512h273l-412 -543q-41 -51 -76 -51q-20 0 -33.5 13.5t-13.5 33.5z" />
<glyph unicode="&#x201c;" d="M453 1237h258l45 -461v-6q0 -27 -22.5 -47.5t-51.5 -20.5q-37 0 -53 46zM897 1237h258l45 -461v-6q0 -27 -22.5 -47.5t-51.5 -20.5q-37 0 -53 46z" />
<glyph unicode="&#x201d;" d="M348 745q0 10 8 31l242 461h258l-385 -489q-37 -45 -74 -46q-20 0 -34.5 12.5t-14.5 30.5zM793 745q0 14 8 31l241 461h258l-385 -489q-37 -45 -71 -46q-23 0 -37 12.5t-14 30.5z" />
<glyph unicode="&#x201e;" d="M150 -195q0 10 8 31l241 461h258l-385 -490q-37 -45 -73 -45q-20 0 -34.5 12.5t-14.5 30.5zM594 -195q0 14 8 31l242 461h258l-385 -490q-37 -45 -72 -45q-23 0 -37 12.5t-14 30.5z" />
<glyph unicode="&#x202f;" horiz-adv-x="329" />
<glyph unicode="&#x205f;" horiz-adv-x="412" />
<glyph unicode="&#x20ac;" d="M125 481q8 39 53 39h62l26 123h-61q-45 0 -37 39q8 37 53 37h68q63 199 230 330t355 131q209 0 326 -142l12 58q14 57 56 57q31 0 30 -35q0 -14 -2 -22l-49 -228q-10 -55 -55 -55q-35 0 -29 49v25q0 86 -89 147.5t-216 61.5q-154 0 -289 -104.5t-198 -272.5h590 q43 0 34 -37q-8 -39 -51 -39h-594l-26 -123h534q25 0 32 -8t3 -31q-8 -37 -51 -37h-531v-20q0 -162 100.5 -267.5t258.5 -105.5q203 0 395 185q20 20 45 20q37 0 31 -39q-10 -35 -101 -104q-182 -145 -387 -146q-180 0 -303 124t-123 306v47h-65q-45 0 -37 37z" />
<glyph unicode="&#xe000;" horiz-adv-x="849" d="M0 0v850h850v-850h-850z" />
<glyph unicode="&#xfb1d;" d="M565 942q2 16 18.5 28.5t32.5 12.5h220q27 0 43 -16.5t16 -40.5q0 -2 -1 -7.5t-1 -7.5l-72 -338q-10 -41 -53 -41q-16 0 -25.5 12.5t-5.5 28.5l68 326h-207q-16 0 -26.5 12.5t-6.5 30.5zM654 278v15q4 25 26 42t47 17q20 0 35 -13.5t15 -33.5q0 -2 -1.5 -6t-1.5 -6 q-6 -27 -26.5 -44.5t-44.5 -17.5q-20 0 -34.5 13.5t-14.5 33.5z" />
<glyph unicode="&#xfb1e;" horiz-adv-x="0" d="M-227 1270q10 14 27.5 16t31.5 -8q16 -12 33.5 -27.5t29 -23.5t27.5 -17q43 -20 78 -20t78 20q16 8 27.5 16.5t29 24t33.5 27.5q14 10 31.5 8t27.5 -16q23 -35 -10 -60q-10 -8 -27.5 -23.5t-35 -28.5t-39.5 -23q-57 -29 -114.5 -29t-115.5 29q-23 10 -40 23t-34.5 28.5 t-27.5 23.5q-33 25 -10 60z" />
<glyph unicode="&#xfb1f;" d="M405 942q2 16 18.5 28.5t32.5 12.5h220q27 0 43 -16.5t16 -40.5q0 -2 -1 -7.5t-1 -7.5l-72 -338q-10 -41 -53 -41q-16 0 -25.5 12.5t-5.5 28.5l68 326h-207q-16 0 -26.5 12.5t-6.5 30.5zM637 270q2 16 18.5 28.5t32.5 12.5h277q16 0 26.5 -12t5.5 -29q-10 -43 -49 -43 h-276q-18 0 -28.5 12.5t-6.5 30.5zM889 942q2 16 18.5 28.5t32.5 12.5h220q27 0 43 -16.5t16 -40.5q0 -2 -1 -7.5t-1 -7.5l-72 -338q-10 -41 -53 -41q-16 0 -25.5 12.5t-5.5 28.5l68 326h-207q-16 0 -26.5 12.5t-6.5 30.5z" />
<glyph unicode="&#xfb20;" d="M172 41q10 43 51 43h107l172 815h-107q-16 0 -25.5 12.5t-4.5 30.5q8 41 49 41h118q27 0 42.5 -16.5t15.5 -40.5q0 -10 -2 -15l-176 -827h221q129 0 225 93t127 233l102 489h-104q-16 0 -26.5 12.5t-6.5 30.5q2 16 18.5 28.5t32.5 12.5h117q27 0 43.5 -16.5t16.5 -40.5 q0 -2 -1 -7.5t-1 -7.5l-107 -501q-37 -174 -163 -292t-292 -118h-409q-16 0 -26.5 12.5t-6.5 28.5z" />
<glyph unicode="&#xfb21;" d="M176 57q0 2 1 7.5t1 7.5l55 256q25 113 104 211t187 149l-155 223q-20 35 14 60q37 31 59 -2l424 -609q98 39 166 120t88 175l51 244h-206q-16 0 -25.5 12.5t-5.5 30.5q8 41 49 41h219q27 0 43.5 -16.5t16.5 -40.5q0 -2 -1 -7.5t-1 -7.5l-56 -256q-23 -113 -102.5 -210 t-188.5 -150l156 -223q23 -33 -14 -60q-37 -31 -60 2l-424 609q-96 -39 -164.5 -120t-89.5 -175l-51 -244h207q16 0 25.5 -12.5t5.5 -30.5q-8 -41 -49 -41h-219q-27 0 -43.5 16.5t-16.5 40.5z" />
<glyph unicode="&#xfb22;" d="M365 942q8 41 49 41h819q16 0 26.5 -12.5t6.5 -28.5q-10 -43 -52 -43h-143l-182 -858q-8 -41 -49 -41q-18 0 -28.5 12.5t-6.5 28.5l182 858h-592q-16 0 -25.5 12.5t-4.5 30.5z" />
<glyph unicode="&#xfb23;" d="M215 43l113 524q8 41 51 41q16 0 26.5 -12t6.5 -29l-113 -524q-4 -16 -18.5 -29.5t-30.5 -13.5q-18 0 -28.5 13.5t-6.5 29.5zM365 942q8 41 49 41h592q66 0 107.5 -41t41.5 -104q0 -10 -4 -39l-162 -758q-8 -41 -51 -41q-16 0 -26.5 12.5t-6.5 28.5l164 758v20 q0 35 -23.5 57.5t-58.5 22.5h-592q-16 0 -25.5 12.5t-4.5 30.5z" />
<glyph unicode="&#xfb24;" d="M172 41q10 43 51 43h367q135 0 250.5 95t144.5 231l35 163q6 33 6 66q0 113 -73.5 186.5t-190.5 73.5h-367q-16 0 -25.5 12.5t-4.5 30.5q8 41 49 41h366q145 0 238.5 -93t93.5 -233q0 -45 -8 -84l-35 -163q-37 -170 -183.5 -290t-314.5 -120h-366q-16 0 -26.5 12.5 t-6.5 28.5z" />
<glyph unicode="&#xfb25;" d="M369 956q0 10 2 15l53 254q4 16 19.5 28.5t29.5 12.5q18 0 29.5 -12.5t7.5 -28.5l-51 -242h745q25 0 41.5 -16.5t16.5 -38.5q0 -4 -1 -8.5t-1 -6.5l-35 -163q-20 -88 -88 -144l-508 -422q-39 -28 -45 -57q-6 -43 32 -43h115q18 0 27.5 -12.5t5.5 -30.5q-8 -41 -51 -41 h-172q-27 0 -43.5 16.5t-16.5 40.5q0 2 1 7.5t1 7.5l6 28q18 88 89 144l509 420q41 35 54 84l30 151h-745q-27 0 -42 16.5t-15 40.5z" />
<glyph unicode="&#xfb26;" d="M303 57q0 10 2 15l176 827h-86q-16 0 -25.5 12.5t-4.5 30.5q8 41 49 41h676q66 0 107.5 -41t41.5 -104q0 -10 -4 -39l-156 -727q-6 -29 -31.5 -50.5t-54.5 -21.5h-633q-27 0 -42 16.5t-15 40.5zM391 84h608l154 715v20q0 35 -23.5 57.5t-58.5 22.5h-508z" />
<glyph unicode="&#xfb27;" d="M365 942q8 41 49 41h592q66 0 107.5 -41t41.5 -104q0 -10 -4 -39l-162 -758q-8 -41 -51 -41q-16 0 -26.5 12.5t-6.5 28.5l164 758v20q0 35 -23.5 57.5t-58.5 22.5h-592q-16 0 -25.5 12.5t-4.5 30.5z" />
<glyph unicode="&#xfb28;" d="M127 41q4 18 20.5 30.5t32.5 12.5h121l172 815h-121q-16 0 -26.5 12.5t-6.5 30.5q2 16 18.5 28.5t33.5 12.5h635q66 0 107.5 -41t41.5 -104q0 -10 -4 -39l-162 -758q-8 -41 -51 -41q-16 0 -26.5 12.5t-6.5 28.5l164 758v20q0 35 -23.5 57.5t-58.5 22.5h-432l-176 -827 q-6 -29 -30.5 -50.5t-53.5 -21.5h-133q-16 0 -26.5 12.5t-8.5 28.5z" />
<glyph unicode="&#xfb29;" d="M270 578q10 41 64 40h368l89 412q12 55 55 55q41 0 28 -55l-88 -412h369q29 0 41 -10t8 -30q-8 -43 -67 -43h-822q-27 0 -38 10t-7 33z" />
<glyph unicode="&#xfb2a;" d="M225 260q0 23 8 68l125 583q6 29 32 50.5t54 21.5h117q16 0 26.5 -12.5t6.5 -28.5q-10 -43 -51 -43h-105l-121 -571q-6 -29 -6 -52q0 -84 55.5 -138t143.5 -54h82l182 858q8 41 49 41q16 0 26.5 -12.5t6.5 -28.5l-182 -858h82q100 0 186 70.5t109 173.5l120 571h-104 q-16 0 -25.5 12.5t-5.5 30.5q8 41 49 41h117q27 0 43.5 -16.5t16.5 -40.5q0 -2 -1 -7.5t-1 -7.5l-125 -583q-29 -135 -146 -231.5t-252 -96.5h-245q-117 0 -192 73.5t-75 186.5zM1176 1092v14q4 25 27.5 43t48.5 18q23 0 36 -13t13 -36v-12q-6 -25 -28.5 -42.5t-47.5 -17.5 q-20 0 -34.5 13.5t-14.5 32.5z" />
<glyph unicode="&#xfb2b;" d="M225 260q0 23 8 68l125 583q6 29 32 50.5t54 21.5h117q16 0 26.5 -12.5t6.5 -28.5q-10 -43 -51 -43h-105l-121 -571q-6 -29 -6 -52q0 -84 55.5 -138t143.5 -54h82l182 858q8 41 49 41q16 0 26.5 -12.5t6.5 -28.5l-182 -858h82q100 0 186 70.5t109 173.5l120 571h-104 q-16 0 -25.5 12.5t-5.5 30.5q8 41 49 41h117q27 0 43.5 -16.5t16.5 -40.5q0 -2 -1 -7.5t-1 -7.5l-125 -583q-29 -135 -146 -231.5t-252 -96.5h-245q-117 0 -192 73.5t-75 186.5zM438 1090v14q4 25 27.5 43t48.5 18q23 0 36 -13t13 -36v-12q-6 -25 -28.5 -42.5t-47.5 -17.5 q-20 0 -34.5 13.5t-14.5 32.5z" />
<glyph unicode="&#xfb2c;" d="M225 260q0 23 8 68l125 583q6 29 32 50.5t54 21.5h117q16 0 26.5 -12.5t6.5 -28.5q-10 -43 -51 -43h-105l-121 -571q-6 -29 -6 -52q0 -84 55.5 -138t143.5 -54h82l182 858q8 41 49 41q16 0 26.5 -12.5t6.5 -28.5l-182 -858h82q100 0 186 70.5t109 173.5l120 571h-104 q-16 0 -25.5 12.5t-5.5 30.5q8 41 49 41h117q27 0 43.5 -16.5t16.5 -40.5q0 -2 -1 -7.5t-1 -7.5l-125 -583q-29 -135 -146 -231.5t-252 -96.5h-245q-117 0 -192 73.5t-75 186.5zM860 477v13q6 25 27.5 42t46.5 17q20 0 34.5 -13.5t14.5 -31.5q0 -10 -2 -14 q-4 -27 -25.5 -44.5t-46.5 -17.5q-23 0 -36 13.5t-13 35.5zM1176 1092v14q4 25 27.5 43t48.5 18q23 0 36 -13t13 -36v-12q-6 -25 -28.5 -42.5t-47.5 -17.5q-20 0 -34.5 13.5t-14.5 32.5z" />
<glyph unicode="&#xfb2d;" d="M225 260q0 23 8 68l125 583q6 29 32 50.5t54 21.5h117q16 0 26.5 -12.5t6.5 -28.5q-10 -43 -51 -43h-105l-121 -571q-6 -29 -6 -52q0 -84 55.5 -138t143.5 -54h82l182 858q8 41 49 41q16 0 26.5 -12.5t6.5 -28.5l-182 -858h82q100 0 186 70.5t109 173.5l120 571h-104 q-16 0 -25.5 12.5t-5.5 30.5q8 41 49 41h117q27 0 43.5 -16.5t16.5 -40.5q0 -2 -1 -7.5t-1 -7.5l-125 -583q-29 -135 -146 -231.5t-252 -96.5h-245q-117 0 -192 73.5t-75 186.5zM438 1090v14q4 25 27.5 43t48.5 18q23 0 36 -13t13 -36v-12q-6 -25 -28.5 -42.5t-47.5 -17.5 q-20 0 -34.5 13.5t-14.5 32.5zM860 477v13q6 25 27.5 42t46.5 17q20 0 34.5 -13.5t14.5 -31.5q0 -10 -2 -14q-4 -27 -25.5 -44.5t-46.5 -17.5q-23 0 -36 13.5t-13 35.5z" />
<glyph unicode="&#xfb2e;" d="M176 57q0 2 1 7.5t1 7.5l55 256q25 113 104 211t187 149l-155 223q-20 35 14 60q37 31 59 -2l424 -609q98 39 166 120t88 175l51 244h-206q-16 0 -25.5 12.5t-5.5 30.5q8 41 49 41h219q27 0 43.5 -16.5t16.5 -40.5q0 -2 -1 -7.5t-1 -7.5l-56 -256q-23 -113 -102.5 -210 t-188.5 -150l156 -223q23 -33 -14 -60q-37 -31 -60 2l-424 609q-96 -39 -164.5 -120t-89.5 -175l-51 -244h207q16 0 25.5 -12.5t5.5 -30.5q-8 -41 -49 -41h-219q-27 0 -43.5 16.5t-16.5 40.5zM485 -156q2 16 18.5 28.5t32.5 12.5h277q16 0 26.5 -12t5.5 -29q-10 -43 -49 -43 h-276q-18 0 -28.5 12.5t-6.5 30.5z" />
<glyph unicode="&#xfb2f;" d="M176 57q0 2 1 7.5t1 7.5l55 256q25 113 104 211t187 149l-155 223q-20 35 14 60q37 31 59 -2l424 -609q98 39 166 120t88 175l51 244h-206q-16 0 -25.5 12.5t-5.5 30.5q8 41 49 41h219q27 0 43.5 -16.5t16.5 -40.5q0 -2 -1 -7.5t-1 -7.5l-56 -256q-23 -113 -102.5 -210 t-188.5 -150l156 -223q23 -33 -14 -60q-37 -31 -60 2l-424 609q-96 -39 -164.5 -120t-89.5 -175l-51 -244h207q16 0 25.5 -12.5t5.5 -30.5q-8 -41 -49 -41h-219q-27 0 -43.5 16.5t-16.5 40.5zM498 -166q2 16 17.5 28.5t31.5 12.5h279q18 0 27.5 -12t4.5 -29q-10 -43 -49 -43 h-96l-47 -203q-2 -16 -17.5 -28.5t-31.5 -12.5q-18 0 -29.5 12.5t-7.5 28.5l45 203h-94q-16 0 -26.5 12.5t-6.5 30.5z" />
<glyph unicode="&#xfb30;" d="M176 57q0 2 1 7.5t1 7.5l55 256q25 113 104 211t187 149l-155 223q-20 35 14 60q37 31 59 -2l424 -609q98 39 166 120t88 175l51 244h-206q-16 0 -25.5 12.5t-5.5 30.5q8 41 49 41h219q27 0 43.5 -16.5t16.5 -40.5q0 -2 -1 -7.5t-1 -7.5l-56 -256q-23 -113 -102.5 -210 t-188.5 -150l156 -223q23 -33 -14 -60q-37 -31 -60 2l-424 609q-96 -39 -164.5 -120t-89.5 -175l-51 -244h207q16 0 25.5 -12.5t5.5 -30.5q-8 -41 -49 -41h-219q-27 0 -43.5 16.5t-16.5 40.5zM651 53v13q6 25 27.5 42t46.5 17q20 0 34.5 -13.5t14.5 -31.5q0 -10 -2 -14 q-4 -27 -25.5 -44.5t-46.5 -17.5q-23 0 -36 13.5t-13 35.5z" />
<glyph unicode="&#xfb31;" d="M172 41q10 43 51 43h604l121 571q6 29 6 52q0 84 -55 138t-143 54h-361q-16 0 -25.5 12.5t-4.5 30.5q8 41 49 41h360q117 0 191.5 -73.5t74.5 -186.5q0 -23 -8 -68l-121 -571h131q16 0 25.5 -12.5t5.5 -30.5q-8 -41 -49 -41h-819q-16 0 -26.5 12.5t-6.5 28.5zM530 481v13 q6 25 27.5 42t46.5 17q20 0 34.5 -13.5t14.5 -31.5q0 -10 -2 -14q-4 -27 -25.5 -44.5t-46.5 -17.5q-23 0 -36 13.5t-13 35.5z" />
<glyph unicode="&#xfb32;" d="M311 31q0 43 37 51q180 43 326.5 194.5t185.5 337.5l60 285h-207q-16 0 -26.5 12.5t-6.5 30.5q2 16 18.5 28.5t32.5 12.5h219q27 0 43.5 -16.5t16.5 -40.5q0 -2 -1 -7.5t-1 -7.5l-187 -870q-8 -41 -51 -41q-16 0 -26.5 12.5t-6.5 28.5l64 301q-68 -131 -190 -220 t-255 -122q-16 -4 -29.5 5t-15.5 26zM539 495v13q6 25 27.5 42t46.5 17q20 0 34.5 -13.5t14.5 -31.5q0 -10 -2 -14q-4 -27 -25.5 -44.5t-46.5 -17.5q-23 0 -36 13.5t-13 35.5z" />
<glyph unicode="&#xfb33;" d="M365 942q8 41 49 41h819q16 0 26.5 -12.5t6.5 -28.5q-10 -43 -52 -43h-143l-182 -858q-8 -41 -49 -41q-18 0 -28.5 12.5t-6.5 28.5l182 858h-592q-16 0 -25.5 12.5t-4.5 30.5zM543 485v13q6 25 27.5 42t46.5 17q20 0 34.5 -13.5t14.5 -31.5q0 -10 -2 -14 q-4 -27 -25.5 -44.5t-46.5 -17.5q-23 0 -36 13.5t-13 35.5z" />
<glyph unicode="&#xfb34;" d="M215 43l113 524q8 41 51 41q16 0 26.5 -12t6.5 -29l-113 -524q-4 -16 -18.5 -29.5t-30.5 -13.5q-18 0 -28.5 13.5t-6.5 29.5zM365 942q8 41 49 41h592q66 0 107.5 -41t41.5 -104q0 -10 -4 -39l-162 -758q-8 -41 -51 -41q-16 0 -26.5 12.5t-6.5 28.5l164 758v20 q0 35 -23.5 57.5t-58.5 22.5h-592q-16 0 -25.5 12.5t-4.5 30.5zM649 481v13q6 25 27.5 42t46.5 17q20 0 34.5 -13.5t14.5 -31.5q0 -10 -2 -14q-4 -27 -25.5 -44.5t-46.5 -17.5q-23 0 -36 13.5t-13 35.5z" />
<glyph unicode="&#xfb35;" d="M489 481v13q6 25 27.5 42t46.5 17q20 0 34.5 -13.5t14.5 -31.5q0 -10 -2 -14q-4 -27 -25.5 -44.5t-46.5 -17.5q-23 0 -36 13.5t-13 35.5zM565 942q2 16 18.5 28.5t32.5 12.5h220q27 0 43 -16.5t16 -40.5q0 -2 -1 -7.5t-1 -7.5l-186 -870q-8 -41 -52 -41q-16 0 -26.5 12.5 t-5.5 28.5l182 858h-207q-16 0 -26.5 12.5t-6.5 30.5z" />
<glyph unicode="&#xfb36;" d="M414 481v13q6 25 27.5 42t46.5 17q20 0 34.5 -13.5t14.5 -31.5q0 -10 -2 -14q-4 -27 -25.5 -44.5t-46.5 -17.5q-23 0 -36 13.5t-13 35.5zM545 942q8 41 49 41h442q16 0 26.5 -12.5t6.5 -28.5q-10 -43 -51 -43h-172l-182 -858q-8 -41 -50 -41q-16 0 -26 12.5t-8 28.5 l182 858h-187q-16 0 -25 12.5t-5 30.5z" />
<glyph unicode="&#xfb37;" d="M295 41l182 858h-82q-16 0 -25.5 12.5t-4.5 30.5q8 41 49 41h819q16 0 26.5 -12.5t6.5 -28.5q-10 -43 -52 -43h-81l-183 -858q-8 -41 -49 -41q-18 0 -28.5 12.5t-6.5 28.5l183 858h-488l-182 -858q-8 -41 -51 -41q-16 0 -26.5 12.5t-6.5 28.5zM661 481v13q6 25 27.5 42 t46.5 17q20 0 34.5 -13.5t14.5 -31.5q0 -10 -2 -14q-4 -27 -25.5 -44.5t-46.5 -17.5q-23 0 -36 13.5t-13 35.5z" />
<glyph unicode="&#xfb38;" d="M324 313q0 45 8 84l106 502h-84q-16 0 -25.5 12.5t-4.5 30.5q8 41 49 41h96q27 0 43 -16.5t16 -40.5q0 -2 -1 -7.5t-1 -7.5l-110 -514q-6 -33 -6 -65q0 -111 73.5 -184.5t188.5 -73.5q135 0 249.5 95t143.5 228l74 330v39q0 61 -42 102t-106 41q-76 0 -140.5 -53 t-80.5 -129l-33 -162q-10 -41 -53 -41q-16 0 -25.5 12.5t-5.5 28.5l33 162q25 111 119 188.5t205 77.5q94 0 154.5 -59.5t60.5 -149.5q0 -27 -6 -57l-70 -330q-35 -170 -180.5 -288.5t-315.5 -118.5q-145 0 -237 92t-92 231zM721 409v13q6 25 27.5 42t46.5 17 q20 0 34.5 -13.5t14.5 -31.5q0 -10 -2 -14q-4 -27 -25.5 -44.5t-46.5 -17.5q-23 0 -36 13.5t-13 35.5z" />
<glyph unicode="&#xfb39;" d="M557 712v13q6 25 27.5 42t46.5 17q20 0 34.5 -13.5t14.5 -31.5q0 -10 -2 -14q-4 -27 -25.5 -44.5t-46.5 -17.5q-23 0 -36 13.5t-13 35.5zM565 942q2 16 18.5 28.5t32.5 12.5h220q27 0 43 -16.5t16 -40.5q0 -2 -1 -7.5t-1 -7.5l-72 -338q-10 -41 -53 -41q-16 0 -25.5 12.5 t-5.5 28.5l68 326h-207q-16 0 -26.5 12.5t-6.5 30.5z" />
<glyph unicode="&#xfb3a;" d="M303 942q8 41 49 41h819q16 0 26.5 -12.5t6.5 -28.5q-10 -43 -51 -43h-162l-260 -1225h162q16 0 25.5 -12t7.5 -31q-4 -16 -19.5 -28.5t-32.5 -12.5h-174q-27 0 -42 16.5t-15 41.5q0 10 2 14l262 1237h-573q-16 0 -25.5 12.5t-5.5 30.5zM498 481v13q6 25 27.5 42t46.5 17 q20 0 34.5 -13.5t14.5 -31.5q0 -10 -2 -14q-4 -27 -25.5 -44.5t-46.5 -17.5q-23 0 -36 13.5t-13 35.5z" />
<glyph unicode="&#xfb3b;" d="M172 41q10 43 51 43h367q135 0 250.5 95t144.5 231l35 163q6 33 6 66q0 113 -73.5 186.5t-190.5 73.5h-367q-16 0 -25.5 12.5t-4.5 30.5q8 41 49 41h366q145 0 238.5 -93t93.5 -233q0 -45 -8 -84l-35 -163q-37 -170 -183.5 -290t-314.5 -120h-366q-16 0 -26.5 12.5 t-6.5 28.5zM504 481v13q6 25 27.5 42t46.5 17q20 0 34.5 -13.5t14.5 -31.5q0 -10 -2 -14q-4 -27 -25.5 -44.5t-46.5 -17.5q-23 0 -36 13.5t-13 35.5z" />
<glyph unicode="&#xfb3c;" d="M369 956q0 10 2 15l53 254q4 16 19.5 28.5t29.5 12.5q18 0 29.5 -12.5t7.5 -28.5l-51 -242h745q25 0 41.5 -16.5t16.5 -38.5q0 -4 -1 -8.5t-1 -6.5l-35 -163q-20 -88 -88 -144l-508 -422q-39 -28 -45 -57q-6 -43 32 -43h115q18 0 27.5 -12.5t5.5 -30.5q-8 -41 -51 -41 h-172q-27 0 -43.5 16.5t-16.5 40.5q0 2 1 7.5t1 7.5l6 28q18 88 89 144l509 420q41 35 54 84l30 151h-745q-27 0 -42 16.5t-15 40.5zM621 616v13q6 25 27.5 42t46.5 17q20 0 34.5 -13.5t14.5 -31.5q0 -10 -2 -14q-4 -27 -25.5 -44.5t-46.5 -17.5q-23 0 -36 13.5t-13 35.5z " />
<glyph unicode="&#xfb3d;" d="M303 57q0 10 2 15l176 827h-86q-16 0 -25.5 12.5t-4.5 30.5q8 41 49 41h676q66 0 107.5 -41t41.5 -104q0 -10 -4 -39l-156 -727q-6 -29 -31.5 -50.5t-54.5 -21.5h-633q-27 0 -42 16.5t-15 40.5zM391 84h608l154 715v20q0 35 -23.5 57.5t-58.5 22.5h-508zM715 481v13 q6 25 27.5 42t46.5 17q20 0 34.5 -13.5t14.5 -31.5q0 -10 -2 -14q-4 -27 -25.5 -44.5t-46.5 -17.5q-23 0 -36 13.5t-13 35.5z" />
<glyph unicode="&#xfb3e;" d="M256 43l182 856h-84q-16 0 -25.5 12.5t-4.5 30.5q8 41 49 41h96q27 0 43 -16.5t16 -40.5q0 -2 -1 -7.5t-1 -7.5l-16 -77q156 160 356 159q147 0 239.5 -91t92.5 -230q0 -45 -8 -84l-111 -516q-6 -29 -31.5 -50.5t-54.5 -21.5h-413q-18 0 -28.5 12.5t-6.5 28.5 q10 43 53 43h401l107 502q6 33 6 65q0 113 -73.5 185.5t-190.5 72.5q-133 0 -249 -95t-142 -228l-117 -543q-8 -43 -49 -43t-35 43zM702 481v13q6 25 27.5 42t46.5 17q20 0 34.5 -13.5t14.5 -31.5q0 -10 -2 -14q-4 -27 -25.5 -44.5t-46.5 -17.5q-23 0 -36 13.5t-13 35.5z " />
<glyph unicode="&#xfb3f;" d="M635 481v13q6 25 27.5 42t46.5 17q20 0 34.5 -13.5t14.5 -31.5q0 -10 -2 -14q-4 -27 -25.5 -44.5t-46.5 -17.5q-23 0 -36 13.5t-13 35.5zM727 -338l262 1237h-104q-16 0 -26.5 12.5t-6.5 30.5q2 16 18.5 28.5t32.5 12.5h117q27 0 43 -16.5t16 -40.5q0 -2 -1 -7.5t-1 -7.5 l-264 -1237h105q16 0 25 -12t7 -31q-4 -16 -19.5 -28.5t-31.5 -12.5h-117q-25 0 -40 16.5t-15 41.5v14z" />
<glyph unicode="&#xfb40;" d="M459 41q10 43 51 43h246l153 715v20q0 35 -23.5 57.5t-58.5 22.5h-104q-16 0 -25.5 12.5t-5.5 30.5q8 41 49 41h105q66 0 107.5 -41t41.5 -104q0 -10 -4 -39l-155 -727q-6 -29 -32 -50.5t-54 -21.5h-258q-16 0 -26.5 12.5t-6.5 28.5zM614 477v13q6 25 27.5 42t46.5 17 q20 0 34.5 -13.5t14.5 -31.5q0 -10 -2 -14q-4 -27 -25.5 -44.5t-46.5 -17.5q-23 0 -36 13.5t-13 35.5z" />
<glyph unicode="&#xfb41;" d="M324 313q0 45 8 84l106 502h-84q-16 0 -25.5 12.5t-4.5 30.5q8 41 49 41h717q66 0 107.5 -41t41.5 -104q0 -10 -4 -39l-82 -402q-35 -168 -182.5 -287.5t-317.5 -119.5q-145 0 -237 92t-92 231zM410 332q0 -111 73.5 -184.5t188.5 -73.5q135 0 249.5 95t143.5 228l88 402 v20q0 35 -23.5 57.5t-58.5 22.5h-549l-106 -502q-6 -33 -6 -65zM694 481v13q6 25 27.5 42t46.5 17q20 0 34.5 -13.5t14.5 -31.5q0 -10 -2 -14q-4 -27 -25.5 -44.5t-46.5 -17.5q-23 0 -36 13.5t-13 35.5z" />
<glyph unicode="&#xfb42;" d="M172 41q10 43 51 43h107l172 815h-107q-16 0 -25.5 12.5t-4.5 30.5q8 41 49 41h118q27 0 42.5 -16.5t15.5 -40.5q0 -10 -2 -15l-176 -827h221q129 0 225 93t127 233l102 489h-104q-16 0 -26.5 12.5t-6.5 30.5q2 16 18.5 28.5t32.5 12.5h117q27 0 43.5 -16.5t16.5 -40.5 q0 -2 -1 -7.5t-1 -7.5l-107 -501q-37 -174 -163 -292t-292 -118h-409q-16 0 -26.5 12.5t-6.5 28.5zM684 481v13q6 25 27.5 42t46.5 17q20 0 34.5 -13.5t14.5 -31.5q0 -10 -2 -14q-4 -27 -25.5 -44.5t-46.5 -17.5q-23 0 -36 13.5t-13 35.5z" />
<glyph unicode="&#xfb43;" d="M377 586v39l65 286q6 29 32 50.5t54 21.5h478q66 0 107.5 -41t41.5 -104q0 -10 -4 -39l-240 -1125h105q16 0 25.5 -12t7.5 -31q-4 -16 -19.5 -28.5t-32.5 -12.5h-116q-27 0 -42.5 15.5t-15.5 40.5q0 10 2 16l244 1137v20q0 35 -23.5 57.5t-58.5 22.5h-465l-57 -274 q-2 -8 -2 -23q0 -35 22.5 -56.5t57.5 -21.5h121q16 0 26 -12t6 -29q-8 -43 -49 -43h-121q-66 0 -107.5 41t-41.5 105zM780 465v13q6 25 27.5 42t46.5 17q20 0 34.5 -13.5t14.5 -31.5q0 -10 -2 -14q-4 -27 -25.5 -44.5t-46.5 -17.5q-23 0 -36 13.5t-13 35.5z" />
<glyph unicode="&#xfb44;" d="M256 41q10 43 53 43h506q41 0 76 29.5t45 70.5l133 615v20q0 35 -23.5 57.5t-58.5 22.5h-465l-57 -274q-2 -8 -2 -23q0 -35 22.5 -56.5t57.5 -21.5h100q16 0 26.5 -12t6.5 -29q-8 -43 -49 -43h-101q-66 0 -107.5 41t-41.5 105v39l65 286q6 29 32 50.5t54 21.5h478 q66 0 107.5 -41t41.5 -104q0 -10 -4 -39l-131 -615q-14 -76 -80 -130t-143 -54h-506q-18 0 -28.5 12.5t-6.5 28.5zM772 475v13q6 25 27.5 42t46.5 17q20 0 34.5 -13.5t14.5 -31.5q0 -10 -2 -14q-4 -27 -25.5 -44.5t-46.5 -17.5q-23 0 -36 13.5t-13 35.5z" />
<glyph unicode="&#xfb45;" d="M279 -352q0 10 2 14l262 1237h-148q-16 0 -25.5 12.5t-4.5 30.5q8 41 49 41h159q27 0 42.5 -16.5t15.5 -40.5q0 -10 -2 -15l-107 -499h180q129 0 225.5 93t127.5 232l32 162h-145q-16 0 -26.5 12.5t-6.5 30.5q2 16 18.5 28.5t33.5 12.5h157q27 0 43.5 -16.5t16.5 -40.5 q0 -2 -1 -7.5t-1 -7.5l-37 -174q-37 -174 -163 -291.5t-292 -117.5h-178l-139 -654h104q16 0 25.5 -12t7.5 -31q-4 -16 -19.5 -28.5t-31.5 -12.5h-117q-27 0 -42 16.5t-15 41.5zM707 653v13q6 25 27.5 42t46.5 17q20 0 34.5 -13.5t14.5 -31.5q0 -10 -2 -14 q-4 -27 -25.5 -44.5t-46.5 -17.5q-23 0 -36 13.5t-13 35.5z" />
<glyph unicode="&#xfb46;" d="M172 41q10 43 53 43h690l23 90v47q0 90 -66 139l-270 222q-82 70 -82 182q0 20 8 65l15 70h-148q-16 0 -25.5 12.5t-4.5 30.5q8 41 49 41h159q27 0 42.5 -16.5t15.5 -40.5q0 -10 -2 -15q-20 -80 -21 -129q0 -90 66 -139l84 -68q123 8 212 99.5t117 224.5h-149 q-39 0 -29 43q2 16 18.5 28.5t33.5 12.5h157q27 0 43.5 -16.5t16.5 -40.5q0 -2 -1 -7.5t-1 -7.5l-5 -12q-29 -139 -118.5 -245.5t-212.5 -145.5l104 -86q82 -70 82 -182q0 -20 -8 -66l-23 -102q-6 -29 -31.5 -50.5t-54.5 -21.5h-702q-18 0 -28.5 12.5t-6.5 28.5zM549 268v13 q6 25 27.5 42t46.5 17q20 0 34.5 -13.5t14.5 -31.5q0 -10 -2 -14q-4 -27 -25.5 -44.5t-46.5 -17.5q-23 0 -36 13.5t-13 35.5z" />
<glyph unicode="&#xfb47;" d="M170 -369l217 1028q10 41 53 41q16 0 25.5 -12t5.5 -29l-217 -1028q-4 -16 -19.5 -28.5t-31.5 -12.5q-18 0 -27.5 12.5t-5.5 28.5zM362 942q9 41 52 41h704q27 0 43.5 -16.5t16.5 -40.5q0 -2 -1 -7.5t-1 -7.5l-58 -264q-18 -88 -88 -143l-385 -320q-39 -31 -45 -57 q-2 -18 8 -30.5t27 -12.5h117q16 0 25 -12.5t5 -30.5q-8 -41 -49 -41h-174q-27 0 -43 16.5t-16 40.5q0 2 1 7.5t1 7.5l6 28q18 88 88 144l385 317q43 35 53 84l53 254h-694q-16 0 -25.5 12.5t-5.5 30.5zM629 579v13q6 25 27.5 42t46.5 17q20 0 34.5 -13.5t14.5 -31.5 q0 -10 -2 -14q-4 -27 -25.5 -44.5t-46.5 -17.5q-23 0 -36 13.5t-13 35.5z" />
<glyph unicode="&#xfb48;" d="M365 942q8 41 49 41h592q66 0 107.5 -41t41.5 -104q0 -10 -4 -39l-162 -758q-8 -41 -51 -41q-16 0 -26.5 12.5t-6.5 28.5l164 758v20q0 35 -23.5 57.5t-58.5 22.5h-592q-16 0 -25.5 12.5t-4.5 30.5zM657 479v13q6 25 27.5 42t46.5 17q20 0 34.5 -13.5t14.5 -31.5 q0 -10 -2 -14q-4 -27 -25.5 -44.5t-46.5 -17.5q-23 0 -36 13.5t-13 35.5z" />
<glyph unicode="&#xfb49;" d="M225 260q0 23 8 68l125 583q6 29 32 50.5t54 21.5h117q16 0 26.5 -12.5t6.5 -28.5q-10 -43 -51 -43h-105l-121 -571q-6 -29 -6 -52q0 -84 55.5 -138t143.5 -54h82l182 858q8 41 49 41q16 0 26.5 -12.5t6.5 -28.5l-182 -858h82q100 0 186 70.5t109 173.5l120 571h-104 q-16 0 -25.5 12.5t-5.5 30.5q8 41 49 41h117q27 0 43.5 -16.5t16.5 -40.5q0 -2 -1 -7.5t-1 -7.5l-125 -583q-29 -135 -146 -231.5t-252 -96.5h-245q-117 0 -192 73.5t-75 186.5zM860 477v13q6 25 27.5 42t46.5 17q20 0 34.5 -13.5t14.5 -31.5q0 -10 -2 -14 q-4 -27 -25.5 -44.5t-46.5 -17.5q-23 0 -36 13.5t-13 35.5z" />
<glyph unicode="&#xfb4a;" d="M127 41q4 18 20.5 30.5t32.5 12.5h121l172 815h-121q-16 0 -26.5 12.5t-6.5 30.5q2 16 18.5 28.5t33.5 12.5h635q66 0 107.5 -41t41.5 -104q0 -10 -4 -39l-162 -758q-8 -41 -51 -41q-16 0 -26.5 12.5t-6.5 28.5l164 758v20q0 35 -23.5 57.5t-58.5 22.5h-432l-176 -827 q-6 -29 -30.5 -50.5t-53.5 -21.5h-133q-16 0 -26.5 12.5t-8.5 28.5zM664 481v13q6 25 27.5 42t46.5 17q20 0 34.5 -13.5t14.5 -31.5q0 -10 -2 -14q-4 -27 -25.5 -44.5t-46.5 -17.5q-23 0 -36 13.5t-13 35.5z" />
<glyph unicode="&#xfb4b;" d="M565 942q2 16 18.5 28.5t32.5 12.5h220q27 0 43 -16.5t16 -40.5q0 -2 -1 -7.5t-1 -7.5l-186 -870q-8 -41 -52 -41q-16 0 -26.5 12.5t-5.5 28.5l182 858h-207q-16 0 -26.5 12.5t-6.5 30.5zM852 1153v14q6 25 28 42.5t46 17.5q20 0 34.5 -13.5t14.5 -31.5q0 -10 -2 -15 q-4 -27 -25.5 -44t-45.5 -17q-49 0 -50 47z" />
<glyph unicode="&#xfb4c;" d="M172 41q10 43 51 43h604l121 571q6 29 6 52q0 84 -55 138t-143 54h-361q-16 0 -25.5 12.5t-4.5 30.5q8 41 49 41h360q117 0 191.5 -73.5t74.5 -186.5q0 -23 -8 -68l-121 -571h131q16 0 25.5 -12.5t5.5 -30.5q-8 -41 -49 -41h-819q-16 0 -26.5 12.5t-6.5 28.5zM604 1147 q11 43 52 43h276q16 0 26.5 -12.5t6.5 -30.5q-8 -41 -49 -41h-277q-16 0 -26.5 12t-8.5 29z" />
<glyph unicode="&#xfb4d;" d="M172 41q10 43 51 43h367q135 0 250.5 95t144.5 231l35 163q6 33 6 66q0 113 -73.5 186.5t-190.5 73.5h-367q-16 0 -25.5 12.5t-4.5 30.5q8 41 49 41h366q145 0 238.5 -93t93.5 -233q0 -45 -8 -84l-35 -163q-37 -170 -183.5 -290t-314.5 -120h-366q-16 0 -26.5 12.5 t-6.5 28.5zM530 1147q11 43 52 43h276q16 0 26.5 -12.5t6.5 -30.5q-8 -41 -49 -41h-277q-16 0 -26.5 12t-8.5 29z" />
<glyph unicode="&#xfb4e;" d="M256 41q10 43 53 43h506q41 0 76 29.5t45 70.5l133 615v20q0 35 -23.5 57.5t-58.5 22.5h-465l-57 -274q-2 -8 -2 -23q0 -35 22.5 -56.5t57.5 -21.5h100q16 0 26.5 -12t6.5 -29q-8 -43 -49 -43h-101q-66 0 -107.5 41t-41.5 105v39l65 286q6 29 32 50.5t54 21.5h478 q66 0 107.5 -41t41.5 -104q0 -10 -4 -39l-131 -615q-14 -76 -80 -130t-143 -54h-506q-18 0 -28.5 12.5t-6.5 28.5zM677 1147q11 43 52 43h276q16 0 26.5 -12.5t6.5 -30.5q-8 -41 -49 -41h-277q-16 0 -26.5 12t-8.5 29z" />
<glyph unicode="&#xfb4f;" d="M369 911q-8 12 2 60l53 252q8 41 51 41q16 0 26.5 -12.5t6.5 -28.5l-57 -267l417 -596q96 39 164 120t88 175l51 244h-206q-39 0 -33 43q4 16 19.5 28.5t31.5 12.5h219q27 0 43.5 -16.5t16.5 -40.5q0 -2 -1 -7.5t-1 -7.5l-56 -256q-25 -113 -103.5 -211t-187.5 -149 l156 -223q23 -33 -14 -60q-37 -31 -60 2z" />
</font>
</defs>
</svg>
