<?xml version="1.0" standalone="no"?>
<!DOCTYPE svg PUBLIC "-//W3C//DTD SVG 1.1//EN" "http://www.w3.org/Graphics/SVG/1.1/DTD/svg11.dtd" >
<svg xmlns="http://www.w3.org/2000/svg">
<metadata></metadata>
<defs>
<font id="miriam_mono_clmboldoblique" horiz-adv-x="1228" >
<font-face units-per-em="2048" ascent="1638" descent="-410" />
<missing-glyph horiz-adv-x="500" />
<glyph d="M137 -123l262 1229h901l-262 -1229h-901zM387 82h492l174 819h-492z" />
<glyph d="M137 -123l262 1229h901l-262 -1229h-901zM387 82h492l174 819h-492z" />
<glyph unicode="&#xd;" horiz-adv-x="681" />
<glyph unicode=" " />
<glyph unicode="!" d="M479 78q0 61 52.5 111.5t115.5 50.5h35q49 0 80 -30t31 -77q0 -63 -51 -113.5t-117 -50.5h-35q-49 0 -80 31t-31 78zM610 449v18l72 608q12 113 57 160q61 72 152 72q59 0 97 -35t38 -90q1 -37 -22 -107l-189 -608q-33 -100 -123 -100q-82 0 -82 82z" />
<glyph unicode="&#x22;" d="M498 686v25l43 522h262l-176 -520q-25 -74 -80 -74q-20 0 -34.5 13.5t-14.5 33.5zM907 686q0 14 2 25l41 522h262l-174 -520q-25 -74 -82 -74q-20 0 -34.5 13.5t-14.5 33.5z" />
<glyph unicode="#" d="M207 367q0 51 47 92q37 29 113 28h67l62 218h-41q-49 0 -72 8q-45 16 -45 73q0 53 47 95q37 29 113 28h55l96 344q35 129 133 129q33 0 57.5 -22.5t24.5 -52.5q0 -20 -12 -68l-94 -330h147l96 344q18 66 43 90q39 39 91 39q35 0 58.5 -23.5t23.5 -58.5q0 -10 -15 -61 l-94 -330h51q59 0 88 -17.5t29 -64.5q0 -51 -47 -92q-37 -31 -113 -30h-65l-62 -218h39q49 0 72 -8q47 -14 47 -71q0 -55 -47 -93q-39 -31 -115 -30h-53l-96 -344q-41 -129 -136 -129q-33 0 -56 22.5t-23 54.5q0 16 14 66l94 330h-147l-99 -344q-29 -129 -131 -129 q-35 0 -58.5 22.5t-23.5 54.5q0 25 13 66l94 330h-53q-63 0 -90 18.5t-27 63.5zM639 487h145l64 218h-148z" />
<glyph unicode="$" d="M205 147q0 16 8 60l27 125q14 68 41 94q43 43 92 43q43 0 67 -31q12 -14 15 -69q4 -47 66.5 -81t150.5 -34q109 0 187.5 54t78.5 130t-141 105l-144 30q-252 53 -252 252q0 137 107.5 249t265.5 138l12 54q12 66 39 94q41 41 93 41q35 0 57 -22.5t22 -55.5q0 -18 -8 -57 l-12 -54q8 -2 22.5 -4t24.5 -4l20 -10q27 -12 64 -18q45 18 59 18q35 0 58.5 -23.5t23.5 -56.5q0 -27 -8 -59l-14 -66q-14 -70 -39 -94q-39 -41 -92 -41q-88 0 -88 88q0 29 -48.5 50.5t-109.5 21.5q-100 0 -166 -41t-66 -105q0 -70 132 -96l127 -29q150 -33 214 -93t64 -169 q0 -156 -116.5 -273.5t-307.5 -152.5l-37 -170q-14 -70 -39 -94q-39 -43 -90 -43q-35 0 -58.5 21.5t-23.5 54.5q0 27 9 61l36 170q-90 20 -151 51q-49 -37 -88 -36q-37 0 -60.5 21.5t-23.5 55.5z" />
<glyph unicode="%" d="M268 481q0 53 76 76l793 242q27 8 43 8q47 0 47 -53q0 -56 -76 -76l-795 -242q-23 -8 -43 -8t-32.5 15.5t-12.5 37.5zM385 920q0 131 108.5 237.5t243.5 106.5q102 0 166 -62.5t64 -165.5q0 -133 -108.5 -238.5t-246.5 -105.5q-98 0 -162.5 64.5t-64.5 163.5zM518 197 q0 131 108.5 237.5t243.5 106.5q102 0 167 -63.5t65 -164.5q0 -133 -108.5 -238.5t-248.5 -105.5q-98 0 -162.5 64.5t-64.5 163.5zM518 948q0 -53 36 -88t89 -35q74 0 132.5 56.5t58.5 128.5q0 53 -35 86.5t-90 33.5q-72 0 -131.5 -56t-59.5 -126zM655 223q0 -51 35 -86 t86 -35q74 0 132.5 56.5t58.5 126.5q0 55 -35 89t-90 34q-72 0 -129.5 -57.5t-57.5 -127.5z" />
<glyph unicode="&#x26;" d="M209 217q0 123 72.5 230.5t201.5 173.5q-35 88 -34 145q0 131 121.5 245.5t260.5 114.5q68 0 138 -34q35 14 61 14q31 0 54.5 -24.5t23.5 -55.5q0 -43 -23.5 -71.5t-85.5 -59.5l-96 -43q-59 70 -115 70q-49 0 -90 -37t-41 -82q0 -35 35 -101l142 -296l84 167h106 q49 0 72 -8q45 -16 45 -71q0 -47 -34 -84t-79 -41q-51 -109 -96 -164h16q61 0 89 -17.5t28 -64.5q0 -55 -47 -92q-35 -31 -113 -31h-125l-16 31q-96 -59 -241.5 -59.5t-229.5 65t-84 180.5zM418 264q0 -88 145 -88q64 0 119 29l-119 246q-145 -63 -145 -187z" />
<glyph unicode="'" d="M455 723q0 18 16 51l246 504h272l-405 -551q-37 -49 -76 -49q-23 0 -38 13.5t-15 31.5z" />
<glyph unicode="(" d="M623 268q0 410 342 852q82 104 122.5 139t83.5 35q37 0 60.5 -22.5t23.5 -57.5q0 -41 -41 -90q-188 -227 -275 -427.5t-87 -409.5q0 -203 92 -430q12 -29 12 -45q0 -49 -38.5 -87t-88.5 -38q-51 0 -71 39q-57 96 -96 252.5t-39 289.5z" />
<glyph unicode=")" d="M193 -233q0 41 40 90q193 231 278 428.5t85 410.5q0 197 -92 428q-12 27 -12 45q0 49 37.5 87t89 38t71.5 -39q57 -96 96 -252.5t39 -289.5q0 -213 -80.5 -416t-261.5 -436q-80 -102 -122 -138t-85 -36q-37 0 -60 22.5t-23 57.5z" />
<glyph unicode="*" d="M365 903q0 47 37.5 86t84.5 39q16 0 64 -14l164 -58l39 183q31 139 131 139q35 0 58.5 -24.5t23.5 -59.5q0 -20 -9 -55l-38 -183l188 58q53 14 72 14q33 0 55 -23.5t22 -58.5q0 -88 -127 -127l-188 -57l76 -146q23 -45 22 -69q0 -45 -39.5 -83t-87.5 -38q-31 0 -48 13.5 t-40 56.5l-73 147l-140 -147q-39 -43 -61.5 -56.5t-52.5 -13.5q-37 0 -60.5 23.5t-23.5 58.5q0 43 59 108l137 146l-164 57q-47 16 -64 33.5t-17 50.5z" />
<glyph unicode="+" d="M207 553q0 53 47 94q37 29 113 29h290l70 336q31 135 133 135q35 0 58.5 -22.5t23.5 -55.5q0 -18 -10 -57l-70 -336h289q53 0 72 -8q45 -16 45 -74q0 -51 -47 -92q-37 -31 -113 -31h-291l-69 -336q-14 -68 -39 -92q-39 -43 -93 -43q-35 0 -58 21.5t-23 54.5q0 23 8 59 l69 336h-288q-63 0 -90 18.5t-27 63.5z" />
<glyph unicode="," d="M242 -278.5q0 18.5 16 51.5l246 501h272l-405 -548q-37 -49 -76 -50q-23 0 -38 13.5t-15 32z" />
<glyph unicode="-" d="M207 551q0 51 47 92q35 31 113 31h784q49 0 72 -8q18 -6 31.5 -28t13.5 -44q0 -53 -47 -94q-37 -31 -113 -31h-784q-63 0 -90 18.5t-27 63.5z" />
<glyph unicode="." d="M479 78q0 61 52.5 111.5t115.5 50.5h35q49 0 80 -30t31 -77q0 -63 -51 -113.5t-117 -50.5h-35q-49 0 -80 31t-31 78z" />
<glyph unicode="/" d="M141 -152q0 37 43 97l953 1388q35 51 61.5 70.5t63.5 19.5q35 0 58 -22.5t23 -57.5q1 -33 -40 -94l-953 -1390q-35 -51 -61.5 -70.5t-63.5 -19.5q-35 0 -59.5 23.5t-24.5 55.5z" />
<glyph unicode="0" d="M266 367q0 88 19 174l41 194q61 287 258 459q129 113 309 113q164 0 252 -103.5t88 -294.5q-1 -88 -19 -174l-40 -194q-61 -287 -259 -459q-131 -113 -309 -113q-164 0 -252 103.5t-88 294.5zM473 399q0 -106 47 -165.5t131 -59.5q109 0 195 96.5t119 255.5l47 224 q14 57 14 127q0 106 -47 165.5t-131 59.5q-109 0 -195 -96t-121 -256l-45 -224q-14 -57 -14 -127z" />
<glyph unicode="1" d="M190 82q0 51 48 92q35 31 112 31h207l176 837l-186 -47q-51 -12 -70 -12q-33 0 -53.5 22.5t-20.5 59.5q0 53 31 83t103 46l458 113l-235 -1102h207q49 0 71 -8q18 -6 31.5 -28t13.5 -44q0 -53 -47 -94q-39 -31 -112 -31h-617q-63 0 -90 19.5t-27 62.5z" />
<glyph unicode="2" d="M111 0l45 215q442 311 561 401q203 156 255 213.5t52 123t-56.5 107.5t-142.5 42q-129 0 -217 -84q-27 -25 -65 -94q-31 -59 -105 -60q-35 0 -59.5 22.5t-24.5 55.5q0 47 51.5 122t122.5 130q147 113 344 113q160 0 260.5 -88.5t100.5 -227.5q0 -147 -105 -270 q-82 -92 -407 -334l-254 -182h414q31 111 125 110q35 0 58 -22.5t23 -54.5q0 -10 -8 -58l-39 -180h-929z" />
<glyph unicode="3" d="M164 119q0 51 38 89t89 38q27 0 59 -25q61 -47 236 -47q197 0 286 70q88 68 89 168q0 43 -33 85t-86 66q-47 18 -152 25q-88 6 -88 76q0 47 39 83.5t90 36.5h84q86 0 154.5 59.5t68.5 133.5q0 57 -53 91t-145 34q-86 0 -141.5 -20.5t-116.5 -73.5q-35 -31 -78 -31 q-35 0 -58.5 23.5t-23.5 56.5q0 96 147.5 173t327.5 77q162 0 256 -80t94 -213q0 -201 -235 -326q-4 0 -15 -6q172 -94 172 -250q0 -74 -44 -162t-113 -151q-86 -80 -194.5 -115t-268.5 -35q-172 0 -278.5 42t-106.5 108z" />
<glyph unicode="4" d="M213 283l37 170l668 825h268l-168 -791q106 0 106 -81q0 -51 -47 -93q-37 -31 -102 -30l-17 -78q106 0 107 -82q0 -51 -47 -92q-39 -31 -115 -31h-270q-63 0 -90 19.5t-27 62.5q0 51 47 92q39 31 113 31h78l16 78h-557zM508 487h305l107 496z" />
<glyph unicode="5" d="M170 147q0 49 39 87t88 38q35 0 65 -30q39 -39 90.5 -53.5t151.5 -14.5q221 0 309 117q61 80 62 192q0 82 -49 131.5t-133 49.5q-109 0 -265 -70q-39 -16 -59 -16q-35 0 -58.5 22.5t-23.5 54.5v9q0 4 4 28l125 586h617q117 0 116 -84q0 -53 -47 -94q-33 -31 -112 -31 h-414l-49 -235q123 35 213 34q156 0 250 -95t94 -251q0 -203 -135 -360q-88 -100 -203 -146.5t-285 -46.5q-168 0 -279.5 51.5t-111.5 126.5z" />
<glyph unicode="6" d="M315 369q0 303 158 538q135 195 342 310q162 90 330 90q96 0 154.5 -31t58.5 -82q0 -47 -40 -86t-89 -39q-29 0 -70 16q-25 10 -47 11q-139 0 -283.5 -98.5t-224.5 -247.5q-12 -25 -39 -86q170 143 312 143q133 0 223 -91t90 -229q0 -193 -129 -344q-147 -174 -389 -174 q-356 0 -357 400zM535 397q0 -109 45 -172q45 -51 141 -51q131 0 201 100q57 76 57 164q0 70 -45 117t-112.5 47t-146.5 -48t-138 -126q-2 -14 -2 -31z" />
<glyph unicode="7" d="M377 1036q0 23 8 58l39 184h887l-43 -209l-533 -971q-31 -55 -60.5 -76.5t-70.5 -21.5q-35 0 -59.5 22.5t-24.5 53.5q0 29 33 90l498 903h-467q-31 -111 -125 -111q-35 0 -58.5 23t-23.5 55z" />
<glyph unicode="8" d="M233 264q0 238 275 389q-129 100 -129 226q0 70 41 149.5t108 138.5q152 139 363 140q156 0 255 -86t99 -220q0 -203 -248 -348q141 -98 142 -247q0 -147 -117 -275q-70 -74 -182.5 -118t-235.5 -44q-172 0 -271.5 79t-99.5 216zM446 324q0 -70 55.5 -110t149.5 -40 q117 0 200 61.5t83 147.5q0 68 -57.5 112t-145.5 44q-115 0 -200 -64.5t-85 -150.5zM584 887q0 -63 51 -102.5t135 -39.5q109 0 186.5 61.5t77.5 147.5q0 70 -50 109t-138 39q-111 0 -186.5 -62.5t-75.5 -152.5z" />
<glyph unicode="9" d="M236 82q0 47 39.5 86t89.5 39q29 0 69 -17q25 -10 47 -10q139 0 283.5 98.5t224.5 247.5q12 25 39 86q-168 -143 -311 -143q-133 0 -223.5 91t-90.5 228q0 193 129 345q150 174 390 174q356 0 356 -400q0 -301 -158 -538q-135 -195 -342 -310q-162 -90 -329 -90 q-96 0 -154.5 31t-58.5 82zM614 836q0 -70 45.5 -116t113 -46t148.5 49t138 125v29q0 115 -45 174q-45 51 -142 51q-131 0 -200 -101q-57 -82 -58 -165z" />
<glyph unicode=":" d="M479 78q0 61 52.5 111.5t115.5 50.5h35q49 0 80 -30t31 -77q0 -63 -51 -113.5t-117 -50.5h-35q-49 0 -80 31t-31 78zM618 731q0 63 51.5 113.5t116.5 50.5h35q49 0 80 -30.5t31 -78.5q0 -63 -51 -113t-117 -50h-35q-49 0 -80 30.5t-31 77.5z" />
<glyph unicode=";" d="M242 -278.5q0 18.5 16 51.5l248 501h270l-405 -548q-37 -49 -76 -50q-23 0 -38 13.5t-15 32zM569 731q0 68 54.5 116t130.5 48q129 0 129 -109q0 -70 -54.5 -116.5t-132.5 -46.5q-127 0 -127 108z" />
<glyph unicode="&#x3c;" d="M209 573l973 435q40 18 65 18q29 0 48.5 -22.5t19.5 -55.5q0 -66 -86 -104l-592 -273l475 -278q49 -31 49 -70q0 -41 -35.5 -76.5t-72.5 -35.5q-27 0 -58 18z" />
<glyph unicode="=" d="M166 365q0 53 47 94q37 28 113 28h784q53 0 72 -8q45 -16 45 -73q0 -55 -47 -93q-37 -31 -113 -30h-784q-63 0 -90 18t-27 64zM246 741q0 53 47 95q35 28 113 28h784q53 0 72 -8q45 -16 45 -74q0 -51 -47 -92q-35 -31 -113 -31h-785q-63 0 -89.5 18.5t-26.5 63.5z" />
<glyph unicode="&#x3e;" d="M156 186q0 66 86 105l592 272l-476 281q-49 27 -49 67q0 39 36 76t73 37q27 0 57 -18l787 -445l-973 -434q-39 -18 -66 -18q-29 0 -48 22.5t-19 54.5z" />
<glyph unicode="?" d="M403 883q1 24 9 59l34 162q168 72 257.5 96.5t189.5 24.5q164 0 258 -81t94 -222q0 -176 -125 -289q-100 -86 -299 -166q-37 -111 -127 -111q-33 0 -57.5 22.5t-24.5 53.5q0 20 11 60l22 114q231 82 311 137.5t80 133.5q0 68 -49 105.5t-137 37.5q-117 0 -227 -49 l-11 -29q-16 -74 -34 -92q-39 -43 -95 -43q-35 0 -57.5 21.5t-22.5 54.5zM483 78q0 61 52.5 111.5t115.5 50.5h37q47 0 78 -30t31 -77q0 -63 -51.5 -113.5t-114.5 -50.5h-37q-49 0 -80 31t-31 78z" />
<glyph unicode="@" d="M201 121q0 100 20 194l74 347q57 264 224 436t368 172q139 0 222 -82t83 -219q0 -39 -10 -90l-123 -576q35 -16 35 -53q0 -45 -39 -78q-29 -25 -94 -25h-150q-123 0 -198.5 70t-75.5 184q0 158 137 279t334 135l12 64q6 31 6 59q0 78 -46 124t-126 46q-129 0 -243.5 -132 t-155.5 -329l-68 -317q-20 -90 -20 -170q0 -186 84 -264q49 -47 141 -48q150 0 225 66q43 35 72 35t47 -18.5t18 -47.5q0 -78 -121.5 -136t-281.5 -58q-195 0 -279 137q-72 119 -71 295zM702 432q0 -51 40 -85t104 -34q26 0 55 4l70 330q-115 -10 -192 -71.5t-77 -143.5z " />
<glyph unicode="A" d="M-23 82q0 55 48 92q39 31 114 31l484 784h-129q-63 0 -90 18.5t-27 63.5q0 53 47 94q35 29 113 29h442l199 -989q49 0 73 -8q45 -16 45 -74q0 -55 -47 -92q-35 -31 -112 -31h-285q-61 0 -88 18.5t-27 63.5q0 51 47 92q35 31 113 31h47l-22 119h-488l-74 -119h48 q49 0 71 -8q45 -14 45 -74q0 -51 -47 -92q-35 -31 -112 -31h-271q-63 0 -90 18.5t-27 63.5zM559 528h322l-78 394z" />
<glyph unicode="B" d="M45 82q0 51 47 92q35 31 113 31h31l165 784h-30q-63 0 -89 18.5t-26 63.5q0 51 47 94q37 29 113 29h516q170 0 260 -90q78 -78 78 -186q0 -170 -187 -293q162 -88 162 -238q0 -143 -121 -258q-135 -129 -358 -129h-604q-63 0 -90 19.5t-27 62.5zM440 205h359 q233 0 233 135q0 72 -68.5 114t-185.5 42h-276zM545 700h231q121 0 203 52.5t82 130.5q0 51 -48 78.5t-134 27.5h-273z" />
<glyph unicode="C" d="M164 399q0 55 12 111l29 135q53 246 247.5 412t432.5 166q143 0 276 -70l19 -8q49 49 96 49q35 0 58.5 -22.5t23.5 -55.5q0 -23 -8 -57l-37 -172q-16 -70 -39 -92q-39 -43 -92 -43q-35 0 -57.5 21.5t-22.5 53.5v4l2 39v4q0 57 -77 100.5t-177 43.5q-158 0 -283 -105.5 t-157 -267.5l-29 -131q-8 -35 -8 -76q0 -121 91 -191.5t247 -70.5q147 0 237 47q31 18 92 70q41 33 80 33q35 0 59.5 -25t24.5 -59q0 -57 -78 -121q-178 -150 -462 -150q-227 0 -363.5 117t-136.5 311z" />
<glyph unicode="D" d="M47 82q0 51 47 92q37 31 103 31l165 784q-104 0 -104 82q0 51 47 94q37 29 113 29h436q188 0 304 -121t116 -317q0 -72 -14 -131l-21 -97q-47 -225 -221 -374q-178 -154 -434 -154h-420q-63 0 -90 19.5t-27 62.5zM401 205h226q164 0 274 90q102 88 135 240l21 94 q8 39 8 88q0 143 -92 219q-59 53 -180 53h-226z" />
<glyph unicode="E" d="M47 82q0 55 47 92q35 31 113 31h31l165 784h-30q-63 0 -90 18.5t-27 63.5q0 55 49 94q33 29 113 29h917l-65 -307q-14 -70 -39 -94q-39 -43 -92 -43q-35 0 -58.5 22.5t-23.5 54.5q0 25 8 60l22 102h-479l-61 -289h174q10 78 41 109q43 43 92 43q35 0 58.5 -22.5 t23.5 -55.5q0 -18 -8 -59l-51 -232q-14 -68 -39 -94q-41 -41 -90 -41q-35 0 -58.5 21.5t-23.5 54.5q0 29 12 74h-174l-62 -293h523l24 106q12 68 39 95q37 43 90 43q35 0 59.5 -21.5t24.5 -54.5q0 -12 -8 -62l-68 -311h-962q-117 0 -117 82z" />
<glyph unicode="F" d="M47 82q0 51 47 92q39 31 113 31h31l165 784h-30q-63 0 -90 18.5t-27 63.5q0 51 47 94q35 29 115 29h962l-65 -309q-14 -68 -39 -92q-43 -43 -92 -43q-35 0 -58.5 21.5t-23.5 53.5q0 14 8 60l23 104h-525l-61 -289h172l4 15q12 61 39 92q39 43 92 43q35 0 58.5 -22.5 t23.5 -55.5q0 -18 -10 -57l-49 -232q-12 -68 -39 -94q-39 -43 -93 -43q-35 0 -57 21.5t-22 54.5q0 35 12 76h-174l-62 -293h203q49 0 72 -8q45 -14 45 -72q0 -53 -47 -94q-39 -31 -113 -31h-438q-63 0 -90 19.5t-27 62.5z" />
<glyph unicode="G" d="M162 377q0 68 14 127l31 145q51 246 260 416q195 158 442 158q168 0 285 -66q43 66 96 66q33 0 54.5 -21.5t21.5 -54.5q0 -20 -8 -60l-35 -159q-14 -68 -39 -92q-39 -43 -92 -43q-47 0 -64 30q-10 14 -14 78q-4 53 -69.5 85t-178.5 32q-170 0 -296 -101.5t-158 -267.5 l-29 -131q-12 -59 -12 -110q0 -111 86 -171.5t243 -60.5q141 0 271 51l28 142h-202q-63 0 -90 18.5t-27 63.5q0 53 47 94q34 28 108 28h5h358q59 0 88 -16t29 -63q0 -94 -111 -125l-57 -271q-154 -74 -254 -100.5t-223 -26.5q-227 0 -365 95q-143 96 -143 311z" />
<glyph unicode="H" d="M66 82q0 51 47 92q35 31 112 31h13l165 784q-86 6 -86 82q0 51 48 94q37 29 112 29h205q49 0 72 -8q45 -14 45 -71.5t-47 -94.5q-39 -31 -113 -31h-31l-61 -291h438l62 291h-31q-57 0 -86 17.5t-29 64.5q0 51 47 94q33 29 113 29h205q49 0 71 -8q45 -14 45 -72 q0 -51 -36.5 -86t-94.5 -39l-166 -784h13q47 0 69 -8q45 -14 45 -74q0 -51 -47 -92q-33 -31 -110 -31h-248q-63 0 -90 18.5t-27 63.5q0 51 47 92q39 31 113 31h31l61 289h-438l-62 -289h29q59 0 88 -17.5t29 -64.5q0 -51 -47 -92q-37 -31 -113 -31h-248q-61 0 -87.5 18.5 t-26.5 63.5z" />
<glyph unicode="I" d="M190 82q0 51 48 92q35 31 112 31h207l166 784h-207q-63 0 -89 18.5t-26 63.5q0 55 48 92q35 31 112 31h617q49 0 71 -8q18 -6 31.5 -27.5t13.5 -44.5q0 -57 -47 -94q-39 -31 -112 -31h-207l-166 -784h205q49 0 71 -8q45 -14 45 -72q0 -53 -47 -94q-37 -31 -112 -31h-617 q-63 0 -90 18.5t-27 63.5z" />
<glyph unicode="J" d="M131 104l70 332q14 68 41 94q39 43 92 43q35 0 58.5 -21.5t23.5 -53.5q0 -10 -8 -62l-43 -196q129 -63 225 -64q117 0 211 74q41 33 54 59.5t28 96.5l125 583h-244q-63 0 -90 18.5t-27 63.5q0 51 47 94q35 29 113 29h565q61 0 89 -17.5t28 -64.5q0 -55 -47 -92 q-37 -31 -113 -31h-117l-129 -606q-23 -102 -65.5 -167.5t-128.5 -127.5q-158 -117 -344 -117q-172 0 -414 133z" />
<glyph unicode="K" d="M45 82q0 51 47 92q35 31 113 31h31l165 784h-30q-63 0 -89 18.5t-26 63.5q0 51 47 94q35 29 113 29h305q61 0 89 -17.5t28 -64.5q0 -55 -47 -92q-37 -31 -113 -31h-72l-63 -305l430 313q-47 18 -47 68q0 59 49 98q33 31 110 31h207q59 0 87 -16.5t28 -63.5q0 -53 -47 -94 q-37 -31 -105 -31l-428 -313q84 -49 149.5 -172t98.5 -299h66q47 0 71 -8q18 -6 31.5 -28t13.5 -44q0 -57 -47 -94q-39 -31 -114 -31h-224q-27 219 -90 360.5t-151 169.5l-144 -104l-47 -221h72q47 0 70 -8q45 -14 45 -74q0 -51 -47 -92q-37 -31 -113 -31h-305 q-63 0 -90 19.5t-27 62.5z" />
<glyph unicode="L" d="M86 82q0 55 47 92q35 31 113 31h116l166 784h-114q-63 0 -90 18.5t-27 63.5q0 53 47 94q37 29 113 29h436q61 0 89 -17.5t28 -64.5q0 -55 -47 -92q-39 -31 -113 -31h-117l-166 -784h441l41 188q12 68 38 94q39 43 93 43q35 0 58.5 -22.5t23.5 -54.5q0 -18 -9 -60 l-84 -393h-966q-63 0 -90 19.5t-27 62.5z" />
<glyph unicode="M" d="M-20 82q0 55 47 92q37 31 102 31l166 784q-86 8 -86 82q0 53 47 94q37 29 113 29h221l153 -608l408 608h223q49 0 72 -8q45 -14 45 -72q0 -47 -35 -82q-35 -39 -96 -43l-166 -784q104 0 104 -80q0 -57 -47 -94q-39 -31 -112 -31h-265q-63 0 -89.5 18.5t-26.5 63.5 q0 51 47 92q35 31 113 31h71l125 592l-336 -514h-186l-133 514l-125 -592h72q47 0 69 -8q45 -14 45 -72q0 -53 -47 -94q-39 -31 -113 -31h-264q-63 0 -89.5 18.5t-26.5 63.5z" />
<glyph unicode="N" d="M43 82q0 51 47 92q37 31 103 31l165 784h-30q-63 0 -89 18.5t-26 63.5q0 51 47 92q35 31 113 31h233l359 -803l127 598h-72q-63 0 -89 18.5t-26 63.5q0 51 47 94q35 29 111 29h266q61 0 89 -17.5t28 -64.5q0 -51 -47 -92q-35 -31 -103 -31l-211 -989h-200l-361 807 l-127 -602h72q47 0 70 -8q45 -14 45 -72q0 -53 -47 -94q-37 -31 -113 -31h-264q-63 0 -90 18.5t-27 63.5z" />
<glyph unicode="O" d="M154 451q0 141 58 283.5t161 250.5q104 109 239 173.5t260 64.5q197 0 327 -135.5t130 -337.5q0 -309 -221 -541q-106 -111 -239.5 -174.5t-260.5 -63.5q-195 0 -324.5 137.5t-129.5 342.5zM365 498q0 -139 80.5 -230.5t203.5 -91.5q180 0 324.5 162t144.5 362 q0 137 -82 227.5t-207 90.5q-176 0 -320 -162t-144 -358z" />
<glyph unicode="P" d="M47 82q0 51 47 92q37 31 113 31h31l165 784h-30q-63 0 -90 18.5t-27 63.5q0 51 47 94q35 29 113 29h477q172 0 271.5 -83t99.5 -228q0 -158 -121 -291q-86 -98 -190.5 -140t-266.5 -42h-201l-43 -205h201q49 0 72 -8q18 -6 31.5 -28t13.5 -44q0 -57 -47 -94 q-37 -31 -113 -31h-436q-63 0 -90 19.5t-27 62.5zM528 614h242q121 0 196.5 65.5t75.5 168.5q0 66 -51 103.5t-141 37.5h-242z" />
<glyph unicode="Q" d="M154 451q0 195 102 374t269 288.5t349 109.5q197 0 326 -136.5t129 -343.5q0 -184 -93 -350t-261 -284q-172 -123 -389 -123h-35l-16 -47q63 10 104 10q76 0 168 -27q53 -14 82 -14q37 0 94 31q57 34 88 34h2q37 0 60.5 -22.5t23.5 -56.5q0 -63 -59 -103 q-131 -88 -252 -88q-55 0 -150 41q-41 16 -92 16q-86 0 -270 -43q-57 -14 -60 -14q-31 0 -54 25.5t-23 58.5q0 55 59 104l154 123q-86 55 -130 98.5t-71 94.5q-55 111 -55 244zM362 496q0 -137 82 -229.5t205 -92.5q180 0 324.5 162t144.5 364q0 137 -82 227.5t-207 90.5 q-176 0 -321.5 -162t-145.5 -360z" />
<glyph unicode="R" d="M47 82q0 51 47 92q39 31 113 31h31l165 784h-30q-63 0 -89 18.5t-26 63.5q0 51 47 94q37 29 113 29h456q176 0 277.5 -80t101.5 -219q0 -229 -292 -375q106 -115 188 -315h27q66 0 91 -18.5t25 -63.5q0 -51 -47 -92q-37 -31 -112 -31h-160q-47 152 -134 292t-147 163 h-196l-54 -250h72q59 0 87 -17.5t28 -64.5q0 -51 -47 -92q-37 -31 -113 -31h-305q-63 0 -90 18.5t-27 63.5zM539 659h155q139 0 238.5 58.5t99.5 142.5q0 57 -53 93t-141 36h-230z" />
<glyph unicode="S" d="M147 78q0 10 9 59l28 135q31 135 133 136q43 0 66 -29q10 -14 14 -69.5t80 -94.5t176 -39q127 0 218.5 52.5t91.5 125.5q0 45 -41 76q-41 33 -215 66q-172 29 -250 79q-115 78 -115 213q0 178 155.5 306.5t372.5 128.5q160 0 252 -68q43 68 95 68q37 0 59 -20.5t22 -53.5 q0 -13 -8 -62l-39 -180q-14 -68 -39 -94q-43 -43 -92 -43q-43 0 -67 31q-10 14 -13 80q0 61 -58 99t-155 38q-109 0 -188.5 -53.5t-79.5 -122.5q0 -49 41 -84q20 -18 54 -28.5t153 -33.5q154 -31 225 -63q147 -70 148 -225q0 -188 -158 -312.5t-395 -124.5q-168 0 -303 80 q-57 -51 -95 -51q-35 0 -58.5 22.5t-23.5 55.5z" />
<glyph unicode="T" d="M248 739q0 27 8 60l84 395h1057l-84 -395q-14 -68 -39 -92q-39 -43 -92 -43q-35 0 -58.5 21.5t-23.5 53.5q0 25 8 60l41 190h-223l-168 -784h135q59 0 88 -16.5t29 -63.5q0 -53 -47 -94q-39 -31 -113 -31h-473q-115 0 -115 82q0 51 47 92q35 31 113 31h131l168 784h-219 l-41 -190q-14 -68 -39 -92q-43 -43 -92 -43q-33 0 -57.5 22.5t-24.5 52.5z" />
<glyph unicode="U" d="M225 324q0 39 11 96l120 569q-104 0 -104 82q0 53 47 94q35 29 113 29h266q53 0 70 -8q45 -14 45 -71.5t-48 -94.5q-37 -31 -112 -31h-72l-125 -588q-4 -29 -4 -41q0 -80 62.5 -132t158.5 -52q109 0 200 65.5t112 159.5l125 588h-72q-63 0 -89 18.5t-26 63.5q0 51 47 94 q37 29 113 29h264q49 0 72 -8q45 -15 45 -72q0 -55 -42 -90t-108 -35l-120 -569q-39 -190 -202 -319.5t-362 -129.5q-168 0 -276.5 100.5t-108.5 252.5z" />
<glyph unicode="V" d="M186 1071q0 53 47 94q37 29 113 29h272q59 0 87 -17.5t28 -64.5q0 -51 -47 -92q-35 -31 -113 -31h-38l147 -694l444 694h-51q-47 0 -69 8q-45 16 -45 74q0 53 47 94q37 29 112 29h269q59 0 87.5 -17.5t28.5 -64.5q0 -70 -69 -108q-27 -14 -95 -15l-630 -989h-201 l-205 989h-24q-94 6 -95 82z" />
<glyph unicode="W" d="M201 0l84 989q-76 8 -76 74q0 59 49 102q35 29 111 29h270q59 0 88 -17.5t29 -64.5q0 -55 -47 -92q-39 -31 -115 -31h-98l-43 -557l254 463h211l57 -463l192 557h-110q-63 0 -89 18.5t-26 63.5q0 51 47 94q33 29 113 29h266q49 0 72 -8q45 -14 45 -72q0 -47 -33 -81 t-86 -44l-334 -989h-225l-72 567l-307 -567h-227z" />
<glyph unicode="X" d="M39 82q0 53 40 88t103 35l428 405l-243 379q-98 2 -99 82q0 53 47 94q37 29 113 29h186q47 0 72 -8q18 -6 31.5 -26.5t13.5 -45.5q0 -78 -100 -125l145 -221l238 221q-35 20 -46.5 36.5t-11.5 45.5q0 51 48 94q39 29 112 29h184q49 0 72 -8q45 -14 45 -72q0 -53 -40 -88 t-101 -37l-402 -381l256 -403q100 0 101 -82q0 -51 -47 -92q-37 -31 -113 -31h-225q-63 0 -90 18.5t-27 63.5t35 80q33 37 102 43l-155 246l-262 -246q92 -4 92 -82q0 -55 -47 -92q-35 -31 -113 -31h-225q-63 0 -90 18.5t-27 63.5z" />
<glyph unicode="Y" d="M262 82q0 55 47 92q35 31 113 31h135l61 297l-233 487h-12q-98 0 -99 82q0 55 48 92q35 31 112 31h184q47 0 70 -8q45 -14 45 -72q0 -84 -102 -125l135 -276l252 276q-61 25 -62 82q0 51 48 94q37 29 112 29h191q47 0 69 -8q45 -14 45 -72q0 -53 -47 -94 q-35 -31 -104 -31h-6l-441 -487l-61 -297h133q49 0 72 -8q45 -14 45 -71.5t-47 -94.5q-39 -31 -113 -31h-473q-63 0 -90 19.5t-27 62.5z" />
<glyph unicode="Z" d="M150 0l43 205l784 784h-365l-30 -143q-16 -70 -39 -92q-43 -43 -94 -43q-33 0 -57.5 22.5t-24.5 52.5q0 20 10 60l74 348h835l-43 -199l-788 -790h463l32 147q12 66 39 94q41 41 92 41q35 0 58.5 -22.5t23.5 -54.5q0 -18 -8 -58l-76 -352h-929z" />
<glyph unicode="[" d="M449 -303l337 1587h324q53 0 70 -6q45 -16 45 -74q0 -53 -47 -94q-35 -31 -113 -31h-119l-250 -1177h121q59 0 88 -16.5t29 -63.5q0 -53 -47 -94q-35 -31 -113 -31h-325z" />
<glyph unicode="\" d="M449 1303q0 45 38.5 82.5t85.5 37.5q37 0 55.5 -19.5t30.5 -70.5l363 -1388q10 -37 10 -56q0 -45 -39 -82.5t-86 -37.5q-39 0 -57.5 19t-30.5 71l-360 1390q-10 33 -10 54z" />
<glyph unicode="]" d="M213 -223q0 53 47 94q35 31 113 31h119l249 1177h-120q-59 0 -88 16.5t-29 63.5q0 53 47 94q35 31 113 31h325l-338 -1587h-323q-47 0 -70 8q-45 16 -45 72z" />
<glyph unicode="^" d="M330 748q0 47 65 110l502 477l299 -477q29 -45 29 -72q0 -45 -40 -82.5t-87 -37.5q-29 0 -45.5 11t-40.5 50l-185 285l-301 -283q-43 -41 -63.5 -52t-48.5 -11q-37 0 -60.5 23.5t-23.5 58.5z" />
<glyph unicode="_" d="M-125 -154h1280v-102h-1280v102z" />
<glyph unicode="`" d="M772 1233h270l52 -424v-16q0 -33 -22.5 -56.5t-55.5 -23.5t-55 49z" />
<glyph unicode="a" d="M133 201q0 90 82 188q168 201 494 201q92 0 206 -21l13 47v21q0 80 -172 80q-100 0 -246 -35q-51 -12 -86 -12t-56.5 22.5t-21.5 57.5q0 74 68 104q51 25 174 46.5t209 21.5q160 0 252 -62.5t92 -169.5q0 -39 -8 -72l-89 -413h35q47 0 70 -8q45 -14 45 -72q0 -53 -47 -94 q-33 -31 -113 -31h-239l10 47q-170 -80 -356 -80q-137 0 -226.5 66.5t-89.5 167.5zM356 242q0 -29 40 -49.5t98 -20.5q169 0 362 104l21 103q-118 22 -214 22h-8q-150 0 -249 -82q-49 -43 -50 -77z" />
<glyph unicode="b" d="M0 82q0 49 51 92q37 31 113 31h33l184 868h-33q-63 0 -90 18.5t-27 63.5q0 53 48 94q37 29 112 29h238l-99 -457q152 102 326 103q193 0 291 -86q129 -106 129 -287q0 -221 -168 -393q-184 -186 -451 -187q-162 0 -284 101l-17 -72h-237q-119 0 -119 82zM446 395.5 q0 -102.5 68 -161t188 -58.5q178 0 287 133q76 92 76 191q0 113 -86 176q-55 43 -170 43q-176 0 -287 -133q-76 -88 -76 -190.5z" />
<glyph unicode="c" d="M190 319q0 102 44.5 208t121.5 190q188 205 478 205q174 0 280 -62q29 61 90 62q78 0 78 -78q0 -15 -8 -58l-33 -157q-16 -70 -41 -94q-41 -41 -92 -41q-43 0 -68 28q-14 16 -14 70q0 49 -31 74q-74 51 -207 51q-195 0 -309 -139q-80 -100 -80 -213q0 -193 314 -193 q123 0 192.5 18.5t143.5 71.5q33 25 67.5 25t58 -23.5t23.5 -60.5q0 -66 -84 -123q-162 -113 -465 -113q-225 0 -334 86q-125 96 -125 266z" />
<glyph unicode="d" d="M152 344q0 221 167 393q184 186 455 187q176 0 285 -103l53 254h-33q-59 0 -87.5 17.5t-28.5 64.5q0 51 47 92q35 29 112 29h238l-227 -1073h32q59 0 87 -17.5t28 -64.5q0 -55 -47 -92q-37 -31 -113 -31h-237l16 72q-168 -100 -330 -101q-188 0 -288 86 q-129 106 -129 287zM362 395q0 -102 68 -160.5t188 -58.5q180 0 291 133q76 92 76 191q0 113 -86 176q-55 43 -174 43q-176 0 -287 -133q-76 -92 -76 -191z" />
<glyph unicode="e" d="M152 346q0 229 193.5 402.5t447.5 173.5q199 0 317.5 -106.5t118.5 -285.5q0 -43 -10 -98l-17 -80h-837q33 -180 301 -180q106 0 344 57q45 10 71 11q35 0 56.5 -21.5t21.5 -56.5q0 -70 -67 -105q-66 -35 -216.5 -62.5t-273.5 -27.5q-209 0 -329.5 101.5t-120.5 277.5z M410 532h604q-8 84 -80 134.5t-182 50.5q-115 0 -207 -50.5t-135 -134.5z" />
<glyph unicode="f" d="M172 82q0 51 47 92q35 31 113 31h119l102 485h-94q-66 0 -92.5 18.5t-26.5 63.5q0 53 47 94q37 29 115 29h94l16 76q31 141 155 224t308 83q156 0 273 -35q67 -18 67 -74q0 -49 -38 -88t-83 -39q-18 0 -55 7q-108 22 -218 22h-9q-170 0 -195 -100l-14 -76h307q49 0 72 -8 q45 -14 45 -74q0 -51 -47 -92q-37 -31 -113 -31h-309l-103 -485h285q49 0 72 -8q45 -14 45 -72q0 -53 -47 -94q-39 -31 -113 -31h-610q-115 0 -115 82z" />
<glyph unicode="g" d="M150 344q0 229 180 404.5t418 175.5q168 0 266 -103l14 74h240q59 0 86.5 -17.5t27.5 -64.5q0 -53 -47 -94q-33 -29 -112 -29h-33l-156 -731q-33 -162 -168 -270.5t-305 -108.5h-227q-63 0 -90 18.5t-27 63.5q0 55 47 92q35 31 113 31h223q88 0 150.5 47t78.5 127l25 113 q-160 -100 -311 -101q-174 0 -283.5 103.5t-109.5 269.5zM360 395q0 -96 64.5 -157.5t167.5 -61.5q135 0 241.5 99.5t106.5 224.5q0 96 -65.5 157.5t-167.5 61.5q-133 0 -240 -99.5t-107 -224.5z" />
<glyph unicode="h" d="M68 82q0 51 47 92q39 31 112 31h13l184 868h-33q-63 0 -90 18.5t-27 63.5q0 53 48 94q37 29 112 29h238l-103 -481q150 125 308 125q135 0 217 -70t82 -186q0 -45 -9 -84l-82 -377h13q49 0 71 -8q45 -16 45 -74q0 -51 -47 -92q-37 -31 -112 -31h-230q-63 0 -89.5 18.5 t-26.5 63.5q0 51 47 92q39 31 114 31h13l73 350q8 33 9 63q0 45 -42 72t-112 27q-74 0 -128 -25.5t-159 -111.5l-80 -375h13q47 0 71 -8q45 -18 45 -73.5t-47 -92.5q-35 -31 -114 -31h-230q-61 0 -87.5 18.5t-26.5 63.5z" />
<glyph unicode="i" d="M147 82q0 51 48 92q35 31 112 31h250l102 485h-159q-66 0 -92.5 18.5t-26.5 63.5q0 55 47 92q35 31 115 31h364l-145 -690h248q49 0 71 -8q45 -14 45 -74q0 -51 -47 -92q-39 -31 -112 -31h-703q-63 0 -90 18.5t-27 63.5zM672 1061l47 217h242l-48 -217h-241z" />
<glyph unicode="j" d="M170 -338q0 51 47 92q35 31 113 31h225q90 0 152.5 47t78.5 127l156 731h-414q-63 0 -89.5 18.5t-26.5 63.5q0 51 47 92q35 31 112 31h619l-199 -936q-33 -162 -169 -270.5t-304 -108.5h-231q-63 0 -90 18.5t-27 63.5zM862 1061l45 217h246l-47 -217h-244z" />
<glyph unicode="k" d="M86 82q0 51 47 92q35 31 113 31h33l184 868h-33q-59 0 -88 16.5t-29 63.5q0 55 47 96q37 29 113 29h238l-148 -690l189 129q-16 31 -17 53q0 57 47 94q37 31 113 31h229q63 0 90 -18.5t27 -61.5q0 -53 -47 -94q-39 -31 -113 -31h-55l-285 -196l267 -289h67q59 0 88 -17.5 t29 -64.5q0 -51 -47 -92q-35 -31 -113 -31h-241q-63 0 -90 18.5t-27 63.5q0 51 51 96l-172 187l-43 -29l-70 -336h-239q-61 0 -88 18.5t-27 63.5z" />
<glyph unicode="l" d="M147 82q0 51 48 92q35 31 112 31h250l184 868h-161q-51 0 -70 8q-20 6 -33.5 27.5t-13.5 46.5q0 55 49 94q37 29 113 29h364l-227 -1073h248q49 0 71 -8q45 -14 45 -74q0 -51 -47 -92q-39 -31 -112 -31h-703q-63 0 -90 18.5t-27 63.5z" />
<glyph unicode="m" d="M-18 82q0 53 42 88t105 35l102 485q-104 0 -104 82q0 53 49 92q37 31 113 31h190l-10 -49q111 76 190 76q119 0 187 -101q115 100 233 101q96 0 157.5 -57.5t61.5 -147.5q0 -29 -6 -64l-96 -448q104 0 104 -82q0 -51 -47 -92q-37 -31 -112 -31h-193l139 637v39 q-4 41 -57 41q-41 0 -75.5 -18.5t-100.5 -73.5l-88 -420q102 0 102 -82q0 -51 -47 -92q-35 -31 -112 -31h-193l135 637q6 23 6 37q0 43 -57 43q-78 0 -178 -92l-88 -420q104 0 104 -82q0 -51 -47 -92q-35 -31 -112 -31h-181q-63 0 -89.5 18.5t-26.5 63.5z" />
<glyph unicode="n" d="M68 82q0 51 47 92q37 31 112 31h13l102 485q-106 0 -106 82q0 55 47 92q39 31 114 31h193l-21 -98q88 70 156 97.5t152 27.5q135 0 218 -69t83 -181q0 -39 -11 -94l-80 -373q106 0 107 -82q0 -51 -47 -92q-37 -31 -113 -31h-182q-63 0 -90 18.5t-27 63.5q0 51 47 92 q37 31 103 31l76 364q6 27 6 47q0 100 -160 101q-72 0 -134.5 -31t-150.5 -108l-78 -373h13q47 0 69 -8q45 -16 45 -74q0 -51 -47 -92q-37 -31 -112 -31h-230q-61 0 -87.5 18.5t-26.5 63.5z" />
<glyph unicode="o" d="M172 356q0 188 152 353q90 98 222 155.5t271 57.5q190 0 310 -108.5t120 -281.5q0 -223 -194.5 -394t-444.5 -171q-197 0 -316.5 106.5t-119.5 282.5zM381 393q0 -96 75.5 -158.5t194.5 -62.5q156 0 271.5 97.5t115.5 226.5q0 96 -75.5 158.5t-192.5 62.5 q-158 0 -273.5 -96.5t-115.5 -227.5z" />
<glyph unicode="p" d="M-86 -338q0 51 47 92q37 31 113 31h32l193 905h-35q-63 0 -88.5 18.5t-25.5 63.5q0 51 47 92q35 31 112 31h238l-21 -92q164 119 340 119q186 0 298 -100.5t112 -270.5q0 -217 -177 -374t-425 -157q-162 0 -289 115l-74 -350h119q59 0 87 -16.5t28 -63.5q0 -53 -47 -94 q-37 -31 -113 -31h-356q-61 0 -88 18.5t-27 63.5zM453 426q0 -84 61 -141q70 -59 195 -59q1 -1 2 -1q124 0 217 60q63 41 102 104.5t39 126.5q0 92 -69.5 146.5t-184.5 54.5q-150 0 -253 -82t-109 -203v-6z" />
<glyph unicode="q" d="M154 362q0 113 56 224.5t152 193.5q170 141 402 142q176 0 289 -119l18 92h240q47 0 69 -8q45 -16 45 -74q0 -55 -47 -96q-31 -27 -112 -27h-33l-193 -905h33q59 0 88 -17.5t29 -64.5q0 -51 -47 -92q-37 -31 -113 -31h-356q-53 0 -72 8q-18 6 -31.5 28t-13.5 44 q0 57 47 94q35 31 113 31h119l73 350q-172 -115 -342 -115q-182 0 -297.5 95.5t-115.5 246.5zM367 426q0 -92 69.5 -146.5t188.5 -54.5q127 0 221 60q61 41 101 104.5t40 120.5q0 98 -68.5 152.5t-189.5 54.5q-125 0 -221 -60q-63 -41 -102 -104.5t-39 -126.5z" />
<glyph unicode="r" d="M131 82q0 51 47 92q33 31 111 31h121l102 487h-72q-61 0 -87.5 18.5t-26.5 61.5q0 51 47 92q37 31 110 31h277l-27 -131q147 94 223 125t152 31q82 0 152.5 -49.5t70.5 -102.5q0 -47 -40 -86t-87 -39q-37 0 -71.5 37t-73.5 37q-47 0 -131 -46t-250 -163l-64 -303h285 q49 0 72 -8q45 -14 45 -74q0 -51 -47 -92q-39 -31 -113 -31h-610q-61 0 -88 18.5t-27 63.5z" />
<glyph unicode="s" d="M170 80q0 16 8 57l15 68q31 137 133 137q78 0 86 -90q72 -80 239 -80q104 0 181 28.5t77 67.5q0 41 -55 64q-41 18 -182 35q-186 20 -269.5 72.5t-83.5 152.5q0 139 141.5 234.5t346.5 95.5q147 0 252 -54q35 53 78 54q35 0 55 -20.5t20 -53.5q0 -23 -8 -62l-16 -75 q-16 -72 -39 -95q-45 -41 -92 -41q-37 0 -56.5 19.5t-33.5 62.5q-68 59 -197 60q-84 0 -151.5 -24.5t-67.5 -53.5q0 -27 45 -43q25 -10 164 -31q201 -27 278 -76q100 -66 101 -182q0 -143 -150.5 -241.5t-372.5 -98.5q-178 0 -290 60q-41 -27 -72 -27q-37 0 -60.5 22.5 t-23.5 57.5z" />
<glyph unicode="t" d="M193 772q0 53 47 94q35 29 112 29h72l39 180q12 68 39 94q41 41 92 41q35 0 58.5 -22.5t23.5 -54.5q0 -18 -8 -58l-39 -180h370q59 0 88 -17.5t29 -64.5q0 -51 -47 -92q-35 -31 -113 -31h-370l-86 -401q-6 -29 -6 -49q0 -68 157 -68q164 0 316 70q43 22 71 22h2 q35 0 57.5 -22.5t22.5 -59.5q0 -68 -71 -106q-84 -45 -214 -77t-239 -32q-131 0 -223 55.5t-92 165.5q0 31 6 62l94 440h-72q-63 0 -89.5 18.5t-26.5 63.5z" />
<glyph unicode="u" d="M193 774q0 51 47 92q37 29 112 29h238l-121 -569q-6 -25 -6 -47q0 -100 153 -101q76 0 135.5 27.5t155.5 111.5l80 375h-72q-63 0 -89.5 18.5t-26.5 61.5q0 53 47 94q39 29 112 29h277l-148 -690q106 0 107 -80q0 -57 -49 -94q-33 -31 -113 -31h-192l20 98 q-92 -72 -156.5 -98.5t-150.5 -26.5q-135 0 -218 70t-83 182q0 53 10 94l78 373h-33q-61 0 -87.5 18.5t-26.5 63.5z" />
<glyph unicode="v" d="M166 772q0 51 47 92q35 31 113 31h270q59 0 87 -17.5t28 -64.5q0 -51 -47 -92q-37 -31 -111 -31h-12l129 -440l315 440h-20q-63 0 -90 18.5t-27 63.5q0 51 47 92q35 31 113 31h274q59 0 88 -16.5t29 -63.5q0 -53 -47 -94q-37 -31 -113 -31h-33l-489 -690h-211l-197 690 h-26q-63 0 -90 18.5t-27 63.5z" />
<glyph unicode="w" d="M168 772q0 55 47 92q35 31 113 31h188q47 0 70 -8q45 -14 45 -72q0 -53 -45 -94q-37 -29 -109 -29l12 -313l191 323h182l56 -323l149 313h-14q-59 0 -88 16.5t-29 63.5q0 55 47 92q37 31 113 31h188q61 0 89 -17.5t28 -64.5q0 -45 -35 -80q-33 -35 -96 -41l-318 -692 h-188l-68 371l-217 -371h-192l-27 692q-92 4 -92 80z" />
<glyph unicode="x" d="M61 82q0 45 35 80q33 37 101 43l352 262l-215 223q-88 8 -88 82q0 55 47 92q39 31 113 31h190q47 0 70 -8q45 -16 45 -74q0 -70 -76 -113l104 -100l146 102q-37 31 -37 68q0 53 47 94q39 31 113 31h188q59 0 88 -16.5t29 -63.5q0 -51 -37 -85t-96 -40l-318 -225l254 -260 q92 -4 92 -82q0 -51 -47 -92q-35 -31 -112 -31h-230q-63 0 -90 18.5t-27 63.5q0 41 30 76t77 47l-127 125l-178 -125q35 -16 48 -32.5t13 -45.5q0 -55 -47 -96q-35 -31 -115 -31h-225q-63 0 -90 18.5t-27 63.5z" />
<glyph unicode="y" d="M-27 -338q0 51 47 92q39 31 113 31h205l160 221l-207 684q-82 12 -82 82q0 55 47 92q39 31 113 31h184q47 0 70 -8q45 -14 45 -72q0 -55 -40 -89t-106 -36l140 -457l339 457h-10q-100 0 -100 82q0 55 47 92q37 31 113 31h188q61 0 89 -17.5t28 -64.5q0 -49 -36 -83 t-93 -40l-666 -905h10q59 0 88 -16.5t29 -63.5q0 -53 -47 -94q-35 -31 -113 -31h-438q-63 0 -90 18.5t-27 63.5z" />
<glyph unicode="z" d="M174 0l37 170l643 520h-303q-18 -86 -43 -110q-43 -43 -92 -43q-35 0 -58.5 21.5t-23.5 53.5q0 23 8 60l47 223h838l-35 -166l-649 -524h360q31 110 123 110h2q35 0 58.5 -21.5t23.5 -53.5q0 -18 -8 -60l-39 -180h-889z" />
<glyph unicode="{" d="M444 465q0 53 34 88t91 41q41 4 57.5 19.5t24.5 58.5l72 336q23 109 119 189.5t205 80.5q43 0 67.5 -22.5t24.5 -61.5q0 -47 -37 -84t-88 -41q-41 0 -60.5 -16.5t-29.5 -59.5l-68 -321q-14 -68 -34.5 -104t-63.5 -76q33 -53 33 -95q0 -35 -17 -106l-67 -322 q-4 -25 -5 -30q0 -25 12.5 -34t49.5 -11q39 -2 60.5 -24t21.5 -56q0 -53 -40 -90t-99 -37q-90 0 -151.5 61.5t-61.5 153.5q0 25 6 53l73 354q6 20 7 37q0 35 -56 41q-80 8 -80 78z" />
<glyph unicode="|" d="M465 -238q0 25 8 60l281 1317q12 66 39 92q43 47 92 47q35 0 58.5 -24.5t23.5 -59.5q-1 -16 -9 -55l-280 -1317q-12 -66 -39 -92q-43 -43 -92 -43q-35 0 -58.5 21.5t-23.5 53.5z" />
<glyph unicode="}" d="M295 -231q0 47 37 83.5t88 41.5q41 0 60.5 16t29.5 59l68 322q14 68 34.5 103.5t63.5 76.5q-33 53 -33 94q0 35 16 107l72 321v31q0 25 -12 34t-49 11q-82 6 -82 82q0 51 42 89t101 38q90 0 149.5 -62.5t59.5 -154.5q0 -25 -6 -53l-74 -355q-6 -23 -6 -37q0 -35 55 -41 q80 -8 80 -77q0 -53 -33.5 -88t-91.5 -41q-39 -4 -55 -20.5t-27 -57.5l-71 -336q-23 -109 -119 -188.5t-205 -79.5q-43 0 -67.5 21.5t-24.5 60.5z" />
<glyph unicode="~" d="M233 492q0 63 113 167q141 129 258 129q66 0 115 -31.5t133 -127.5q43 -47 68 -47q33 0 120 94q68 69 117 69q35 0 59.5 -23.5t24.5 -57.5q0 -53 -72 -127q-98 -98 -159.5 -134t-132.5 -36q-109 0 -246 153q-53 55 -76 55q-25 0 -113 -86q-51 -49 -73.5 -63t-49.5 -14 q-35 0 -60.5 23.5t-25.5 56.5z" />
<glyph unicode="&#xa0;" />
<glyph unicode="&#xa3;" d="M133 82q0 14 2 22q18 80 123 101q72 14 107 65q57 80 81 189q0 4 3.5 17t3.5 22h-144q-70 0 -88 18q-29 27 -28 64q0 33 20 63.5t49 44.5q27 14 90 14h94q-10 82 -10 89q0 39 10 94q31 150 151 245t275 95q111 0 196 -58.5t85 -130.5q0 -14 -2 -22q-10 -43 -46 -74 t-77 -31q-29 0 -42 9.5t-42 48.5q-35 53 -117 53q-63 0 -113 -36t-61 -89q-8 -31 -8 -57q0 -39 8 -136h140q66 0 90 -18q27 -25 26 -61q0 -68 -69 -111q-29 -14 -90 -14h-93q-12 -90 -35.5 -151.5t-72.5 -141.5h416q35 94 120 94q84 0 84 -82q0 -8 -4 -33 q-39 -184 -260 -184h-657q-66 0 -88 20q-27 23 -27 62z" />
<glyph unicode="&#xad;" d="M207 551q0 51 47 92q35 31 113 31h784q49 0 72 -8q18 -6 31.5 -28t13.5 -44q0 -53 -47 -94q-37 -31 -113 -31h-784q-63 0 -90 18.5t-27 63.5z" />
<glyph unicode="&#x591;" horiz-adv-x="0" d="M-322 -449q0 20 9 35q51 111 174 146l14 63q6 35 34 58.5t60 23.5q29 0 50.5 -19.5t21.5 -47.5q0 -2 -1 -6.5t-1 -8.5l-14 -63q106 -35 112 -140v-4q0 -41 -30.5 -71.5t-71.5 -30.5q-27 0 -45.5 18.5t-20.5 44.5q0 4 -5 11.5t-19.5 13.5t-34.5 6q-55 0 -72 -33 q-31 -61 -94 -61q-29 0 -47.5 19.5t-18.5 45.5z" />
<glyph unicode="&#x592;" horiz-adv-x="0" d="M47 1176v18q8 35 39 59.5t66 24.5q31 0 50 -18.5t19 -47.5q0 -12 -2 -18q-8 -35 -38.5 -61.5t-65.5 -26.5q-31 0 -49.5 19.5t-18.5 50.5zM207 1368v14q8 35 38.5 59.5t65.5 24.5q31 0 49.5 -18t18.5 -47q0 -12 -2 -19q-6 -35 -36 -59.5t-65 -24.5q-31 0 -50 20.5 t-19 49.5zM289 1176v18q8 35 38.5 59.5t65.5 24.5q31 0 49.5 -18.5t18.5 -47.5q0 -12 -2 -18q-8 -35 -38 -61.5t-65 -26.5q-31 0 -49 19.5t-18 50.5z" />
<glyph unicode="&#x593;" horiz-adv-x="0" d="M31 1214q6 35 47 50l203 59l-179 59q-35 10 -24 50q6 37 45 47l221 65l-51 19q-20 8 -21 39q0 14 7 26q18 31 55 31q6 0 18 -4l178 -68q25 -10 25 -35q0 -18 -14.5 -37.5t-32.5 -23.5l-203 -59l176 -62q37 -10 27 -47q-6 -35 -45 -45l-205 -64q45 -20 45 -47q0 -4 -8 -24 q-18 -35 -59 -35h-13l-166 57q-37 10 -26 49z" />
<glyph unicode="&#x594;" horiz-adv-x="0" d="M168 1176v18q8 35 38.5 59.5t65.5 24.5q31 0 49.5 -18.5t18.5 -47.5q0 -12 -2 -18q-8 -35 -38 -61.5t-64 -26.5q-31 0 -49.5 19.5t-18.5 50.5zM207 1366v16q8 35 38.5 60.5t65.5 25.5q31 0 50.5 -19t19.5 -48q0 -12 -2 -19q-6 -35 -37 -59.5t-66 -24.5q-31 0 -50 19.5 t-19 48.5z" />
<glyph unicode="&#x595;" horiz-adv-x="0" d="M55 1174v14l45 198q8 35 37 58.5t62 23.5q29 0 48 -18t19 -47q0 -11 -2 -17l-43 -198q-6 -33 -34.5 -57.5t-63.5 -24.5q-29 0 -48.5 19.5t-19.5 48.5zM276 1176v18q8 35 40 59.5t67 24.5q29 0 48.5 -18.5t19.5 -47.5q0 -12 -2 -18q-8 -35 -39 -61.5t-64 -26.5 q-31 0 -50.5 20.5t-19.5 49.5zM315 1368v14q8 35 40 60.5t67 25.5q29 0 48 -19t19 -48q0 -12 -2 -19q-6 -35 -35.5 -59.5t-64.5 -24.5q-33 0 -52.5 19.5t-19.5 50.5z" />
<glyph unicode="&#x596;" horiz-adv-x="0" d="M-190 -295q0 39 10 90q6 33 34.5 57.5t63.5 24.5q29 0 48.5 -19.5t19.5 -47.5q0 -2 -1 -6.5t-1 -8.5q-6 -31 -7 -57q1 -70 50 -125q18 -23 18 -45q0 -37 -34 -67.5t-70 -30.5q-31 0 -50 20q-82 88 -81 215z" />
<glyph unicode="&#x597;" horiz-adv-x="0" d="M63 1323l265 217l170 -217l-262 -217z" />
<glyph unicode="&#x598;" horiz-adv-x="0" d="M-55 1206v47q16 76 78.5 134.5t138.5 58.5t125 -53l119 -138q31 16 36 48v12q0 8 -3 22.5t-3 22.5v10q6 29 33 52.5t61 23.5q70 0 70 -96q0 -23 -6 -47q-16 -76 -76.5 -134.5t-136.5 -58.5q-82 0 -123 53l-121 137q-29 -16 -35 -47q0 -2 -1 -6t-1 -6q0 -8 4.5 -23.5 t4.5 -23.5l-3 -2v-6q-6 -29 -32.5 -52.5t-59.5 -23.5q-70 0 -69 96z" />
<glyph unicode="&#x599;" horiz-adv-x="0" d="M164 1411q0 41 35 76q29 27 67 26q31 0 51 -20q82 -92 82 -215q0 -39 -10 -90q-8 -35 -37.5 -58.5t-62.5 -23.5q-31 0 -48.5 18.5t-17.5 46.5q0 10 2 17q6 31 6 57q0 72 -51 125q-16 20 -16 41z" />
<glyph unicode="&#x59a;" horiz-adv-x="0" d="M-274 -324q12 47 59 70l281 125q16 8 34 8q27 0 44.5 -16.5t17.5 -42.5q0 -12 -2 -19q-8 -49 -56 -67l-129 -58l105 -57q29 -14 29 -51q0 -31 -17 -53q-29 -41 -78 -41q-16 0 -32 8l-228 125q-29 18 -28 53v16z" />
<glyph unicode="&#x59b;" horiz-adv-x="0" d="M-248 -209q8 35 40 60.5t67 25.5q31 0 50 -18.5t19 -48.5q0 -12 -2 -19q-8 -35 -36.5 -59.5t-65.5 -24.5q-29 0 -50.5 19.5t-21.5 48.5v16zM-174 -463q0 2 1 7t1 7q10 37 41 62q102 74 125 182v6q8 33 34.5 54.5t59.5 21.5q31 0 50.5 -21.5t19.5 -52.5v-8 q-49 -188 -205 -305q-23 -20 -57 -20q-29 0 -49.5 19t-20.5 48z" />
<glyph unicode="&#x59c;" horiz-adv-x="0" d="M113 1174q0 2 1 6t1 8q41 184 202 305q27 20 60 20q29 0 48 -19t19 -48q0 -2 -1 -7t-1 -7q-10 -37 -43 -62q-96 -74 -120 -182q-6 -33 -35 -57.5t-64 -24.5q-29 0 -48 19.5t-19 48.5z" />
<glyph unicode="&#x59d;" horiz-adv-x="0" d="M113 1174q0 2 1 6t1 8q41 184 202 305q27 20 60 20q29 0 48 -19t19 -48q0 -2 -1 -7t-1 -7q-10 -37 -43 -62q-96 -74 -120 -182q-6 -33 -35 -57.5t-64 -24.5q-29 0 -48 19.5t-19 48.5z" />
<glyph unicode="&#x59e;" horiz-adv-x="0" d="M-25 1174v14q41 182 205 305q23 20 58 20q29 0 49 -19t20 -48q0 -2 -1 -7t-1 -7q-10 -37 -43 -62q-96 -70 -121 -182q-6 -33 -34.5 -57.5t-63.5 -24.5q-29 0 -48.5 19.5t-19.5 48.5zM250 1174q0 2 1 7t1 7q41 182 205 305q23 20 57 20q29 0 48.5 -18t19.5 -47 q0 -10 -2 -16q-10 -39 -41 -62q-96 -74 -121 -182q-6 -33 -35 -57.5t-64 -24.5q-31 0 -50 19.5t-19 48.5z" />
<glyph unicode="&#x59f;" horiz-adv-x="0" d="M-236 1317q0 23 7 47q18 90 96 154.5t168 64.5q78 0 127 -49t49 -125q0 -31 -4 -45q-12 -43 -35 -86l35 -45q14 -20 14 -39q0 -37 -33.5 -69.5t-70.5 -32.5q-33 0 -51 24l-35 47q-41 -16 -88 -16q-78 0 -128.5 48t-50.5 122zM-96 1346q0 -29 18.5 -48.5t48.5 -19.5 q35 0 66 25.5t39 60.5v14q0 29 -19.5 49.5t-50.5 20.5q-35 0 -64.5 -24.5t-35.5 -59.5q-2 -6 -2 -18zM279 1157q0 10 2 17q6 35 36 59l52 45v39q0 23 6 47q18 90 95 154.5t167 64.5q80 0 129 -50t49 -126q0 -14 -4 -43q-20 -90 -98 -153.5t-168 -63.5q-49 0 -80 16l-55 -47 q-31 -25 -64 -24q-29 0 -48 19t-19 46zM506 1346q0 -29 18.5 -48.5t48.5 -19.5q35 0 66 25.5t39 60.5v14q0 29 -19.5 49.5t-50.5 20.5q-35 0 -64.5 -24.5t-35.5 -59.5q-2 -6 -2 -18z" />
<glyph unicode="&#x5a0;" horiz-adv-x="0" d="M0 1159v15q6 31 41 59l51 45v39q0 23 6 47q18 90 95 154.5t167 64.5q80 0 129.5 -50t49.5 -126q0 -14 -4 -43q-20 -90 -98.5 -153.5t-168.5 -63.5q-49 0 -80 16l-55 -47q-31 -25 -65 -24q-29 0 -48.5 19t-19.5 48zM229 1346q0 -29 18.5 -48.5t49.5 -19.5q35 0 65.5 25.5 t38.5 60.5v14q0 29 -19 49.5t-50 20.5q-35 0 -64.5 -24.5t-36.5 -59.5q-2 -6 -2 -18z" />
<glyph unicode="&#x5a1;" horiz-adv-x="0" d="M0 1178v16l53 229q6 33 35 57.5t64 24.5q31 0 48 -18.5t17 -46.5v-17l-16 -69h8q145 0 174 63q37 88 104 88q29 0 48.5 -19.5t19.5 -47.5q0 -2 -1 -6.5t-1 -8.5q-16 -68 -67.5 -123t-127.5 -81q-66 -25 -190 -25q-8 -37 -37 -62.5t-63 -25.5q-29 0 -48.5 21.5t-19.5 50.5 z" />
<glyph unicode="&#x5a2;" horiz-adv-x="0" d="M-272 -213q0 35 30.5 63.5t67.5 28.5q29 0 48.5 -17.5t21.5 -43.5q0 -6 4 -13.5t18 -14.5t35 -7q29 0 49.5 12t24.5 23q31 59 90 59q6 0 22 -4q45 -8 45 -57q0 -18 -10 -43q-47 -102 -174 -140l-10 -63q-6 -33 -35 -57.5t-64 -24.5q-29 0 -48 19.5t-19 48.5q0 2 1 6t1 8 l14 63q-111 39 -112 146v8z" />
<glyph unicode="&#x5a3;" horiz-adv-x="0" d="M-332 -420q0 16 2 23q6 33 35 57.5t64 24.5h245l25 110q6 33 34.5 57.5t63.5 24.5q29 0 48.5 -19.5t19.5 -47.5q0 -2 -1 -6.5t-1 -8.5l-41 -192q-8 -35 -37 -58.5t-64 -23.5h-327q-66 0 -66 59z" />
<glyph unicode="&#x5a4;" horiz-adv-x="0" d="M-274 -324q12 47 59 70l281 125q16 8 34 8q27 0 44.5 -16.5t17.5 -42.5q0 -12 -2 -19q-8 -49 -56 -67l-129 -58l105 -57q29 -14 29 -51q0 -31 -17 -53q-29 -41 -78 -41q-16 0 -32 8l-228 125q-29 18 -28 53v16z" />
<glyph unicode="&#x5a5;" horiz-adv-x="0" d="M-233 -465q0 45 43 78q96 74 120 182q6 35 35 58.5t64 23.5q29 0 48 -19.5t19 -47.5q0 -2 -1 -6.5t-1 -8.5q-41 -180 -203 -305q-27 -20 -59 -20q-37 0 -55 26q-10 16 -10 39z" />
<glyph unicode="&#x5a6;" horiz-adv-x="0" d="M-373 -449q10 37 43 62q96 74 121 182q6 33 35 57.5t63 24.5q31 0 50.5 -19.5t19.5 -47.5q0 -2 -1 -7.5t-1 -7.5q-41 -182 -205 -305q-23 -20 -57 -20q-29 0 -48.5 18t-19.5 47v16zM-98 -463q0 2 1 7t1 7q10 37 43 62q96 70 121 182q6 33 34.5 57.5t63.5 24.5 q29 0 48 -19.5t19 -47.5q0 -2 -1 -6.5t-1 -8.5q-41 -184 -202 -305q-23 -20 -58 -20q-29 0 -49 19t-20 48z" />
<glyph unicode="&#x5a7;" horiz-adv-x="0" d="M-344 -453q6 31 37 53.5t63 22.5h105l-64 135q-6 12 -6 27q0 35 33 63.5t65 28.5h252q27 0 45.5 -17.5t18.5 -43.5q0 -10 -2 -17q-6 -31 -34 -53t-60 -22h-109l59 -134q6 -16 7 -30q0 -37 -30 -63.5t-65 -26.5h-247q-29 0 -48.5 18t-19.5 45v14z" />
<glyph unicode="&#x5a8;" horiz-adv-x="0" d="M164 1411q0 41 35 76q29 27 67 26q31 0 51 -20q82 -92 82 -215q0 -39 -10 -90q-8 -35 -37.5 -58.5t-62.5 -23.5q-31 0 -48.5 18.5t-17.5 46.5q0 10 2 17q6 31 6 57q0 72 -51 125q-16 20 -16 41z" />
<glyph unicode="&#x5a9;" horiz-adv-x="0" d="M41 1317q0 23 6 47q18 90 96 154.5t168 64.5q78 0 127 -49t49 -125q0 -31 -4 -45q-11 -43 -34 -86l34 -45q14 -20 15 -39q0 -37 -33 -69.5t-70 -32.5q-35 0 -53 24l-35 47q-41 -16 -88 -16q-78 0 -128 48t-50 122zM180 1346q0 -29 18.5 -48.5t49.5 -19.5q35 0 65.5 25.5 t38.5 60.5v14q0 29 -19 49.5t-50 20.5q-35 0 -65 -24.5t-36 -59.5q-2 -6 -2 -18z" />
<glyph unicode="&#x5aa;" horiz-adv-x="0" d="M-272 -213q0 35 30.5 63.5t67.5 28.5q29 0 48.5 -17.5t21.5 -43.5q0 -6 4 -13.5t18 -14.5t35 -7q29 0 49.5 12t24.5 23q31 59 90 59q6 0 22 -4q45 -8 45 -57q0 -18 -10 -43q-47 -102 -174 -140l-10 -63q-6 -33 -35 -57.5t-64 -24.5q-29 0 -48 19.5t-19 48.5q0 2 1 6t1 8 l14 63q-111 39 -112 146v8z" />
<glyph unicode="&#x5ab;" horiz-adv-x="0" d="M72 1288v17q12 47 59 69l281 127q14 8 34 8q27 0 45.5 -17t18.5 -46q0 -2 -1 -6t-1 -8q-10 -49 -55 -68l-131 -59l104 -58q29 -14 29 -53q0 -27 -17 -49q-31 -43 -78 -43q-16 0 -32 8l-228 127q-29 16 -28 51z" />
<glyph unicode="&#x5ac;" horiz-adv-x="0" d="M0 1174q0 2 3 6t3 8q8 35 38 58.5t62 23.5h246l23 110q8 35 37.5 58.5t62.5 23.5q29 0 47.5 -17.5t18.5 -45.5q0 -12 -2 -19l-41 -192q-8 -35 -36 -58.5t-63 -23.5h-327q-29 0 -50.5 19.5t-21.5 48.5z" />
<glyph unicode="&#x5ad;" horiz-adv-x="0" d="M-190 -295q0 39 10 90q6 33 34.5 57.5t63.5 24.5q29 0 48.5 -19.5t19.5 -47.5q0 -2 -1 -6.5t-1 -8.5q-6 -31 -7 -57q1 -70 50 -125q18 -23 18 -45q0 -37 -34 -67.5t-70 -30.5q-31 0 -50 20q-82 88 -81 215z" />
<glyph unicode="&#x5ae;" horiz-adv-x="0" d="M-55 1206v47q16 76 78.5 134.5t138.5 58.5t125 -53l119 -138q31 16 36 48v12q0 8 -3 22.5t-3 22.5v10q6 29 33 52.5t61 23.5q70 0 70 -96q0 -23 -6 -47q-16 -76 -76.5 -134.5t-136.5 -58.5q-82 0 -123 53l-121 137q-29 -16 -35 -47q0 -2 -1 -6t-1 -6q0 -8 4.5 -23.5 t4.5 -23.5l-3 -2v-6q-6 -29 -32.5 -52.5t-59.5 -23.5q-70 0 -69 96z" />
<glyph unicode="&#x5af;" d="M59 1278v45q20 88 99.5 152.5t169.5 64.5q76 0 126 -49t50 -123q0 -106 -84 -184t-184 -78q-78 0 -127.5 49t-49.5 123zM184 1305q0 -33 22.5 -54.5t55.5 -21.5q45 0 80 33.5t35 80.5q0 31 -21.5 52.5t-54.5 21.5q-43 0 -80 -33.5t-37 -78.5z" />
<glyph unicode="&#x5b0;" horiz-adv-x="0" d="M-172 -401q8 35 38.5 59.5t65.5 24.5q31 0 49.5 -18.5t18.5 -47.5v-18q-6 -35 -37 -59.5t-65 -24.5q-31 0 -50.5 18t-19.5 47v19zM-131 -209q8 35 38.5 60.5t65.5 25.5q31 0 50.5 -19.5t19.5 -47.5q0 -12 -2 -19q-8 -35 -38 -59.5t-64 -24.5q-31 0 -50.5 18.5t-19.5 47.5 v18z" />
<glyph unicode="&#x5b1;" horiz-adv-x="0" d="M-371 -207q6 35 37 59.5t66 24.5q33 0 52 -19.5t19 -50.5q0 -2 -1 -7t-1 -7q-8 -35 -38.5 -60.5t-65.5 -25.5q-29 0 -48.5 19.5t-19.5 48.5v18zM-291 -399q6 35 37 59.5t66 24.5q31 0 50 -20.5t19 -49.5q0 -2 -1 -6t-1 -8q-8 -35 -37.5 -59.5t-64.5 -24.5q-31 0 -49.5 17 t-18.5 46v21zM-131 -207q6 35 36.5 59.5t67.5 24.5q33 0 52.5 -19.5t19.5 -50.5q0 -2 -1 -7t-1 -7q-8 -35 -39 -60.5t-65 -25.5q-31 0 -50.5 19.5t-19.5 48.5v18zM70 -399q6 33 37.5 58.5t66.5 25.5q31 0 50.5 -20.5t19.5 -49.5q0 -2 -1 -7t-1 -7q-8 -35 -38 -59.5 t-65 -24.5q-31 0 -50 17t-19 46v21zM111 -207q6 35 36.5 59.5t67.5 24.5q31 0 50.5 -19.5t19.5 -47.5q0 -2 -1 -8.5t-1 -8.5q-8 -35 -38 -60.5t-65 -25.5q-31 0 -50 19.5t-19 48.5v18z" />
<glyph unicode="&#x5b2;" horiz-adv-x="0" d="M-418 -223q0 12 2 18q6 33 35 57.5t64 24.5h337q29 0 48.5 -19.5t19.5 -47.5q0 -2 -1 -6.5t-1 -8.5q-8 -35 -37.5 -58.5t-62.5 -23.5h-338q-29 0 -47.5 17.5t-18.5 46.5zM117 -397q8 35 38.5 59.5t65.5 24.5q29 0 49.5 -19.5t20.5 -48.5q0 -10 -2 -16q-8 -35 -38 -59.5 t-65 -24.5q-31 0 -50 17.5t-19 43.5v23zM158 -205q8 35 39.5 60.5t66.5 25.5q31 0 49.5 -19.5t18.5 -47.5q0 -12 -2 -19q-8 -35 -38 -58.5t-65 -23.5q-31 0 -50 17.5t-19 46.5v18z" />
<glyph unicode="&#x5b3;" horiz-adv-x="0" d="M-418 -223q0 12 2 18q6 33 35 57.5t64 24.5h335q29 0 48.5 -19.5t19.5 -47.5q0 -2 -1 -6.5t-1 -8.5q-8 -35 -38 -58.5t-62 -23.5h-86l-23 -110q-8 -35 -38 -59.5t-62 -24.5q-29 0 -47.5 17.5t-18.5 43.5q0 16 2 23l23 110h-86q-29 0 -47.5 17.5t-18.5 46.5zM117 -397 q8 35 37.5 59.5t64.5 24.5q31 0 50.5 -18.5t19.5 -47.5q0 -12 -2 -18q-8 -35 -38 -59.5t-65 -24.5q-68 0 -67 61v23zM158 -205q8 35 38.5 60.5t65.5 25.5q31 0 50.5 -19.5t19.5 -47.5q0 -12 -2 -19q-8 -35 -39 -58.5t-66 -23.5q-31 0 -49 17.5t-18 46.5v18z" />
<glyph unicode="&#x5b4;" horiz-adv-x="0" d="M-133 -209q8 35 39.5 60.5t66.5 25.5q31 0 50.5 -19.5t19.5 -47.5q0 -12 -2 -19q-8 -35 -38 -59.5t-64 -24.5q-31 0 -51.5 19.5t-20.5 48.5v16z" />
<glyph unicode="&#x5b5;" horiz-adv-x="0" d="M-250 -207q6 35 37 59.5t66 24.5q31 0 50 -19.5t19 -47.5q0 -2 -1 -8.5t-1 -8.5q-8 -35 -37.5 -59.5t-64.5 -24.5q-31 0 -49.5 18.5t-18.5 47.5v18zM-10 -207q6 35 36.5 59.5t67.5 24.5q31 0 50.5 -19.5t19.5 -47.5q0 -2 -1 -8.5t-1 -8.5q-8 -35 -38 -59.5t-65 -24.5 q-31 0 -50 18.5t-19 47.5v18z" />
<glyph unicode="&#x5b6;" horiz-adv-x="0" d="M-250 -207q6 35 37 59.5t66 24.5q31 0 50 -19.5t19 -47.5q0 -2 -1 -8.5t-1 -8.5q-8 -35 -37.5 -59.5t-64.5 -24.5q-31 0 -49.5 18.5t-18.5 47.5v18zM-170 -399q6 35 36.5 59.5t65.5 24.5q31 0 49.5 -19.5t18.5 -50.5v-14q-8 -35 -38 -59.5t-64 -24.5q-31 0 -49.5 17 t-18.5 46v21zM-10 -207q6 35 36.5 59.5t67.5 24.5q31 0 50.5 -19.5t19.5 -47.5q0 -2 -1 -8.5t-1 -8.5q-8 -35 -38 -59.5t-65 -24.5q-31 0 -50 18.5t-19 47.5v18z" />
<glyph unicode="&#x5b7;" horiz-adv-x="0" d="M-295 -205q6 33 36 57.5t64 24.5h336q29 0 48.5 -19.5t19.5 -47.5q0 -2 -1 -6.5t-1 -8.5q-8 -35 -38 -58.5t-63 -23.5h-335q-29 0 -47.5 17.5t-18.5 46.5v18z" />
<glyph unicode="&#x5b8;" horiz-adv-x="0" d="M-295 -223q0 12 2 18q6 33 35 57.5t63 24.5h336q29 0 48.5 -19.5t19.5 -47.5q0 -2 -1 -6.5t-1 -8.5q-8 -35 -38 -58.5t-63 -23.5h-86l-20 -110q-8 -33 -38 -57.5t-64 -24.5q-66 0 -66 59q0 16 2 23l23 110h-86q-29 0 -47.5 17.5t-18.5 46.5z" />
<glyph unicode="&#x5b9;" horiz-adv-x="0" d="M166 1176v18q8 35 39.5 59.5t66.5 24.5q31 0 50.5 -18.5t19.5 -47.5q0 -12 -2 -18q-8 -35 -39 -61.5t-65 -26.5q-31 0 -50.5 20.5t-19.5 49.5z" />
<glyph unicode="&#x5ba;" horiz-adv-x="0" d="M166 1176v18q8 35 39.5 59.5t66.5 24.5q31 0 50.5 -18.5t19.5 -47.5q0 -12 -2 -18q-8 -35 -39 -61.5t-65 -26.5q-31 0 -50.5 20.5t-19.5 49.5z" />
<glyph unicode="&#x5bb;" horiz-adv-x="0" d="M-371 -207q6 35 37 59.5t66 24.5q33 0 52 -19.5t19 -50.5q0 -2 -1 -7t-1 -7q-8 -35 -38.5 -59.5t-65.5 -24.5q-29 0 -48.5 18.5t-19.5 47.5v18zM-150 -303q6 35 37 59.5t66 24.5q31 0 50.5 -20.5t19.5 -51.5q0 -2 -1.5 -5t-1.5 -7q-8 -35 -37.5 -59.5t-64.5 -24.5 q-31 0 -49.5 18.5t-18.5 46.5v19zM70 -399q6 33 37.5 58.5t66.5 25.5q31 0 50.5 -20.5t19.5 -51.5q0 -2 -1 -6t-1 -6q-8 -35 -38 -59.5t-65 -24.5q-31 0 -50 17t-19 46v21z" />
<glyph unicode="&#x5bc;" horiz-adv-x="0" d="M16 473v19q8 35 40 60.5t67 25.5q31 0 50.5 -19.5t19.5 -48.5q0 -12 -3 -18q-8 -35 -38.5 -59.5t-65.5 -24.5q-31 0 -50.5 18t-19.5 47z" />
<glyph unicode="&#x5bd;" horiz-adv-x="0" d="M-143 -397l43 192q6 33 28.5 57.5t44.5 24.5q43 0 43 -61q0 -13 -2 -21l-41 -192q-8 -33 -30.5 -57.5t-44.5 -24.5q-18 0 -29.5 17.5t-11.5 41.5v23z" />
<glyph unicode="&#x5be;" d="M307 858q0 14 2 23q8 43 45 72.5t80 29.5h778q37 0 59.5 -22.5t22.5 -57.5q0 -14 -2 -22q-10 -43 -45 -73t-78 -30h-778q-37 0 -60.5 22.5t-23.5 57.5z" />
<glyph unicode="&#x5bf;" horiz-adv-x="0" d="M0 1174v14q8 33 38 57.5t64 24.5h336q29 0 47.5 -17.5t18.5 -46.5q0 -12 -2 -18q-6 -33 -35 -57.5t-64 -24.5h-335q-31 0 -49.5 19.5t-18.5 48.5z" />
<glyph unicode="&#x5c0;" d="M467 -240q0 27 8 62l279 1317q16 74 39 98q45 41 94 41q55 0 76 -53q4 -16 4 -31q-1 -16 -9 -55l-278 -1317q-16 -68 -39 -92q-43 -43 -94 -43q-59 0 -80 49v24z" />
<glyph unicode="&#x5c1;" horiz-adv-x="0" d="M166 1176v18q8 35 38.5 59.5t67.5 24.5q29 0 49.5 -19.5t20.5 -48.5q0 -10 -2 -16q-8 -35 -39 -61.5t-65 -26.5q-31 0 -50.5 19.5t-19.5 50.5z" />
<glyph unicode="&#x5c2;" horiz-adv-x="0" d="M166 1176v18q8 35 38.5 59.5t67.5 24.5q29 0 49.5 -19.5t20.5 -48.5q0 -10 -2 -16q-8 -35 -39 -61.5t-65 -26.5q-31 0 -50.5 19.5t-19.5 50.5z" />
<glyph unicode="&#x5c3;" d="M479 76v28q10 55 61.5 95.5t106.5 40.5h37q49 0 80 -30t31 -77q0 -8 -4 -29q-12 -57 -59.5 -96t-104.5 -39h-37q-47 0 -79 31t-32 76zM618 729v29q12 57 62.5 97t105.5 40h37q49 0 80 -29.5t31 -77.5q0 -10 -4 -30q-12 -57 -59.5 -96t-104.5 -39h-37q-47 0 -79 30.5 t-32 75.5z" />
<glyph unicode="&#x5c4;" horiz-adv-x="0" d="M166 1176v18q8 35 39.5 59.5t66.5 24.5q31 0 50.5 -18.5t19.5 -47.5q0 -12 -2 -18q-8 -35 -39 -61.5t-65 -26.5q-31 0 -50.5 20.5t-19.5 49.5z" />
<glyph unicode="&#x5c5;" horiz-adv-x="0" d="M-176 -414q8 35 39.5 59.5t66.5 24.5q31 0 50.5 -19.5t19.5 -47.5v-17q-8 -35 -40 -60.5t-66 -25.5q-31 0 -50.5 19.5t-19.5 48.5v18z" />
<glyph unicode="&#x5c6;" d="M348 80v22l94 439q35 158 172.5 300t280.5 142h31q37 0 59.5 -22.5t22.5 -57.5q0 -14 -2 -22q-10 -43 -45 -73t-78 -30h-31q-59 0 -123.5 -83t-81.5 -154l-72 -336h185q37 0 60.5 -22.5t23.5 -57.5q0 -14 -2 -23q-8 -43 -45 -72.5t-80 -29.5h-287q-37 0 -59.5 22.5 t-22.5 57.5z" />
<glyph unicode="&#x5c7;" horiz-adv-x="0" d="M-295 -223q0 12 2 18q6 33 35 57.5t63 24.5h336q29 0 48.5 -19.5t19.5 -47.5q0 -2 -1 -6.5t-1 -8.5q-8 -35 -38 -58.5t-63 -23.5h-86l-20 -110q-8 -33 -38 -57.5t-64 -24.5q-66 0 -66 59q0 16 2 23l23 110h-86q-29 0 -47.5 17.5t-18.5 46.5z" />
<glyph unicode="&#x5d0;" d="M143 80v22l58 260q41 184 245 291l-120 156q-18 23 -19 49q0 53 49 94q33 31 78 31t66 -31l368 -467q82 35 119 65t45 71l35 157h-27q-37 0 -60.5 22.5t-23.5 57.5q0 14 2 23q8 43 45 72.5t80 29.5h129q37 0 59.5 -22.5t22.5 -57.5q0 -14 -2 -22l-55 -260 q-41 -178 -250 -289l125 -158q18 -23 18 -49q0 -53 -49 -94q-33 -31 -78 -31t-65 31l-371 469q-82 -33 -117.5 -61.5t-43.5 -76.5l-35 -157h26q37 0 60.5 -22.5t23.5 -57.5q0 -14 -2 -23q-8 -43 -45 -72.5t-80 -29.5h-129q-37 0 -59.5 22.5t-22.5 57.5z" />
<glyph unicode="&#x5d1;" d="M143 80q0 14 2 22q10 43 45 73t78 30h523l94 420v32q0 51 -35 86t-90 35h-369q-37 0 -60.5 22.5t-23.5 57.5q0 14 2 23q8 43 45 72.5t80 29.5h369q129 0 210 -80t81 -205q0 -41 -9 -73l-90 -420h52q37 0 60 -22.5t23 -57.5q0 -14 -2 -23q-8 -43 -44.5 -72.5t-79.5 -29.5 h-779q-37 0 -59.5 22.5t-22.5 57.5z" />
<glyph unicode="&#x5d2;" d="M248 80q0 14 2 22q14 72 88 99q274 94 469 323l55 254h-262q-37 0 -60.5 22.5t-23.5 57.5q0 14 2 23q8 43 45 72.5t80 29.5h365q37 0 59.5 -22.5t22.5 -57.5q0 -14 -3 -22l-163 -779q-8 -43 -45 -72.5t-80 -29.5q-37 0 -59.5 22.5t-22.5 57.5q0 14 2 22l22 107 q-170 -131 -376 -203q-18 -6 -33 -6q-35 0 -59.5 22.5t-24.5 57.5z" />
<glyph unicode="&#x5d3;" d="M307 858q0 14 2 23q8 43 45 72.5t80 29.5h778q37 0 59.5 -22.5t22.5 -57.5q0 -14 -2 -22q-10 -43 -45 -73t-78 -30h-102l-143 -676q-8 -43 -45 -72.5t-80 -29.5q-37 0 -59.5 22.5t-22.5 57.5q0 14 2 22l143 676h-471q-37 0 -60.5 22.5t-23.5 57.5z" />
<glyph unicode="&#x5d4;" d="M229 80q0 14 2 22l74 353q8 43 45 72.5t80 29.5q37 0 59.5 -22.5t22.5 -57.5q0 -14 -2 -22l-74 -353q-8 -43 -45 -72.5t-80 -29.5q-37 0 -59.5 22.5t-22.5 57.5zM358 858q0 14 2 23q8 43 45 72.5t80 29.5h420q129 0 210 -80t81 -205q0 -41 -8 -73l-111 -523 q-8 -43 -45 -72.5t-80 -29.5q-37 0 -59.5 22.5t-22.5 57.5q0 14 2 22l115 523v32q0 51 -34.5 86t-90.5 35h-420q-37 0 -60.5 22.5t-23.5 57.5z" />
<glyph unicode="&#x5d5;" d="M496 858v23q8 43 46 72.5t81 29.5h262q37 0 59.5 -22.5t22.5 -57.5q0 -14 -2 -22l-164 -779q-8 -43 -45 -72.5t-80 -29.5q-37 0 -59.5 22.5t-22.5 57.5q0 14 2 22l143 676h-159q-37 0 -60.5 22.5t-23.5 57.5z" />
<glyph unicode="&#x5d6;" d="M436 860q0 12 2 21q8 43 46 72.5t79 29.5h520q35 0 58.5 -22.5t23.5 -57.5q0 -14 -2 -22q-8 -43 -45 -73t-78 -30h-157l-144 -676q-8 -43 -45 -72.5t-80 -29.5q-37 0 -59.5 22.5t-22.5 57.5q0 14 3 22l143 676h-158q-37 0 -60.5 23.5t-23.5 58.5z" />
<glyph unicode="&#x5d7;" d="M246 80q0 14 2 22l143 676q-37 0 -60.5 22.5t-23.5 57.5q0 14 2 23q8 43 45 72.5t80 29.5h778q37 0 59.5 -22.5t22.5 -57.5q0 -14 -2 -22q-10 -43 -45 -73t-78 -30l-143 -676q-8 -43 -45 -72.5t-80 -29.5q-37 0 -59.5 22.5t-22.5 57.5q0 14 2 22l144 676h-369l-143 -676 q-8 -43 -45 -72.5t-80 -29.5q-37 0 -59.5 22.5t-22.5 57.5z" />
<glyph unicode="&#x5d8;" d="M305 326q0 39 10 94l76 358q-37 0 -61.5 22.5t-24.5 57.5v23q8 43 47 72.5t82 29.5h103q37 0 59 -22.5t22 -57.5q0 -14 -2 -22l-96 -461q-6 -25 -6 -49q0 -80 53.5 -133.5t137.5 -53.5q94 0 181 79t109 177l52 236v22q0 35 -23 57.5t-59 22.5q-43 0 -74 -24 q-37 -31 -78 -31q-35 0 -59.5 23.5t-24.5 58.5q0 12 2 18q10 45 45 72q104 88 232 88q111 0 181.5 -61.5t70.5 -161.5q0 -31 -7 -64l-53 -256q-41 -184 -199.5 -322t-338.5 -138q-158 0 -257.5 98t-99.5 248z" />
<glyph unicode="&#x5d9;" d="M496 858v23q8 43 46 72.5t81 29.5h262q37 0 59.5 -22.5t22.5 -57.5q0 -14 -2 -22l-78 -369q-10 -43 -45 -72.5t-78 -29.5q-37 0 -60.5 22.5t-23.5 56.5q0 14 2 23l57 266h-159q-37 0 -60.5 22.5t-23.5 57.5z" />
<glyph unicode="&#x5da;" d="M246 858q0 14 2 23q8 43 45 72.5t80 29.5h778q37 0 59.5 -22.5t22.5 -57.5q0 -14 -2 -22q-10 -43 -45 -73t-78 -30h-102l-209 -983h102q37 0 59.5 -22.5t22.5 -57.5q0 -14 -2 -22q-8 -43 -45 -73t-80 -30h-205q-37 0 -59.5 22.5t-22.5 57.5v23l234 1085h-471 q-37 0 -60.5 22.5t-23.5 57.5z" />
<glyph unicode="&#x5db;" d="M184 80q0 14 2 22q10 43 45 73t78 30h348q84 0 158 60.5t92 144.5l39 163v41q0 70 -46 117t-120 47h-348q-37 0 -60.5 22.5t-23.5 57.5q0 14 2 23q8 43 45 72.5t80 29.5h348q145 0 238.5 -93t93.5 -233q0 -45 -8 -84l-35 -163q-37 -170 -183.5 -290t-314.5 -120h-348 q-37 0 -59.5 22.5t-22.5 57.5z" />
<glyph unicode="&#x5dc;" d="M410 858q0 14 2 23l65 307q8 43 45 72.5t80 29.5q37 0 59.5 -22.5t22.5 -57.5q0 -14 -2 -22l-43 -205h573q37 0 59.5 -22.5t22.5 -57.5q0 -14 -2 -22l-45 -215q-10 -41 -39 -68l-442 -365l-6 -28h39q37 0 60.5 -22.5t23.5 -57.5q0 -14 -2 -23q-8 -43 -45 -72.5t-80 -29.5 h-142q-37 0 -59.5 22.5t-22.5 57.5q0 14 3 22l36 174q10 45 45 74l435 357l16 71h-573q-37 0 -60.5 22.5t-23.5 57.5z" />
<glyph unicode="&#x5dd;" d="M246 80q0 14 2 22l143 676q-37 0 -60.5 22.5t-23.5 57.5q0 14 2 23q8 43 45 72.5t80 29.5h522q129 0 210 -80t81 -205q0 -41 -8 -73l-111 -523q-8 -43 -44.5 -72.5t-79.5 -29.5h-676q-37 0 -59.5 22.5t-22.5 57.5zM473 205h471l94 420v32q0 51 -34.5 86t-90.5 35h-317z " />
<glyph unicode="&#x5de;" d="M246 80q0 14 2 22l143 676q-37 0 -60.5 22.5t-23.5 57.5q0 14 2 23q8 43 45 72.5t80 29.5h103q33 0 56.5 -20.5t27.5 -51.5q121 72 253 72q158 0 257.5 -98.5t99.5 -247.5q0 -39 -10 -94l-93 -441q-8 -43 -44.5 -72.5t-79.5 -29.5h-349q-37 0 -59.5 22.5t-22.5 57.5 q0 14 2 22q10 43 45 73t78 30h246l72 338q6 25 6 49q0 80 -53.5 133t-137.5 53q-96 0 -180 -69.5t-106 -165.5l-92 -441q-8 -43 -45 -72.5t-80 -29.5q-37 0 -59.5 22.5t-22.5 57.5z" />
<glyph unicode="&#x5df;" d="M614 -332q0 14 2 23l232 1085h-103q-37 0 -60 22.5t-23 57.5v23q8 43 45.5 72.5t80.5 29.5h205q37 0 59.5 -22.5t22.5 -57.5q0 -14 -2 -22l-229 -1086h102q37 0 59.5 -22.5t22.5 -57.5q0 -14 -2 -22q-8 -43 -45 -73t-80 -30h-205q-37 0 -59.5 22.5t-22.5 57.5z" />
<glyph unicode="&#x5e0;" d="M389 80q0 14 2 22q10 43 45 73t78 30h184l95 420v32q0 51 -35 86t-90 35h-31q-37 0 -60.5 22.5t-23.5 57.5q0 14 2 23q8 43 45 72.5t80 29.5h31q129 0 209.5 -80t80.5 -205q0 -41 -8 -73l-110 -523q-8 -43 -45 -72.5t-80 -29.5h-287q-37 0 -59.5 22.5t-22.5 57.5z" />
<glyph unicode="&#x5e1;" d="M305 326q0 39 10 94l76 358q-37 0 -61.5 22.5t-24.5 57.5v23q8 43 47 72.5t82 29.5h522q129 0 210 -80t81 -205q0 -41 -8 -73l-43 -205q-41 -182 -196.5 -311t-337.5 -129q-158 0 -257.5 98t-99.5 248zM514 371q0 -80 53.5 -133.5t137.5 -53.5q96 0 180 70t106 166 l47 205v32q0 51 -34.5 86t-90.5 35h-317l-76 -358q-6 -25 -6 -49z" />
<glyph unicode="&#x5e2;" d="M143 80q0 14 2 22q10 43 45 73t78 30h41l123 573h-41q-37 0 -60.5 22.5t-23.5 57.5q0 14 2 23q8 43 45 72.5t80 29.5h144q37 0 59 -22.5t22 -57.5q0 -14 -2 -22l-143 -676h92q96 0 180 69.5t107 165.5l72 338h-41q-37 0 -60.5 22.5t-23.5 57.5q0 14 2 23q8 43 45 72.5 t80 29.5h143q37 0 59.5 -22.5t22.5 -57.5q0 -14 -2 -22l-92 -441q-41 -182 -197 -311t-338 -129h-338q-37 0 -59.5 22.5t-22.5 57.5z" />
<glyph unicode="&#x5e3;" d="M250 547q0 55 10 98l49 236q8 43 45 72.5t80 29.5h420q129 0 210 -80t81 -205q0 -41 -8 -73l-176 -830q37 0 59 -22.5t22 -57.5q0 -14 -2 -22q-8 -43 -45 -73t-80 -30h-102q-37 0 -59.5 22.5t-22.5 57.5q0 14 2 23l203 932v32q0 51 -35 86t-90 35h-317l-29 -133 q-8 -45 -8 -63q0 -90 84 -90h14q37 0 59.5 -23t22.5 -57q0 -14 -2 -23q-10 -43 -45 -72.5t-78 -29.5h-14q-119 0 -183.5 71.5t-64.5 188.5z" />
<glyph unicode="&#x5e4;" d="M143 80q0 14 2 22q10 43 45 73t78 30h420q63 0 117.5 45t68.5 108l62 267v32q0 51 -35 86t-90 35h-317l-39 -184l88 -4q37 0 60.5 -22.5t23.5 -57.5q0 -14 -2 -23q-8 -43 -45 -70.5t-80 -27.5h-142q-53 2 -89 36t-36 85q0 12 5 33l71 338q8 43 45 72.5t80 29.5h420 q129 0 210 -80t81 -205q0 -41 -8 -73l-58 -267q-31 -150 -157.5 -254t-276.5 -104h-420q-37 0 -59.5 22.5t-22.5 57.5z" />
<glyph unicode="&#x5e5;" d="M199 -330q0 14 2 23l231 1085h-41q-37 0 -60.5 22.5t-23.5 57.5q0 14 2 23q8 43 45 72.5t80 29.5h144q37 0 59 -22.5t22 -57.5q0 -14 -2 -22l-98 -471h154q96 0 180 69.5t104 165.5l29 133h-41q-37 0 -60.5 22.5t-23.5 57.5q0 14 2 23q8 43 45 72.5t80 29.5h143 q37 0 59.5 -22.5t22.5 -57.5q0 -14 -2 -22l-49 -236q-39 -182 -195.5 -311t-338.5 -129h-154l-86 -410h61q37 0 59.5 -22.5t22.5 -57.5q0 -14 -2 -22q-8 -43 -45 -73t-80 -30h-163q-37 0 -59.5 22.5t-22.5 57.5z" />
<glyph unicode="&#x5e6;" d="M143 80q0 14 2 22q10 43 45 73t78 30h619q-6 35 -35 59l-315 209q-113 82 -113 229q0 41 8 76h-41q-37 0 -60.5 22.5t-23.5 57.5q0 14 2 23q8 43 45 72.5t80 29.5h144q37 0 59 -22.5t22 -57.5q0 -14 -2 -22l-20 -103q-4 -25 -4 -33q0 -66 49 -98l139 -92 q82 29 136.5 91.5t68.5 131.5h-41q-37 0 -60.5 22.5t-23.5 57.5q0 14 2 23q8 43 45 72.5t80 29.5h143q37 0 59.5 -22.5t22.5 -57.5q0 -14 -2 -22l-20 -103q-44 -207 -234 -340q104 -84 105 -227q0 -33 -6 -70l-9 -39q-8 -43 -44.5 -72.5t-79.5 -29.5h-738q-37 0 -59.5 22.5 t-22.5 57.5z" />
<glyph unicode="&#x5e7;" d="M147 -330q0 14 3 23l174 819q8 43 45 72.5t80 29.5q37 0 59 -22.5t22 -56.5q0 -15 -2 -23l-174 -819q-8 -43 -45 -73t-80 -30q-37 0 -59.5 22.5t-22.5 57.5zM358 858q0 14 2 23q8 43 45 72.5t80 29.5h676q37 0 59.5 -22.5t22.5 -57.5q0 -14 -2 -22l-65 -316 q-10 -41 -39 -67l-320 -265l-6 -28h39q37 0 60.5 -22.5t23.5 -57.5q0 -14 -2 -23q-8 -43 -45 -72.5t-80 -29.5h-141q-37 0 -59.5 22.5t-22.5 57.5q0 14 2 22l37 174q10 45 45 74l311 256l37 172h-574q-37 0 -60.5 22.5t-23.5 57.5z" />
<glyph unicode="&#x5e8;" d="M348 858q0 14 2 23q8 43 45 72.5t80 29.5h420q129 0 210 -80t81 -205q0 -41 -8 -73l-111 -523q-8 -43 -45 -72.5t-80 -29.5q-37 0 -59.5 22.5t-22.5 57.5q0 14 2 22l115 523v32q0 51 -35 86t-90 35h-420q-37 0 -60.5 22.5t-23.5 57.5z" />
<glyph unicode="&#x5e9;" d="M190 285q0 41 9 73l110 523q8 43 45 72.5t80 29.5q37 0 59.5 -22.5t22.5 -57.5q0 -14 -2 -22l-111 -523q-4 -20 -4 -32q0 -51 35 -86t90 -35h31l143 676q8 43 45 72.5t80 29.5q37 0 59.5 -22.5t22.5 -57.5q0 -14 -2 -22l-143 -676h31q63 0 117.5 45t68.5 108l110 523 q8 43 45 72.5t80 29.5q37 0 59.5 -22.5t22.5 -57.5q0 -14 -2 -22l-110 -523q-31 -150 -158 -254t-276 -104h-267q-129 0 -210 80t-81 205z" />
<glyph unicode="&#x5ea;" d="M143 80q0 14 2 22q10 43 45 73t78 30h21l123 573h-21q-37 0 -60.5 22.5t-23.5 57.5q0 14 2 23q8 43 45 72.5t80 29.5h461q129 0 210 -80t81 -205q0 -41 -8 -73l-111 -523q-8 -43 -45 -72.5t-80 -29.5q-37 0 -59.5 22.5t-22.5 57.5q0 14 2 22l115 523v32q0 51 -35 86 t-90 35h-236l-143 -676q-8 -43 -45 -72.5t-80 -29.5h-123q-37 0 -59.5 22.5t-22.5 57.5z" />
<glyph unicode="&#x5f0;" d="M285 858v23q8 43 46 72.5t81 29.5h262q37 0 59.5 -22.5t22.5 -57.5q0 -14 -2 -22l-164 -779q-8 -43 -45 -72.5t-80 -29.5q-37 0 -59.5 22.5t-22.5 57.5q0 14 2 22l143 676h-159q-37 0 -60.5 22.5t-23.5 57.5zM846 858v23q8 43 46 72.5t81 29.5h262q37 0 59.5 -22.5 t22.5 -57.5q0 -14 -2 -22l-164 -779q-8 -43 -45 -72.5t-80 -29.5q-37 0 -59.5 22.5t-22.5 57.5q0 14 2 22l143 676h-159q-37 0 -60.5 22.5t-23.5 57.5z" />
<glyph unicode="&#x5f1;" d="M287 858v23q8 43 46 72.5t81 29.5h262q37 0 59.5 -22.5t22.5 -57.5q0 -14 -2 -22l-78 -369q-10 -43 -45 -72.5t-78 -29.5q-37 0 -60.5 22.5t-23.5 56.5q0 14 2 23l57 266h-159q-37 0 -60.5 22.5t-23.5 57.5zM844 854v23q8 43 46 72.5t81 29.5h262q37 0 59.5 -22.5 t22.5 -57.5q0 -14 -2 -22l-164 -779q-8 -43 -45 -72.5t-80 -29.5q-37 0 -59.5 22.5t-22.5 57.5q0 14 2 22l143 676h-159q-37 0 -60.5 22.5t-23.5 57.5z" />
<glyph unicode="&#x5f2;" d="M324 858v23q8 43 46 72.5t81 29.5h262q37 0 59.5 -22.5t22.5 -57.5q0 -14 -2 -22l-78 -369q-10 -43 -45 -72.5t-78 -29.5q-37 0 -60.5 22.5t-23.5 56.5q0 14 2 23l57 266h-159q-37 0 -60.5 22.5t-23.5 57.5zM807 858v23q8 43 46 72.5t81 29.5h262q37 0 59.5 -22.5 t22.5 -57.5q0 -14 -2 -22l-78 -369q-10 -43 -45 -72.5t-78 -29.5q-37 0 -60.5 22.5t-23.5 56.5q0 14 2 23l57 266h-159q-37 0 -60.5 22.5t-23.5 57.5z" />
<glyph unicode="&#x5f3;" d="M512 719l53 518h193l-123 -518q-8 -74 -61.5 -74t-61.5 74z" />
<glyph unicode="&#x5f4;" d="M324 719l53 518h192l-123 -518q-8 -74 -61 -74t-61 74zM692 719l53 518h193l-123 -518q-8 -74 -61.5 -74t-61.5 74z" />
<glyph unicode="&#x2000;" horiz-adv-x="829" />
<glyph unicode="&#x2001;" horiz-adv-x="1659" />
<glyph unicode="&#x2002;" horiz-adv-x="829" />
<glyph unicode="&#x2003;" horiz-adv-x="1659" />
<glyph unicode="&#x2004;" horiz-adv-x="553" />
<glyph unicode="&#x2005;" horiz-adv-x="414" />
<glyph unicode="&#x2006;" horiz-adv-x="276" />
<glyph unicode="&#x2007;" horiz-adv-x="276" />
<glyph unicode="&#x2008;" horiz-adv-x="207" />
<glyph unicode="&#x2009;" horiz-adv-x="331" />
<glyph unicode="&#x200a;" horiz-adv-x="92" />
<glyph unicode="&#x2010;" d="M207 551q0 51 47 92q35 31 113 31h784q49 0 72 -8q18 -6 31.5 -28t13.5 -44q0 -53 -47 -94q-37 -31 -113 -31h-784q-63 0 -90 18.5t-27 63.5z" />
<glyph unicode="&#x2011;" d="M207 551q0 51 47 92q35 31 113 31h784q49 0 72 -8q18 -6 31.5 -28t13.5 -44q0 -53 -47 -94q-37 -31 -113 -31h-784q-63 0 -90 18.5t-27 63.5z" />
<glyph unicode="&#x2012;" d="M207 551q0 51 47 92q35 31 113 31h784q49 0 72 -8q18 -6 31.5 -28t13.5 -44q0 -53 -47 -94q-37 -31 -113 -31h-784q-63 0 -90 18.5t-27 63.5z" />
<glyph unicode="&#x2013;" d="M205 553q0 12 2 18q12 55 67 88q27 14 91 15h786q70 0 90 -19q27 -23 27 -59q0 -8 -4 -25q-10 -57 -68 -88q-27 -14 -88 -14h-786q-70 0 -89 18q-29 25 -28 66z" />
<glyph unicode="&#x2014;" d="M59 553q0 12 2 18q14 57 68 88q27 14 90 15h1077q70 0 88 -19q29 -25 29 -59q0 -8 -4 -25q-10 -57 -68 -88q-27 -14 -88 -14h-1077q-70 0 -88 18q-29 25 -29 66z" />
<glyph unicode="&#x2018;" d="M772 1233h270l52 -424v-16q0 -33 -22.5 -56.5t-55.5 -23.5t-55 49z" />
<glyph unicode="&#x2019;" d="M455 723q0 18 16 51l246 502h272l-405 -549q-37 -49 -76 -49q-23 0 -38 13.5t-15 31.5z" />
<glyph unicode="&#x201a;" d="M242 -278.5q0 18.5 16 51.5l246 501h272l-405 -548q-37 -49 -76 -50q-23 0 -38 13.5t-15 32z" />
<glyph unicode="&#x201c;" d="M463 1233h270l51 -424v-16q0 -33 -22.5 -56.5t-55 -23.5t-55.5 49zM872 1233h271l51 -424v-16q0 -33 -22.5 -56.5t-55.5 -23.5t-55 49z" />
<glyph unicode="&#x201d;" d="M340 758q0 23 16 51l230 424h272l-389 -471q-41 -49 -78 -49q-20 0 -35.5 13t-15.5 32zM750 758q0 23 16 51l231 424h271l-389 -471q-41 -49 -78 -49q-20 0 -35.5 13t-15.5 32z" />
<glyph unicode="&#x201e;" d="M135 -201q0 23 17 51l229 424h272l-389 -471q-41 -49 -78 -49q-20 0 -35.5 13.5t-15.5 31.5zM545 -201q0 23 16 51l232 424h270l-389 -471q-41 -49 -78 -49q-20 0 -35.5 13.5t-15.5 31.5z" />
<glyph unicode="&#x202f;" horiz-adv-x="331" />
<glyph unicode="&#x205f;" horiz-adv-x="414" />
<glyph unicode="&#x20ac;" d="M109 461q0 10 2 16q10 57 65 58h57l19 86h-57q-45 0 -45 41q0 2 1 8t1 8q12 57 65 57h66q72 213 240.5 350.5t361.5 137.5q143 0 262 -78q43 49 88 49q49 0 70 -49q4 -12 4 -23q0 -8 -11 -63l-36 -172q-12 -66 -37 -92q-37 -43 -84 -43q-70 0 -70 90v18v14q0 55 -55 95 q-70 49 -166 49q-106 0 -197.5 -76t-142.5 -207h399q47 0 47 -41q0 -10 -2 -16q-10 -57 -69 -57h-408l-18 -86h352q47 0 47 -41q0 -2 -1 -8.5t-1 -8.5q-12 -57 -68 -57h-342q0 -115 70 -179.5t195 -64.5t209 47q23 12 86 70q39 33 71.5 33t53 -22.5t20.5 -57.5q0 -14 -2 -23 q-16 -74 -129 -149q-152 -102 -361 -103q-203 0 -322.5 114t-119.5 304v31h-63q-45 0 -45 41z" />
<glyph unicode="&#xe000;" horiz-adv-x="890" d="M0 0v891h891v-891h-891z" />
<glyph unicode="&#xfb1d;" d="M496 858v23q8 43 46 72.5t81 29.5h262q37 0 59.5 -22.5t22.5 -57.5q0 -14 -2 -22l-78 -369q-10 -43 -45 -72.5t-78 -29.5q-37 0 -60.5 22.5t-23.5 56.5q0 14 2 23l57 266h-159q-37 0 -60.5 22.5t-23.5 57.5zM630 188v19q8 35 40 60.5t67 25.5q31 0 50.5 -19.5t19.5 -48.5 q0 -12 -3 -18q-8 -35 -38.5 -59.5t-65.5 -24.5q-31 0 -50.5 18t-19.5 47z" />
<glyph unicode="&#xfb1e;" horiz-adv-x="0" d="M-18 1284q0 47 39.5 85t84.5 38q35 0 58 -21q16 -14 33.5 -33.5t23.5 -25.5t20.5 -11t37 -5t39 5t25.5 11t34.5 24.5t48.5 34.5q29 20 66 21q35 0 58 -23.5t23 -58.5q0 -12 -2 -20q-8 -39 -57 -82q-41 -37 -123 -77t-155 -40q-70 0 -132.5 36t-97.5 81q-25 27 -24 61z " />
<glyph unicode="&#xfb1f;" d="M336 858v23q8 43 46 72.5t81 29.5h262q37 0 59.5 -22.5t22.5 -57.5q0 -14 -2 -22l-78 -369q-10 -43 -45 -72.5t-78 -29.5q-37 0 -60.5 22.5t-23.5 56.5q0 14 2 23l57 266h-159q-37 0 -60.5 22.5t-23.5 57.5zM401 215v18q6 33 36 57.5t64 24.5h336q29 0 48.5 -19.5 t19.5 -47.5q0 -2 -1 -6.5t-1 -8.5q-8 -35 -38 -58.5t-63 -23.5h-335q-29 0 -47.5 17.5t-18.5 46.5zM820 858v23q8 43 46 72.5t81 29.5h262q37 0 59.5 -22.5t22.5 -57.5q0 -14 -2 -22l-78 -369q-10 -43 -45 -72.5t-78 -29.5q-37 0 -60.5 22.5t-23.5 56.5q0 14 2 23l57 266 h-159q-37 0 -60.5 22.5t-23.5 57.5z" />
<glyph unicode="&#xfb20;" d="M143 80q0 14 2 22q10 43 45 73t78 30h41l123 573h-41q-37 0 -60.5 22.5t-23.5 57.5q0 14 2 23q8 43 45 72.5t80 29.5h144q37 0 59 -22.5t22 -57.5q0 -14 -2 -22l-143 -676h92q96 0 180 69.5t107 165.5l72 338h-41q-37 0 -60.5 22.5t-23.5 57.5q0 14 2 23q8 43 45 72.5 t80 29.5h143q37 0 59.5 -22.5t22.5 -57.5q0 -14 -2 -22l-92 -441q-41 -182 -197 -311t-338 -129h-338q-37 0 -59.5 22.5t-22.5 57.5z" />
<glyph unicode="&#xfb21;" d="M143 80v22l58 260q41 184 245 291l-120 156q-18 23 -19 49q0 53 49 94q33 31 78 31t66 -31l368 -467q82 35 119 65t45 71l35 157h-27q-37 0 -60.5 22.5t-23.5 57.5q0 14 2 23q8 43 45 72.5t80 29.5h129q37 0 59.5 -22.5t22.5 -57.5q0 -14 -2 -22l-55 -260 q-41 -178 -250 -289l125 -158q18 -23 18 -49q0 -53 -49 -94q-33 -31 -78 -31t-65 31l-371 469q-82 -33 -117.5 -61.5t-43.5 -76.5l-35 -157h26q37 0 60.5 -22.5t23.5 -57.5q0 -14 -2 -23q-8 -43 -45 -72.5t-80 -29.5h-129q-37 0 -59.5 22.5t-22.5 57.5z" />
<glyph unicode="&#xfb22;" d="M307 858q0 14 2 23q8 43 45 72.5t80 29.5h778q37 0 59.5 -22.5t22.5 -57.5q0 -14 -2 -22q-10 -43 -45 -73t-78 -30h-102l-143 -676q-8 -43 -45 -72.5t-80 -29.5q-37 0 -59.5 22.5t-22.5 57.5q0 14 2 22l143 676h-471q-37 0 -60.5 22.5t-23.5 57.5z" />
<glyph unicode="&#xfb23;" d="M229 80q0 14 2 22l74 353q8 43 45 72.5t80 29.5q37 0 59.5 -22.5t22.5 -57.5q0 -14 -2 -22l-74 -353q-8 -43 -45 -72.5t-80 -29.5q-37 0 -59.5 22.5t-22.5 57.5zM358 858q0 14 2 23q8 43 45 72.5t80 29.5h420q129 0 210 -80t81 -205q0 -41 -8 -73l-111 -523 q-8 -43 -45 -72.5t-80 -29.5q-37 0 -59.5 22.5t-22.5 57.5q0 14 2 22l115 523v32q0 51 -34.5 86t-90.5 35h-420q-37 0 -60.5 22.5t-23.5 57.5z" />
<glyph unicode="&#xfb24;" d="M184 80q0 14 2 22q10 43 45 73t78 30h348q84 0 158 60.5t92 144.5l39 163v41q0 70 -46 117t-120 47h-348q-37 0 -60.5 22.5t-23.5 57.5q0 14 2 23q8 43 45 72.5t80 29.5h348q145 0 238.5 -93t93.5 -233q0 -45 -8 -84l-35 -163q-37 -170 -183.5 -290t-314.5 -120h-348 q-37 0 -59.5 22.5t-22.5 57.5z" />
<glyph unicode="&#xfb25;" d="M410 858q0 14 2 23l65 307q8 43 45 72.5t80 29.5q37 0 59.5 -22.5t22.5 -57.5q0 -14 -2 -22l-43 -205h573q37 0 59.5 -22.5t22.5 -57.5q0 -14 -2 -22l-45 -215q-10 -41 -39 -68l-442 -365l-6 -28h39q37 0 60.5 -22.5t23.5 -57.5q0 -14 -2 -23q-8 -43 -45 -72.5t-80 -29.5 h-142q-37 0 -59.5 22.5t-22.5 57.5q0 14 3 22l36 174q10 45 45 74l435 357l16 71h-573q-37 0 -60.5 22.5t-23.5 57.5z" />
<glyph unicode="&#xfb26;" d="M246 80q0 14 2 22l143 676q-37 0 -60.5 22.5t-23.5 57.5q0 14 2 23q8 43 45 72.5t80 29.5h522q129 0 210 -80t81 -205q0 -41 -8 -73l-111 -523q-8 -43 -44.5 -72.5t-79.5 -29.5h-676q-37 0 -59.5 22.5t-22.5 57.5zM473 205h471l94 420v32q0 51 -34.5 86t-90.5 35h-317z " />
<glyph unicode="&#xfb27;" d="M348 858q0 14 2 23q8 43 45 72.5t80 29.5h420q129 0 210 -80t81 -205q0 -41 -8 -73l-111 -523q-8 -43 -45 -72.5t-80 -29.5q-37 0 -59.5 22.5t-22.5 57.5q0 14 2 22l115 523v32q0 51 -35 86t-90 35h-420q-37 0 -60.5 22.5t-23.5 57.5z" />
<glyph unicode="&#xfb28;" d="M143 80q0 14 2 22q10 43 45 73t78 30h21l123 573h-21q-37 0 -60.5 22.5t-23.5 57.5q0 14 2 23q8 43 45 72.5t80 29.5h461q129 0 210 -80t81 -205q0 -41 -8 -73l-111 -523q-8 -43 -45 -72.5t-80 -29.5q-37 0 -59.5 22.5t-22.5 57.5q0 14 2 22l115 523v32q0 51 -35 86 t-90 35h-236l-143 -676q-8 -43 -45 -72.5t-80 -29.5h-123q-37 0 -59.5 22.5t-22.5 57.5z" />
<glyph unicode="&#xfb29;" d="M207 551q0 14 2 22q10 57 67 89q25 14 89 14h290l72 336q16 70 41 92q37 43 90 43q57 0 78 -49q6 -12 6 -27q0 -12 -10 -59l-72 -336h289q70 0 90 -19q29 -25 29 -65q0 -12 -2 -19q-14 -59 -70 -88q-27 -14 -90 -14h-784q-70 0 -89 18q-27 27 -26 62z" />
<glyph unicode="&#xfb2a;" d="M190 285q0 41 9 73l110 523q8 43 45 72.5t80 29.5q37 0 59.5 -22.5t22.5 -57.5q0 -14 -2 -22l-111 -523q-4 -20 -4 -32q0 -51 35 -86t90 -35h31l143 676q8 43 45 72.5t80 29.5q37 0 59.5 -22.5t22.5 -57.5q0 -14 -2 -22l-143 -676h31q63 0 117.5 45t68.5 108l110 523 q8 43 45 72.5t80 29.5q37 0 59.5 -22.5t22.5 -57.5q0 -14 -2 -22l-110 -523q-31 -150 -158 -254t-276 -104h-267q-129 0 -210 80t-81 205zM1170 1113v18q8 35 38.5 59.5t67.5 24.5q29 0 49.5 -19.5t20.5 -48.5q0 -10 -2 -16q-8 -35 -39 -61.5t-65 -26.5q-31 0 -50.5 19.5 t-19.5 50.5z" />
<glyph unicode="&#xfb2b;" d="M190 285q0 41 9 73l110 523q8 43 45 72.5t80 29.5q37 0 59.5 -22.5t22.5 -57.5q0 -14 -2 -22l-111 -523q-4 -20 -4 -32q0 -51 35 -86t90 -35h31l143 676q8 43 45 72.5t80 29.5q37 0 59.5 -22.5t22.5 -57.5q0 -14 -2 -22l-143 -676h31q63 0 117.5 45t68.5 108l110 523 q8 43 45 72.5t80 29.5q37 0 59.5 -22.5t22.5 -57.5q0 -14 -2 -22l-110 -523q-31 -150 -158 -254t-276 -104h-267q-129 0 -210 80t-81 205zM391 1110v18q8 35 38.5 59.5t67.5 24.5q29 0 49.5 -19.5t20.5 -48.5q0 -10 -2 -16q-8 -35 -39 -61.5t-65 -26.5q-31 0 -50.5 19.5 t-19.5 50.5z" />
<glyph unicode="&#xfb2c;" d="M190 285q0 41 9 73l110 523q8 43 45 72.5t80 29.5q37 0 59.5 -22.5t22.5 -57.5q0 -14 -2 -22l-111 -523q-4 -20 -4 -32q0 -51 35 -86t90 -35h31l143 676q8 43 45 72.5t80 29.5q37 0 59.5 -22.5t22.5 -57.5q0 -14 -2 -22l-143 -676h31q63 0 117.5 45t68.5 108l110 523 q8 43 45 72.5t80 29.5q37 0 59.5 -22.5t22.5 -57.5q0 -14 -2 -22l-110 -523q-31 -150 -158 -254t-276 -104h-267q-129 0 -210 80t-81 205zM853 465v19q6 35 28.5 60.5t46.5 25.5q22 0 35.5 -19.5t13.5 -48.5q0 -12 -2 -18q-6 -35 -27 -59.5t-46 -24.5q-22 0 -35.5 18 t-13.5 47zM1170 1113v18q8 35 38.5 59.5t67.5 24.5q29 0 49.5 -19.5t20.5 -48.5q0 -10 -2 -16q-8 -35 -39 -61.5t-65 -26.5q-31 0 -50.5 19.5t-19.5 50.5z" />
<glyph unicode="&#xfb2d;" d="M190 285q0 41 9 73l110 523q8 43 45 72.5t80 29.5q37 0 59.5 -22.5t22.5 -57.5q0 -14 -2 -22l-111 -523q-4 -20 -4 -32q0 -51 35 -86t90 -35h31l143 676q8 43 45 72.5t80 29.5q37 0 59.5 -22.5t22.5 -57.5q0 -14 -2 -22l-143 -676h31q63 0 117.5 45t68.5 108l110 523 q8 43 45 72.5t80 29.5q37 0 59.5 -22.5t22.5 -57.5q0 -14 -2 -22l-110 -523q-31 -150 -158 -254t-276 -104h-267q-129 0 -210 80t-81 205zM391 1110v18q8 35 38.5 59.5t67.5 24.5q29 0 49.5 -19.5t20.5 -48.5q0 -10 -2 -16q-8 -35 -39 -61.5t-65 -26.5q-31 0 -50.5 19.5 t-19.5 50.5zM853 465v19q6 35 28.5 60.5t46.5 25.5q22 0 35.5 -19.5t13.5 -48.5q0 -12 -2 -18q-6 -35 -27 -59.5t-46 -24.5q-22 0 -35.5 18t-13.5 47z" />
<glyph unicode="&#xfb2e;" d="M143 80v22l58 260q41 184 245 291l-120 156q-18 23 -19 49q0 53 49 94q33 31 78 31t66 -31l368 -467q82 35 119 65t45 71l35 157h-27q-37 0 -60.5 22.5t-23.5 57.5q0 14 2 23q8 43 45 72.5t80 29.5h129q37 0 59.5 -22.5t22.5 -57.5q0 -14 -2 -22l-55 -260 q-41 -178 -250 -289l125 -158q18 -23 18 -49q0 -53 -49 -94q-33 -31 -78 -31t-65 31l-371 469q-82 -33 -117.5 -61.5t-43.5 -76.5l-35 -157h26q37 0 60.5 -22.5t23.5 -57.5q0 -14 -2 -23q-8 -43 -45 -72.5t-80 -29.5h-129q-37 0 -59.5 22.5t-22.5 57.5zM319 -205 q6 33 36 57.5t64 24.5h336q29 0 48.5 -19.5t19.5 -47.5q0 -2 -1 -6.5t-1 -8.5q-8 -35 -38 -58.5t-63 -23.5h-335q-29 0 -47.5 17.5t-18.5 46.5v18z" />
<glyph unicode="&#xfb2f;" d="M143 80v22l58 260q41 184 245 291l-120 156q-18 23 -19 49q0 53 49 94q33 31 78 31t66 -31l368 -467q82 35 119 65t45 71l35 157h-27q-37 0 -60.5 22.5t-23.5 57.5q0 14 2 23q8 43 45 72.5t80 29.5h129q37 0 59.5 -22.5t22.5 -57.5q0 -14 -2 -22l-55 -260 q-41 -178 -250 -289l125 -158q18 -23 18 -49q0 -53 -49 -94q-33 -31 -78 -31t-65 31l-371 469q-82 -33 -117.5 -61.5t-43.5 -76.5l-35 -157h26q37 0 60.5 -22.5t23.5 -57.5q0 -14 -2 -23q-8 -43 -45 -72.5t-80 -29.5h-129q-37 0 -59.5 22.5t-22.5 57.5zM319 -223q0 12 2 18 q6 33 35 57.5t63 24.5h336q29 0 48.5 -19.5t19.5 -47.5q0 -2 -1 -6.5t-1 -8.5q-8 -35 -38 -58.5t-63 -23.5h-86l-20 -110q-8 -33 -38 -57.5t-64 -24.5q-66 0 -66 59q0 16 2 23l23 110h-86q-29 0 -47.5 17.5t-18.5 46.5z" />
<glyph unicode="&#xfb30;" d="M143 80v22l58 260q41 184 245 291l-120 156q-18 23 -19 49q0 53 49 94q33 31 78 31t66 -31l368 -467q82 35 119 65t45 71l35 157h-27q-37 0 -60.5 22.5t-23.5 57.5q0 14 2 23q8 43 45 72.5t80 29.5h129q37 0 59.5 -22.5t22.5 -57.5q0 -14 -2 -22l-55 -260 q-41 -178 -250 -289l125 -158q18 -23 18 -49q0 -53 -49 -94q-33 -31 -78 -31t-65 31l-371 469q-82 -33 -117.5 -61.5t-43.5 -76.5l-35 -157h26q37 0 60.5 -22.5t23.5 -57.5q0 -14 -2 -23q-8 -43 -45 -72.5t-80 -29.5h-129q-37 0 -59.5 22.5t-22.5 57.5zM565 78v19 q8 35 40 60.5t67 25.5q31 0 50.5 -19.5t19.5 -48.5q0 -12 -3 -18q-8 -35 -38.5 -59.5t-65.5 -24.5q-31 0 -50.5 18t-19.5 47z" />
<glyph unicode="&#xfb31;" d="M143 80q0 14 2 22q10 43 45 73t78 30h523l94 420v32q0 51 -35 86t-90 35h-369q-37 0 -60.5 22.5t-23.5 57.5q0 14 2 23q8 43 45 72.5t80 29.5h369q129 0 210 -80t81 -205q0 -41 -9 -73l-90 -420h52q37 0 60 -22.5t23 -57.5q0 -14 -2 -23q-8 -43 -44.5 -72.5t-79.5 -29.5 h-779q-37 0 -59.5 22.5t-22.5 57.5zM520 475v19q8 35 40 60.5t67 25.5q31 0 50.5 -19.5t19.5 -48.5q0 -12 -3 -18q-8 -35 -38.5 -59.5t-65.5 -24.5q-31 0 -50.5 18t-19.5 47z" />
<glyph unicode="&#xfb32;" d="M248 80q0 14 2 22q14 72 88 99q274 94 469 323l55 254h-262q-37 0 -60.5 22.5t-23.5 57.5q0 14 2 23q8 43 45 72.5t80 29.5h365q37 0 59.5 -22.5t22.5 -57.5q0 -14 -3 -22l-163 -779q-8 -43 -45 -72.5t-80 -29.5q-37 0 -59.5 22.5t-22.5 57.5q0 14 2 22l22 107 q-170 -131 -376 -203q-18 -6 -33 -6q-35 0 -59.5 22.5t-24.5 57.5zM485 553v19q8 35 40 60.5t67 25.5q31 0 50.5 -19.5t19.5 -48.5q0 -12 -3 -18q-8 -35 -38.5 -59.5t-65.5 -24.5q-31 0 -50.5 18t-19.5 47z" />
<glyph unicode="&#xfb33;" d="M307 858q0 14 2 23q8 43 45 72.5t80 29.5h778q37 0 59.5 -22.5t22.5 -57.5q0 -14 -2 -22q-10 -43 -45 -73t-78 -30h-102l-143 -676q-8 -43 -45 -72.5t-80 -29.5q-37 0 -59.5 22.5t-22.5 57.5q0 14 2 22l143 676h-471q-37 0 -60.5 22.5t-23.5 57.5zM432 469v19 q8 35 40 60.5t67 25.5q31 0 50.5 -19.5t19.5 -48.5q0 -12 -3 -18q-8 -35 -38.5 -59.5t-65.5 -24.5q-31 0 -50.5 18t-19.5 47z" />
<glyph unicode="&#xfb34;" d="M229 80q0 14 2 22l74 353q8 43 45 72.5t80 29.5q37 0 59.5 -22.5t22.5 -57.5q0 -14 -2 -22l-74 -353q-8 -43 -45 -72.5t-80 -29.5q-37 0 -59.5 22.5t-22.5 57.5zM358 858q0 14 2 23q8 43 45 72.5t80 29.5h420q129 0 210 -80t81 -205q0 -41 -8 -73l-111 -523 q-8 -43 -45 -72.5t-80 -29.5q-37 0 -59.5 22.5t-22.5 57.5q0 14 2 22l115 523v32q0 51 -34.5 86t-90.5 35h-420q-37 0 -60.5 22.5t-23.5 57.5zM626 469v19q8 35 40 60.5t67 25.5q31 0 50.5 -19.5t19.5 -48.5q0 -12 -3 -18q-8 -35 -38.5 -59.5t-65.5 -24.5q-31 0 -50.5 18 t-19.5 47z" />
<glyph unicode="&#xfb35;" d="M405 473v19q8 35 40 60.5t67 25.5q31 0 50.5 -19.5t19.5 -48.5q0 -12 -3 -18q-8 -35 -38.5 -59.5t-65.5 -24.5q-31 0 -50.5 18t-19.5 47zM496 858v23q8 43 46 72.5t81 29.5h262q37 0 59.5 -22.5t22.5 -57.5q0 -14 -2 -22l-164 -779q-8 -43 -45 -72.5t-80 -29.5 q-37 0 -59.5 22.5t-22.5 57.5q0 14 2 22l143 676h-159q-37 0 -60.5 22.5t-23.5 57.5z" />
<glyph unicode="&#xfb36;" d="M356 473v19q8 35 40 60.5t67 25.5q31 0 50.5 -19.5t19.5 -48.5q0 -12 -3 -18q-8 -35 -38.5 -59.5t-65.5 -24.5q-31 0 -50.5 18t-19.5 47zM436 860q0 12 2 21q8 43 46 72.5t79 29.5h520q35 0 58.5 -22.5t23.5 -57.5q0 -14 -2 -22q-8 -43 -45 -73t-78 -30h-157l-144 -676 q-8 -43 -45 -72.5t-80 -29.5q-37 0 -59.5 22.5t-22.5 57.5q0 14 3 22l143 676h-158q-37 0 -60.5 23.5t-23.5 58.5z" />
<glyph unicode="&#xfb37;" d="M246 80q0 14 2 22l143 676q-37 0 -60.5 22.5t-23.5 57.5q0 14 2 23q8 43 45 72.5t80 29.5h778q37 0 59.5 -22.5t22.5 -57.5q0 -14 -2 -22q-10 -43 -45 -73t-78 -30l-143 -676q-8 -43 -45 -72.5t-80 -29.5q-37 0 -59.5 22.5t-22.5 57.5q0 14 2 22l144 676h-369l-143 -676 q-8 -43 -45 -72.5t-80 -29.5q-37 0 -59.5 22.5t-22.5 57.5zM634 473v19q8 35 40 60.5t67 25.5q31 0 50.5 -19.5t19.5 -48.5q0 -12 -3 -18q-8 -35 -38.5 -59.5t-65.5 -24.5q-31 0 -50.5 18t-19.5 47z" />
<glyph unicode="&#xfb38;" d="M305 326q0 39 10 94l76 358q-37 0 -61.5 22.5t-24.5 57.5v23q8 43 47 72.5t82 29.5h103q37 0 59 -22.5t22 -57.5q0 -14 -2 -22l-96 -461q-6 -25 -6 -49q0 -80 53.5 -133.5t137.5 -53.5q94 0 181 79t109 177l52 236v22q0 35 -23 57.5t-59 22.5q-43 0 -74 -24 q-37 -31 -78 -31q-35 0 -59.5 23.5t-24.5 58.5q0 12 2 18q10 45 45 72q104 88 232 88q111 0 181.5 -61.5t70.5 -161.5q0 -31 -7 -64l-53 -256q-41 -184 -199.5 -322t-338.5 -138q-158 0 -257.5 98t-99.5 248zM661 465v19q8 35 40 60.5t67 25.5q31 0 50.5 -19.5t19.5 -48.5 q0 -12 -3 -18q-8 -35 -38.5 -59.5t-65.5 -24.5q-31 0 -50.5 18t-19.5 47z" />
<glyph unicode="&#xfb39;" d="M460 569v19q8 35 40 60.5t67 25.5q31 0 50.5 -19.5t19.5 -48.5q0 -12 -3 -18q-8 -35 -38.5 -59.5t-65.5 -24.5q-31 0 -50.5 18t-19.5 47zM496 858v23q8 43 46 72.5t81 29.5h262q37 0 59.5 -22.5t22.5 -57.5q0 -14 -2 -22l-78 -369q-10 -43 -45 -72.5t-78 -29.5 q-37 0 -60.5 22.5t-23.5 56.5q0 14 2 23l57 266h-159q-37 0 -60.5 22.5t-23.5 57.5z" />
<glyph unicode="&#xfb3a;" d="M246 858q0 14 2 23q8 43 45 72.5t80 29.5h778q37 0 59.5 -22.5t22.5 -57.5q0 -14 -2 -22q-10 -43 -45 -73t-78 -30h-102l-209 -983h102q37 0 59.5 -22.5t22.5 -57.5q0 -14 -2 -22q-8 -43 -45 -73t-80 -30h-205q-37 0 -59.5 22.5t-22.5 57.5v23l234 1085h-471 q-37 0 -60.5 22.5t-23.5 57.5zM397 471v19q8 35 40 60.5t67 25.5q31 0 50.5 -19.5t19.5 -48.5q0 -12 -3 -18q-8 -35 -38.5 -59.5t-65.5 -24.5q-31 0 -50.5 18t-19.5 47z" />
<glyph unicode="&#xfb3b;" d="M184 80q0 14 2 22q10 43 45 73t78 30h348q84 0 158 60.5t92 144.5l39 163v41q0 70 -46 117t-120 47h-348q-37 0 -60.5 22.5t-23.5 57.5q0 14 2 23q8 43 45 72.5t80 29.5h348q145 0 238.5 -93t93.5 -233q0 -45 -8 -84l-35 -163q-37 -170 -183.5 -290t-314.5 -120h-348 q-37 0 -59.5 22.5t-22.5 57.5zM546 473v19q8 35 40 60.5t67 25.5q31 0 50.5 -19.5t19.5 -48.5q0 -12 -3 -18q-8 -35 -38.5 -59.5t-65.5 -24.5q-31 0 -50.5 18t-19.5 47z" />
<glyph unicode="&#xfb3c;" d="M410 858q0 14 2 23l65 307q8 43 45 72.5t80 29.5q37 0 59.5 -22.5t22.5 -57.5q0 -14 -2 -22l-43 -205h573q37 0 59.5 -22.5t22.5 -57.5q0 -14 -2 -22l-45 -215q-10 -41 -39 -68l-442 -365l-6 -28h39q37 0 60.5 -22.5t23.5 -57.5q0 -14 -2 -23q-8 -43 -45 -72.5t-80 -29.5 h-142q-37 0 -59.5 22.5t-22.5 57.5q0 14 3 22l36 174q10 45 45 74l435 357l16 71h-573q-37 0 -60.5 22.5t-23.5 57.5zM475 547v19q8 35 40 60.5t67 25.5q31 0 50.5 -19.5t19.5 -48.5q0 -12 -3 -18q-8 -35 -38.5 -59.5t-65.5 -24.5q-31 0 -50.5 18t-19.5 47z" />
<glyph unicode="&#xfb3d;" d="M246 80q0 14 2 22l143 676q-37 0 -60.5 22.5t-23.5 57.5q0 14 2 23q8 43 45 72.5t80 29.5h522q129 0 210 -80t81 -205q0 -41 -8 -73l-111 -523q-8 -43 -44.5 -72.5t-79.5 -29.5h-676q-37 0 -59.5 22.5t-22.5 57.5zM473 205h471l94 420v32q0 51 -34.5 86t-90.5 35h-317z M673 473v19q8 35 40 60.5t67 25.5q31 0 50.5 -19.5t19.5 -48.5q0 -12 -3 -18q-8 -35 -38.5 -59.5t-65.5 -24.5q-31 0 -50.5 18t-19.5 47z" />
<glyph unicode="&#xfb3e;" d="M246 80q0 14 2 22l143 676q-37 0 -60.5 22.5t-23.5 57.5q0 14 2 23q8 43 45 72.5t80 29.5h103q33 0 56.5 -20.5t27.5 -51.5q121 72 253 72q158 0 257.5 -98.5t99.5 -247.5q0 -39 -10 -94l-93 -441q-8 -43 -44.5 -72.5t-79.5 -29.5h-349q-37 0 -59.5 22.5t-22.5 57.5 q0 14 2 22q10 43 45 73t78 30h246l72 338q6 25 6 49q0 80 -53.5 133t-137.5 53q-96 0 -180 -69.5t-106 -165.5l-92 -441q-8 -43 -45 -72.5t-80 -29.5q-37 0 -59.5 22.5t-22.5 57.5zM694 473v19q8 35 40 60.5t67 25.5q31 0 50.5 -19.5t19.5 -48.5q0 -12 -3 -18 q-8 -35 -38.5 -59.5t-65.5 -24.5q-31 0 -50.5 18t-19.5 47z" />
<glyph unicode="&#xfb3f;" d="M508 461v19q8 35 40 60.5t67 25.5q31 0 50.5 -19.5t19.5 -48.5q0 -12 -3 -18q-8 -35 -38.5 -59.5t-65.5 -24.5q-31 0 -50.5 18t-19.5 47zM614 -332q0 14 2 23l232 1085h-103q-37 0 -60 22.5t-23 57.5v23q8 43 45.5 72.5t80.5 29.5h205q37 0 59.5 -22.5t22.5 -57.5 q0 -14 -2 -22l-229 -1086h102q37 0 59.5 -22.5t22.5 -57.5q0 -14 -2 -22q-8 -43 -45 -73t-80 -30h-205q-37 0 -59.5 22.5t-22.5 57.5z" />
<glyph unicode="&#xfb40;" d="M389 80q0 14 2 22q10 43 45 73t78 30h184l95 420v32q0 51 -35 86t-90 35h-31q-37 0 -60.5 22.5t-23.5 57.5q0 14 2 23q8 43 45 72.5t80 29.5h31q129 0 209.5 -80t80.5 -205q0 -41 -8 -73l-110 -523q-8 -43 -45 -72.5t-80 -29.5h-287q-37 0 -59.5 22.5t-22.5 57.5z M489 473v19q8 35 40 60.5t67 25.5q31 0 50.5 -19.5t19.5 -48.5q0 -12 -3 -18q-8 -35 -38.5 -59.5t-65.5 -24.5q-31 0 -50.5 18t-19.5 47z" />
<glyph unicode="&#xfb41;" d="M305 326q0 39 10 94l76 358q-37 0 -61.5 22.5t-24.5 57.5v23q8 43 47 72.5t82 29.5h522q129 0 210 -80t81 -205q0 -41 -8 -73l-43 -205q-41 -182 -196.5 -311t-337.5 -129q-158 0 -257.5 98t-99.5 248zM514 371q0 -80 53.5 -133.5t137.5 -53.5q96 0 180 70t106 166 l47 205v32q0 51 -34.5 86t-90.5 35h-317l-76 -358q-6 -25 -6 -49zM667 473v19q8 35 40 60.5t67 25.5q31 0 50.5 -19.5t19.5 -48.5q0 -12 -3 -18q-8 -35 -38.5 -59.5t-65.5 -24.5q-31 0 -50.5 18t-19.5 47z" />
<glyph unicode="&#xfb42;" d="M143 80q0 14 2 22q10 43 45 73t78 30h41l123 573h-41q-37 0 -60.5 22.5t-23.5 57.5q0 14 2 23q8 43 45 72.5t80 29.5h144q37 0 59 -22.5t22 -57.5q0 -14 -2 -22l-143 -676h92q96 0 180 69.5t107 165.5l72 338h-41q-37 0 -60.5 22.5t-23.5 57.5q0 14 2 23q8 43 45 72.5 t80 29.5h143q37 0 59.5 -22.5t22.5 -57.5q0 -14 -2 -22l-92 -441q-41 -182 -197 -311t-338 -129h-338q-37 0 -59.5 22.5t-22.5 57.5zM657 473v19q8 35 40 60.5t67 25.5q31 0 50.5 -19.5t19.5 -48.5q0 -12 -3 -18q-8 -35 -38.5 -59.5t-65.5 -24.5q-31 0 -50.5 18t-19.5 47z " />
<glyph unicode="&#xfb43;" d="M250 547q0 55 10 98l49 236q8 43 45 72.5t80 29.5h420q129 0 210 -80t81 -205q0 -41 -8 -73l-176 -830q37 0 59 -22.5t22 -57.5q0 -14 -2 -22q-8 -43 -45 -73t-80 -30h-102q-37 0 -59.5 22.5t-22.5 57.5q0 14 2 23l203 932v32q0 51 -35 86t-90 35h-317l-29 -133 q-8 -45 -8 -63q0 -90 84 -90h14q37 0 59.5 -23t22.5 -57q0 -14 -2 -23q-10 -43 -45 -72.5t-78 -29.5h-14q-119 0 -183.5 71.5t-64.5 188.5zM683 360v19q6 35 28.5 60.5t46.5 25.5q22 0 35.5 -19.5t13.5 -48.5q0 -12 -2 -18q-6 -35 -27 -59.5t-46 -24.5q-22 0 -35.5 18 t-13.5 47z" />
<glyph unicode="&#xfb44;" d="M143 80q0 14 2 22q10 43 45 73t78 30h420q63 0 117.5 45t68.5 108l62 267v32q0 51 -35 86t-90 35h-317l-39 -184l88 -4q37 0 60.5 -22.5t23.5 -57.5q0 -14 -2 -23q-8 -43 -45 -70.5t-80 -27.5h-142q-53 2 -89 36t-36 85q0 12 5 33l71 338q8 43 45 72.5t80 29.5h420 q129 0 210 -80t81 -205q0 -41 -8 -73l-58 -267q-31 -150 -157.5 -254t-276.5 -104h-420q-37 0 -59.5 22.5t-22.5 57.5zM689 465v19q6 35 28.5 60.5t46.5 25.5q22 0 35.5 -19.5t13.5 -48.5q0 -12 -2 -18q-6 -35 -27 -59.5t-46 -24.5q-22 0 -35.5 18t-13.5 47z" />
<glyph unicode="&#xfb45;" d="M199 -330q0 14 2 23l231 1085h-41q-37 0 -60.5 22.5t-23.5 57.5q0 14 2 23q8 43 45 72.5t80 29.5h144q37 0 59 -22.5t22 -57.5q0 -14 -2 -22l-98 -471h154q96 0 180 69.5t104 165.5l29 133h-41q-37 0 -60.5 22.5t-23.5 57.5q0 14 2 23q8 43 45 72.5t80 29.5h143 q37 0 59.5 -22.5t22.5 -57.5q0 -14 -2 -22l-49 -236q-39 -182 -195.5 -311t-338.5 -129h-154l-86 -410h61q37 0 59.5 -22.5t22.5 -57.5q0 -14 -2 -22q-8 -43 -45 -73t-80 -30h-163q-37 0 -59.5 22.5t-22.5 57.5zM692 645v19q8 35 40 60.5t67 25.5q31 0 50.5 -19.5 t19.5 -48.5q0 -12 -3 -18q-8 -35 -38.5 -59.5t-65.5 -24.5q-31 0 -50.5 18t-19.5 47z" />
<glyph unicode="&#xfb46;" d="M143 80q0 14 2 22q10 43 45 73t78 30h619q-6 35 -35 59l-315 209q-113 82 -113 229q0 41 8 76h-41q-37 0 -60.5 22.5t-23.5 57.5q0 14 2 23q8 43 45 72.5t80 29.5h144q37 0 59 -22.5t22 -57.5q0 -14 -2 -22l-20 -103q-4 -25 -4 -33q0 -66 49 -98l139 -92 q82 29 136.5 91.5t68.5 131.5h-41q-37 0 -60.5 22.5t-23.5 57.5q0 14 2 23q8 43 45 72.5t80 29.5h143q37 0 59.5 -22.5t22.5 -57.5q0 -14 -2 -22l-20 -103q-44 -207 -234 -340q104 -84 105 -227q0 -33 -6 -70l-9 -39q-8 -43 -44.5 -72.5t-79.5 -29.5h-738q-37 0 -59.5 22.5 t-22.5 57.5zM245 373v19q8 35 40 60.5t67 25.5q31 0 50.5 -19.5t19.5 -48.5q0 -12 -3 -18q-8 -35 -38.5 -59.5t-65.5 -24.5q-31 0 -50.5 18t-19.5 47z" />
<glyph unicode="&#xfb47;" d="M147 -330q0 14 3 23l174 819q8 43 45 72.5t80 29.5q37 0 59 -22.5t22 -56.5q0 -15 -2 -23l-174 -819q-8 -43 -45 -73t-80 -30q-37 0 -59.5 22.5t-22.5 57.5zM358 858q0 14 2 23q8 43 45 72.5t80 29.5h676q37 0 59.5 -22.5t22.5 -57.5q0 -14 -2 -22l-65 -316 q-10 -41 -39 -67l-320 -265l-6 -28h39q37 0 60.5 -22.5t23.5 -57.5q0 -14 -2 -23q-8 -43 -45 -72.5t-80 -29.5h-141q-37 0 -59.5 22.5t-22.5 57.5q0 14 2 22l37 174q10 45 45 74l311 256l37 172h-574q-37 0 -60.5 22.5t-23.5 57.5zM602 567v19q8 35 40 60.5t67 25.5 q31 0 50.5 -19.5t19.5 -48.5q0 -12 -3 -18q-8 -35 -38.5 -59.5t-65.5 -24.5q-31 0 -50.5 18t-19.5 47z" />
<glyph unicode="&#xfb48;" d="M348 858q0 14 2 23q8 43 45 72.5t80 29.5h420q129 0 210 -80t81 -205q0 -41 -8 -73l-111 -523q-8 -43 -45 -72.5t-80 -29.5q-37 0 -59.5 22.5t-22.5 57.5q0 14 2 22l115 523v32q0 51 -35 86t-90 35h-420q-37 0 -60.5 22.5t-23.5 57.5zM567 473v19q8 35 40 60.5t67 25.5 q31 0 50.5 -19.5t19.5 -48.5q0 -12 -3 -18q-8 -35 -38.5 -59.5t-65.5 -24.5q-31 0 -50.5 18t-19.5 47z" />
<glyph unicode="&#xfb49;" d="M190 285q0 41 9 73l110 523q8 43 45 72.5t80 29.5q37 0 59.5 -22.5t22.5 -57.5q0 -14 -2 -22l-111 -523q-4 -20 -4 -32q0 -51 35 -86t90 -35h31l143 676q8 43 45 72.5t80 29.5q37 0 59.5 -22.5t22.5 -57.5q0 -14 -2 -22l-143 -676h31q63 0 117.5 45t68.5 108l110 523 q8 43 45 72.5t80 29.5q37 0 59.5 -22.5t22.5 -57.5q0 -14 -2 -22l-110 -523q-31 -150 -158 -254t-276 -104h-267q-129 0 -210 80t-81 205zM853 465v19q6 35 28.5 60.5t46.5 25.5q22 0 35.5 -19.5t13.5 -48.5q0 -12 -2 -18q-6 -35 -27 -59.5t-46 -24.5q-22 0 -35.5 18 t-13.5 47z" />
<glyph unicode="&#xfb4a;" d="M143 80q0 14 2 22q10 43 45 73t78 30h21l123 573h-21q-37 0 -60.5 22.5t-23.5 57.5q0 14 2 23q8 43 45 72.5t80 29.5h461q129 0 210 -80t81 -205q0 -41 -8 -73l-111 -523q-8 -43 -45 -72.5t-80 -29.5q-37 0 -59.5 22.5t-22.5 57.5q0 14 2 22l115 523v32q0 51 -35 86 t-90 35h-236l-143 -676q-8 -43 -45 -72.5t-80 -29.5h-123q-37 0 -59.5 22.5t-22.5 57.5zM637 473v19q8 35 40 60.5t67 25.5q31 0 50.5 -19.5t19.5 -48.5q0 -12 -3 -18q-8 -35 -38.5 -59.5t-65.5 -24.5q-31 0 -50.5 18t-19.5 47z" />
<glyph unicode="&#xfb4b;" d="M496 858v23q8 43 46 72.5t81 29.5h262q37 0 59.5 -22.5t22.5 -57.5q0 -14 -2 -22l-164 -779q-8 -43 -45 -72.5t-80 -29.5q-37 0 -59.5 22.5t-22.5 57.5q0 14 2 22l143 676h-159q-37 0 -60.5 22.5t-23.5 57.5zM825 1176v18q8 35 39.5 59.5t66.5 24.5q31 0 50.5 -18.5 t19.5 -47.5q0 -12 -2 -18q-8 -35 -39 -61.5t-65 -26.5q-31 0 -50.5 20.5t-19.5 49.5z" />
<glyph unicode="&#xfb4c;" d="M143 80q0 14 2 22q10 43 45 73t78 30h523l94 420v32q0 51 -35 86t-90 35h-369q-37 0 -60.5 22.5t-23.5 57.5q0 14 2 23q8 43 45 72.5t80 29.5h369q129 0 210 -80t81 -205q0 -41 -9 -73l-90 -420h52q37 0 60 -22.5t23 -57.5q0 -14 -2 -23q-8 -43 -44.5 -72.5t-79.5 -29.5 h-779q-37 0 -59.5 22.5t-22.5 57.5zM514 1174v14q8 33 38 57.5t64 24.5h336q29 0 47.5 -17.5t18.5 -46.5q0 -12 -2 -18q-6 -33 -35 -57.5t-64 -24.5h-335q-31 0 -49.5 19.5t-18.5 48.5z" />
<glyph unicode="&#xfb4d;" d="M184 80q0 14 2 22q10 43 45 73t78 30h348q84 0 158 60.5t92 144.5l39 163v41q0 70 -46 117t-120 47h-348q-37 0 -60.5 22.5t-23.5 57.5q0 14 2 23q8 43 45 72.5t80 29.5h348q145 0 238.5 -93t93.5 -233q0 -45 -8 -84l-35 -163q-37 -170 -183.5 -290t-314.5 -120h-348 q-37 0 -59.5 22.5t-22.5 57.5zM557 1174v14q8 33 38 57.5t64 24.5h336q29 0 47.5 -17.5t18.5 -46.5q0 -12 -2 -18q-6 -33 -35 -57.5t-64 -24.5h-335q-31 0 -49.5 19.5t-18.5 48.5z" />
<glyph unicode="&#xfb4e;" d="M143 80q0 14 2 22q10 43 45 73t78 30h420q63 0 117.5 45t68.5 108l62 267v32q0 51 -35 86t-90 35h-317l-39 -184l88 -4q37 0 60.5 -22.5t23.5 -57.5q0 -14 -2 -23q-8 -43 -45 -70.5t-80 -27.5h-142q-53 2 -89 36t-36 85q0 12 5 33l71 338q8 43 45 72.5t80 29.5h420 q129 0 210 -80t81 -205q0 -41 -8 -73l-58 -267q-31 -150 -157.5 -254t-276.5 -104h-420q-37 0 -59.5 22.5t-22.5 57.5zM532 1174v14q8 33 38 57.5t64 24.5h336q29 0 47.5 -17.5t18.5 -46.5q0 -12 -2 -18q-6 -33 -35 -57.5t-64 -24.5h-335q-31 0 -49.5 19.5t-18.5 48.5z" />
<glyph unicode="&#xfb4f;" d="M307 858v25l68 303q8 43 45 72.5t80 29.5q37 0 59.5 -22.5t22.5 -57.5q0 -14 -2 -22l-56 -262l344 -439q82 35 119 65t45 71l35 157h-27q-37 0 -60.5 22.5t-23.5 57.5q0 14 2 23q8 43 45 72.5t80 29.5h232l-78 -362q-41 -178 -250 -289l125 -158q18 -23 18 -49 q0 -53 -49 -94q-33 -31 -78 -31t-65 31l-612 778q-18 23 -19 49z" />
</font>
</defs>
</svg>
