<?xml version="1.0" standalone="no"?>
<!DOCTYPE svg PUBLIC "-//W3C//DTD SVG 1.1//EN" "http://www.w3.org/Graphics/SVG/1.1/DTD/svg11.dtd" >
<svg xmlns="http://www.w3.org/2000/svg">
<metadata></metadata>
<defs>
<font id="simple_clmbold" horiz-adv-x="0" >
<font-face units-per-em="2048" ascent="1638" descent="-410" />
<missing-glyph horiz-adv-x="600" />
<glyph horiz-adv-x="1086" d="M17 -25v1409h1054v-1409h-1054zM159 113h769v1120h-769v-1120zM240 655q0 241 86 356q36 48 92 74t119 26q136 0 211 -101q86 -116 86 -361q0 -214 -76.5 -331.5t-220.5 -117.5q-147 0 -222 119t-75 336zM391 655q0 -324 143 -324q74 0 111.5 77t37.5 250q0 317 -146 317 t-146 -320z" />
<glyph horiz-adv-x="1086" d="M17 -25v1409h1054v-1409h-1054zM159 113h769v1120h-769v-1120zM240 655q0 241 86 356q36 48 92 74t119 26q136 0 211 -101q86 -116 86 -361q0 -214 -76.5 -331.5t-220.5 -117.5q-147 0 -222 119t-75 336zM391 655q0 -324 143 -324q74 0 111.5 77t37.5 250q0 317 -146 317 t-146 -320z" />
<glyph unicode="&#xd;" horiz-adv-x="682" />
<glyph unicode=" "  horiz-adv-x="600" />
<glyph unicode="&#x09;" horiz-adv-x="600" />
<glyph unicode="&#xa0;" horiz-adv-x="600" />
<glyph unicode="!" horiz-adv-x="522" d="M210 -25v245h206v-245h-206zM210 734v661h206v-661l-44 -443h-119z" />
<glyph unicode="&#x22;" horiz-adv-x="667" d="M73 1122v235h224v-235l-54 -275h-116zM373 1121v236h225v-236l-56 -274h-113z" />
<glyph unicode="#" horiz-adv-x="1044" d="M0 334v178h219l50 277h-198v177h231l68 369h194l-68 -369h184l66 369h195l-67 -369h169v-177h-203l-49 -277h192v-178h-224l-73 -397h-194l72 397h-182l-74 -397h-193l71 397h-186zM413 512h184l49 277h-182z" />
<glyph unicode="$" horiz-adv-x="1144" d="M62 416v25h198v-25q0 -78 9.5 -112.5t33.5 -70.5q56 -71 170 -92v444q-107 28 -143 42q-244 95 -244 334q0 159 98 256.5t289 124.5v105h177v-103q177 0 279.5 -111.5t102.5 -282.5v-25h-198v25q0 85 -51 143t-133 67v-403q11 -3 35 -9q38 -10 58 -15t58 -17t60 -22.5 t54.5 -28t52 -36t42 -45t34.5 -56t20.5 -68.5t8.5 -84q0 -181 -116.5 -299.5t-306.5 -118.5v-195h-177v195q-201 0 -306 124.5t-105 333.5zM289 963q0 -72 44 -119t140 -75v388q-87 -17 -135.5 -65.5t-48.5 -128.5zM650 140q56 8 98 29.5t64.5 46.5t36 56.5t17 53.5t3.5 43 q0 77 -44 121.5t-175 81.5v-432z" />
<glyph unicode="%" horiz-adv-x="1770" d="M54 953q0 139 102 236.5t247 97.5q152 0 257 -97.5t105 -239.5q0 -135 -106 -233t-253 -98t-249.5 98t-102.5 236zM234 954q0 -63 50 -108t122 -45q70 0 121 45t51 106q0 65 -51 109.5t-124 44.5q-70 0 -119.5 -44.5t-49.5 -107.5zM389 -36l803 1368h189l-803 -1368h-189 zM1003 298q0 137 106 234.5t255 97.5q148 0 249 -97t101 -238q0 -135 -102.5 -233t-245.5 -98q-150 0 -256.5 98t-106.5 236zM1191 298q0 -63 51.5 -107.5t123.5 -44.5q70 0 119 44t49 105q0 64 -49 108.5t-121 44.5q-71 0 -122 -44.5t-51 -105.5z" />
<glyph unicode="&#x26;" horiz-adv-x="1253" d="M73 331q0 131 63 219.5t229 187.5q-78 101 -109 166.5t-31 132.5q0 134 101.5 227t244.5 93q145 0 237.5 -90t92.5 -230q0 -105 -54 -179t-191 -155l207 -253q4 10 13.5 30.5t14 30t11 26.5t9 29t5 29t2.5 34v25h201v-25q0 -148 -120 -343l250 -311h-269l-106 135 q-90 -87 -177.5 -132.5t-213.5 -45.5q-183 0 -296.5 110t-113.5 289zM281 344q0 -89 65 -152.5t156 -63.5q65 0 122.5 30t127.5 101l-272 341q-112 -73 -155.5 -130t-43.5 -126zM429 1039q0 -42 19 -76.5t92 -119.5q95 61 129.5 103t34.5 95q0 59 -39 97t-99 38 q-64 0 -100.5 -37.5t-36.5 -99.5z" />
<glyph unicode="'" horiz-adv-x="415" d="M95 909v118l22 3q34 5 51 31.5t17 87.5h-90v246h225v-215q0 -123 -52 -197t-148 -74h-25z" />
<glyph unicode="(" horiz-adv-x="625" d="M112 487q0 216 80 458.5t239 449.5h161l-24 -38q-122 -198 -188 -424t-66 -446q0 -221 66 -446.5t188 -425.5l24 -38h-161q-159 207 -239 450.5t-80 459.5z" />
<glyph unicode=")" horiz-adv-x="625" d="M26 -423l24 38q122 198 188 424t66 446q0 221 -66 446.5t-188 425.5l-24 38h161q159 -207 239 -450.5t80 -459.5t-80 -458.5t-239 -449.5h-161z" />
<glyph unicode="*" horiz-adv-x="730" d="M43 1103l52 160l188 -68l-8 200h170l-8 -200l188 68l51 -160l-191 -54l124 -158l-139 -97l-109 164l-113 -164l-136 97l123 158z" />
<glyph unicode="+" horiz-adv-x="1097" d="M69 345v182h389v389h181v-389h389v-182h-389v-389h-181v389h-389z" />
<glyph unicode="," horiz-adv-x="522" d="M138 -25v245h248v-250q0 -67 -15 -118t-37.5 -79.5t-54 -45.5t-58.5 -22.5t-58 -5.5h-25v121h25q51 0 69.5 27.5t18.5 118.5v9h-113z" />
<glyph unicode="-" horiz-adv-x="625" d="M61 426v185h498v-185h-498z" />
<glyph unicode="." horiz-adv-x="522" d="M138 -25v245h246v-245h-246z" />
<glyph unicode="/" horiz-adv-x="522" d="M-49 -63l461 1458h156l-462 -1458h-155z" />
<glyph unicode="0" horiz-adv-x="1144" d="M81 641q0 691 486 691q113 0 199.5 -38t140 -101.5t87 -156t46.5 -190.5t13 -216q0 -326 -122.5 -499.5t-363.5 -173.5q-48 0 -92 6.5t-94 26t-92 50.5t-81.5 84t-66.5 122.5t-43.5 170.5t-16.5 224zM300 643q0 -499 263 -499q64 0 112 25.5t84.5 82t55.5 156t19 240.5 q0 488 -267 488q-129 0 -198 -115.5t-69 -377.5z" />
<glyph unicode="1" horiz-adv-x="1094" d="M192 914v159l22 3q69 8 109 14.5t77 20t55 27.5t37 44t30 61.5t27 88.5h153v-1332h-215v914h-295z" />
<glyph unicode="2" horiz-adv-x="1144" d="M64 0v25q0 145 38 242.5t123 173.5t241 157l192 94q183 91 183 231q0 93 -73.5 153.5t-187.5 60.5q-39 0 -75 -7.5t-72.5 -28t-63 -52.5t-43.5 -84.5t-17 -119.5v-25h-215v25q0 113 28 200t73.5 140.5t111 87t133 46.5t146.5 13q105 0 189 -26.5t136 -68.5t86.5 -96.5 t48.5 -106.5t14 -104q0 -123 -75.5 -226t-225.5 -178l-208 -96q-118 -59 -173 -108t-72 -109h745v-213h-987z" />
<glyph unicode="3" horiz-adv-x="1144" d="M60 412v25h215v-25q0 -135 71 -197t209 -62q131 0 204 59.5t73 169.5q0 98 -64.5 151t-212.5 53h-128v191h28q183 0 259.5 34t76.5 137q0 90 -62 139.5t-172 49.5q-78 0 -137 -28t-86 -76q-30 -53 -30 -156v-25h-216v25q0 225 119 340t348 115q218 0 337 -100t119 -277 q0 -181 -149 -264q97 -44 143 -118t46 -191q0 -194 -134 -309.5t-368 -115.5q-115 0 -204 29t-141.5 74.5t-86 108t-45.5 121t-12 122.5z" />
<glyph unicode="4" horiz-adv-x="1144" d="M53 294v203l656 835h171v-839h197v-199h-197v-294h-216v294h-611zM271 493h376v479z" />
<glyph unicode="5" horiz-adv-x="1144" d="M66 377h215q6 -23 9.5 -35t14.5 -39t23 -44t34 -39t48 -35t64.5 -22.5t84.5 -9.5q139 0 215.5 72t76.5 199q0 131 -77.5 206.5t-214.5 75.5q-31 0 -54 -3t-59 -13.5t-72.5 -38t-71.5 -69.5h-193l107 750h784v-213h-599l-47 -271q105 54 238 54q217 0 347.5 -126 t130.5 -330q0 -218 -139 -353.5t-369 -135.5q-131 0 -237.5 44t-166.5 125q-31 39 -49.5 88t-36.5 133z" />
<glyph unicode="6" horiz-adv-x="1144" d="M81 608q0 175 30 300.5t94 222.5q64 95 172 148t235 53q176 0 287 -97t137 -271l4 -29h-215q-41 201 -225 201q-79 0 -138 -32.5t-93 -88.5t-50.5 -122.5t-16.5 -141.5q117 103 308 103q203 0 328.5 -121.5t125.5 -314.5q0 -203 -134 -332t-351 -129q-27 0 -52.5 1.5 t-74 11.5t-89 27t-87 52.5t-78.5 83.5q-62 89 -89.5 201.5t-27.5 273.5zM309 414q0 -113 77.5 -187t194.5 -74q115 0 189.5 71t74.5 181q0 118 -68.5 185t-190.5 67q-125 0 -201 -67.5t-76 -175.5z" />
<glyph unicode="7" horiz-adv-x="1144" d="M86 1119v213h991v-172q-10 -13 -63.5 -83t-78.5 -104t-80 -114t-88 -137t-81.5 -147.5t-80.5 -170.5t-65 -181t-54 -202l-4 -21h-229l7 31q72 304 196.5 539.5t376.5 548.5h-747z" />
<glyph unicode="8" horiz-adv-x="1144" d="M70 380q0 210 203 321q-87 58 -122 117.5t-35 146.5q0 163 124 265t327 102q205 0 327.5 -101.5t122.5 -265.5q0 -88 -35 -148t-122 -116q204 -111 204 -323q0 -187 -136.5 -304t-360.5 -117q-225 0 -361 117.5t-136 305.5zM289 378q0 -101 75.5 -163t198.5 -62 q128 0 205 61t77 164q0 102 -76.5 163.5t-201.5 61.5t-201.5 -61.5t-76.5 -163.5zM338 963q0 -78 62.5 -124.5t166.5 -46.5t166.5 46t62.5 123q0 81 -62 128t-167 47q-104 0 -166.5 -46.5t-62.5 -126.5z" />
<glyph unicode="9" horiz-adv-x="1144" d="M71 871q0 203 134 332t351 129q500 0 500 -651q0 -175 -30 -301t-96 -222q-61 -93 -169.5 -147t-237.5 -54q-176 0 -286.5 97t-136.5 271l-4 29h214q42 -201 226 -201q79 0 138 33t92.5 90t50 124t16.5 144q-124 -109 -306 -109q-204 0 -330 121.5t-126 314.5zM290 884 q0 -118 68 -185t190 -67q125 0 201.5 68.5t76.5 174.5q0 114 -77.5 188t-194.5 74q-115 0 -189.5 -71t-74.5 -182z" />
<glyph unicode=":" horiz-adv-x="522" d="M182 -25v245h245v-245h-245zM182 764v246h245v-246h-245z" />
<glyph unicode=";" horiz-adv-x="522" d="M182 -25v245h247v-250q0 -67 -15 -118t-37 -79.5t-53.5 -45.5t-58.5 -22.5t-58 -5.5h-25v121h25q51 0 69 27.5t18 118.5v9h-112zM182 764v246h247v-246h-247z" />
<glyph unicode="&#x3c;" horiz-adv-x="1097" d="M60 355v164l968 410v-204l-699 -285l699 -291v-204z" />
<glyph unicode="=" horiz-adv-x="1097" d="M69 184v181h959v-181h-959zM69 507v181h959v-181h-959z" />
<glyph unicode="&#x3e;" horiz-adv-x="1097" d="M69 -55v204l699 285l-699 291v204l969 -410v-164z" />
<glyph unicode="?" horiz-adv-x="1044" d="M120 928v25q0 229 111.5 346.5t324.5 117.5q195 0 310 -105.5t115 -279.5q0 -99 -43.5 -177.5t-152.5 -177.5q-92 -86 -116 -122.5t-24 -92.5v-113h-219v128q0 57 18.5 106.5t48 86t65.5 69.5t72 64.5t65.5 64t48 75t18.5 89.5q0 86 -59 137.5t-156 51.5q-58 0 -100 -17 t-64.5 -42t-35 -64t-15.5 -70.5t-3 -74.5v-25h-209zM426 -25v245h219v-245h-219z" />
<glyph unicode="@" horiz-adv-x="1907" d="M39 485q0 190 81.5 372t223.5 312q127 115 298 181.5t344 66.5q165 0 318 -57.5t264 -154.5t177.5 -231.5t66.5 -280.5q0 -114 -45 -227.5t-125 -207.5q-149 -176 -366 -176q-170 0 -219 122q-116 -113 -255 -113q-142 0 -236.5 106.5t-94.5 262.5q0 104 42 204.5 t111 175t162.5 120.5t192.5 46q143 0 224 -126l28 86h208l-179 -559q-21 -58 -21 -86q0 -22 19.5 -39.5t49.5 -17.5q70 0 137.5 57.5t110 152.5t42.5 197q0 109 -51 211t-136 176.5t-203 119.5t-246 45q-141 0 -272.5 -58t-228 -154t-154.5 -227t-58 -271 q0 -170 88.5 -309.5t244.5 -220t346 -80.5q146 0 356 59l22 6l70 -170l-24 -9q-215 -81 -433 -81q-179 0 -342 61t-281 164.5t-187.5 248t-69.5 303.5zM690 458q0 -83 47.5 -139.5t113.5 -56.5t121 51.5t85 124t46 137.5t16 105q0 67 -42 111.5t-109 44.5q-108 0 -193 -116 t-85 -262z" />
<glyph unicode="A" horiz-adv-x="1353" d="M32 0l523 1370h278l515 -1370h-248l-150 386h-525l-154 -386h-239zM490 583h389l-188 523z" />
<glyph unicode="B" horiz-adv-x="1353" d="M148 0v1370h611q224 0 334 -99q117 -101 117 -261q0 -190 -157 -286q114 -52 166 -130t52 -193q0 -169 -113 -282q-113 -119 -332 -119h-678zM373 204h435q60 0 105 14.5t69.5 35.5t39.5 50t19.5 52t4.5 46q0 32 -9 61.5t-32 63t-73.5 54t-123.5 20.5h-435v-397zM373 805 h338q78 0 122.5 9t78.5 32q71 48 71 139q0 92 -71 140q-34 23 -78.5 32t-122.5 9h-338v-361z" />
<glyph unicode="C" horiz-adv-x="1456" d="M90 669q0 165 50.5 306.5t147.5 243.5q167 173 480 173q246 0 389.5 -114.5t186.5 -353.5l5 -29h-230q-12 52 -21 82t-29.5 67.5t-51.5 64.5q-40 35 -113 57t-158 22q-200 0 -315.5 -137.5t-115.5 -379.5q0 -235 120.5 -372.5t326.5 -137.5q111 0 194 42.5t124 119.5 q41 74 62 206l4 21h229l-3 -28q-64 -565 -612 -565q-111 0 -205.5 24t-162 64.5t-121 97.5t-87 120t-55.5 134.5t-30.5 137.5t-8.5 134z" />
<glyph unicode="D" horiz-adv-x="1456" d="M167 0v1370h553q306 0 469.5 -181t163.5 -503q0 -323 -164 -504.5t-469 -181.5h-553zM392 204h298q218 0 328 121.5t110 358.5q0 482 -438 482h-298v-962z" />
<glyph unicode="E" horiz-adv-x="1353" d="M169 0v1370h1049v-204h-824v-363h796v-204h-796v-395h858v-204h-1083z" />
<glyph unicode="F" horiz-adv-x="1248" d="M169 0v1370h1019v-204h-794v-363h704v-204h-704v-599h-225z" />
<glyph unicode="G" horiz-adv-x="1561" d="M83 671q0 66 9 131.5t32.5 137.5t59 136t92 123t128 101t171 67t217.5 25q259 0 421 -120.5t200 -338.5l5 -29h-228q-44 203 -239 262q-72 22 -161 22q-219 0 -351 -139t-132 -369q0 -68 13 -134t48 -137.5t88 -125t142.5 -88t202.5 -34.5q187 0 307 104.5t120 267.5v11 h-440v204h644v-756h-156l-37 157q-198 -192 -479 -192q-201 0 -355.5 91t-238 253t-83.5 370z" />
<glyph unicode="H" horiz-adv-x="1456" d="M156 0v1370h225v-567h704v567h225v-1370h-225v599h-702v-599h-227z" />
<glyph unicode="I" horiz-adv-x="572" d="M188 0v1370h227v-1370h-227z" />
<glyph unicode="J" horiz-adv-x="1039" d="M32 344v146h228v-114q0 -223 203 -223q53 0 97.5 19t69.5 52q46 56 46 196v950h224v-1017q0 -183 -115 -289.5t-324 -106.5q-203 0 -316 104.5t-113 282.5z" />
<glyph unicode="K" horiz-adv-x="1353" d="M148 0v1370h225v-633l697 633h296l-608 -561l601 -809h-267l-508 664l-211 -195v-469h-225z" />
<glyph unicode="L" horiz-adv-x="1144" d="M150 0v1370h225v-1166h726v-204h-951z" />
<glyph unicode="M" horiz-adv-x="1715" d="M141 0v1370h285l438 -1140l437 1120h286v-1350h-216v1000l-399 -1000h-220l-396 1021v-1021h-215z" />
<glyph unicode="N" horiz-adv-x="1456" d="M143 0v1370h229l726 -1021v1021h216v-1370h-238l-718 1011v-1011h-215z" />
<glyph unicode="O" horiz-adv-x="1561" d="M71 675q0 322 194.5 519.5t515.5 197.5q328 0 520.5 -198t192.5 -531q0 -167 -65 -316.5t-181 -244.5q-186 -145 -465 -145q-322 0 -517 198t-195 520zM296 675q0 -232 134 -373t353 -141q218 0 352 139.5t134 366.5q0 238 -132 379.5t-356 141.5q-219 0 -352 -141 t-133 -372z" />
<glyph unicode="P" horiz-adv-x="1353" d="M171 0v1370h623q227 0 346 -108.5t119 -305.5q0 -190 -126 -300q-116 -100 -297 -100h-440v-556h-225zM396 760h368q124 0 193.5 53t69.5 150q0 96 -69.5 149.5t-193.5 53.5h-368v-406z" />
<glyph unicode="Q" horiz-adv-x="1561" d="M71 675q0 212 87.5 374.5t249.5 252.5t375 90q322 0 516.5 -197.5t194.5 -517.5q0 -308 -182 -515l175 -138l-119 -146l-208 170q-170 -91 -377 -91q-322 0 -517 198t-195 520zM296 675q0 -232 133 -373t352 -141q101 0 188 32l-134 102l125 137l177 -131 q132 148 132 375q0 231 -133.5 371.5t-352.5 140.5q-220 0 -353.5 -140.5t-133.5 -372.5z" />
<glyph unicode="R" horiz-adv-x="1456" d="M175 0v1370h687q226 0 343.5 -98t117.5 -280q0 -108 -44 -184t-142 -131q92 -47 124 -120.5t32 -224.5q0 -93 8.5 -140.5t23.5 -68.5t51 -45v-78h-255h-7q-44 94 -44 230v120q0 119 -53 167t-161 48h-457v-565h-224zM399 769h427q137 0 199.5 46t62.5 152q0 63 -21 104.5 t-61 61t-81.5 26.5t-98.5 7h-427v-397z" />
<glyph unicode="S" horiz-adv-x="1353" d="M90 461v25h216v-25q0 -142 93.5 -221t294.5 -79q173 0 255 51q42 27 67.5 72t25.5 91q0 67 -59 113.5t-191 76.5l-367 87q-293 71 -293 330q0 190 141.5 300t393.5 110q266 0 409.5 -117.5t143.5 -331.5v-25h-217v25q0 123 -88 188t-253 65q-138 0 -221 -54t-83 -144 q0 -62 46 -101t177 -71l372 -88q150 -39 232 -131.5t82 -222.5q0 -90 -43.5 -177.5t-117.5 -143.5q-138 -106 -425 -106q-88 0 -166.5 13.5t-158.5 48.5t-137 90t-93 145.5t-36 206.5z" />
<glyph unicode="T" horiz-adv-x="1248" d="M39 1166v204h1175v-204h-465v-1166h-243v1166h-467z" />
<glyph unicode="U" horiz-adv-x="1456" d="M160 417v953h224v-948q0 -60 21.5 -107t55 -75.5t81 -46.5t94 -25t98.5 -7q166 0 259.5 69.5t93.5 191.5v948h225v-953q0 -209 -154.5 -334.5t-423.5 -125.5q-271 0 -422.5 123.5t-151.5 336.5z" />
<glyph unicode="V" horiz-adv-x="1353" d="M56 1370h241l410 -1074l386 1074h240l-510 -1370h-238z" />
<glyph unicode="W" horiz-adv-x="1923" d="M41 1370h248l239 -1004l334 1004h225l291 -1004l284 1004h247l-409 -1370h-231l-295 1024l-339 -1024h-229z" />
<glyph unicode="X" horiz-adv-x="1353" d="M41 0l517 703l-487 667h274l363 -492l364 492h270l-494 -667l516 -703h-277l-385 525l-387 -525h-274z" />
<glyph unicode="Y" horiz-adv-x="1353" d="M24 1370h276l414 -618l400 618h268l-552 -840v-530h-240v530z" />
<glyph unicode="Z" horiz-adv-x="1248" d="M53 0v188l843 978h-791v204h1087v-184l-840 -982h843v-204h-1142z" />
<glyph unicode="[" horiz-adv-x="522" d="M95 -423v1818h400v-186h-194v-1447h194v-185h-400z" />
<glyph unicode="\" horiz-adv-x="522" d="M-49 1395h155l462 -1458h-156z" />
<glyph unicode="]" horiz-adv-x="522" d="M18 -238h194v1447h-194v186h400v-1818h-400v185z" />
<glyph unicode="^" horiz-adv-x="881" d="M46 593l307 764h171l312 -764h-184l-212 522l-211 -522h-183z" />
<glyph unicode="_" horiz-adv-x="1044" d="M-66 -212h1177v-144h-1177v144z" />
<glyph unicode="`" horiz-adv-x="417" d="M97 871v215q0 122 52 196.5t148 74.5h25v-118l-22 -3q-67 -8 -67 -119h89v-246h-225z" />
<glyph unicode="a" horiz-adv-x="1144" d="M79 256q0 198 189 270q57 22 133 34t137.5 16t117 11t86.5 25.5t31 51.5v39q0 33 -18.5 56.5t-51 35.5t-68 17.5t-77.5 5.5q-121 0 -170 -39.5t-58 -113.5v-22h-208v25q0 80 26 141.5t68 99.5t101 62t119 33t128 9q210 0 316.5 -71t106.5 -207v-548q0 -49 59 -49 q12 0 28 3l31 8v-169q-88 -23 -132 -23q-148 0 -184 122q-164 -122 -351 -122q-168 0 -263.5 81t-95.5 218zM292 252q0 -72 53 -102.5t130 -30.5q140 0 239 81q34 29 46.5 51.5t12.5 58.5v140q-47 -15 -120.5 -25.5t-131 -18t-113 -22.5t-86 -47.5t-30.5 -84.5z" />
<glyph unicode="b" horiz-adv-x="1144" d="M101 0v1370h206v-471q111 114 307 114q221 0 345 -138.5t124 -378.5q0 -246 -128.5 -392.5t-349.5 -146.5q-201 0 -313 120v-77h-191zM307 485q0 -152 74.5 -242t199.5 -90q131 0 209.5 90t78.5 236q0 156 -78 246.5t-210 90.5q-125 0 -199.5 -90t-74.5 -241z" />
<glyph unicode="c" horiz-adv-x="1039" d="M58 475q0 247 131 392.5t359 145.5q199 0 318 -104t119 -280v-25h-205l-3 22q-12 91 -70 141.5t-161 50.5q-130 0 -202 -89.5t-72 -252.5q0 -154 73.5 -239.5t205.5 -85.5q202 0 237 216l4 21h204v-25q0 -189 -122 -297.5t-328 -108.5q-229 0 -358.5 139.5t-129.5 378.5z " />
<glyph unicode="d" horiz-adv-x="1144" d="M49 494q0 237 126.5 378t344.5 141q194 0 304 -107v464h206v-1370h-189v83q-117 -126 -315 -126q-226 0 -351.5 143.5t-125.5 393.5zM262 485q0 -151 78.5 -241.5t210.5 -90.5q125 0 199 89t74 239q0 157 -74 246t-201 89q-130 0 -208.5 -90.5t-78.5 -240.5z" />
<glyph unicode="e" horiz-adv-x="1144" d="M75 479q0 245 134.5 389.5t367.5 144.5q161 0 277.5 -70t167.5 -195q42 -100 42 -309v-24h-775q0 -62 20.5 -110.5t51.5 -76.5t71.5 -46.5t76 -24.5t70.5 -6q110 0 171.5 53t91.5 145h206l-5 -29q-31 -171 -153 -267t-318 -96q-235 0 -366 139.5t-131 382.5zM293 592h554 q0 95 -79.5 160.5t-192.5 65.5q-118 0 -200 -62.5t-82 -163.5z" />
<glyph unicode="f" horiz-adv-x="572" d="M34 807v178h131v142q0 115 68 181.5t188 66.5q53 0 114 -14v-173h-80q-84 0 -84 -74v-129h164v-178h-164v-807h-206v807h-131z" />
<glyph unicode="g" horiz-adv-x="1144" d="M54 475q0 240 126 389t339 149q181 0 305 -123v95h195v-816q0 -71 -3.5 -125t-15.5 -117t-33 -109t-58 -91.5t-88 -73.5t-126 -45.5t-169 -17.5q-205 0 -322.5 88t-117.5 234v25h206l4 -21q6 -38 17.5 -58t37.5 -38q68 -48 181 -48q71 0 122 18t80 45.5t46 71.5t22 84.5 t5 94.5q-125 -129 -302 -129q-65 0 -127 17t-121.5 57t-104 98t-71.5 147.5t-27 198.5zM268 485q0 -158 72 -246t200 -88q124 0 195.5 86.5t71.5 241.5q0 163 -71 251t-198 88q-125 0 -197.5 -88t-72.5 -245z" />
<glyph unicode="h" horiz-adv-x="1144" d="M132 0v1370h205v-478q69 65 145.5 93t180.5 28q164 0 257 -75.5t93 -204.5v-733h-206v667q0 83 -60 120q-63 39 -139 39q-123 0 -197 -78.5t-74 -211.5v-536h-205z" />
<glyph unicode="i" horiz-adv-x="467" d="M126 0v985h206v-985h-206zM126 1122v248h206v-248h-206z" />
<glyph unicode="j" horiz-adv-x="467" d="M-34 -221h25q13 0 21.5 -0.5t12 -0.5h4.5q62 0 82.5 21t20.5 83v1103h205v-1165q0 -111 -75 -170.5t-218 -59.5q-29 0 -78 11v178zM132 1122v248h205v-248h-205z" />
<glyph unicode="k" horiz-adv-x="1039" d="M109 0v1370h206v-743l424 358h279l-389 -345l434 -640h-252l-360 494l-136 -121v-373h-206z" />
<glyph unicode="l" horiz-adv-x="467" d="M128 0v1370h208v-1370h-208z" />
<glyph unicode="m" horiz-adv-x="1728" d="M133 0v985h219v-92q64 64 134.5 92t167.5 28q104 0 170.5 -32.5t112.5 -101.5q71 73 148 103.5t186 30.5q159 0 242 -75t83 -211v-727h-208v663q0 77 -46 120t-133 43q-96 0 -165 -64t-69 -156v-606h-208v663q0 78 -46 120.5t-134 42.5q-96 0 -165 -64t-69 -156v-606 h-220z" />
<glyph unicode="n" horiz-adv-x="1144" d="M132 0v985h194v-113q66 74 146.5 107.5t189.5 33.5q164 0 258.5 -76t94.5 -204v-733h-206v667q0 74 -54 116.5t-145 42.5q-123 0 -197 -78.5t-74 -211.5v-536h-207z" />
<glyph unicode="o" horiz-adv-x="1144" d="M68 485q0 249 129 388.5t364 139.5q241 0 369 -140t128 -396q0 -243 -130 -381.5t-365 -138.5q-237 0 -366 139.5t-129 388.5zM281 485q0 -158 74.5 -246t207.5 -88q130 0 206 88t76 240q0 162 -74 250.5t-208 88.5q-132 0 -207 -88t-75 -245z" />
<glyph unicode="p" horiz-adv-x="1144" d="M101 -410v1395h195v-99q124 127 318 127q221 0 345 -144.5t124 -393.5q0 -236 -125.5 -377t-340.5 -141q-183 0 -307 107v-474h-209zM310 485q0 -151 76 -241.5t200 -90.5q129 0 206 89.5t77 236.5q0 156 -76.5 246.5t-206.5 90.5q-124 0 -200 -90t-76 -241z" />
<glyph unicode="q" horiz-adv-x="1144" d="M49 474q0 246 127.5 392.5t346.5 146.5q190 0 318 -117v89h189v-1395h-208v477q-114 -110 -307 -110q-219 0 -342.5 138.5t-123.5 378.5zM262 485q0 -151 78 -241.5t208 -90.5q124 0 199 89t75 237q0 157 -74.5 247t-199.5 90q-130 0 -208 -90.5t-78 -240.5z" />
<glyph unicode="r" horiz-adv-x="675" d="M130 0v985h194v-121q57 76 115 112.5t129 36.5q25 0 64 -6l21 -4v-206h-25q-32 0 -51 -1t-53.5 -6.5t-56.5 -16t-49 -32t-43 -52t-27 -78t-11 -107.5v-504h-207z" />
<glyph unicode="s" horiz-adv-x="1039" d="M64 318v25h212l3 -22q10 -79 40 -112q62 -58 202 -58q103 0 165.5 33.5t62.5 89.5q0 37 -29 62.5t-118 43.5l-167 33q-194 42 -270.5 107.5t-76.5 184.5q0 140 114 224t314 84q198 0 302.5 -85.5t104.5 -242.5v-25h-216v25q0 133 -197 133q-99 0 -153.5 -32t-54.5 -84 q0 -37 39 -63.5t146 -47.5l171 -34q150 -32 227 -96.5t77 -184.5q0 -146 -120.5 -232.5t-335.5 -86.5q-82 0 -148.5 13t-111.5 34t-79 52t-53 62t-31 68.5t-15.5 68t-3.5 63.5z" />
<glyph unicode="t" horiz-adv-x="572" d="M26 807v178h134v270h206v-270h161v-178h-161v-604q0 -38 10 -48.5t51 -10.5q48 0 68 6l32 9v-185l-21 -4q-77 -13 -132 -13q-102 0 -158 45t-56 126v679h-134z" />
<glyph unicode="u" horiz-adv-x="1144" d="M122 236v749h206v-682q0 -74 53.5 -116.5t145.5 -42.5q124 0 198.5 79t74.5 212v550h206v-985h-191v90q-69 -71 -149.5 -102t-188.5 -31q-165 0 -260 76t-95 203z" />
<glyph unicode="v" horiz-adv-x="1039" d="M19 985h229l270 -713l287 713h230l-414 -985h-225z" />
<glyph unicode="w" horiz-adv-x="1506" d="M11 985h226l180 -659l220 659h231l173 -659l227 659h229l-354 -985h-217l-179 663l-221 -663h-214z" />
<glyph unicode="x" horiz-adv-x="1039" d="M32 0l377 502l-358 483h239l249 -326l248 326h238l-360 -476l369 -509h-244l-257 332l-262 -332h-239z" />
<glyph unicode="y" horiz-adv-x="1039" d="M38 985h220l259 -715l279 715h223l-474 -1176q-27 -64 -55.5 -101t-72.5 -66q-75 -52 -175 -52q-67 0 -131 35v188l30 -8q53 -11 78 -11q45 0 68.5 18t40.5 62l63 148z" />
<glyph unicode="z" horiz-adv-x="1039" d="M58 0v165l603 632h-563v188h834v-172l-603 -626h630v-187h-901z" />
<glyph unicode="{" horiz-adv-x="627" d="M55 398v176q36 8 52.5 13t39 20t32 38t16.5 64t7 101v314q0 128 61 199.5t169 71.5h112v-172h-54q-57 0 -75 -19t-18 -82v-340q0 -121 -29 -190t-96 -107q125 -85 125 -295v-340q0 -63 18 -82t75 -19h54v-172h-112q-108 0 -169 71.5t-61 199.5v314q0 60 -7 101t-16.5 64 t-32 38t-39 20t-52.5 13z" />
<glyph unicode="|" horiz-adv-x="488" d="M163 -423v1818h163v-1818h-163z" />
<glyph unicode="}" horiz-adv-x="627" d="M29 -251h56q59 0 77 19t18 82v340q0 212 127 295q-127 86 -127 297v340q0 63 -18 82t-77 19h-56v172h114q109 0 170 -71.5t61 -199.5v-314q0 -59 7 -100t16.5 -64t31.5 -38t39 -21t51 -13v-176q-34 -7 -51 -13t-39 -21t-31.5 -38t-16.5 -64t-7 -100v-314 q0 -128 -61 -199.5t-170 -71.5h-114v172z" />
<glyph unicode="~" horiz-adv-x="1097" d="M116 526v25q0 141 61.5 219t166.5 78q56 0 114 -33l220 -131q47 -28 81 -28q37 0 54 23t17 93v25h149v-55q0 -120 -61 -191.5t-161 -71.5q-82 0 -165 52l-184 119q-12 7 -34.5 14.5t-33.5 7.5q-28 0 -51.5 -33t-23.5 -88v-25h-149z" />
<glyph unicode="&#xa3;" horiz-adv-x="1038" d="M42 125l21 21q55 47 78.5 73t42.5 60q72 126 72 216q0 53 -20 119h-191v199h100q-34 86 -45.5 136.5t-11.5 107.5q0 198 124 323t315 125q95 0 169 -32.5t117.5 -81.5t72 -114.5t38.5 -124.5t10 -118v-65h-217v53q0 120 -56 188t-144 68q-84 0 -142.5 -64.5t-58.5 -156.5 q0 -78 73 -244h294v-199h-225q8 -55 8 -110q0 -84 -16 -167l-2 -4q-35 -93 -82 -147q65 5 175 5h22q35 0 101 1t96 1q183 0 233 -39v-207l-37 9q-72 24 -255 24q-44 0 -129 -2t-122 -2q-49 0 -101 -6.5t-110 -16.5t-89 -14z" />
<glyph unicode="&#xad;" horiz-adv-x="625" d="M61 426v185h498v-185h-498z" />
<glyph unicode="&#x591;" />
<glyph unicode="&#x592;" />
<glyph unicode="&#x593;" />
<glyph unicode="&#x594;" />
<glyph unicode="&#x595;" />
<glyph unicode="&#x596;" />
<glyph unicode="&#x597;" />
<glyph unicode="&#x598;" />
<glyph unicode="&#x599;" />
<glyph unicode="&#x59a;" />
<glyph unicode="&#x59b;" />
<glyph unicode="&#x59c;" />
<glyph unicode="&#x59d;" />
<glyph unicode="&#x59e;" />
<glyph unicode="&#x59f;" />
<glyph unicode="&#x5a0;" />
<glyph unicode="&#x5a1;" />
<glyph unicode="&#x5a2;" />
<glyph unicode="&#x5a3;" />
<glyph unicode="&#x5a4;" />
<glyph unicode="&#x5a5;" />
<glyph unicode="&#x5a6;" />
<glyph unicode="&#x5a7;" />
<glyph unicode="&#x5a8;" />
<glyph unicode="&#x5a9;" />
<glyph unicode="&#x5aa;" />
<glyph unicode="&#x5ab;" />
<glyph unicode="&#x5ac;" />
<glyph unicode="&#x5ad;" />
<glyph unicode="&#x5ae;" />
<glyph unicode="&#x5af;" />
<glyph unicode="&#x5b0;" d="M-99 -238q0 42 29.5 70t69.5 28q43 0 70 -29t27 -69q0 -42 -28.5 -70t-68.5 -28q-42 0 -70.5 29t-28.5 69zM-99 -450q0 42 29.5 69.5t69.5 27.5q42 0 70.5 -28.5t28.5 -68.5q0 -42 -29.5 -70.5t-69.5 -28.5q-42 0 -70.5 29.5t-28.5 69.5z" />
<glyph unicode="&#x5b1;" d="M-311 -237q0 42 29 70t69 28q42 0 70.5 -29t28.5 -69q0 -42 -29.5 -70.5t-69.5 -28.5q-43 0 -70.5 29.5t-27.5 69.5zM-203 -453q0 42 29.5 71t69.5 29q42 0 70 -30t28 -70q0 -42 -29.5 -70t-68.5 -28q-42 0 -70.5 29t-28.5 69zM-89 -235q0 42 29.5 70t68.5 28 q43 0 71 -29t28 -69q0 -42 -29.5 -70.5t-69.5 -28.5q-42 0 -70 29.5t-28 69.5zM114 -241q0 42 29.5 70.5t68.5 28.5q42 0 70.5 -29.5t28.5 -69.5q0 -42 -29.5 -70t-69.5 -28q-41 0 -69.5 29t-28.5 69zM114 -453q0 42 30 69.5t69 27.5q43 0 70.5 -28.5t27.5 -68.5 q0 -42 -29 -70t-69 -28q-42 0 -70.5 29t-28.5 69z" />
<glyph unicode="&#x5b2;" d="M-292 -142h345v-162h-345v162zM94 -238q0 42 28.5 70t68.5 28q42 0 70.5 -29t28.5 -69q0 -42 -29.5 -70t-69.5 -28q-42 0 -69.5 29t-27.5 69zM94 -450q0 42 30 69.5t70 27.5q42 0 70 -29t28 -68q0 -42 -29 -70.5t-69 -28.5q-43 0 -71.5 29.5t-28.5 69.5z" />
<glyph unicode="&#x5b3;" d="M-338 -137h427v-167h-123v-251h-166v251h-138v167zM141 -237q0 42 28 70t69 28t69.5 -28.5t28.5 -69.5q0 -42 -28 -70.5t-70 -28.5t-69.5 29.5t-27.5 69.5zM141 -450q0 42 29.5 69.5t69.5 27.5q41 0 69.5 -28t28.5 -69q0 -40 -29 -69t-69 -29q-42 0 -70.5 28.5 t-28.5 69.5z" />
<glyph unicode="&#x5b4;" d="M-99 -239q0 42 29.5 70.5t69.5 28.5q42 0 70.5 -29.5t28.5 -69.5q0 -42 -29 -70t-70 -28q-43 0 -71 29t-28 69z" />
<glyph unicode="&#x5b5;" d="M-222 -239q0 42 29.5 70t69.5 28q42 0 70.5 -29t28.5 -69q0 -42 -29.5 -70t-69.5 -28q-42 0 -70.5 29t-28.5 69zM25 -239q0 42 29.5 70.5t68.5 28.5q42 0 70.5 -29.5t28.5 -69.5q0 -42 -29.5 -70t-69.5 -28q-41 0 -69.5 29t-28.5 69z" />
<glyph unicode="&#x5b6;" d="M-225 -237q0 42 29.5 70t68.5 28q43 0 71.5 -29t28.5 -69q0 -43 -29.5 -71t-70.5 -28q-42 0 -70 29.5t-28 69.5zM-97 -452q0 42 28 70.5t69 28.5q42 0 71.5 -29.5t29.5 -69.5q0 -42 -30.5 -70.5t-70.5 -28.5q-43 0 -70 29.5t-27 69.5zM27 -237q0 42 30 70t70 28 q41 0 69.5 -29t28.5 -69q0 -42 -29.5 -70.5t-68.5 -28.5q-43 0 -71.5 29.5t-28.5 69.5z" />
<glyph unicode="&#x5b7;" d="M-194 -140h388v-164h-388v164z" />
<glyph unicode="&#x5b8;" d="M-214 -140h428v-164h-121v-250h-167v250h-140v164z" />
<glyph unicode="&#x5b9;" d="M-99 1382q0 42 29.5 70.5t69.5 28.5q42 0 70.5 -29.5t28.5 -69.5q0 -42 -29 -70t-70 -28q-43 0 -71 29t-28 69z" />
<glyph unicode="&#x5ba;" d="M-99 1382q0 42 29.5 70.5t69.5 28.5q42 0 70.5 -29.5t28.5 -69.5q0 -42 -29 -70t-70 -28q-43 0 -71 29t-28 69z" />
<glyph unicode="&#x5bb;" d="M-208 -203q0 37 26 62.5t62 25.5q38 0 64.5 -25.5t26.5 -62.5t-26.5 -63t-64.5 -26q-36 0 -62 26t-26 63zM-88 -346q0 36 26 62.5t62 26.5q37 0 64 -26.5t27 -62.5q0 -37 -26.5 -62t-64.5 -25q-36 0 -62 25.5t-26 61.5zM41 -481q0 36 26.5 61t62.5 25q38 0 64 -25t26 -61 q0 -37 -26 -63.5t-64 -26.5q-36 0 -62.5 26.5t-26.5 63.5z" />
<glyph unicode="&#x5bc;" d="M-99 559q0 42 29.5 70.5t69.5 28.5q42 0 70.5 -29.5t28.5 -69.5q0 -42 -29.5 -69.5t-69.5 -27.5q-42 0 -70.5 28.5t-28.5 68.5z" />
<glyph unicode="&#x5bd;" d="M-74 -135h148v-399h-148v399z" />
<glyph unicode="&#x5be;" horiz-adv-x="818" d="M122 797v259h578v-259h-578z" />
<glyph unicode="&#x5bf;" d="M-246 1337v201h492v-201h-492z" />
<glyph unicode="&#x5c0;" horiz-adv-x="481" d="M140 47v1072h218v-1072h-218z" />
<glyph unicode="&#x5c1;" d="M-99 1323q0 42 29.5 70.5t69.5 28.5q42 0 70.5 -29.5t28.5 -69.5q0 -42 -29 -70t-70 -28q-43 0 -71 29t-28 69z" />
<glyph unicode="&#x5c2;" d="M-99 1323q0 42 29.5 70.5t69.5 28.5q42 0 70.5 -29.5t28.5 -69.5q0 -42 -29 -70t-70 -28q-43 0 -71 29t-28 69z" />
<glyph unicode="&#x5c3;" horiz-adv-x="554" d="M117 211q0 70 48 119t115 49q69 0 116.5 -49.5t47.5 -118.5q0 -70 -48.5 -118t-115.5 -48q-69 0 -116 49t-47 117zM117 912q0 70 48 118t115 48q69 0 117 -49t48 -117q0 -70 -48.5 -119t-116.5 -49q-69 0 -116 49.5t-47 118.5z" />
<glyph unicode="&#x5c4;" />
<glyph unicode="&#x5c5;" />
<glyph unicode="&#x5c6;" horiz-adv-x="791" d="M134 0v825q0 142 72.5 209t183.5 67h214l84 -228h-234q-18 0 -27 -2t-19 -9.5t-14 -25t-4 -46.5v-574h289l77 -216h-622z" />
<glyph unicode="&#x5c7;" d="M-193 -140h386v-167h-103v-250h-166v250h-117v167z" />
<glyph unicode="&#x5d0;" horiz-adv-x="1368" d="M82 1100h352h8q240 -241 425 -475q39 29 55 85.5t16 147.5v12h-89v25q0 53 13.5 102t24 69.5t20.5 33.5h8h303q0 -16 0.5 -53.5t0.5 -58.5q0 -56 -3.5 -101t-16 -104.5t-34.5 -108.5t-62.5 -101.5t-96.5 -94.5q192 -249 294 -442l19 -36h-298h-8q-200 335 -452 619 q-81 -63 -135.5 -174t-54.5 -215h69l7 -14q25 -53 25 -156q0 -32 -3 -60h-3h-344q0 144 16 258.5t40 190t64.5 138t76.5 99t88 77.5q-141 165 -282 301z" />
<glyph unicode="&#x5d1;" horiz-adv-x="1151" d="M75 0q0 105 66 219l8 11h567v448q0 97 -52.5 144.5t-140.5 47.5h-350v25q0 116 55 205h8h294q111 0 212 -39.5t169 -118.5t68 -180v-532h117v-25q0 -89 -54 -205h-6h-961z" />
<glyph unicode="&#x5d2;" horiz-adv-x="901" d="M79 -56q0 91 14.5 160.5t59.5 131.5q259 210 354 349v205q0 47 -31.5 63.5t-91.5 16.5h-232v25q0 116 63 205h207q162 0 255.5 -71t93.5 -226v-602q18 -101 50 -167l16 -34h-265l-5 20q-3 14 -15 62.5t-17 72t-10.5 62t-5.5 70.5q-36 -44 -76.5 -86t-90.5 -85.5 t-78.5 -67.5t-86 -69.5t-67.5 -53.5l-41 -33v52z" />
<glyph unicode="&#x5d3;" horiz-adv-x="1178" d="M83 941q0 72 51 159h936v-25q0 -57 -9 -101.5t-15.5 -60t-21.5 -43.5h-77v-870h-297v870h-555q-12 53 -12 71z" />
<glyph unicode="&#x5d4;" horiz-adv-x="1322" d="M131 936q0 79 53 164h516q196 0 301 -46t162 -147q34 -52 44.5 -118t10.5 -213v-576h-265v638q0 106 -66.5 169t-175.5 63h-573l-4 21q-3 24 -3 45zM165 0v719l28 -3q112 -12 213 -81v-635h-241z" />
<glyph unicode="&#x5d5;" horiz-adv-x="609" d="M97 870v44q0 57 11.5 94t48.5 92h309v-1100h-256v870h-113z" />
<glyph unicode="&#x5d6;" horiz-adv-x="908" d="M87 928q0 77 62 173h8h633h4q7 -28 7 -56q0 -92 -61 -166l-12 -13q-25 14 -46 9q-51 0 -97 -44t-70 -95t-24 -84v-652h-258v536q0 108 28 187.5t92 147.5h-264v25q0 5 -1 15t-1 17z" />
<glyph unicode="&#x5d7;" horiz-adv-x="1378" d="M106 870v25q0 57 9.5 100.5t19.5 61.5t27 43h762q75 0 157 -52t135.5 -127.5t53.5 -140.5v-780h-266v710q0 48 -61.5 104t-104.5 56h-382v-870h-266v870h-84z" />
<glyph unicode="&#x5d8;" horiz-adv-x="1400" d="M101 879v22q0 54 12 97t22.5 60.5t29.5 41.5h295v-741q0 -55 26.5 -100t69.5 -72t88.5 -43t91.5 -21q165 0 256 102.5t91 280.5q0 197 -61 296t-193 99q-33 0 -60 -8.5t-41 -19t-29 -19t-28 -8.5h-4q-39 9 -39 72q0 7 0.5 20t0.5 19q0 66 22 106q119 52 256 52 q100 0 177.5 -32.5t125.5 -86t78.5 -130t42.5 -155t12 -170.5q0 -125 -38 -229t-113 -182.5t-195 -122t-275 -43.5q-237 0 -385 122t-148 304v489h-88z" />
<glyph unicode="&#x5d9;" horiz-adv-x="590" d="M110 870v25q0 123 75 205h272v-536l-264 -134v440h-83z" />
<glyph unicode="&#x5da;" horiz-adv-x="1139" d="M85 871v25q0 131 69 205h7h503q90 0 176.5 -54.5t140.5 -144.5t54 -187q0 -43 0.5 -529t0.5 -615l-25 -25h-230v1152q0 67 -53.5 120t-150.5 53h-492z" />
<glyph unicode="&#x5db;" horiz-adv-x="1177" d="M122 57q0 86 72 173h392q114 20 197 109.5t83 214.5q0 68 -19 122.5t-50.5 90t-75 59.5t-90.5 34t-99 10h-398q-9 43 -9 72q0 72 64 158h430q92 0 181 -37t163 -104t119.5 -174.5t45.5 -235.5q0 -135 -44 -241.5t-119 -172.5t-170.5 -100.5t-203.5 -34.5h-466v25 q0 3 -1.5 14t-1.5 18z" />
<glyph unicode="&#x5dc;" horiz-adv-x="1195" d="M14 1326v25q0 68 15.5 114t54.5 81l7 7h290v-453h692v-221l-398 -879h-286l382 870h-651v456h-106z" />
<glyph unicode="&#x5dd;" horiz-adv-x="1349" d="M158 0v1100h692q95 0 167 -27t113.5 -68t67.5 -98t34.5 -107.5t8.5 -105.5v-694h-1083zM434 230h537v462q0 100 -44 139t-124 39h-369v-640z" />
<glyph unicode="&#x5de;" horiz-adv-x="1410" d="M94 1080l23 8q61 20 112 20q41 0 140 -23l75 -199q56 94 148 154.5t218 60.5q139 0 246.5 -45t172.5 -124t98 -179t33 -217q0 -291 -154 -428.5t-427 -137.5q-12 0 -23.5 0.5t-24.5 2.5t-22 3t-23 4.5t-20 4.5t-22 6t-19.5 6t-21 6.5t-19.5 5.5q-13 44 -13 89 q0 77 48 179l19 40l28 -36q25 -33 41 -43t54 -10q166 0 254 87t88 227q0 148 -73 236t-228 88q-62 0 -110.5 -24t-81 -64.5t-57.5 -99.5t-40 -121.5t-28 -139t-22 -143.5t-22 -143t-28 -131h-267l75 703z" />
<glyph unicode="&#x5df;" horiz-adv-x="601" d="M97 870v50q0 3 5 36.5t8.5 48.5t16 43.5t31.5 51.5h300v-1555h-255v1325h-106z" />
<glyph unicode="&#x5e0;" horiz-adv-x="823" d="M80 53q0 90 76 177h282v558q0 53 -14 67.5t-44 14.5h-17h-212v25q0 102 78 205h209q112 0 184 -67.5t72 -207.5v-825h-611v25q0 1 -1.5 11.5t-1.5 16.5z" />
<glyph unicode="&#x5e1;" horiz-adv-x="1348" d="M117 870l4 29q20 125 99 201h576q106 0 194.5 -32.5t158 -98.5t108.5 -176.5t39 -256.5q0 -271 -154.5 -420t-447.5 -149q-119 0 -216 32.5t-156 82.5t-99 113t-55.5 119t-15.5 106v406l35 44h-70zM425 425q0 -33 19 -71t53 -74t90 -59.5t121 -23.5q154 0 239 97t85 245 q0 89 -23.5 155.5t-63 103.5t-85.5 54.5t-98 17.5h-337v-445z" />
<glyph unicode="&#x5e2;" horiz-adv-x="1337" d="M64 -166q0 137 105 229l258 86l-210 721h-112q-9 26 -9 45q0 132 62 185h283l253 -880q30 14 60 31t67.5 45.5t65 59.5t46.5 72t19 84v358h-104q-7 13 -10 21t-2.5 10t1.5 4.5t1 4.5q0 149 83 190h293v-490q0 -106 -25 -197t-65.5 -152t-80.5 -100t-81 -61l-885 -353 l-6 30q-7 29 -7 57z" />
<glyph unicode="&#x5e3;" horiz-adv-x="1293" d="M145 668v432h658q175 0 277 -106t102 -282v-1167h-260v1160q0 82 -52.5 123.5t-133.5 41.5h-331v-168q0 -78 96 -78q34 0 76 11l23 6l10 -20q18 -39 18 -93q0 -12 -2 -25t-4 -21t-6 -21.5t-6 -19.5q-87 -25 -163 -25q-130 0 -216 70.5t-86 181.5z" />
<glyph unicode="&#x5e4;" horiz-adv-x="1299" d="M151 0v25q0 61 10.5 106t20 61t27.5 38h521q89 0 172 98.5t83 244.5q0 135 -51.5 216t-148.5 81h-369v-168q16 -40 33.5 -51.5t45.5 -11.5q6 0 41 6t66 6q28 -56 28 -118q0 -33 -20 -86q-91 -19 -163 -19q-235 0 -296 221v451h690q93 0 166 -35.5t117 -90t72 -128 t38.5 -141.5t10.5 -138q0 -101 -36 -202t-98.5 -182t-154.5 -132t-195 -51h-610z" />
<glyph unicode="&#x5e5;" horiz-adv-x="1268" d="M76 957q0 76 60 144h193q174 -117 325 -524q4 -9 5 -13q8 3 25 8q33 10 50.5 16t48 20t47 27t37.5 36t32 49.5t19 65t8 84.5h-131q-19 44 -19 84q0 30 9.5 55.5t18.5 39t28.5 27.5t22.5 15.5l17 8.5h277v-25q0 -185 -17.5 -293t-55.5 -172.5t-111 -117.5 q-106 -74 -203 -109v-838h-279v459q0 38 -1.5 101.5t-1.5 90.5q0 191 -79 381.5t-183 292.5h-126q-16 54 -16 87z" />
<glyph unicode="&#x5e6;" horiz-adv-x="1320" d="M113 949q0 63 69 151h213l426 -503q49 31 72 56q73 79 73 214h-126q-15 56 -15 80q0 13 2.5 26t6 24t9.5 21.5t11.5 18.5t13 16.5t13 14t13 12t11.5 9t10 7.5l6 4h271v-25q0 -196 -22.5 -314t-71 -187t-138.5 -119l192 -253v-198h-1019l-4 21q-5 28 -5 39 q0 69 22.5 107.5t65.5 58.5h579l-548 640h-108q-22 59 -22 79z" />
<glyph unicode="&#x5e7;" horiz-adv-x="1426" d="M144 926q0 50 20 90t58 84h1083v-227l-35 -54l-352 -819h-284l365 870h-852v25q0 3 -1.5 13.5t-1.5 17.5zM157 -455v1199q50 16 75 16q19 0 38.5 -4.5t31.5 -9t32.5 -17.5t27 -17.5t30 -23t27.5 -21.5v-1122h-262z" />
<glyph unicode="&#x5e8;" horiz-adv-x="1132" d="M87 938q0 78 54 162h362q202 0 308 -46.5t163 -147.5q34 -52 44.5 -118t10.5 -213v-575h-267v637q0 107 -68 170t-180 63h-418q-9 43 -9 68z" />
<glyph unicode="&#x5e9;" horiz-adv-x="1641" d="M98 948q0 79 70 152h284v-593q131 0 198 53t67 124v186h-74q-19 54 -19 98q0 75 75 132h278v-395q0 -64 -32.5 -131.5t-88.5 -123.5t-139 -92t-174 -36q85 -68 135.5 -87t159.5 -19q91 0 165.5 20.5t120.5 51.5t77 71t43.5 76.5t12.5 69.5v365h-92l-3 22q0 11 -1.5 30 t-1.5 25q0 49 18 83t53 70h287v-615q0 -66 -30.5 -138t-91 -140t-141 -122.5t-191 -87.5t-230.5 -33q-153 0 -279.5 47.5t-205 125t-121 171.5t-42.5 193v369h-76l-4 21q-7 42 -7 57z" />
<glyph unicode="&#x5ea;" horiz-adv-x="1487" d="M74 88q0 80 66 138q82 -26 108 -26q31 0 59.5 27t39.5 52v591h-145q-10 43 -10 79q0 50 16 84.5t47 66.5h750q130 0 207 -58q170 -122 170 -354v-688h-257v688q-16 60 -66 112.5t-110 69.5h-326v-647q-40 -166 -162 -202q-114 -37 -186 -37q-107 0 -196 49q-5 40 -5 55z " />
<glyph unicode="&#x5f0;" horiz-adv-x="948" d="M94 870v44q0 57 11.5 94t48.5 92h309v-1100h-256v870h-113zM517 870v44q0 57 11.5 94t48.5 92h309v-1100h-256v870h-113z" />
<glyph unicode="&#x5f1;" horiz-adv-x="915" d="M92 874v25q0 123 75 205h272v-536l-264 -134v440h-83zM484 870v44q0 57 11.5 94t48.5 92h309v-1100h-256v870h-113z" />
<glyph unicode="&#x5f2;" horiz-adv-x="958" d="M108 870v25q0 123 75 205h272v-536l-264 -134v440h-83zM557 866v25q0 123 75 205h272v-536l-264 -134v440h-83z" />
<glyph unicode="&#x5f3;" horiz-adv-x="508" d="M80 829v203h50q14 0 23.5 5.5t20 23t16 58.5t5.5 103v86h233v-51q0 -120 -33.5 -215.5t-102 -154t-162.5 -58.5h-50z" />
<glyph unicode="&#x5f4;" horiz-adv-x="805" d="M80 829v203h50q14 0 23.5 5.5t20 23t16 58.5t5.5 103v86h233v-51q0 -129 -39 -228h20q14 0 23.5 5.5t20 23t16 58.5t5.5 103v86h233v-51q0 -120 -33.5 -215.5t-102 -154t-162.5 -58.5h-50v141q-81 -138 -229 -138h-50z" />
<glyph unicode="&#x2000;" horiz-adv-x="789" />
<glyph unicode="&#x2001;" horiz-adv-x="1578" />
<glyph unicode="&#x2002;" horiz-adv-x="789" />
<glyph unicode="&#x2003;" horiz-adv-x="1578" />
<glyph unicode="&#x2004;" horiz-adv-x="526" />
<glyph unicode="&#x2005;" horiz-adv-x="394" />
<glyph unicode="&#x2006;" horiz-adv-x="263" />
<glyph unicode="&#x2007;" horiz-adv-x="263" />
<glyph unicode="&#x2008;" horiz-adv-x="197" />
<glyph unicode="&#x2009;" horiz-adv-x="315" />
<glyph unicode="&#x200a;" horiz-adv-x="87" />
<glyph unicode="&#x2010;" horiz-adv-x="625" d="M61 426v185h498v-185h-498z" />
<glyph unicode="&#x2011;" horiz-adv-x="625" d="M61 426v185h498v-185h-498z" />
<glyph unicode="&#x2012;" horiz-adv-x="625" d="M61 426v185h498v-185h-498z" />
<glyph unicode="&#x2013;" horiz-adv-x="1151" d="M61 426v185h1024v-185h-1024z" />
<glyph unicode="&#x2014;" horiz-adv-x="2175" d="M61 426v185h2048v-185h-2048z" />
<glyph unicode="&#x2018;" horiz-adv-x="362" d="M90 909v118l22 3q34 5 51 31.5t17 87.5h-90v246h225v-215q0 -123 -52 -197t-148 -74h-25z" />
<glyph unicode="&#x2019;" horiz-adv-x="362" d="M90 909v118l22 3q34 5 51 31.5t17 87.5h-90v246h225v-215q0 -123 -52 -197t-148 -74h-25z" />
<glyph unicode="&#x201a;" horiz-adv-x="260" d="M57 68h225v-215q0 -123 -52 -197t-148 -74h-25v118l22 3q34 5 51 31.5t17 87.5h-90v246z" />
<glyph unicode="&#x201c;" horiz-adv-x="594" d="M73 1122v235h224v-235l-54 -275h-116zM373 1121v236h225v-236l-56 -274h-113z" />
<glyph unicode="&#x201d;" horiz-adv-x="594" d="M73 1122v235h224v-235l-54 -275h-116zM373 1121v236h225v-236l-56 -274h-113z" />
<glyph unicode="&#x201e;" horiz-adv-x="594" d="M73 -111v235h224v-235l-54 -275h-116zM373 -112v236h225v-236l-56 -274h-113z" />
<glyph unicode="&#x202f;" horiz-adv-x="315" />
<glyph unicode="&#x205f;" horiz-adv-x="394" />
<glyph unicode="&#x20ac;" horiz-adv-x="1161" d="M46 452l60 161h92v26q0 10 1 26t1 22h-154l60 161h115q44 201 166 332q157 172 431 172q185 0 313 -82l17 -11l-73 -177l-24 14q-102 59 -253 59q-135 0 -227.5 -80t-131.5 -227h543l-62 -161h-504q0 -10 -0.5 -25t-0.5 -21v-28h478l-65 -161h-392q38 -148 133 -233 t204 -85q80 0 135.5 11t111.5 39l24 13l72 -178l-19 -11q-126 -71 -326 -71q-101 0 -201 41.5t-176 119.5q-135 139 -177 354h-171z" />
<glyph unicode="&#xe000;" horiz-adv-x="985" d="M0 0v985h985v-985h-985z" />
<glyph unicode="&#xfb1d;" horiz-adv-x="590" d="M110 870v25q0 123 75 205h272v-536l-264 -134v440h-83zM226 273q0 42 29.5 70.5t69.5 28.5q42 0 70.5 -29.5t28.5 -69.5q0 -42 -29 -70t-70 -28q-43 0 -71 29t-28 69z" />
<glyph unicode="&#xfb1e;" />
<glyph unicode="&#xfb1f;" horiz-adv-x="952" d="M110 870v25q0 123 75 205h272v-536l-264 -134v440h-83zM206 193v164h570v-164h-570zM558 866v25q0 123 75 205h272v-536l-264 -134v440h-83z" />
<glyph unicode="&#xfb20;" horiz-adv-x="1372" d="M68 -13q0 2 0.5 18t0.5 31v2q7 47 28 88t70 82l331 38l-244 624h-114q-9 29 -9 45q0 48 13 101t43 78l7 6h283l321 -841q72 19 130.5 98t58.5 155v358h-102l-7 14q-5 9 -6 14.5t1 8.5l2 3q0 30 4.5 61.5t22.5 71t49 54.5l5 3h293v-487q0 -132 -48 -258t-130 -209.5 t-174 -96.5l-814 -88q-3 2 -7.5 5.5t-5 5t-1.5 5t-1 10.5z" />
<glyph unicode="&#xfb21;" horiz-adv-x="1909" d="M82 1105h413l6 -4q197 -120 440.5 -282t382.5 -277q54 38 107 144t53 182v12h-87v25q0 119 56 195h306q0 -16 0.5 -53.5t0.5 -58.5q0 -86 -26 -179.5t-90 -193.5t-156 -170q7 -7 42 -40.5t45.5 -44l41.5 -41.5t44.5 -46t39.5 -43t41 -48t35 -46t35.5 -50.5t28.5 -49.5 l19 -36h-304q-60 100 -226.5 250t-340.5 274t-288 182q-91 -71 -162 -241.5t-71 -293.5q0 -31 1 -88.5t1 -82.5h-349q0 136 50 230h72q0 173 84 329.5t206 255.5q-133 97 -379 244z" />
<glyph unicode="&#xfb22;" horiz-adv-x="1622" d="M83 936q0 67 61 171h1370v-25q0 -113 -56 -216h-77v-866h-288v866h-998q-12 58 -12 70z" />
<glyph unicode="&#xfb23;" horiz-adv-x="1816" d="M131 938q0 82 46 162h1028q191 0 293 -46t159 -147q34 -51 44.5 -116.5t10.5 -214.5v-576h-265v638q0 104 -63 167.5t-168 63.5h-1078l-4 21q-3 22 -3 48zM196 0v721l28 -3q118 -12 213 -81v-637h-241z" />
<glyph unicode="&#xfb24;" horiz-adv-x="1633" d="M122 36q0 100 75 196h885q99 19 170 106.5t71 213.5q0 83 -26.5 145.5t-72 99t-101 54t-118.5 17.5h-866q-10 46 -10 71q0 31 10 61.5t21.5 49.5t32.5 49h895q87 0 173.5 -36.5t159 -103.5t118 -174.5t45.5 -236.5q0 -134 -43 -241.5t-115 -172.5t-160 -99.5t-183 -34.5 h-958q0 3 -1.5 15.5t-1.5 20.5z" />
<glyph unicode="&#xfb25;" horiz-adv-x="1648" d="M14 1328v25q0 68 15.5 114t54.5 81l7 7h285v-453h1150v-223l-572 -879h-290l555 872h-1099v456h-106z" />
<glyph unicode="&#xfb26;" horiz-adv-x="1847" d="M143 0v1100h1196q93 0 164 -27.5t112 -68.5t66.5 -98t34 -108t8.5 -105v-693h-1581zM417 228h1039v461q0 99 -42.5 138t-119.5 39h-877v-638z" />
<glyph unicode="&#xfb27;" horiz-adv-x="1538" d="M87 940q0 84 47 162h791q194 0 296 -46t159 -148q34 -51 44.5 -116.5t10.5 -214.5v-577h-266v639q0 104 -64 168.5t-170 64.5h-839q-9 47 -9 68z" />
<glyph unicode="&#xfb28;" horiz-adv-x="1984" d="M74 92q0 14 1.5 27t4.5 24t6.5 20t9 17t9 13.5t10 12.5t9 9.5t9 8t7.5 6.5q93 -26 108 -26q31 0 59.5 26.5t38.5 52.5v590h-184l-3 23q-5 43 -5 55q0 44 15.5 78t47.5 71h1288q128 0 207 -58q167 -120 167 -355v-687h-259v679q-14 63 -62.5 119.5t-109.5 74.5h-835v-634 l2 -2q-39 -175 -158 -212q-108 -36 -182 -36q-41 0 -101 15t-95 34q-5 27 -5 54z" />
<glyph unicode="&#xfb29;" horiz-adv-x="1015" d="M102 418v229h304v291h269v-291h293v-229h-866z" />
<glyph unicode="&#xfb2a;" horiz-adv-x="1641" d="M98 948q0 79 70 152h284v-593q131 0 198 53t67 124v186h-74q-19 54 -19 98q0 75 75 132h278v-395q0 -64 -32.5 -131.5t-88.5 -123.5t-139 -92t-174 -36q85 -68 135.5 -87t159.5 -19q91 0 165.5 20.5t120.5 51.5t77 71t43.5 76.5t12.5 69.5v365h-92l-3 22q0 11 -1.5 30 t-1.5 25q0 49 18 83t53 70h287v-615q0 -66 -30.5 -138t-91 -140t-141 -122.5t-191 -87.5t-230.5 -33q-153 0 -279.5 47.5t-205 125t-121 171.5t-42.5 193v369h-76l-4 21q-7 42 -7 57zM1296 1262q0 42 29.5 70.5t69.5 28.5q42 0 70.5 -29.5t28.5 -69.5q0 -42 -29 -70t-70 -28 q-43 0 -71 29t-28 69z" />
<glyph unicode="&#xfb2b;" horiz-adv-x="1641" d="M98 948q0 79 70 152h284v-593q131 0 198 53t67 124v186h-74q-19 54 -19 98q0 75 75 132h278v-395q0 -64 -32.5 -131.5t-88.5 -123.5t-139 -92t-174 -36q85 -68 135.5 -87t159.5 -19q91 0 165.5 20.5t120.5 51.5t77 71t43.5 76.5t12.5 69.5v365h-92l-3 22q0 11 -1.5 30 t-1.5 25q0 49 18 83t53 70h287v-615q0 -66 -30.5 -138t-91 -140t-141 -122.5t-191 -87.5t-230.5 -33q-153 0 -279.5 47.5t-205 125t-121 171.5t-42.5 193v369h-76l-4 21q-7 42 -7 57zM229 1265q0 42 29.5 70.5t69.5 28.5q42 0 70.5 -29.5t28.5 -69.5q0 -42 -29 -70t-70 -28 q-43 0 -71 29t-28 69z" />
<glyph unicode="&#xfb2c;" horiz-adv-x="1641" d="M98 948q0 79 70 152h284v-593q131 0 198 53t67 124v186h-74q-19 54 -19 98q0 75 75 132h278v-395q0 -64 -32.5 -131.5t-88.5 -123.5t-139 -92t-174 -36q85 -68 135.5 -87t159.5 -19q91 0 165.5 20.5t120.5 51.5t77 71t43.5 76.5t12.5 69.5v365h-92l-3 22q0 11 -1.5 30 t-1.5 25q0 49 18 83t53 70h287v-615q0 -66 -30.5 -138t-91 -140t-141 -122.5t-191 -87.5t-230.5 -33q-153 0 -279.5 47.5t-205 125t-121 171.5t-42.5 193v369h-76l-4 21q-7 42 -7 57zM979 558q0 42 29.5 70.5t69.5 28.5q42 0 70.5 -29.5t28.5 -69.5q0 -42 -29.5 -69.5 t-69.5 -27.5q-42 0 -70.5 28.5t-28.5 68.5zM1296 1262q0 42 29.5 70.5t69.5 28.5q42 0 70.5 -29.5t28.5 -69.5q0 -42 -29 -70t-70 -28q-43 0 -71 29t-28 69z" />
<glyph unicode="&#xfb2d;" horiz-adv-x="1641" d="M98 948q0 79 70 152h284v-593q131 0 198 53t67 124v186h-74q-19 54 -19 98q0 75 75 132h278v-395q0 -64 -32.5 -131.5t-88.5 -123.5t-139 -92t-174 -36q85 -68 135.5 -87t159.5 -19q91 0 165.5 20.5t120.5 51.5t77 71t43.5 76.5t12.5 69.5v365h-92l-3 22q0 11 -1.5 30 t-1.5 25q0 49 18 83t53 70h287v-615q0 -66 -30.5 -138t-91 -140t-141 -122.5t-191 -87.5t-230.5 -33q-153 0 -279.5 47.5t-205 125t-121 171.5t-42.5 193v369h-76l-4 21q-7 42 -7 57zM229 1265q0 42 29.5 70.5t69.5 28.5q42 0 70.5 -29.5t28.5 -69.5q0 -42 -29 -70t-70 -28 q-43 0 -71 29t-28 69zM979 558q0 42 29.5 70.5t69.5 28.5q42 0 70.5 -29.5t28.5 -69.5q0 -42 -29.5 -69.5t-69.5 -27.5q-42 0 -70.5 28.5t-28.5 68.5z" />
<glyph unicode="&#xfb2e;" horiz-adv-x="1368" d="M82 1100h352h8q240 -241 425 -475q39 29 55 85.5t16 147.5v12h-89v25q0 53 13.5 102t24 69.5t20.5 33.5h8h303q0 -16 0.5 -53.5t0.5 -58.5q0 -56 -3.5 -101t-16 -104.5t-34.5 -108.5t-62.5 -101.5t-96.5 -94.5q192 -249 294 -442l19 -36h-298h-8q-200 335 -452 619 q-81 -63 -135.5 -174t-54.5 -215h69l7 -14q25 -53 25 -156q0 -32 -3 -60h-3h-344q0 144 16 258.5t40 190t64.5 138t76.5 99t88 77.5q-141 165 -282 301zM460 -140h388v-164h-388v164z" />
<glyph unicode="&#xfb2f;" horiz-adv-x="1368" d="M82 1100h352h8q240 -241 425 -475q39 29 55 85.5t16 147.5v12h-89v25q0 53 13.5 102t24 69.5t20.5 33.5h8h303q0 -16 0.5 -53.5t0.5 -58.5q0 -56 -3.5 -101t-16 -104.5t-34.5 -108.5t-62.5 -101.5t-96.5 -94.5q192 -249 294 -442l19 -36h-298h-8q-200 335 -452 619 q-81 -63 -135.5 -174t-54.5 -215h69l7 -14q25 -53 25 -156q0 -32 -3 -60h-3h-344q0 144 16 258.5t40 190t64.5 138t76.5 99t88 77.5q-141 165 -282 301zM451 -140h428v-162h-121v-247h-167v247h-140v162z" />
<glyph unicode="&#xfb30;" horiz-adv-x="1368" d="M82 1100h352h8q240 -241 425 -475q39 29 55 85.5t16 147.5v12h-89v25q0 53 13.5 102t24 69.5t20.5 33.5h8h303q0 -16 0.5 -53.5t0.5 -58.5q0 -56 -3.5 -101t-16 -104.5t-34.5 -108.5t-62.5 -101.5t-96.5 -94.5q192 -249 294 -442l19 -36h-298h-8q-200 335 -452 619 q-81 -63 -135.5 -174t-54.5 -215h69l7 -14q25 -53 25 -156q0 -32 -3 -60h-3h-344q0 144 16 258.5t40 190t64.5 138t76.5 99t88 77.5q-141 165 -282 301zM612 127q0 41 29.5 68.5t69.5 27.5q42 0 70.5 -28.5t28.5 -67.5q0 -41 -29.5 -68t-69.5 -27q-42 0 -70.5 28t-28.5 67z " />
<glyph unicode="&#xfb31;" horiz-adv-x="1151" d="M75 0q0 105 66 219l8 11h567v448q0 97 -52.5 144.5t-140.5 47.5h-350v25q0 116 55 205h8h294q111 0 212 -39.5t169 -118.5t68 -180v-532h117v-25q0 -89 -54 -205h-6h-961zM300 560q0 42 29.5 70.5t69.5 28.5q42 0 70.5 -29.5t28.5 -69.5q0 -42 -29.5 -69.5t-69.5 -27.5 q-42 0 -70.5 28.5t-28.5 68.5z" />
<glyph unicode="&#xfb32;" horiz-adv-x="901" d="M79 -56q0 91 14.5 160.5t59.5 131.5q259 210 354 349v205q0 47 -31.5 63.5t-91.5 16.5h-232v25q0 116 63 205h207q162 0 255.5 -71t93.5 -226v-602q18 -101 50 -167l16 -34h-265l-5 20q-3 14 -15 62.5t-17 72t-10.5 62t-5.5 70.5q-36 -44 -76.5 -86t-90.5 -85.5 t-78.5 -67.5t-86 -69.5t-67.5 -53.5l-41 -33v52zM163 562q0 42 29.5 70.5t69.5 28.5q42 0 70.5 -29.5t28.5 -69.5q0 -42 -29.5 -69.5t-69.5 -27.5q-42 0 -70.5 28.5t-28.5 68.5z" />
<glyph unicode="&#xfb33;" horiz-adv-x="1178" d="M83 941q0 72 51 159h936v-25q0 -57 -9 -101.5t-15.5 -60t-21.5 -43.5h-77v-870h-297v870h-555q-12 53 -12 71zM284 558q0 42 29.5 70.5t69.5 28.5q42 0 70.5 -29.5t28.5 -69.5q0 -42 -29.5 -69.5t-69.5 -27.5q-42 0 -70.5 28.5t-28.5 68.5z" />
<glyph unicode="&#xfb34;" horiz-adv-x="1322" d="M131 936q0 79 53 164h516q196 0 301 -46t162 -147q34 -52 44.5 -118t10.5 -213v-576h-265v638q0 106 -66.5 169t-175.5 63h-573l-4 21q-3 24 -3 45zM165 0v719l28 -3q112 -12 213 -81v-635h-241zM570 559q0 42 29.5 70.5t69.5 28.5q42 0 70.5 -29.5t28.5 -69.5 q0 -42 -29.5 -69.5t-69.5 -27.5q-42 0 -70.5 28.5t-28.5 68.5z" />
<glyph unicode="&#xfb35;" horiz-adv-x="739" d="M75 562q0 42 29.5 70.5t69.5 28.5q42 0 70.5 -29.5t28.5 -69.5q0 -42 -29.5 -69.5t-69.5 -27.5q-42 0 -70.5 28.5t-28.5 68.5zM227 870v44q0 57 11.5 94t48.5 92h309v-1100h-256v870h-113z" />
<glyph unicode="&#xfb36;" horiz-adv-x="998" d="M60 560q0 42 29.5 70.5t69.5 28.5q42 0 70.5 -29.5t28.5 -69.5q0 -42 -29.5 -69.5t-69.5 -27.5q-42 0 -70.5 28.5t-28.5 68.5zM177 928q0 77 62 173h8h633h4q7 -28 7 -56q0 -92 -61 -166l-12 -13q-25 14 -46 9q-51 0 -97 -44t-70 -95t-24 -84v-652h-258v536 q0 108 28 187.5t92 147.5h-264v25q0 5 -1 15t-1 17z" />
<glyph unicode="&#xfb37;" horiz-adv-x="1378" d="M106 870v25q0 57 9.5 100.5t19.5 61.5t27 43h762q75 0 157 -52t135.5 -127.5t53.5 -140.5v-780h-266v710q0 48 -61.5 104t-104.5 56h-382v-870h-266v870h-84zM621 555q0 42 29.5 70.5t69.5 28.5q42 0 70.5 -29.5t28.5 -69.5q0 -42 -29.5 -69.5t-69.5 -27.5 q-42 0 -70.5 28.5t-28.5 68.5z" />
<glyph unicode="&#xfb38;" horiz-adv-x="1400" d="M101 879v22q0 54 12 97t22.5 60.5t29.5 41.5h295v-741q0 -55 26.5 -100t69.5 -72t88.5 -43t91.5 -21q165 0 256 102.5t91 280.5q0 197 -61 296t-193 99q-33 0 -60 -8.5t-41 -19t-29 -19t-28 -8.5h-4q-39 9 -39 72q0 7 0.5 20t0.5 19q0 66 22 106q119 52 256 52 q100 0 177.5 -32.5t125.5 -86t78.5 -130t42.5 -155t12 -170.5q0 -125 -38 -229t-113 -182.5t-195 -122t-275 -43.5q-237 0 -385 122t-148 304v489h-88zM648 556q0 42 29.5 70.5t69.5 28.5q42 0 70.5 -29.5t28.5 -69.5q0 -42 -29.5 -69.5t-69.5 -27.5q-42 0 -70.5 28.5 t-28.5 68.5z" />
<glyph unicode="&#xfb39;" horiz-adv-x="731" d="M70 662q0 42 29.5 70.5t69.5 28.5q42 0 70.5 -29.5t28.5 -69.5q0 -42 -29.5 -69.5t-69.5 -27.5q-42 0 -70.5 28.5t-28.5 68.5zM251 870v25q0 123 75 205h272v-536l-264 -134v440h-83z" />
<glyph unicode="&#xfb3a;" horiz-adv-x="1139" d="M85 871v25q0 131 69 205h7h503q90 0 176.5 -54.5t140.5 -144.5t54 -187q0 -43 0.5 -529t0.5 -615l-25 -25h-230v1152q0 67 -53.5 120t-150.5 53h-492zM324 557q0 42 29.5 70.5t69.5 28.5q42 0 70.5 -29.5t28.5 -69.5q0 -42 -29.5 -69.5t-69.5 -27.5q-42 0 -70.5 28.5 t-28.5 68.5z" />
<glyph unicode="&#xfb3b;" horiz-adv-x="1177" d="M122 57q0 86 72 173h392q114 20 197 109.5t83 214.5q0 68 -19 122.5t-50.5 90t-75 59.5t-90.5 34t-99 10h-398q-9 43 -9 72q0 72 64 158h430q92 0 181 -37t163 -104t119.5 -174.5t45.5 -235.5q0 -135 -44 -241.5t-119 -172.5t-170.5 -100.5t-203.5 -34.5h-466v25 q0 3 -1.5 14t-1.5 18zM356 555q0 42 29.5 70.5t69.5 28.5q42 0 70.5 -29.5t28.5 -69.5q0 -42 -29.5 -69.5t-69.5 -27.5q-42 0 -70.5 28.5t-28.5 68.5z" />
<glyph unicode="&#xfb3c;" horiz-adv-x="1195" d="M14 1326v25q0 68 15.5 114t54.5 81l7 7h290v-453h692v-221l-398 -879h-286l382 870h-651v456h-106zM272 558q0 42 29.5 70.5t69.5 28.5q42 0 70.5 -29.5t28.5 -69.5q0 -42 -29.5 -69.5t-69.5 -27.5q-42 0 -70.5 28.5t-28.5 68.5z" />
<glyph unicode="&#xfb3d;" horiz-adv-x="1349" d="M158 0v1100h692q95 0 167 -27t113.5 -68t67.5 -98t34.5 -107.5t8.5 -105.5v-694h-1083zM434 230h537v462q0 100 -44 139t-124 39h-369v-640zM600 558q0 42 29.5 70.5t69.5 28.5q42 0 70.5 -29.5t28.5 -69.5q0 -42 -29.5 -69.5t-69.5 -27.5q-42 0 -70.5 28.5t-28.5 68.5z " />
<glyph unicode="&#xfb3e;" horiz-adv-x="1409" d="M94 1080l23 8q61 20 112 20q41 0 140 -23l75 -199q56 94 148 154.5t218 60.5q139 0 246.5 -45t172.5 -124t98 -179t33 -217q0 -291 -154 -428.5t-427 -137.5q-12 0 -23.5 0.5t-24.5 2.5t-22 3t-23 4.5t-20 4.5t-22 6t-19.5 6t-21 6.5t-19.5 5.5q-13 44 -13 89 q0 77 48 179l19 40l28 -36q25 -33 41 -43t54 -10q166 0 254 87t88 227q0 148 -73 236t-228 88q-62 0 -110.5 -24t-81 -64.5t-57.5 -99.5t-40 -121.5t-28 -139t-22 -143.5t-22 -143t-28 -131h-267l75 703zM697 558q0 42 29.5 70.5t69.5 28.5q42 0 70.5 -29.5t28.5 -69.5 q0 -42 -29.5 -69.5t-69.5 -27.5q-42 0 -70.5 28.5t-28.5 68.5z" />
<glyph unicode="&#xfb3f;" horiz-adv-x="728" d="M70 557q0 42 29.5 70.5t69.5 28.5q42 0 70.5 -29.5t28.5 -69.5q0 -42 -29.5 -69.5t-69.5 -27.5q-42 0 -70.5 28.5t-28.5 68.5zM224 870v50q0 3 5 36.5t8.5 48.5t16 43.5t31.5 51.5h300v-1555h-255v1325h-106z" />
<glyph unicode="&#xfb40;" horiz-adv-x="823" d="M80 53q0 90 76 177h282v558q0 53 -14 67.5t-44 14.5h-17h-212v25q0 102 78 205h209q112 0 184 -67.5t72 -207.5v-825h-611v25q0 1 -1.5 11.5t-1.5 16.5zM164 558q0 42 29.5 70.5t69.5 28.5q42 0 70.5 -29.5t28.5 -69.5q0 -42 -29.5 -69.5t-69.5 -27.5q-42 0 -70.5 28.5 t-28.5 68.5z" />
<glyph unicode="&#xfb41;" horiz-adv-x="1347" d="M117 870l4 29q20 125 99 201h576q106 0 194.5 -32.5t158 -98.5t108.5 -176.5t39 -256.5q0 -271 -154.5 -420t-447.5 -149q-119 0 -216 32.5t-156 82.5t-99 113t-55.5 119t-15.5 106v406l35 44h-70zM425 425q0 -33 19 -71t53 -74t90 -59.5t121 -23.5q154 0 239 97t85 245 q0 89 -23.5 155.5t-63 103.5t-85.5 54.5t-98 17.5h-337v-445zM609 559q0 42 29.5 70.5t69.5 28.5q42 0 70.5 -29.5t28.5 -69.5q0 -42 -29.5 -69.5t-69.5 -27.5q-42 0 -70.5 28.5t-28.5 68.5z" />
<glyph unicode="&#xfb42;" horiz-adv-x="1337" d="M64 -166q0 137 105 229l258 86l-210 721h-112q-9 26 -9 45q0 132 62 185h283l253 -880q30 14 60 31t67.5 45.5t65 59.5t46.5 72t19 84v358h-104q-7 13 -10 21t-2.5 10t1.5 4.5t1 4.5q0 149 83 190h293v-490q0 -106 -25 -197t-65.5 -152t-80.5 -100t-81 -61l-885 -353 l-6 30q-7 29 -7 57zM655 556q0 42 29.5 70.5t69.5 28.5q42 0 70.5 -29.5t28.5 -69.5q0 -42 -29.5 -69.5t-69.5 -27.5q-42 0 -70.5 28.5t-28.5 68.5z" />
<glyph unicode="&#xfb43;" horiz-adv-x="1293" d="M145 668v432h658q175 0 277 -106t102 -282v-1167h-260v1160q0 82 -52.5 123.5t-133.5 41.5h-331v-168q0 -78 96 -78q34 0 76 11l23 6l10 -20q18 -39 18 -93q0 -12 -2 -25t-4 -21t-6 -21.5t-6 -19.5q-87 -25 -163 -25q-130 0 -216 70.5t-86 181.5zM665 505q0 42 29.5 70.5 t69.5 28.5q42 0 70.5 -29.5t28.5 -69.5q0 -42 -29.5 -69.5t-69.5 -27.5q-42 0 -70.5 28.5t-28.5 68.5z" />
<glyph unicode="&#xfb44;" horiz-adv-x="1299" d="M151 0v25q0 61 10.5 106t20 61t27.5 38h521q89 0 172 98.5t83 244.5q0 135 -51.5 216t-148.5 81h-369v-168q16 -40 33.5 -51.5t45.5 -11.5q6 0 41 6t66 6q28 -56 28 -118q0 -33 -20 -86q-91 -19 -163 -19q-235 0 -296 221v451h690q93 0 166 -35.5t117 -90t72 -128 t38.5 -141.5t10.5 -138q0 -101 -36 -202t-98.5 -182t-154.5 -132t-195 -51h-610zM680 526q0 42 29.5 70.5t69.5 28.5q42 0 70.5 -29.5t28.5 -69.5q0 -42 -29.5 -69.5t-69.5 -27.5q-42 0 -70.5 28.5t-28.5 68.5z" />
<glyph unicode="&#xfb45;" horiz-adv-x="1268" d="M76 957q0 76 60 144h193q174 -117 325 -524q4 -9 5 -13q8 3 25 8q33 10 50.5 16t48 20t47 27t37.5 36t32 49.5t19 65t8 84.5h-131q-19 44 -19 84q0 30 9.5 55.5t18.5 39t28.5 27.5t22.5 15.5l17 8.5h277v-25q0 -185 -17.5 -293t-55.5 -172.5t-111 -117.5 q-106 -74 -203 -109v-838h-279v459q0 38 -1.5 101.5t-1.5 90.5q0 191 -79 381.5t-183 292.5h-126q-16 54 -16 87zM639 752q0 39 27 65t64 26q39 0 65 -27t26 -64q0 -38 -27 -63.5t-64 -25.5q-39 0 -65 26.5t-26 62.5z" />
<glyph unicode="&#xfb46;" horiz-adv-x="1320" d="M113 949q0 63 69 151h213l426 -503q49 31 72 56q73 79 73 214h-126q-15 56 -15 80q0 13 2.5 26t6 24t9.5 21.5t11.5 18.5t13 16.5t13 14t13 12t11.5 9t10 7.5l6 4h271v-25q0 -196 -22.5 -314t-71 -187t-138.5 -119l192 -253v-198h-1019l-4 21q-5 28 -5 39 q0 69 22.5 107.5t65.5 58.5h579l-548 640h-108q-22 59 -22 79zM280 412q0 42 29.5 70.5t69.5 28.5q42 0 70.5 -29.5t28.5 -69.5q0 -42 -29.5 -69.5t-69.5 -27.5q-42 0 -70.5 28.5t-28.5 68.5z" />
<glyph unicode="&#xfb47;" horiz-adv-x="1426" d="M144 926q0 50 20 90t58 84h1083v-227l-35 -54l-352 -819h-284l365 870h-852v25q0 3 -1.5 13.5t-1.5 17.5zM157 -455v1199q50 16 75 16q19 0 38.5 -4.5t31.5 -9t32.5 -17.5t27 -17.5t30 -23t27.5 -21.5v-1122h-262zM547 565q0 42 29.5 70.5t69.5 28.5q42 0 70.5 -29.5 t28.5 -69.5q0 -42 -29.5 -69.5t-69.5 -27.5q-42 0 -70.5 28.5t-28.5 68.5zM1748 510z" />
<glyph unicode="&#xfb48;" horiz-adv-x="1132" d="M87 938q0 78 54 162h362q202 0 308 -46.5t163 -147.5q34 -52 44.5 -118t10.5 -213v-575h-267v637q0 107 -68 170t-180 63h-418q-9 43 -9 68zM331 558q0 42 29.5 70.5t69.5 28.5q42 0 70.5 -29.5t28.5 -69.5q0 -42 -29.5 -69.5t-69.5 -27.5q-42 0 -70.5 28.5t-28.5 68.5z " />
<glyph unicode="&#xfb49;" horiz-adv-x="1641" d="M98 948q0 79 70 152h284v-593q131 0 198 53t67 124v186h-74q-19 54 -19 98q0 75 75 132h278v-395q0 -64 -32.5 -131.5t-88.5 -123.5t-139 -92t-174 -36q85 -68 135.5 -87t159.5 -19q91 0 165.5 20.5t120.5 51.5t77 71t43.5 76.5t12.5 69.5v365h-92l-3 22q0 11 -1.5 30 t-1.5 25q0 49 18 83t53 70h287v-615q0 -66 -30.5 -138t-91 -140t-141 -122.5t-191 -87.5t-230.5 -33q-153 0 -279.5 47.5t-205 125t-121 171.5t-42.5 193v369h-76l-4 21q-7 42 -7 57zM979 558q0 42 29.5 70.5t69.5 28.5q42 0 70.5 -29.5t28.5 -69.5q0 -42 -29.5 -69.5 t-69.5 -27.5q-42 0 -70.5 28.5t-28.5 68.5z" />
<glyph unicode="&#xfb4a;" horiz-adv-x="1487" d="M74 88q0 80 66 138q82 -26 108 -26q31 0 59.5 27t39.5 52v591h-145q-10 43 -10 79q0 50 16 84.5t47 66.5h750q130 0 207 -58q170 -122 170 -354v-688h-257v688q-16 60 -66 112.5t-110 69.5h-326v-647q-40 -166 -162 -202q-114 -37 -186 -37q-107 0 -196 49q-5 40 -5 55z M747 557q0 42 29.5 70.5t69.5 28.5q42 0 70.5 -29.5t28.5 -69.5q0 -42 -29.5 -69.5t-69.5 -27.5q-42 0 -70.5 28.5t-28.5 68.5z" />
<glyph unicode="&#xfb4b;" horiz-adv-x="532" d="M97 870v44q0 57 11.5 94t48.5 92h309v-1100h-256v870h-113zM279 1325q0 42 29.5 70.5t69.5 28.5q42 0 70.5 -29.5t28.5 -69.5q0 -42 -29 -70t-70 -28q-43 0 -71 29t-28 69z" />
<glyph unicode="&#xfb4c;" horiz-adv-x="1151" d="M75 0q0 105 66 219l8 11h567v448q0 97 -52.5 144.5t-140.5 47.5h-350v25q0 116 55 205h8h294q111 0 212 -39.5t169 -118.5t68 -180v-532h117v-25q0 -89 -54 -205h-6h-961zM253 1290v201h492v-201h-492z" />
<glyph unicode="&#xfb4d;" horiz-adv-x="1177" d="M122 57q0 86 72 173h392q114 20 197 109.5t83 214.5q0 68 -19 122.5t-50.5 90t-75 59.5t-90.5 34t-99 10h-398q-9 43 -9 72q0 72 64 158h430q92 0 181 -37t163 -104t119.5 -174.5t45.5 -235.5q0 -135 -44 -241.5t-119 -172.5t-170.5 -100.5t-203.5 -34.5h-466v25 q0 3 -1.5 14t-1.5 18zM243 1262v201h492v-201h-492z" />
<glyph unicode="&#xfb4e;" horiz-adv-x="1299" d="M151 0v25q0 61 10.5 106t20 61t27.5 38h521q89 0 172 98.5t83 244.5q0 135 -51.5 216t-148.5 81h-369v-168q16 -40 33.5 -51.5t45.5 -11.5q6 0 41 6t66 6q28 -56 28 -118q0 -33 -20 -86q-91 -19 -163 -19q-235 0 -296 221v451h690q93 0 166 -35.5t117 -90t72 -128 t38.5 -141.5t10.5 -138q0 -101 -36 -202t-98.5 -182t-154.5 -132t-195 -51h-610zM356 1298v201h492v-201h-492z" />
<glyph unicode="&#xfb4f;" horiz-adv-x="1612" d="M12 1357l83 221h290v-475h373l8 -8q47 -49 105 -130t76 -102q72 -84 202 -250q40 34 56 85.5t16 141.5v259h277v-24q0 -239 -42 -377.5t-166 -230.5q177 -229 289 -432l20 -35h-296l-7 14q-64 118 -155.5 240.5t-170 208.5t-189 206.5t-178.5 203.5h-475v484h-116z" />
</font>
</defs>
</svg>
